<svg xmlns="http://www.w3.org/2000/svg" xmlns:xlink="http://www.w3.org/1999/xlink" width="500" zoomAndPan="magnify" viewBox="0 0 375 374.999991" height="500" preserveAspectRatio="xMidYMid meet" version="1.0"><path fill="#66b0f0" d="M 358.761719 172.523438 L 348.835938 187.246094 L 133.878906 42.472656 L 143.804688 27.75 C 148.359375 20.980469 157.585938 19.171875 164.332031 23.726562 L 354.738281 151.972656 C 361.507812 156.527344 363.316406 165.753906 358.761719 172.523438 Z M 289.519531 275.328125 L 300.433594 197.4375 L 329.007812 216.6875 Z M 269.28125 342.882812 C 268.148438 350.957031 260.65625 356.617188 252.585938 355.484375 L 25.246094 323.632812 C 17.171875 322.5 11.488281 314.984375 12.644531 306.914062 L 26.59375 207.289062 L 283.253906 243.285156 Z M 33.988281 154.574219 C 35.121094 146.480469 42.617188 140.84375 50.6875 141.972656 L 278.027344 173.847656 C 286.121094 174.957031 291.785156 182.449219 290.625 190.546875 L 288.167969 208.109375 L 31.507812 172.136719 Z M 114.074219 71.914062 L 241.910156 158.019531 L 72.105469 134.191406 Z M 360.6875 143.15625 L 170.308594 14.910156 C 158.671875 7.078125 142.816406 10.136719 134.964844 21.800781 L 60.347656 132.554688 L 52.179688 131.421875 C 38.277344 129.46875 25.390625 139.203125 23.4375 153.105469 L 2.117188 305.417969 C 0.140625 319.320312 9.875 332.210938 23.75 334.164062 L 251.089844 366.039062 C 264.992188 367.988281 277.882812 358.230469 279.832031 344.355469 L 286.144531 299.398438 L 367.578125 178.449219 C 375.433594 166.839844 372.324219 150.984375 360.6875 143.15625 " fill-opacity="1" fill-rule="nonzero"/><path fill="#66b0f0" d="M 149.324219 252.246094 L 258.945312 267.640625 L 260.148438 258.945312 L 150.550781 243.574219 L 149.324219 252.246094 " fill-opacity="1" fill-rule="nonzero"/><path fill="#66b0f0" d="M 146.71875 271.039062 L 256.320312 286.386719 L 257.523438 277.6875 L 147.925781 262.316406 L 146.71875 271.039062 " fill-opacity="1" fill-rule="nonzero"/></svg>