<svg xmlns="http://www.w3.org/2000/svg" xmlns:xlink="http://www.w3.org/1999/xlink" width="500" zoomAndPan="magnify" viewBox="0 0 375 374.999991" height="500" preserveAspectRatio="xMidYMid meet" version="1.0"><defs><clipPath id="c17e8745ce"><path d="M 1.332031 68 L 64 68 L 64 173 L 1.332031 173 Z M 1.332031 68 " clip-rule="nonzero"/></clipPath><clipPath id="d144ce95d7"><path d="M 263 320 L 373.332031 320 L 373.332031 373.332031 L 263 373.332031 Z M 263 320 " clip-rule="nonzero"/></clipPath></defs><path fill="#1d4ed8" d="M 214.753906 112.972656 C 213.933594 112.042969 213.191406 111.039062 212.519531 110.015625 C 217.496094 112.089844 221.660156 115.742188 224.421875 120.390625 C 220.96875 118.851562 217.671875 116.398438 214.753906 112.972656 Z M 214.753906 112.972656 " fill-opacity="1" fill-rule="nonzero"/><path fill="#1d4ed8" d="M 217.097656 140.277344 C 214.441406 146.015625 208.703125 149.589844 202.515625 149.589844 C 201.679688 149.589844 200.804688 149.550781 199.96875 149.398438 L 171.953125 144.828125 C 164.042969 143.535156 156.039062 146.539062 150.917969 152.722656 L 146.78125 157.714844 C 139.792969 166.195312 128.371094 169.617188 117.890625 166.261719 L 83.117188 155.261719 C 79.28125 154.085938 75.257812 153.703125 71.273438 154.230469 L 70.890625 154.269531 L 70.90625 86.234375 L 72.503906 86.195312 C 81.65625 85.96875 90.648438 84.03125 99.042969 80.425781 L 181.128906 45.15625 C 189.292969 41.660156 198.554688 41.777344 206.640625 45.507812 L 215.953125 49.820312 C 217.445312 50.511719 217.726562 52.511719 216.492188 53.597656 L 162.253906 101.054688 C 160.910156 102.230469 161.386719 104.421875 163.097656 104.9375 L 207.191406 118.21875 C 216.492188 121.03125 221.160156 131.453125 217.097656 140.277344 Z M 217.097656 140.277344 " fill-opacity="1" fill-rule="nonzero"/><g clip-path="url(#c17e8745ce)"><path fill="#1d4ed8" d="M 52.539062 68.65625 L 12.757812 68.644531 C 6.792969 68.644531 1.933594 73.472656 1.933594 79.445312 L 1.910156 161.207031 C 1.910156 167.179688 6.765625 172.003906 12.726562 172.011719 L 52.511719 172.023438 C 58.472656 172.023438 63.292969 167.195312 63.300781 161.222656 L 63.320312 79.460938 C 63.320312 73.488281 58.503906 68.65625 52.539062 68.65625 Z M 32.625 160.335938 C 28.675781 160.335938 25.484375 157.140625 25.492188 153.226562 C 25.492188 149.269531 28.683594 146.074219 32.632812 146.082031 C 36.539062 146.082031 39.730469 149.277344 39.730469 153.230469 C 39.722656 157.144531 36.535156 160.34375 32.625 160.335938 Z M 32.625 160.335938 " fill-opacity="1" fill-rule="nonzero"/></g><path fill="#1d4ed8" d="M 322.480469 64.546875 C 305.855469 45.1875 289.277344 25.839844 272.671875 6.433594 C 269.808594 3.128906 263.753906 1.457031 259.460938 3.179688 C 240.792969 10.667969 226.972656 23.761719 214.65625 38.667969 L 225.371094 43.621094 C 234.179688 33.453125 243.824219 24.328125 255.527344 17.535156 C 258.683594 21.160156 264.558594 22.09375 269.09375 20 C 280.386719 33.160156 291.660156 46.363281 302.90625 59.507812 C 298.386719 61.554688 297.539062 66.546875 300.648438 70.152344 C 259.03125 94.28125 242.933594 148.261719 201.316406 172.386719 C 198.179688 168.722656 192.285156 167.828125 187.773438 169.875 C 183.546875 164.917969 179.261719 159.988281 175.03125 155.035156 L 170.414062 154.28125 C 167.085938 153.765625 163.734375 154.519531 161.019531 156.390625 C 168.726562 165.457031 176.464844 174.429688 184.191406 183.445312 C 187.035156 186.800781 193.109375 188.421875 197.402344 186.699219 C 251.847656 164.964844 265.140625 95.15625 319.554688 73.359375 C 323.839844 71.621094 325.328125 67.898438 322.480469 64.546875 Z M 322.480469 64.546875 " fill-opacity="1" fill-rule="nonzero"/><path fill="#1d4ed8" d="M 220.890625 93.492188 C 221.46875 94.167969 222.101562 94.507812 222.773438 94.449219 C 223.445312 94.4375 224.402344 93.949219 225.65625 93.0625 C 224.136719 91.289062 222.609375 89.507812 221.089844 87.730469 C 220.40625 88.84375 220.054688 89.894531 220.023438 90.921875 C 219.996094 91.953125 220.285156 92.789062 220.890625 93.492188 Z M 220.890625 93.492188 " fill-opacity="1" fill-rule="nonzero"/><path fill="#1d4ed8" d="M 230.9375 95.238281 C 232.523438 97.085938 234.105469 98.9375 235.695312 100.785156 C 236.414062 99.628906 236.761719 98.492188 236.832031 97.410156 C 236.894531 96.285156 236.617188 95.386719 235.996094 94.664062 C 235.394531 93.960938 234.710938 93.605469 233.984375 93.6875 C 233.253906 93.769531 232.246094 94.28125 230.9375 95.238281 Z M 230.9375 95.238281 " fill-opacity="1" fill-rule="nonzero"/><path fill="#1d4ed8" d="M 242.109375 76.894531 C 232.523438 65.671875 218.464844 64.5 211.023438 74.675781 C 204.289062 83.957031 204.964844 98.953125 212.515625 110.007812 C 213.191406 111.035156 213.929688 112.039062 214.746094 112.964844 C 217.671875 116.394531 220.96875 118.847656 224.414062 120.378906 C 232.265625 123.867188 240.640625 122.285156 245.816406 115.222656 C 253.238281 105.089844 251.691406 88.113281 242.109375 76.894531 Z M 238.867188 108.453125 C 238.195312 107.683594 237.546875 106.976562 236.917969 106.214844 C 234.378906 108.96875 231.402344 110.589844 227.910156 111.035156 C 227.75 109.335938 227.609375 107.695312 227.449219 105.996094 C 230.109375 105.589844 232.300781 104.539062 234.023438 102.851562 C 232.335938 100.867188 230.597656 98.867188 228.925781 96.84375 C 226.574219 98.851562 224.558594 99.96875 222.929688 100.210938 C 221.304688 100.457031 219.695312 99.730469 218.175781 97.96875 C 216.671875 96.160156 215.894531 94.070312 215.929688 91.578125 C 215.972656 89.082031 216.726562 86.71875 218.265625 84.445312 C 217.808594 83.910156 217.398438 83.386719 216.921875 82.902344 C 217.449219 82.183594 217.984375 81.46875 218.515625 80.75 C 218.976562 81.28125 219.433594 81.824219 219.890625 82.355469 C 221.8125 80.023438 224.1875 78.488281 227 77.675781 C 227.273438 79.371094 227.558594 81.011719 227.832031 82.703125 C 225.90625 83.191406 224.199219 84.171875 222.757812 85.660156 C 224.402344 87.628906 226.066406 89.546875 227.726562 91.46875 C 227.742188 91.421875 227.742188 91.421875 227.761719 91.378906 C 230.164062 89.390625 232.238281 88.242188 233.910156 88.015625 C 235.597656 87.742188 237.238281 88.53125 238.796875 90.3125 C 240.347656 92.140625 241.066406 94.257812 241.007812 96.796875 C 240.964844 99.289062 240.132812 101.730469 238.558594 104.09375 C 239.1875 104.847656 239.816406 105.601562 240.421875 106.296875 C 239.882812 107.003906 239.394531 107.742188 238.867188 108.453125 Z M 238.867188 108.453125 " fill-opacity="1" fill-rule="nonzero"/><path fill="#1d4ed8" d="M 249.039062 58.730469 C 246.464844 61.4375 246.429688 66.035156 248.847656 68.859375 C 251.273438 71.691406 255.226562 71.671875 257.800781 68.960938 C 260.378906 66.246094 260.605469 61.878906 258.183594 59.046875 C 255.765625 56.230469 251.609375 56.015625 249.039062 58.730469 Z M 249.039062 58.730469 " fill-opacity="1" fill-rule="nonzero"/><path fill="#1d4ed8" d="M 345.910156 302.179688 L 269.617188 304.199219 L 269.15625 304.199219 L 256.71875 288.34375 C 250.679688 280.648438 241.535156 276.15625 231.746094 276.15625 L 180.058594 276.15625 C 167.894531 276.15625 156.089844 271.484375 147.308594 262.964844 L 105.59375 222.644531 C 102.757812 219.988281 101.382812 216.324219 101.382812 212.660156 C 101.382812 209.816406 102.207031 206.976562 103.949219 204.597656 C 108.523438 198.183594 117.398438 196.902344 123.613281 201.578125 L 164.046875 232.457031 C 167.523438 235.023438 171.730469 236.488281 176.121094 236.488281 L 233.480469 236.488281 C 237.230469 236.488281 240.339844 233.375 240.339844 229.617188 C 240.339844 225.859375 237.230469 222.746094 233.480469 222.746094 L 199.90625 222.746094 C 192.773438 222.746094 186.914062 216.972656 186.914062 209.730469 C 186.914062 202.585938 192.765625 196.808594 199.90625 196.808594 L 268.972656 196.808594 C 292.027344 196.808594 312.699219 211.199219 320.75 232.910156 Z M 345.910156 302.179688 " fill-opacity="1" fill-rule="nonzero"/><g clip-path="url(#d144ce95d7)"><path fill="#1d4ed8" d="M 372.070312 327.015625 C 371.976562 322.984375 368.597656 319.867188 364.570312 320.046875 L 270.167969 322.523438 C 266.140625 322.617188 263.035156 325.917969 263.121094 329.949219 L 264.035156 366.601562 C 264.128906 370.632812 267.425781 373.746094 271.449219 373.652344 L 365.945312 371.089844 C 369.972656 370.996094 373.171875 367.699219 373.078125 363.667969 Z M 358.441406 353.316406 C 354.875 353.316406 351.945312 350.378906 351.945312 346.808594 C 351.945312 343.234375 354.875 340.300781 358.441406 340.300781 C 362.007812 340.300781 364.9375 343.234375 364.9375 346.808594 C 364.9375 350.378906 362.007812 353.316406 358.441406 353.316406 Z M 358.441406 353.316406 " fill-opacity="1" fill-rule="nonzero"/></g></svg>