<svg xmlns="http://www.w3.org/2000/svg" xmlns:xlink="http://www.w3.org/1999/xlink" width="500" zoomAndPan="magnify" viewBox="0 0 375 374.999991" height="500" preserveAspectRatio="xMidYMid meet" version="1.0"><defs><clipPath id="e69bb70aa3"><path d="M 112 75.203125 L 263 75.203125 L 263 236 L 112 236 Z M 112 75.203125 " clip-rule="nonzero"/></clipPath></defs><rect x="-37.5" width="450" fill="#ffffff" y="-37.499999" height="449.999989" fill-opacity="1"/><rect x="-37.5" width="450" fill="#ffcf2e" y="-37.499999" height="449.999989" fill-opacity="1"/><g clip-path="url(#e69bb70aa3)"><path fill="#ffffff" d="M 187.496094 235.707031 C 228.914062 235.707031 262.609375 191.742188 262.609375 150.324219 C 262.609375 108.90625 228.914062 75.203125 187.496094 75.203125 C 146.074219 75.203125 112.378906 108.90625 112.378906 150.324219 C 112.382812 191.738281 146.078125 235.707031 187.496094 235.707031 Z M 187.496094 235.707031 " fill-opacity="1" fill-rule="nonzero"/></g><path fill="#ffffff" d="M 243.886719 236.476562 C 229.316406 247.578125 211.136719 254.179688 191.449219 254.179688 L 183.539062 254.179688 C 163.847656 254.179688 145.667969 247.574219 131.101562 236.476562 C 83.527344 244.167969 47.195312 285.402344 47.195312 335.144531 C 47.195312 362.46875 110.007812 384.625 187.496094 384.625 C 264.976562 384.625 327.792969 362.46875 327.792969 335.144531 C 327.792969 285.402344 291.460938 244.167969 243.886719 236.476562 Z M 243.886719 236.476562 " fill-opacity="1" fill-rule="nonzero"/></svg>