<svg xmlns="http://www.w3.org/2000/svg" xmlns:xlink="http://www.w3.org/1999/xlink" width="500" zoomAndPan="magnify" viewBox="0 0 375 374.999991" height="500" preserveAspectRatio="xMidYMid meet" version="1.0"><defs><clipPath id="caca37fa21"><path d="M 187.5 0 C 83.945312 0 0 83.945312 0 187.5 C 0 291.054688 83.945312 375 187.5 375 C 291.054688 375 375 291.054688 375 187.5 C 375 83.945312 291.054688 0 187.5 0 Z M 187.5 0 " clip-rule="nonzero"/></clipPath><clipPath id="0e52c1ef18"><path d="M 47 37.5 L 329.25 37.5 L 329.25 334 L 47 334 Z M 47 37.5 " clip-rule="nonzero"/></clipPath></defs><g clip-path="url(#caca37fa21)"><rect x="-37.5" width="450" fill="#ffffff" y="-37.499999" height="449.999989" fill-opacity="1"/></g><g clip-path="url(#0e52c1ef18)"><path fill="#000000" d="M 328.40625 154.0625 C 327.980469 149.609375 327.5625 146.582031 326.761719 141.992188 C 326.121094 138.332031 325.316406 134.707031 324.34375 131.117188 C 322.460938 124.234375 319.949219 117.589844 316.808594 111.183594 C 313.667969 104.78125 309.953125 98.726562 305.664062 93.023438 C 288.210938 69.757812 262.855469 53.105469 234.753906 44.472656 C 227.621094 42.304688 220.359375 40.753906 212.964844 39.816406 C 205.453125 38.835938 197.925781 38.246094 190.351562 37.710938 C 188.734375 37.601562 187.367188 39.195312 187.386719 40.683594 C 187.386719 41.265625 187.554688 41.796875 187.894531 42.273438 C 178.609375 42.167969 169.417969 43.058594 160.320312 44.941406 C 151.226562 46.824219 142.4375 49.660156 133.957031 53.445312 C 109.792969 64.277344 89.335938 82.667969 75.363281 104.652344 C 71.023438 111.535156 67.335938 118.753906 64.300781 126.304688 C 61.269531 133.855469 58.941406 141.621094 57.3125 149.59375 C 55.066406 155.4375 53.222656 161.40625 51.777344 167.5 C 50.332031 173.59375 49.296875 179.753906 48.679688 185.988281 C 48.058594 192.21875 47.855469 198.460938 48.070312 204.722656 C 48.289062 210.980469 48.921875 217.195312 49.96875 223.367188 C 54.496094 249.820312 67.53125 274.628906 86.457031 294.039062 C 106.035156 314.121094 132.128906 327.878906 160.308594 331.933594 C 189.960938 336.203125 220.527344 330.507812 245.710938 314.394531 C 249.480469 311.984375 253.113281 309.386719 256.605469 306.59375 C 265.933594 300.863281 274.492188 294.148438 282.277344 286.453125 C 290.0625 278.757812 296.878906 270.277344 302.71875 261.019531 C 318.765625 235.746094 327.207031 206.296875 328.816406 176.710938 C 329.246094 169.148438 329.109375 161.601562 328.40625 154.0625 Z M 96.488281 94.472656 C 100.65625 89.753906 105.136719 85.351562 109.929688 81.269531 C 111.007812 80.355469 112.097656 79.453125 113.207031 78.570312 L 114.222656 77.777344 L 114.289062 77.726562 L 114.46875 77.589844 C 115.148438 77.074219 115.824219 76.566406 116.503906 76.066406 C 119.015625 74.230469 121.59375 72.480469 124.238281 70.824219 C 129.546875 67.523438 135.058594 64.613281 140.777344 62.089844 L 140.917969 62.027344 L 141.046875 61.972656 L 142.230469 61.464844 C 142.890625 61.203125 143.550781 60.957031 144.21875 60.683594 C 145.742188 60.085938 147.28125 59.527344 148.835938 59.007812 C 151.960938 57.941406 155.125 57.007812 158.328125 56.214844 C 161.53125 55.417969 164.757812 54.757812 168.007812 54.226562 C 168.289062 54.183594 169.75 53.972656 169.675781 53.980469 C 170.265625 53.898438 170.859375 53.820312 171.449219 53.75 C 173.238281 53.53125 175.03125 53.359375 176.824219 53.242188 C 183.417969 52.742188 190.011719 52.769531 196.601562 53.324219 C 197.421875 53.390625 198.242188 53.464844 199.0625 53.550781 L 200.179688 53.675781 C 198.773438 53.523438 200.28125 53.675781 200.511719 53.714844 C 202.140625 53.921875 203.769531 54.164062 205.398438 54.441406 C 208.71875 55 212.011719 55.695312 215.273438 56.523438 C 218.539062 57.351562 221.753906 58.316406 224.925781 59.414062 C 226.332031 59.921875 227.726562 60.429688 229.121094 60.9375 L 229.265625 61 L 229.460938 61.078125 C 229.875 61.253906 230.289062 61.414062 230.699219 61.585938 C 231.457031 61.902344 232.222656 62.230469 232.964844 62.566406 C 229.121094 61.652344 225.230469 60.941406 221.335938 60.402344 C 207.746094 58.507812 194.148438 58.429688 180.542969 60.164062 C 173.839844 61.03125 167.238281 62.375 160.734375 64.199219 C 154.320312 65.980469 147.925781 67.941406 141.703125 70.292969 C 137.507812 71.878906 133.390625 73.644531 129.347656 75.589844 C 124.414062 77.664062 119.605469 79.992188 114.921875 82.574219 C 111.976562 84.183594 109.121094 85.941406 106.359375 87.855469 C 103.433594 89.886719 100.601562 92.007812 97.832031 94.222656 C 96.550781 95.238281 95.289062 96.28125 94.039062 97.351562 C 94.832031 96.382812 95.648438 95.421875 96.488281 94.472656 Z M 160.679688 321.230469 C 153.472656 320.058594 146.429688 318.261719 139.539062 315.847656 C 138.777344 315.582031 138.019531 315.304688 137.257812 315.019531 L 136.125 314.59375 L 135.554688 314.367188 C 133.859375 313.6875 132.1875 312.96875 130.53125 312.203125 C 127.609375 310.847656 124.75 309.390625 121.941406 307.835938 C 119.132812 306.277344 116.425781 304.625 113.816406 302.882812 C 112.496094 302.007812 111.191406 301.109375 109.910156 300.183594 L 109.625 299.980469 C 109.792969 300.097656 109.066406 299.566406 108.941406 299.472656 C 108.25 298.964844 107.570312 298.457031 106.910156 297.90625 C 101.917969 294.015625 97.238281 289.78125 92.867188 285.207031 C 90.597656 282.835938 88.417969 280.378906 86.328125 277.832031 L 86.328125 277.867188 L 86.296875 277.828125 C 86.226562 277.746094 86.089844 277.574219 86.027344 277.492188 L 85.519531 276.882812 C 85.078125 276.320312 84.636719 275.757812 84.199219 275.1875 C 83.160156 273.832031 82.144531 272.449219 81.152344 271.03125 C 77.527344 265.886719 74.292969 260.507812 71.441406 254.890625 C 70.730469 253.496094 70.054688 252.085938 69.410156 250.660156 C 69.289062 250.402344 69.171875 250.152344 69.054688 249.886719 C 69.59375 251.054688 68.996094 249.742188 68.917969 249.566406 C 68.582031 248.78125 68.242188 247.996094 67.902344 247.207031 C 66.679688 244.253906 65.570312 241.257812 64.570312 238.21875 C 62.671875 232.355469 61.207031 226.386719 60.171875 220.3125 C 62.628906 228.953125 65.832031 237.304688 69.789062 245.371094 C 73.746094 253.4375 78.390625 261.085938 83.722656 268.316406 C 100.820312 291.402344 124.355469 309.367188 152.15625 318.496094 C 155.914062 319.726562 159.726562 320.785156 163.59375 321.667969 C 162.613281 321.535156 161.644531 321.390625 160.679688 321.230469 Z M 301.015625 183.980469 C 300.976562 187.308594 300.839844 190.632812 300.613281 193.957031 C 300.492188 195.785156 300.339844 197.609375 300.167969 199.433594 C 300.085938 200.257812 300 201.085938 299.910156 201.914062 C 299.851562 202.421875 299.792969 202.90625 299.734375 203.402344 C 299.734375 203.523438 299.726562 203.621094 299.707031 203.691406 C 299.707031 203.753906 299.707031 203.84375 299.664062 203.96875 C 298.691406 211.40625 297.257812 218.757812 295.367188 226.019531 C 294.433594 229.558594 293.382812 233.0625 292.214844 236.539062 C 291.65625 238.195312 291.070312 239.839844 290.457031 241.480469 C 290.132812 242.335938 289.808594 243.191406 289.464844 244.019531 C 289.34375 244.328125 289.222656 244.636719 289.097656 244.949219 C 289.050781 245.074219 288.640625 246.054688 288.589844 246.238281 C 285.804688 252.816406 282.550781 259.152344 278.832031 265.25 C 277.136719 268.027344 275.335938 270.746094 273.425781 273.398438 C 272.917969 274.125 272.382812 274.84375 271.847656 275.558594 L 271.316406 276.269531 L 270.84375 276.925781 C 269.855469 278.179688 268.855469 279.421875 267.824219 280.648438 C 263.558594 285.738281 258.933594 290.476562 253.949219 294.867188 C 252.777344 295.882812 251.59375 296.890625 250.394531 297.882812 C 247.667969 299.527344 244.878906 301.066406 242.03125 302.507812 C 240.5625 303.246094 239.074219 303.960938 237.570312 304.644531 L 235.894531 305.386719 L 235.164062 305.699219 L 233.496094 306.375 C 227.339844 308.828125 221.015625 310.742188 214.527344 312.109375 C 212.894531 312.449219 211.25 312.753906 209.597656 313.03125 L 208.398438 313.21875 L 208.183594 313.253906 L 207.941406 313.285156 C 206.980469 313.40625 206.023438 313.53125 205.0625 313.632812 C 201.535156 314.019531 197.996094 314.242188 194.441406 314.300781 C 190.886719 314.355469 187.339844 314.257812 183.808594 314.003906 C 182.15625 313.886719 180.511719 313.730469 178.871094 313.546875 L 178.046875 313.445312 L 177.085938 313.3125 C 176.046875 313.171875 175.011719 313.015625 173.972656 312.84375 C 166.863281 311.671875 159.90625 309.910156 153.09375 307.554688 C 151.570312 307.046875 150.046875 306.460938 148.523438 305.890625 L 148.273438 305.796875 L 148.042969 305.699219 C 147.59375 305.519531 147.144531 305.335938 146.699219 305.148438 C 145.808594 304.777344 144.917969 304.390625 144.035156 304 C 140.792969 302.558594 137.621094 300.984375 134.515625 299.277344 C 131.523438 297.628906 128.605469 295.867188 125.761719 293.988281 C 124.40625 293.085938 123.050781 292.15625 121.699219 291.199219 L 120.808594 290.5625 L 120.652344 290.445312 C 119.941406 289.90625 119.230469 289.367188 118.523438 288.820312 C 113.238281 284.703125 108.285156 280.226562 103.664062 275.378906 C 101.40625 273.011719 99.238281 270.574219 97.152344 268.070312 L 96.761719 267.601562 C 97.226562 268.164062 96.441406 267.203125 96.339844 267.09375 C 95.871094 266.511719 95.414062 265.929688 94.964844 265.34375 C 93.871094 263.941406 92.804688 262.515625 91.773438 261.066406 C 87.976562 255.75 84.554688 250.199219 81.503906 244.421875 C 80.742188 242.988281 80.003906 241.539062 79.289062 240.078125 C 78.949219 239.417969 78.632812 238.753906 78.328125 238.082031 C 78.140625 237.679688 77.953125 237.277344 77.769531 236.878906 C 77.734375 236.800781 77.546875 236.371094 77.457031 236.183594 C 76.109375 233.136719 74.851562 230.007812 73.714844 226.859375 C 71.246094 220.035156 69.304688 213.066406 67.882812 205.953125 C 67.5625 204.359375 67.269531 202.757812 67.003906 201.152344 C 66.949219 200.816406 66.898438 200.488281 66.839844 200.136719 C 66.839844 200.011719 66.714844 199.273438 66.699219 199.183594 C 66.5625 198.21875 66.433594 197.246094 66.320312 196.28125 C 65.886719 192.730469 65.589844 189.175781 65.417969 185.617188 C 65.082031 178.472656 65.277344 171.34375 66.011719 164.230469 C 66.0625 163.722656 66.113281 163.265625 66.171875 162.78125 L 66.28125 161.910156 C 66.371094 161.230469 66.460938 160.542969 66.5625 159.878906 C 66.832031 158.035156 67.140625 156.199219 67.488281 154.367188 C 67.96875 151.804688 68.527344 149.253906 69.15625 146.71875 C 69.511719 145.917969 69.867188 145.113281 70.238281 144.3125 C 72.992188 138.339844 76.160156 132.597656 79.742188 127.082031 C 80.640625 125.710938 81.570312 124.355469 82.519531 123.019531 C 82.941406 122.433594 83.363281 121.847656 83.792969 121.261719 L 84.550781 120.1875 L 84.992188 119.601562 C 86.917969 117.121094 89 114.78125 91.046875 112.402344 L 91.742188 111.503906 C 91.515625 111.847656 91.570312 111.8125 91.894531 111.410156 C 92.210938 111.109375 92.484375 110.761719 92.777344 110.445312 C 93.285156 109.914062 93.765625 109.382812 94.265625 108.859375 C 95.417969 107.652344 96.59375 106.46875 97.792969 105.304688 C 100.136719 103.03125 102.558594 100.839844 105.058594 98.734375 C 109.851562 94.742188 114.847656 91.03125 120.046875 87.589844 C 130.84375 80.390625 142.425781 74.828125 154.796875 70.90625 C 160.253906 69.167969 165.796875 67.769531 171.425781 66.707031 C 172.777344 66.515625 174.132812 66.324219 175.488281 66.144531 C 178.449219 65.742188 181.421875 65.421875 184.40625 65.183594 C 186.945312 65.050781 189.460938 64.996094 191.96875 64.988281 C 192.214844 65 192.414062 64.90625 192.5625 64.710938 C 199.925781 64.464844 207.273438 64.703125 214.605469 65.425781 C 228.070312 66.773438 241.605469 70.070312 253.453125 76.601562 C 257.167969 78.652344 260.667969 81.023438 263.949219 83.710938 L 264.046875 83.808594 C 266.296875 86.03125 268.445312 88.347656 270.496094 90.753906 C 270.902344 91.261719 271.308594 91.71875 271.710938 92.207031 C 271.789062 92.308594 272.558594 93.269531 272.6875 93.425781 C 273.722656 94.753906 274.730469 96.097656 275.707031 97.460938 C 279.296875 102.480469 282.5 107.742188 285.316406 113.234375 C 286.023438 114.609375 286.699219 115.996094 287.347656 117.394531 C 287.613281 117.945312 287.855469 118.503906 288.121094 119.066406 C 288.175781 119.179688 288.234375 119.3125 288.269531 119.390625 C 288.464844 119.839844 288.664062 120.292969 288.855469 120.746094 C 290.074219 123.601562 291.199219 126.496094 292.230469 129.425781 C 294.320312 135.382812 296.035156 141.449219 297.375 147.617188 C 298.058594 150.746094 298.628906 153.890625 299.148438 157.050781 C 299.148438 157.089844 299.148438 157.152344 299.171875 157.210938 L 299.308594 158.167969 C 299.40625 158.867188 299.503906 159.574219 299.59375 160.277344 C 299.8125 161.96875 300 163.667969 300.167969 165.359375 C 300.785156 171.550781 301.070312 177.757812 301.015625 183.980469 Z M 318.523438 178.566406 C 318.371094 180.394531 318.183594 182.21875 317.972656 184.039062 C 317.972656 184.082031 317.851562 185.019531 317.851562 185.054688 C 317.828125 185.265625 317.796875 185.480469 317.769531 185.695312 C 317.640625 186.679688 317.5 187.664062 317.347656 188.648438 C 316.800781 192.308594 316.140625 195.949219 315.363281 199.574219 C 313.878906 206.425781 312.050781 213.183594 309.886719 219.855469 C 308.804688 223.183594 307.621094 226.484375 306.332031 229.753906 C 306.046875 230.492188 305.75 231.234375 305.449219 231.972656 C 305.410156 232.0625 305.09375 232.820312 305.078125 232.855469 C 304.953125 233.160156 304.820312 233.464844 304.691406 233.765625 C 304.515625 234.171875 304.335938 234.570312 304.15625 234.972656 C 307.226562 224.769531 309.382812 214.375 310.625 203.789062 C 312.296875 190.226562 312.40625 176.652344 310.945312 163.066406 C 308.074219 137.070312 299.570312 111.148438 283.632812 89.882812 C 275.53125 78.984375 265.835938 69.757812 254.550781 62.207031 C 260.5 65.234375 266.199219 68.667969 271.65625 72.515625 L 272.570312 73.171875 L 272.824219 73.355469 L 273.070312 73.539062 C 273.671875 73.988281 274.269531 74.4375 274.863281 74.894531 C 276.289062 75.992188 277.691406 77.117188 279.070312 78.269531 C 281.597656 80.382812 284.035156 82.585938 286.382812 84.875 C 288.734375 87.164062 290.984375 89.542969 293.136719 92.019531 C 293.625 92.582031 294.109375 93.148438 294.585938 93.714844 L 295.277344 94.554688 L 295.820312 95.222656 C 296.835938 96.503906 297.824219 97.804688 298.785156 99.121094 C 302.832031 104.601562 306.289062 110.4375 309.148438 116.625 C 312.007812 122.808594 314.214844 129.21875 315.769531 135.855469 C 316.160156 137.460938 316.519531 139.070312 316.847656 140.691406 C 317.039062 141.664062 317.222656 142.636719 317.394531 143.617188 L 317.5625 144.589844 C 317.617188 144.914062 317.667969 145.246094 317.71875 145.570312 C 317.71875 145.71875 317.761719 145.828125 317.777344 145.910156 C 318.285156 149.464844 318.632812 153.066406 318.847656 156.664062 C 319.257812 163.980469 319.148438 171.289062 318.523438 178.589844 Z M 318.523438 178.566406 " fill-opacity="1" fill-rule="nonzero"/></g><path fill="#000000" d="M 86.027344 277.46875 L 86.3125 277.824219 Z M 86.027344 277.46875 " fill-opacity="1" fill-rule="nonzero"/><path fill="#000000" d="M 186.085938 124.859375 L 185.925781 124.695312 C 186.003906 124.925781 186.136719 125.117188 186.320312 125.269531 C 186.25 125.148438 186.179688 125.027344 186.117188 124.910156 Z M 186.085938 124.859375 " fill-opacity="1" fill-rule="nonzero"/><path fill="#000000" d="M 231.542969 176.648438 C 231.089844 173.675781 229.003906 171.675781 226.152344 170.707031 C 222.03125 169.308594 216.710938 171.011719 212.472656 171.722656 L 206.691406 172.675781 L 204.253906 134.304688 C 203.695312 125.515625 202.1875 115.824219 193.726562 110.855469 C 189.039062 108.113281 182.816406 107.886719 177.808594 109.886719 C 172.59375 111.96875 168.667969 115.386719 165.65625 120.007812 C 163.042969 123.980469 161.484375 128.585938 159.851562 132.996094 C 158.15625 137.585938 156.515625 142.203125 154.921875 146.839844 C 151.804688 155.984375 148.9375 165.214844 146.316406 174.539062 C 145.523438 177.363281 144.753906 180.195312 144.003906 183.03125 L 135.609375 184.417969 C 127.910156 185.695312 120.21875 187.019531 112.53125 188.328125 C 111.898438 188.359375 111.277344 188.464844 110.671875 188.644531 L 110.542969 188.644531 C 109.820312 188.863281 109.140625 189.175781 108.507812 189.585938 C 107.871094 189.996094 107.308594 190.488281 106.8125 191.058594 C 106.316406 191.632812 105.914062 192.261719 105.597656 192.949219 C 105.28125 193.632812 105.070312 194.351562 104.957031 195.097656 C 104.789062 196.289062 104.902344 197.453125 105.300781 198.589844 C 105.699219 199.722656 106.335938 200.703125 107.214844 201.53125 C 109.414062 203.617188 112.039062 203.871094 114.914062 203.410156 C 123.253906 202.078125 131.589844 200.738281 139.929688 199.386719 C 139.402344 201.683594 138.894531 203.980469 138.40625 206.277344 C 137.238281 211.671875 136.152344 217.089844 135.152344 222.53125 C 134.644531 225.246094 134.257812 227.980469 133.855469 230.71875 C 133.449219 233.859375 133.3125 237.011719 133.457031 240.179688 C 133.46875 240.582031 133.519531 240.980469 133.605469 241.375 C 133.691406 241.765625 133.808594 242.148438 133.960938 242.523438 C 134.117188 242.894531 134.300781 243.25 134.519531 243.589844 C 134.738281 243.925781 134.984375 244.246094 135.257812 244.539062 C 135.53125 244.835938 135.828125 245.101562 136.152344 245.34375 C 136.472656 245.585938 136.816406 245.796875 137.175781 245.976562 C 137.535156 246.15625 137.90625 246.304688 138.292969 246.417969 C 138.679688 246.53125 139.074219 246.609375 139.472656 246.65625 C 142.976562 247.070312 145.816406 244.96875 146.917969 241.777344 C 147.652344 239.660156 148.542969 237.546875 148.996094 235.355469 C 149.472656 233.023438 149.921875 230.6875 150.378906 228.351562 C 151.265625 223.78125 152.09375 219.234375 153.039062 214.6875 C 154.300781 208.644531 155.664062 202.621094 157.136719 196.617188 L 191.714844 190.976562 C 191.714844 191.339844 191.761719 191.707031 191.785156 192.074219 L 195.625 252.773438 C 195.320312 254.089844 195.320312 255.40625 195.625 256.722656 L 196.195312 259.230469 C 197.066406 263.050781 201.40625 265.292969 205.132812 264.761719 C 208.859375 264.226562 212.277344 260.863281 212.03125 256.933594 C 210.578125 234.074219 209.125 211.222656 207.675781 188.371094 L 214.570312 187.226562 L 220.941406 186.1875 C 223.484375 185.769531 226.023438 185.503906 228.097656 183.894531 C 230.515625 182.042969 232.019531 179.808594 231.542969 176.648438 Z M 179.414062 177.15625 L 161.449219 180.128906 C 165.636719 165.089844 170.476562 150.230469 175.96875 135.550781 C 176.308594 134.625 176.664062 133.703125 177.03125 132.789062 C 177.035156 132.777344 177.035156 132.765625 177.03125 132.75 C 177.015625 132.796875 176.996094 132.835938 176.976562 132.878906 L 177.050781 132.710938 C 177.109375 132.574219 177.199219 132.375 177.253906 132.25 L 177.503906 131.695312 C 177.914062 130.820312 178.351562 129.957031 178.835938 129.121094 C 179.097656 128.660156 179.371094 128.203125 179.667969 127.753906 C 179.824219 127.515625 180.398438 126.839844 180.453125 126.765625 C 180.859375 126.328125 181.273438 125.894531 181.714844 125.484375 L 181.925781 125.277344 C 182.242188 125.09375 182.636719 124.925781 182.832031 124.824219 L 183.097656 124.675781 L 183.355469 124.554688 C 183.640625 124.472656 183.953125 124.40625 184.011719 124.386719 C 184.066406 124.367188 184.371094 124.320312 184.613281 124.28125 L 184.664062 124.28125 L 184.929688 124.230469 L 185.011719 124.230469 L 185.128906 124.261719 L 185.410156 124.261719 C 185.394531 124.28125 185.375 124.296875 185.355469 124.3125 L 185.578125 124.367188 L 185.644531 124.367188 L 185.671875 124.390625 L 185.773438 124.515625 C 185.820312 124.566406 185.867188 124.613281 185.917969 124.660156 C 185.902344 124.628906 185.890625 124.59375 185.882812 124.558594 L 185.964844 124.609375 C 185.996094 124.660156 186.035156 124.730469 186.082031 124.824219 C 186.226562 124.949219 186.359375 125.089844 186.476562 125.242188 C 186.425781 125.28125 186.371094 125.28125 186.316406 125.242188 C 186.421875 125.421875 186.535156 125.601562 186.636719 125.75 L 186.667969 125.792969 C 187.175781 127.359375 187.449219 128.921875 187.859375 130.496094 C 187.296875 128.339844 187.859375 130.757812 187.910156 131.40625 C 188 132.421875 188.0625 133.4375 188.128906 134.453125 C 188.988281 148.054688 189.847656 161.65625 190.707031 175.257812 Z M 179.414062 177.15625 " fill-opacity="1" fill-rule="nonzero"/><path fill="#000000" d="M 184.683594 124.273438 C 184.878906 124.367188 185.191406 124.449219 185.359375 124.324219 L 185.132812 124.269531 Z M 184.683594 124.273438 " fill-opacity="1" fill-rule="nonzero"/><path fill="#000000" d="M 177.035156 132.75 C 177.371094 132.035156 177.355469 132.046875 177.261719 132.242188 C 177.164062 132.441406 177.125 132.554688 177.058594 132.707031 C 177.054688 132.722656 177.046875 132.738281 177.035156 132.75 Z M 177.035156 132.75 " fill-opacity="1" fill-rule="nonzero"/><path fill="#000000" d="M 272.417969 125.347656 C 270.492188 122.519531 267.429688 121.546875 264.085938 122.164062 C 259.089844 123.082031 254.097656 124.007812 249.105469 124.9375 C 249.070312 124.425781 249.035156 123.917969 249.003906 123.410156 C 248.871094 121.378906 248.738281 119.359375 248.601562 117.347656 C 248.425781 114.621094 248.546875 111.761719 246.960938 109.363281 C 244.320312 105.398438 237.519531 104.832031 235.160156 109.515625 C 233.855469 112.101562 233.996094 114.417969 234.144531 117.175781 C 234.253906 119.207031 234.367188 121.226562 234.484375 123.238281 L 234.726562 127.636719 C 229.523438 128.613281 224.320312 129.601562 219.113281 130.597656 C 215.425781 131.308594 213.0625 135.902344 214.222656 139.261719 C 215.574219 143.160156 219.140625 144.722656 223.105469 144.03125 C 227.25 143.3125 231.394531 142.582031 235.535156 141.84375 C 235.875 147.410156 236.210938 152.976562 236.550781 158.546875 C 236.726562 161.59375 238.800781 164.703125 242.03125 165.378906 C 244.941406 165.988281 249.007812 164.953125 250.273438 161.984375 C 250.425781 161.613281 250.582031 161.25 250.742188 160.878906 C 251.527344 159.03125 252.003906 157.363281 251.40625 155.351562 C 251.296875 154.980469 251.152344 154.621094 250.972656 154.277344 C 250.667969 149.261719 250.359375 144.25 250.042969 139.238281 L 263.535156 136.75 C 264.089844 136.878906 264.652344 136.945312 265.226562 136.941406 C 267.679688 136.910156 269.679688 135.585938 271.386719 134.023438 C 273.65625 131.949219 274.148438 127.890625 272.417969 125.347656 Z M 272.417969 125.347656 " fill-opacity="1" fill-rule="nonzero"/></svg>