<svg xmlns="http://www.w3.org/2000/svg" xmlns:xlink="http://www.w3.org/1999/xlink" width="500" zoomAndPan="magnify" viewBox="0 0 375 374.999991" height="500" preserveAspectRatio="xMidYMid meet" version="1.0"><path fill="#ffcf2e" d="M 135.765625 224.742188 C 143.585938 205.714844 151.640625 186.785156 158.777344 167.488281 C 162.097656 180.542969 165.378906 193.796875 169.210938 206.875 C 157.882812 212.472656 146.972656 218.890625 135.765625 224.742188 Z M 183.3125 161.929688 C 181.523438 153.617188 179.84375 144.753906 178.652344 136.203125 C 177.203125 129.765625 178.371094 122.269531 174.167969 116.773438 C 150.523438 95.878906 143.035156 139.335938 137.425781 154.78125 C 132.164062 171.75 125.683594 188.296875 119.292969 204.863281 C 112.738281 221.664062 106.644531 238.105469 100.816406 255.292969 C 98.113281 265.703125 92.519531 277.109375 93.160156 288.207031 C 93.753906 293.742188 98.574219 296.769531 103.328125 296.769531 C 107.125 296.769531 110.875 294.839844 112.410156 290.722656 C 114.832031 281.28125 117.613281 271.757812 120.992188 262.46875 C 122.417969 258.535156 123.882812 254.621094 125.382812 250.71875 C 128.609375 249.09375 131.789062 247.222656 134.929688 246.210938 C 148.683594 240.285156 161.691406 232.320312 175.71875 227.050781 C 180.6875 240.988281 186.667969 254.5 194.457031 267.085938 C 203.371094 278.835938 221.832031 266.34375 214.363281 253.671875 C 199.003906 225.09375 190.75 193.332031 183.3125 161.929688 " fill-opacity="1" fill-rule="nonzero"/><path fill="#ffcf2e" d="M 216.765625 177.496094 C 218.3125 179.101562 220.351562 179.839844 222.417969 179.839844 C 225.011719 179.839844 227.640625 178.667969 229.355469 176.554688 C 234.578125 172.769531 240.039062 169.289062 245.460938 165.796875 C 248.261719 164.050781 251.050781 162.292969 253.847656 160.535156 C 255.511719 170.023438 257.25 179.492188 258.582031 188.929688 C 259.359375 193.9375 263.15625 196.21875 266.988281 196.21875 C 271.722656 196.214844 276.511719 192.726562 275.695312 186.585938 C 273.601562 174.601562 271.429688 162.609375 269.539062 150.582031 C 279.820312 143.984375 290.03125 137.277344 300.09375 130.34375 C 309.160156 126.648438 311.371094 114.347656 300.410156 111.929688 C 292.328125 111.796875 281.171875 123.644531 273.496094 127.703125 C 271.316406 129.195312 269.113281 130.648438 266.914062 132.109375 C 265.886719 123.828125 265.078125 115.527344 264.613281 107.195312 C 262.863281 99.304688 250.808594 98.523438 248.320312 106.613281 C 247.972656 118.597656 249.144531 130.574219 250.890625 142.527344 C 245.917969 145.714844 240.941406 148.902344 236.007812 152.15625 C 229.046875 158.375 207.316406 165.640625 216.765625 177.496094 " fill-opacity="1" fill-rule="nonzero"/><path fill="#ffcf2e" d="M 264.601562 107.03125 C 264.605469 107.085938 264.609375 107.140625 264.613281 107.195312 C 264.644531 107.335938 264.695312 107.457031 264.71875 107.601562 C 264.679688 107.414062 264.640625 107.222656 264.601562 107.03125 " fill-opacity="1" fill-rule="nonzero"/><path fill="#ffcf2e" d="M 347.929688 84.605469 C 332.035156 59.535156 303.808594 41.515625 268.449219 33.863281 C 222.242188 23.867188 170.882812 33.460938 131.058594 59.53125 C 126.796875 62.320312 125.605469 68.039062 128.394531 72.300781 C 131.183594 76.5625 136.902344 77.757812 141.164062 74.964844 C 176.941406 51.542969 223.066406 42.921875 264.546875 51.894531 C 295.039062 58.492188 319.121094 73.621094 332.351562 94.484375 C 376.113281 163.515625 346.398438 261.085938 266.105469 311.988281 C 185.820312 362.882812 84.894531 348.140625 41.132812 279.109375 C 20.066406 245.882812 15.222656 205.066406 27.492188 164.183594 C 39.902344 122.824219 68.273438 86.394531 107.375 61.605469 C 129.128906 47.8125 158.007812 35.617188 179.226562 31.261719 C 184.214844 30.234375 187.429688 25.359375 186.40625 20.367188 C 185.378906 15.378906 180.5 12.164062 175.511719 13.1875 C 151.953125 18.027344 121.328125 30.917969 97.496094 46.027344 C 54.644531 73.191406 23.511719 113.269531 9.820312 158.882812 C -4.011719 204.96875 1.574219 251.175781 25.550781 288.988281 C 55.234375 335.816406 107.890625 360.691406 164.515625 360.6875 C 201.757812 360.6875 240.722656 349.925781 275.984375 327.570312 C 364.867188 271.21875 397.140625 162.230469 347.929688 84.605469 " fill-opacity="1" fill-rule="nonzero"/></svg>