<svg xmlns="http://www.w3.org/2000/svg" xmlns:xlink="http://www.w3.org/1999/xlink" width="500" zoomAndPan="magnify" viewBox="0 0 375 374.999991" height="500" preserveAspectRatio="xMidYMid meet" version="1.0"><path fill="#a6a6a6" d="M 92.320312 103.285156 C 128.890625 66.425781 118.421875 43.328125 143.445312 26.261719 C 181.949219 0.00390625 253.808594 22.59375 296.203125 58.710938 C 348.128906 102.949219 374.921875 183.722656 344.398438 256.792969 C 311.902344 334.613281 226.390625 375.007812 150.082031 362.835938 C 81.941406 351.964844 14.960938 298.183594 8.246094 233.683594 C 7.519531 226.691406 4.308594 188.898438 26.832031 156.3125 C 45.449219 129.382812 63.332031 132.503906 92.320312 103.285156 " fill-opacity="1" fill-rule="nonzero"/><path fill="#000000" d="M 102.039062 101.777344 L 348.550781 101.066406 C 353.511719 101.066406 357.402344 105.28125 356.960938 110.179688 L 339.707031 303.046875 C 339.320312 307.367188 335.671875 310.679688 331.300781 310.679688 L 27.644531 310.632812 C 22.6875 310.632812 18.746094 305.980469 19.1875 301.082031 L 36.445312 109.410156 C 36.832031 105.085938 40.339844 101.304688 44.710938 101.304688 L 102.039062 101.777344 " fill-opacity="1" fill-rule="nonzero"/><path fill="#99b9ff" d="M 90.285156 101.78125 L 336.757812 101.78125 C 341.714844 101.78125 345.605469 106.035156 345.167969 110.972656 L 327.988281 304.007812 C 327.605469 308.363281 323.953125 311.703125 319.582031 311.703125 L 15.921875 311.703125 C 10.964844 311.703125 7.074219 307.449219 7.515625 302.511719 L 24.691406 109.476562 C 25.078125 105.121094 28.726562 101.78125 33.097656 101.78125 L 90.285156 101.78125 " fill-opacity="1" fill-rule="nonzero"/><path fill="#000000" d="M 112.523438 312.335938 L 15.921875 312.335938 C 13.382812 312.335938 10.941406 311.257812 9.226562 309.386719 C 7.511719 307.511719 6.65625 304.984375 6.882812 302.453125 L 24.058594 109.417969 C 24.476562 104.703125 28.363281 101.148438 33.097656 101.148438 L 90.285156 101.148438 C 90.632812 101.148438 90.917969 101.433594 90.917969 101.78125 C 90.917969 102.132812 90.632812 102.417969 90.285156 102.417969 L 33.097656 102.417969 C 29.023438 102.417969 25.683594 105.476562 25.320312 109.53125 L 8.144531 302.566406 C 7.953125 304.742188 8.6875 306.917969 10.160156 308.53125 C 11.636719 310.140625 13.738281 311.066406 15.921875 311.066406 L 112.523438 311.066406 C 112.875 311.066406 113.15625 311.351562 113.15625 311.703125 C 113.15625 312.050781 112.875 312.335938 112.523438 312.335938 " fill-opacity="1" fill-rule="nonzero"/><path fill="#000000" d="M 319.582031 312.335938 L 160.675781 312.335938 C 160.324219 312.335938 160.042969 312.050781 160.042969 311.703125 C 160.042969 311.351562 160.324219 311.066406 160.675781 311.066406 L 319.582031 311.066406 C 323.65625 311.066406 327 308.007812 327.359375 303.953125 L 344.535156 110.917969 C 344.730469 108.738281 343.992188 106.566406 342.519531 104.953125 C 341.042969 103.339844 338.945312 102.417969 336.757812 102.417969 L 90.285156 102.417969 C 89.933594 102.417969 89.652344 102.132812 89.652344 101.78125 C 89.652344 101.433594 89.933594 101.148438 90.285156 101.148438 L 336.757812 101.148438 C 339.296875 101.148438 341.738281 102.222656 343.453125 104.097656 C 345.171875 105.972656 346.023438 108.5 345.796875 111.027344 L 328.621094 304.0625 C 328.203125 308.777344 324.316406 312.335938 319.582031 312.335938 " fill-opacity="1" fill-rule="nonzero"/><path fill="#5479f7" d="M 118.296875 291.921875 L 30.300781 291.640625 C 24.808594 291.640625 23.550781 287.277344 24.039062 281.8125 L 29.195312 225.867188 C 29.625 221.042969 31.089844 217.582031 35.929688 217.582031 L 124.492188 217.300781 C 129.980469 217.300781 131 222.058594 130.515625 227.523438 L 125.355469 283.46875 C 124.925781 288.289062 123.136719 291.921875 118.296875 291.921875 " fill-opacity="1" fill-rule="nonzero"/><path fill="#99b9ff" d="M 51.484375 276.921875 L 34.355469 276.992188 C 33.722656 276.992188 33.226562 276.445312 33.296875 275.816406 L 33.546875 273.578125 C 33.605469 273.042969 34.058594 272.632812 34.601562 272.632812 L 51.804688 272.632812 C 52.453125 272.632812 52.949219 273.210938 52.855469 273.855469 L 52.527344 276.019531 C 52.449219 276.535156 52.007812 276.917969 51.484375 276.921875 " fill-opacity="1" fill-rule="nonzero"/><path fill="#99b9ff" d="M 54.875 228.5 L 37.75 228.570312 C 37.113281 228.574219 36.621094 228.023438 36.691406 227.394531 L 36.9375 225.15625 C 37 224.621094 37.453125 224.214844 37.992188 224.214844 L 55.199219 224.214844 C 55.847656 224.214844 56.34375 224.792969 56.246094 225.433594 L 55.917969 227.597656 C 55.84375 228.117188 55.398438 228.5 54.875 228.5 " fill-opacity="1" fill-rule="nonzero"/><path fill="#99b9ff" d="M 59.964844 284.507812 L 34.71875 284.433594 C 33.933594 284.433594 33.324219 283.75 33.410156 282.96875 L 33.585938 281.402344 C 33.660156 280.734375 34.226562 280.230469 34.894531 280.230469 L 60.050781 280.230469 C 60.804688 280.230469 61.40625 280.863281 61.367188 281.617188 L 61.28125 283.257812 C 61.246094 283.960938 60.664062 284.507812 59.964844 284.507812 " fill-opacity="1" fill-rule="nonzero"/><path fill="#99b9ff" d="M 73.390625 276.996094 L 56.265625 276.996094 C 55.578125 276.996094 55.042969 276.398438 55.117188 275.714844 L 55.347656 273.589844 C 55.414062 273.003906 55.910156 272.554688 56.503906 272.558594 L 73.585938 272.628906 C 74.265625 272.632812 74.792969 273.214844 74.730469 273.890625 L 74.542969 275.949219 C 74.488281 276.542969 73.988281 276.996094 73.390625 276.996094 " fill-opacity="1" fill-rule="nonzero"/><path fill="#99b9ff" d="M 95.542969 276.917969 L 77.78125 276.992188 C 77.257812 276.996094 76.851562 276.527344 76.929688 276.011719 L 77.324219 273.292969 C 77.386719 272.871094 77.75 272.554688 78.179688 272.558594 L 95.734375 272.628906 C 96.234375 272.632812 96.625 273.058594 96.589844 273.554688 L 96.394531 276.125 C 96.363281 276.574219 95.988281 276.917969 95.542969 276.917969 " fill-opacity="1" fill-rule="nonzero"/><path fill="#99b9ff" d="M 117.316406 276.996094 L 99.515625 276.996094 C 99.027344 276.996094 98.644531 276.570312 98.699219 276.082031 L 99 273.441406 C 99.046875 273.027344 99.394531 272.714844 99.8125 272.710938 L 117.5625 272.640625 C 118.046875 272.636719 118.429688 273.050781 118.382812 273.535156 L 118.132812 276.25 C 118.09375 276.675781 117.738281 276.996094 117.316406 276.996094 " fill-opacity="1" fill-rule="nonzero"/><path fill="#99b9ff" d="M 115.996094 284.996094 L 100.675781 284.996094 C 99.738281 284.996094 99.007812 284.183594 99.109375 283.246094 L 99.230469 282.117188 C 99.316406 281.320312 99.988281 280.710938 100.792969 280.707031 L 116.09375 280.640625 C 117.019531 280.636719 117.753906 281.433594 117.671875 282.355469 L 117.566406 283.554688 C 117.496094 284.371094 116.8125 284.996094 115.996094 284.996094 " fill-opacity="1" fill-rule="nonzero"/><path fill="#a6a6a6" d="M 55.902344 255.042969 L 40.332031 255.089844 C 39.015625 255.09375 37.972656 253.757812 38.078125 252.191406 L 38.859375 240.542969 C 38.953125 239.144531 39.929688 238.070312 41.109375 238.070312 L 56.820312 238.070312 C 58.152344 238.070312 59.195312 239.433594 59.070312 241.007812 L 58.144531 252.613281 C 58.035156 253.988281 57.066406 255.039062 55.902344 255.042969 " fill-opacity="1" fill-rule="nonzero"/><path fill="#ffffff" d="M 46.257812 243.984375 C 46.25 244.003906 46.238281 244.035156 46.234375 244.078125 L 45.992188 248.167969 C 45.988281 248.226562 46.003906 248.269531 46.015625 248.296875 L 50.515625 248.28125 C 50.523438 248.261719 50.535156 248.234375 50.535156 248.191406 L 50.824219 244.117188 C 50.828125 244.054688 50.816406 244.007812 50.800781 243.984375 Z M 50.574219 248.746094 L 50.578125 248.746094 Z M 45.957031 249.226562 C 45.730469 249.226562 45.519531 249.132812 45.355469 248.957031 C 45.152344 248.746094 45.046875 248.433594 45.066406 248.109375 L 45.308594 244.019531 C 45.339844 243.46875 45.722656 243.054688 46.199219 243.054688 L 50.859375 243.054688 C 51.085938 243.054688 51.304688 243.148438 51.46875 243.328125 C 51.671875 243.546875 51.773438 243.855469 51.75 244.183594 L 51.464844 248.257812 C 51.425781 248.796875 51.042969 249.210938 50.574219 249.210938 L 45.960938 249.226562 C 45.957031 249.226562 45.957031 249.226562 45.957031 249.226562 " fill-opacity="1" fill-rule="nonzero"/><path fill="#ffffff" d="M 57.964844 246.023438 C 57.964844 246.023438 57.964844 246.023438 57.960938 246.023438 L 51.390625 245.917969 C 51.132812 245.914062 50.929688 245.800781 50.929688 245.542969 C 50.933594 245.289062 51.140625 245.179688 51.394531 245.179688 C 51.398438 245.179688 51.398438 245.179688 51.402344 245.179688 L 57.972656 245.140625 C 58.230469 245.144531 58.433594 245.332031 58.429688 245.585938 C 58.429688 245.839844 58.222656 246.023438 57.964844 246.023438 " fill-opacity="1" fill-rule="nonzero"/><path fill="#ffffff" d="M 45.589844 246.023438 C 45.589844 246.023438 45.589844 246.023438 45.585938 246.023438 L 39.234375 245.925781 C 38.980469 245.925781 38.769531 245.808594 38.773438 245.550781 C 38.773438 245.296875 38.980469 245.179688 39.238281 245.179688 L 45.589844 245.066406 C 45.847656 245.070312 46.054688 245.289062 46.054688 245.546875 C 46.054688 245.804688 45.84375 246.023438 45.589844 246.023438 " fill-opacity="1" fill-rule="nonzero"/><path fill="#ffffff" d="M 58.128906 247.714844 C 58.128906 247.714844 58.125 247.714844 58.125 247.714844 L 51.316406 247.734375 C 51.0625 247.734375 50.855469 247.554688 50.859375 247.296875 C 50.859375 247.042969 51.066406 246.871094 51.324219 246.871094 C 51.324219 246.871094 51.328125 246.871094 51.328125 246.871094 L 58.132812 246.960938 C 58.390625 246.960938 58.597656 247.082031 58.59375 247.339844 C 58.589844 247.597656 58.382812 247.714844 58.128906 247.714844 " fill-opacity="1" fill-rule="nonzero"/><path fill="#ffffff" d="M 45.589844 247.714844 C 45.589844 247.714844 45.585938 247.714844 45.585938 247.714844 L 39.101562 247.746094 C 38.847656 247.746094 38.640625 247.5625 38.640625 247.304688 C 38.640625 247.050781 38.847656 246.871094 39.105469 246.871094 L 45.589844 246.886719 C 45.847656 246.886719 46.054688 247.046875 46.054688 247.300781 C 46.054688 247.558594 45.84375 247.714844 45.589844 247.714844 " fill-opacity="1" fill-rule="nonzero"/><path fill="#ffffff" d="M 46.199219 243.984375 C 45.96875 243.984375 45.769531 243.816406 45.738281 243.582031 L 45.003906 238.332031 C 44.96875 238.078125 45.144531 237.84375 45.398438 237.804688 C 45.652344 237.769531 45.890625 237.949219 45.925781 238.203125 L 46.660156 243.453125 C 46.695312 243.707031 46.519531 243.941406 46.261719 243.976562 C 46.242188 243.980469 46.21875 243.984375 46.199219 243.984375 " fill-opacity="1" fill-rule="nonzero"/><path fill="#ffffff" d="M 50.859375 243.984375 C 50.832031 243.984375 50.800781 243.980469 50.773438 243.972656 C 50.519531 243.925781 50.355469 243.679688 50.402344 243.429688 L 51.421875 238.179688 C 51.46875 237.925781 51.714844 237.765625 51.964844 237.8125 C 52.21875 237.859375 52.382812 238.105469 52.332031 238.355469 L 51.316406 243.605469 C 51.273438 243.828125 51.078125 243.984375 50.859375 243.984375 " fill-opacity="1" fill-rule="nonzero"/><path fill="#ffffff" d="M 44.894531 255.050781 C 44.867188 255.050781 44.839844 255.046875 44.8125 255.042969 C 44.558594 254.996094 44.390625 254.753906 44.4375 254.503906 L 45.5 248.679688 C 45.546875 248.425781 45.789062 248.257812 46.042969 248.304688 C 46.292969 248.351562 46.460938 248.59375 46.414062 248.847656 L 45.351562 254.667969 C 45.3125 254.894531 45.117188 255.050781 44.894531 255.050781 " fill-opacity="1" fill-rule="nonzero"/><path fill="#ffffff" d="M 51.148438 255.050781 C 50.910156 255.050781 50.707031 254.871094 50.683594 254.632812 L 50.113281 248.792969 C 50.085938 248.535156 50.273438 248.308594 50.527344 248.28125 C 50.789062 248.257812 51.011719 248.445312 51.035156 248.699219 L 51.609375 254.539062 C 51.636719 254.796875 51.449219 255.023438 51.191406 255.046875 C 51.175781 255.050781 51.160156 255.050781 51.148438 255.050781 " fill-opacity="1" fill-rule="nonzero"/><path fill="#000000" d="M 106.75 292.519531 L 30.296875 292.273438 C 28.125 292.273438 26.425781 291.621094 25.25 290.335938 C 23.652344 288.589844 23.046875 285.78125 23.40625 281.753906 L 28.566406 225.808594 C 28.933594 221.683594 30.101562 216.949219 35.929688 216.949219 L 114.632812 216.699219 C 114.632812 216.699219 114.632812 216.699219 114.636719 216.699219 C 114.984375 216.699219 115.269531 216.980469 115.269531 217.328125 C 115.269531 217.679688 114.988281 217.964844 114.636719 217.96875 L 35.933594 218.214844 C 32.082031 218.214844 30.3125 220.449219 29.828125 225.925781 L 24.667969 281.867188 C 24.347656 285.46875 24.859375 288.03125 26.1875 289.480469 C 27.125 290.507812 28.472656 291.007812 30.300781 291.007812 L 106.753906 291.253906 C 107.101562 291.253906 107.386719 291.539062 107.382812 291.886719 C 107.382812 292.238281 107.097656 292.519531 106.75 292.519531 " fill-opacity="1" fill-rule="nonzero"/><path fill="#ffffff" d="M 190.605469 166.15625 L 124.171875 166.15625 C 122.308594 166.15625 120.84375 164.558594 121.007812 162.699219 L 122.761719 143.703125 C 122.90625 142.066406 124.277344 140.8125 125.921875 140.8125 L 192.359375 140.8125 C 194.222656 140.8125 195.683594 142.410156 195.519531 144.265625 L 193.769531 163.265625 C 193.621094 164.898438 192.253906 166.15625 190.605469 166.15625 " fill-opacity="1" fill-rule="nonzero"/><path fill="#ffffff" d="M 132.9375 165.347656 L 133.359375 177.175781 L 144.765625 164.082031 Z M 132.9375 165.347656 " fill-opacity="1" fill-rule="nonzero"/><path fill="#ffffff" d="M 219.238281 122.054688 L 152.804688 122.054688 C 151.160156 122.054688 149.789062 123.28125 149.640625 124.917969 L 147.890625 143.929688 C 147.726562 145.785156 149.1875 147.398438 151.050781 147.398438 L 203.164062 147.398438 L 210.65625 157.804688 L 212 147.398438 L 217.488281 147.398438 C 219.132812 147.398438 220.503906 146.113281 220.648438 144.476562 L 222.398438 125.496094 C 222.566406 123.636719 221.101562 122.054688 219.238281 122.054688 " fill-opacity="1" fill-rule="nonzero"/><path fill="#000000" d="M 152.804688 122.6875 C 151.476562 122.6875 150.390625 123.667969 150.273438 124.972656 L 148.519531 143.984375 C 148.457031 144.695312 148.699219 145.410156 149.183594 145.9375 C 149.667969 146.472656 150.332031 146.761719 151.050781 146.761719 L 203.488281 146.761719 L 210.234375 156.132812 L 211.441406 146.761719 L 217.488281 146.761719 C 218.789062 146.761719 219.902344 145.734375 220.015625 144.417969 L 221.769531 125.4375 C 221.832031 124.722656 221.601562 124.042969 221.121094 123.511719 C 220.632812 122.980469 219.964844 122.6875 219.238281 122.6875 Z M 211.082031 159.472656 L 202.839844 148.03125 L 151.050781 148.03125 C 149.988281 148.03125 148.96875 147.578125 148.246094 146.792969 C 147.523438 146.003906 147.164062 144.9375 147.257812 143.871094 L 149.011719 124.859375 C 149.183594 122.902344 150.816406 121.421875 152.804688 121.421875 L 219.238281 121.421875 C 220.308594 121.421875 221.335938 121.871094 222.054688 122.65625 C 222.769531 123.4375 223.125 124.496094 223.03125 125.550781 L 221.28125 144.53125 C 221.105469 146.496094 219.4375 148.03125 217.488281 148.03125 L 212.554688 148.03125 L 211.082031 159.472656 " fill-opacity="1" fill-rule="nonzero"/><path fill="#a6a6a6" d="M 142.292969 149.351562 L 127.925781 149.351562 C 127.542969 149.351562 127.242188 149.125 127.277344 148.855469 L 127.636719 146.117188 C 127.667969 145.878906 127.949219 145.699219 128.285156 145.699219 L 142.652344 145.699219 C 143.035156 145.699219 143.335938 145.929688 143.304688 146.199219 L 142.941406 148.9375 C 142.914062 149.171875 142.628906 149.351562 142.292969 149.351562 " fill-opacity="1" fill-rule="nonzero"/><path fill="#a6a6a6" d="M 160.953125 154.585938 L 127.242188 154.585938 C 126.855469 154.585938 126.558594 154.359375 126.589844 154.089844 L 126.949219 151.347656 C 126.980469 151.113281 127.261719 150.933594 127.601562 150.933594 L 161.3125 150.933594 C 161.695312 150.933594 161.996094 151.164062 161.960938 151.429688 L 161.601562 154.171875 C 161.570312 154.40625 161.292969 154.585938 160.953125 154.585938 " fill-opacity="1" fill-rule="nonzero"/><path fill="#a6a6a6" d="M 182.800781 159.820312 L 126.554688 159.820312 C 126.171875 159.820312 125.871094 159.589844 125.90625 159.324219 L 126.265625 156.582031 C 126.296875 156.347656 126.578125 156.164062 126.914062 156.164062 L 183.160156 156.164062 C 183.542969 156.164062 183.84375 156.398438 183.8125 156.664062 L 183.449219 159.402344 C 183.421875 159.640625 183.136719 159.820312 182.800781 159.820312 " fill-opacity="1" fill-rule="nonzero"/><path fill="#a6a6a6" d="M 171.710938 130.539062 L 157.34375 130.539062 C 156.957031 130.539062 156.65625 130.308594 156.691406 130.039062 L 157.050781 127.300781 C 157.082031 127.066406 157.363281 126.882812 157.703125 126.882812 L 172.070312 126.882812 C 172.453125 126.882812 172.753906 127.113281 172.71875 127.382812 L 172.359375 130.121094 C 172.328125 130.355469 172.046875 130.539062 171.710938 130.539062 " fill-opacity="1" fill-rule="nonzero"/><path fill="#a6a6a6" d="M 190.367188 135.773438 L 156.65625 135.773438 C 156.273438 135.773438 155.972656 135.539062 156.007812 135.273438 L 156.367188 132.535156 C 156.394531 132.296875 156.679688 132.117188 157.015625 132.117188 L 190.730469 132.117188 C 191.109375 132.117188 191.410156 132.347656 191.378906 132.613281 L 191.019531 135.355469 C 190.988281 135.589844 190.707031 135.773438 190.367188 135.773438 " fill-opacity="1" fill-rule="nonzero"/><path fill="#a6a6a6" d="M 212.214844 141.003906 L 155.972656 141.003906 C 155.585938 141.003906 155.285156 140.773438 155.320312 140.507812 L 155.679688 137.769531 C 155.710938 137.53125 155.992188 137.351562 156.332031 137.351562 L 212.578125 137.351562 C 212.960938 137.351562 213.261719 137.582031 213.226562 137.847656 L 212.867188 140.589844 C 212.835938 140.824219 212.554688 141.003906 212.214844 141.003906 " fill-opacity="1" fill-rule="nonzero"/><path fill="#5479f7" d="M 282.128906 120.113281 L 282.492188 114.464844 C 282.683594 111.402344 280.25 108.8125 277.1875 108.8125 L 239.4375 108.8125 C 236.632812 108.8125 234.3125 110.988281 234.136719 113.785156 L 229.542969 193.710938 C 229.347656 196.773438 231.78125 199.363281 234.851562 199.363281 L 319.910156 201.148438 C 322.71875 201.148438 325.039062 198.96875 325.21875 196.171875 L 329.070312 125.765625 C 329.261719 122.707031 326.832031 120.113281 323.765625 120.113281 L 282.128906 120.113281 " fill-opacity="1" fill-rule="nonzero"/><path fill="#ffffff" d="M 313.261719 196.019531 L 317.847656 138.1875 L 309.550781 129.191406 L 248.222656 129.191406 C 245.097656 129.191406 242.511719 131.605469 242.292969 134.71875 L 238 196.019531 L 313.261719 196.019531 " fill-opacity="1" fill-rule="nonzero"/><path fill="#000000" d="M 238.675781 195.386719 L 312.679688 195.386719 L 317.195312 138.414062 L 309.273438 129.824219 L 248.21875 129.824219 C 245.445312 129.824219 243.121094 131.992188 242.921875 134.761719 Z M 313.851562 196.652344 L 237.320312 196.652344 L 241.660156 134.671875 C 241.902344 131.242188 244.78125 128.558594 248.21875 128.558594 L 309.828125 128.558594 L 318.5 137.964844 L 313.851562 196.652344 " fill-opacity="1" fill-rule="nonzero"/><path fill="#000000" d="M 317.847656 138.824219 C 317.839844 138.824219 317.835938 138.824219 317.828125 138.824219 L 308.457031 138.542969 C 308.285156 138.539062 308.121094 138.460938 308.003906 138.328125 C 307.890625 138.199219 307.832031 138.027344 307.847656 137.855469 L 308.546875 129.742188 C 308.574219 129.394531 308.886719 129.136719 309.230469 129.167969 C 309.578125 129.195312 309.839844 129.503906 309.808594 129.851562 L 309.167969 137.296875 L 317.867188 137.554688 C 318.214844 137.566406 318.492188 137.859375 318.480469 138.207031 C 318.472656 138.550781 318.191406 138.824219 317.847656 138.824219 " fill-opacity="1" fill-rule="nonzero"/><path fill="#99b9ff" d="M 300.921875 149.738281 L 253.125 149.738281 C 252.773438 149.738281 252.488281 149.457031 252.488281 149.105469 C 252.488281 148.757812 252.773438 148.472656 253.125 148.472656 L 300.921875 148.472656 C 301.269531 148.472656 301.554688 148.757812 301.554688 149.105469 C 301.554688 149.457031 301.269531 149.738281 300.921875 149.738281 " fill-opacity="1" fill-rule="nonzero"/><path fill="#99b9ff" d="M 301.363281 143.988281 L 253.566406 143.988281 C 253.21875 143.988281 252.933594 143.699219 252.933594 143.351562 C 252.933594 143.003906 253.21875 142.71875 253.566406 142.71875 L 301.363281 142.71875 C 301.714844 142.71875 301.996094 143.003906 301.996094 143.351562 C 301.996094 143.699219 301.714844 143.988281 301.363281 143.988281 " fill-opacity="1" fill-rule="nonzero"/><path fill="#99b9ff" d="M 302.25 138.230469 L 279.675781 138.230469 C 279.328125 138.230469 279.042969 137.949219 279.042969 137.597656 C 279.042969 137.25 279.328125 136.964844 279.675781 136.964844 L 302.25 136.964844 C 302.601562 136.964844 302.882812 137.25 302.882812 137.597656 C 302.882812 137.949219 302.601562 138.230469 302.25 138.230469 " fill-opacity="1" fill-rule="nonzero"/><path fill="#99b9ff" d="M 267.730469 138.230469 L 254.449219 138.230469 C 254.101562 138.230469 253.816406 137.949219 253.816406 137.597656 C 253.816406 137.25 254.101562 136.964844 254.449219 136.964844 L 267.730469 136.964844 C 268.078125 136.964844 268.363281 137.25 268.363281 137.597656 C 268.363281 137.949219 268.078125 138.230469 267.730469 138.230469 " fill-opacity="1" fill-rule="nonzero"/><path fill="#5479f7" d="M 319.738281 201.390625 L 234.558594 201.390625 C 231.921875 201.390625 229.679688 199.863281 229.300781 197.804688 L 222.53125 161.070312 C 222.0625 158.539062 224.546875 156.273438 227.789062 156.273438 L 312.96875 156.273438 C 315.605469 156.273438 317.84375 157.796875 318.226562 159.859375 L 325 196.59375 C 325.464844 199.125 322.976562 201.390625 319.738281 201.390625 " fill-opacity="1" fill-rule="nonzero"/><path fill="#000000" d="M 319.738281 202.027344 L 259.59375 202.027344 C 259.242188 202.027344 258.960938 201.742188 258.960938 201.394531 C 258.960938 201.046875 259.242188 200.761719 259.59375 200.761719 L 319.738281 200.761719 C 321.347656 200.761719 322.828125 200.136719 323.695312 199.09375 C 324.113281 198.59375 324.570312 197.773438 324.375 196.710938 L 317.601562 159.976562 C 317.277344 158.226562 315.285156 156.90625 312.96875 156.90625 L 227.785156 156.90625 C 226.175781 156.90625 224.699219 157.527344 223.828125 158.570312 C 223.410156 159.074219 222.953125 159.894531 223.148438 160.953125 L 226.324219 178.179688 C 226.386719 178.523438 226.160156 178.855469 225.820312 178.917969 C 225.476562 178.980469 225.144531 178.753906 225.082031 178.410156 L 221.90625 161.183594 C 221.683594 159.980469 222.019531 158.761719 222.855469 157.761719 C 223.960938 156.429688 225.804688 155.640625 227.785156 155.640625 L 312.96875 155.640625 C 315.933594 155.640625 318.40625 157.367188 318.847656 159.746094 L 325.617188 196.480469 C 325.839844 197.6875 325.507812 198.902344 324.671875 199.90625 C 323.5625 201.234375 321.71875 202.027344 319.738281 202.027344 " fill-opacity="1" fill-rule="nonzero"/><path fill="#ffffff" d="M 113.394531 111.261719 L 58.6875 112.960938 C 57.1875 113.007812 55.949219 114.15625 55.792969 115.648438 L 49.605469 175.171875 C 49.414062 176.984375 50.867188 178.550781 52.6875 178.492188 L 107.394531 176.792969 C 108.898438 176.746094 110.132812 175.597656 110.289062 174.101562 L 116.476562 114.582031 C 116.667969 112.765625 115.214844 111.207031 113.394531 111.261719 " fill-opacity="1" fill-rule="nonzero"/><path fill="#99b9ff" d="M 106.316406 163.453125 L 55.617188 165.027344 L 60.503906 118.566406 L 111.203125 116.992188 L 106.316406 163.453125 " fill-opacity="1" fill-rule="nonzero"/><path fill="#99b9ff" d="M 106.316406 163.453125 L 55.617188 165.027344 L 60.503906 118.566406 L 111.203125 116.992188 L 106.316406 163.453125 " fill-opacity="1" fill-rule="nonzero"/><path fill="#a6a6a6" d="M 100.773438 136.964844 C 99.34375 135.414062 96.917969 135.320312 95.375 136.765625 L 84.214844 147.214844 C 83.238281 148.128906 81.707031 148.070312 80.800781 147.085938 L 77.117188 143.078125 C 75.6875 141.523438 73.261719 141.433594 71.722656 142.875 L 59.203125 154.601562 L 58.375 162.46875 L 104.085938 161.046875 L 106.015625 142.671875 L 100.773438 136.964844 " fill-opacity="1" fill-rule="nonzero"/><path fill="#a6a6a6" d="M 85.238281 128.925781 C 84.910156 132.039062 82.132812 134.640625 79.03125 134.738281 C 75.933594 134.832031 73.6875 132.390625 74.011719 129.273438 C 74.339844 126.160156 77.117188 123.5625 80.21875 123.464844 C 83.320312 123.367188 85.566406 125.8125 85.238281 128.925781 " fill-opacity="1" fill-rule="nonzero"/><path fill="#ffffff" d="M 89.46875 128.828125 L 34.765625 130.640625 C 33.265625 130.6875 32.03125 131.839844 31.875 133.335938 L 25.8125 192.871094 C 25.625 194.683594 27.082031 196.242188 28.902344 196.183594 L 83.605469 194.371094 C 85.105469 194.320312 86.339844 193.167969 86.492188 191.675781 L 92.558594 132.140625 C 92.746094 130.328125 91.289062 128.769531 89.46875 128.828125 " fill-opacity="1" fill-rule="nonzero"/><path fill="#000000" d="M 89.488281 129.460938 L 34.789062 131.273438 C 33.609375 131.3125 32.628906 132.226562 32.507812 133.398438 L 26.441406 192.933594 C 26.371094 193.617188 26.601562 194.296875 27.066406 194.796875 C 27.535156 195.296875 28.191406 195.566406 28.878906 195.550781 L 83.582031 193.738281 C 84.761719 193.699219 85.742188 192.785156 85.863281 191.609375 L 91.929688 132.074219 C 92 131.394531 91.769531 130.714844 91.304688 130.214844 C 90.835938 129.714844 90.171875 129.445312 89.488281 129.460938 Z M 28.800781 196.816406 C 27.796875 196.816406 26.832031 196.402344 26.140625 195.660156 C 25.425781 194.890625 25.074219 193.851562 25.183594 192.804688 L 31.246094 133.269531 C 31.433594 131.46875 32.9375 130.066406 34.746094 130.007812 L 89.449219 128.195312 C 90.5 128.15625 91.511719 128.582031 92.230469 129.347656 C 92.945312 130.121094 93.296875 131.160156 93.1875 132.203125 L 87.125 191.742188 C 86.9375 193.542969 85.433594 194.945312 83.625 195.003906 L 28.921875 196.816406 C 28.882812 196.816406 28.84375 196.816406 28.800781 196.816406 " fill-opacity="1" fill-rule="nonzero"/><path fill="#99b9ff" d="M 82.5 181.03125 L 31.804688 182.710938 L 36.59375 136.238281 L 87.289062 134.558594 L 82.5 181.03125 " fill-opacity="1" fill-rule="nonzero"/><path fill="#99b9ff" d="M 82.5 181.03125 L 31.804688 182.710938 L 36.59375 136.238281 L 87.289062 134.558594 L 82.5 181.03125 " fill-opacity="1" fill-rule="nonzero"/><path fill="#a6a6a6" d="M 76.902344 154.558594 C 75.46875 153.003906 73.042969 152.921875 71.503906 154.367188 L 60.367188 164.839844 C 59.390625 165.757812 57.855469 165.703125 56.949219 164.71875 L 53.257812 160.71875 C 51.824219 159.164062 49.402344 159.082031 47.863281 160.527344 L 35.367188 172.273438 L 34.554688 180.144531 L 80.261719 178.628906 L 82.15625 160.253906 L 76.902344 154.558594 " fill-opacity="1" fill-rule="nonzero"/><path fill="#a6a6a6" d="M 61.351562 146.550781 C 61.03125 149.664062 58.257812 152.269531 55.15625 152.371094 C 52.058594 152.476562 49.804688 150.035156 50.125 146.921875 C 50.445312 143.808594 53.21875 141.203125 56.320312 141.097656 C 59.417969 140.996094 61.671875 143.4375 61.351562 146.550781 " fill-opacity="1" fill-rule="nonzero"/><path fill="#000000" d="M 54.96875 153.011719 C 53.375 153.011719 51.945312 152.40625 50.914062 151.304688 C 49.824219 150.136719 49.320312 148.558594 49.496094 146.855469 C 49.847656 143.445312 52.898438 140.578125 56.296875 140.464844 C 57.351562 140.425781 58.375 140.664062 59.246094 141.144531 C 59.554688 141.3125 59.667969 141.695312 59.5 142.003906 C 59.328125 142.3125 58.945312 142.421875 58.636719 142.253906 C 57.964844 141.882812 57.167969 141.707031 56.339844 141.730469 C 53.550781 141.824219 51.046875 144.179688 50.757812 146.984375 C 50.621094 148.316406 51.003906 149.542969 51.839844 150.4375 C 52.660156 151.320312 53.832031 151.777344 55.136719 151.738281 C 56.480469 151.695312 57.804688 151.125 58.863281 150.128906 C 59.117188 149.890625 59.515625 149.898438 59.757812 150.15625 C 59.996094 150.410156 59.984375 150.8125 59.730469 151.050781 C 58.449219 152.257812 56.832031 152.949219 55.179688 153.007812 C 55.109375 153.007812 55.039062 153.011719 54.96875 153.011719 " fill-opacity="1" fill-rule="nonzero"/><path fill="#000000" d="M 38.117188 170.324219 C 37.949219 170.324219 37.78125 170.257812 37.65625 170.125 C 37.414062 169.871094 37.429688 169.46875 37.683594 169.226562 L 47.351562 160.136719 C 48.238281 159.300781 49.398438 158.878906 50.621094 158.90625 C 51.839844 158.953125 52.96875 159.46875 53.796875 160.367188 L 57.453125 164.328125 C 57.765625 164.667969 58.191406 164.867188 58.652344 164.878906 C 59.121094 164.902344 59.554688 164.730469 59.890625 164.414062 L 70.992188 153.980469 C 71.882812 153.140625 73.046875 152.699219 74.265625 152.75 C 75.484375 152.792969 76.609375 153.308594 77.4375 154.207031 L 78.410156 155.257812 C 78.648438 155.515625 78.632812 155.917969 78.375 156.152344 C 78.117188 156.390625 77.714844 156.375 77.480469 156.117188 L 76.507812 155.066406 C 75.910156 154.417969 75.097656 154.046875 74.21875 154.015625 C 73.339844 153.992188 72.503906 154.296875 71.863281 154.902344 L 60.761719 165.339844 C 60.175781 165.890625 59.414062 166.179688 58.609375 166.148438 C 57.808594 166.117188 57.066406 165.777344 56.519531 165.1875 L 52.863281 161.226562 C 52.265625 160.578125 51.453125 160.207031 50.574219 160.175781 C 49.699219 160.144531 48.859375 160.457031 48.21875 161.0625 L 38.550781 170.152344 C 38.429688 170.265625 38.273438 170.324219 38.117188 170.324219 " fill-opacity="1" fill-rule="nonzero"/><path fill="#a6a6a6" d="M 312.125 291.042969 L 255.378906 291.042969 C 253.449219 291.042969 251.9375 289.390625 252.101562 287.46875 L 258.402344 214.835938 C 258.550781 213.128906 259.988281 211.820312 261.703125 211.832031 L 317.882812 212.226562 C 319.777344 212.238281 321.269531 213.839844 321.144531 215.730469 C 320.273438 228.988281 316.425781 275.675781 315.402344 288.027344 C 315.261719 289.734375 313.832031 291.042969 312.125 291.042969 " fill-opacity="1" fill-rule="nonzero"/><path fill="#99b9ff" d="M 306.578125 265.066406 C 306.574219 265.066406 306.570312 265.066406 306.5625 265.066406 L 268.085938 264.582031 C 267.503906 264.574219 267.035156 264.097656 267.042969 263.515625 C 267.050781 262.933594 267.539062 262.457031 268.113281 262.472656 L 306.589844 262.953125 C 307.171875 262.960938 307.640625 263.4375 307.632812 264.023438 C 307.625 264.601562 307.15625 265.066406 306.578125 265.066406 " fill-opacity="1" fill-rule="nonzero"/><path fill="#99b9ff" d="M 284.96875 271.265625 C 284.964844 271.265625 284.960938 271.265625 284.957031 271.265625 L 266.480469 271.03125 C 265.898438 271.027344 265.429688 270.546875 265.4375 269.964844 C 265.445312 269.382812 265.925781 268.910156 266.507812 268.921875 L 284.984375 269.152344 C 285.566406 269.160156 286.035156 269.636719 286.023438 270.222656 C 286.019531 270.800781 285.546875 271.265625 284.96875 271.265625 " fill-opacity="1" fill-rule="nonzero"/><path fill="#99b9ff" d="M 303.554688 278.394531 C 303.546875 278.394531 303.542969 278.394531 303.539062 278.394531 L 265.0625 277.917969 C 264.480469 277.90625 264.011719 277.429688 264.019531 276.847656 C 264.023438 276.261719 264.496094 275.78125 265.089844 275.804688 L 303.5625 276.285156 C 304.148438 276.292969 304.613281 276.773438 304.609375 277.351562 C 304.597656 277.933594 304.128906 278.394531 303.554688 278.394531 " fill-opacity="1" fill-rule="nonzero"/><path fill="#ffffff" d="M 272.628906 237.5 C 272.609375 229.464844 279.097656 222.933594 287.128906 222.910156 C 295.15625 222.886719 301.683594 229.382812 301.707031 237.417969 C 301.730469 245.453125 295.238281 251.988281 287.207031 252.007812 C 279.179688 252.03125 272.652344 245.535156 272.628906 237.5 " fill-opacity="1" fill-rule="nonzero"/><path fill="#000000" d="M 287.164062 252.644531 C 283.128906 252.644531 279.332031 251.074219 276.472656 248.226562 C 273.597656 245.367188 272.007812 241.558594 271.996094 237.503906 C 271.988281 235.710938 272.292969 233.960938 272.898438 232.289062 C 273.015625 231.960938 273.378906 231.792969 273.707031 231.910156 C 274.039062 232.027344 274.210938 232.390625 274.089844 232.722656 C 273.535156 234.25 273.257812 235.859375 273.265625 237.496094 C 273.273438 241.214844 274.730469 244.707031 277.363281 247.328125 C 279.988281 249.941406 283.464844 251.375 287.164062 251.375 C 287.179688 251.375 287.191406 251.375 287.207031 251.375 C 290.921875 251.367188 294.40625 249.90625 297.027344 247.273438 C 299.644531 244.636719 301.082031 241.136719 301.074219 237.421875 C 301.050781 229.761719 294.816406 223.542969 287.167969 223.542969 C 287.15625 223.542969 287.140625 223.542969 287.128906 223.542969 C 282.957031 223.554688 279.046875 225.417969 276.398438 228.65625 C 276.175781 228.925781 275.777344 228.96875 275.507812 228.742188 C 275.238281 228.523438 275.195312 228.125 275.417969 227.851562 C 278.304688 224.324219 282.570312 222.289062 287.125 222.277344 C 287.140625 222.277344 287.15625 222.277344 287.167969 222.277344 C 295.515625 222.277344 302.316406 229.058594 302.339844 237.417969 C 302.351562 241.472656 300.78125 245.289062 297.925781 248.167969 C 295.070312 251.042969 291.261719 252.632812 287.210938 252.644531 C 287.195312 252.644531 287.179688 252.644531 287.164062 252.644531 " fill-opacity="1" fill-rule="nonzero"/><path fill="#99b9ff" d="M 277.222656 248.070312 C 279.832031 250.519531 283.34375 252.019531 287.207031 252.011719 C 291.070312 252 294.570312 250.480469 297.167969 248.015625 C 294.152344 247.089844 290.769531 246.574219 287.191406 246.582031 C 283.617188 246.59375 280.230469 247.128906 277.222656 248.070312 " fill-opacity="1" fill-rule="nonzero"/><path fill="#ffffff" d="M 287.285156 249.039062 C 286.019531 249.042969 284.992188 248.019531 284.988281 246.753906 L 284.957031 235.039062 L 289.542969 235.027344 L 289.574219 246.738281 C 289.578125 248.007812 288.554688 249.035156 287.285156 249.039062 " fill-opacity="1" fill-rule="nonzero"/><path fill="#000000" d="M 296.144531 239.285156 C 295.847656 235.644531 297.441406 233.371094 293.835938 229.269531 C 290.105469 225.027344 286.917969 227.890625 286.917969 227.890625 C 286.917969 227.890625 284.25 225.683594 280.773438 230.320312 C 277.699219 234.40625 281.660156 238.054688 280.339844 240.597656 C 279.019531 243.140625 274.523438 244.539062 274.523438 244.539062 C 274.523438 244.539062 275.972656 247.421875 277.765625 248.6875 L 296.75 248.632812 C 296.75 248.632812 300.65625 244.351562 300.65625 243.140625 C 300.65625 243.140625 296.441406 242.917969 296.144531 239.285156 " fill-opacity="1" fill-rule="nonzero"/><path fill="#99b9ff" d="M 277.222656 248.070312 C 279.832031 250.519531 283.34375 252.019531 287.207031 252.011719 C 291.070312 252 294.570312 250.480469 297.167969 248.015625 C 294.152344 247.089844 290.769531 246.574219 287.191406 246.582031 C 283.617188 246.59375 280.230469 247.128906 277.222656 248.070312 " fill-opacity="1" fill-rule="nonzero"/><path fill="#000000" d="M 278.515625 248.351562 C 280.972656 250.308594 284 251.375 287.167969 251.375 C 287.179688 251.375 287.191406 251.375 287.203125 251.375 C 290.382812 251.367188 293.421875 250.285156 295.875 248.304688 C 293.128906 247.574219 290.234375 247.214844 287.191406 247.214844 C 284.171875 247.226562 281.257812 247.605469 278.515625 248.351562 Z M 287.167969 252.644531 C 283.296875 252.644531 279.613281 251.183594 276.789062 248.53125 L 276 247.789062 L 277.035156 247.464844 C 280.214844 246.46875 283.632812 245.960938 287.1875 245.949219 C 287.226562 245.949219 287.261719 245.949219 287.292969 245.949219 C 290.816406 245.949219 294.199219 246.441406 297.355469 247.410156 L 298.390625 247.726562 L 297.605469 248.472656 C 294.785156 251.152344 291.09375 252.632812 287.207031 252.644531 C 287.195312 252.644531 287.179688 252.644531 287.167969 252.644531 " fill-opacity="1" fill-rule="nonzero"/><path fill="#ffffff" d="M 287.457031 231.222656 L 287.296875 231.222656 L 282.644531 235.933594 L 282.652344 238.511719 C 282.652344 240.234375 283.589844 241.730469 284.972656 242.539062 L 284.984375 246.753906 C 284.988281 248.019531 286.019531 249.046875 287.285156 249.042969 C 288.550781 249.039062 289.578125 248.007812 289.574219 246.738281 L 289.5625 242.605469 C 291.015625 241.808594 292 240.261719 291.996094 238.484375 L 291.988281 235.730469 C 291.980469 233.234375 289.953125 231.21875 287.457031 231.222656 " fill-opacity="1" fill-rule="nonzero"/><path fill="#000000" d="M 287.28125 249.675781 C 286.5 249.675781 285.769531 249.371094 285.21875 248.824219 C 284.664062 248.269531 284.355469 247.535156 284.351562 246.753906 L 284.34375 242.667969 C 284.339844 242.316406 284.625 242.035156 284.972656 242.03125 C 284.972656 242.03125 284.972656 242.03125 284.976562 242.03125 C 285.324219 242.03125 285.609375 242.316406 285.609375 242.664062 L 285.621094 246.75 C 285.621094 247.195312 285.792969 247.609375 286.109375 247.925781 C 286.425781 248.234375 286.839844 248.40625 287.28125 248.40625 C 287.28125 248.40625 287.28125 248.40625 287.285156 248.40625 C 288.199219 248.40625 288.945312 247.65625 288.941406 246.738281 L 288.929688 242.726562 C 288.929688 242.375 289.210938 242.09375 289.5625 242.089844 C 289.914062 242.089844 290.195312 242.375 290.199219 242.722656 L 290.207031 246.738281 C 290.214844 248.351562 288.902344 249.671875 287.289062 249.675781 C 287.289062 249.675781 287.28125 249.675781 287.28125 249.675781 " fill-opacity="1" fill-rule="nonzero"/><path fill="#000000" d="M 287.335938 243.808594 C 286.984375 243.808594 286.703125 243.527344 286.699219 243.179688 C 286.699219 242.828125 286.984375 242.542969 287.335938 242.542969 C 288.414062 242.539062 289.425781 242.117188 290.1875 241.351562 C 290.949219 240.585938 291.363281 239.570312 291.363281 238.488281 L 291.355469 235.734375 C 291.347656 233.671875 289.757812 231.988281 287.710938 231.867188 L 283.277344 236.277344 L 283.28125 238.511719 C 283.289062 240.089844 284.222656 241.535156 285.664062 242.1875 C 285.980469 242.332031 286.121094 242.707031 285.976562 243.023438 C 285.832031 243.34375 285.457031 243.484375 285.140625 243.339844 C 283.246094 242.484375 282.023438 240.589844 282.015625 238.515625 L 282.007812 236.019531 C 282.007812 235.847656 282.074219 235.683594 282.199219 235.566406 L 287.011719 230.777344 C 287.128906 230.65625 287.289062 230.59375 287.457031 230.589844 C 287.53125 230.589844 287.609375 230.59375 287.6875 230.59375 C 290.445312 230.707031 292.613281 232.964844 292.625 235.730469 L 292.628906 238.484375 C 292.632812 239.902344 292.085938 241.238281 291.085938 242.246094 C 290.085938 243.25 288.753906 243.804688 287.335938 243.808594 " fill-opacity="1" fill-rule="nonzero"/><path fill="#5479f7" d="M 118.320312 219.882812 L 138.191406 210.128906 C 154.367188 202.191406 169.457031 192.21875 183.097656 180.449219 L 184.074219 174.410156 C 184.074219 174.410156 190.8125 174.484375 192.253906 174.402344 C 194.09375 174.296875 195.964844 174.941406 197.378906 176.320312 C 212.183594 190.8125 229.039062 203.042969 247.40625 212.625 L 260.402344 219.40625 C 263.421875 220.980469 264.53125 223.761719 263.625 227.75 L 246.640625 299.492188 C 239.25 319.5625 209.480469 346.417969 192.71875 360.398438 C 189.671875 362.941406 185.945312 364.183594 182.238281 364.160156 C 180.59375 364.148438 173.78125 364.363281 173.78125 364.363281 C 173.78125 364.363281 172.339844 361.496094 170.433594 359.558594 C 155.375 344.257812 128.953125 314.804688 123.597656 291.609375 L 114.703125 227.484375 C 113.996094 224.421875 115.496094 221.269531 118.320312 219.882812 " fill-opacity="1" fill-rule="nonzero"/><path fill="#ffffff" d="M 110.792969 220.269531 L 130.511719 210.59375 C 146.554688 202.714844 161.53125 192.820312 175.066406 181.144531 L 180.148438 176.761719 C 182.789062 174.480469 186.738281 174.605469 189.234375 177.046875 C 203.925781 191.421875 220.648438 203.558594 238.875 213.070312 L 251.765625 219.796875 C 254.761719 221.359375 256.132812 224.90625 254.964844 228.078125 L 238.113281 299.257812 C 230.777344 319.171875 200.921875 346.070312 184.296875 359.941406 C 177.859375 365.3125 168.382812 364.832031 162.5 358.855469 C 147.558594 343.675781 121.34375 314.453125 116.027344 291.4375 L 107.207031 227.816406 C 106.503906 224.773438 107.988281 221.644531 110.792969 220.269531 " fill-opacity="1" fill-rule="nonzero"/><path fill="#000000" d="M 110.792969 220.269531 L 110.796875 220.269531 Z M 116.652344 291.324219 C 121.933594 314.128906 147.925781 343.144531 162.949219 358.414062 C 168.558594 364.109375 177.761719 364.566406 183.890625 359.453125 C 200.796875 345.351562 230.230469 318.757812 237.507812 299.074219 L 254.347656 227.929688 C 254.351562 227.902344 254.359375 227.878906 254.371094 227.855469 C 255.425781 224.992188 254.179688 221.773438 251.476562 220.359375 L 238.582031 213.632812 C 220.289062 204.085938 203.535156 191.929688 188.789062 177.5 C 186.515625 175.269531 182.976562 175.160156 180.558594 177.238281 L 175.480469 181.625 C 161.910156 193.328125 146.875 203.261719 130.789062 211.160156 L 111.070312 220.839844 C 108.519531 222.089844 107.183594 224.902344 107.824219 227.671875 C 107.828125 227.691406 107.832031 227.707031 107.832031 227.726562 Z M 174.011719 364.273438 C 169.648438 364.273438 165.292969 362.597656 162.050781 359.300781 C 146.921875 343.929688 120.75 314.695312 115.410156 291.578125 C 115.40625 291.5625 115.402344 291.542969 115.398438 291.523438 L 106.582031 227.925781 C 105.824219 224.589844 107.4375 221.210938 110.511719 219.699219 L 130.230469 210.023438 C 146.21875 202.175781 161.167969 192.296875 174.652344 180.664062 L 179.730469 176.28125 C 182.648438 173.765625 186.925781 173.902344 189.675781 176.59375 C 204.335938 190.9375 220.988281 203.019531 239.167969 212.507812 L 252.058594 219.234375 C 255.316406 220.933594 256.820312 224.808594 255.574219 228.257812 L 238.730469 299.402344 C 238.722656 299.429688 238.71875 299.453125 238.710938 299.476562 C 231.355469 319.441406 201.714844 346.234375 184.703125 360.425781 C 181.613281 363.003906 177.808594 364.273438 174.011719 364.273438 " fill-opacity="1" fill-rule="nonzero"/><path fill="#a6a6a6" d="M 122.90625 228.722656 L 139.234375 220.710938 C 152.515625 214.1875 164.914062 205.992188 176.121094 196.328125 L 180.328125 192.699219 C 182.515625 190.8125 185.785156 190.914062 187.851562 192.933594 C 200.015625 204.835938 213.863281 214.886719 228.953125 222.761719 L 239.628906 228.332031 C 242.109375 229.625 243.242188 232.5625 242.277344 235.1875 L 228.324219 294.121094 C 222.25 310.609375 197.53125 332.878906 183.761719 344.363281 C 178.433594 348.8125 170.585938 348.414062 165.71875 343.46875 C 153.347656 330.898438 131.640625 306.703125 127.238281 287.648438 L 119.933594 234.96875 C 119.355469 232.449219 120.585938 229.863281 122.90625 228.722656 " fill-opacity="1" fill-rule="nonzero"/><path fill="#ffffff" d="M 192.488281 245.910156 L 192.1875 227.03125 C 192.046875 220.933594 187.214844 215.9375 181.117188 215.660156 C 174.398438 215.351562 168.824219 220.84375 168.980469 227.566406 C 168.980469 227.566406 169.734375 252.328125 166.636719 248.382812 C 166.636719 248.382812 161.59375 248.855469 161.566406 246.976562 L 161.953125 227.996094 C 161.703125 217.195312 170.347656 208.332031 181.496094 208.785156 L 181.496094 208.792969 C 190.703125 209.167969 199.128906 217.269531 199.359375 227.132812 L 199.597656 246.199219 L 192.488281 245.910156 " fill-opacity="1" fill-rule="nonzero"/><path fill="#000000" d="M 166.636719 247.75 C 166.828125 247.75 167.011719 247.839844 167.132812 247.992188 C 167.171875 248.042969 167.207031 248.082031 167.238281 248.109375 C 168.269531 246.753906 168.621094 236.574219 168.347656 227.585938 C 168.269531 224.1875 169.621094 220.878906 172.050781 218.503906 C 174.503906 216.105469 177.734375 214.867188 181.148438 215.027344 C 187.546875 215.320312 192.675781 220.585938 192.820312 227.015625 L 193.113281 245.300781 L 198.957031 245.539062 L 198.726562 227.140625 C 198.507812 217.914062 190.609375 209.796875 181.46875 209.425781 C 181.433594 209.425781 181.398438 209.417969 181.363281 209.410156 C 176.28125 209.230469 171.527344 211.050781 167.984375 214.535156 C 164.382812 218.070312 162.46875 222.84375 162.585938 227.980469 L 162.199219 246.988281 C 162.203125 247.039062 162.21875 247.121094 162.332031 247.226562 C 162.976562 247.800781 165.199219 247.878906 166.578125 247.753906 C 166.59375 247.75 166.617188 247.75 166.636719 247.75 Z M 167.261719 249.441406 C 167.015625 249.441406 166.703125 249.351562 166.375 249.039062 C 165.390625 249.101562 162.617188 249.183594 161.484375 248.167969 C 161.132812 247.847656 160.941406 247.441406 160.933594 246.984375 L 161.320312 227.980469 C 161.191406 222.523438 163.242188 217.414062 167.09375 213.628906 C 170.917969 209.871094 176.046875 207.933594 181.519531 208.148438 C 181.558594 208.152344 181.59375 208.15625 181.632812 208.164062 C 191.367188 208.621094 199.761719 217.277344 199.992188 227.121094 L 200.230469 246.191406 C 200.234375 246.367188 200.164062 246.53125 200.039062 246.652344 C 199.914062 246.773438 199.75 246.839844 199.570312 246.832031 L 192.460938 246.542969 C 192.125 246.53125 191.859375 246.257812 191.855469 245.921875 L 191.554688 227.042969 C 191.421875 221.28125 186.828125 216.558594 181.089844 216.292969 C 178.035156 216.15625 175.136719 217.257812 172.9375 219.410156 C 170.753906 221.539062 169.542969 224.511719 169.613281 227.554688 C 169.617188 227.597656 169.769531 232.730469 169.648438 237.890625 C 169.398438 248.734375 168.234375 249.152344 167.613281 249.378906 C 167.519531 249.414062 167.402344 249.441406 167.261719 249.441406 " fill-opacity="1" fill-rule="nonzero"/><path fill="#5479f7" d="M 184.597656 297.816406 L 176.632812 298.128906 C 165.605469 297.855469 155.859375 284.675781 156.902344 269.1875 L 158.578125 244.40625 L 205.445312 244.03125 C 209.605469 244.015625 213.09375 247.726562 212.804688 251.875 L 211.359375 272.800781 C 210.40625 286.882812 198.710938 297.816406 184.597656 297.816406 " fill-opacity="1" fill-rule="nonzero"/><path fill="#ffffff" d="M 176.917969 297.429688 C 161.394531 297.429688 149.109375 284.285156 150.15625 268.796875 L 151.78125 244.777344 L 201.335938 244.777344 C 203.613281 244.777344 205.417969 246.703125 205.265625 248.976562 L 203.679688 272.414062 C 202.726562 286.492188 191.027344 297.429688 176.917969 297.429688 " fill-opacity="1" fill-rule="nonzero"/><path fill="#000000" d="M 176.917969 298.0625 C 163.375 298.0625 151.695312 287.972656 149.746094 274.597656 C 149.695312 274.25 149.933594 273.929688 150.28125 273.875 C 150.625 273.828125 150.949219 274.066406 151 274.414062 C 152.859375 287.171875 164 296.792969 176.917969 296.792969 C 190.644531 296.792969 202.121094 286.066406 203.046875 272.371094 L 204.640625 248.8125 C 204.699219 247.921875 204.398438 247.070312 203.789062 246.417969 C 203.179688 245.765625 202.351562 245.410156 201.457031 245.410156 L 155.660156 245.410156 C 153.816406 245.410156 152.277344 246.851562 152.152344 248.6875 L 151.929688 251.972656 C 151.90625 252.320312 151.597656 252.582031 151.253906 252.5625 C 150.90625 252.539062 150.640625 252.238281 150.664062 251.886719 L 150.886719 248.601562 C 151.054688 246.101562 153.152344 244.140625 155.660156 244.140625 L 201.457031 244.140625 C 202.6875 244.140625 203.875 244.65625 204.714844 245.554688 C 205.554688 246.453125 205.984375 247.671875 205.902344 248.898438 L 204.3125 272.457031 C 203.339844 286.816406 191.308594 298.0625 176.917969 298.0625 " fill-opacity="1" fill-rule="nonzero"/><path fill="#000000" d="M 176.300781 282.230469 C 175.035156 282.230469 174.035156 281.164062 174.113281 279.902344 L 175.304688 261.226562 C 175.378906 260.074219 176.335938 259.175781 177.492188 259.175781 C 178.757812 259.175781 179.757812 260.242188 179.675781 261.507812 L 178.488281 280.179688 C 178.414062 281.335938 177.457031 282.230469 176.300781 282.230469 " fill-opacity="1" fill-rule="nonzero"/><path fill="#000000" d="M 185.136719 262.925781 C 185.136719 267.378906 181.523438 270.992188 177.070312 270.992188 C 172.613281 270.992188 169.003906 267.378906 169.003906 262.925781 C 169.003906 258.46875 172.613281 254.859375 177.070312 254.859375 C 181.523438 254.859375 185.136719 258.46875 185.136719 262.925781 " fill-opacity="1" fill-rule="nonzero"/><path fill="#000000" d="M 108.53125 343.453125 C 108.441406 343.453125 108.351562 343.4375 108.265625 343.394531 C 93.453125 336.511719 80.121094 328.046875 68.628906 318.234375 C 68.363281 318.007812 68.332031 317.609375 68.558594 317.339844 C 68.785156 317.074219 69.1875 317.042969 69.453125 317.269531 C 80.855469 327.007812 94.09375 335.410156 108.800781 342.246094 C 109.117188 342.394531 109.253906 342.769531 109.105469 343.085938 C 109 343.320312 108.769531 343.453125 108.53125 343.453125 " fill-opacity="1" fill-rule="nonzero"/><path fill="#000000" d="M 140.976562 355.222656 C 140.921875 355.222656 140.867188 355.214844 140.8125 355.199219 C 135.054688 353.652344 129.316406 351.835938 123.761719 349.808594 C 123.433594 349.6875 123.261719 349.324219 123.382812 348.992188 C 123.503906 348.664062 123.867188 348.496094 124.195312 348.617188 C 129.71875 350.632812 135.421875 352.4375 141.140625 353.976562 C 141.480469 354.066406 141.679688 354.414062 141.589844 354.753906 C 141.511719 355.035156 141.257812 355.222656 140.976562 355.222656 " fill-opacity="1" fill-rule="nonzero"/><path fill="#000000" d="M 320.265625 59.269531 C 318.628906 59.269531 317.292969 60.601562 317.292969 62.242188 C 317.292969 63.882812 318.628906 65.21875 320.265625 65.21875 C 321.90625 65.21875 323.242188 63.882812 323.242188 62.242188 C 323.242188 60.601562 321.90625 59.269531 320.265625 59.269531 Z M 320.265625 66.484375 C 317.925781 66.484375 316.023438 64.582031 316.023438 62.242188 C 316.023438 59.902344 317.925781 58 320.265625 58 C 322.605469 58 324.507812 59.902344 324.507812 62.242188 C 324.507812 64.582031 322.605469 66.484375 320.265625 66.484375 " fill-opacity="1" fill-rule="nonzero"/><path fill="#000000" d="M 247.238281 330.203125 C 245.9375 330.203125 244.738281 331.0625 244.371094 332.378906 C 244.160156 333.140625 244.253906 333.945312 244.644531 334.640625 C 245.03125 335.328125 245.667969 335.828125 246.433594 336.042969 C 248.011719 336.484375 249.65625 335.5625 250.101562 333.980469 C 250.542969 332.398438 249.617188 330.757812 248.039062 330.3125 C 247.769531 330.238281 247.5 330.203125 247.238281 330.203125 Z M 247.234375 337.421875 C 246.855469 337.421875 246.472656 337.371094 246.09375 337.265625 C 245 336.957031 244.09375 336.246094 243.539062 335.257812 C 242.984375 334.273438 242.84375 333.128906 243.152344 332.035156 C 243.78125 329.785156 246.128906 328.464844 248.378906 329.09375 C 250.628906 329.726562 251.949219 332.070312 251.320312 334.320312 C 250.796875 336.195312 249.085938 337.421875 247.234375 337.421875 " fill-opacity="1" fill-rule="nonzero"/><path fill="#000000" d="M 302.507812 67.007812 C 301.519531 67.007812 300.714844 67.808594 300.714844 68.796875 C 300.714844 69.785156 301.519531 70.589844 302.507812 70.589844 C 303.496094 70.589844 304.296875 69.785156 304.296875 68.796875 C 304.296875 67.808594 303.496094 67.007812 302.507812 67.007812 Z M 302.507812 71.855469 C 300.820312 71.855469 299.449219 70.480469 299.449219 68.796875 C 299.449219 67.113281 300.820312 65.738281 302.507812 65.738281 C 304.195312 65.738281 305.5625 67.113281 305.5625 68.796875 C 305.5625 70.480469 304.195312 71.855469 302.507812 71.855469 " fill-opacity="1" fill-rule="nonzero"/><path fill="#000000" d="M 34.0625 79.472656 C 33.328125 79.472656 32.609375 79.265625 31.976562 78.867188 C 30.144531 77.710938 29.589844 75.285156 30.746094 73.453125 C 30.929688 73.15625 31.324219 73.070312 31.617188 73.253906 C 31.914062 73.441406 32.003906 73.832031 31.816406 74.128906 C 31.035156 75.367188 31.410156 77.011719 32.652344 77.796875 C 33.25 78.175781 33.964844 78.292969 34.65625 78.136719 C 35.347656 77.980469 35.9375 77.5625 36.316406 76.964844 C 37.097656 75.71875 36.726562 74.078125 35.484375 73.296875 C 35.1875 73.105469 35.097656 72.71875 35.285156 72.421875 C 35.472656 72.125 35.863281 72.035156 36.160156 72.222656 C 37.992188 73.378906 38.542969 75.804688 37.390625 77.636719 C 36.832031 78.523438 35.960938 79.140625 34.9375 79.371094 C 34.644531 79.441406 34.351562 79.472656 34.0625 79.472656 " fill-opacity="1" fill-rule="nonzero"/><path fill="#000000" d="M 330.457031 43.183594 C 330.292969 43.183594 330.128906 43.121094 330.003906 42.996094 L 328.132812 41.113281 C 327.886719 40.867188 327.886719 40.464844 328.136719 40.214844 C 328.382812 39.96875 328.785156 39.96875 329.03125 40.222656 L 330.90625 42.105469 C 331.152344 42.351562 331.152344 42.753906 330.902344 43 C 330.777344 43.125 330.617188 43.183594 330.457031 43.183594 " fill-opacity="1" fill-rule="nonzero"/><path fill="#000000" d="M 337.007812 49.777344 C 336.84375 49.777344 336.683594 49.714844 336.558594 49.589844 L 334.683594 47.707031 C 334.4375 47.457031 334.441406 47.058594 334.691406 46.8125 C 334.9375 46.5625 335.339844 46.5625 335.585938 46.8125 L 337.457031 48.695312 C 337.703125 48.945312 337.703125 49.347656 337.453125 49.59375 C 337.332031 49.714844 337.167969 49.777344 337.007812 49.777344 " fill-opacity="1" fill-rule="nonzero"/><path fill="#000000" d="M 328.582031 49.777344 C 328.421875 49.777344 328.257812 49.714844 328.136719 49.589844 C 327.886719 49.347656 327.886719 48.945312 328.132812 48.695312 L 330.003906 46.8125 C 330.253906 46.566406 330.652344 46.5625 330.902344 46.8125 C 331.152344 47.054688 331.152344 47.457031 330.90625 47.707031 L 329.03125 49.589844 C 328.90625 49.714844 328.746094 49.777344 328.582031 49.777344 " fill-opacity="1" fill-rule="nonzero"/><path fill="#000000" d="M 335.136719 43.183594 C 334.976562 43.183594 334.8125 43.121094 334.691406 43 C 334.441406 42.753906 334.4375 42.351562 334.683594 42.105469 L 336.558594 40.21875 C 336.804688 39.972656 337.207031 39.972656 337.453125 40.21875 C 337.703125 40.464844 337.703125 40.867188 337.457031 41.113281 L 335.585938 43 C 335.460938 43.121094 335.296875 43.183594 335.136719 43.183594 " fill-opacity="1" fill-rule="nonzero"/><path fill="#000000" d="M 34.34375 58.246094 C 34.054688 58.246094 33.792969 58.046875 33.726562 57.75 C 33.652344 57.410156 33.867188 57.070312 34.207031 56.992188 L 36.800781 56.414062 C 37.140625 56.335938 37.480469 56.550781 37.558594 56.894531 C 37.632812 57.234375 37.417969 57.574219 37.078125 57.648438 L 34.484375 58.230469 C 34.4375 58.242188 34.390625 58.246094 34.34375 58.246094 " fill-opacity="1" fill-rule="nonzero"/><path fill="#000000" d="M 43.417969 56.214844 C 43.128906 56.214844 42.867188 56.011719 42.800781 55.71875 C 42.722656 55.378906 42.9375 55.035156 43.28125 54.960938 L 45.871094 54.382812 C 46.214844 54.304688 46.550781 54.519531 46.628906 54.859375 C 46.703125 55.203125 46.488281 55.539062 46.148438 55.617188 L 43.554688 56.199219 C 43.511719 56.207031 43.464844 56.214844 43.417969 56.214844 " fill-opacity="1" fill-rule="nonzero"/><path fill="#000000" d="M 41.519531 62.761719 C 41.230469 62.761719 40.96875 62.566406 40.902344 62.273438 L 40.304688 59.683594 C 40.226562 59.34375 40.441406 59.003906 40.78125 58.925781 C 41.121094 58.84375 41.460938 59.058594 41.542969 59.398438 L 42.136719 61.988281 C 42.214844 62.328125 42.003906 62.667969 41.660156 62.746094 C 41.613281 62.757812 41.566406 62.761719 41.519531 62.761719 " fill-opacity="1" fill-rule="nonzero"/><path fill="#000000" d="M 39.433594 53.707031 C 39.144531 53.707031 38.882812 53.503906 38.816406 53.210938 L 38.21875 50.625 C 38.140625 50.285156 38.351562 49.941406 38.695312 49.867188 C 39.035156 49.785156 39.375 50 39.453125 50.339844 L 40.050781 52.929688 C 40.128906 53.269531 39.917969 53.609375 39.574219 53.6875 C 39.527344 53.699219 39.480469 53.707031 39.433594 53.707031 " fill-opacity="1" fill-rule="nonzero"/><path fill="#000000" d="M 224.601562 346.757812 C 224.546875 346.757812 224.488281 346.75 224.429688 346.734375 L 221.875 346.011719 C 221.535156 345.914062 221.339844 345.5625 221.4375 345.226562 C 221.53125 344.890625 221.882812 344.695312 222.21875 344.792969 L 224.773438 345.511719 C 225.113281 345.609375 225.308594 345.957031 225.210938 346.296875 C 225.132812 346.574219 224.878906 346.757812 224.601562 346.757812 " fill-opacity="1" fill-rule="nonzero"/><path fill="#000000" d="M 233.546875 349.289062 C 233.488281 349.289062 233.429688 349.28125 233.371094 349.261719 L 230.816406 348.539062 C 230.480469 348.445312 230.285156 348.097656 230.378906 347.757812 C 230.476562 347.421875 230.824219 347.226562 231.164062 347.320312 L 233.71875 348.042969 C 234.054688 348.140625 234.25 348.488281 234.15625 348.828125 C 234.074219 349.105469 233.824219 349.289062 233.546875 349.289062 " fill-opacity="1" fill-rule="nonzero"/><path fill="#000000" d="M 226.203125 353.421875 C 226.144531 353.421875 226.089844 353.414062 226.03125 353.398438 C 225.695312 353.304688 225.496094 352.957031 225.589844 352.617188 L 226.300781 350.058594 C 226.390625 349.71875 226.742188 349.523438 227.078125 349.617188 C 227.414062 349.710938 227.613281 350.058594 227.519531 350.394531 L 226.8125 352.957031 C 226.734375 353.238281 226.480469 353.421875 226.203125 353.421875 " fill-opacity="1" fill-rule="nonzero"/><path fill="#000000" d="M 228.683594 344.460938 C 228.625 344.460938 228.570312 344.453125 228.511719 344.4375 C 228.175781 344.34375 227.976562 343.996094 228.070312 343.65625 L 228.78125 341.097656 C 228.875 340.761719 229.222656 340.5625 229.558594 340.65625 C 229.898438 340.75 230.09375 341.097656 230 341.4375 L 229.292969 343.996094 C 229.214844 344.277344 228.960938 344.460938 228.683594 344.460938 " fill-opacity="1" fill-rule="nonzero"/><path fill="#000000" d="M 202.675781 83.957031 C 202.675781 83.957031 199.429688 82.757812 198.011719 78.703125 C 196.589844 74.644531 195.898438 66.3125 199.183594 67.089844 C 202.472656 67.867188 209.496094 85.234375 209.496094 85.234375 L 202.675781 83.957031 " fill-opacity="1" fill-rule="nonzero"/><path fill="#000000" d="M 241.761719 40.539062 C 241.488281 38.984375 240.402344 33.933594 234.707031 28.410156 C 232.742188 26.503906 221.917969 16.011719 210.890625 18.472656 C 199.75 20.957031 200.515625 33.949219 190.148438 36.292969 C 179.566406 38.6875 174.0625 25.566406 162.734375 27.636719 C 151.964844 29.605469 144.292969 43.660156 146.753906 47.238281 C 148.453125 49.710938 153.78125 45.414062 162.949219 47.453125 C 173.054688 49.695312 174.222656 56.617188 181.589844 56.433594 C 189.042969 56.242188 190.296875 49.097656 197.464844 49.15625 C 204.648438 49.210938 205.449219 56.394531 214.300781 58.957031 C 224.050781 61.777344 236.796875 57.027344 240.582031 48.742188 C 242.085938 45.449219 242.03125 42.097656 241.761719 40.539062 " fill-opacity="1" fill-rule="nonzero"/><path fill="#000000" d="M 252.253906 51.699219 C 254.722656 51.6875 257.566406 51.371094 258.171875 49.851562 C 259.671875 46.101562 248.132812 33.375 239.652344 36.96875 C 234.125 39.304688 230.679688 48.234375 233.855469 52.59375 C 236.65625 56.441406 245.007812 57.292969 252.253906 51.699219 " fill-opacity="1" fill-rule="nonzero"/><path fill="#ffffff" d="M 245.410156 45.960938 C 243.015625 46.910156 242.527344 51.945312 241.890625 51.820312 C 241.394531 51.722656 242.003906 48.761719 240.71875 48.089844 C 240.113281 47.777344 239.328125 48.089844 238.910156 48.410156 C 237.910156 49.175781 237.679688 50.984375 238.585938 52.777344 C 235.851562 54.839844 233.074219 56.898438 230.257812 58.964844 C 226.914062 61.417969 223.589844 63.816406 220.289062 66.164062 L 233.195312 70.410156 L 240.769531 60.648438 C 241.542969 61.625 242.496094 62.527344 243.644531 63.109375 C 243.644531 63.109375 246.480469 62.910156 249.136719 59.175781 L 249.753906 59.425781 C 250.191406 59.609375 250.671875 59.292969 250.6875 58.820312 L 250.734375 57.234375 C 250.753906 56.636719 250.882812 56.050781 251.105469 55.496094 C 251.730469 53.96875 252.285156 52.136719 252.714844 49.9375 C 248.621094 45.777344 246.542969 45.511719 245.410156 45.960938 " fill-opacity="1" fill-rule="nonzero"/><path fill="#000000" d="M 221.675781 65.953125 L 232.972656 69.667969 L 240.269531 60.257812 C 240.390625 60.105469 240.574219 60.015625 240.769531 60.011719 C 240.949219 60.015625 241.148438 60.101562 241.269531 60.253906 C 242.046875 61.230469 242.878906 61.972656 243.761719 62.453125 C 244.359375 62.34375 246.515625 61.765625 248.621094 58.804688 C 248.789062 58.566406 249.101562 58.476562 249.375 58.585938 L 249.992188 58.839844 L 250.054688 58.800781 L 250.101562 57.214844 C 250.121094 56.542969 250.265625 55.882812 250.519531 55.253906 C 251.136719 53.746094 251.640625 52.027344 252.027344 50.140625 C 249.15625 47.269531 246.949219 46.03125 245.640625 46.550781 C 244.394531 47.042969 243.691406 49.152344 243.230469 50.550781 C 242.820312 51.78125 242.546875 52.589844 241.769531 52.441406 C 241.097656 52.308594 241.058594 51.59375 241.011719 50.765625 C 240.96875 50.066406 240.902344 48.898438 240.425781 48.652344 C 240.136719 48.5 239.609375 48.667969 239.296875 48.914062 C 238.609375 49.433594 238.332031 50.867188 239.15625 52.492188 C 239.292969 52.765625 239.21875 53.097656 238.96875 53.28125 C 236.214844 55.355469 233.410156 57.4375 230.632812 59.472656 C 227.671875 61.644531 224.664062 63.820312 221.675781 65.953125 Z M 233.199219 71.042969 C 233.132812 71.042969 233.066406 71.03125 233 71.011719 L 220.09375 66.765625 C 219.867188 66.691406 219.699219 66.496094 219.664062 66.261719 C 219.628906 66.023438 219.730469 65.789062 219.921875 65.648438 C 223.238281 63.289062 226.589844 60.867188 229.882812 58.453125 C 232.519531 56.519531 235.183594 54.542969 237.800781 52.574219 C 237.054688 50.722656 237.332031 48.820312 238.527344 47.90625 C 239.171875 47.410156 240.191406 47.101562 241.011719 47.527344 C 241.800781 47.9375 242.074219 48.808594 242.1875 49.667969 C 242.726562 48.082031 243.546875 46.015625 245.171875 45.371094 C 247.082031 44.617188 249.695312 45.960938 253.167969 49.488281 C 253.316406 49.640625 253.378906 49.851562 253.339844 50.058594 C 252.925781 52.152344 252.371094 54.0625 251.695312 55.730469 C 251.496094 56.21875 251.386719 56.734375 251.371094 57.253906 L 251.320312 58.835938 C 251.308594 59.269531 251.085938 59.664062 250.726562 59.898438 C 250.367188 60.132812 249.910156 60.175781 249.511719 60.011719 L 249.351562 59.945312 C 246.644531 63.492188 243.8125 63.730469 243.6875 63.742188 C 243.574219 63.75 243.460938 63.722656 243.355469 63.671875 C 242.453125 63.210938 241.589844 62.535156 240.796875 61.652344 L 233.699219 70.796875 C 233.574219 70.957031 233.390625 71.042969 233.199219 71.042969 " fill-opacity="1" fill-rule="nonzero"/><path fill="#ffffff" d="M 239.421875 55.253906 C 239.421875 55.253906 238.800781 57.96875 240.769531 60.648438 L 239.421875 55.253906 " fill-opacity="1" fill-rule="nonzero"/><path fill="#000000" d="M 240.769531 61.28125 C 240.578125 61.28125 240.386719 61.191406 240.261719 61.023438 C 238.140625 58.144531 238.777344 55.234375 238.808594 55.109375 C 238.886719 54.769531 239.226562 54.554688 239.566406 54.632812 C 239.90625 54.710938 240.117188 55.050781 240.042969 55.390625 C 240.019531 55.492188 239.519531 57.875 241.28125 60.273438 C 241.488281 60.554688 241.429688 60.949219 241.144531 61.160156 C 241.035156 61.242188 240.902344 61.28125 240.769531 61.28125 " fill-opacity="1" fill-rule="nonzero"/><path fill="#ffffff" d="M 110.894531 86.125 L 74.230469 96.082031 L 71.730469 100.992188 L 110.089844 100.992188 L 110.894531 86.125 " fill-opacity="1" fill-rule="nonzero"/><path fill="#000000" d="M 72.761719 100.355469 L 109.488281 100.355469 L 110.214844 86.96875 L 74.667969 96.617188 Z M 110.089844 101.621094 L 71.730469 101.621094 C 71.511719 101.621094 71.304688 101.507812 71.191406 101.320312 C 71.074219 101.132812 71.066406 100.898438 71.164062 100.703125 L 73.664062 95.789062 C 73.746094 95.632812 73.890625 95.515625 74.066406 95.46875 L 110.730469 85.515625 C 110.925781 85.460938 111.132812 85.503906 111.292969 85.632812 C 111.449219 85.761719 111.539062 85.957031 111.527344 86.160156 L 110.722656 101.023438 C 110.703125 101.359375 110.425781 101.621094 110.089844 101.621094 " fill-opacity="1" fill-rule="nonzero"/><path fill="#5479f7" d="M 82.78125 91.324219 C 82.558594 89.492188 81.886719 86.777344 79.960938 84.175781 C 79.054688 82.949219 77.347656 82.640625 76.050781 83.4375 L 53.667969 97.167969 C 52.007812 98.367188 52.859375 100.988281 54.90625 100.988281 L 81.417969 100.988281 L 78.757812 96.265625 L 81.269531 94.589844 C 82.347656 93.871094 82.9375 92.613281 82.78125 91.324219 " fill-opacity="1" fill-rule="nonzero"/><path fill="#000000" d="M 54.019531 97.691406 C 53.394531 98.15625 53.339844 98.84375 53.5 99.332031 C 53.660156 99.824219 54.113281 100.355469 54.90625 100.355469 L 80.335938 100.355469 L 78.207031 96.574219 C 78.042969 96.285156 78.128906 95.921875 78.40625 95.734375 L 80.917969 94.0625 C 81.804688 93.46875 82.277344 92.449219 82.152344 91.402344 C 81.9375 89.652344 81.296875 87.042969 79.453125 84.550781 C 78.75 83.601562 77.402344 83.351562 76.382812 83.976562 Z M 81.417969 101.621094 L 54.90625 101.621094 C 53.695312 101.621094 52.667969 100.875 52.292969 99.722656 C 51.921875 98.566406 52.3125 97.363281 53.296875 96.652344 C 53.308594 96.640625 53.324219 96.632812 53.335938 96.625 L 75.71875 82.898438 C 77.292969 81.929688 79.382812 82.328125 80.472656 83.796875 C 82.480469 86.511719 83.179688 89.347656 83.410156 91.25 C 83.59375 92.773438 82.910156 94.253906 81.621094 95.113281 L 79.597656 96.464844 L 81.972656 100.675781 C 82.082031 100.871094 82.078125 101.113281 81.964844 101.304688 C 81.851562 101.5 81.644531 101.621094 81.417969 101.621094 " fill-opacity="1" fill-rule="nonzero"/><path fill="#000000" d="M 56.164062 100.085938 C 55.941406 100.085938 55.730469 99.972656 55.613281 99.769531 C 55.4375 99.464844 55.542969 99.078125 55.847656 98.90625 L 78.796875 85.753906 C 79.101562 85.578125 79.488281 85.683594 79.664062 85.988281 C 79.835938 86.289062 79.734375 86.675781 79.429688 86.851562 L 56.476562 100.003906 C 56.378906 100.0625 56.269531 100.085938 56.164062 100.085938 " fill-opacity="1" fill-rule="nonzero"/><path fill="#ffffff" d="M 120.582031 61.140625 L 86.53125 44.292969 L 81.40625 46.308594 L 110.128906 71.738281 L 120.582031 61.140625 " fill-opacity="1" fill-rule="nonzero"/><path fill="#000000" d="M 82.597656 46.519531 L 110.097656 70.863281 L 119.515625 61.320312 L 86.503906 44.984375 Z M 110.125 72.371094 C 109.976562 72.371094 109.828125 72.316406 109.707031 72.210938 L 80.984375 46.785156 C 80.820312 46.640625 80.742188 46.417969 80.78125 46.199219 C 80.820312 45.984375 80.96875 45.800781 81.171875 45.722656 L 86.300781 43.703125 C 86.464844 43.636719 86.652344 43.644531 86.8125 43.722656 L 120.863281 60.574219 C 121.042969 60.664062 121.171875 60.835938 121.207031 61.035156 C 121.238281 61.238281 121.175781 61.441406 121.03125 61.585938 L 110.578125 72.179688 C 110.453125 72.304688 110.289062 72.371094 110.125 72.371094 " fill-opacity="1" fill-rule="nonzero"/><path fill="#5479f7" d="M 89.914062 43.535156 C 90.617188 41.832031 91.367188 39.132812 90.964844 35.921875 C 90.773438 34.410156 89.4375 33.304688 87.917969 33.363281 L 61.679688 34.347656 C 59.644531 34.578125 59.097656 37.28125 60.882812 38.285156 L 83.988281 51.289062 L 83.984375 45.867188 L 86.996094 45.640625 C 88.285156 45.542969 89.417969 44.734375 89.914062 43.535156 " fill-opacity="1" fill-rule="nonzero"/><path fill="#000000" d="M 61.726562 34.980469 C 60.953125 35.078125 60.570312 35.648438 60.46875 36.152344 C 60.367188 36.664062 60.503906 37.34375 61.191406 37.730469 L 83.351562 50.207031 L 83.351562 45.867188 C 83.351562 45.535156 83.605469 45.257812 83.9375 45.234375 L 86.945312 45.007812 C 88.011719 44.925781 88.921875 44.273438 89.328125 43.292969 C 90 41.664062 90.722656 39.078125 90.335938 36 C 90.1875 34.832031 89.132812 33.945312 87.941406 33.996094 Z M 83.984375 51.921875 C 83.878906 51.921875 83.773438 51.894531 83.675781 51.84375 L 60.570312 38.835938 C 59.515625 38.242188 58.988281 37.089844 59.226562 35.902344 C 59.46875 34.710938 60.402344 33.855469 61.605469 33.71875 C 61.621094 33.714844 61.636719 33.714844 61.652344 33.714844 L 87.894531 32.730469 C 89.734375 32.660156 91.363281 34.027344 91.59375 35.84375 C 92.011719 39.195312 91.230469 42.007812 90.496094 43.777344 C 89.910156 45.199219 88.585938 46.15625 87.042969 46.269531 L 84.617188 46.453125 L 84.621094 51.289062 C 84.621094 51.515625 84.5 51.722656 84.304688 51.835938 C 84.207031 51.894531 84.097656 51.921875 83.984375 51.921875 " fill-opacity="1" fill-rule="nonzero"/><path fill="#000000" d="M 62.730469 38.199219 C 62.382812 38.199219 62.097656 37.917969 62.097656 37.570312 C 62.09375 37.21875 62.375 36.933594 62.722656 36.929688 L 89.175781 36.726562 C 89.179688 36.726562 89.179688 36.726562 89.183594 36.726562 C 89.53125 36.726562 89.8125 37.007812 89.816406 37.355469 C 89.816406 37.707031 89.535156 37.992188 89.1875 37.996094 L 62.734375 38.199219 C 62.734375 38.199219 62.730469 38.199219 62.730469 38.199219 " fill-opacity="1" fill-rule="nonzero"/><path fill="#000000" d="M 153.75 92.839844 C 153.75 92.839844 139.144531 71.785156 131.625 63.414062 C 124.109375 55.039062 118.765625 46.070312 118.765625 46.070312 C 118.765625 46.070312 103.273438 52.742188 95.078125 60.644531 L 130.875 97.773438 L 153.75 92.839844 " fill-opacity="1" fill-rule="nonzero"/><path fill="#000000" d="M 222.058594 101.472656 L 91.605469 101.472656 L 103.367188 82.640625 C 103.367188 82.640625 122.035156 78.074219 131.730469 81.898438 C 141.429688 85.726562 147.597656 87.714844 154.832031 86.785156 C 162.0625 85.855469 178.515625 76.570312 188.960938 77.578125 C 199.402344 78.589844 216.5 85.550781 216.5 85.550781 L 222.058594 101.472656 " fill-opacity="1" fill-rule="nonzero"/><path fill="#ffffff" d="M 150.125 86.921875 C 150.113281 86.921875 150.097656 86.921875 150.085938 86.921875 C 144.953125 86.582031 139.800781 84.871094 132.089844 81.828125 C 128.648438 80.46875 123.644531 80.039062 117.21875 80.546875 C 116.867188 80.574219 116.566406 80.316406 116.539062 79.96875 C 116.511719 79.617188 116.769531 79.3125 117.121094 79.285156 C 123.742188 78.761719 128.933594 79.21875 132.554688 80.648438 C 140.148438 83.644531 145.203125 85.328125 150.167969 85.660156 C 150.515625 85.679688 150.78125 85.984375 150.757812 86.332031 C 150.734375 86.664062 150.457031 86.921875 150.125 86.921875 " fill-opacity="1" fill-rule="nonzero"/><path fill="#ffffff" d="M 206.9375 82.113281 C 206.875 82.113281 206.808594 82.101562 206.746094 82.082031 L 200.128906 79.988281 C 199.796875 79.882812 199.609375 79.527344 199.714844 79.191406 C 199.820312 78.859375 200.175781 78.675781 200.511719 78.78125 L 207.128906 80.875 C 207.460938 80.980469 207.648438 81.335938 207.539062 81.671875 C 207.457031 81.9375 207.207031 82.113281 206.9375 82.113281 " fill-opacity="1" fill-rule="nonzero"/><path fill="#ffffff" d="M 246.070312 91.828125 L 260.375 63.628906 C 261.035156 62.324219 262.226562 61.371094 263.644531 61.011719 L 277.164062 57.582031 C 276.84375 58.820312 275.925781 59.8125 274.714844 60.222656 L 271.84375 61.199219 C 271.84375 61.199219 271.679688 67.199219 264.101562 67.652344 L 255.382812 91.828125 L 246.070312 91.828125 " fill-opacity="1" fill-rule="nonzero"/><path fill="#000000" d="M 247.105469 91.195312 L 254.941406 91.195312 L 263.507812 67.433594 C 263.59375 67.195312 263.8125 67.03125 264.066406 67.019531 C 270.945312 66.609375 271.207031 61.398438 271.210938 61.179688 C 271.222656 60.914062 271.394531 60.683594 271.644531 60.597656 L 274.511719 59.625 C 275.125 59.414062 275.648438 59.027344 276.027344 58.523438 L 263.800781 61.625 C 262.5625 61.9375 261.519531 62.773438 260.941406 63.914062 Z M 255.386719 92.460938 L 246.070312 92.460938 C 245.851562 92.460938 245.648438 92.347656 245.53125 92.160156 C 245.417969 91.972656 245.410156 91.738281 245.507812 91.542969 L 259.8125 63.339844 C 260.554688 61.875 261.894531 60.800781 263.488281 60.394531 L 277.007812 56.964844 C 277.226562 56.910156 277.457031 56.976562 277.613281 57.136719 C 277.773438 57.292969 277.835938 57.523438 277.777344 57.738281 C 277.40625 59.191406 276.335938 60.34375 274.917969 60.824219 L 272.429688 61.667969 C 272.210938 63.136719 271 67.683594 264.558594 68.25 L 255.980469 92.042969 C 255.890625 92.296875 255.652344 92.460938 255.386719 92.460938 " fill-opacity="1" fill-rule="nonzero"/><path fill="#000000" d="M 264.300781 61.886719 C 264.316406 61.886719 264.328125 61.886719 264.339844 61.890625 C 264.328125 61.886719 264.316406 61.886719 264.300781 61.886719 Z M 264.253906 66.507812 C 263.941406 66.507812 263.667969 66.277344 263.625 65.957031 C 263.582031 65.609375 263.824219 65.292969 264.171875 65.246094 C 264.90625 65.152344 265.433594 64.898438 265.691406 64.523438 C 266.226562 63.738281 266.878906 63.203125 267.632812 62.929688 C 268.277344 62.691406 268.632812 62.390625 268.828125 62.109375 C 264.648438 63.210938 264.292969 63.160156 264.171875 63.148438 C 263.824219 63.101562 263.582031 62.78125 263.625 62.433594 C 263.667969 62.105469 263.964844 61.875 264.289062 61.886719 C 264.703125 61.855469 267.257812 61.222656 269.519531 60.617188 C 269.6875 60.570312 269.875 60.601562 270.023438 60.691406 C 270.171875 60.789062 270.273438 60.941406 270.308594 61.117188 C 270.433594 61.828125 270.128906 63.367188 268.0625 64.117188 C 267.570312 64.300781 267.121094 64.675781 266.738281 65.234375 C 266.265625 65.929688 265.457031 66.355469 264.335938 66.503906 C 264.308594 66.507812 264.28125 66.507812 264.253906 66.507812 " fill-opacity="1" fill-rule="nonzero"/><path fill="#5479f7" d="M 213.15625 101.898438 L 199.1875 67.089844 C 199.1875 67.089844 204.285156 69.398438 212.105469 66.585938 C 219.921875 63.773438 227.550781 60.363281 232.023438 64.085938 L 242.265625 74.085938 L 239.359375 75.199219 L 235.945312 87.867188 L 227.96875 101.898438 L 213.15625 101.898438 " fill-opacity="1" fill-rule="nonzero"/><path fill="#5479f7" d="M 278.320312 67.519531 L 289.308594 55.824219 L 295.671875 55.253906 C 295.671875 55.253906 284.640625 68.3125 284.339844 69.199219 C 284.039062 70.089844 278.320312 67.519531 278.320312 67.519531 " fill-opacity="1" fill-rule="nonzero"/><path fill="#000000" d="M 279.398438 67.296875 C 281.242188 68.078125 283.210938 68.757812 283.855469 68.757812 C 283.859375 68.757812 283.863281 68.757812 283.867188 68.757812 C 284.832031 67.199219 290.75 60.113281 294.199219 56.019531 L 289.605469 56.429688 Z M 283.761719 68.949219 C 283.753906 68.964844 283.746094 68.976562 283.738281 68.992188 C 283.746094 68.980469 283.75 68.964844 283.761719 68.949219 Z M 283.921875 70.003906 C 282.535156 70.003906 279.746094 68.851562 278.0625 68.09375 C 277.875 68.011719 277.742188 67.84375 277.699219 67.644531 C 277.664062 67.441406 277.71875 67.234375 277.859375 67.085938 L 288.847656 55.386719 C 288.953125 55.273438 289.097656 55.203125 289.253906 55.1875 L 295.617188 54.617188 C 295.875 54.59375 296.117188 54.730469 296.238281 54.960938 C 296.351562 55.1875 296.324219 55.460938 296.15625 55.660156 C 292.023438 60.550781 285.320312 68.617188 284.929688 69.433594 C 284.863281 69.632812 284.6875 69.816406 284.457031 69.917969 C 284.316406 69.976562 284.136719 70.003906 283.921875 70.003906 " fill-opacity="1" fill-rule="nonzero"/><path fill="#ffffff" d="M 241.234375 74.230469 C 241.234375 74.230469 231.859375 76.253906 230.394531 84.652344 L 243.8125 99.933594 C 245.964844 102.382812 249.714844 102.570312 252.09375 100.34375 L 279.601562 74.707031 L 286.074219 69.648438 C 288.164062 68.019531 289.621094 65.707031 290.191406 63.113281 L 290.644531 61.058594 C 290.644531 61.058594 284.410156 68.09375 280.308594 67.375 L 282.277344 62.679688 C 282.277344 62.679688 280.398438 62.210938 279.113281 64.597656 C 278.609375 65.527344 277.269531 68.296875 276.449219 69.992188 C 276.015625 70.886719 275.347656 71.644531 274.507812 72.183594 L 251.949219 86.691406 L 241.234375 74.230469 " fill-opacity="1" fill-rule="nonzero"/><path fill="#000000" d="M 231.074219 84.464844 L 244.289062 99.515625 C 245.214844 100.570312 246.496094 101.1875 247.898438 101.257812 C 249.300781 101.328125 250.636719 100.839844 251.664062 99.882812 L 279.167969 74.242188 C 279.183594 74.230469 279.199219 74.214844 279.210938 74.207031 L 285.683594 69.152344 C 287.625 67.636719 288.992188 65.492188 289.546875 63.097656 C 287.355469 65.203125 283.308594 68.542969 280.195312 68 C 280.007812 67.96875 279.84375 67.851562 279.75 67.683594 C 279.65625 67.511719 279.648438 67.3125 279.722656 67.132812 L 281.300781 63.371094 C 280.816406 63.527344 280.195312 63.925781 279.671875 64.898438 C 279.167969 65.828125 277.796875 68.660156 277.023438 70.265625 C 276.539062 71.265625 275.785156 72.117188 274.851562 72.71875 L 252.292969 87.222656 C 252.023438 87.394531 251.675781 87.34375 251.46875 87.101562 L 241.011719 74.941406 C 239.351562 75.40625 232.433594 77.734375 231.074219 84.464844 Z M 248.164062 102.535156 C 248.054688 102.535156 247.945312 102.527344 247.832031 102.523438 C 246.085938 102.4375 244.488281 101.664062 243.335938 100.351562 L 229.917969 85.070312 C 229.789062 84.925781 229.734375 84.730469 229.769531 84.542969 C 231.289062 75.828125 241.003906 73.628906 241.101562 73.609375 C 241.328125 73.558594 241.5625 73.640625 241.714844 73.816406 L 252.070312 85.859375 L 274.167969 71.652344 C 274.90625 71.175781 275.496094 70.507812 275.878906 69.714844 C 276.65625 68.101562 278.042969 65.25 278.554688 64.296875 C 280.058594 61.511719 282.332031 62.042969 282.429688 62.066406 C 282.609375 62.113281 282.761719 62.230469 282.84375 62.398438 C 282.925781 62.5625 282.929688 62.757812 282.859375 62.925781 L 281.242188 66.78125 C 284.324219 66.5 288.644531 62.363281 290.171875 60.640625 C 290.359375 60.425781 290.675781 60.363281 290.933594 60.496094 C 291.191406 60.625 291.328125 60.914062 291.265625 61.195312 L 290.808594 63.253906 C 290.210938 65.980469 288.667969 68.429688 286.464844 70.148438 L 280.011719 75.1875 L 252.527344 100.808594 C 251.328125 101.925781 249.789062 102.535156 248.164062 102.535156 " fill-opacity="1" fill-rule="nonzero"/></svg>