<svg xmlns="http://www.w3.org/2000/svg" xmlns:xlink="http://www.w3.org/1999/xlink" width="500" zoomAndPan="magnify" viewBox="0 0 375 374.999991" height="500" preserveAspectRatio="xMidYMid meet" version="1.0"><defs><clipPath id="2486f9c69e"><path d="M 0 23.671875 L 375 23.671875 L 375 312 L 0 312 Z M 0 23.671875 " clip-rule="nonzero"/></clipPath><clipPath id="7d7ce57c1e"><path d="M 119.527344 135 L 335.933594 135 L 335.933594 351.421875 L 119.527344 351.421875 Z M 119.527344 135 " clip-rule="nonzero"/></clipPath></defs><path fill="#e5f4ff" d="M 373.042969 291.265625 C 373.042969 300.78125 365.332031 308.496094 355.820312 308.496094 L 22.855469 308.496094 C 13.34375 308.496094 5.632812 300.78125 5.632812 291.265625 L 5.632812 45.675781 C 5.632812 36.160156 13.34375 28.449219 22.855469 28.449219 L 355.820312 28.449219 C 365.332031 28.449219 373.042969 36.160156 373.042969 45.675781 L 373.042969 291.265625 " fill-opacity="1" fill-rule="nonzero"/><path fill="#65b6f7" d="M 113.382812 61.25 C 108.457031 61.25 104.464844 57.257812 104.464844 52.328125 C 104.464844 47.402344 108.457031 43.410156 113.382812 43.410156 C 118.308594 43.410156 122.300781 47.402344 122.300781 52.328125 C 122.300781 57.257812 118.308594 61.25 113.382812 61.25 Z M 74.804688 61.25 C 69.878906 61.25 65.886719 57.257812 65.886719 52.328125 C 65.886719 47.402344 69.878906 43.410156 74.804688 43.410156 C 79.730469 43.410156 83.722656 47.402344 83.722656 52.328125 C 83.722656 57.257812 79.730469 61.25 74.804688 61.25 Z M 35.859375 61.25 C 30.933594 61.25 26.941406 57.257812 26.941406 52.328125 C 26.941406 47.402344 30.933594 43.410156 35.859375 43.410156 C 40.785156 43.410156 44.777344 47.402344 44.777344 52.328125 C 44.777344 57.257812 40.785156 61.25 35.859375 61.25 Z M 353.984375 27.34375 L 21.015625 27.34375 C 11.507812 27.34375 3.796875 35.050781 3.796875 44.566406 L 3.796875 75.488281 L 371.203125 75.488281 L 371.203125 44.566406 C 371.203125 35.050781 363.496094 27.34375 353.984375 27.34375 " fill-opacity="1" fill-rule="nonzero"/><path fill="#bde0fc" d="M 35.859375 61.25 C 30.933594 61.25 26.941406 57.257812 26.941406 52.328125 C 26.941406 47.402344 30.933594 43.410156 35.859375 43.410156 C 40.785156 43.410156 44.777344 47.402344 44.777344 52.328125 C 44.777344 57.257812 40.785156 61.25 35.859375 61.25 " fill-opacity="1" fill-rule="nonzero"/><path fill="#bde0fc" d="M 74.804688 61.25 C 69.878906 61.25 65.886719 57.257812 65.886719 52.328125 C 65.886719 47.402344 69.878906 43.410156 74.804688 43.410156 C 79.730469 43.410156 83.722656 47.402344 83.722656 52.328125 C 83.722656 57.257812 79.730469 61.25 74.804688 61.25 " fill-opacity="1" fill-rule="nonzero"/><path fill="#bde0fc" d="M 113.382812 61.25 C 108.457031 61.25 104.464844 57.257812 104.464844 52.328125 C 104.464844 47.402344 108.457031 43.410156 113.382812 43.410156 C 118.308594 43.410156 122.300781 47.402344 122.300781 52.328125 C 122.300781 57.257812 118.308594 61.25 113.382812 61.25 " fill-opacity="1" fill-rule="nonzero"/><path fill="#2189e6" d="M 227.71875 318.539062 C 212.515625 318.539062 198.367188 314.027344 186.53125 306.277344 L 290.714844 201.984375 C 298.480469 213.832031 303.007812 228 303.007812 243.230469 C 303.007812 284.824219 269.300781 318.539062 227.71875 318.539062 Z M 152.429688 243.230469 C 152.429688 201.636719 186.136719 167.921875 227.71875 167.921875 C 242.914062 167.921875 257.054688 172.429688 268.886719 180.175781 L 164.710938 284.457031 C 156.949219 272.613281 152.429688 258.449219 152.429688 243.230469 Z M 227.71875 138.703125 C 170.007812 138.703125 123.21875 185.503906 123.21875 243.230469 C 123.21875 300.960938 170.007812 347.757812 227.71875 347.757812 C 285.429688 347.757812 332.214844 300.960938 332.214844 243.230469 C 332.214844 185.503906 285.429688 138.703125 227.71875 138.703125 " fill-opacity="1" fill-rule="nonzero"/><path fill="#0e47a0" d="M 134.226562 293.425781 L 47.515625 293.425781 C 46.300781 293.425781 45.3125 292.441406 45.3125 291.222656 C 45.3125 290.003906 46.300781 289.015625 47.515625 289.015625 L 134.226562 289.015625 C 135.441406 289.015625 136.429688 290.003906 136.429688 291.222656 C 136.429688 292.441406 135.441406 293.425781 134.226562 293.425781 " fill-opacity="1" fill-rule="nonzero"/><path fill="#0e47a0" d="M 349.332031 293.425781 L 324.542969 293.425781 C 323.328125 293.425781 322.339844 292.441406 322.339844 291.222656 C 322.339844 290.003906 323.328125 289.015625 324.542969 289.015625 L 349.332031 289.015625 C 351.828125 289.015625 353.9375 286.824219 353.9375 284.230469 L 353.9375 198.976562 C 353.9375 197.757812 354.925781 196.769531 356.140625 196.769531 C 357.359375 196.769531 358.34375 197.757812 358.34375 198.976562 L 358.34375 284.230469 C 358.34375 289.300781 354.300781 293.425781 349.332031 293.425781 " fill-opacity="1" fill-rule="nonzero"/><path fill="#0e47a0" d="M 355.773438 66.667969 C 354.558594 66.667969 353.570312 65.683594 353.570312 64.464844 L 353.570312 50.261719 C 353.570312 47.148438 351.203125 44.617188 348.289062 44.617188 L 303.234375 44.617188 C 302.015625 44.617188 301.03125 43.632812 301.03125 42.414062 C 301.03125 41.195312 302.015625 40.207031 303.234375 40.207031 L 348.289062 40.207031 C 353.632812 40.207031 357.976562 44.71875 357.976562 50.261719 L 357.976562 64.464844 C 357.976562 65.683594 356.992188 66.667969 355.773438 66.667969 " fill-opacity="1" fill-rule="nonzero"/><path fill="#0e47a0" d="M 292.578125 44.617188 L 282.292969 44.617188 C 281.074219 44.617188 280.085938 43.632812 280.085938 42.414062 C 280.085938 41.195312 281.074219 40.207031 282.292969 40.207031 L 292.578125 40.207031 C 293.796875 40.207031 294.785156 41.195312 294.785156 42.414062 C 294.785156 43.632812 293.796875 44.617188 292.578125 44.617188 " fill-opacity="1" fill-rule="nonzero"/><path fill="#0e47a0" d="M 137.753906 247.730469 C 136.5625 247.730469 135.578125 246.777344 135.550781 245.578125 C 135.476562 242.316406 135.578125 239.019531 135.851562 235.773438 C 135.953125 234.558594 137.015625 233.660156 138.234375 233.761719 C 139.445312 233.863281 140.347656 234.929688 140.246094 236.140625 C 139.984375 239.230469 139.890625 242.375 139.960938 245.472656 C 139.988281 246.691406 139.023438 247.703125 137.804688 247.730469 C 137.789062 247.730469 137.773438 247.730469 137.753906 247.730469 " fill-opacity="1" fill-rule="nonzero"/><path fill="#0e47a0" d="M 228.464844 336.347656 C 215.992188 336.347656 203.464844 333.824219 191.695312 328.765625 C 177.800781 322.800781 165.476562 313.453125 156.0625 301.746094 C 146.949219 290.410156 140.539062 276.882812 137.527344 262.621094 C 137.277344 261.429688 138.039062 260.257812 139.230469 260.007812 C 140.421875 259.75 141.589844 260.515625 141.84375 261.707031 C 147.78125 289.835938 167.066406 313.386719 193.433594 324.714844 C 216.367188 334.566406 242.3125 334.332031 264.613281 324.070312 C 265.71875 323.5625 267.027344 324.046875 267.535156 325.152344 C 268.042969 326.257812 267.558594 327.566406 266.453125 328.078125 C 254.476562 333.585938 241.503906 336.347656 228.464844 336.347656 " fill-opacity="1" fill-rule="nonzero"/><g clip-path="url(#2486f9c69e)"><path fill="#0e47a0" d="M 353.984375 311.066406 L 312.050781 311.066406 L 312.050781 303.71875 L 353.984375 303.71875 C 361.453125 303.71875 367.53125 297.636719 367.53125 290.164062 L 367.53125 44.574219 C 367.53125 37.101562 361.453125 31.019531 353.984375 31.019531 L 21.015625 31.019531 C 13.546875 31.019531 7.46875 37.101562 7.46875 44.574219 L 7.46875 290.164062 C 7.46875 297.636719 13.546875 303.71875 21.015625 303.71875 L 145.984375 303.71875 L 145.984375 311.066406 L 21.015625 311.066406 C 9.496094 311.066406 0.121094 301.691406 0.121094 290.164062 L 0.121094 44.574219 C 0.121094 33.046875 9.496094 23.671875 21.015625 23.671875 L 353.984375 23.671875 C 365.503906 23.671875 374.878906 33.046875 374.878906 44.574219 L 374.878906 290.164062 C 374.878906 301.691406 365.503906 311.066406 353.984375 311.066406 " fill-opacity="1" fill-rule="nonzero"/></g><path fill="#0e47a0" d="M 371.941406 80.636719 L 2.691406 80.636719 L 2.691406 73.285156 L 371.941406 73.285156 L 371.941406 80.636719 " fill-opacity="1" fill-rule="nonzero"/><path fill="#0e47a0" d="M 35.859375 47.085938 C 32.96875 47.085938 30.617188 49.4375 30.617188 52.328125 C 30.617188 55.222656 32.96875 57.574219 35.859375 57.574219 C 38.75 57.574219 41.101562 55.222656 41.101562 52.328125 C 41.101562 49.4375 38.75 47.085938 35.859375 47.085938 Z M 35.859375 64.925781 C 28.917969 64.925781 23.269531 59.273438 23.269531 52.328125 C 23.269531 45.386719 28.917969 39.734375 35.859375 39.734375 C 42.800781 39.734375 48.449219 45.386719 48.449219 52.328125 C 48.449219 59.273438 42.800781 64.925781 35.859375 64.925781 " fill-opacity="1" fill-rule="nonzero"/><path fill="#0e47a0" d="M 74.707031 47.085938 C 71.816406 47.085938 69.460938 49.4375 69.460938 52.328125 C 69.460938 55.222656 71.816406 57.574219 74.707031 57.574219 C 77.59375 57.574219 79.949219 55.222656 79.949219 52.328125 C 79.949219 49.4375 77.59375 47.085938 74.707031 47.085938 Z M 74.707031 64.925781 C 67.761719 64.925781 62.113281 59.273438 62.113281 52.328125 C 62.113281 45.386719 67.761719 39.734375 74.707031 39.734375 C 81.648438 39.734375 87.296875 45.386719 87.296875 52.328125 C 87.296875 59.273438 81.648438 64.925781 74.707031 64.925781 " fill-opacity="1" fill-rule="nonzero"/><path fill="#0e47a0" d="M 113.550781 47.085938 C 110.660156 47.085938 108.308594 49.4375 108.308594 52.328125 C 108.308594 55.222656 110.660156 57.574219 113.550781 57.574219 C 116.441406 57.574219 118.792969 55.222656 118.792969 52.328125 C 118.792969 49.4375 116.441406 47.085938 113.550781 47.085938 Z M 113.550781 64.925781 C 106.609375 64.925781 100.960938 59.273438 100.960938 52.328125 C 100.960938 45.386719 106.609375 39.734375 113.550781 39.734375 C 120.496094 39.734375 126.140625 45.386719 126.140625 52.328125 C 126.140625 59.273438 120.496094 64.925781 113.550781 64.925781 " fill-opacity="1" fill-rule="nonzero"/><g clip-path="url(#7d7ce57c1e)"><path fill="#0e47a0" d="M 227.71875 142.378906 C 172.125 142.378906 126.894531 187.621094 126.894531 243.230469 C 126.894531 298.839844 172.125 344.082031 227.71875 344.082031 C 283.3125 344.082031 328.542969 298.839844 328.542969 243.230469 C 328.542969 187.621094 283.3125 142.378906 227.71875 142.378906 Z M 227.71875 351.433594 C 198.824219 351.433594 171.660156 340.175781 151.230469 319.742188 C 130.796875 299.304688 119.546875 272.132812 119.546875 243.230469 C 119.546875 214.328125 130.796875 187.15625 151.230469 166.71875 C 171.660156 146.28125 198.824219 135.027344 227.71875 135.027344 C 256.613281 135.027344 283.777344 146.28125 304.207031 166.71875 C 324.636719 187.15625 335.890625 214.328125 335.890625 243.230469 C 335.890625 272.132812 324.636719 299.304688 304.207031 319.742188 C 283.777344 340.175781 256.613281 351.433594 227.71875 351.433594 " fill-opacity="1" fill-rule="nonzero"/></g><path fill="#0e47a0" d="M 227.71875 171.59375 C 188.230469 171.59375 156.105469 203.730469 156.105469 243.230469 C 156.105469 255.699219 159.308594 267.816406 165.410156 278.558594 L 262.988281 180.878906 C 252.261719 174.792969 240.164062 171.59375 227.71875 171.59375 Z M 164.710938 288.132812 C 164.585938 288.132812 164.460938 288.128906 164.335938 288.113281 C 163.234375 288 162.242188 287.398438 161.636719 286.472656 C 153.210938 273.613281 148.757812 258.660156 148.757812 243.230469 C 148.757812 222.132812 156.96875 202.296875 171.882812 187.378906 C 186.796875 172.460938 206.625 164.246094 227.71875 164.246094 C 243.121094 164.246094 258.054688 168.691406 270.898438 177.097656 C 271.824219 177.703125 272.425781 178.695312 272.542969 179.796875 C 272.65625 180.898438 272.269531 181.988281 271.484375 182.769531 L 167.308594 287.058594 C 166.617188 287.75 165.679688 288.132812 164.710938 288.132812 " fill-opacity="1" fill-rule="nonzero"/><path fill="#0e47a0" d="M 192.425781 305.574219 C 203.15625 311.664062 215.265625 314.863281 227.71875 314.863281 C 267.207031 314.863281 299.332031 282.730469 299.332031 243.230469 C 299.332031 230.757812 296.125 218.628906 290.015625 207.882812 Z M 227.71875 322.214844 C 212.304688 322.214844 197.367188 317.765625 184.519531 309.351562 C 183.59375 308.746094 182.992188 307.753906 182.875 306.652344 C 182.761719 305.554688 183.148438 304.460938 183.933594 303.679688 L 288.117188 199.386719 C 288.898438 198.601562 289.992188 198.21875 291.089844 198.328125 C 292.1875 198.441406 293.179688 199.042969 293.785156 199.96875 C 302.222656 212.832031 306.679688 227.792969 306.679688 243.230469 C 306.679688 264.328125 298.464844 284.164062 283.554688 299.082031 C 268.640625 314 248.808594 322.214844 227.71875 322.214844 " fill-opacity="1" fill-rule="nonzero"/></svg>