<svg xmlns="http://www.w3.org/2000/svg" xmlns:xlink="http://www.w3.org/1999/xlink" width="230" zoomAndPan="magnify" viewBox="0 0 172.5 112.499997" height="150" preserveAspectRatio="xMidYMid meet" version="1.0"><defs><clipPath id="3c8eef1359"><path d="M 140 88 L 164 88 L 164 112.003906 L 140 112.003906 Z M 140 88 " clip-rule="nonzero"/></clipPath><clipPath id="5651ba84f7"><path d="M 164 31 L 171.871094 31 L 171.871094 36 L 164 36 Z M 164 31 " clip-rule="nonzero"/></clipPath><clipPath id="d6923e1d1f"><path d="M 107 90 L 131 90 L 131 112.003906 L 107 112.003906 Z M 107 90 " clip-rule="nonzero"/></clipPath><clipPath id="961fe96c3a"><path d="M 74 86 L 101 86 L 101 112.003906 L 74 112.003906 Z M 74 86 " clip-rule="nonzero"/></clipPath><clipPath id="32a293b9f2"><path d="M 45 94 L 66 94 L 66 112.003906 L 45 112.003906 Z M 45 94 " clip-rule="nonzero"/></clipPath><clipPath id="11a024a104"><path d="M 11 83 L 33 83 L 33 112.003906 L 11 112.003906 Z M 11 83 " clip-rule="nonzero"/></clipPath></defs><g clip-path="url(#3c8eef1359)"><path fill="#9a3b82" d="M 163.40625 96.6875 L 163.40625 112.101562 L 140.136719 112.101562 L 144.671875 88.429688 C 144.523438 89.367188 147.425781 91.117188 151.398438 92.875 C 152.824219 93.503906 154.414062 94.132812 156.113281 94.722656 C 158.851562 95.6875 161.371094 96.339844 163.40625 96.6875 C 163.402344 96.6875 163.40625 96.6875 163.40625 96.6875 Z M 163.40625 96.6875 " fill-opacity="1" fill-rule="nonzero"/></g><path fill="#ffcf2d" d="M 163.40625 92.050781 L 163.40625 96.175781 C 161.371094 95.832031 158.855469 95.183594 156.105469 94.21875 C 149.632812 91.953125 144.648438 89.15625 144.929688 87.898438 C 144.933594 87.878906 144.9375 87.859375 144.941406 87.847656 C 145.378906 86.617188 151.113281 87.46875 157.679688 89.761719 C 159.789062 90.5 161.691406 91.261719 163.289062 91.996094 C 163.328125 92.015625 163.367188 92.035156 163.40625 92.050781 Z M 163.40625 92.050781 " fill-opacity="1" fill-rule="nonzero"/><path stroke-linecap="butt" transform="matrix(0.0468916, 0, 0, 0.0467206, -26.170111, -25.020494)" fill-opacity="1" fill="#ffffff" fill-rule="nonzero" stroke-linejoin="miter" d="M 3974.805848 1741.423726 C 3926.406308 1741.423726 3887.170192 1780.636232 3887.170192 1828.878483 L 3887.170192 2068.668388 C 3887.170192 2116.994248 3848.01738 2156.206753 3799.701144 2156.206753 L 3448.908609 2156.206753 C 3497.308149 2156.206753 3536.377657 2116.994248 3536.377657 2068.668388 L 3536.377657 1828.878483 C 3536.377657 1780.469014 3575.613773 1741.423726 3623.930009 1741.423726 Z M 3974.805848 1741.423726 " stroke="#ffcf2d" stroke-width="5" stroke-opacity="1" stroke-miterlimit="10"/><path stroke-linecap="butt" transform="matrix(0.0468916, 0, 0, 0.0467206, -26.170111, -25.020494)" fill-opacity="1" fill="#ffffff" fill-rule="nonzero" stroke-linejoin="miter" d="M 3598.02251 1865.499117 L 3821.360146 1865.499117 L 3821.360146 2072.765217 L 3598.02251 2072.765217 Z M 3598.02251 1865.499117 " stroke="#ffcf2d" stroke-width="5" stroke-opacity="1" stroke-miterlimit="10"/><path stroke-linecap="butt" transform="matrix(0.0468916, 0, 0, 0.0467206, -26.170111, -25.020494)" fill="none" stroke-linejoin="miter" d="M 3821.276843 1895.096615 L 3598.02251 1895.096615 " stroke="#ffcf2d" stroke-width="5" stroke-opacity="1" stroke-miterlimit="10"/><path stroke-linecap="butt" transform="matrix(0.0468916, 0, 0, 0.0467206, -26.170111, -25.020494)" fill="none" stroke-linejoin="miter" d="M 3821.276843 1924.694114 L 3598.02251 1924.694114 " stroke="#ffcf2d" stroke-width="5" stroke-opacity="1" stroke-miterlimit="10"/><path stroke-linecap="butt" transform="matrix(0.0468916, 0, 0, 0.0467206, -26.170111, -25.020494)" fill="none" stroke-linejoin="miter" d="M 3821.276843 1954.375222 L 3598.02251 1954.375222 " stroke="#ffcf2d" stroke-width="5" stroke-opacity="1" stroke-miterlimit="10"/><path stroke-linecap="butt" transform="matrix(0.0468916, 0, 0, 0.0467206, -26.170111, -25.020494)" fill="none" stroke-linejoin="miter" d="M 3821.276843 1983.972721 L 3598.02251 1983.972721 " stroke="#ffcf2d" stroke-width="5" stroke-opacity="1" stroke-miterlimit="10"/><path stroke-linecap="butt" transform="matrix(0.0468916, 0, 0, 0.0467206, -26.170111, -25.020494)" fill="none" stroke-linejoin="miter" d="M 3821.276843 2013.737437 L 3598.02251 2013.737437 " stroke="#ffcf2d" stroke-width="5" stroke-opacity="1" stroke-miterlimit="10"/><path stroke-linecap="butt" transform="matrix(0.0468916, 0, 0, 0.0467206, -26.170111, -25.020494)" fill="none" stroke-linejoin="miter" d="M 3821.276843 2043.334936 L 3598.02251 2043.334936 " stroke="#ffcf2d" stroke-width="5" stroke-opacity="1" stroke-miterlimit="10"/><path stroke-linecap="butt" transform="matrix(0.0468916, 0, 0, 0.0467206, -26.170111, -25.020494)" fill-opacity="1" fill="#66b0f0" fill-rule="nonzero" stroke-linejoin="miter" d="M 3887.170192 1828.878483 C 3887.170192 1780.803449 3925.989789 1741.84177 3973.889506 1741.423726 C 4021.872526 1741.84177 4060.608819 1780.803449 4060.608819 1828.878483 Z M 3887.170192 1828.878483 " stroke="#ffcf2d" stroke-width="5" stroke-opacity="1" stroke-miterlimit="10"/><path fill="#ffcf2d" d="M 152.023438 75.820312 C 152.019531 75.820312 152.007812 75.820312 152.003906 75.820312 L 135.617188 75.820312 C 135.605469 75.820312 135.597656 75.820312 135.585938 75.820312 C 133.902344 75.796875 132.464844 74.761719 131.855469 73.292969 L 148.277344 73.292969 C 148.890625 74.761719 150.328125 75.796875 152.023438 75.820312 Z M 152.023438 75.820312 " fill-opacity="1" fill-rule="nonzero"/><path fill="#fe5244" d="M 143.230469 61.023438 L 141.335938 61.023438 L 141.335938 59.511719 L 142.226562 59.511719 L 142.226562 60.351562 C 142.226562 60.371094 142.238281 60.382812 142.246094 60.390625 C 142.246094 60.390625 142.25 60.394531 142.25 60.394531 Z M 143.230469 61.023438 " fill-opacity="1" fill-rule="nonzero"/><path fill="#fe5244" d="M 143.964844 60.035156 L 143.964844 60.234375 C 143.964844 60.273438 143.960938 60.308594 143.960938 60.347656 C 143.960938 60.355469 143.957031 60.371094 143.957031 60.378906 C 143.953125 60.398438 143.953125 60.417969 143.949219 60.4375 C 143.894531 60.691406 143.742188 60.902344 143.550781 60.984375 C 143.535156 60.988281 143.519531 60.992188 143.507812 60.996094 C 143.484375 61.007812 143.457031 61.011719 143.433594 61.015625 C 143.421875 61.015625 143.414062 61.019531 143.402344 61.019531 L 142.332031 60.324219 C 142.339844 60.160156 142.441406 60.03125 142.566406 60.03125 L 143.964844 60.03125 Z M 143.964844 60.035156 " fill-opacity="1" fill-rule="nonzero"/><path fill="#fe5244" d="M 154.429688 59.511719 L 154.429688 61.023438 L 152.535156 61.023438 L 153.507812 60.394531 C 153.507812 60.394531 153.515625 60.390625 153.515625 60.390625 C 153.519531 60.382812 153.519531 60.382812 153.523438 60.382812 C 153.523438 60.378906 153.527344 60.378906 153.527344 60.375 C 153.527344 60.375 153.527344 60.371094 153.53125 60.371094 C 153.53125 60.367188 153.53125 60.367188 153.539062 60.367188 C 153.539062 60.367188 153.539062 60.367188 153.539062 60.363281 C 153.539062 60.355469 153.539062 60.355469 153.539062 60.351562 L 153.539062 59.511719 Z M 154.429688 59.511719 " fill-opacity="1" fill-rule="nonzero"/><path fill="#fe5244" d="M 153.445312 60.328125 L 152.371094 61.023438 C 152.339844 61.019531 152.3125 61.015625 152.285156 61.011719 C 152.277344 61.007812 152.265625 61.007812 152.257812 61 C 152.242188 60.996094 152.234375 60.992188 152.21875 60.988281 C 152.210938 60.984375 152.195312 60.976562 152.1875 60.972656 C 152.042969 60.894531 151.917969 60.738281 151.859375 60.546875 C 151.847656 60.519531 151.839844 60.492188 151.835938 60.464844 C 151.832031 60.453125 151.832031 60.441406 151.824219 60.425781 C 151.816406 60.367188 151.808594 60.304688 151.808594 60.238281 L 151.808594 60.039062 L 153.214844 60.039062 C 153.332031 60.035156 153.433594 60.164062 153.445312 60.328125 Z M 153.445312 60.328125 " fill-opacity="1" fill-rule="nonzero"/><path fill="#fe5244" d="M 153.445312 58.746094 L 153.445312 60.0625 C 153.433594 60.054688 153.425781 60.039062 153.414062 60.03125 C 153.398438 60.011719 153.378906 59.996094 153.359375 59.984375 C 153.3125 59.953125 153.261719 59.9375 153.207031 59.9375 L 142.558594 59.9375 C 142.503906 59.9375 142.453125 59.953125 142.410156 59.984375 C 142.390625 59.996094 142.371094 60.011719 142.355469 60.03125 C 142.34375 60.039062 142.335938 60.046875 142.324219 60.0625 L 142.324219 58.746094 C 142.324219 58.566406 142.429688 58.425781 142.558594 58.425781 L 153.207031 58.425781 C 153.335938 58.425781 153.445312 58.570312 153.445312 58.746094 Z M 153.445312 58.746094 " fill-opacity="1" fill-rule="nonzero"/><path fill="#a0505a" d="M 163.40625 77.863281 L 163.40625 96.175781 L 163.402344 96.175781 C 161.367188 95.832031 158.851562 95.183594 156.101562 94.21875 C 154.40625 93.625 152.816406 92.996094 151.390625 92.371094 L 152.152344 88.117188 L 153.453125 80.898438 C 149.378906 79.628906 148.714844 75.722656 148.714844 75.722656 L 151.996094 75.722656 C 154.265625 75.722656 156.097656 73.890625 156.097656 71.636719 L 156.097656 70.289062 L 153.992188 70.289062 C 152.515625 70.289062 151.316406 68.839844 151.316406 67.371094 L 151.316406 66.894531 L 155.996094 66.894531 C 156.863281 66.894531 157.675781 67.300781 158.199219 67.992188 L 161.621094 72.546875 C 162.785156 74.078125 163.40625 75.941406 163.40625 77.863281 Z M 163.40625 77.863281 " fill-opacity="1" fill-rule="nonzero"/><path fill="#73325a" d="M 163.40625 92.050781 L 163.40625 96.175781 L 163.402344 96.175781 C 161.367188 95.832031 158.851562 95.183594 156.101562 94.21875 C 154.40625 93.625 152.816406 92.996094 151.390625 92.371094 L 152.152344 88.117188 C 153.84375 88.527344 155.71875 89.085938 157.667969 89.765625 C 159.777344 90.503906 161.683594 91.265625 163.277344 92 C 163.328125 92.015625 163.367188 92.035156 163.40625 92.050781 Z M 163.40625 92.050781 " fill-opacity="1" fill-rule="nonzero"/><path fill="#a0505a" d="M 156.3125 70.289062 L 154.054688 70.289062 C 152.574219 70.289062 151.375 68.839844 151.375 67.371094 L 151.375 66.894531 L 156.3125 66.894531 Z M 156.3125 70.289062 " fill-opacity="1" fill-rule="nonzero"/><path stroke-linecap="butt" transform="matrix(0.0468916, 0, 0, 0.0467206, -26.170111, -25.020494)" fill="none" stroke-linejoin="miter" d="M 3861.262693 2137.394783 C 3861.262693 2137.394783 3930.821412 2163.480715 3937.069202 2253.192907 " stroke="#73325a" stroke-width="5" stroke-opacity="1" stroke-miterlimit="10"/><path stroke-linecap="butt" transform="matrix(0.0468916, 0, 0, 0.0467206, -26.170111, -25.020494)" fill="none" stroke-linejoin="miter" d="M 3830.773482 2269.162179 L 3878.090072 2269.162179 " stroke="#73325a" stroke-width="5" stroke-opacity="1" stroke-miterlimit="10"/><path stroke-linecap="butt" transform="matrix(0.0468916, 0, 0, 0.0467206, -26.170111, -25.020494)" fill="none" stroke-linejoin="miter" d="M 3786.705743 1147.968793 L 3818.361208 1126.982996 C 3859.67992 1099.726542 3914.99368 1126.732169 3918.908961 1175.977725 L 3925.823181 1263.265264 C 3929.571855 1311.17308 3982.303195 1338.513142 4023.621907 1314.015778 L 4043.614833 1302.059726 " stroke="#ffcf2d" stroke-width="6" stroke-opacity="1" stroke-miterlimit="10"/><path fill="#9a3b82" d="M 129.792969 13.464844 L 148.890625 24.507812 L 158.507812 46.023438 L 147.472656 38.617188 L 135.484375 24.621094 Z M 129.792969 13.464844 " fill-opacity="1" fill-rule="nonzero"/><path stroke-linecap="butt" transform="matrix(0.0468916, 0, 0, 0.0467206, -26.170111, -25.020494)" fill="none" stroke-linejoin="miter" d="M 3327.118372 807.764774 L 3742.971219 1049.310464 L 3952.480415 1519.526094 " stroke="#ffcf2d" stroke-width="6" stroke-opacity="1" stroke-miterlimit="10"/><path fill="#ffffff" d="M 142.796875 30.539062 C 143.195312 31.011719 143.582031 31.488281 143.953125 31.96875 C 144.324219 32.449219 144.675781 32.925781 145.003906 33.394531 C 145.335938 33.867188 145.636719 34.324219 145.910156 34.765625 C 146.183594 35.207031 146.425781 35.628906 146.632812 36.023438 C 146.839844 36.421875 147.011719 36.789062 147.144531 37.125 C 147.28125 37.460938 147.375 37.761719 147.429688 38.023438 C 147.484375 38.289062 147.5 38.507812 147.472656 38.6875 C 147.445312 38.867188 147.378906 39.003906 147.273438 39.09375 C 147.167969 39.183594 147.023438 39.222656 146.84375 39.21875 C 146.660156 39.214844 146.445312 39.164062 146.191406 39.066406 C 145.941406 38.96875 145.660156 38.824219 145.351562 38.636719 C 145.039062 38.449219 144.703125 38.21875 144.347656 37.945312 C 143.988281 37.675781 143.613281 37.371094 143.222656 37.027344 C 142.832031 36.683594 142.429688 36.308594 142.019531 35.90625 C 141.609375 35.503906 141.195312 35.082031 140.785156 34.636719 C 140.371094 34.191406 139.964844 33.730469 139.5625 33.257812 C 139.164062 32.785156 138.777344 32.308594 138.40625 31.828125 C 138.035156 31.347656 137.683594 30.871094 137.355469 30.402344 C 137.023438 29.933594 136.722656 29.476562 136.449219 29.03125 C 136.175781 28.589844 135.933594 28.171875 135.726562 27.773438 C 135.519531 27.378906 135.347656 27.011719 135.214844 26.671875 C 135.078125 26.335938 134.984375 26.035156 134.929688 25.773438 C 134.875 25.511719 134.859375 25.289062 134.886719 25.109375 C 134.910156 24.929688 134.976562 24.796875 135.085938 24.707031 C 135.191406 24.617188 135.335938 24.574219 135.515625 24.578125 C 135.699219 24.582031 135.914062 24.636719 136.167969 24.734375 C 136.417969 24.832031 136.699219 24.976562 137.007812 25.164062 C 137.320312 25.351562 137.652344 25.582031 138.011719 25.851562 C 138.371094 26.121094 138.746094 26.429688 139.136719 26.773438 C 139.527344 27.117188 139.929688 27.488281 140.339844 27.890625 C 140.75 28.292969 141.160156 28.71875 141.574219 29.164062 C 141.988281 29.609375 142.394531 30.066406 142.796875 30.539062 Z M 142.796875 30.539062 " fill-opacity="1" fill-rule="nonzero"/><path stroke-linecap="butt" transform="matrix(0.0358299, -0.0301393, 0.0302497, 0.0356992, -23.88126, 95.787516)" fill-opacity="1" fill="#ffffff" fill-rule="nonzero" stroke-linejoin="miter" d="M 3603.999817 1226.138247 C 3604.000639 1239.050643 3603.702632 1251.929591 3603.09608 1264.657469 C 3602.607115 1277.375201 3601.736236 1289.770498 3600.591313 1301.715589 C 3599.510043 1313.71442 3598.198949 1325.081534 3596.604095 1335.880819 C 3594.945588 1346.626364 3593.111194 1356.676309 3591.081477 1365.795403 C 3588.997825 1374.978382 3586.772786 1383.166626 3584.352427 1390.42402 C 3581.986003 1397.617528 3579.350888 1403.708822 3576.682259 1408.67761 C 3574.01363 1413.646398 3571.30177 1417.375054 3568.429091 1419.873726 C 3565.620064 1422.426137 3562.704155 1423.684677 3559.745014 1423.703086 C 3556.903461 1423.711349 3554.018678 1422.479481 3551.198535 1419.879711 C 3548.324457 1417.343826 3545.588389 1413.611403 3542.872742 1408.692588 C 3540.211031 1403.709887 3537.633394 1397.594533 3535.203483 1390.400266 C 3532.827509 1383.142113 3530.555042 1374.986556 3528.557606 1365.859564 C 3526.496518 1356.678832 3524.666242 1346.708175 3523.003127 1335.893853 C 3521.457599 1325.069385 3520.044729 1313.700387 3518.936041 1301.712827 C 3517.827352 1289.725267 3517.042279 1277.354395 3516.463232 1264.610355 C 3515.830249 1251.930202 3515.59425 1239.038099 3515.593428 1226.125704 C 3515.582889 1213.095684 3515.826961 1200.28062 3516.433513 1187.552742 C 3517.040066 1174.824864 3517.857009 1162.493453 3518.938279 1150.494623 C 3520.019549 1138.495792 3521.448232 1127.118531 3523.043086 1116.319247 C 3524.63794 1105.519962 3526.482052 1095.587642 3528.565704 1086.404663 C 3530.585704 1077.167944 3532.810742 1068.9797 3535.240819 1061.839931 C 3537.661178 1054.582537 3540.178705 1048.501389 3542.847334 1043.532602 C 3545.579615 1038.617553 3548.345411 1034.825011 3551.154438 1032.2726 C 3554.027117 1029.773929 3556.879374 1028.461649 3559.784579 1028.507125 C 3562.74372 1028.488716 3565.574567 1029.78447 3568.448646 1032.320355 C 3571.259072 1034.8025 3574.058793 1038.588663 3576.720504 1043.571363 C 3579.43615 1048.490179 3581.950135 1054.551793 3584.326109 1061.809946 C 3586.75602 1069.004214 3588.974551 1077.223656 3591.035639 1086.404387 C 3593.096727 1095.585119 3594.927003 1105.555776 3596.526466 1116.316358 C 3598.189582 1127.13068 3599.484863 1138.509824 3600.593552 1150.497384 C 3601.70224 1162.484944 3602.604902 1174.845671 3603.120297 1187.535971 C 3603.699344 1200.28001 3603.989278 1213.108227 3603.999817 1226.138247 Z M 3603.999817 1226.138247 " stroke="#ffcf2d" stroke-width="5" stroke-opacity="1" stroke-miterlimit="10"/><path fill="#ffcf2d" d="M 149.058594 37.582031 L 147.238281 39.109375 C 147.578125 38.824219 147.503906 38.105469 147.09375 37.097656 C 146.421875 35.445312 144.851562 33.03125 142.761719 30.554688 C 140.664062 28.082031 138.535156 26.132812 137.011719 25.199219 C 136.089844 24.628906 135.386719 24.433594 135.046875 24.71875 L 136.867188 23.191406 C 137.757812 22.4375 141.367188 24.894531 144.734375 28.871094 C 148.101562 32.847656 149.953125 36.832031 149.058594 37.582031 Z M 149.058594 37.582031 " fill-opacity="1" fill-rule="nonzero"/><g clip-path="url(#5651ba84f7)"><path fill="#ffcf2d" d="M 168.496094 31.734375 C 169.011719 31.488281 169.511719 31.269531 169.996094 31.085938 C 170.28125 31.386719 170.53125 31.734375 170.722656 32.128906 C 170.914062 32.519531 171.039062 32.933594 171.09375 33.339844 C 170.648438 33.601562 170.164062 33.863281 169.652344 34.109375 C 167.089844 35.347656 164.753906 35.820312 164.433594 35.164062 C 164.109375 34.507812 165.929688 32.972656 168.496094 31.734375 Z M 168.496094 31.734375 " fill-opacity="1" fill-rule="nonzero"/></g><path stroke-linecap="butt" transform="matrix(0.0468916, 0, 0, 0.0467206, -26.170111, -25.020494)" fill="none" stroke-linejoin="miter" d="M 4066.939912 1295.120199 C 4066.939912 1298.464549 4065.690354 1301.307247 4063.357846 1303.648292 C 4061.025338 1305.989337 4058.109704 1307.15986 4054.777549 1307.15986 C 4051.445395 1307.15986 4048.613064 1305.989337 4046.280556 1303.648292 C 4043.864744 1301.307247 4042.69849 1298.464549 4042.69849 1295.120199 C 4042.69849 1291.775849 4043.864744 1288.933151 4046.280556 1286.508498 C 4048.613064 1284.167453 4051.445395 1282.99693 4054.777549 1282.99693 C 4058.109704 1282.99693 4061.025338 1284.167453 4063.357846 1286.508498 C 4065.690354 1288.933151 4066.939912 1291.775849 4066.939912 1295.120199 Z M 4066.939912 1295.120199 " stroke="#9a3b82" stroke-width="6" stroke-opacity="1" stroke-miterlimit="10"/><g clip-path="url(#d6923e1d1f)"><path fill="#66b0f0" d="M 130.480469 92.316406 L 130.480469 112.101562 L 107.863281 112.101562 L 110.761719 90.617188 C 110.761719 91.488281 115.175781 92.570312 120.621094 93.039062 C 126.0625 93.507812 130.480469 93.1875 130.480469 92.316406 Z M 130.480469 92.316406 " fill-opacity="1" fill-rule="nonzero"/></g><path fill="#3fb1b5" d="M 130.378906 91.808594 C 130.378906 92.679688 126.003906 93 120.609375 92.527344 C 115.21875 92.054688 110.84375 90.972656 110.84375 90.109375 C 110.84375 89.238281 115.21875 88.917969 120.609375 89.390625 C 126.007812 89.855469 130.378906 90.941406 130.378906 91.808594 Z M 130.378906 91.808594 " fill-opacity="1" fill-rule="nonzero"/><path stroke-linecap="butt" transform="matrix(0.0468916, 0, 0, 0.0467206, -26.170111, -25.020494)" fill="none" stroke-linejoin="miter" d="M 3405.423996 1561.999341 L 3434.580346 1580.894919 C 3463.819999 1603.469283 3423.417629 1704.468657 3344.36227 1806.304119 C 3265.390216 1908.22319 3177.671256 1972.434713 3148.514906 1949.77674 L 3134.103339 1936.232122 " stroke="#66b0f0" stroke-width="6" stroke-opacity="1" stroke-miterlimit="10"/><path fill="#66b0f0" d="M 114.5 70.121094 L 130.042969 55.945312 L 135.480469 39.457031 L 118.890625 54.480469 Z M 114.5 70.121094 " fill-opacity="1" fill-rule="nonzero"/><path stroke-linecap="round" transform="matrix(0.0468916, 0, 0, 0.0467206, -26.170111, -25.020494)" fill="none" stroke-linejoin="miter" d="M 2982.990146 2073.183261 L 3343.779143 1743.012293 L 3461.487491 1384.497957 " stroke="#fe5244" stroke-width="6" stroke-opacity="1" stroke-miterlimit="10"/><path stroke-linecap="butt" transform="matrix(0.0468916, 0, 0, 0.0467206, -26.170111, -25.020494)" fill="none" stroke-linejoin="miter" d="M 3173.839278 1731.975937 L 2859.034009 2033.134668 C 2843.706099 2047.682591 2818.714943 2033.887146 2822.963439 2013.068567 L 2831.793648 1970.428102 C 2835.792233 1951.11448 2813.883319 1936.984601 2797.972283 1948.606218 L 2694.009071 2024.27214 " stroke="#fe5244" stroke-width="6" stroke-opacity="1" stroke-miterlimit="10"/><path fill="#ffcf2d" d="M 96.183594 74.59375 C 95.746094 74.957031 95.3125 75.292969 94.890625 75.585938 C 94.539062 75.367188 94.214844 75.09375 93.929688 74.757812 C 93.648438 74.417969 93.425781 74.054688 93.273438 73.671875 C 93.636719 73.308594 94.042969 72.9375 94.476562 72.570312 C 96.65625 70.742188 98.804688 69.710938 99.277344 70.269531 C 99.746094 70.832031 98.363281 72.765625 96.183594 74.59375 Z M 96.183594 74.59375 " fill-opacity="1" fill-rule="nonzero"/><path stroke-linecap="butt" transform="matrix(0.0468916, 0, 0, 0.0467206, -26.170111, -25.020494)" fill="none" stroke-linejoin="miter" d="M 2696.424883 2031.62971 C 2696.424883 2034.97406 2695.258629 2037.816758 2692.842817 2040.157803 C 2690.510309 2042.498848 2687.677978 2043.669371 2684.26252 2043.669371 C 2680.930366 2043.669371 2678.098035 2042.498848 2675.765527 2040.157803 C 2673.349715 2037.816758 2672.183461 2034.97406 2672.183461 2031.62971 C 2672.183461 2028.28536 2673.349715 2025.442662 2675.765527 2023.018009 C 2678.098035 2020.676963 2680.930366 2019.506441 2684.26252 2019.506441 C 2687.677978 2019.506441 2690.510309 2020.676963 2692.842817 2023.018009 C 2695.258629 2025.442662 2696.424883 2028.28536 2696.424883 2031.62971 Z M 2696.424883 2031.62971 " stroke="#fe5244" stroke-width="6" stroke-opacity="1" stroke-miterlimit="10"/><path fill="#ffcf2d" d="M 123.351562 77.429688 L 123.351562 92.707031 C 122.484375 92.667969 121.5625 92.613281 120.609375 92.527344 C 117.097656 92.226562 114.023438 91.65625 112.300781 91.058594 L 112.558594 89.367188 L 113.421875 83.6875 L 112.304688 83.6875 C 110.714844 83.6875 109.429688 82.410156 109.429688 80.824219 L 109.429688 75.199219 C 109.429688 74.085938 109.835938 73.019531 110.570312 72.183594 L 114.242188 68 C 114.480469 67.730469 114.929688 67.898438 114.929688 68.257812 L 114.929688 73.941406 C 114.929688 74.625 114.6875 75.285156 114.242188 75.800781 L 113.914062 76.1875 L 117.898438 76.1875 C 118.476562 76.1875 118.8125 75.546875 118.492188 75.070312 C 118 74.355469 117.351562 73.335938 116.738281 72.160156 C 115.511719 69.828125 117.636719 68.523438 117.636719 68.523438 L 122.5 74.808594 C 123.054688 75.570312 123.351562 76.488281 123.351562 77.429688 Z M 123.351562 77.429688 " fill-opacity="1" fill-rule="nonzero"/><path stroke-linecap="round" transform="matrix(0.0468916, 0, 0, 0.0467206, -26.170111, -25.020494)" fill="none" stroke-linejoin="miter" d="M 3009.064252 1989.992551 L 3009.064252 2118.16477 C 3009.064252 2132.796302 3003.899413 2146.926181 2994.402774 2157.962537 L 2987.40525 2166.239804 " stroke="#ffffff" stroke-width="5" stroke-opacity="1" stroke-miterlimit="10"/><path stroke-linecap="round" transform="matrix(0.0468916, 0, 0, 0.0467206, -26.170111, -25.020494)" fill="none" stroke-linejoin="miter" d="M 2987.40525 2166.072586 L 2931.175148 2229.197195 " stroke="#ffffff" stroke-width="5" stroke-opacity="1" stroke-miterlimit="10"/><path stroke-linecap="round" transform="matrix(0.0468916, 0, 0, 0.0467206, -26.170111, -25.020494)" fill="none" stroke-linejoin="miter" d="M 3009.064252 2062.48134 C 3009.064252 2077.112872 3003.899413 2091.159143 2994.402774 2102.279107 L 2987.40525 2110.472765 L 2931.258451 2173.513765 " stroke="#ffffff" stroke-width="5" stroke-opacity="1" stroke-miterlimit="10"/><path stroke-linecap="round" transform="matrix(0.0468916, 0, 0, 0.0467206, -26.170111, -25.020494)" fill="none" stroke-linejoin="miter" d="M 3009.064252 2006.881519 C 3009.064252 2021.513051 3003.899413 2035.559322 2994.402774 2046.679286 L 2987.40525 2054.872944 L 2931.258451 2117.913944 " stroke="#ffffff" stroke-width="5" stroke-opacity="1" stroke-miterlimit="10"/><path stroke-linecap="round" transform="matrix(0.0468916, 0, 0, 0.0467206, -26.170111, -25.020494)" fill="none" stroke-linejoin="miter" d="M 2976.908964 2330.112961 L 3019.977057 2330.112961 " stroke="#ffffff" stroke-width="5" stroke-opacity="1" stroke-miterlimit="10"/><path fill="#fe5244" d="M 123.351562 89.6875 L 123.351562 92.707031 C 122.484375 92.667969 121.5625 92.613281 120.609375 92.527344 C 117.097656 92.226562 114.023438 91.65625 112.300781 91.058594 L 112.558594 89.367188 C 114.320312 89.109375 117.269531 89.09375 120.613281 89.382812 C 121.5625 89.472656 122.480469 89.570312 123.351562 89.6875 Z M 123.351562 89.6875 " fill-opacity="1" fill-rule="nonzero"/><g clip-path="url(#961fe96c3a)"><path fill="#3fb1b5" d="M 100.65625 112.101562 L 74.507812 112.101562 L 74.507812 86.269531 C 74.507812 87.371094 78.804688 88.261719 84.113281 88.261719 C 89.421875 88.261719 93.722656 87.371094 93.722656 86.269531 L 93.722656 86.261719 Z M 100.65625 112.101562 " fill-opacity="1" fill-rule="nonzero"/></g><path fill="#66b0f0" d="M 93.652344 85.753906 C 93.652344 86.859375 89.398438 87.753906 84.148438 87.753906 C 78.894531 87.753906 74.640625 86.859375 74.640625 85.757812 L 74.640625 85.753906 C 74.65625 84.65625 78.90625 83.765625 84.148438 83.765625 C 89.390625 83.765625 93.644531 84.65625 93.652344 85.753906 Z M 93.652344 85.753906 " fill-opacity="1" fill-rule="nonzero"/><path fill="#e57281" d="M 93.652344 85.773438 C 93.621094 86.867188 89.375 87.753906 84.148438 87.753906 C 83.140625 87.753906 82.171875 87.722656 81.261719 87.660156 L 81.261719 78.050781 L 76.300781 78.050781 C 75.667969 78.050781 75.15625 77.539062 75.15625 76.910156 L 75.15625 76.140625 C 75.15625 75.792969 75.3125 75.484375 75.554688 75.273438 C 75.3125 75.0625 75.15625 74.757812 75.15625 74.410156 L 75.15625 73.640625 C 75.15625 73.335938 75.28125 73.054688 75.476562 72.855469 C 75.28125 72.648438 75.15625 72.375 75.15625 72.070312 L 75.15625 71.296875 C 75.15625 70.984375 75.285156 70.699219 75.492188 70.492188 C 75.285156 70.285156 75.15625 70 75.15625 69.6875 L 75.15625 68.289062 C 75.15625 67.660156 75.667969 67.148438 76.300781 67.148438 L 82.636719 67.148438 C 82.847656 67.027344 83.191406 66.597656 82.609375 66.347656 L 81.25 66.027344 C 80.171875 65.492188 79.484375 64.597656 79.484375 63.394531 L 84.269531 63.394531 C 85.070312 63.394531 85.789062 63.898438 86.058594 64.648438 L 93.535156 85.441406 Z M 93.652344 85.773438 " fill-opacity="1" fill-rule="nonzero"/><path fill="#9a3b82" d="M 93.675781 85.78125 C 93.660156 85.769531 93.652344 85.757812 93.652344 85.757812 C 93.652344 86.859375 89.398438 87.753906 84.148438 87.753906 C 83.140625 87.753906 82.171875 87.722656 81.261719 87.660156 L 81.261719 83.863281 C 82.171875 83.800781 83.144531 83.769531 84.148438 83.769531 C 88.882812 83.769531 92.8125 84.496094 93.535156 85.445312 C 93.554688 85.46875 93.605469 85.59375 93.675781 85.78125 Z M 93.675781 85.78125 " fill-opacity="1" fill-rule="nonzero"/><path fill="#ffffff" d="M 82.746094 54.160156 L 82.746094 57.949219 C 82.746094 60.011719 81.070312 61.679688 79.003906 61.679688 C 76.933594 61.679688 75.261719 60.011719 75.261719 57.949219 L 75.261719 54.160156 C 75.261719 55.085938 76.933594 55.835938 79.003906 55.835938 C 81.070312 55.835938 82.746094 55.085938 82.746094 54.160156 Z M 82.746094 54.160156 " fill-opacity="1" fill-rule="nonzero"/><path fill="#ffcf2d" d="M 82.746094 54.160156 C 82.746094 54.382812 82.648438 54.597656 82.460938 54.800781 C 82.269531 55.007812 82 55.1875 81.648438 55.34375 C 81.296875 55.5 80.894531 55.621094 80.433594 55.707031 C 79.976562 55.792969 79.5 55.835938 79.003906 55.835938 C 78.507812 55.835938 78.03125 55.792969 77.570312 55.707031 C 77.113281 55.621094 76.707031 55.5 76.355469 55.34375 C 76.007812 55.1875 75.734375 55.007812 75.546875 54.800781 C 75.355469 54.597656 75.261719 54.382812 75.261719 54.160156 C 75.261719 53.941406 75.355469 53.726562 75.546875 53.519531 C 75.734375 53.316406 76.007812 53.136719 76.355469 52.980469 C 76.707031 52.820312 77.113281 52.699219 77.570312 52.617188 C 78.03125 52.53125 78.507812 52.488281 79.003906 52.488281 C 79.5 52.488281 79.976562 52.53125 80.433594 52.617188 C 80.894531 52.699219 81.296875 52.820312 81.648438 52.980469 C 82 53.136719 82.269531 53.316406 82.460938 53.519531 C 82.648438 53.726562 82.746094 53.941406 82.746094 54.160156 Z M 82.746094 54.160156 " fill-opacity="1" fill-rule="nonzero"/><path stroke-linecap="butt" transform="matrix(0.0468916, 0, 0, 0.0467206, -26.170111, -25.020494)" fill="none" stroke-linejoin="miter" d="M 2322.723788 1556.230337 L 2322.723788 1775.786924 C 2322.723788 1805.384423 2306.56284 1831.219528 2282.737937 1845.014972 C 2282.737937 1845.014972 2282.737937 1845.014972 2282.571329 1845.014972 C 2270.90879 1851.703672 2257.330261 1855.633284 2242.918694 1855.633284 C 2228.507127 1855.633284 2215.011903 1851.787281 2203.266059 1845.098581 C 2203.182755 1845.098581 2203.182755 1845.014972 2203.099451 1845.014972 C 2179.191245 1831.219528 2163.113601 1805.384423 2163.113601 1775.786924 L 2163.113601 1556.230337 Z M 2322.723788 1556.230337 " stroke="#ffcf2d" stroke-width="6" stroke-opacity="1" stroke-miterlimit="10"/><path stroke-linecap="butt" transform="matrix(0.0468916, 0, 0, 0.0467206, -26.170111, -25.020494)" fill-opacity="1" fill="#ffffff" fill-rule="nonzero" stroke-linejoin="miter" d="M 2323.64013 1556.230337 C 2323.64013 1560.912427 2321.557534 1565.510909 2317.475645 1569.858564 C 2313.393756 1574.289828 2307.562486 1578.13583 2299.981835 1581.48018 C 2292.401184 1584.908139 2283.65428 1587.416402 2273.741121 1589.255795 C 2263.911266 1591.095187 2253.581588 1592.014883 2242.918694 1592.014883 C 2232.172497 1592.014883 2221.926123 1591.095187 2212.012964 1589.255795 C 2202.099805 1587.416402 2193.436204 1584.908139 2185.855553 1581.48018 C 2178.274902 1578.13583 2172.443633 1574.289828 2168.361744 1569.858564 C 2164.279855 1565.510909 2162.197258 1560.912427 2162.197258 1556.230337 C 2162.197258 1551.464638 2164.279855 1546.866156 2168.361744 1542.518501 C 2172.443633 1538.087237 2178.274902 1534.241235 2185.855553 1530.896885 C 2193.436204 1527.552534 2202.099805 1524.960663 2212.012964 1523.12127 C 2221.926123 1521.281878 2232.172497 1520.362182 2242.918694 1520.362182 C 2253.581588 1520.362182 2263.911266 1521.281878 2273.741121 1523.12127 C 2283.65428 1524.960663 2292.401184 1527.552534 2299.981835 1530.896885 C 2307.562486 1534.241235 2313.393756 1538.087237 2317.475645 1542.518501 C 2321.557534 1546.866156 2323.64013 1551.464638 2323.64013 1556.230337 Z M 2323.64013 1556.230337 " stroke="#ffcf2d" stroke-width="5" stroke-opacity="1" stroke-miterlimit="10"/><path fill="#ffcf2d" d="M 79.554688 47.386719 C 79.554688 47.539062 79.503906 47.667969 79.394531 47.777344 C 79.285156 47.882812 79.15625 47.9375 79.003906 47.9375 C 78.851562 47.9375 78.71875 47.882812 78.613281 47.777344 C 78.503906 47.667969 78.449219 47.539062 78.449219 47.386719 C 78.449219 47.234375 78.503906 47.105469 78.613281 46.996094 C 78.71875 46.890625 78.851562 46.835938 79.003906 46.835938 C 79.15625 46.835938 79.285156 46.890625 79.394531 46.996094 C 79.503906 47.105469 79.554688 47.234375 79.554688 47.386719 Z M 79.554688 47.386719 " fill-opacity="1" fill-rule="nonzero"/><path stroke-linecap="butt" transform="matrix(0.0468916, 0, 0, 0.0467206, -26.170111, -25.020494)" fill-opacity="1" fill="#ffffff" fill-rule="nonzero" stroke-linejoin="miter" d="M 2227.340873 1792.17424 C 2227.340873 1795.100546 2226.257923 1797.5252 2224.258631 1799.53181 C 2222.259338 1801.622029 2219.760222 1802.625334 2216.927891 1802.625334 C 2214.012256 1802.625334 2211.596445 1801.622029 2209.513848 1799.53181 C 2207.514556 1797.5252 2206.514909 1795.100546 2206.514909 1792.17424 C 2206.514909 1789.331542 2207.514556 1786.906888 2209.513848 1784.816669 C 2211.596445 1782.810059 2214.012256 1781.806754 2216.927891 1781.806754 C 2219.760222 1781.806754 2222.259338 1782.810059 2224.258631 1784.816669 C 2226.257923 1786.906888 2227.340873 1789.331542 2227.340873 1792.17424 Z M 2227.340873 1792.17424 " stroke="#ffcf2d" stroke-width="5" stroke-opacity="1" stroke-miterlimit="10"/><path fill="#ffffff" d="M 81.113281 54.160156 C 81.113281 54.273438 81.074219 54.367188 80.996094 54.445312 C 80.917969 54.523438 80.820312 54.5625 80.710938 54.5625 C 80.597656 54.5625 80.503906 54.523438 80.425781 54.445312 C 80.347656 54.367188 80.304688 54.273438 80.304688 54.160156 C 80.304688 54.050781 80.347656 53.957031 80.425781 53.878906 C 80.503906 53.800781 80.597656 53.757812 80.710938 53.757812 C 80.820312 53.757812 80.917969 53.800781 80.996094 53.878906 C 81.074219 53.957031 81.113281 54.050781 81.113281 54.160156 Z M 81.113281 54.160156 " fill-opacity="1" fill-rule="nonzero"/><path fill="#ffcf2d" d="M 77.210938 57.175781 C 77.210938 57.285156 77.171875 57.378906 77.09375 57.460938 C 77.015625 57.539062 76.917969 57.578125 76.808594 57.578125 C 76.695312 57.578125 76.601562 57.539062 76.523438 57.460938 C 76.445312 57.378906 76.40625 57.285156 76.40625 57.175781 C 76.40625 57.0625 76.445312 56.96875 76.523438 56.890625 C 76.601562 56.8125 76.695312 56.773438 76.808594 56.773438 C 76.917969 56.773438 77.015625 56.8125 77.09375 56.890625 C 77.171875 56.96875 77.210938 57.0625 77.210938 57.175781 Z M 77.210938 57.175781 " fill-opacity="1" fill-rule="nonzero"/><path stroke-linecap="butt" transform="matrix(0.0468916, 0, 0, 0.0467206, -26.170111, -25.020494)" fill-opacity="1" fill="#ffffff" fill-rule="nonzero" stroke-linejoin="miter" d="M 2319.641545 2262.139044 L 2166.195843 2262.139044 C 2163.363512 2262.139044 2162.613778 2258.37665 2165.029589 2257.122519 L 2218.593968 2236.805592 C 2227.007658 2233.628459 2232.589016 2225.51841 2232.589016 2216.488664 L 2232.589016 1896.936008 C 2232.589016 1875.699385 2221.592907 1855.800501 2203.266059 1845.098581 C 2215.011903 1851.787281 2228.507127 1855.633284 2242.918694 1855.633284 C 2257.413565 1855.633284 2270.90879 1851.703672 2282.571329 1845.014972 C 2264.161177 1855.633284 2253.165068 1875.615776 2253.165068 1896.768791 L 2253.165068 2216.405056 C 2253.165068 2225.434801 2258.829731 2233.461241 2267.160116 2236.721983 L 2320.807799 2257.03891 C 2323.223611 2258.37665 2322.390572 2262.139044 2319.641545 2262.139044 Z M 2319.641545 2262.139044 " stroke="#ffcf2d" stroke-width="5" stroke-opacity="1" stroke-miterlimit="10"/><path fill="#ffcf2d" d="M 76.976562 41.441406 C 76.976562 41.613281 76.914062 41.765625 76.789062 41.890625 C 76.664062 42.011719 76.515625 42.074219 76.339844 42.074219 C 76.164062 42.074219 76.011719 42.011719 75.886719 41.890625 C 75.765625 41.765625 75.703125 41.613281 75.703125 41.441406 C 75.703125 41.265625 75.765625 41.113281 75.886719 40.992188 C 76.011719 40.867188 76.164062 40.804688 76.339844 40.804688 C 76.515625 40.804688 76.664062 40.867188 76.789062 40.992188 C 76.914062 41.113281 76.976562 41.265625 76.976562 41.441406 Z M 76.976562 41.441406 " fill-opacity="1" fill-rule="nonzero"/><path stroke-linecap="butt" transform="matrix(0.0468916, 0, 0, 0.0467206, -26.170111, -25.020494)" fill-opacity="1" fill="#ffffff" fill-rule="nonzero" stroke-linejoin="miter" d="M 2291.068323 1446.201217 C 2291.068323 1449.461958 2289.985373 1452.221047 2287.652865 1454.562092 C 2285.320357 1456.819529 2282.571329 1457.990051 2279.322479 1457.990051 C 2276.073629 1457.990051 2273.241298 1456.819529 2270.992094 1454.562092 C 2268.659586 1452.221047 2267.493332 1449.461958 2267.493332 1446.201217 C 2267.493332 1442.940476 2268.659586 1440.181387 2270.992094 1437.840342 C 2273.241298 1435.582905 2276.073629 1434.412383 2279.322479 1434.412383 C 2282.571329 1434.412383 2285.320357 1435.582905 2287.652865 1437.840342 C 2289.985373 1440.181387 2291.068323 1442.940476 2291.068323 1446.201217 Z M 2291.068323 1446.201217 " stroke="#ffcf2d" stroke-width="5" stroke-opacity="1" stroke-miterlimit="10"/><path stroke-linecap="butt" transform="matrix(0.0468916, 0, 0, 0.0467206, -26.170111, -25.020494)" fill-opacity="1" fill="#ffffff" fill-rule="nonzero" stroke-linejoin="miter" d="M 2230.089901 1495.363164 C 2230.089901 1497.787818 2229.256862 1499.794428 2227.590785 1501.466603 C 2225.924708 1503.138778 2223.842111 1503.974866 2221.509603 1503.974866 C 2219.093792 1503.974866 2217.094499 1503.138778 2215.428422 1501.466603 C 2213.762345 1499.794428 2212.929306 1497.787818 2212.929306 1495.363164 C 2212.929306 1493.022119 2213.762345 1491.015509 2215.428422 1489.343334 C 2217.094499 1487.671159 2219.093792 1486.835071 2221.509603 1486.835071 C 2223.842111 1486.835071 2225.924708 1487.671159 2227.590785 1489.343334 C 2229.256862 1491.015509 2230.089901 1493.022119 2230.089901 1495.363164 Z M 2230.089901 1495.363164 " stroke="#ffcf2d" stroke-width="5" stroke-opacity="1" stroke-miterlimit="10"/><path fill="#ffcf2d" d="M 78.121094 40.023438 C 78.121094 40.117188 78.089844 40.195312 78.023438 40.257812 C 77.957031 40.324219 77.878906 40.355469 77.789062 40.355469 C 77.695312 40.355469 77.617188 40.324219 77.554688 40.257812 C 77.488281 40.195312 77.457031 40.117188 77.457031 40.023438 C 77.457031 39.933594 77.488281 39.855469 77.554688 39.789062 C 77.617188 39.722656 77.695312 39.691406 77.789062 39.691406 C 77.878906 39.691406 77.957031 39.722656 78.023438 39.789062 C 78.089844 39.855469 78.121094 39.933594 78.121094 40.023438 Z M 78.121094 40.023438 " fill-opacity="1" fill-rule="nonzero"/><path fill="#e57281" d="M 83.824219 68.648438 L 83.824219 78.054688 L 76.300781 78.054688 C 75.667969 78.054688 75.15625 77.546875 75.15625 76.914062 L 75.15625 76.144531 C 75.15625 75.796875 75.3125 75.488281 75.554688 75.277344 C 75.3125 75.070312 75.15625 74.761719 75.15625 74.414062 L 75.15625 73.644531 C 75.15625 73.339844 75.28125 73.058594 75.476562 72.859375 C 75.28125 72.652344 75.15625 72.378906 75.15625 72.074219 L 75.15625 71.304688 C 75.15625 70.992188 75.285156 70.707031 75.492188 70.496094 C 75.285156 70.289062 75.15625 70.003906 75.15625 69.691406 L 75.15625 68.652344 L 83.824219 68.652344 Z M 83.824219 68.648438 " fill-opacity="1" fill-rule="nonzero"/><path stroke-linecap="round" transform="matrix(0.0468916, 0, 0, 0.0467206, -26.170111, -25.020494)" fill="none" stroke-linejoin="miter" d="M 2163.696728 2126.860081 C 2163.696728 2142.160482 2176.109002 2154.618187 2191.436912 2154.618187 L 2321.224318 2154.618187 C 2336.468924 2154.618187 2348.881198 2142.160482 2348.881198 2126.860081 " stroke="#9a3b82" stroke-width="5" stroke-opacity="1" stroke-miterlimit="10"/><path stroke-linecap="round" transform="matrix(0.0468916, 0, 0, 0.0467206, -26.170111, -25.020494)" fill="none" stroke-linejoin="miter" d="M 2163.696728 2077.029263 C 2163.696728 2092.329665 2176.109002 2104.703761 2191.436912 2104.703761 L 2321.224318 2104.703761 C 2336.468924 2104.703761 2348.881198 2092.329665 2348.881198 2077.029263 " stroke="#9a3b82" stroke-width="5" stroke-opacity="1" stroke-miterlimit="10"/><path stroke-linecap="round" transform="matrix(0.0468916, 0, 0, 0.0467206, -26.170111, -25.020494)" fill="none" stroke-linejoin="miter" d="M 2163.696728 2027.114837 C 2163.696728 2042.415239 2176.109002 2054.789335 2191.436912 2054.789335 L 2321.224318 2054.789335 C 2336.468924 2054.789335 2348.881198 2042.415239 2348.881198 2027.114837 " stroke="#9a3b82" stroke-width="5" stroke-opacity="1" stroke-miterlimit="10"/><path stroke-linecap="round" transform="matrix(0.0468916, 0, 0, 0.0467206, -26.170111, -25.020494)" fill="none" stroke-linejoin="miter" d="M 2190.10405 2204.532613 L 2321.224318 2204.532613 C 2336.468924 2204.532613 2348.881198 2192.074908 2348.881198 2176.774506 L 2348.881198 1989.741725 " stroke="#9a3b82" stroke-width="5" stroke-opacity="1" stroke-miterlimit="10"/><path stroke-linecap="round" transform="matrix(0.0468916, 0, 0, 0.0467206, -26.170111, -25.020494)" fill="none" stroke-linejoin="miter" d="M 2226.341227 1988.905637 L 2213.01261 1988.905637 C 2208.597506 1988.905637 2205.01544 1992.500813 2205.01544 1996.932077 C 2205.01544 2001.279733 2208.597506 2004.874909 2213.01261 2004.874909 L 2287.402953 2004.874909 C 2295.400123 2004.874909 2301.981128 1998.437035 2301.981128 1990.326986 C 2301.981128 1980.711979 2309.81169 1972.936365 2319.391634 1972.936365 L 2331.470693 1972.936365 C 2341.13394 1972.936365 2348.881198 1980.711979 2348.881198 1990.326986 L 2348.881198 2022.683573 " stroke="#9a3b82" stroke-width="5" stroke-opacity="1" stroke-miterlimit="10"/><path fill="#3fb1b5" d="M 120.800781 19.75 L 105.191406 35.703125 L 87.195312 15.933594 L 106.835938 2.160156 Z M 120.800781 19.75 " fill-opacity="1" fill-rule="nonzero"/><path stroke-linecap="butt" transform="matrix(0.0468916, 0, 0, 0.0467206, -26.170111, -25.020494)" fill="none" stroke-linejoin="miter" d="M 2788.392339 1316.105996 L 2385.701502 874.735386 L 2827.29524 565.132171 " stroke="#ffcf2d" stroke-width="6" stroke-opacity="1" stroke-miterlimit="10"/><path stroke-linecap="butt" transform="matrix(0.0468916, 0, 0, 0.0467206, -26.170111, -25.020494)" fill="none" stroke-linejoin="miter" d="M 2794.89004 940.702693 L 2819.964501 937.023907 C 2861.283213 930.920468 2899.602986 959.514662 2905.684168 1000.733778 L 2927.593082 1149.891794 C 2935.007125 1200.224264 2988.988023 1228.985675 3034.888448 1206.996573 L 3139.601394 1156.914929 " stroke="#ffcf2d" stroke-width="6" stroke-opacity="1" stroke-miterlimit="10"/><path fill="#ffcf2d" d="M 127.3125 30.367188 C 127.8125 30.636719 128.285156 30.917969 128.71875 31.199219 C 128.640625 31.605469 128.5 32.007812 128.296875 32.394531 C 128.089844 32.777344 127.828125 33.117188 127.527344 33.402344 C 127.054688 33.199219 126.554688 32.960938 126.054688 32.6875 C 123.546875 31.339844 121.796875 29.726562 122.144531 29.085938 C 122.492188 28.445312 124.800781 29.015625 127.3125 30.367188 Z M 127.3125 30.367188 " fill-opacity="1" fill-rule="nonzero"/><path stroke-linecap="butt" transform="matrix(0.0468916, 0, 0, 0.0467206, -26.170111, -25.020494)" fill="none" stroke-linejoin="miter" d="M 3163.592904 1154.072232 C 3163.592904 1157.416582 3162.42665 1160.25928 3160.094142 1162.683933 C 3157.67833 1165.024979 3154.845999 1166.195501 3151.513845 1166.195501 C 3148.181691 1166.195501 3145.266056 1165.024979 3142.933548 1162.683933 C 3140.60104 1160.25928 3139.434786 1157.416582 3139.434786 1154.072232 C 3139.434786 1150.727882 3140.60104 1147.885184 3142.933548 1145.544139 C 3145.266056 1143.203094 3148.181691 1142.032571 3151.513845 1142.032571 C 3154.845999 1142.032571 3157.67833 1143.203094 3160.094142 1145.544139 C 3162.42665 1147.885184 3163.592904 1150.727882 3163.592904 1154.072232 Z M 3163.592904 1154.072232 " stroke="#66b0f0" stroke-width="6" stroke-opacity="1" stroke-miterlimit="10"/><g clip-path="url(#32a293b9f2)"><path fill="#fe5244" d="M 65.816406 94.597656 L 65.816406 112.101562 L 45.519531 112.101562 L 45.519531 101.789062 C 45.957031 102.9375 51.125 102.203125 56.640625 100.101562 C 61.601562 98.210938 65.433594 95.882812 65.816406 94.597656 Z M 65.816406 94.597656 " fill-opacity="1" fill-rule="nonzero"/></g><path fill="#66b0f0" d="M 65.816406 94.089844 C 65.429688 95.375 61.601562 97.699219 56.636719 99.59375 C 51.125 101.695312 45.957031 102.429688 45.511719 101.277344 C 45.066406 100.128906 49.523438 97.527344 55.035156 95.425781 C 60.546875 93.324219 65.375 92.550781 65.816406 93.703125 C 65.863281 93.816406 65.863281 93.949219 65.816406 94.089844 Z M 65.816406 94.089844 " fill-opacity="1" fill-rule="nonzero"/><path stroke-linecap="butt" transform="matrix(0.0468916, 0, 0, 0.0467206, -26.170111, -25.020494)" fill-opacity="1" fill="#ffffff" fill-rule="nonzero" stroke-linejoin="miter" d="M 1869.967334 2301.017114 L 1869.967334 2618.395943 L 1846.059127 2630.519213 C 1821.901009 2642.308047 1794.827256 2654.013272 1766.004122 2664.966019 C 1713.106174 2685.282946 1661.624391 2699.580043 1620.222375 2707.021222 L 1643.963974 2613.463027 L 1682.783571 2460.877051 C 1664.373418 2460.877051 1646.962913 2452.683393 1635.300373 2438.469905 L 1476.023401 2257.289736 C 1503.263762 2232.374328 1544.082651 2266.319482 1544.082651 2266.319482 L 1528.838046 2188.228906 C 1525.172676 2169.667762 1530.587427 2150.521358 1543.332917 2136.558696 L 1591.732457 2083.467137 C 1601.3124 2073.016043 1618.639602 2077.112872 1622.638187 2090.741099 L 1656.959375 2209.38192 C 1656.959375 2209.38192 1742.429131 2274.596748 1758.423471 2274.596748 C 1776.500408 2274.596748 1782.831501 2259.881608 1749.010136 2211.639357 C 1723.60246 2175.269549 1749.010136 2148.765574 1749.010136 2148.765574 L 1831.730864 2218.411666 C 1855.972286 2238.979419 1869.967334 2269.162179 1869.967334 2301.017114 Z M 1869.967334 2301.017114 " stroke="#ffcf2d" stroke-width="5" stroke-opacity="1" stroke-miterlimit="10"/><path stroke-linecap="butt" transform="matrix(0.0468916, 0, 0, 0.0467206, -26.170111, -25.020494)" fill="none" stroke-linejoin="miter" d="M 1687.698498 2282.53958 L 1627.219899 2234.130111 L 1594.064964 2119.920554 C 1590.316291 2106.79398 1574.238647 2102.864368 1564.991919 2112.981027 " stroke="#ffcf2d" stroke-width="5" stroke-opacity="1" stroke-miterlimit="10"/><path stroke-linecap="butt" transform="matrix(0.0468916, 0, 0, 0.0467206, -26.170111, -25.020494)" fill="none" stroke-linejoin="miter" d="M 1648.129167 2303.776203 L 1595.48113 2260.968521 L 1564.15888 2152.862403 C 1560.576815 2140.488307 1544.832386 2136.809522 1536.085481 2146.424529 " stroke="#ffcf2d" stroke-width="5" stroke-opacity="1" stroke-miterlimit="10"/><path stroke-linecap="butt" transform="matrix(0.0468916, 0, 0, 0.0467206, -26.170111, -25.020494)" fill="none" stroke-linejoin="miter" d="M 1601.562311 2314.72895 L 1543.999347 2266.40309 " stroke="#ffcf2d" stroke-width="5" stroke-opacity="1" stroke-miterlimit="10"/><path stroke-linecap="butt" transform="matrix(0.0468916, 0, 0, 0.0467206, -26.170111, -25.020494)" fill="none" stroke-linejoin="miter" d="M 1682.783571 2460.877051 L 1750.093086 2460.877051 " stroke="#ffcf2d" stroke-width="5" stroke-opacity="1" stroke-miterlimit="10"/><path fill="#ffcf2d" d="M 61.515625 93.492188 L 61.515625 97.410156 C 60.121094 98.148438 58.457031 98.898438 56.640625 99.59375 C 54.15625 100.542969 51.742188 101.210938 49.792969 101.554688 L 50.917969 97.183594 C 52.167969 96.582031 53.5625 95.984375 55.042969 95.425781 C 57.429688 94.519531 59.6875 93.855469 61.515625 93.492188 Z M 61.515625 93.492188 " fill-opacity="1" fill-rule="nonzero"/><path stroke-linecap="butt" transform="matrix(0.0468916, 0, 0, 0.0467206, -26.170111, -25.020494)" fill="none" stroke-linejoin="miter" d="M 1802.241299 1479.979154 L 1832.563903 1546.698939 C 1835.479537 1571.363521 1817.902424 1593.687059 1793.161179 1596.696974 C 1768.503238 1599.62328 1750.926124 1622.030426 1753.758455 1646.695008 L 1758.17356 1683.733686 " stroke="#ffcf2d" stroke-width="6" stroke-opacity="1" stroke-miterlimit="10"/><path fill="#fe5244" d="M 74.835938 34.113281 L 82.347656 22.433594 L 56.507812 22.226562 L 48.046875 44.683594 L 62.019531 44.027344 Z M 74.835938 34.113281 " fill-opacity="1" fill-rule="nonzero"/><path stroke-linecap="butt" transform="matrix(0.0468916, 0, 0, 0.0467206, -26.170111, -25.020494)" fill="none" stroke-linejoin="miter" d="M 2320.807799 996.887775 L 1744.678335 990.366292 L 1553.412683 1494.777903 " stroke="#ffcf2d" stroke-width="6" stroke-opacity="1" stroke-miterlimit="10"/><path stroke-linecap="butt" transform="matrix(0.0468916, 0, 0, 0.0467206, -26.170111, -25.020494)" fill-opacity="1" fill="#66b0f0" fill-rule="nonzero" stroke-linejoin="miter" d="M 2144.120322 1228.233196 C 2176.109002 1283.080539 2121.711585 1374.464906 2022.496693 1432.322164 C 1923.281801 1490.095813 1816.986082 1492.436858 1784.997401 1437.505907 C 1780.582297 1429.981119 1777.916573 1421.87107 1776.583712 1413.175759 C 1768.586542 1358.328417 1820.901363 1283.331365 1906.62103 1233.416939 C 1992.340697 1183.502513 2083.308507 1174.890812 2127.126335 1208.919574 C 2134.040555 1214.270534 2139.705217 1220.708409 2144.120322 1228.233196 Z M 2144.120322 1228.233196 " stroke="#ffffff" stroke-width="6" stroke-opacity="1" stroke-miterlimit="10"/><path stroke-linecap="round" transform="matrix(0.0468916, 0, 0, 0.0467206, -26.170111, -25.020494)" fill="none" stroke-linejoin="miter" d="M 2118.712646 1184.589427 L 2144.120322 1228.233196 C 2139.705217 1220.708409 2134.040555 1214.270534 2127.126335 1208.919574 C 2083.308507 1174.890812 1992.340697 1183.502513 1906.62103 1233.416939 C 1820.901363 1283.331365 1768.669845 1358.328417 1776.583712 1413.175759 C 1777.83327 1421.87107 1780.582297 1429.981119 1784.997401 1437.505907 L 1759.589725 1393.862137 C 1727.601045 1339.014795 1781.998462 1247.630427 1881.213354 1189.77317 C 1980.261638 1132.08313 2086.723965 1129.658476 2118.712646 1184.589427 Z M 2118.712646 1184.589427 " stroke="#ffffff" stroke-width="5" stroke-opacity="1" stroke-miterlimit="10"/><path fill="#ffcf2d" d="M 55.871094 59.941406 C 55.6875 60.476562 55.492188 60.992188 55.285156 61.464844 C 54.867188 61.460938 54.445312 61.390625 54.035156 61.25 C 53.617188 61.109375 53.242188 60.914062 52.902344 60.664062 C 53.023438 60.164062 53.175781 59.636719 53.359375 59.101562 C 54.269531 56.410156 55.5625 54.417969 56.257812 54.648438 C 56.949219 54.882812 56.777344 57.25 55.871094 59.941406 Z M 55.871094 59.941406 " fill-opacity="1" fill-rule="nonzero"/><path stroke-linecap="butt" transform="matrix(0.0468916, 0, 0, 0.0467206, -26.170111, -25.020494)" fill="none" stroke-linejoin="miter" d="M 1771.918696 1693.265084 C 1771.918696 1696.609434 1770.752442 1699.452132 1768.33663 1701.876786 C 1766.004122 1704.217831 1763.171791 1705.388353 1759.839637 1705.388353 C 1756.424179 1705.388353 1753.591848 1704.217831 1751.25934 1701.876786 C 1748.843528 1699.452132 1747.677274 1696.609434 1747.677274 1693.265084 C 1747.677274 1689.920734 1748.843528 1687.078036 1751.25934 1684.736991 C 1753.591848 1682.395946 1756.424179 1681.225424 1759.839637 1681.225424 C 1763.171791 1681.225424 1766.004122 1682.395946 1768.33663 1684.736991 C 1770.752442 1687.078036 1771.918696 1689.920734 1771.918696 1693.265084 Z M 1771.918696 1693.265084 " stroke="#66b0f0" stroke-width="6" stroke-opacity="1" stroke-miterlimit="10"/><g clip-path="url(#11a024a104)"><path fill="#66b0f0" d="M 32.140625 92.976562 L 32.140625 112.101562 L 11.058594 112.101562 L 11.058594 83.957031 C 11.46875 85.332031 15.882812 88.207031 21.359375 90.609375 C 27.1875 93.171875 32.019531 94.230469 32.140625 92.976562 Z M 32.140625 92.976562 " fill-opacity="1" fill-rule="nonzero"/></g><path fill="#9a3b82" d="M 32.140625 92.46875 C 32.011719 93.71875 27.1875 92.660156 21.359375 90.097656 C 15.882812 87.691406 11.46875 84.820312 11.058594 83.445312 C 11.027344 83.355469 11.019531 83.273438 11.027344 83.199219 C 11.152344 81.945312 15.980469 83.007812 21.808594 85.566406 C 27.636719 88.128906 32.265625 91.214844 32.140625 92.46875 Z M 32.140625 92.46875 " fill-opacity="1" fill-rule="nonzero"/><path fill="#a0505a" d="M 19.660156 65.039062 C 20.164062 64.011719 21.210938 63.355469 22.359375 63.355469 L 25.671875 63.355469 L 25.847656 76.632812 L 28.160156 88.835938 L 28.894531 92.714844 C 26.945312 92.285156 24.28125 91.382812 21.363281 90.105469 C 19.714844 89.378906 17.644531 88.304688 16.265625 87.546875 L 16.265625 71.390625 C 16.265625 71.171875 16.308594 70.953125 16.382812 70.746094 Z M 19.660156 65.039062 " fill-opacity="1" fill-rule="nonzero"/><path fill="#73325a" d="M 28.890625 92.714844 C 26.9375 92.285156 24.277344 91.382812 21.359375 90.105469 C 19.707031 89.378906 17.640625 88.304688 16.261719 87.546875 L 16.261719 83.488281 C 17.765625 83.96875 19.996094 84.773438 21.808594 85.566406 C 24.257812 86.640625 26.394531 87.75 28.160156 88.835938 Z M 28.890625 92.714844 " fill-opacity="1" fill-rule="nonzero"/><path stroke-linecap="butt" transform="matrix(0.0468916, 0, 0, 0.0467206, -26.170111, -25.020494)" fill-opacity="1" fill="#ffffff" fill-rule="nonzero" stroke-linejoin="miter" d="M 1437.53702 1572.116 L 1061.420113 2264.062045 C 1047.508369 2289.729933 1009.188596 2295.833372 975.867054 2277.690272 C 942.628815 2259.630781 926.884387 2224.18067 940.79613 2198.512782 L 1316.913038 1506.483128 Z M 1437.53702 1572.116 " stroke="#ffcf2d" stroke-width="5" stroke-opacity="1" stroke-miterlimit="10"/><path stroke-linecap="butt" transform="matrix(0.0223913, -0.0410499, 0.0412001, 0.0223096, -55.856077, 69.096727)" fill-opacity="1" fill="#66b0f0" fill-rule="nonzero" stroke-linejoin="miter" d="M 1429.965676 1539.488975 C 1429.964455 1548.591548 1428.644142 1557.368088 1425.964957 1565.745404 C 1423.285771 1574.12272 1419.529364 1581.568494 1414.542718 1587.976265 C 1409.595851 1594.457229 1403.887095 1599.361218 1397.422546 1602.874543 C 1390.957997 1606.387867 1384.172325 1608.084672 1377.218546 1608.071418 C 1370.191307 1608.098089 1363.442822 1606.361467 1356.973092 1602.861551 C 1350.503362 1599.361636 1344.771441 1594.417813 1339.850789 1587.990158 C 1334.930137 1581.562502 1331.099204 1574.163365 1328.431451 1565.752821 C 1325.763697 1557.342278 1324.430431 1548.58572 1324.431651 1539.483147 C 1324.432871 1530.380574 1325.753185 1521.604034 1328.43237 1513.226718 C 1331.111555 1504.849402 1334.867962 1497.403628 1339.854608 1490.995857 C 1344.841254 1484.588086 1350.510232 1479.610904 1356.974781 1476.09758 C 1363.479108 1472.657448 1370.225002 1470.887451 1377.178781 1470.900704 C 1384.20602 1470.874033 1390.954505 1472.610656 1397.424235 1476.110571 C 1403.893964 1479.610486 1409.625886 1484.554309 1414.546538 1490.981965 C 1419.46719 1497.40962 1423.298123 1504.808757 1425.965876 1513.219301 C 1428.633629 1521.629844 1429.966896 1530.386402 1429.965676 1539.488975 Z M 1429.965676 1539.488975 " stroke="#ffcf2d" stroke-width="5" stroke-opacity="1" stroke-miterlimit="10"/><path fill="#fe5244" d="M 29.714844 60.804688 L 38.046875 54.027344 L 37.917969 56.4375 L 40.585938 57.101562 L 34.507812 60.839844 C 36.140625 60.558594 38.105469 60.328125 39.722656 60.453125 C 41.648438 60.605469 41.003906 62.851562 40.28125 64.773438 C 41.96875 64.609375 47.628906 61.191406 49.761719 61.835938 C 51.066406 62.230469 50.597656 64.878906 50.222656 66.339844 C 50.765625 66.371094 53.515625 66.335938 53.515625 66.335938 L 52.0625 67.660156 L 52.859375 68.980469 C 49.765625 69.117188 49.730469 68.632812 50.117188 66.445312 C 50.183594 64.066406 47.539062 66.351562 41.90625 67.691406 C 39.117188 68.355469 39.476562 66.546875 40.167969 64.664062 C 39.890625 63.800781 37.824219 62.859375 31.179688 64.589844 Z M 29.714844 60.804688 " fill-opacity="1" fill-rule="nonzero"/><path stroke-linecap="butt" transform="matrix(0.0468916, 0, 0, 0.0467206, -26.170111, -25.020494)" fill-opacity="1" fill="#ffffff" fill-rule="nonzero" stroke-linejoin="miter" d="M 1246.937799 1872.940296 C 1246.937799 1879.879822 1245.604937 1886.568523 1242.939214 1893.006397 C 1240.273491 1899.444271 1236.441513 1905.129666 1231.526586 1910.062582 C 1226.611658 1914.91189 1220.946996 1918.757893 1214.449295 1921.433373 C 1208.034899 1924.108853 1201.37059 1925.362984 1194.373066 1925.362984 C 1187.458846 1925.362984 1180.711234 1924.108853 1174.296837 1921.433373 C 1167.88244 1918.757893 1162.217778 1914.91189 1157.302851 1910.062582 C 1152.387923 1905.129666 1148.555946 1899.444271 1145.890222 1893.006397 C 1143.224499 1886.568523 1141.891637 1879.879822 1141.891637 1872.940296 C 1141.891637 1865.91716 1143.224499 1859.22846 1145.890222 1852.790586 C 1148.555946 1846.352712 1152.387923 1840.667317 1157.302851 1835.818009 C 1162.217778 1830.885093 1167.88244 1827.03909 1174.296837 1824.36361 C 1180.711234 1821.771738 1187.458846 1820.433998 1194.373066 1820.433998 C 1201.37059 1820.433998 1208.034899 1821.771738 1214.449295 1824.36361 C 1220.946996 1827.03909 1226.611658 1830.885093 1231.526586 1835.818009 C 1236.441513 1840.667317 1240.273491 1846.352712 1242.939214 1852.790586 C 1245.604937 1859.22846 1246.937799 1865.91716 1246.937799 1872.940296 Z M 1246.937799 1872.940296 " stroke="#fe5244" stroke-width="5" stroke-opacity="1" stroke-miterlimit="10"/><path fill="#a0505a" d="M 28.988281 63.355469 L 28.988281 63.511719 C 28.988281 65.082031 27.714844 66.355469 26.132812 66.355469 L 23.136719 66.355469 L 23.136719 63.355469 Z M 28.988281 63.355469 " fill-opacity="1" fill-rule="nonzero"/><path fill="#a0505a" d="M 32.636719 69.117188 L 31.84375 70.96875 L 30.921875 73.128906 L 30.417969 74.304688 L 29.65625 76.09375 C 29.636719 76.140625 29.609375 76.191406 29.585938 76.230469 C 29.585938 76.238281 29.578125 76.238281 29.578125 76.242188 C 29.335938 76.664062 28.863281 76.925781 28.339844 76.925781 L 22.269531 76.925781 C 21.53125 76.925781 21.03125 76.226562 21.304688 75.585938 L 21.742188 74.554688 L 22.714844 72.285156 L 23.550781 70.328125 L 24.285156 68.609375 C 24.5 68.101562 25.019531 67.769531 25.601562 67.769531 L 31.675781 67.769531 C 32.40625 67.78125 32.910156 68.476562 32.636719 69.117188 Z M 32.636719 69.117188 " fill-opacity="1" fill-rule="nonzero"/><path stroke-linecap="round" transform="matrix(0.0468916, 0, 0, 0.0467206, -26.170111, -25.020494)" fill="none" stroke-linejoin="miter" d="M 1065.66861 2040.993891 C 1071.08336 2034.97406 1078.913923 2031.378884 1087.327612 2031.378884 L 1211.033837 2031.378884 C 1224.029239 2031.378884 1233.359271 2042.582457 1232.109713 2054.538509 " stroke="#73325a" stroke-width="5" stroke-opacity="1" stroke-miterlimit="10"/><path stroke-linecap="round" transform="matrix(0.0468916, 0, 0, 0.0467206, -26.170111, -25.020494)" fill="none" stroke-linejoin="miter" d="M 1048.924535 2082.881876 C 1054.172678 2077.614525 1061.503417 2074.521001 1069.417283 2074.521001 L 1193.123508 2074.521001 C 1207.285164 2074.521001 1217.115019 2087.731184 1213.532953 2100.690541 " stroke="#73325a" stroke-width="5" stroke-opacity="1" stroke-miterlimit="10"/><path stroke-linecap="round" transform="matrix(0.0468916, 0, 0, 0.0467206, -26.170111, -25.020494)" fill="none" stroke-linejoin="miter" d="M 1029.514736 2131.374953 C 1034.762879 2126.358428 1041.927011 2123.51573 1049.507662 2123.51573 L 1173.213887 2123.51573 C 1187.792062 2123.51573 1197.871828 2137.729219 1193.206812 2151.106619 " stroke="#73325a" stroke-width="5" stroke-opacity="1" stroke-miterlimit="10"/><path fill="#ffcf2d" d="M 43.078125 14.777344 C 43.46875 14.359375 43.859375 13.972656 44.242188 13.625 C 44.617188 13.800781 44.972656 14.039062 45.296875 14.335938 C 45.617188 14.636719 45.882812 14.972656 46.085938 15.332031 C 45.765625 15.738281 45.410156 16.15625 45.019531 16.570312 C 43.078125 18.648438 41.078125 19.933594 40.539062 19.4375 C 40.003906 18.945312 41.136719 16.855469 43.078125 14.777344 Z M 43.078125 14.777344 " fill-opacity="1" fill-rule="nonzero"/><path fill="#66b0f0" d="M 29.453125 31.242188 L 28.832031 31.625 C 26.585938 33.011719 22.210938 30.027344 19.066406 24.957031 C 15.914062 19.886719 15.183594 14.660156 17.425781 13.273438 L 18.0625 12.878906 L 21.855469 24 Z M 29.453125 31.242188 " fill-opacity="1" fill-rule="nonzero"/><path stroke-linecap="butt" transform="matrix(0.0468916, 0, 0, 0.0467206, -26.170111, -25.020494)" fill-opacity="1" fill="#66b0f0" fill-rule="nonzero" stroke-linejoin="miter" d="M 1320.161888 1332.493312 L 1186.209288 1204.237484 L 1024.099986 1049.059637 L 943.211942 811.192733 L 870.904196 598.492064 L 1207.618379 869.802469 Z M 1320.161888 1332.493312 " stroke="#ffffff" stroke-width="6" stroke-opacity="1" stroke-miterlimit="10"/><path stroke-linecap="butt" transform="matrix(0.0468916, 0, 0, 0.0467206, -26.170111, -25.020494)" fill="none" stroke-linejoin="miter" d="M 1330.741478 1319.784782 L 1218.8644 857.930026 L 877.985023 589.37871 " stroke="#9a3b82" stroke-width="6" stroke-opacity="1" stroke-miterlimit="10"/><path stroke-linecap="butt" transform="matrix(0.0468916, 0, 0, 0.0467206, -26.170111, -25.020494)" fill="none" stroke-linejoin="miter" d="M 1142.308157 1005.415868 C 1133.72786 969.798539 1155.636773 933.930384 1191.20752 925.318682 C 1225.028885 917.125024 1259.26677 936.438646 1269.929663 969.380495 L 1298.003062 1060.095993 C 1313.497579 1110.261245 1385.805326 1106.415242 1395.885092 1054.828641 L 1412.129344 971.470714 " stroke="#ffcf2d" stroke-width="6" stroke-opacity="1" stroke-miterlimit="10"/><path stroke-linecap="butt" transform="matrix(0.0468916, 0, 0, 0.0467206, -26.170111, -25.020494)" fill="none" stroke-linejoin="miter" d="M 1428.040381 961.68849 C 1428.040381 965.03284 1426.790823 967.875537 1424.458315 970.216583 C 1422.125807 972.641236 1419.210172 973.811759 1415.878018 973.811759 C 1412.545864 973.811759 1409.713532 972.641236 1407.381025 970.216583 C 1404.965213 967.875537 1403.798959 965.03284 1403.798959 961.68849 C 1403.798959 958.34414 1404.965213 955.501442 1407.381025 953.160397 C 1409.713532 950.819352 1412.545864 949.56522 1415.878018 949.56522 C 1419.210172 949.56522 1422.125807 950.819352 1424.458315 953.160397 C 1426.790823 955.501442 1428.040381 958.34414 1428.040381 961.68849 Z M 1428.040381 961.68849 " stroke="#66b0f0" stroke-width="6" stroke-opacity="1" stroke-miterlimit="10"/></svg>