<svg xmlns="http://www.w3.org/2000/svg" xmlns:xlink="http://www.w3.org/1999/xlink" width="500" zoomAndPan="magnify" viewBox="0 0 375 374.999991" height="500" preserveAspectRatio="xMidYMid meet" version="1.0"><path fill="#ffffff" d="M 362.316406 78.773438 C 351.960938 53.6875 327.78125 41.8125 312.328125 34.21875 C 251.421875 4.296875 158.925781 7.742188 92.367188 62.207031 C 76.792969 74.953125 0.03125 141.730469 17.964844 232.234375 C 33.820312 312.242188 113.867188 359.332031 180.832031 365.539062 C 236.316406 370.6875 308.25 349.914062 333.828125 301.128906 C 349.910156 270.449219 330.558594 260.691406 343.683594 191.167969 C 355.042969 130.992188 374.984375 109.457031 362.316406 78.773438 " fill-opacity="1" fill-rule="nonzero"/><path fill="#99b9ff" d="M 333.675781 197.664062 C 327.492188 198.179688 322.0625 193.585938 321.550781 187.402344 C 321.035156 181.222656 325.628906 175.792969 331.808594 175.277344 C 337.992188 174.761719 343.421875 179.355469 343.9375 185.535156 C 344.453125 191.71875 339.859375 197.148438 333.675781 197.664062 Z M 355.417969 186.769531 L 355.054688 182.421875 L 350.335938 181.761719 C 350.070312 180.769531 349.730469 179.8125 349.316406 178.898438 L 352.53125 175.390625 L 350.042969 171.804688 L 345.625 173.597656 C 344.90625 172.878906 344.132812 172.222656 343.304688 171.636719 L 344.339844 166.980469 L 340.394531 165.121094 L 337.464844 168.875 C 336.496094 168.613281 335.496094 168.433594 334.472656 168.339844 L 333.042969 163.792969 L 328.695312 164.15625 L 328.035156 168.875 C 327.042969 169.140625 326.085938 169.480469 325.171875 169.898438 L 321.664062 166.683594 L 318.078125 169.171875 L 319.867188 173.589844 C 319.152344 174.304688 318.496094 175.082031 317.90625 175.90625 L 313.253906 174.875 L 311.394531 178.820312 L 315.148438 181.75 C 314.886719 182.71875 314.710938 183.71875 314.613281 184.742188 L 310.066406 186.171875 L 310.425781 190.519531 L 315.148438 191.179688 C 315.414062 192.171875 315.753906 193.128906 316.171875 194.042969 L 312.953125 197.550781 L 315.441406 201.136719 L 319.863281 199.34375 C 320.578125 200.0625 321.355469 200.71875 322.179688 201.304688 L 321.144531 205.957031 L 325.09375 207.820312 L 328.019531 204.066406 C 328.988281 204.328125 329.992188 204.503906 331.011719 204.601562 L 332.441406 209.148438 L 336.792969 208.785156 L 337.453125 204.066406 C 338.445312 203.800781 339.402344 203.457031 340.3125 203.039062 L 343.820312 206.257812 L 347.40625 203.769531 L 345.617188 199.351562 C 346.332031 198.636719 346.988281 197.859375 347.578125 197.035156 L 352.234375 198.066406 L 354.09375 194.121094 L 350.339844 191.191406 C 350.597656 190.222656 350.777344 189.222656 350.875 188.199219 L 355.417969 186.769531 " fill-opacity="1" fill-rule="nonzero"/><path fill="#99b9ff" d="M 280.527344 183.949219 C 271.847656 185.667969 263.417969 180.027344 261.699219 171.34375 C 259.980469 162.667969 265.621094 154.238281 274.300781 152.515625 C 282.980469 150.796875 291.410156 156.4375 293.128906 165.117188 C 294.851562 173.796875 289.207031 182.226562 280.527344 183.949219 Z M 309.601562 165.027344 L 308.390625 158.921875 L 301.597656 158.742188 C 301.0625 157.378906 300.429688 156.078125 299.691406 154.851562 L 303.6875 149.363281 L 299.585938 144.679688 L 293.613281 147.925781 C 292.480469 147.023438 291.277344 146.21875 290.011719 145.515625 L 290.734375 138.753906 L 284.839844 136.75 L 281.292969 142.539062 C 279.878906 142.324219 278.429688 142.234375 276.964844 142.257812 L 274.210938 136.046875 L 268.105469 137.253906 L 267.925781 144.050781 C 266.5625 144.582031 265.261719 145.222656 264.03125 145.957031 L 258.546875 141.960938 L 253.863281 146.058594 L 257.105469 152.035156 C 256.207031 153.167969 255.398438 154.371094 254.699219 155.632812 L 247.9375 154.914062 L 245.933594 160.808594 L 251.722656 164.355469 C 251.507812 165.769531 251.414062 167.21875 251.441406 168.679688 L 245.226562 171.4375 L 246.4375 177.542969 L 253.234375 177.71875 C 253.765625 179.085938 254.402344 180.386719 255.140625 181.613281 L 251.144531 187.101562 L 255.242188 191.78125 L 261.21875 188.542969 C 262.351562 189.441406 263.554688 190.246094 264.816406 190.949219 L 264.097656 197.710938 L 269.988281 199.714844 L 273.535156 193.925781 C 274.953125 194.140625 276.402344 194.234375 277.863281 194.207031 L 280.621094 200.421875 L 286.726562 199.210938 L 286.902344 192.414062 C 288.265625 191.878906 289.570312 191.242188 290.796875 190.507812 L 296.285156 194.503906 L 300.964844 190.40625 L 297.722656 184.429688 C 298.625 183.296875 299.429688 182.09375 300.132812 180.828125 L 306.894531 181.546875 L 308.898438 175.65625 L 303.109375 172.109375 C 303.324219 170.695312 303.414062 169.246094 303.386719 167.785156 L 309.601562 165.027344 " fill-opacity="1" fill-rule="nonzero"/><path fill="#ffffff" d="M 23.179688 111.796875 C 23.265625 108.53125 23.972656 86.84375 31.660156 76.996094 C 32.726562 75.628906 34.386719 73.5 37.21875 72.394531 C 42.867188 70.195312 45.832031 74.945312 50.230469 73.445312 C 56.027344 71.46875 53.992188 62.140625 62.9375 53.355469 C 65.082031 51.25 68.421875 47.972656 73.113281 47.507812 C 78.351562 46.992188 79.882812 50.519531 84.859375 50.496094 C 91.0625 50.464844 92.570312 44.960938 99.695312 41.675781 C 107.199219 38.214844 119.269531 37.988281 125.1875 45.398438 C 130.347656 51.855469 128.878906 61.671875 126.132812 67.703125 C 122.074219 76.609375 113.210938 81.703125 105.648438 82.683594 C 94.777344 84.089844 87.164062 76.929688 84.558594 80.03125 C 82.132812 82.917969 88.632812 89.25 85.765625 95.320312 C 83.765625 99.558594 77.914062 102.160156 73.214844 101.574219 C 66.699219 100.761719 65.328125 94.191406 61.015625 94.789062 C 56.496094 95.410156 55.90625 102.925781 50.863281 107.957031 C 46.703125 112.105469 38.910156 115.164062 23.179688 111.796875 " fill-opacity="1" fill-rule="nonzero"/><path fill="#5479f7" d="M 34.902344 105.351562 C 34.730469 105.351562 34.558594 105.285156 34.433594 105.148438 C 34.195312 104.890625 34.214844 104.488281 34.472656 104.253906 C 50.863281 89.160156 69.148438 76.765625 88.820312 67.40625 C 95.175781 64.382812 101.761719 61.640625 108.402344 59.25 C 108.734375 59.128906 109.097656 59.300781 109.214844 59.632812 C 109.332031 59.960938 109.164062 60.324219 108.832031 60.445312 C 102.230469 62.820312 95.683594 65.546875 89.363281 68.554688 C 69.808594 77.855469 51.628906 90.179688 35.332031 105.1875 C 35.210938 105.296875 35.054688 105.351562 34.902344 105.351562 " fill-opacity="1" fill-rule="nonzero"/><path fill="#99b9ff" d="M 22.90625 120.667969 C 21.554688 84.789062 28.597656 72.125 36 67.570312 C 38.207031 66.207031 43.035156 63.960938 47.558594 58.550781 C 53.429688 51.539062 53.09375 46.027344 56.011719 39.433594 C 61.71875 26.539062 76.214844 17.765625 89.1875 15.90625 C 98.25 14.609375 114.316406 15.570312 120.328125 25.933594 C 122.871094 30.3125 124.300781 37.554688 121.023438 41.074219 C 116.332031 46.113281 105.976562 38.238281 97.246094 44.058594 C 92.484375 47.234375 94.183594 50.46875 89.097656 53.792969 C 81.082031 59.039062 73.128906 53.449219 69.339844 57.921875 C 65.671875 62.253906 72.265625 68.664062 68.609375 74.636719 C 64.4375 81.453125 53.269531 78.1875 50.019531 85.0625 C 48.085938 89.152344 51.648438 91.152344 49.929688 96.113281 C 47.839844 102.152344 41.425781 102.488281 32.90625 109.324219 C 28.125 113.15625 25.097656 117.378906 22.90625 120.667969 " fill-opacity="1" fill-rule="nonzero"/><path fill="#ffffff" d="M 23.796875 118.039062 C 23.734375 118.039062 23.667969 118.03125 23.605469 118.011719 C 23.273438 117.90625 23.085938 117.550781 23.191406 117.214844 C 31.652344 90.25 46.878906 64.078125 63.921875 47.207031 C 86.550781 24.796875 107.382812 23.90625 107.589844 23.902344 C 107.933594 23.875 108.234375 24.164062 108.246094 24.515625 C 108.257812 24.867188 107.980469 25.160156 107.628906 25.171875 C 107.425781 25.175781 87.0625 26.078125 64.8125 48.105469 C 47.914062 64.84375 32.804688 90.820312 24.402344 117.59375 C 24.316406 117.863281 24.066406 118.039062 23.796875 118.039062 " fill-opacity="1" fill-rule="nonzero"/><path fill="#5479f7" d="M 24.179688 278.929688 L 231.324219 219.789062 C 236.523438 218.363281 240.421875 213.367188 240.421875 208.125 L 243.265625 63.222656 C 243.265625 63.222656 238.542969 60.511719 235.867188 59.597656 C 234.503906 59.132812 232.9375 59.074219 231.304688 59.519531 L 24.777344 116.097656 C 19.578125 117.523438 15.679688 122.519531 15.679688 127.761719 L 15.679688 269.671875 C 15.679688 272.210938 16.839844 274.28125 18.636719 275.496094 C 20.289062 276.613281 24.179688 278.929688 24.179688 278.929688 " fill-opacity="1" fill-rule="nonzero"/><path fill="#99b9ff" d="M 30.519531 279.917969 L 237.4375 223.230469 C 242.648438 221.800781 246.554688 216.796875 246.554688 211.542969 L 246.554688 69.363281 C 246.554688 64.476562 242.265625 61.328125 237.421875 62.65625 L 30.5 119.34375 C 25.289062 120.769531 21.386719 125.777344 21.386719 131.03125 L 21.386719 273.210938 C 21.386719 278.097656 25.671875 281.246094 30.519531 279.917969 " fill-opacity="1" fill-rule="nonzero"/><path fill="#ffffff" d="M 220.839844 211.515625 L 47.101562 259.265625 C 42.527344 260.523438 38.785156 257.808594 38.785156 253.234375 L 38.785156 141.660156 C 38.785156 137.085938 42.527344 132.316406 47.101562 131.058594 L 220.839844 83.308594 C 225.414062 82.050781 229.15625 84.765625 229.15625 89.339844 L 229.15625 200.914062 C 229.15625 205.488281 225.414062 210.261719 220.839844 211.515625 " fill-opacity="1" fill-rule="nonzero"/><path fill="#ffffff" d="M 162.371094 133.804688 L 69.441406 157.621094 C 64.203125 158.960938 59.917969 155.777344 59.917969 150.539062 C 59.917969 145.300781 64.203125 139.917969 69.441406 138.578125 L 162.371094 114.761719 C 167.605469 113.417969 171.890625 116.605469 171.890625 121.84375 C 171.890625 127.078125 167.605469 132.460938 162.371094 133.804688 " fill-opacity="1" fill-rule="nonzero"/><path fill="#ffffff" d="M 202.425781 155.355469 L 59.917969 191.875 L 59.917969 174.441406 L 202.425781 137.917969 L 202.425781 155.355469 " fill-opacity="1" fill-rule="nonzero"/><path fill="#99b9ff" d="M 77.351562 187.40625 L 59.917969 191.875 L 59.917969 174.441406 L 77.351562 169.972656 L 77.351562 187.40625 " fill-opacity="1" fill-rule="nonzero"/><path fill="#ffffff" d="M 72.621094 176.511719 C 72.621094 178.710938 70.835938 180.953125 68.636719 181.519531 C 66.433594 182.082031 64.648438 180.753906 64.648438 178.554688 C 64.648438 176.351562 66.433594 174.109375 68.636719 173.546875 C 70.835938 172.984375 72.621094 174.308594 72.621094 176.511719 " fill-opacity="1" fill-rule="nonzero"/><path fill="#ffffff" d="M 73.484375 187.058594 L 73.484375 185.523438 C 73.484375 182.855469 71.300781 181.234375 68.636719 181.917969 C 65.96875 182.601562 63.785156 185.34375 63.785156 188.011719 L 63.785156 189.542969 L 73.484375 187.058594 " fill-opacity="1" fill-rule="nonzero"/><path fill="#99b9ff" d="M 93.121094 174.648438 C 93.121094 177.210938 91.042969 179.824219 88.476562 180.480469 C 85.914062 181.136719 83.835938 179.589844 83.835938 177.027344 C 83.835938 174.464844 85.914062 171.851562 88.476562 171.195312 C 91.042969 170.539062 93.121094 172.082031 93.121094 174.648438 " fill-opacity="1" fill-rule="nonzero"/><path fill="#99b9ff" d="M 105.285156 171.53125 C 105.285156 174.09375 103.203125 176.707031 100.640625 177.363281 C 98.078125 178.019531 96 176.472656 96 173.910156 C 96 171.347656 98.078125 168.734375 100.640625 168.078125 C 103.203125 167.421875 105.285156 168.96875 105.285156 171.53125 " fill-opacity="1" fill-rule="nonzero"/><path fill="#99b9ff" d="M 117.566406 168.382812 C 117.566406 170.945312 115.488281 173.558594 112.925781 174.214844 C 110.359375 174.875 108.28125 173.328125 108.28125 170.761719 C 108.28125 168.199219 110.359375 165.585938 112.925781 164.929688 C 115.488281 164.273438 117.566406 165.820312 117.566406 168.382812 " fill-opacity="1" fill-rule="nonzero"/><path fill="#99b9ff" d="M 130.089844 165.175781 C 130.089844 167.738281 128.011719 170.347656 125.449219 171.007812 C 122.882812 171.664062 120.804688 170.117188 120.804688 167.554688 C 120.804688 164.988281 122.882812 162.378906 125.449219 161.722656 C 128.011719 161.0625 130.089844 162.609375 130.089844 165.175781 " fill-opacity="1" fill-rule="nonzero"/><path fill="#99b9ff" d="M 142.976562 161.871094 C 142.976562 164.4375 140.898438 167.046875 138.332031 167.703125 C 135.769531 168.359375 133.691406 166.816406 133.691406 164.25 C 133.691406 161.6875 135.769531 159.074219 138.332031 158.421875 C 140.898438 157.761719 142.976562 159.308594 142.976562 161.871094 " fill-opacity="1" fill-rule="nonzero"/><path fill="#ffffff" d="M 202.425781 187.167969 L 59.917969 223.6875 L 59.917969 206.253906 L 202.425781 169.734375 L 202.425781 187.167969 " fill-opacity="1" fill-rule="nonzero"/><path fill="#000000" d="M 77.351562 219.21875 L 59.917969 223.6875 L 59.917969 206.253906 L 77.351562 201.789062 L 77.351562 219.21875 " fill-opacity="1" fill-rule="nonzero"/><path fill="#ffffff" d="M 66.085938 212.617188 L 66.15625 209.445312 C 66.1875 208.421875 67.097656 207.347656 68.238281 207.003906 C 69.5 206.625 70.539062 207.273438 70.503906 208.402344 L 70.503906 211.621094 C 70.492188 211.964844 71.898438 211.707031 71.902344 211.390625 L 71.820312 208.132812 C 71.875 206.3125 70.265625 205.253906 68.175781 205.875 C 66.449219 206.386719 64.863281 208.15625 64.8125 209.816406 L 64.753906 213.011719 L 66.085938 212.617188 " fill-opacity="1" fill-rule="nonzero"/><path fill="#ffffff" d="M 68.234375 219.929688 C 70.832031 219.261719 73.238281 217.007812 72.984375 213.859375 L 72.949219 210.289062 C 72.945312 210.011719 72.730469 209.851562 72.457031 209.921875 L 64.65625 211.921875 C 64.277344 212.019531 63.957031 212.425781 63.960938 212.8125 L 64 216.773438 C 64.023438 219.152344 65.875 220.535156 68.234375 219.929688 " fill-opacity="1" fill-rule="nonzero"/><path fill="#000000" d="M 68.484375 217.289062 C 68.695312 217.234375 68.875 217.007812 68.871094 216.796875 L 68.851562 213.632812 C 68.851562 213.441406 68.699219 213.324219 68.507812 213.375 C 68.292969 213.429688 68.117188 213.65625 68.117188 213.871094 L 68.136719 217.027344 C 68.140625 217.222656 68.292969 217.335938 68.484375 217.289062 " fill-opacity="1" fill-rule="nonzero"/><path fill="#000000" d="M 67.191406 214.347656 C 67.148438 215.113281 67.71875 215.578125 68.464844 215.390625 C 69.207031 215.199219 69.847656 214.421875 69.890625 213.65625 C 69.933594 212.890625 69.363281 212.425781 68.617188 212.617188 C 67.875 212.804688 67.234375 213.582031 67.191406 214.347656 " fill-opacity="1" fill-rule="nonzero"/><path fill="#000000" d="M 94.246094 206.777344 C 94.246094 209.34375 92.167969 211.953125 89.605469 212.609375 C 87.039062 213.265625 84.960938 211.722656 84.960938 209.160156 C 84.960938 206.59375 87.039062 203.980469 89.605469 203.328125 C 92.167969 202.667969 94.246094 204.214844 94.246094 206.777344 " fill-opacity="1" fill-rule="nonzero"/><path fill="#000000" d="M 106.410156 203.664062 C 106.410156 206.226562 104.332031 208.835938 101.765625 209.496094 C 99.203125 210.148438 97.125 208.605469 97.125 206.039062 C 97.125 203.476562 99.203125 200.863281 101.765625 200.210938 C 104.332031 199.550781 106.410156 201.097656 106.410156 203.664062 " fill-opacity="1" fill-rule="nonzero"/><path fill="#000000" d="M 110.171875 208.457031 C 109.820312 208.457031 109.535156 208.171875 109.535156 207.824219 L 109.535156 196.363281 C 109.535156 196.011719 109.820312 195.726562 110.171875 195.726562 C 110.519531 195.726562 110.804688 196.011719 110.804688 196.363281 L 110.804688 207.824219 C 110.804688 208.171875 110.519531 208.457031 110.171875 208.457031 " fill-opacity="1" fill-rule="nonzero"/><path fill="#5479f7" d="M 150.992188 342.890625 L 363.394531 284.398438 C 365.058594 283.941406 365.996094 282.410156 365.972656 281.023438 C 365.957031 280.066406 365.878906 273.3125 365.878906 273.3125 L 253.570312 225.558594 C 247.945312 223.164062 240.664062 222.992188 234.234375 224.753906 L 24.515625 282.515625 C 23.25 282.867188 22.167969 283.84375 21.667969 285.085938 L 21.332031 285.925781 C 21.332031 285.925781 21.511719 291.539062 21.4375 292.867188 C 21.382812 293.902344 21.84375 294.898438 22.925781 295.359375 L 132.414062 341.929688 C 138.042969 344.316406 144.5625 344.65625 150.992188 342.890625 " fill-opacity="1" fill-rule="nonzero"/><path fill="#ffffff" d="M 150.992188 335.367188 L 362.636719 277.035156 C 365.445312 276.265625 366.183594 272.429688 363.722656 271.386719 L 254.820312 225.132812 C 249.195312 222.742188 242.671875 222.40625 236.246094 224.171875 L 24.601562 282.5 C 21.792969 283.273438 21.050781 287.105469 23.511719 288.152344 L 132.414062 334.402344 C 138.042969 336.792969 144.5625 337.128906 150.992188 335.367188 " fill-opacity="1" fill-rule="nonzero"/><path fill="#000000" d="M 150.992188 335.367188 Z M 244.332031 223.699219 C 241.71875 223.699219 239.046875 224.058594 236.414062 224.78125 L 24.769531 283.113281 C 23.414062 283.484375 22.726562 284.695312 22.664062 285.664062 C 22.632812 286.082031 22.683594 287.109375 23.761719 287.566406 L 132.664062 333.820312 C 138.121094 336.136719 144.570312 336.472656 150.820312 334.753906 L 362.46875 276.425781 C 363.820312 276.050781 364.507812 274.839844 364.574219 273.871094 C 364.601562 273.453125 364.550781 272.425781 363.476562 271.96875 L 254.574219 225.71875 C 251.414062 224.375 247.925781 223.699219 244.332031 223.699219 Z M 142.902344 337.105469 C 139.140625 337.105469 135.484375 336.394531 132.164062 334.988281 L 23.265625 288.734375 C 22.015625 288.207031 21.300781 286.996094 21.394531 285.578125 C 21.492188 284.128906 22.46875 282.425781 24.433594 281.886719 L 236.078125 223.558594 C 242.601562 221.765625 249.34375 222.121094 255.066406 224.550781 L 363.972656 270.800781 C 365.21875 271.332031 365.933594 272.542969 365.839844 273.957031 C 365.742188 275.40625 364.765625 277.109375 362.800781 277.648438 L 151.160156 335.976562 C 151.15625 335.976562 151.15625 335.976562 151.15625 335.976562 C 148.414062 336.730469 145.632812 337.105469 142.902344 337.105469 " fill-opacity="1" fill-rule="nonzero"/><path fill="#99b9ff" d="M 109.550781 306.910156 L 293.074219 256.15625 C 295.613281 255.460938 296.28125 251.996094 294.058594 251.050781 L 250.90625 232.972656 C 245.824219 230.816406 239.933594 230.511719 234.128906 232.105469 L 50.605469 282.859375 C 48.070312 283.554688 47.402344 287.015625 49.621094 287.960938 L 92.773438 306.039062 C 97.855469 308.195312 103.746094 308.503906 109.550781 306.910156 " fill-opacity="1" fill-rule="nonzero"/><path fill="#99b9ff" d="M 214.933594 306.269531 L 259.230469 294.113281 C 260.371094 293.800781 260.667969 292.242188 259.667969 291.820312 L 240.277344 283.695312 C 237.992188 282.722656 235.347656 282.585938 232.738281 283.304688 L 188.445312 295.464844 C 187.304688 295.777344 187.003906 297.332031 188.003906 297.757812 L 207.394531 305.878906 C 209.679688 306.851562 212.324219 306.988281 214.933594 306.269531 " fill-opacity="1" fill-rule="nonzero"/><path fill="#ffffff" d="M 124.03125 259.472656 L 118.511719 282.710938 L 125.339844 284.65625 L 137.214844 262.160156 L 124.03125 259.472656 " fill-opacity="1" fill-rule="nonzero"/><path fill="#000000" d="M 119.269531 282.265625 L 125.015625 283.90625 L 136.257812 262.609375 L 124.503906 260.21875 Z M 125.339844 285.292969 C 125.28125 285.292969 125.222656 285.285156 125.164062 285.265625 L 118.335938 283.320312 C 118.011719 283.226562 117.816406 282.894531 117.894531 282.5625 L 123.410156 259.328125 C 123.492188 258.992188 123.820312 258.785156 124.15625 258.851562 L 137.34375 261.535156 C 137.539062 261.574219 137.703125 261.707031 137.789062 261.886719 C 137.875 262.066406 137.871094 262.277344 137.777344 262.453125 L 125.898438 284.953125 C 125.789062 285.164062 125.570312 285.292969 125.339844 285.292969 " fill-opacity="1" fill-rule="nonzero"/><path fill="#ffffff" d="M 94.074219 304.433594 C 102.792969 302.898438 119.566406 299.0625 130.878906 292.925781 C 132.1875 292.214844 132.417969 290.714844 132.382812 289.160156 C 132.296875 285.59375 131.605469 281.144531 130.78125 278.515625 C 130.527344 277.710938 129.589844 277.3125 128.921875 277.726562 L 125.859375 279.628906 L 125.613281 275.144531 C 125.613281 275.144531 121.867188 272.039062 115.132812 275.480469 C 115.132812 275.480469 101.507812 289.292969 93.890625 297.394531 C 90.421875 301.085938 91.328125 304.914062 94.074219 304.433594 " fill-opacity="1" fill-rule="nonzero"/><path fill="#000000" d="M 115.511719 276 C 114.425781 277.101562 101.59375 290.132812 94.355469 297.828125 C 92.375 299.933594 91.925781 302.121094 92.503906 303.195312 C 92.859375 303.851562 93.496094 303.890625 93.960938 303.808594 C 105.070312 301.851562 120.523438 297.820312 130.578125 292.367188 C 131.429688 291.90625 131.789062 290.921875 131.746094 289.175781 C 131.667969 285.757812 131.007812 281.355469 130.175781 278.707031 C 130.109375 278.492188 129.941406 278.316406 129.730469 278.238281 C 129.632812 278.203125 129.4375 278.15625 129.257812 278.269531 L 126.195312 280.167969 C 126.003906 280.285156 125.765625 280.292969 125.566406 280.1875 C 125.367188 280.085938 125.238281 279.882812 125.226562 279.660156 L 124.996094 275.484375 C 124.160156 274.941406 120.902344 273.285156 115.511719 276 Z M 93.621094 305.109375 C 92.65625 305.109375 91.84375 304.640625 91.386719 303.796875 C 90.59375 302.320312 90.914062 299.636719 93.429688 296.960938 C 100.964844 288.949219 114.542969 275.175781 114.679688 275.035156 C 114.726562 274.988281 114.78125 274.949219 114.84375 274.914062 C 121.867188 271.328125 125.851562 274.519531 126.019531 274.65625 C 126.15625 274.769531 126.238281 274.933594 126.246094 275.109375 L 126.433594 278.523438 L 128.585938 277.1875 C 129.054688 276.898438 129.632812 276.847656 130.171875 277.046875 C 130.75 277.261719 131.203125 277.738281 131.386719 278.324219 C 132.25 281.074219 132.933594 285.625 133.015625 289.144531 C 133.050781 290.5625 132.898438 292.554688 131.183594 293.484375 C 120.996094 299.007812 105.390625 303.085938 94.183594 305.058594 L 94.074219 304.433594 L 94.183594 305.058594 C 93.992188 305.09375 93.804688 305.109375 93.621094 305.109375 " fill-opacity="1" fill-rule="nonzero"/><path fill="#000000" d="M 94.148438 300.925781 C 93.851562 300.925781 93.589844 300.714844 93.527344 300.417969 C 93.457031 300.074219 93.675781 299.738281 94.019531 299.667969 C 94.164062 299.636719 108.539062 296.664062 120.925781 292.222656 C 121.257812 292.105469 121.621094 292.277344 121.738281 292.605469 C 121.859375 292.933594 121.6875 293.300781 121.355469 293.417969 C 108.878906 297.890625 94.421875 300.882812 94.277344 300.914062 C 94.234375 300.921875 94.191406 300.925781 94.148438 300.925781 " fill-opacity="1" fill-rule="nonzero"/><path fill="#ffffff" d="M 135.285156 288.449219 L 117.359375 296.136719 L 123.738281 305.75 C 123.738281 305.75 136.992188 302.644531 143.765625 300.765625 L 135.285156 288.449219 " fill-opacity="1" fill-rule="nonzero"/><path fill="#000000" d="M 118.308594 296.417969 L 124.023438 305.03125 C 126.246094 304.507812 136.582031 302.058594 142.738281 300.390625 L 135.054688 289.238281 Z M 123.738281 306.386719 C 123.527344 306.386719 123.328125 306.28125 123.207031 306.101562 L 116.832031 296.488281 C 116.726562 296.332031 116.699219 296.136719 116.75 295.953125 C 116.804688 295.773438 116.9375 295.628906 117.109375 295.550781 L 135.035156 287.863281 C 135.3125 287.746094 135.636719 287.839844 135.808594 288.089844 L 144.289062 300.40625 C 144.40625 300.574219 144.433594 300.789062 144.363281 300.984375 C 144.292969 301.175781 144.132812 301.324219 143.9375 301.378906 C 137.226562 303.234375 124.015625 306.339844 123.882812 306.367188 C 123.835938 306.378906 123.785156 306.386719 123.738281 306.386719 " fill-opacity="1" fill-rule="nonzero"/><path fill="#ffffff" d="M 87.832031 275.695312 C 87.832031 275.695312 89.765625 270.976562 104.484375 281.324219 C 111.253906 286.082031 118.652344 289.445312 122.515625 291.046875 C 124.101562 291.703125 125.148438 293.308594 125.066406 294.960938 L 124.746094 301.253906 L 128.917969 302.179688 C 130.652344 302.5625 131.667969 304.5 130.925781 306.011719 C 129.570312 308.765625 126.105469 314.785156 120.636719 315.507812 L 87.832031 275.695312 " fill-opacity="1" fill-rule="nonzero"/><path fill="#000000" d="M 88.65625 275.695312 L 120.898438 314.824219 C 125.632812 313.976562 128.84375 308.796875 130.355469 305.730469 C 130.605469 305.222656 130.597656 304.605469 130.324219 304.035156 C 130.023438 303.40625 129.445312 302.941406 128.78125 302.796875 L 124.609375 301.875 C 124.304688 301.808594 124.097656 301.53125 124.113281 301.222656 L 124.429688 294.929688 C 124.5 293.542969 123.613281 292.1875 122.273438 291.632812 C 118.425781 290.035156 110.949219 286.644531 104.121094 281.84375 C 94.835938 275.316406 90.902344 274.984375 89.386719 275.363281 C 89.035156 275.449219 88.804688 275.578125 88.65625 275.695312 Z M 120.636719 316.140625 C 120.449219 316.140625 120.269531 316.058594 120.148438 315.910156 L 87.34375 276.101562 C 87.195312 275.917969 87.15625 275.671875 87.246094 275.457031 C 87.285156 275.363281 87.652344 274.546875 88.929688 274.171875 C 91.015625 273.5625 95.476562 274.214844 104.851562 280.804688 C 111.582031 285.535156 118.960938 288.882812 122.757812 290.460938 C 124.585938 291.21875 125.796875 293.082031 125.699219 294.992188 L 125.40625 300.75 L 129.054688 301.558594 C 130.097656 301.789062 131 302.507812 131.46875 303.488281 C 131.910156 304.40625 131.917969 305.429688 131.492188 306.292969 C 129.835938 309.65625 126.230469 315.410156 120.722656 316.136719 C 120.695312 316.140625 120.667969 316.140625 120.636719 316.140625 " fill-opacity="1" fill-rule="nonzero"/><path fill="#ffffff" d="M 87.832031 275.695312 C 87.832031 275.695312 85.03125 276.269531 87.015625 280.9375 C 89.003906 285.609375 107.503906 308.863281 114.335938 313.390625 C 121.40625 318.074219 121.832031 314.601562 121.296875 312.511719 C 120.757812 310.425781 93.835938 271.65625 87.832031 275.695312 " fill-opacity="1" fill-rule="nonzero"/><path fill="#000000" d="M 87.832031 275.695312 L 87.835938 275.695312 Z M 87.96875 276.316406 C 87.9375 276.324219 87.4375 276.457031 87.152344 277.023438 C 86.878906 277.570312 86.734375 278.648438 87.601562 280.691406 C 89.648438 285.5 108.144531 308.527344 114.6875 312.863281 C 118.703125 315.523438 120.019531 315.179688 120.402344 314.910156 C 120.9375 314.527344 120.886719 313.464844 120.683594 312.671875 C 120.425781 311.84375 115.15625 303.8125 108.160156 294.796875 C 99.820312 284.050781 93.320312 277.457031 89.855469 276.234375 C 89.121094 275.976562 88.5625 275.972656 88.1875 276.222656 C 88.121094 276.269531 88.046875 276.300781 87.96875 276.316406 Z M 119.703125 316.363281 C 118.335938 316.363281 116.445312 315.550781 113.988281 313.921875 C 106.773438 309.140625 88.386719 285.773438 86.433594 281.1875 C 85.570312 279.160156 85.441406 277.554688 86.039062 276.410156 C 86.507812 275.515625 87.261719 275.203125 87.574219 275.109375 C 88.316406 274.660156 89.273438 274.65625 90.421875 275.089844 C 99.605469 278.578125 121.480469 310.675781 121.910156 312.355469 C 122.324219 313.960938 122.035156 315.304688 121.136719 315.945312 C 120.746094 316.222656 120.269531 316.363281 119.703125 316.363281 " fill-opacity="1" fill-rule="nonzero"/><path fill="#000000" d="M 120.359375 263.484375 C 126.207031 264.882812 132.058594 266.28125 137.90625 267.683594 C 141.164062 261.328125 146 252.6875 152.765625 243.019531 C 161.683594 230.265625 164.164062 229.71875 165.589844 229.667969 C 176.511719 229.257812 180.222656 255.667969 198.285156 263.636719 C 217.316406 272.027344 245.492188 256.96875 245.074219 244.066406 C 244.773438 234.84375 230.152344 235.644531 204.667969 210.9375 C 194.851562 201.425781 186.75 191.347656 172.839844 188.183594 C 166.25 186.683594 161.621094 187.476562 160.316406 187.726562 C 155.574219 188.648438 148.027344 191.523438 139.308594 204.679688 C 125.785156 225.082031 121.707031 251.714844 120.359375 263.484375 " fill-opacity="1" fill-rule="nonzero"/><path fill="#000000" d="M 238.476562 236.210938 C 237.210938 236.738281 196.261719 253.980469 180.191406 261.351562 C 164.164062 268.707031 130.710938 288.015625 130.710938 288.015625 L 139.792969 303.175781 C 139.792969 303.175781 167.058594 297.480469 178.964844 292.609375 C 190.871094 287.738281 199.125 280.832031 211.949219 280.429688 C 224.777344 280.023438 271.734375 275.707031 280.582031 262.546875 C 289.429688 249.390625 283.585938 244.179688 283.585938 244.179688 L 238.476562 236.210938 " fill-opacity="1" fill-rule="nonzero"/><path fill="#5479f7" d="M 196.9375 223.90625 C 193.660156 222.132812 192.304688 218.082031 193.976562 215.066406 C 199.242188 205.542969 209.625 186.128906 211.949219 176.984375 C 215.097656 164.609375 223.640625 158.402344 230.851562 158.226562 C 237.21875 158.078125 265.324219 161.757812 282.527344 165.140625 C 285.808594 165.785156 292.394531 171.101562 292.25 174.378906 C 291.511719 190.863281 284.816406 235.734375 279.410156 244.226562 C 272.835938 254.550781 242.589844 241.445312 232.101562 239.71875 C 224.535156 238.476562 206.433594 229.058594 196.9375 223.90625 " fill-opacity="1" fill-rule="nonzero"/><path fill="#000000" d="M 223.796875 232.75 C 223.777344 232.75 223.757812 232.75 223.738281 232.75 C 223.386719 232.71875 223.132812 232.410156 223.160156 232.058594 C 224.371094 218.863281 222.726562 204.097656 221.140625 194.035156 C 221.082031 193.6875 221.320312 193.363281 221.667969 193.308594 C 222.011719 193.253906 222.335938 193.492188 222.394531 193.835938 C 223.996094 203.972656 225.648438 218.851562 224.429688 232.175781 C 224.398438 232.503906 224.121094 232.75 223.796875 232.75 " fill-opacity="1" fill-rule="nonzero"/><path fill="#ffffff" d="M 174.378906 250.398438 L 225.15625 263.050781 C 226.394531 263.359375 227.65625 263.25 228.746094 262.742188 L 248.746094 254.082031 C 249.339844 253.804688 248.726562 250.648438 248.0625 250.464844 L 211.121094 240.347656 L 174.378906 250.398438 " fill-opacity="1" fill-rule="nonzero"/><path fill="#000000" d="M 247.78125 251.023438 Z M 176.890625 250.367188 L 225.308594 262.4375 C 226.402344 262.707031 227.523438 262.609375 228.480469 262.164062 L 248.335938 253.570312 C 248.445312 253.035156 248.113281 251.425781 247.8125 251.054688 L 211.121094 241.003906 Z M 226.535156 263.855469 C 226.027344 263.855469 225.511719 263.792969 225.003906 263.667969 L 174.226562 251.011719 C 173.945312 250.945312 173.75 250.691406 173.746094 250.40625 C 173.742188 250.117188 173.933594 249.859375 174.210938 249.785156 L 210.953125 239.734375 C 211.0625 239.707031 211.183594 239.707031 211.289062 239.734375 L 248.230469 249.855469 C 249.359375 250.164062 249.59375 252.738281 249.601562 252.851562 C 249.683594 253.84375 249.492188 254.433594 249.015625 254.65625 L 229 263.324219 C 228.246094 263.675781 227.398438 263.855469 226.535156 263.855469 " fill-opacity="1" fill-rule="nonzero"/><path fill="#ffffff" d="M 225.15625 263.050781 L 222.410156 223.898438 C 222.210938 222.007812 220.742188 220.375 218.871094 219.964844 L 171.757812 209.683594 C 169.015625 209.082031 166.746094 211.3125 167.285156 214.070312 L 173.851562 247.691406 C 174.167969 249.316406 175.449219 250.664062 177.058594 251.066406 L 225.15625 263.050781 " fill-opacity="1" fill-rule="nonzero"/><path fill="#000000" d="M 170.863281 210.21875 C 170.054688 210.21875 169.304688 210.511719 168.738281 211.066406 C 167.996094 211.792969 167.691406 212.84375 167.90625 213.949219 L 174.476562 247.570312 C 174.746094 248.953125 175.84375 250.109375 177.210938 250.449219 L 224.460938 262.222656 L 221.773438 223.945312 C 221.605469 222.355469 220.328125 220.933594 218.734375 220.585938 L 171.621094 210.304688 C 171.363281 210.246094 171.113281 210.21875 170.863281 210.21875 Z M 225.15625 263.6875 C 225.105469 263.6875 225.054688 263.679688 225.003906 263.667969 L 176.902344 251.679688 C 175.066406 251.222656 173.589844 249.667969 173.226562 247.8125 L 166.660156 214.195312 C 166.363281 212.660156 166.796875 211.191406 167.851562 210.160156 C 168.902344 209.132812 170.375 208.730469 171.890625 209.0625 L 219.003906 219.347656 C 221.152344 219.816406 222.8125 221.660156 223.039062 223.835938 L 225.789062 263.003906 C 225.804688 263.210938 225.71875 263.40625 225.566406 263.535156 C 225.449219 263.632812 225.304688 263.6875 225.15625 263.6875 " fill-opacity="1" fill-rule="nonzero"/><path fill="#ffffff" d="M 259.289062 157.207031 L 253.605469 142.097656 C 254.6875 141.855469 255.460938 140.664062 255.402344 139.171875 C 255.335938 137.453125 254.195312 135.996094 252.851562 135.921875 C 252.472656 135.898438 252.125 135.992188 251.816406 136.167969 C 249.722656 130.125 245.492188 127.699219 241.578125 128.652344 C 237.597656 129.617188 232.195312 132.0625 237.507812 139.972656 C 237.953125 140.640625 238.117188 143.96875 238.175781 145.753906 C 238.195312 146.371094 238.730469 146.894531 239.34375 146.898438 L 240.839844 146.917969 C 242.25 149.015625 242.253906 151.933594 244.523438 152.8125 C 245.914062 153.351562 246.738281 152.804688 247.226562 152.828125 L 247.667969 154.785156 C 248.132812 156.839844 246.941406 158.746094 244.960938 159.125 L 239.984375 160.085938 L 240.113281 160.207031 C 245.433594 165.214844 252.78125 167.164062 259.292969 165.289062 L 267.132812 163.027344 L 262.4375 160.6875 C 260.992188 159.96875 259.855469 158.710938 259.289062 157.207031 " fill-opacity="1" fill-rule="nonzero"/><path fill="#000000" d="M 241.355469 160.46875 C 246.433594 164.785156 253.144531 166.398438 259.117188 164.679688 L 265.390625 162.871094 L 262.152344 161.253906 C 260.574219 160.46875 259.316406 159.074219 258.695312 157.429688 L 253.007812 142.320312 C 252.945312 142.148438 252.957031 141.957031 253.046875 141.796875 C 253.132812 141.632812 253.285156 141.519531 253.464844 141.476562 C 254.265625 141.300781 254.8125 140.339844 254.769531 139.195312 C 254.714844 137.820312 253.820312 136.613281 252.8125 136.554688 C 252.574219 136.539062 252.34375 136.597656 252.128906 136.722656 C 251.964844 136.8125 251.765625 136.828125 251.589844 136.761719 C 251.414062 136.695312 251.277344 136.554688 251.214844 136.375 C 249.386719 131.101562 245.664062 128.308594 241.726562 129.265625 C 238.632812 130.019531 236.820312 131.183594 236.183594 132.820312 C 235.523438 134.519531 236.144531 136.808594 238.03125 139.621094 C 238.183594 139.84375 238.644531 140.53125 238.8125 145.730469 C 238.820312 146.011719 239.074219 146.261719 239.351562 146.265625 L 240.847656 146.28125 C 241.054688 146.285156 241.25 146.390625 241.367188 146.5625 C 241.917969 147.382812 242.253906 148.28125 242.582031 149.152344 C 243.109375 150.550781 243.566406 151.761719 244.75 152.222656 C 245.558594 152.535156 246.097656 152.40625 246.566406 152.292969 C 246.804688 152.238281 247.027344 152.183594 247.257812 152.195312 C 247.542969 152.210938 247.78125 152.414062 247.84375 152.6875 L 248.289062 154.644531 C 248.554688 155.835938 248.355469 157.027344 247.722656 157.992188 C 247.121094 158.914062 246.183594 159.539062 245.082031 159.75 Z M 254.265625 166.625 C 249.054688 166.625 243.78125 164.53125 239.679688 160.671875 L 239.546875 160.550781 C 239.375 160.386719 239.308594 160.140625 239.375 159.910156 C 239.441406 159.679688 239.628906 159.507812 239.863281 159.460938 L 244.839844 158.503906 C 245.601562 158.359375 246.246094 157.929688 246.660156 157.300781 C 247.101562 156.621094 247.242188 155.777344 247.046875 154.925781 L 246.738281 153.558594 C 246.207031 153.679688 245.378906 153.824219 244.292969 153.40625 C 242.578125 152.742188 241.976562 151.144531 241.394531 149.601562 C 241.132812 148.902344 240.863281 148.179688 240.484375 147.546875 L 239.339844 147.535156 C 238.378906 147.523438 237.570312 146.734375 237.542969 145.773438 C 237.421875 141.988281 237.128906 140.566406 236.976562 140.328125 C 234.847656 137.148438 234.179688 134.46875 235 132.359375 C 235.796875 130.304688 237.902344 128.890625 241.429688 128.035156 C 245.886719 126.953125 250.054688 129.8125 252.1875 135.347656 C 252.417969 135.292969 252.648438 135.273438 252.886719 135.289062 C 254.574219 135.382812 255.957031 137.078125 256.035156 139.148438 C 256.09375 140.628906 255.453125 141.894531 254.417969 142.460938 L 259.882812 156.984375 C 260.394531 158.328125 261.425781 159.472656 262.71875 160.117188 L 267.417969 162.460938 C 267.652344 162.578125 267.789062 162.824219 267.765625 163.085938 C 267.742188 163.347656 267.558594 163.566406 267.308594 163.640625 L 259.464844 165.898438 C 257.773438 166.386719 256.023438 166.625 254.265625 166.625 " fill-opacity="1" fill-rule="nonzero"/><path fill="#000000" d="M 234.722656 136.773438 C 231.691406 137.28125 228.917969 134.976562 228.464844 134.605469 C 226.308594 132.832031 223.703125 129.203125 224.703125 126.234375 C 225.574219 123.632812 228.773438 122.878906 230.363281 122.503906 C 235.03125 121.402344 236.449219 123.871094 240.988281 122.921875 C 245.027344 122.074219 246.5 119.582031 248.539062 120.660156 C 250.105469 121.488281 250.035156 123.382812 251.917969 124.160156 C 253.546875 124.832031 254.308594 123.695312 255.691406 124.121094 C 258.839844 125.089844 261.265625 132.929688 258.769531 137.625 C 257.859375 139.339844 256.296875 140.621094 255.789062 140.320312 C 255.234375 139.992188 256.261719 137.949219 255.292969 136.796875 C 254.59375 135.96875 253.148438 135.960938 251.816406 136.167969 C 251.554688 139.109375 249.925781 140.148438 249.765625 140.132812 C 249.398438 140.101562 249.785156 136.980469 247.863281 134.320312 C 246.921875 133.019531 244.898438 131.097656 242.933594 131.277344 C 241.1875 131.433594 241.125 133.09375 237.808594 135.285156 C 236.542969 136.125 235.839844 136.589844 234.722656 136.773438 " fill-opacity="1" fill-rule="nonzero"/><path fill="#000000" d="M 247.683594 153.148438 C 247.46875 153.148438 247.261719 153.039062 247.140625 152.839844 C 246.957031 152.539062 247.054688 152.148438 247.355469 151.96875 C 251.484375 149.484375 251.304688 146.714844 251.292969 146.597656 C 251.265625 146.25 251.519531 145.941406 251.867188 145.910156 C 252.214844 145.878906 252.519531 146.125 252.558594 146.472656 C 252.570312 146.621094 252.871094 150.128906 248.011719 153.054688 C 247.910156 153.117188 247.796875 153.148438 247.683594 153.148438 " fill-opacity="1" fill-rule="nonzero"/><path fill="#5479f7" d="M 249.855469 245.0625 L 251.78125 255.085938 C 251.78125 255.085938 276.269531 256.035156 287.71875 242.003906 C 299.171875 227.96875 310.375 189.546875 288.542969 168.65625 L 269.839844 191.433594 C 269.839844 191.433594 275.578125 232.5 249.855469 245.0625 " fill-opacity="1" fill-rule="nonzero"/><path fill="#ffffff" d="M 228.992188 247.238281 L 239.613281 243.324219 L 249.855469 245.0625 L 251.394531 253.0625 C 251.394531 253.0625 247.652344 255.152344 245.078125 253.96875 C 242.507812 252.78125 239.574219 251.742188 239.574219 251.742188 C 239.574219 251.742188 234.476562 256.300781 229.277344 251.902344 L 235.320312 248.609375 C 235.320312 248.609375 231.84375 248.824219 229.328125 248.664062 C 228.53125 248.609375 228.269531 247.507812 228.992188 247.238281 " fill-opacity="1" fill-rule="nonzero"/><path fill="#000000" d="M 228.992188 247.238281 L 229 247.238281 Z M 239.574219 251.109375 C 239.644531 251.109375 239.71875 251.121094 239.789062 251.144531 C 239.816406 251.15625 242.777344 252.207031 245.34375 253.390625 C 247.132812 254.214844 249.695312 253.175781 250.679688 252.710938 L 249.316406 245.617188 L 239.675781 243.976562 L 229.214844 247.835938 C 229.203125 247.839844 229.199219 247.84375 229.199219 247.84375 C 229.203125 247.84375 229.203125 247.894531 229.238281 247.953125 C 229.28125 248.015625 229.332031 248.027344 229.371094 248.03125 C 231.816406 248.1875 235.246094 247.976562 235.28125 247.976562 C 235.574219 247.953125 235.847656 248.148438 235.929688 248.433594 C 236.011719 248.71875 235.882812 249.023438 235.625 249.164062 L 230.441406 251.988281 C 234.886719 255 238.972656 251.433594 239.152344 251.269531 C 239.269531 251.164062 239.421875 251.109375 239.574219 251.109375 Z M 246.902344 254.960938 C 246.1875 254.960938 245.472656 254.847656 244.8125 254.542969 C 242.796875 253.613281 240.527344 252.765625 239.691406 252.460938 C 238.457031 253.390625 233.679688 256.457031 228.867188 252.382812 C 228.707031 252.25 228.625 252.046875 228.644531 251.835938 C 228.667969 251.628906 228.789062 251.441406 228.972656 251.34375 L 232.636719 249.347656 C 231.570312 249.367188 230.351562 249.363281 229.289062 249.296875 C 228.597656 249.25 228.046875 248.742188 227.949219 248.054688 C 227.859375 247.425781 228.191406 246.859375 228.773438 246.644531 L 239.394531 242.730469 C 239.5 242.6875 239.609375 242.679688 239.722656 242.699219 L 249.960938 244.4375 C 250.222656 244.484375 250.429688 244.683594 250.480469 244.945312 L 252.019531 252.945312 C 252.066406 253.210938 251.941406 253.484375 251.703125 253.617188 C 251.578125 253.6875 249.253906 254.960938 246.902344 254.960938 " fill-opacity="1" fill-rule="nonzero"/><path fill="#000000" d="M 252.902344 243.984375 C 252.636719 243.984375 252.390625 243.816406 252.300781 243.546875 C 252.191406 243.214844 252.367188 242.855469 252.699219 242.746094 C 252.847656 242.695312 266.914062 237.566406 269.515625 207.535156 C 269.546875 207.1875 269.855469 206.925781 270.203125 206.957031 C 270.554688 206.988281 270.8125 207.296875 270.78125 207.644531 C 268.097656 238.597656 253.714844 243.746094 253.105469 243.949219 C 253.039062 243.972656 252.96875 243.984375 252.902344 243.984375 " fill-opacity="1" fill-rule="nonzero"/><path fill="#5479f7" d="M 359.328125 304.941406 C 359.347656 326.894531 341.535156 344.703125 319.539062 344.722656 C 297.546875 344.742188 279.703125 326.964844 279.683594 305.007812 C 279.664062 283.058594 297.476562 265.246094 319.472656 265.226562 C 341.464844 265.207031 359.308594 282.988281 359.328125 304.941406 " fill-opacity="1" fill-rule="nonzero"/><path fill="#99b9ff" d="M 363.335938 303.9375 C 363.355469 325.890625 345.542969 343.703125 323.546875 343.722656 C 301.554688 343.742188 283.707031 325.960938 283.6875 304.007812 C 283.667969 282.058594 301.484375 264.242188 323.476562 264.222656 C 345.472656 264.207031 363.316406 281.984375 363.335938 303.9375 " fill-opacity="1" fill-rule="nonzero"/><path fill="#ffffff" d="M 313.199219 297.464844 L 313.496094 284.445312 C 313.625 280.238281 317.382812 276.777344 322.101562 276.5625 C 327.300781 276.328125 331.59375 280.097656 331.453125 284.734375 L 331.453125 298.027344 C 331.40625 299.4375 337.207031 299.859375 337.234375 298.5625 L 336.890625 285.003906 C 337.121094 277.558594 330.460938 271.472656 321.832031 271.820312 L 321.832031 271.828125 C 314.707031 272.117188 308.15625 277.734375 307.945312 284.539062 L 307.695312 297.6875 L 313.199219 297.464844 " fill-opacity="1" fill-rule="nonzero"/><path fill="#ffffff" d="M 322.078125 333.441406 C 332.804688 333.441406 342.753906 326.6875 341.703125 313.394531 L 341.554688 298.613281 C 341.542969 297.464844 340.652344 296.574219 339.515625 296.574219 L 307.296875 296.574219 C 305.722656 296.574219 304.398438 297.921875 304.417969 299.515625 L 304.582031 315.925781 C 304.683594 325.785156 312.328125 333.441406 322.078125 333.441406 " fill-opacity="1" fill-rule="nonzero"/><path fill="#99b9ff" d="M 323.109375 322.800781 C 323.984375 322.800781 324.714844 322.054688 324.710938 321.167969 L 324.628906 308.09375 C 324.625 307.285156 323.996094 306.65625 323.199219 306.65625 C 322.324219 306.65625 321.589844 307.40625 321.597656 308.289062 L 321.679688 321.367188 C 321.683594 322.171875 322.308594 322.800781 323.109375 322.800781 " fill-opacity="1" fill-rule="nonzero"/><path fill="#99b9ff" d="M 317.769531 309.28125 C 317.59375 312.402344 319.945312 314.929688 323.023438 314.929688 C 326.101562 314.929688 328.738281 312.402344 328.914062 309.28125 C 329.09375 306.164062 326.742188 303.636719 323.664062 303.636719 C 320.585938 303.636719 317.949219 306.164062 317.769531 309.28125 " fill-opacity="1" fill-rule="nonzero"/><path fill="#000000" d="M 314 234.992188 C 313.761719 234.992188 313.53125 234.855469 313.421875 234.625 C 313.273438 234.300781 313.414062 233.925781 313.734375 233.78125 L 322.679688 229.660156 C 323 229.511719 323.375 229.652344 323.523438 229.96875 C 323.667969 230.289062 323.53125 230.664062 323.210938 230.8125 L 314.265625 234.933594 C 314.179688 234.972656 314.089844 234.992188 314 234.992188 " fill-opacity="1" fill-rule="nonzero"/><path fill="#000000" d="M 313.109375 242.496094 C 312.871094 242.496094 312.640625 242.359375 312.53125 242.128906 C 312.386719 241.808594 312.523438 241.429688 312.84375 241.285156 L 321.636719 237.234375 C 321.957031 237.085938 322.332031 237.226562 322.480469 237.542969 C 322.628906 237.863281 322.488281 238.242188 322.167969 238.386719 L 313.375 242.4375 C 313.289062 242.476562 313.199219 242.496094 313.109375 242.496094 " fill-opacity="1" fill-rule="nonzero"/><path fill="#000000" d="M 298.792969 235.429688 C 298.550781 235.429688 298.324219 235.289062 298.21875 235.058594 C 298.070312 234.738281 298.210938 234.363281 298.527344 234.214844 L 315.144531 226.5625 C 315.460938 226.414062 315.839844 226.554688 315.984375 226.875 C 316.132812 227.191406 315.992188 227.570312 315.675781 227.714844 L 299.058594 235.367188 C 298.972656 235.410156 298.882812 235.429688 298.792969 235.429688 " fill-opacity="1" fill-rule="nonzero"/><path fill="#99b9ff" d="M 242.785156 325.726562 C 242.785156 323.886719 244.277344 322.394531 246.113281 322.394531 C 247.953125 322.394531 249.441406 323.886719 249.441406 325.726562 C 249.441406 327.566406 247.953125 329.058594 246.113281 329.058594 C 244.277344 329.058594 242.785156 327.566406 242.785156 325.726562 " fill-opacity="1" fill-rule="nonzero"/><path fill="#99b9ff" d="M 265.269531 331.136719 L 265.273438 331.136719 Z M 268.523438 329.101562 C 268 329.101562 267.488281 329.253906 267.042969 329.550781 C 266.441406 329.949219 266.03125 330.554688 265.890625 331.261719 C 265.59375 332.71875 266.535156 334.144531 267.992188 334.441406 C 269.441406 334.734375 270.871094 333.792969 271.167969 332.335938 C 271.464844 330.878906 270.519531 329.453125 269.066406 329.15625 C 268.886719 329.117188 268.703125 329.101562 268.523438 329.101562 Z M 268.527344 335.765625 C 268.265625 335.765625 268.003906 335.738281 267.738281 335.683594 C 265.597656 335.25 264.210938 333.152344 264.644531 331.007812 C 264.855469 329.972656 265.460938 329.078125 266.339844 328.492188 C 267.222656 327.90625 268.28125 327.699219 269.320312 327.914062 C 271.460938 328.347656 272.847656 330.445312 272.410156 332.589844 C 272.03125 334.464844 270.375 335.765625 268.527344 335.765625 " fill-opacity="1" fill-rule="nonzero"/><path fill="#000000" d="M 241.8125 349.394531 C 241.648438 349.394531 241.488281 349.328125 241.363281 349.207031 L 239.929688 347.769531 C 239.679688 347.523438 239.679688 347.121094 239.929688 346.875 C 240.175781 346.625 240.578125 346.625 240.828125 346.875 L 242.261719 348.308594 C 242.507812 348.558594 242.507812 348.960938 242.261719 349.207031 C 242.136719 349.328125 241.972656 349.394531 241.8125 349.394531 " fill-opacity="1" fill-rule="nonzero"/><path fill="#000000" d="M 246.832031 354.417969 C 246.667969 354.417969 246.507812 354.355469 246.382812 354.234375 L 244.945312 352.796875 C 244.699219 352.550781 244.699219 352.144531 244.945312 351.898438 C 245.195312 351.652344 245.597656 351.648438 245.847656 351.898438 L 247.28125 353.335938 C 247.527344 353.582031 247.527344 353.984375 247.28125 354.234375 C 247.15625 354.355469 246.992188 354.417969 246.832031 354.417969 " fill-opacity="1" fill-rule="nonzero"/><path fill="#000000" d="M 240.378906 354.417969 C 240.214844 354.417969 240.054688 354.355469 239.929688 354.234375 C 239.679688 353.984375 239.679688 353.582031 239.929688 353.335938 L 241.363281 351.898438 C 241.609375 351.648438 242.011719 351.652344 242.261719 351.898438 C 242.507812 352.144531 242.507812 352.550781 242.261719 352.796875 L 240.828125 354.234375 C 240.703125 354.355469 240.539062 354.417969 240.378906 354.417969 " fill-opacity="1" fill-rule="nonzero"/><path fill="#000000" d="M 245.394531 349.394531 C 245.234375 349.394531 245.070312 349.328125 244.945312 349.207031 C 244.699219 348.960938 244.699219 348.558594 244.945312 348.308594 L 246.382812 346.875 C 246.628906 346.625 247.03125 346.625 247.28125 346.875 C 247.527344 347.121094 247.527344 347.523438 247.28125 347.769531 L 245.847656 349.207031 C 245.722656 349.328125 245.558594 349.394531 245.394531 349.394531 " fill-opacity="1" fill-rule="nonzero"/><path fill="#000000" d="M 190.847656 45.378906 C 189.617188 45.378906 188.613281 46.382812 188.613281 47.617188 C 188.613281 48.851562 189.617188 49.855469 190.847656 49.855469 C 192.078125 49.855469 193.082031 48.851562 193.082031 47.617188 C 193.082031 46.382812 192.078125 45.378906 190.847656 45.378906 Z M 190.847656 51.121094 C 188.917969 51.121094 187.34375 49.550781 187.34375 47.617188 C 187.34375 45.683594 188.917969 44.109375 190.847656 44.109375 C 192.78125 44.109375 194.355469 45.683594 194.355469 47.617188 C 194.355469 49.550781 192.78125 51.121094 190.847656 51.121094 " fill-opacity="1" fill-rule="nonzero"/><path fill="#99b9ff" d="M 169.03125 65.511719 C 169.03125 67.222656 167.644531 68.609375 165.933594 68.609375 C 164.222656 68.609375 162.835938 67.222656 162.835938 65.511719 C 162.835938 63.800781 164.222656 62.414062 165.933594 62.414062 C 167.644531 62.414062 169.03125 63.800781 169.03125 65.511719 " fill-opacity="1" fill-rule="nonzero"/><path fill="#000000" d="M 174.113281 31.578125 C 173.949219 31.578125 173.789062 31.515625 173.664062 31.394531 L 172.351562 30.074219 C 172.101562 29.828125 172.101562 29.425781 172.351562 29.179688 C 172.597656 28.929688 173 28.929688 173.246094 29.179688 L 174.5625 30.492188 C 174.808594 30.742188 174.808594 31.144531 174.5625 31.394531 C 174.4375 31.515625 174.277344 31.578125 174.113281 31.578125 " fill-opacity="1" fill-rule="nonzero"/><path fill="#000000" d="M 178.714844 36.183594 C 178.550781 36.183594 178.390625 36.121094 178.265625 35.996094 L 176.953125 34.679688 C 176.703125 34.433594 176.703125 34.03125 176.953125 33.785156 C 177.199219 33.535156 177.601562 33.535156 177.847656 33.785156 L 179.164062 35.097656 C 179.410156 35.347656 179.410156 35.75 179.164062 35.996094 C 179.039062 36.121094 178.878906 36.183594 178.714844 36.183594 " fill-opacity="1" fill-rule="nonzero"/><path fill="#000000" d="M 172.796875 36.183594 C 172.636719 36.183594 172.476562 36.121094 172.351562 35.996094 C 172.101562 35.75 172.101562 35.347656 172.351562 35.097656 L 173.664062 33.785156 C 173.914062 33.535156 174.316406 33.535156 174.5625 33.785156 C 174.808594 34.03125 174.808594 34.433594 174.5625 34.679688 L 173.246094 35.996094 C 173.125 36.121094 172.960938 36.183594 172.796875 36.183594 " fill-opacity="1" fill-rule="nonzero"/><path fill="#000000" d="M 177.398438 31.578125 C 177.238281 31.578125 177.078125 31.515625 176.953125 31.394531 C 176.703125 31.144531 176.703125 30.742188 176.953125 30.492188 L 178.265625 29.179688 C 178.515625 28.929688 178.917969 28.929688 179.164062 29.179688 C 179.410156 29.425781 179.410156 29.828125 179.164062 30.074219 L 177.847656 31.394531 C 177.726562 31.515625 177.5625 31.578125 177.398438 31.578125 " fill-opacity="1" fill-rule="nonzero"/><path fill="#99b9ff" d="M 351.28125 130.363281 C 351.214844 130.363281 351.152344 130.355469 351.089844 130.335938 C 350.753906 130.230469 350.566406 129.875 350.675781 129.539062 C 352.820312 122.71875 353.960938 115.632812 354.0625 108.480469 C 354.164062 101.191406 353.1875 93.945312 351.15625 86.941406 C 351.058594 86.601562 351.253906 86.25 351.589844 86.15625 C 351.925781 86.054688 352.277344 86.25 352.375 86.585938 C 354.441406 93.710938 355.4375 101.082031 355.332031 108.5 C 355.226562 115.777344 354.070312 122.980469 351.882812 129.921875 C 351.800781 130.191406 351.546875 130.363281 351.28125 130.363281 " fill-opacity="1" fill-rule="nonzero"/><path fill="#99b9ff" d="M 358.113281 120.113281 C 358.0625 120.113281 358.011719 120.105469 357.957031 120.09375 C 357.617188 120.007812 357.414062 119.660156 357.5 119.324219 C 359.535156 111.316406 359.867188 102.796875 358.464844 94.683594 C 357.140625 87.03125 354.367188 79.808594 350.214844 73.222656 C 350.027344 72.925781 350.117188 72.535156 350.410156 72.347656 C 350.707031 72.160156 351.101562 72.25 351.289062 72.546875 C 355.53125 79.273438 358.367188 86.648438 359.714844 94.46875 C 361.148438 102.753906 360.808594 111.457031 358.730469 119.632812 C 358.65625 119.921875 358.398438 120.113281 358.113281 120.113281 " fill-opacity="1" fill-rule="nonzero"/><path fill="#000000" d="M 249.699219 116.789062 C 249.351562 116.789062 249.070312 116.507812 249.066406 116.160156 L 248.996094 105.925781 C 248.992188 105.574219 249.273438 105.289062 249.625 105.285156 C 249.625 105.285156 249.628906 105.285156 249.628906 105.285156 C 249.976562 105.285156 250.261719 105.566406 250.265625 105.917969 L 250.335938 116.148438 C 250.339844 116.5 250.054688 116.785156 249.707031 116.789062 C 249.703125 116.789062 249.703125 116.789062 249.699219 116.789062 " fill-opacity="1" fill-rule="nonzero"/><path fill="#000000" d="M 254.207031 120.433594 C 254.167969 120.433594 254.128906 120.433594 254.089844 120.425781 C 253.742188 120.355469 253.515625 120.027344 253.585938 119.683594 L 257.195312 100.695312 C 257.261719 100.351562 257.589844 100.125 257.9375 100.191406 C 258.28125 100.253906 258.507812 100.589844 258.441406 100.933594 L 254.832031 119.917969 C 254.773438 120.222656 254.507812 120.433594 254.207031 120.433594 " fill-opacity="1" fill-rule="nonzero"/><path fill="#000000" d="M 260.585938 117.535156 C 260.503906 117.535156 260.421875 117.523438 260.34375 117.488281 C 260.019531 117.355469 259.867188 116.984375 259.996094 116.660156 L 262.300781 111.070312 C 262.433594 110.746094 262.804688 110.589844 263.128906 110.726562 C 263.453125 110.859375 263.609375 111.230469 263.472656 111.554688 L 261.171875 117.144531 C 261.070312 117.386719 260.835938 117.535156 260.585938 117.535156 " fill-opacity="1" fill-rule="nonzero"/><path fill="#99b9ff" d="M 311.378906 104.429688 C 311.125 104.0625 311.125 103.585938 311.378906 103.21875 C 311.726562 102.714844 311.917969 102.167969 311.917969 101.59375 C 311.917969 98.945312 307.8125 96.796875 302.746094 96.796875 C 297.683594 96.796875 293.578125 98.945312 293.578125 101.59375 C 293.578125 102.167969 293.765625 102.714844 294.117188 103.21875 C 294.367188 103.585938 294.367188 104.0625 294.117188 104.429688 C 293.765625 104.933594 293.578125 105.484375 293.578125 106.054688 C 293.578125 107.308594 294.5 108.453125 296.011719 109.308594 C 295.980469 109.453125 295.960938 109.597656 295.960938 109.746094 C 295.960938 111.707031 299 113.296875 302.746094 113.296875 C 306.492188 113.296875 309.53125 111.707031 309.53125 109.746094 C 309.53125 109.597656 309.511719 109.453125 309.480469 109.308594 C 310.992188 108.453125 311.917969 107.308594 311.917969 106.054688 C 311.917969 105.484375 311.726562 104.933594 311.378906 104.429688 " fill-opacity="1" fill-rule="nonzero"/><path fill="#000000" d="M 302.746094 97.429688 C 298.117188 97.429688 294.210938 99.339844 294.210938 101.59375 C 294.210938 102.023438 294.355469 102.449219 294.640625 102.859375 C 295.042969 103.445312 295.042969 104.203125 294.636719 104.789062 C 294.355469 105.199219 294.210938 105.625 294.210938 106.054688 C 294.210938 107.023438 294.960938 107.984375 296.324219 108.757812 C 296.570312 108.894531 296.695312 109.179688 296.632812 109.453125 C 296.605469 109.558594 296.59375 109.652344 296.59375 109.746094 C 296.59375 111.125 299.121094 112.660156 302.746094 112.660156 C 306.371094 112.660156 308.898438 111.125 308.898438 109.746094 C 308.898438 109.652344 308.886719 109.558594 308.863281 109.453125 C 308.796875 109.179688 308.921875 108.894531 309.167969 108.757812 C 310.53125 107.984375 311.28125 107.023438 311.28125 106.054688 C 311.28125 105.625 311.140625 105.199219 310.855469 104.789062 C 310.453125 104.203125 310.453125 103.445312 310.855469 102.859375 C 311.140625 102.449219 311.28125 102.023438 311.28125 101.59375 C 311.28125 99.339844 307.375 97.429688 302.746094 97.429688 Z M 302.746094 113.929688 C 298.585938 113.929688 295.324219 112.09375 295.324219 109.746094 C 295.324219 109.710938 295.324219 109.675781 295.328125 109.640625 C 293.785156 108.660156 292.941406 107.398438 292.941406 106.054688 C 292.941406 105.363281 293.160156 104.699219 293.59375 104.070312 C 293.695312 103.917969 293.695312 103.730469 293.59375 103.578125 C 293.160156 102.949219 292.941406 102.285156 292.941406 101.59375 C 292.941406 98.550781 297.25 96.164062 302.746094 96.164062 C 308.246094 96.164062 312.550781 98.550781 312.550781 101.59375 C 312.550781 102.285156 312.332031 102.949219 311.902344 103.578125 C 311.796875 103.730469 311.796875 103.917969 311.902344 104.070312 C 312.332031 104.699219 312.550781 105.363281 312.550781 106.054688 C 312.550781 107.398438 311.707031 108.660156 310.164062 109.640625 C 310.167969 109.675781 310.167969 109.710938 310.167969 109.746094 C 310.167969 112.09375 306.90625 113.929688 302.746094 113.929688 " fill-opacity="1" fill-rule="nonzero"/><path fill="#ffffff" d="M 327.636719 64.804688 C 327.636719 51.214844 316.324219 39.621094 302.734375 39.621094 C 289.167969 39.621094 277.980469 50.898438 277.890625 64.464844 C 277.84375 71.371094 281.175781 77.796875 285.71875 82.292969 C 288.996094 85.535156 291.382812 89.566406 292.542969 94.03125 L 292.601562 94.246094 C 293.726562 98.574219 297.636719 101.597656 302.109375 101.597656 L 303.945312 101.597656 C 308.421875 101.597656 312.332031 98.574219 313.457031 94.246094 L 313.492188 94.113281 C 314.644531 89.683594 316.933594 85.617188 320.210938 82.417969 C 324.792969 77.949219 327.636719 71.710938 327.636719 64.804688 " fill-opacity="1" fill-rule="nonzero"/><path fill="#000000" d="M 302.734375 40.257812 C 289.472656 40.257812 278.613281 51.117188 278.523438 64.46875 C 278.484375 70.664062 281.269531 76.996094 286.164062 81.84375 C 289.574219 85.214844 291.988281 89.371094 293.160156 93.871094 L 293.214844 94.085938 C 294.265625 98.136719 297.925781 100.964844 302.109375 100.964844 L 303.945312 100.964844 C 308.132812 100.964844 311.789062 98.136719 312.84375 94.085938 L 312.875 93.957031 C 314.074219 89.335938 316.460938 85.191406 319.769531 81.960938 C 324.433594 77.414062 327.003906 71.320312 327.003906 64.804688 C 327.003906 51.5 315.886719 40.257812 302.734375 40.257812 Z M 303.945312 102.234375 L 302.109375 102.234375 C 297.347656 102.234375 293.183594 99.015625 291.984375 94.402344 L 291.929688 94.191406 C 290.820312 89.910156 288.515625 85.953125 285.273438 82.742188 C 280.132812 77.660156 277.210938 70.996094 277.257812 64.460938 C 277.300781 57.722656 279.984375 51.347656 284.808594 46.507812 C 289.648438 41.65625 296.015625 38.988281 302.734375 38.988281 C 316.574219 38.988281 328.269531 50.808594 328.269531 64.804688 C 328.269531 71.664062 325.566406 78.082031 320.65625 82.871094 C 317.511719 85.9375 315.246094 89.882812 314.105469 94.273438 L 314.070312 94.402344 C 312.871094 99.015625 308.710938 102.234375 303.945312 102.234375 " fill-opacity="1" fill-rule="nonzero"/><path fill="#000000" d="M 306.625 60.644531 C 306.328125 60.929688 306.058594 61.277344 305.820312 61.695312 C 304.097656 64.734375 304.644531 66.335938 305.121094 67.019531 C 305.609375 67.71875 306.453125 68.082031 307.269531 67.941406 C 307.910156 67.835938 308.371094 67.4375 308.539062 66.847656 C 309.160156 64.675781 308.136719 62.164062 306.625 60.644531 Z M 299.289062 60.855469 C 298.558594 61.722656 297.964844 62.886719 297.527344 64.320312 C 297.035156 65.933594 297.183594 67.292969 297.9375 68.046875 C 298.410156 68.519531 299.074219 68.691406 299.710938 68.5 C 300.503906 68.261719 301.078125 67.519531 301.289062 66.464844 C 301.609375 64.882812 300.757812 61.820312 299.289062 60.855469 Z M 304.132812 98.710938 C 304.128906 98.710938 304.128906 98.710938 304.128906 98.710938 C 303.777344 98.707031 303.496094 98.421875 303.496094 98.070312 C 303.550781 84.789062 311.296875 69.8125 312.851562 66.945312 C 313.757812 65.273438 314.101562 63.910156 313.910156 62.78125 C 313.628906 61.117188 312.78125 60.042969 311.390625 59.597656 C 310.695312 59.375 309.101562 59.179688 307.671875 59.902344 C 309.378906 61.714844 310.511719 64.578125 309.761719 67.195312 C 309.457031 68.257812 308.605469 69.003906 307.480469 69.195312 C 306.183594 69.410156 304.847656 68.84375 304.082031 67.75 C 303.433594 66.820312 302.648438 64.714844 304.714844 61.070312 C 304.984375 60.59375 305.296875 60.183594 305.632812 59.839844 C 305.632812 59.839844 305.628906 59.835938 305.625 59.835938 C 304.625 59.203125 302.980469 58.742188 301.359375 59.347656 C 300.957031 59.496094 300.578125 59.703125 300.21875 59.972656 C 302.03125 61.402344 302.925781 64.785156 302.535156 66.71875 C 302.226562 68.246094 301.332031 69.339844 300.074219 69.714844 C 299 70.039062 297.835938 69.742188 297.035156 68.941406 C 295.945312 67.847656 295.679688 66.027344 296.3125 63.949219 C 296.78125 62.410156 297.386719 61.253906 298.035156 60.390625 C 295.453125 59.777344 293.664062 61.011719 293.167969 62.230469 C 292.570312 63.710938 292.789062 65.476562 293.742188 66.835938 C 296.019531 70.089844 301.34375 79.582031 301.601562 97.464844 C 301.605469 97.8125 301.328125 98.101562 300.976562 98.109375 C 300.972656 98.109375 300.96875 98.109375 300.964844 98.109375 C 300.621094 98.109375 300.335938 97.828125 300.332031 97.480469 C 300.078125 79.953125 294.910156 70.722656 292.703125 67.5625 C 291.488281 65.828125 291.222656 63.65625 291.992188 61.753906 C 292.839844 59.667969 295.652344 58.25 298.988281 59.34375 C 299.65625 58.738281 300.328125 58.375 300.917969 58.15625 C 302.96875 57.390625 305.046875 57.964844 306.304688 58.761719 C 306.425781 58.839844 306.550781 58.921875 306.671875 59.011719 C 308.394531 57.941406 310.464844 57.964844 311.777344 58.390625 C 313.628906 58.984375 314.800781 60.429688 315.164062 62.566406 C 315.40625 64.007812 315.027344 65.589844 313.96875 67.546875 C 312.441406 70.371094 304.816406 85.101562 304.765625 98.078125 C 304.765625 98.425781 304.480469 98.710938 304.132812 98.710938 " fill-opacity="1" fill-rule="nonzero"/><path fill="#000000" d="M 314.148438 80.882812 C 313.9375 80.882812 313.730469 80.777344 313.609375 80.585938 C 313.421875 80.289062 313.511719 79.898438 313.808594 79.710938 C 318.171875 76.96875 321.3125 72.507812 322.425781 67.484375 C 322.503906 67.140625 322.839844 66.929688 323.183594 67 C 323.527344 67.074219 323.742188 67.414062 323.664062 67.757812 C 322.480469 73.113281 319.132812 77.863281 314.484375 80.785156 C 314.378906 80.851562 314.261719 80.882812 314.148438 80.882812 " fill-opacity="1" fill-rule="nonzero"/><path fill="#000000" d="M 287.363281 78.03125 C 287.191406 78.03125 287.015625 77.960938 286.886719 77.820312 C 283.53125 74.039062 281.679688 69.171875 281.679688 64.109375 C 281.679688 56.210938 286.074219 49.125 293.144531 45.609375 C 293.460938 45.453125 293.84375 45.582031 293.996094 45.898438 C 294.152344 46.210938 294.027344 46.59375 293.710938 46.746094 C 287.074219 50.046875 282.949219 56.695312 282.949219 64.109375 C 282.949219 68.859375 284.683594 73.425781 287.835938 76.972656 C 288.070312 77.238281 288.046875 77.636719 287.785156 77.871094 C 287.664062 77.980469 287.511719 78.03125 287.363281 78.03125 " fill-opacity="1" fill-rule="nonzero"/><path fill="#ffffff" d="M 304.3125 104.796875 C 304.011719 104.796875 303.742188 104.578125 303.6875 104.269531 C 303.628906 103.925781 303.859375 103.597656 304.207031 103.539062 C 305.039062 103.394531 305.84375 103.214844 306.597656 103 C 306.9375 102.902344 307.289062 103.101562 307.382812 103.4375 C 307.480469 103.777344 307.28125 104.125 306.945312 104.222656 C 306.144531 104.449219 305.296875 104.636719 304.421875 104.789062 C 304.382812 104.792969 304.347656 104.796875 304.3125 104.796875 " fill-opacity="1" fill-rule="nonzero"/><path fill="#ffffff" d="M 300.449219 109.515625 C 300.101562 109.515625 299.816406 109.230469 299.8125 108.882812 C 299.808594 108.53125 300.09375 108.246094 300.441406 108.242188 C 302.3125 108.226562 305.054688 107.96875 307.503906 106.824219 C 307.816406 106.675781 308.199219 106.8125 308.34375 107.128906 C 308.492188 107.445312 308.359375 107.824219 308.039062 107.972656 C 305.386719 109.214844 302.449219 109.496094 300.453125 109.515625 C 300.453125 109.515625 300.449219 109.515625 300.449219 109.515625 " fill-opacity="1" fill-rule="nonzero"/><path fill="#000000" d="M 302.871094 34.332031 C 302.867188 34.332031 302.863281 34.332031 302.855469 34.332031 C 302.507812 34.324219 302.226562 34.035156 302.234375 33.6875 L 302.460938 22.816406 C 302.46875 22.46875 302.75 22.195312 303.097656 22.195312 C 303.101562 22.195312 303.105469 22.195312 303.109375 22.195312 C 303.460938 22.203125 303.738281 22.492188 303.730469 22.84375 L 303.503906 33.710938 C 303.5 34.058594 303.214844 34.332031 302.871094 34.332031 " fill-opacity="1" fill-rule="nonzero"/><path fill="#000000" d="M 271.367188 56.476562 L 264.429688 56.46875 C 264.078125 56.46875 263.792969 56.1875 263.792969 55.835938 C 263.792969 55.484375 264.078125 55.199219 264.429688 55.199219 L 271.367188 55.207031 C 271.71875 55.207031 272.003906 55.492188 272.003906 55.839844 C 272.003906 56.191406 271.71875 56.476562 271.367188 56.476562 " fill-opacity="1" fill-rule="nonzero"/><path fill="#000000" d="M 277.773438 41.964844 C 277.671875 41.964844 277.566406 41.941406 277.46875 41.886719 L 269.644531 37.644531 C 269.332031 37.476562 269.222656 37.09375 269.386719 36.785156 C 269.554688 36.476562 269.941406 36.363281 270.25 36.53125 L 278.074219 40.773438 C 278.382812 40.9375 278.496094 41.324219 278.328125 41.632812 C 278.214844 41.84375 277.996094 41.964844 277.773438 41.964844 " fill-opacity="1" fill-rule="nonzero"/><path fill="#000000" d="M 334.125 56.476562 C 333.777344 56.476562 333.492188 56.191406 333.488281 55.839844 C 333.488281 55.492188 333.773438 55.207031 334.125 55.207031 L 341.066406 55.199219 C 341.414062 55.199219 341.699219 55.484375 341.699219 55.835938 C 341.703125 56.1875 341.414062 56.46875 341.066406 56.46875 L 334.125 56.476562 " fill-opacity="1" fill-rule="nonzero"/><path fill="#000000" d="M 327.722656 41.964844 C 327.496094 41.964844 327.277344 41.84375 327.164062 41.632812 C 326.996094 41.324219 327.113281 40.9375 327.417969 40.773438 L 335.246094 36.53125 C 335.554688 36.363281 335.941406 36.476562 336.105469 36.785156 C 336.273438 37.09375 336.160156 37.476562 335.851562 37.644531 L 328.023438 41.886719 C 327.929688 41.941406 327.824219 41.964844 327.722656 41.964844 " fill-opacity="1" fill-rule="nonzero"/></svg>