<svg xmlns="http://www.w3.org/2000/svg" xmlns:xlink="http://www.w3.org/1999/xlink" width="500" zoomAndPan="magnify" viewBox="0 0 375 374.999991" height="500" preserveAspectRatio="xMidYMid meet" version="1.0"><path fill="#ffcf2d" d="M 259.871094 73.929688 L 283.207031 96.441406 L 306.65625 223.335938 L 86.691406 223.335938 Z M 259.871094 73.929688 " fill-opacity="1" fill-rule="nonzero"/><path stroke-linecap="round" transform="matrix(0.117899, 0, 0, 0.117857, -100.331919, 12.761496)" fill-opacity="1" fill="#ffffff" fill-rule="nonzero" stroke-linejoin="miter" d="M 3254.804843 708.486737 L 3056.309963 516.914767 L 3089.508406 482.411926 C 3138.411501 431.602266 3226.509963 437.402456 3277.301592 486.190335 C 3328.093221 535.110789 3337.005777 623.20738 3288.102682 673.983896 Z M 3254.804843 708.486737 " stroke="#ffcf2d" stroke-width="6" stroke-opacity="1" stroke-miterlimit="10"/><path stroke-linecap="round" transform="matrix(0.117899, 0, 0, 0.117857, -100.331919, 12.761496)" fill="none" stroke-linejoin="miter" d="M 3288.003285 673.983896 L 3089.409009 482.411926 " stroke="#ffcf2d" stroke-width="6" stroke-opacity="1" stroke-miterlimit="10"/><path stroke-linecap="round" transform="matrix(0.117899, 0, 0, 0.117857, -100.331919, 12.761496)" fill="none" stroke-linejoin="miter" d="M 3288.202079 494.907191 L 3310.400638 477.90435 C 3340.186466 455.10132 3382.99324 461.100373 3405.291196 491.393933 L 3950.911907 1155.59848 L 3671.607645 1778.505678 " stroke="#3fb1b5" stroke-width="6" stroke-opacity="1" stroke-miterlimit="10"/><path stroke-linecap="round" transform="matrix(0.117899, 0, 0, 0.117857, -100.331919, 12.761496)" fill-opacity="1" fill="#ffffff" fill-rule="nonzero" stroke-linejoin="miter" d="M 3972.613484 1158.912874 C 3972.613484 1162.956434 3971.818312 1166.867419 3970.261099 1170.612684 C 3968.703887 1174.357949 3966.517163 1177.672343 3963.634664 1180.522722 C 3960.752164 1183.406245 3957.472079 1185.626889 3953.69501 1187.184654 C 3949.951074 1188.709275 3946.041477 1189.50473 3941.999351 1189.50473 C 3937.957226 1189.50473 3934.047629 1188.709275 3930.303693 1187.184654 C 3926.526624 1185.626889 3923.246539 1183.406245 3920.364039 1180.522722 C 3917.48154 1177.672343 3915.294816 1174.357949 3913.737603 1170.612684 C 3912.180391 1166.867419 3911.385219 1162.956434 3911.385219 1158.912874 C 3911.385219 1154.836169 3912.180391 1150.925184 3913.737603 1147.179919 C 3915.294816 1143.434654 3917.48154 1140.12026 3920.364039 1137.269881 C 3923.246539 1134.386359 3926.526624 1132.165715 3930.303693 1130.641093 C 3934.047629 1129.083328 3937.957226 1128.287874 3941.999351 1128.287874 C 3946.041477 1128.287874 3949.951074 1129.083328 3953.69501 1130.641093 C 3957.472079 1132.165715 3960.752164 1134.386359 3963.634664 1137.269881 C 3966.517163 1140.12026 3968.703887 1143.434654 3970.261099 1147.179919 C 3971.818312 1150.925184 3972.613484 1154.836169 3972.613484 1158.912874 Z M 3972.613484 1158.912874 " stroke="#ffcf2d" stroke-width="6" stroke-opacity="1" stroke-miterlimit="10"/><path stroke-linecap="round" transform="matrix(0.117899, 0, 0, 0.117857, -100.331919, 12.761496)" fill-opacity="1" fill="#ffffff" fill-rule="nonzero" stroke-linejoin="miter" d="M 3594.012084 1708.903405 L 3743.106886 1708.903405 C 3786.013056 1708.903405 3820.702447 1743.704541 3820.702447 1786.493367 L 3820.702447 1788.714011 L 3516.283993 1788.714011 L 3516.283993 1786.493367 C 3516.38339 1743.704541 3551.105913 1708.903405 3594.012084 1708.903405 Z M 3594.012084 1708.903405 " stroke="#ffcf2d" stroke-width="6" stroke-opacity="1" stroke-miterlimit="10"/><path stroke-linecap="round" transform="matrix(0.117899, 0, 0, 0.117857, -100.331919, 12.761496)" fill-opacity="1" fill="#ffffff" fill-rule="nonzero" stroke-linejoin="miter" d="M 2871.697466 1561.611738 L 1927.794841 1561.611738 C 1892.310278 1561.611738 1863.584679 1532.909086 1863.584679 1497.411927 L 1863.584679 837.184653 C 1863.584679 801.687494 1892.310278 772.984843 1927.794841 772.984843 L 2871.697466 772.984843 C 2907.215161 772.984843 2935.907627 801.687494 2935.907627 837.184653 L 2935.907627 1497.312495 C 2936.007024 1532.809655 2907.215161 1561.611738 2871.697466 1561.611738 Z M 2871.697466 1561.611738 " stroke="#3fb1b5" stroke-width="6" stroke-opacity="1" stroke-miterlimit="10"/><path stroke-linecap="butt" transform="matrix(0.117899, 0, 0, 0.117857, -100.331919, 12.761496)" fill-opacity="1" fill="#66b0f0" fill-rule="nonzero" stroke-linejoin="round" d="M 2872.293845 1500.196018 L 1937.502569 1500.196018 C 1923.587054 1500.196018 1912.388378 1488.893935 1912.388378 1475.106056 L 1912.388378 843.515146 C 1912.388378 829.594691 1923.686451 818.39204 1937.502569 818.39204 L 2872.293845 818.39204 C 2886.20936 818.39204 2897.408036 829.694123 2897.408036 843.515146 L 2897.408036 1475.006624 C 2897.507433 1488.893935 2886.20936 1500.196018 2872.293845 1500.196018 Z M 2872.293845 1500.196018 " stroke="#66b0f0" stroke-width="6" stroke-opacity="1" stroke-miterlimit="10"/><path stroke-linecap="round" transform="matrix(0.117899, 0, 0, 0.117857, -100.331919, 12.761496)" fill="none" stroke-linejoin="miter" d="M 1970.999201 877.388252 L 1956.189117 877.388252 C 1951.384952 877.388252 1947.40909 873.510411 1947.40909 868.605108 L 1947.40909 853.789767 C 1947.40909 848.983896 1951.285555 845.006623 1956.189117 845.006623 L 1970.999201 845.006623 C 1975.803367 845.006623 1979.81236 848.884464 1979.81236 853.789767 L 1979.81236 868.605108 C 1979.712964 873.510411 1975.803367 877.388252 1970.999201 877.388252 Z M 1970.999201 877.388252 " stroke="#ffffff" stroke-width="6" stroke-opacity="1" stroke-miterlimit="10"/><path stroke-linecap="round" transform="matrix(0.117899, 0, 0, 0.117857, -100.331919, 12.761496)" fill="none" stroke-linejoin="miter" d="M 2038.290655 877.388252 L 2023.513703 877.388252 C 2018.709538 877.388252 2014.700544 873.510411 2014.700544 868.605108 L 2014.700544 853.789767 C 2014.700544 848.983896 2018.610141 845.006623 2023.513703 845.006623 L 2038.290655 845.006623 C 2043.094821 845.006623 2047.103814 848.884464 2047.103814 853.789767 L 2047.103814 868.605108 C 2047.103814 873.510411 2043.094821 877.388252 2038.290655 877.388252 Z M 2038.290655 877.388252 " stroke="#ffffff" stroke-width="6" stroke-opacity="1" stroke-miterlimit="10"/><path stroke-linecap="round" transform="matrix(0.117899, 0, 0, 0.117857, -100.331919, 12.761496)" fill="none" stroke-linejoin="miter" d="M 2105.615241 877.388252 L 2090.805157 877.388252 C 2086.000992 877.388252 2081.991998 873.510411 2081.991998 868.605108 L 2081.991998 853.789767 C 2081.991998 848.983896 2085.901595 845.006623 2090.805157 845.006623 L 2105.615241 845.006623 C 2110.386275 845.006623 2114.395268 848.884464 2114.395268 853.789767 L 2114.395268 868.605108 C 2114.395268 873.510411 2110.485671 877.388252 2105.615241 877.388252 Z M 2105.615241 877.388252 " stroke="#ffffff" stroke-width="6" stroke-opacity="1" stroke-miterlimit="10"/><path stroke-linecap="round" transform="matrix(0.117899, 0, 0, 0.117857, -100.331919, 12.761496)" fill-opacity="1" fill="#ffffff" fill-rule="nonzero" stroke-linejoin="miter" d="M 2598.986507 1786.692231 L 2232.61088 1786.692231 L 2304.507707 1561.611738 L 2526.990284 1561.611738 Z M 2598.986507 1786.692231 " stroke="#3fb1b5" stroke-width="6" stroke-opacity="1" stroke-miterlimit="10"/><path fill="#3fb1b5" d="M 166.285156 212.71875 L 171.367188 196.808594 L 197.597656 196.808594 Z M 166.285156 212.71875 " fill-opacity="1" fill-rule="nonzero"/><path stroke-linecap="round" transform="matrix(0.117899, 0, 0, 0.117857, -100.331919, 12.761496)" fill="none" stroke-linejoin="miter" d="M 2817.890809 1025.508517 L 2639.805351 1025.508517 C 2623.106733 1025.508517 2609.588804 1011.98579 2609.588804 995.314389 L 2609.588804 880.304919 C 2609.588804 863.600373 2623.106733 850.11079 2639.805351 850.11079 L 2817.890809 850.11079 C 2834.589426 850.11079 2848.107355 863.600373 2848.107355 880.304919 L 2848.107355 995.314389 C 2848.107355 1011.98579 2834.589426 1025.508517 2817.890809 1025.508517 Z M 2817.890809 1025.508517 " stroke="#ffffff" stroke-width="6" stroke-opacity="1" stroke-miterlimit="10"/><path stroke-linecap="round" transform="matrix(0.117899, 0, 0, 0.117857, -100.331919, 12.761496)" fill="none" stroke-linejoin="miter" d="M 2660.512962 891.109843 L 2796.388025 891.109843 " stroke="#ffffff" stroke-width="6" stroke-opacity="1" stroke-miterlimit="10"/><path stroke-linecap="round" transform="matrix(0.117899, 0, 0, 0.117857, -100.331919, 12.761496)" fill="none" stroke-linejoin="miter" d="M 2660.512962 922.099426 L 2796.388025 922.099426 " stroke="#ffffff" stroke-width="6" stroke-opacity="1" stroke-miterlimit="10"/><path stroke-linecap="round" transform="matrix(0.117899, 0, 0, 0.117857, -100.331919, 12.761496)" fill="none" stroke-linejoin="miter" d="M 2660.512962 953.08901 L 2796.388025 953.08901 " stroke="#ffffff" stroke-width="6" stroke-opacity="1" stroke-miterlimit="10"/><path stroke-linecap="round" transform="matrix(0.117899, 0, 0, 0.117857, -100.331919, 12.761496)" fill="none" stroke-linejoin="miter" d="M 2660.512962 984.111737 L 2796.388025 984.111737 " stroke="#ffffff" stroke-width="6" stroke-opacity="1" stroke-miterlimit="10"/><path stroke-linecap="butt" transform="matrix(0.117899, 0, 0, 0.117857, -100.331919, 12.761496)" fill-opacity="1" fill="#ffffff" fill-rule="nonzero" stroke-linejoin="miter" d="M 2867.092093 1500.196018 L 2159.189973 1500.196018 L 2117.708486 1559.68939 C 2070.793322 1626.905299 1971.694977 1627.899617 1923.487657 1561.611738 L 1670.689138 1213.898669 C 1681.291435 1227.089957 1729.796944 1212.407192 1776.016332 1182.0142 C 1822.898364 1151.090904 1853.214307 1112.213063 1843.705372 1097.795449 L 2019.007727 1321.185601 L 2072.714988 1226.393934 C 2087.392543 1201.303972 2111.810958 1183.306813 2140.205235 1176.711169 L 2322.896066 1137.999048 L 2480.406441 1137.999048 L 2653.985923 1176.313442 C 2684.202469 1183.207381 2709.813643 1202.894881 2724.292405 1230.205487 Z M 2867.092093 1500.196018 " stroke="#3fb1b5" stroke-width="6" stroke-opacity="1" stroke-miterlimit="10"/><path stroke-linecap="round" transform="matrix(0.117899, 0, 0, 0.117857, -100.331919, 12.761496)" fill="none" stroke-linejoin="miter" d="M 2672.805 1496.08617 L 2622.510354 1396.786927 " stroke="#3fb1b5" stroke-width="6" stroke-opacity="1" stroke-miterlimit="10"/><path stroke-linecap="round" transform="matrix(0.117899, 0, 0, 0.117857, -100.331919, 12.761496)" fill="none" stroke-linejoin="miter" d="M 2155.214112 1505.399617 L 2205.011776 1407.094692 " stroke="#3fb1b5" stroke-width="6" stroke-opacity="1" stroke-miterlimit="10"/><path stroke-linecap="round" transform="matrix(0.117899, 0, 0, 0.117857, -100.331919, 12.761496)" fill="none" stroke-linejoin="miter" d="M 1950.788572 1234.5142 L 2064.895794 1380.413821 " stroke="#3fb1b5" stroke-width="6" stroke-opacity="1" stroke-miterlimit="10"/><path stroke-linecap="round" transform="matrix(0.117899, 0, 0, 0.117857, -100.331919, 12.761496)" fill="none" stroke-linejoin="miter" d="M 2421.298635 1185.991472 L 2463.310237 1237.099427 L 2557.306227 1157.288821 " stroke="#3fb1b5" stroke-width="6" stroke-opacity="1" stroke-miterlimit="10"/><path stroke-linecap="round" transform="matrix(0.117899, 0, 0, 0.117857, -100.331919, 12.761496)" fill="none" stroke-linejoin="miter" d="M 2389.193555 1186.98579 L 2348.407843 1239.088063 L 2245.101711 1157.288821 " stroke="#3fb1b5" stroke-width="6" stroke-opacity="1" stroke-miterlimit="10"/><path stroke-linecap="round" transform="matrix(0.117899, 0, 0, 0.117857, -100.331919, 12.761496)" fill="none" stroke-linejoin="miter" d="M 1878.494159 1142.506624 C 1888.003095 1156.990525 1857.587755 1196.398669 1810.407533 1227.686548 C 1763.989351 1258.510412 1714.788067 1273.292609 1704.086373 1260.001889 " stroke="#3fb1b5" stroke-width="6" stroke-opacity="1" stroke-miterlimit="10"/><path stroke-linecap="round" transform="matrix(0.117899, 0, 0, 0.117857, -100.331919, 12.761496)" fill="none" stroke-linejoin="miter" d="M 1858.416059 1156.493366 C 1858.416059 1157.984843 1858.11787 1159.443177 1857.554623 1160.835222 C 1856.958244 1162.194124 1856.163071 1163.420449 1855.102842 1164.481056 C 1854.042612 1165.541662 1852.816721 1166.37026 1851.42517 1166.933707 C 1850.033618 1167.497154 1848.608935 1167.795449 1847.084854 1167.795449 C 1845.593906 1167.795449 1844.169223 1167.497154 1842.777671 1166.933707 C 1841.38612 1166.37026 1840.160229 1165.541662 1839.099999 1164.481056 C 1838.03977 1163.420449 1837.244598 1162.194124 1836.648218 1160.835222 C 1836.084971 1159.443177 1835.786782 1157.984843 1835.786782 1156.493366 C 1835.786782 1155.001889 1836.084971 1153.543556 1836.648218 1152.184654 C 1837.244598 1150.792609 1838.03977 1149.566283 1839.099999 1148.505677 C 1840.160229 1147.445071 1841.38612 1146.649616 1842.777671 1146.053025 C 1844.169223 1145.489578 1845.593906 1145.191283 1847.084854 1145.191283 C 1848.608935 1145.191283 1850.033618 1145.489578 1851.42517 1146.053025 C 1852.816721 1146.649616 1854.042612 1147.445071 1855.102842 1148.505677 C 1856.163071 1149.566283 1856.958244 1150.792609 1857.554623 1152.184654 C 1858.11787 1153.543556 1858.416059 1155.001889 1858.416059 1156.493366 Z M 1858.416059 1156.493366 " stroke="#3fb1b5" stroke-width="6" stroke-opacity="1" stroke-miterlimit="10"/><path stroke-linecap="round" transform="matrix(0.117899, 0, 0, 0.117857, -100.331919, 12.761496)" fill="none" stroke-linejoin="miter" d="M 2416.395073 1227.487684 C 2416.395073 1229.012306 2416.096883 1230.437495 2415.533636 1231.82954 C 2414.970389 1233.221586 2414.142085 1234.414768 2413.081855 1235.475374 C 2412.021625 1236.53598 2410.795735 1237.364578 2409.437315 1237.928025 C 2408.045764 1238.524616 2406.587948 1238.789768 2405.097 1238.789768 C 2403.606052 1238.789768 2402.148236 1238.524616 2400.789817 1237.928025 C 2399.398265 1237.364578 2398.172375 1236.53598 2397.112145 1235.475374 C 2396.051915 1234.414768 2395.223611 1233.221586 2394.660364 1231.82954 C 2394.097117 1230.437495 2393.798927 1229.012306 2393.798927 1227.487684 C 2393.798927 1225.996207 2394.097117 1224.571018 2394.660364 1223.178972 C 2395.223611 1221.786927 2396.051915 1220.560601 2397.112145 1219.499995 C 2398.172375 1218.439389 2399.398265 1217.643934 2400.789817 1217.047344 C 2402.148236 1216.483897 2403.606052 1216.185601 2405.097 1216.185601 C 2406.587948 1216.185601 2408.045764 1216.483897 2409.437315 1217.047344 C 2410.795735 1217.643934 2412.021625 1218.439389 2413.081855 1219.499995 C 2414.142085 1220.560601 2414.970389 1221.786927 2415.533636 1223.178972 C 2416.096883 1224.571018 2416.395073 1225.996207 2416.395073 1227.487684 Z M 2416.395073 1227.487684 " stroke="#3fb1b5" stroke-width="6" stroke-opacity="1" stroke-miterlimit="10"/><path stroke-linecap="round" transform="matrix(0.117899, 0, 0, 0.117857, -100.331919, 12.761496)" fill="none" stroke-linejoin="miter" d="M 2416.395073 1318.500942 C 2416.395073 1319.992419 2416.096883 1321.450753 2415.533636 1322.809654 C 2414.970389 1324.2017 2414.142085 1325.428026 2413.081855 1326.488632 C 2412.021625 1327.549238 2410.795735 1328.377836 2409.437315 1328.941283 C 2408.045764 1329.50473 2406.587948 1329.803026 2405.097 1329.803026 C 2403.606052 1329.803026 2402.148236 1329.50473 2400.789817 1328.941283 C 2399.398265 1328.377836 2398.172375 1327.549238 2397.112145 1326.488632 C 2396.051915 1325.428026 2395.223611 1324.2017 2394.660364 1322.809654 C 2394.097117 1321.450753 2393.798927 1319.992419 2393.798927 1318.500942 C 2393.798927 1317.009465 2394.097117 1315.551132 2394.660364 1314.159086 C 2395.223611 1312.800185 2396.051915 1311.573859 2397.112145 1310.513253 C 2398.172375 1309.452647 2399.398265 1308.624048 2400.789817 1308.060601 C 2402.148236 1307.497154 2403.606052 1307.198859 2405.097 1307.198859 C 2406.587948 1307.198859 2408.045764 1307.497154 2409.437315 1308.060601 C 2410.795735 1308.624048 2412.021625 1309.452647 2413.081855 1310.513253 C 2414.142085 1311.573859 2414.970389 1312.800185 2415.533636 1314.159086 C 2416.096883 1315.551132 2416.395073 1317.009465 2416.395073 1318.500942 Z M 2416.395073 1318.500942 " stroke="#3fb1b5" stroke-width="6" stroke-opacity="1" stroke-miterlimit="10"/><path fill="#3fb1b5" d="M 148.917969 197.148438 L 154.234375 189.570312 L 154.234375 197.148438 Z M 148.917969 197.148438 " fill-opacity="1" fill-rule="nonzero"/><path fill="#fe5244" d="M 108.925781 151.714844 C 103.480469 155.296875 97.761719 157.03125 96.511719 155.476562 C 96.488281 155.449219 96.476562 155.425781 96.453125 155.390625 C 96.195312 155.003906 96.21875 154.472656 96.453125 153.824219 C 97.265625 151.691406 100.625 148.390625 104.894531 145.585938 C 108.289062 143.347656 111.636719 141.792969 113.960938 141.308594 C 115.304688 141.039062 116.308594 141.121094 116.789062 141.636719 L 116.910156 141.78125 C 118.015625 143.476562 114.457031 148.074219 108.925781 151.714844 Z M 108.925781 151.714844 " fill-opacity="1" fill-rule="nonzero"/><path fill="#e57281" d="M 108.925781 151.714844 C 105.828125 153.753906 102.632812 155.203125 100.226562 155.769531 L 89.460938 140.589844 C 87.964844 138.46875 88.460938 135.535156 90.59375 134.035156 L 100.285156 127.222656 L 94.789062 117.878906 C 93.988281 116.523438 94.449219 114.765625 95.816406 113.976562 C 96.265625 113.71875 96.746094 113.601562 97.230469 113.601562 C 98.164062 113.601562 99.082031 114.058594 99.625 114.910156 L 116.800781 141.613281 L 116.921875 141.804688 C 118.015625 143.476562 114.457031 148.074219 108.925781 151.714844 Z M 108.925781 151.714844 " fill-opacity="1" fill-rule="nonzero"/><path stroke-linecap="round" transform="matrix(0.117899, 0, 0, 0.117857, -100.331919, 12.761496)" fill="none" stroke-linejoin="miter" d="M 1701.402667 972.113631 L 1752.293693 1050.996207 C 1756.998462 1058.387305 1754.911135 1068.197911 1747.489527 1073.003783 L 1736.191454 1080.394881 C 1728.802978 1085.300184 1718.79706 1083.212116 1713.992895 1075.787874 L 1665.884972 1003.799237 " stroke="#9a3b82" stroke-width="6" stroke-opacity="1" stroke-miterlimit="10"/><path stroke-linecap="round" transform="matrix(0.117899, 0, 0, 0.117857, -100.331919, 12.761496)" fill="none" stroke-linejoin="miter" d="M 1713.794101 1075.58901 C 1718.697664 1083.112684 1716.51094 1093.188442 1708.989936 1097.994313 L 1698.685828 1104.490525 C 1691.297352 1109.196965 1681.490228 1107.108896 1676.686062 1099.784086 " stroke="#9a3b82" stroke-width="6" stroke-opacity="1" stroke-miterlimit="10"/><path stroke-linecap="round" transform="matrix(0.117899, 0, 0, 0.117857, -100.331919, 12.761496)" fill="none" stroke-linejoin="miter" d="M 1629.406444 1029.187495 L 1676.487269 1099.187495 C 1681.390831 1106.711169 1679.303504 1116.786927 1671.583706 1121.592798 L 1662.008507 1126.895828 C 1654.785692 1131.502836 1645.309889 1129.613631 1640.30693 1122.587116 L 1613.006015 1084.107002 " stroke="#9a3b82" stroke-width="6" stroke-opacity="1" stroke-miterlimit="10"/><path fill="#e57281" d="M 112.792969 135.390625 L 109.976562 131.019531 C 109.042969 129.570312 107.097656 129.167969 105.671875 130.136719 L 98.679688 134.875 C 98.679688 134.875 100.710938 138.515625 105.636719 135.628906 L 107.289062 138.253906 C 103.917969 140.390625 102.949219 144.878906 105.140625 148.214844 Z M 112.792969 135.390625 " fill-opacity="1" fill-rule="nonzero"/><path stroke-linecap="round" transform="matrix(0.117899, 0, 0, 0.117857, -100.331919, 12.761496)" fill="none" stroke-linejoin="miter" d="M 1804.609402 1041.483896 L 1780.687969 1004.395828 C 1772.802511 992.099426 1756.302686 988.685601 1744.209441 996.905298 L 1687.984135 1036.114578 C 1687.984135 1036.114578 1705.212867 1067.00473 1746.992544 1042.511358 L 1761.007455 1064.784086 C 1732.414386 1082.913821 1724.197605 1120.996207 1742.784757 1149.301131 " stroke="#9a3b82" stroke-width="6" stroke-opacity="1" stroke-miterlimit="10"/><path fill="#9a3b82" d="M 108.925781 151.714844 C 105.828125 153.753906 102.632812 155.203125 100.226562 155.769531 L 97.550781 151.996094 C 99.046875 150.042969 101.722656 147.683594 104.894531 145.597656 C 108.289062 143.359375 111.636719 141.804688 113.960938 141.320312 C 115.304688 141.050781 116.308594 141.132812 116.789062 141.648438 L 116.910156 141.792969 C 116.921875 141.816406 116.933594 141.828125 116.945312 141.851562 C 116.957031 141.863281 116.957031 141.875 116.96875 141.898438 C 116.980469 141.921875 116.992188 141.933594 117.003906 141.957031 C 117.804688 143.757812 114.28125 148.179688 108.925781 151.714844 Z M 108.925781 151.714844 " fill-opacity="1" fill-rule="nonzero"/><path fill="#e57281" d="M 192.09375 136.511719 L 192.09375 146.871094 C 192.09375 149.875 187.917969 152.304688 182.789062 152.304688 C 177.648438 152.304688 173.488281 149.875 173.488281 146.871094 L 173.488281 136.511719 Z M 192.09375 136.511719 " fill-opacity="1" fill-rule="nonzero"/><path fill="#9a3b82" d="M 176.210938 150.714844 C 174.527344 149.734375 173.476562 148.367188 173.476562 146.871094 L 173.476562 136.511719 L 192.09375 136.511719 L 192.09375 139.386719 C 192.09375 142.367188 190.277344 145.042969 187.519531 146.164062 Z M 176.210938 150.714844 " fill-opacity="1" fill-rule="nonzero"/><path fill="#e57281" d="M 197.28125 135.898438 L 197.28125 136.074219 C 197.28125 137.867188 195.832031 139.316406 194.039062 139.316406 L 191.902344 139.316406 C 191.183594 142.214844 188.566406 144.371094 185.429688 144.371094 L 180.148438 144.371094 C 177.027344 144.371094 174.394531 142.226562 173.6875 139.316406 L 171.554688 139.316406 C 169.761719 139.316406 168.3125 137.867188 168.3125 136.074219 L 168.3125 135.898438 C 168.3125 134.105469 169.761719 132.65625 171.554688 132.65625 L 173.488281 132.65625 L 173.488281 130.101562 C 173.488281 127.367188 175.503906 125.101562 178.132812 124.726562 C 178.710938 125.691406 180.457031 128.003906 184.015625 127.871094 C 185.691406 127.8125 187.246094 127.496094 188.53125 127.117188 C 190.078125 126.671875 191.621094 127.613281 192.011719 129.085938 C 192.070312 129.417969 192.105469 129.746094 192.105469 130.089844 L 192.105469 132.644531 L 194.039062 132.644531 C 195.820312 132.644531 197.28125 134.105469 197.28125 135.898438 Z M 197.28125 135.898438 " fill-opacity="1" fill-rule="nonzero"/><path fill="#9a3b82" d="M 193.578125 132.644531 L 192.09375 132.644531 L 192.09375 129.804688 C 192.09375 129.558594 192.058594 129.308594 192 129.085938 C 191.609375 127.613281 190.066406 126.671875 188.519531 127.117188 C 187.234375 127.496094 185.691406 127.8125 184.003906 127.871094 C 180.445312 128.003906 178.699219 125.691406 178.121094 124.726562 C 175.492188 125.101562 173.476562 127.367188 173.476562 130.101562 L 173.476562 132.65625 L 171.625 132.65625 C 171.625 132.65625 169.503906 124.984375 171.09375 122.816406 C 172.664062 120.683594 174.550781 121.613281 174.550781 121.613281 C 174.550781 121.613281 173.417969 115.226562 179.738281 115.34375 C 186.042969 115.460938 194.25 122.78125 194.851562 124.125 C 195.796875 126.1875 193.578125 132.644531 193.578125 132.644531 Z M 193.578125 132.644531 " fill-opacity="1" fill-rule="nonzero"/><path stroke-linecap="round" transform="matrix(0.117899, 0, 0, 0.117857, -100.331919, 12.761496)" fill="none" stroke-linejoin="miter" d="M 2486.403365 1049.902457 C 2486.403365 1039.196964 2495.083996 1030.612684 2505.686293 1030.612684 " stroke="#9a3b82" stroke-width="5" stroke-opacity="1" stroke-miterlimit="10"/><path stroke-linecap="round" transform="matrix(0.117899, 0, 0, 0.117857, -100.331919, 12.761496)" fill="none" stroke-linejoin="miter" d="M 2316.600952 1049.902457 C 2316.600952 1039.196964 2307.887189 1030.612684 2297.284892 1030.612684 " stroke="#9a3b82" stroke-width="5" stroke-opacity="1" stroke-miterlimit="10"/><path stroke-linecap="round" transform="matrix(0.117899, 0, 0, 0.117857, -100.331919, 12.761496)" fill="none" stroke-linejoin="miter" d="M 2455.093457 995.612684 C 2455.093457 995.612684 2440.912885 985.205487 2422.789583 992.696017 " stroke="#9a3b82" stroke-width="5" stroke-opacity="1" stroke-miterlimit="10"/><path stroke-linecap="round" transform="matrix(0.117899, 0, 0, 0.117857, -100.331919, 12.761496)" fill="none" stroke-linejoin="miter" d="M 2346.68497 995.612684 C 2346.68497 995.612684 2360.898674 985.205487 2378.988844 992.696017 " stroke="#9a3b82" stroke-width="5" stroke-opacity="1" stroke-miterlimit="10"/><path stroke-linecap="round" transform="matrix(0.117899, 0, 0, 0.117857, -100.331919, 12.761496)" fill="none" stroke-linejoin="miter" d="M 2426.301594 1069.391093 C 2426.301594 1069.391093 2418.614929 1085.996207 2394.991686 1077.312495 " stroke="#9a3b82" stroke-width="5" stroke-opacity="1" stroke-miterlimit="10"/><path stroke-linecap="round" transform="matrix(0.117899, 0, 0, 0.117857, -100.331919, 12.761496)" fill="none" stroke-linejoin="miter" d="M 2393.898324 1060.806813 C 2399.994645 1061.20454 2409.304787 1060.806813 2409.304787 1060.806813 " stroke="#9a3b82" stroke-width="5" stroke-opacity="1" stroke-miterlimit="10"/><path fill="#9a3b82" d="M 187.8125 134.023438 C 187.8125 134.296875 187.753906 134.53125 187.640625 134.726562 C 187.527344 134.917969 187.386719 135.015625 187.222656 135.015625 C 187.0625 135.015625 186.921875 134.917969 186.808594 134.726562 C 186.691406 134.53125 186.632812 134.296875 186.632812 134.023438 C 186.632812 133.75 186.691406 133.519531 186.808594 133.324219 C 186.921875 133.132812 187.0625 133.035156 187.222656 133.035156 C 187.386719 133.035156 187.527344 133.132812 187.640625 133.324219 C 187.753906 133.519531 187.8125 133.75 187.8125 134.023438 Z M 187.8125 134.023438 " fill-opacity="1" fill-rule="nonzero"/><path fill="#9a3b82" d="M 179.359375 134.023438 C 179.359375 134.296875 179.300781 134.53125 179.1875 134.726562 C 179.070312 134.917969 178.933594 135.015625 178.769531 135.015625 C 178.609375 135.015625 178.46875 134.917969 178.351562 134.726562 C 178.238281 134.53125 178.179688 134.296875 178.179688 134.023438 C 178.179688 133.75 178.238281 133.519531 178.351562 133.324219 C 178.46875 133.132812 178.609375 133.035156 178.769531 133.035156 C 178.933594 133.035156 179.070312 133.132812 179.1875 133.324219 C 179.300781 133.519531 179.359375 133.75 179.359375 134.023438 Z M 179.359375 134.023438 " fill-opacity="1" fill-rule="nonzero"/><path stroke-linecap="butt" transform="matrix(0.117899, 0, 0, 0.117857, -100.331919, 12.761496)" fill="none" stroke-linejoin="miter" d="M 2379.187637 1057.194124 L 2347.712067 1057.194124 C 2341.615747 1057.194124 2336.712184 1052.288821 2336.712184 1046.190336 L 2336.712184 1014.703593 C 2336.712184 1008.605108 2341.615747 1003.699805 2347.712067 1003.699805 L 2379.187637 1003.699805 C 2385.283958 1003.699805 2390.18752 1008.605108 2390.18752 1014.703593 L 2390.18752 1046.190336 C 2390.286916 1052.189389 2385.283958 1057.194124 2379.187637 1057.194124 Z M 2379.187637 1057.194124 " stroke="#ffffff" stroke-width="5" stroke-opacity="1" stroke-miterlimit="10"/><path stroke-linecap="butt" transform="matrix(0.117899, 0, 0, 0.117857, -100.331919, 12.761496)" fill="none" stroke-linejoin="miter" d="M 2456.286215 1057.194124 L 2424.810646 1057.194124 C 2418.714325 1057.194124 2413.810763 1052.288821 2413.810763 1046.190336 L 2413.810763 1014.703593 C 2413.810763 1008.605108 2418.714325 1003.699805 2424.810646 1003.699805 L 2456.286215 1003.699805 C 2462.415668 1003.699805 2467.286099 1008.605108 2467.286099 1014.703593 L 2467.286099 1046.190336 C 2467.286099 1052.189389 2462.415668 1057.194124 2456.286215 1057.194124 Z M 2456.286215 1057.194124 " stroke="#ffffff" stroke-width="5" stroke-opacity="1" stroke-miterlimit="10"/><path stroke-linecap="butt" transform="matrix(0.117899, 0, 0, 0.117857, -100.331919, 12.761496)" fill="none" stroke-linejoin="miter" d="M 2390.286916 1024.514199 L 2413.810763 1024.514199 " stroke="#ffffff" stroke-width="5" stroke-opacity="1" stroke-miterlimit="10"/><path stroke-linecap="butt" transform="matrix(0.117899, 0, 0, 0.117857, -100.331919, 12.761496)" fill="none" stroke-linejoin="round" d="M 2464.602392 1461.384465 L 2355.299336 1461.384465 C 2345.392815 1461.384465 2337.308563 1453.396776 2337.308563 1443.387306 L 2337.308563 1385.28598 C 2337.308563 1375.409086 2345.293418 1367.288821 2355.299336 1367.288821 L 2464.602392 1367.288821 C 2474.508914 1367.288821 2482.593165 1375.309654 2482.593165 1385.28598 L 2482.593165 1443.387306 C 2482.593165 1453.297344 2474.60831 1461.384465 2464.602392 1461.384465 Z M 2464.602392 1461.384465 " stroke="#66b0f0" stroke-width="6" stroke-opacity="1" stroke-miterlimit="10"/><path fill="#66b0f0" d="M 184.121094 182.238281 L 179.761719 182.238281 C 179.066406 182.238281 178.5 181.675781 178.5 180.980469 L 178.5 177.925781 C 178.5 177.230469 179.066406 176.664062 179.761719 176.664062 L 184.121094 176.664062 C 184.820312 176.664062 185.382812 177.230469 185.382812 177.925781 L 185.382812 180.980469 C 185.382812 181.675781 184.820312 182.238281 184.121094 182.238281 Z M 184.121094 182.238281 " fill-opacity="1" fill-rule="nonzero"/><path fill="#66b0f0" d="M 188.367188 182.15625 L 187.023438 181.261719 C 186.65625 181.015625 186.433594 180.589844 186.433594 180.128906 L 186.433594 178.785156 C 186.433594 178.328125 186.65625 177.902344 187.023438 177.65625 L 188.367188 176.757812 C 188.6875 176.546875 189.097656 176.785156 189.097656 177.183594 L 189.097656 181.746094 C 189.109375 182.132812 188.6875 182.371094 188.367188 182.15625 Z M 188.367188 182.15625 " fill-opacity="1" fill-rule="nonzero"/><path stroke-linecap="round" transform="matrix(0.117899, 0, 0, 0.117857, -100.331919, 12.761496)" fill="none" stroke-linejoin="miter" d="M 3926.394096 1788.714011 L 1271.711447 1788.714011 " stroke="#3fb1b5" stroke-width="6" stroke-opacity="1" stroke-miterlimit="10"/><path stroke-linecap="round" transform="matrix(0.117899, 0, 0, 0.117857, -100.331919, 12.761496)" fill-opacity="1" fill="#ffffff" fill-rule="nonzero" stroke-linejoin="miter" d="M 2126.389117 1806.214011 L 2126.389117 3040.792612 L 2056.712146 3040.792612 L 2056.712146 2805.802081 C 2056.712146 2783.893937 2038.887034 2766.095642 2016.986664 2766.095642 L 1518.115457 2766.095642 C 1496.215087 2766.095642 1478.389975 2783.893937 1478.389975 2805.802081 L 1478.389975 3040.792612 L 1408.713004 3040.792612 L 1408.713004 1806.214011 Z M 2126.389117 1806.214011 " stroke="#3fb1b5" stroke-width="6" stroke-opacity="1" stroke-miterlimit="10"/><path fill="#d0f0e4" d="M 150.617188 225.636719 L 150.617188 264.246094 L 65.753906 334.097656 L 65.765625 225.636719 Z M 150.617188 225.636719 " fill-opacity="1" fill-rule="nonzero"/><path stroke-linecap="round" transform="matrix(0.117899, 0, 0, 0.117857, -100.331919, 12.761496)" fill="none" stroke-linejoin="miter" d="M 2056.712146 1900.210223 L 2056.712146 2124.097534 C 2056.712146 2144.911928 2039.914132 2161.715906 2019.107124 2161.715906 L 1516.094394 2161.715906 C 1495.287386 2161.715906 1478.489372 2144.911928 1478.489372 2124.097534 L 1478.489372 1900.210223 C 1478.489372 1879.395829 1495.287386 1862.591852 1516.094394 1862.591852 L 2019.107124 1862.591852 C 2039.914132 1862.591852 2056.712146 1879.395829 2056.712146 1900.210223 Z M 2056.712146 1900.210223 " stroke="#3fb1b5" stroke-width="6" stroke-opacity="1" stroke-miterlimit="10"/><path fill="#ffcf2d" d="M 123.144531 287.523438 L 93.953125 287.523438 L 92.738281 279.164062 L 121.941406 279.164062 Z M 123.144531 287.523438 " fill-opacity="1" fill-rule="nonzero"/><path stroke-linecap="round" transform="matrix(0.117899, 0, 0, 0.117857, -100.331919, 12.761496)" fill-opacity="1" fill="#ffffff" fill-rule="nonzero" stroke-linejoin="miter" d="M 2027.588961 2219.485792 C 1996.709771 2219.485792 1971.694977 2244.509466 1971.694977 2275.399618 L 1971.694977 2331.313444 L 1761.007455 2331.313444 L 1761.007455 2275.399618 C 1761.007455 2244.509466 1785.989118 2219.485792 1816.90144 2219.485792 Z M 2027.588961 2219.485792 " stroke="#3fb1b5" stroke-width="6" stroke-opacity="1" stroke-miterlimit="10"/><path stroke-linecap="round" transform="matrix(0.117899, 0, 0, 0.117857, -100.331919, 12.761496)" fill-opacity="1" fill="#ffffff" fill-rule="nonzero" stroke-linejoin="miter" d="M 2080.103464 2260.385413 L 1869.415943 2260.385413 C 1862.888903 2236.786929 1841.187327 2219.485792 1815.509889 2219.485792 L 2026.19741 2219.485792 C 2051.90798 2219.485792 2073.51016 2236.786929 2080.103464 2260.385413 Z M 2080.103464 2260.385413 " stroke="#3fb1b5" stroke-width="6" stroke-opacity="1" stroke-miterlimit="10"/><path stroke-linecap="round" transform="matrix(0.117899, 0, 0, 0.117857, -100.331919, 12.761496)" fill="none" stroke-linejoin="miter" d="M 2056.712146 2368.898671 L 2056.712146 2592.785982 C 2056.712146 2613.600376 2039.914132 2630.404353 2019.107124 2630.404353 L 1516.094394 2630.404353 C 1495.287386 2630.404353 1478.489372 2613.600376 1478.489372 2592.785982 L 1478.489372 2368.898671 C 1478.489372 2348.084277 1495.287386 2331.313444 1516.094394 2331.313444 L 2019.107124 2331.313444 C 2039.914132 2331.313444 2056.712146 2348.084277 2056.712146 2368.898671 Z M 2056.712146 2368.898671 " stroke="#3fb1b5" stroke-width="6" stroke-opacity="1" stroke-miterlimit="10"/><path stroke-linecap="round" transform="matrix(0.117899, 0, 0, 0.117857, -100.331919, 12.761496)" fill="none" stroke-linejoin="miter" d="M 1664.592817 2007.696019 C 1664.592817 1989.897724 1679.005314 1975.413822 1696.896691 1975.413822 L 1838.404224 1975.413822 C 1856.196203 1975.413822 1870.708098 1989.798292 1870.708098 2007.696019 " stroke="#3fb1b5" stroke-width="6" stroke-opacity="1" stroke-miterlimit="10"/><path stroke-linecap="round" transform="matrix(0.117899, 0, 0, 0.117857, -100.331919, 12.761496)" fill="none" stroke-linejoin="miter" d="M 1664.592817 2476.384467 C 1664.592817 2458.586171 1679.005314 2444.10227 1696.896691 2444.10227 L 1838.404224 2444.10227 C 1856.196203 2444.10227 1870.708098 2458.48674 1870.708098 2476.384467 " stroke="#3fb1b5" stroke-width="6" stroke-opacity="1" stroke-miterlimit="10"/><path stroke-linecap="round" transform="matrix(0.117899, 0, 0, 0.117857, -100.331919, 12.761496)" fill-opacity="1" fill="#ffffff" fill-rule="nonzero" stroke-linejoin="miter" d="M 3746.386971 1806.214011 L 3820.702447 1806.214011 L 3820.702447 3043.510415 L 3746.386971 3043.510415 Z M 3746.386971 1806.214011 " stroke="#3fb1b5" stroke-width="6" stroke-opacity="1" stroke-miterlimit="10"/><path stroke-linecap="round" transform="matrix(0.117899, 0, 0, 0.117857, -100.331919, 12.761496)" fill="none" stroke-linejoin="miter" d="M 2558.002003 3043.510415 L 4108.587944 3043.510415 " stroke="#3fb1b5" stroke-width="6" stroke-opacity="1" stroke-miterlimit="10"/><path stroke-linecap="round" transform="matrix(0.117899, 0, 0, 0.117857, -100.331919, 12.761496)" fill-opacity="1" fill="#ffffff" fill-rule="nonzero" stroke-linejoin="miter" d="M 1619.698715 1618.983897 L 1574.804614 1618.983897 C 1574.804614 1618.983897 1510.693849 1351.910033 1454.402278 1343.193177 C 1398.110707 1334.509465 1395.195076 1437.288821 1395.195076 1437.288821 C 1395.195076 1437.288821 1396.189041 1281.015147 1536.901402 1302.392988 C 1677.713159 1323.803972 1619.698715 1618.983897 1619.698715 1618.983897 Z M 1619.698715 1618.983897 " stroke="#3fb1b5" stroke-width="6" stroke-opacity="1" stroke-miterlimit="10"/><path stroke-linecap="round" transform="matrix(0.117899, 0, 0, 0.117857, -100.331919, 12.761496)" fill="none" stroke-linejoin="miter" d="M 1465.899144 1309.187495 C 1465.899144 1309.187495 1594.186938 1261.791662 1599.985069 1615.006624 " stroke="#3fb1b5" stroke-width="6" stroke-opacity="1" stroke-miterlimit="10"/><path fill="#fe5244" d="M 80.183594 203.101562 L 105.046875 203.101562 L 105.046875 223.335938 L 80.183594 223.335938 Z M 80.183594 203.101562 " fill-opacity="1" fill-rule="nonzero"/><path stroke-linecap="round" transform="matrix(0.117899, 0, 0, 0.117857, -100.331919, 12.761496)" fill-opacity="1" fill="#ffffff" fill-rule="nonzero" stroke-linejoin="miter" d="M 1786.386704 1700.915716 C 1773.001304 1706.715905 1756.998462 1705.986738 1742.088982 1699.490526 C 1731.089098 1694.684655 1720.685595 1686.796397 1712.303153 1675.991473 C 1700.706891 1661.010412 1692.887697 1640.494314 1692.887697 1615.006624 C 1692.887697 1553.193177 1643.686412 1514.414768 1623.508916 1596.214011 C 1622.084232 1601.914768 1620.792077 1608.112685 1619.698715 1615.006624 L 1619.698715 1614.410034 C 1619.698715 1614.21117 1619.698715 1613.912874 1619.798112 1613.614579 L 1619.798112 1613.183708 C 1620.195698 1608.112685 1621.686646 1592.999049 1626.292019 1574.803026 C 1629.704633 1561.313443 1634.806989 1546.299238 1642.394257 1532.411927 C 1646.204458 1525.484844 1650.611038 1518.8892 1655.81279 1512.989579 C 1669.19819 1497.610791 1687.586548 1486.805867 1712.70074 1486.805867 C 1758.886996 1486.805867 1792.71495 1541.195071 1805.603367 1595.385412 C 1816.90144 1642.516094 1812.296067 1689.613632 1786.386704 1700.915716 Z M 1786.386704 1700.915716 " stroke="#3fb1b5" stroke-width="6" stroke-opacity="1" stroke-miterlimit="10"/><path stroke-linecap="round" transform="matrix(0.117899, 0, 0, 0.117857, -100.331919, 12.761496)" fill="none" stroke-linejoin="miter" d="M 1655.912186 1512.989579 C 1655.912186 1512.989579 1748.483492 1447.099427 1775.68501 1702.80492 " stroke="#3fb1b5" stroke-width="6" stroke-opacity="1" stroke-miterlimit="10"/><path fill="#3fb1b5" d="M 63.808594 182.15625 C 63.808594 184.101562 63.582031 191.539062 70.679688 191.878906 C 77.777344 192.222656 78.484375 181.507812 78.484375 181.507812 C 78.484375 181.507812 74.996094 172.035156 71.140625 171.066406 C 64.621094 169.429688 63.808594 182.15625 63.808594 182.15625 Z M 63.808594 182.15625 " fill-opacity="1" fill-rule="nonzero"/><path fill="#3fb1b5" d="M 99.257812 203.101562 L 90.628906 203.101562 C 92.621094 190.621094 99.257812 195.308594 99.257812 203.101562 Z M 99.257812 203.101562 " fill-opacity="1" fill-rule="nonzero"/><path fill="#ffffff" d="M 245.820312 111.429688 L 245.820312 189.230469 C 245.820312 193.414062 242.425781 196.796875 238.25 196.796875 L 149.175781 196.796875 C 143.589844 204.492188 132.070312 204.527344 126.433594 196.796875 L 126.421875 196.785156 C 124.183594 196.628906 122.203125 195.488281 120.929688 193.800781 L 122.980469 192.035156 L 175.328125 146.871094 L 225.175781 103.863281 L 238.25 103.863281 C 242.425781 103.863281 245.820312 107.257812 245.820312 111.429688 Z M 245.820312 111.429688 " fill-opacity="0.4" fill-rule="nonzero"/><path fill="#ffffff" d="M 110.28125 213.578125 C 108.714844 214.285156 106.816406 214.179688 105.058594 213.414062 L 105.058594 223.335938 L 86.703125 223.335938 L 101.558594 210.527344 L 105.070312 207.496094 L 107.746094 205.1875 L 112.921875 200.789062 C 114.433594 207.226562 113.597656 212.058594 110.28125 213.578125 Z M 110.28125 213.578125 " fill-opacity="0.4" fill-rule="nonzero"/><path fill="#ffcf2d" d="M 13.664062 114.945312 C 13.523438 114.945312 13.382812 114.847656 13.335938 114.707031 C 13.277344 114.519531 13.371094 114.320312 13.546875 114.261719 L 14.65625 113.871094 C 14.84375 113.8125 15.042969 113.90625 15.101562 114.082031 C 15.160156 114.273438 15.066406 114.472656 14.890625 114.53125 L 13.78125 114.921875 C 13.734375 114.933594 13.699219 114.945312 13.664062 114.945312 Z M 16.445312 113.976562 C 16.304688 113.976562 16.164062 113.882812 16.117188 113.742188 C 16.058594 113.554688 16.152344 113.351562 16.328125 113.292969 L 17.4375 112.90625 C 17.625 112.847656 17.828125 112.941406 17.886719 113.117188 C 17.945312 113.304688 17.851562 113.503906 17.671875 113.566406 L 16.566406 113.953125 C 16.53125 113.964844 16.480469 113.976562 16.445312 113.976562 Z M 19.230469 113 C 19.089844 113 18.945312 112.90625 18.898438 112.761719 C 18.839844 112.574219 18.933594 112.375 19.113281 112.316406 L 20.21875 111.925781 C 20.410156 111.867188 20.609375 111.960938 20.667969 112.136719 C 20.726562 112.328125 20.632812 112.527344 20.457031 112.585938 L 19.347656 112.976562 C 19.3125 113 19.265625 113 19.230469 113 Z M 22.011719 112.03125 C 21.871094 112.03125 21.730469 111.9375 21.683594 111.796875 C 21.621094 111.609375 21.71875 111.40625 21.894531 111.347656 L 23.003906 110.960938 C 23.191406 110.902344 23.390625 110.996094 23.449219 111.171875 C 23.507812 111.359375 23.414062 111.5625 23.238281 111.621094 L 22.128906 112.007812 C 22.09375 112.03125 22.058594 112.03125 22.011719 112.03125 Z M 24.792969 111.066406 C 24.652344 111.066406 24.511719 110.972656 24.464844 110.832031 C 24.40625 110.640625 24.5 110.441406 24.675781 110.382812 L 25.785156 109.992188 C 25.972656 109.933594 26.171875 110.027344 26.234375 110.207031 C 26.292969 110.394531 26.199219 110.59375 26.019531 110.652344 L 24.914062 111.042969 C 24.875 111.066406 24.839844 111.066406 24.792969 111.066406 Z M 27.589844 110.101562 C 27.445312 110.101562 27.304688 110.003906 27.257812 109.863281 C 27.199219 109.675781 27.292969 109.476562 27.46875 109.417969 L 28.578125 109.027344 C 28.765625 108.96875 28.96875 109.0625 29.027344 109.238281 C 29.085938 109.429688 28.992188 109.628906 28.816406 109.6875 L 27.707031 110.074219 C 27.660156 110.101562 27.625 110.101562 27.589844 110.101562 Z M 30.371094 109.132812 C 30.230469 109.132812 30.089844 109.039062 30.039062 108.898438 C 29.980469 108.710938 30.074219 108.507812 30.253906 108.449219 L 31.359375 108.0625 C 31.550781 108 31.75 108.097656 31.808594 108.273438 C 31.867188 108.460938 31.773438 108.660156 31.597656 108.722656 L 30.488281 109.109375 C 30.441406 109.121094 30.40625 109.132812 30.371094 109.132812 Z M 33.152344 108.167969 C 33.011719 108.167969 32.871094 108.074219 32.824219 107.929688 C 32.765625 107.742188 32.859375 107.542969 33.035156 107.484375 L 34.144531 107.09375 C 34.332031 107.035156 34.53125 107.128906 34.589844 107.304688 C 34.652344 107.496094 34.554688 107.695312 34.378906 107.753906 L 33.269531 108.144531 C 33.222656 108.15625 33.1875 108.167969 33.152344 108.167969 Z M 35.9375 107.199219 C 35.792969 107.199219 35.652344 107.105469 35.605469 106.964844 C 35.546875 106.777344 35.640625 106.574219 35.816406 106.515625 L 36.925781 106.128906 C 37.113281 106.070312 37.316406 106.164062 37.375 106.339844 C 37.433594 106.527344 37.339844 106.730469 37.160156 106.789062 L 36.054688 107.175781 C 36.019531 107.1875 35.972656 107.199219 35.9375 107.199219 Z M 38.71875 106.234375 C 38.578125 106.234375 38.433594 106.140625 38.386719 106 C 38.328125 105.808594 38.421875 105.609375 38.601562 105.550781 L 39.707031 105.160156 C 39.898438 105.101562 40.097656 105.195312 40.15625 105.375 C 40.214844 105.5625 40.121094 105.761719 39.945312 105.820312 L 38.835938 106.210938 C 38.800781 106.222656 38.753906 106.234375 38.71875 106.234375 Z M 41.5 105.265625 C 41.359375 105.265625 41.21875 105.171875 41.171875 105.03125 C 41.113281 104.84375 41.207031 104.644531 41.382812 104.585938 L 42.492188 104.195312 C 42.679688 104.136719 42.878906 104.230469 42.9375 104.40625 C 42.996094 104.597656 42.902344 104.796875 42.726562 104.855469 L 41.617188 105.242188 C 41.582031 105.253906 41.535156 105.265625 41.5 105.265625 Z M 44.28125 104.289062 C 44.140625 104.289062 44 104.195312 43.953125 104.054688 C 43.894531 103.863281 43.988281 103.664062 44.164062 103.605469 L 45.273438 103.21875 C 45.460938 103.15625 45.664062 103.253906 45.722656 103.429688 C 45.78125 103.617188 45.6875 103.816406 45.507812 103.875 L 44.402344 104.265625 C 44.367188 104.289062 44.332031 104.289062 44.28125 104.289062 Z M 47.066406 103.324219 C 46.925781 103.324219 46.78125 103.230469 46.734375 103.085938 C 46.675781 102.898438 46.769531 102.699219 46.949219 102.640625 L 48.054688 102.25 C 48.246094 102.191406 48.445312 102.285156 48.503906 102.460938 C 48.5625 102.652344 48.46875 102.851562 48.292969 102.910156 L 47.183594 103.300781 C 47.148438 103.324219 47.113281 103.324219 47.066406 103.324219 Z M 49.859375 102.355469 C 49.71875 102.355469 49.578125 102.261719 49.53125 102.121094 C 49.46875 101.933594 49.566406 101.730469 49.742188 101.671875 L 50.851562 101.285156 C 51.039062 101.226562 51.238281 101.320312 51.296875 101.496094 C 51.355469 101.683594 51.261719 101.886719 51.085938 101.945312 L 49.976562 102.332031 C 49.929688 102.355469 49.894531 102.355469 49.859375 102.355469 Z M 52.640625 101.390625 C 52.5 101.390625 52.359375 101.296875 52.3125 101.15625 C 52.253906 100.964844 52.347656 100.765625 52.523438 100.707031 L 53.632812 100.316406 C 53.820312 100.257812 54.019531 100.351562 54.082031 100.53125 C 54.140625 100.71875 54.046875 100.917969 53.867188 100.976562 L 52.761719 101.367188 C 52.710938 101.390625 52.675781 101.390625 52.640625 101.390625 Z M 55.425781 100.421875 C 55.28125 100.421875 55.140625 100.328125 55.09375 100.1875 C 55.035156 100 55.128906 99.800781 55.304688 99.738281 L 56.414062 99.351562 C 56.601562 99.292969 56.804688 99.386719 56.863281 99.5625 C 56.921875 99.75 56.828125 99.953125 56.652344 100.011719 L 55.542969 100.398438 C 55.496094 100.421875 55.460938 100.421875 55.425781 100.421875 Z M 58.207031 99.457031 C 58.066406 99.457031 57.925781 99.363281 57.875 99.222656 C 57.816406 99.03125 57.910156 98.832031 58.089844 98.773438 L 59.195312 98.382812 C 59.386719 98.324219 59.585938 98.421875 59.644531 98.597656 C 59.703125 98.785156 59.609375 98.984375 59.433594 99.042969 L 58.324219 99.433594 C 58.289062 99.445312 58.242188 99.457031 58.207031 99.457031 Z M 60.988281 98.492188 C 60.847656 98.492188 60.707031 98.398438 60.660156 98.253906 C 60.601562 98.066406 60.695312 97.867188 60.871094 97.808594 L 61.980469 97.417969 C 62.167969 97.359375 62.367188 97.453125 62.425781 97.628906 C 62.488281 97.820312 62.390625 98.019531 62.214844 98.078125 L 61.105469 98.46875 C 61.070312 98.480469 61.023438 98.492188 60.988281 98.492188 Z M 60.988281 98.492188 " fill-opacity="1" fill-rule="nonzero"/><path fill="#3fb1b5" d="M 26.210938 114.945312 C 26.007812 114.945312 25.855469 114.789062 25.855469 114.589844 C 25.855469 111.394531 24.863281 109.074219 22.894531 107.707031 C 21.421875 106.683594 19.925781 106.585938 19.914062 106.585938 C 19.710938 106.574219 19.570312 106.410156 19.582031 106.210938 C 19.59375 106.011719 19.761719 105.867188 19.949219 105.878906 C 20.019531 105.878906 21.632812 105.976562 23.273438 107.105469 C 25.996094 108.992188 26.5625 112.222656 26.5625 114.589844 C 26.5625 114.777344 26.410156 114.945312 26.210938 114.945312 Z M 26.210938 114.945312 " fill-opacity="1" fill-rule="nonzero"/><path fill="#3fb1b5" d="M 82.542969 114.945312 L 13.664062 114.945312 C 13.535156 114.945312 13.40625 114.871094 13.347656 114.742188 C 13.289062 114.625 13.300781 114.484375 13.382812 114.378906 L 41.371094 77.074219 C 41.429688 76.992188 41.523438 76.945312 41.617188 76.933594 C 41.710938 76.921875 41.820312 76.957031 41.890625 77.027344 L 82.789062 114.332031 C 82.894531 114.425781 82.929688 114.578125 82.882812 114.71875 C 82.824219 114.847656 82.695312 114.945312 82.542969 114.945312 Z M 14.371094 114.238281 L 81.632812 114.238281 L 41.699219 77.808594 Z M 14.371094 114.238281 " fill-opacity="1" fill-rule="nonzero"/><path fill="#ffcf2d" d="M 7.476562 117.394531 C 5.789062 117.394531 4.421875 116.027344 4.421875 114.34375 C 4.421875 112.65625 5.789062 111.289062 7.476562 111.289062 C 9.160156 111.289062 10.527344 112.65625 10.527344 114.34375 C 10.527344 116.027344 9.160156 117.394531 7.476562 117.394531 Z M 7.476562 111.984375 C 6.179688 111.984375 5.128906 113.035156 5.128906 114.332031 C 5.128906 115.628906 6.179688 116.675781 7.476562 116.675781 C 8.773438 116.675781 9.820312 115.628906 9.820312 114.332031 C 9.820312 113.035156 8.773438 111.984375 7.476562 111.984375 Z M 7.476562 111.984375 " fill-opacity="1" fill-rule="nonzero"/><path fill="#ffcf2d" d="M 9.820312 114.34375 L 10.527344 114.34375 L 10.527344 117.042969 L 9.820312 117.042969 Z M 9.820312 114.34375 " fill-opacity="1" fill-rule="nonzero"/><path fill="#ffcf2d" d="M 43.742188 74.753906 C 42.054688 74.753906 40.6875 73.386719 40.6875 71.703125 C 40.6875 70.015625 42.054688 68.648438 43.742188 68.648438 C 45.425781 68.648438 46.792969 70.015625 46.792969 71.703125 C 46.792969 73.375 45.425781 74.753906 43.742188 74.753906 Z M 43.742188 69.34375 C 42.445312 69.34375 41.394531 70.394531 41.394531 71.691406 C 41.394531 72.988281 42.445312 74.046875 43.742188 74.046875 C 45.039062 74.046875 46.085938 73 46.085938 71.703125 C 46.085938 70.40625 45.039062 69.34375 43.742188 69.34375 Z M 43.742188 69.34375 " fill-opacity="1" fill-rule="nonzero"/><path fill="#ffcf2d" d="M 40.664062 66.976562 L 41.371094 66.976562 L 41.371094 74.390625 L 40.664062 74.390625 Z M 40.664062 66.976562 " fill-opacity="1" fill-rule="nonzero"/><path fill="#ffcf2d" d="M 88.046875 117.324219 C 86.359375 117.324219 84.992188 115.957031 84.992188 114.273438 C 84.992188 112.585938 86.359375 111.21875 88.046875 111.21875 L 88.046875 111.925781 C 86.75 111.925781 85.699219 112.976562 85.699219 114.273438 C 85.699219 115.566406 86.75 116.617188 88.046875 116.617188 Z M 88.046875 117.324219 " fill-opacity="1" fill-rule="nonzero"/><path fill="#a0505a" d="M 266.605469 265.941406 L 266.605469 331.542969 L 251.441406 331.542969 L 241.789062 304.585938 L 227.957031 265.941406 Z M 266.605469 265.941406 " fill-opacity="1" fill-rule="nonzero"/><path fill="#73325a" d="M 227.957031 265.941406 L 266.605469 265.941406 L 266.605469 287.003906 L 232.554688 278.777344 Z M 227.957031 265.941406 " fill-opacity="1" fill-rule="nonzero"/><path stroke-linecap="round" transform="matrix(0.117899, 0, 0, 0.117857, -100.331919, 12.761496)" fill="none" stroke-linejoin="miter" d="M 3112.303344 2476.086171 L 3112.303344 2704.812497 L 2983.684228 2704.812497 L 2901.814616 2476.086171 C 2901.814616 2476.086171 2968.112105 2512.710224 3112.303344 2476.086171 Z M 3112.303344 2476.086171 " stroke="#ffffff" stroke-width="6" stroke-opacity="1" stroke-miterlimit="10"/><path stroke-linecap="round" transform="matrix(0.117899, 0, 0, 0.117857, -100.331919, 12.761496)" fill="none" stroke-linejoin="miter" d="M 2983.286642 2515.19602 C 2983.286642 2517.151512 2982.922188 2519.007573 2982.19328 2520.797346 C 2981.43124 2522.587118 2980.404143 2524.144884 2979.012591 2525.536929 C 2977.654172 2526.895831 2976.063827 2527.956437 2974.27469 2528.685603 C 2972.485552 2529.41477 2970.63015 2529.812497 2968.708484 2529.812497 C 2966.753685 2529.812497 2964.898283 2529.41477 2963.109146 2528.685603 C 2961.320008 2527.956437 2959.729664 2526.895831 2958.371244 2525.536929 C 2957.012825 2524.144884 2955.952595 2522.587118 2955.223687 2520.797346 C 2954.461647 2519.007573 2954.097193 2517.151512 2954.097193 2515.19602 C 2954.097193 2513.273671 2954.461647 2511.417611 2955.223687 2509.627838 C 2955.952595 2507.838065 2957.012825 2506.247156 2958.371244 2504.888255 C 2959.729664 2503.496209 2961.320008 2502.435603 2963.109146 2501.706437 C 2964.898283 2500.97727 2966.753685 2500.612687 2968.708484 2500.612687 C 2970.63015 2500.612687 2972.485552 2500.97727 2974.27469 2501.706437 C 2976.063827 2502.435603 2977.654172 2503.496209 2979.012591 2504.888255 C 2980.404143 2506.247156 2981.43124 2507.838065 2982.19328 2509.627838 C 2982.922188 2511.417611 2983.286642 2513.273671 2983.286642 2515.19602 Z M 2983.286642 2515.19602 " stroke="#ffffff" stroke-width="6" stroke-opacity="1" stroke-miterlimit="10"/><path stroke-linecap="round" transform="matrix(0.117899, 0, 0, 0.117857, -100.331919, 12.761496)" fill="none" stroke-linejoin="miter" d="M 3052.897349 2562.293558 C 3052.897349 2564.24905 3052.532895 2566.105111 3051.803987 2567.894884 C 3051.041947 2569.684656 3049.981717 2571.242422 3048.623298 2572.634467 C 3047.264878 2573.993368 3045.674534 2575.053975 3043.885396 2575.783141 C 3042.096259 2576.545452 3040.240857 2576.910035 3038.286058 2576.910035 C 3036.364392 2576.910035 3034.50899 2576.545452 3032.719852 2575.783141 C 3030.930715 2575.053975 3029.34037 2573.993368 3027.981951 2572.634467 C 3026.590399 2571.242422 3025.563302 2569.684656 3024.801262 2567.894884 C 3024.072354 2566.105111 3023.7079 2564.24905 3023.7079 2562.293558 C 3023.7079 2560.371209 3024.072354 2558.515149 3024.801262 2556.725376 C 3025.563302 2554.935603 3026.590399 2553.344694 3027.981951 2551.985793 C 3029.34037 2550.593747 3030.930715 2549.566285 3032.719852 2548.803975 C 3034.50899 2548.074808 3036.364392 2547.710225 3038.286058 2547.710225 C 3040.240857 2547.710225 3042.096259 2548.074808 3043.885396 2548.803975 C 3045.674534 2549.566285 3047.264878 2550.593747 3048.623298 2551.985793 C 3049.981717 2553.344694 3051.041947 2554.935603 3051.803987 2556.725376 C 3052.532895 2558.515149 3052.897349 2560.371209 3052.897349 2562.293558 Z M 3052.897349 2562.293558 " stroke="#ffffff" stroke-width="6" stroke-opacity="1" stroke-miterlimit="10"/><path stroke-linecap="round" transform="matrix(0.117899, 0, 0, 0.117857, -100.331919, 12.761496)" fill="none" stroke-linejoin="miter" d="M 3104.716076 2509.992421 C 3104.716076 2511.947914 3104.318489 2513.803974 3103.589581 2515.593747 C 3102.860674 2517.38352 3101.800444 2518.941285 3100.408892 2520.333331 C 3099.050473 2521.692232 3097.460128 2522.752838 3095.670991 2523.482005 C 3093.881853 2524.244315 3092.026451 2524.608899 3090.104785 2524.608899 C 3088.149986 2524.608899 3086.294584 2524.244315 3084.505447 2523.482005 C 3082.716309 2522.752838 3081.159097 2521.692232 3079.767545 2520.333331 C 3078.409126 2518.941285 3077.348896 2517.38352 3076.619988 2515.593747 C 3075.857948 2513.803974 3075.493494 2511.947914 3075.493494 2509.992421 C 3075.493494 2508.070073 3075.857948 2506.214012 3076.619988 2504.42424 C 3077.348896 2502.634467 3078.409126 2501.043558 3079.767545 2499.684656 C 3081.159097 2498.292611 3082.716309 2497.265149 3084.505447 2496.502838 C 3086.294584 2495.773671 3088.149986 2495.409088 3090.104785 2495.409088 C 3092.026451 2495.409088 3093.881853 2495.773671 3095.670991 2496.502838 C 3097.460128 2497.265149 3099.050473 2498.292611 3100.408892 2499.684656 C 3101.800444 2501.043558 3102.860674 2502.634467 3103.589581 2504.42424 C 3104.318489 2506.214012 3104.716076 2508.070073 3104.716076 2509.992421 Z M 3104.716076 2509.992421 " stroke="#ffffff" stroke-width="6" stroke-opacity="1" stroke-miterlimit="10"/><path stroke-linecap="round" transform="matrix(0.117899, 0, 0, 0.117857, -100.331919, 12.761496)" fill="none" stroke-linejoin="miter" d="M 3084.207257 2617.113634 C 3084.207257 2619.035982 3083.842803 2620.892043 3083.080763 2622.681816 C 3082.351855 2624.471588 3081.291626 2626.062497 3079.933206 2627.421399 C 3078.541655 2628.7803 3076.984442 2629.840906 3075.195305 2630.603217 C 3073.406167 2631.332384 3071.550765 2631.696967 3069.595967 2631.696967 C 3067.6743 2631.696967 3065.785766 2631.332384 3063.996628 2630.603217 C 3062.207491 2629.840906 3060.650278 2628.7803 3059.291859 2627.421399 C 3057.900308 2626.062497 3056.840078 2624.471588 3056.11117 2622.681816 C 3055.382262 2620.892043 3054.984676 2619.035982 3054.984676 2617.113634 C 3054.984676 2615.158141 3055.382262 2613.302081 3056.11117 2611.512308 C 3056.840078 2609.722535 3057.900308 2608.131626 3059.291859 2606.772725 C 3060.650278 2605.413823 3062.207491 2604.353217 3063.996628 2603.62405 C 3065.785766 2602.86174 3067.6743 2602.497156 3069.595967 2602.497156 C 3071.550765 2602.497156 3073.406167 2602.86174 3075.195305 2603.62405 C 3076.984442 2604.353217 3078.541655 2605.413823 3079.933206 2606.772725 C 3081.291626 2608.131626 3082.351855 2609.722535 3083.080763 2611.512308 C 3083.842803 2613.302081 3084.207257 2615.158141 3084.207257 2617.113634 Z M 3084.207257 2617.113634 " stroke="#ffffff" stroke-width="6" stroke-opacity="1" stroke-miterlimit="10"/><path stroke-linecap="round" transform="matrix(0.117899, 0, 0, 0.117857, -100.331919, 12.761496)" fill="none" stroke-linejoin="miter" d="M 2997.897933 2590.49905 C 2997.897933 2592.421399 2997.533479 2594.310603 2996.804571 2596.100376 C 2996.042531 2597.890149 2994.982301 2599.447914 2993.623882 2600.839959 C 2992.265463 2602.198861 2990.675118 2603.259467 2988.88598 2603.988634 C 2987.096843 2604.7178 2985.241441 2605.115528 2983.286642 2605.115528 C 2981.364976 2605.115528 2979.509574 2604.7178 2977.720436 2603.988634 C 2975.931299 2603.259467 2974.340954 2602.198861 2972.982535 2600.839959 C 2971.590983 2599.447914 2970.563886 2597.890149 2969.801846 2596.100376 C 2969.072938 2594.310603 2968.708484 2592.421399 2968.708484 2590.49905 C 2968.708484 2588.576702 2969.072938 2586.687497 2969.801846 2584.897725 C 2970.563886 2583.107952 2971.590983 2581.550187 2972.982535 2580.191285 C 2974.340954 2578.79924 2975.931299 2577.738634 2977.720436 2577.009467 C 2979.509574 2576.2803 2981.364976 2575.915717 2983.286642 2575.915717 C 2985.241441 2575.915717 2987.096843 2576.2803 2988.88598 2577.009467 C 2990.675118 2577.738634 2992.265463 2578.79924 2993.623882 2580.191285 C 2994.982301 2581.550187 2996.042531 2583.107952 2996.804571 2584.897725 C 2997.533479 2586.687497 2997.897933 2588.576702 2997.897933 2590.49905 Z M 2997.897933 2590.49905 " stroke="#ffffff" stroke-width="6" stroke-opacity="1" stroke-miterlimit="10"/><path stroke-linecap="round" transform="matrix(0.117899, 0, 0, 0.117857, -100.331919, 12.761496)" fill="none" stroke-linejoin="miter" d="M 3021.686837 2670.50852 C 3021.686837 2672.430869 3021.322383 2674.286929 3020.593475 2676.076702 C 3019.831435 2677.866475 3018.804337 2679.457384 3017.412786 2680.816285 C 3016.054367 2682.208331 3014.464022 2683.235793 3012.674884 2683.998104 C 3010.885747 2684.72727 3009.030345 2685.091854 3007.108678 2685.091854 C 3005.15388 2685.091854 3003.298478 2684.72727 3001.50934 2683.998104 C 2999.720203 2683.235793 2998.129858 2682.208331 2996.771439 2680.816285 C 2995.41302 2679.457384 2994.35279 2677.866475 2993.623882 2676.076702 C 2992.861842 2674.286929 2992.497388 2672.430869 2992.497388 2670.50852 C 2992.497388 2668.553028 2992.861842 2666.696967 2993.623882 2664.907194 C 2994.35279 2663.117422 2995.41302 2661.559657 2996.771439 2660.167611 C 2998.129858 2658.80871 2999.720203 2657.748103 3001.50934 2657.018937 C 3003.298478 2656.256626 3005.15388 2655.892043 3007.108678 2655.892043 C 3009.030345 2655.892043 3010.885747 2656.256626 3012.674884 2657.018937 C 3014.464022 2657.748103 3016.054367 2658.80871 3017.412786 2660.167611 C 3018.804337 2661.559657 3019.831435 2663.117422 3020.593475 2664.907194 C 3021.322383 2666.696967 3021.686837 2668.553028 3021.686837 2670.50852 Z M 3021.686837 2670.50852 " stroke="#ffffff" stroke-width="6" stroke-opacity="1" stroke-miterlimit="10"/><path fill="#66b0f0" d="M 273.773438 343.773438 L 263.375 365.355469 C 261.902344 368.832031 258.492188 371.09375 254.710938 371.09375 L 241.445312 371.09375 C 238.050781 371.09375 235.988281 367.652344 237.285156 364.519531 L 250.617188 332.367188 C 251.359375 330.410156 252.667969 328.785156 254.308594 327.640625 C 255.957031 326.496094 257.941406 325.847656 260.027344 325.847656 C 262.925781 325.847656 265.804688 327.816406 267.714844 329.996094 L 272.335938 334.984375 C 274.46875 337.410156 275.023438 340.816406 273.773438 343.773438 Z M 273.773438 343.773438 " fill-opacity="1" fill-rule="nonzero"/><path stroke-linecap="butt" transform="matrix(0.117899, 0, 0, 0.117857, -100.331919, 12.761496)" fill-opacity="1" fill="#ffffff" fill-rule="nonzero" stroke-linejoin="round" d="M 3173.100891 2808.586172 L 3084.903033 2991.706437 C 3072.412202 3021.204543 3043.48781 3040.394884 3011.415862 3040.394884 L 2891.808698 3040.394884 C 2880.709419 3040.394884 2874.414305 3033.500945 2870.703501 3023.988634 L 2897.30864 3023.988634 C 2929.413721 3023.988634 2958.30498 3004.798293 2970.795811 2975.300187 L 3072.511598 2763.212119 C 3081.987401 2743.392043 3102.098633 2730.697914 3124.0984 2730.697914 C 3152.790866 2730.697914 3174.591839 2751.711172 3178.600833 2778.292611 C 3178.998419 2788.500945 3177.209281 2798.80871 3173.100891 2808.586172 Z M 3173.100891 2808.586172 " stroke="#66b0f0" stroke-width="6" stroke-opacity="1" stroke-miterlimit="10"/><path fill="#ffffff" d="M 271.378906 333.945312 C 270.128906 333.261719 268.621094 332.765625 267.300781 332.765625 C 264.765625 332.765625 262.417969 334.242188 261.324219 336.527344 L 248.910156 362.410156 C 247.328125 366.144531 243.671875 368.558594 239.605469 368.558594 L 237.320312 368.558594 C 237.199219 368.335938 237.117188 368.101562 237.035156 367.851562 L 239.605469 367.851562 C 243.390625 367.851562 246.785156 365.601562 248.261719 362.125 L 248.273438 362.113281 L 260.699219 336.21875 C 261.914062 333.6875 264.507812 332.058594 267.3125 332.058594 C 268.207031 332.058594 269.28125 332.355469 270.199219 332.671875 Z M 271.378906 333.945312 " fill-opacity="1" fill-rule="nonzero"/><path fill="#a0505a" d="M 227.957031 265.941406 L 225 304.585938 L 223.679688 321.902344 C 223.679688 321.902344 215.058594 331.496094 205.25 325.578125 L 200.710938 304.597656 L 190.324219 256.597656 C 187.519531 243.621094 196.382812 230.996094 209.554688 229.242188 Z M 227.957031 265.941406 " fill-opacity="1" fill-rule="nonzero"/><path stroke-linecap="round" transform="matrix(0.117899, 0, 0, 0.117857, -100.331919, 12.761496)" fill="none" stroke-linejoin="miter" d="M 2759.412514 2476.086171 L 2748.213838 2626.990528 C 2748.213838 2626.990528 2675.09112 2708.392043 2591.896221 2658.212119 L 2553.39663 2476.185603 C 2650.109458 2505.18655 2759.412514 2476.086171 2759.412514 2476.086171 Z M 2759.412514 2476.086171 " stroke="#ffffff" stroke-width="6" stroke-opacity="1" stroke-miterlimit="10"/><path stroke-linecap="round" transform="matrix(0.117899, 0, 0, 0.117857, -100.331919, 12.761496)" fill="none" stroke-linejoin="miter" d="M 2659.088278 2552.184656 C 2659.088278 2554.140149 2658.723824 2555.996209 2657.994917 2557.785982 C 2657.232876 2559.575755 2656.205779 2561.166664 2654.814227 2562.525565 C 2653.455808 2563.884467 2651.865464 2564.945073 2650.076326 2565.67424 C 2648.287188 2566.43655 2646.431786 2566.801134 2644.51012 2566.801134 C 2642.555321 2566.801134 2640.699919 2566.43655 2638.910782 2565.67424 C 2637.121644 2564.945073 2635.5313 2563.884467 2634.17288 2562.525565 C 2632.814461 2561.166664 2631.754231 2559.575755 2631.025323 2557.785982 C 2630.263283 2555.996209 2629.898829 2554.140149 2629.898829 2552.184656 C 2629.898829 2550.262308 2630.263283 2548.406247 2631.025323 2546.616475 C 2631.754231 2544.826702 2632.814461 2543.235793 2634.17288 2541.876891 C 2635.5313 2540.51799 2637.121644 2539.457384 2638.910782 2538.695073 C 2640.699919 2537.965906 2642.555321 2537.601323 2644.51012 2537.601323 C 2646.431786 2537.601323 2648.287188 2537.965906 2650.076326 2538.695073 C 2651.865464 2539.457384 2653.455808 2540.51799 2654.814227 2541.876891 C 2656.205779 2543.235793 2657.232876 2544.826702 2657.994917 2546.616475 C 2658.723824 2548.406247 2659.088278 2550.262308 2659.088278 2552.184656 Z M 2659.088278 2552.184656 " stroke="#ffffff" stroke-width="6" stroke-opacity="1" stroke-miterlimit="10"/><path stroke-linecap="round" transform="matrix(0.117899, 0, 0, 0.117857, -100.331919, 12.761496)" fill="none" stroke-linejoin="miter" d="M 2751.89151 2529.812497 C 2751.89151 2531.734846 2751.527056 2533.590906 2750.798148 2535.380679 C 2750.036108 2537.170452 2748.975878 2538.761361 2747.617459 2540.120262 C 2746.259039 2541.479164 2744.668695 2542.53977 2742.879557 2543.302081 C 2741.09042 2544.031247 2739.235018 2544.395831 2737.313351 2544.395831 C 2735.358553 2544.395831 2733.503151 2544.031247 2731.714013 2543.302081 C 2729.924875 2542.53977 2728.334531 2541.479164 2726.976112 2540.120262 C 2725.617692 2538.761361 2724.557463 2537.170452 2723.795422 2535.380679 C 2723.066515 2533.590906 2722.702061 2531.734846 2722.702061 2529.812497 C 2722.702061 2527.857005 2723.066515 2526.000944 2723.795422 2524.211171 C 2724.557463 2522.421399 2725.617692 2520.83049 2726.976112 2519.471588 C 2728.334531 2518.112687 2729.924875 2517.052081 2731.714013 2516.322914 C 2733.503151 2515.560603 2735.358553 2515.19602 2737.313351 2515.19602 C 2739.235018 2515.19602 2741.09042 2515.560603 2742.879557 2516.322914 C 2744.668695 2517.052081 2746.259039 2518.112687 2747.617459 2519.471588 C 2749.00901 2520.83049 2750.036108 2522.421399 2750.798148 2524.211171 C 2751.527056 2526.000944 2751.89151 2527.857005 2751.89151 2529.812497 Z M 2751.89151 2529.812497 " stroke="#ffffff" stroke-width="6" stroke-opacity="1" stroke-miterlimit="10"/><path stroke-linecap="round" transform="matrix(0.117899, 0, 0, 0.117857, -100.331919, 12.761496)" fill="none" stroke-linejoin="miter" d="M 2603.094897 2509.992421 C 2603.094897 2511.947914 2602.730443 2513.803974 2602.001535 2515.593747 C 2601.239495 2517.38352 2600.179266 2518.941285 2598.820846 2520.333331 C 2597.462427 2521.692232 2595.872082 2522.752838 2594.082945 2523.482005 C 2592.293807 2524.244315 2590.438405 2524.608899 2588.483607 2524.608899 C 2586.56194 2524.608899 2584.706538 2524.244315 2582.917401 2523.482005 C 2581.128263 2522.752838 2579.537918 2521.692232 2578.179499 2520.333331 C 2576.82108 2518.941285 2575.76085 2517.38352 2574.99881 2515.593747 C 2574.269902 2513.803974 2573.905448 2511.947914 2573.905448 2509.992421 C 2573.905448 2508.070073 2574.269902 2506.214012 2574.99881 2504.42424 C 2575.76085 2502.634467 2576.82108 2501.043558 2578.179499 2499.684656 C 2579.537918 2498.292611 2581.128263 2497.265149 2582.917401 2496.502838 C 2584.706538 2495.773671 2586.56194 2495.409088 2588.483607 2495.409088 C 2590.438405 2495.409088 2592.293807 2495.773671 2594.082945 2496.502838 C 2595.872082 2497.265149 2597.462427 2498.292611 2598.820846 2499.684656 C 2600.179266 2501.043558 2601.239495 2502.634467 2602.001535 2504.42424 C 2602.730443 2506.214012 2603.094897 2508.070073 2603.094897 2509.992421 Z M 2603.094897 2509.992421 " stroke="#ffffff" stroke-width="6" stroke-opacity="1" stroke-miterlimit="10"/><path stroke-linecap="round" transform="matrix(0.117899, 0, 0, 0.117857, -100.331919, 12.761496)" fill="none" stroke-linejoin="miter" d="M 2644.51012 2631.696967 C 2644.51012 2633.619316 2644.112534 2635.50852 2643.383626 2637.298293 C 2642.654718 2639.088066 2641.594488 2640.645831 2640.236069 2642.037876 C 2638.844518 2643.396778 2637.287305 2644.457384 2635.498167 2645.18655 C 2633.70903 2645.915717 2631.820496 2646.313444 2629.898829 2646.313444 C 2627.977163 2646.313444 2626.088629 2645.915717 2624.299491 2645.18655 C 2622.510354 2644.457384 2620.953141 2643.396778 2619.56159 2642.037876 C 2618.20317 2640.645831 2617.142941 2639.088066 2616.414033 2637.298293 C 2615.685125 2635.50852 2615.287539 2633.619316 2615.287539 2631.696967 C 2615.287539 2629.774619 2615.685125 2627.885414 2616.414033 2626.095641 C 2617.142941 2624.339013 2618.20317 2622.748103 2619.56159 2621.389202 C 2620.953141 2619.997156 2622.510354 2618.93655 2624.299491 2618.207384 C 2626.088629 2617.478217 2627.977163 2617.113634 2629.898829 2617.113634 C 2631.820496 2617.113634 2633.70903 2617.478217 2635.498167 2618.207384 C 2637.287305 2618.93655 2638.844518 2619.997156 2640.236069 2621.389202 C 2641.594488 2622.748103 2642.654718 2624.339013 2643.383626 2626.128785 C 2644.112534 2627.885414 2644.51012 2629.774619 2644.51012 2631.696967 Z M 2644.51012 2631.696967 " stroke="#ffffff" stroke-width="6" stroke-opacity="1" stroke-miterlimit="10"/><path stroke-linecap="round" transform="matrix(0.117899, 0, 0, 0.117857, -100.331919, 12.761496)" fill="none" stroke-linejoin="miter" d="M 2712.596746 2602.497156 C 2712.596746 2604.419505 2712.232292 2606.308709 2711.503384 2608.098482 C 2710.741344 2609.888255 2709.681115 2611.44602 2708.322695 2612.838066 C 2706.964276 2614.196967 2705.373931 2615.257573 2703.584794 2615.98674 C 2701.795656 2616.715906 2699.940254 2617.113634 2697.985456 2617.113634 C 2696.063789 2617.113634 2694.208387 2616.715906 2692.41925 2615.98674 C 2690.630112 2615.257573 2689.039768 2614.196967 2687.681348 2612.838066 C 2686.322929 2611.44602 2685.262699 2609.888255 2684.500659 2608.098482 C 2683.771751 2606.308709 2683.407297 2604.419505 2683.407297 2602.497156 C 2683.407297 2600.574808 2683.771751 2598.685603 2684.500659 2596.895831 C 2685.262699 2595.139202 2686.322929 2593.548293 2687.681348 2592.189391 C 2689.039768 2590.797346 2690.630112 2589.73674 2692.41925 2589.007573 C 2694.208387 2588.278406 2696.063789 2587.913823 2697.985456 2587.913823 C 2699.940254 2587.913823 2701.795656 2588.278406 2703.584794 2589.007573 C 2705.373931 2589.73674 2706.964276 2590.797346 2708.322695 2592.189391 C 2709.681115 2593.548293 2710.741344 2595.139202 2711.503384 2596.895831 C 2712.232292 2598.685603 2712.596746 2600.574808 2712.596746 2602.497156 Z M 2712.596746 2602.497156 " stroke="#ffffff" stroke-width="6" stroke-opacity="1" stroke-miterlimit="10"/><path fill="#66b0f0" d="M 235.042969 326.027344 L 223.679688 371.460938 L 220.09375 371.460938 C 219.929688 371.460938 219.777344 371.449219 219.609375 371.4375 C 216.898438 371.1875 214.613281 368.902344 214.035156 366.203125 L 205.238281 325.554688 C 215.046875 331.484375 223.679688 321.890625 223.679688 321.890625 Z M 235.042969 326.027344 " fill-opacity="1" fill-rule="nonzero"/><path stroke-linecap="butt" transform="matrix(0.117899, 0, 0, 0.117857, -100.331919, 12.761496)" fill-opacity="1" fill="#ffffff" fill-rule="nonzero" stroke-linejoin="round" d="M 2849.498907 2855.816286 C 2869.808932 2748.595642 2875.40827 2666.696967 2840.387558 2660.101323 C 2805.399977 2653.505679 2743.111482 2724.599429 2722.801457 2831.78693 C 2702.491432 2939.007574 2713.093729 3033.79924 2748.114441 3040.394884 C 2783.102021 3047.08996 2829.188881 2963.103218 2849.498907 2855.816286 Z M 2849.498907 2855.816286 " stroke="#66b0f0" stroke-width="6" stroke-opacity="1" stroke-miterlimit="10"/><path fill="#ffffff" d="M 219.03125 346.308594 C 217.792969 352.863281 217.429688 359.191406 218.019531 364.140625 C 218.441406 367.699219 219.339844 370.234375 220.566406 371.460938 L 220.09375 371.460938 C 219.929688 371.460938 219.777344 371.449219 219.609375 371.4375 C 218.503906 369.976562 217.710938 367.523438 217.3125 364.222656 C 216.710938 359.214844 217.074219 352.804688 218.335938 346.179688 C 219.527344 339.910156 221.933594 334.027344 225.128906 329.609375 C 227.039062 326.96875 229.042969 325.117188 230.871094 324.28125 L 231.929688 324.636719 C 227.722656 325.882812 221.332031 334.179688 219.03125 346.308594 Z M 219.03125 346.308594 " fill-opacity="1" fill-rule="nonzero"/><path fill="#fe5244" d="M 209.554688 229.230469 L 263.339844 223.691406 L 317.101562 238.765625 L 316.640625 245.90625 C 315.910156 257.171875 306.195312 265.941406 294.902344 265.941406 L 227.96875 265.941406 Z M 209.554688 229.230469 " fill-opacity="1" fill-rule="nonzero"/><path stroke-linecap="round" transform="matrix(0.117899, 0, 0, 0.117857, -100.331919, 12.761496)" fill="none" stroke-linejoin="round" d="M 3514.594252 1913.202648 C 3514.594252 2000.006625 3427.986738 2106.199807 3332.201611 2106.199807 L 2764.51487 2106.199807 " stroke="#ffffff" stroke-width="6" stroke-opacity="1" stroke-miterlimit="10"/><path stroke-linecap="round" transform="matrix(0.117899, 0, 0, 0.117857, -100.331919, 12.761496)" fill="none" stroke-linejoin="round" d="M 3460.489405 1895.901511 C 3446.308833 1973.392042 3370.502409 2056.185602 3287.506303 2056.185602 L 2741.488006 2056.185602 " stroke="#ffffff" stroke-width="6" stroke-opacity="1" stroke-miterlimit="10"/><path stroke-linecap="round" transform="matrix(0.117899, 0, 0, 0.117857, -100.331919, 12.761496)" fill="none" stroke-linejoin="round" d="M 3398.996083 1877.506625 C 3375.008385 1943.297345 3309.903655 2005.210224 3239.39838 2005.210224 L 2712.49735 2005.210224 " stroke="#ffffff" stroke-width="6" stroke-opacity="1" stroke-miterlimit="10"/><path stroke-linecap="round" transform="matrix(0.117899, 0, 0, 0.117857, -100.331919, 12.761496)" fill="none" stroke-linejoin="round" d="M 3351.716464 1864.613632 C 3320.207763 1912.506625 3268.488432 1950.191284 3213.38962 1950.191284 L 2686.48859 1950.191284 " stroke="#ffffff" stroke-width="6" stroke-opacity="1" stroke-miterlimit="10"/><path stroke-linecap="round" transform="matrix(0.117899, 0, 0, 0.117857, -100.331919, 12.761496)" fill="none" stroke-linejoin="round" d="M 3298.903772 1849.798292 C 3268.587829 1880.290716 3229.392462 1900.210223 3188.407958 1900.210223 L 2661.506927 1900.210223 " stroke="#ffffff" stroke-width="6" stroke-opacity="1" stroke-miterlimit="10"/><path stroke-linecap="round" transform="matrix(0.117899, 0, 0, 0.117857, -100.331919, 12.761496)" fill="none" stroke-linejoin="round" d="M 3230.187634 1829.911928 C 3208.784247 1842.009466 3185.39293 1849.201701 3161.405232 1849.201701 L 2634.504202 1849.201701 " stroke="#ffffff" stroke-width="6" stroke-opacity="1" stroke-miterlimit="10"/><path stroke-linecap="round" transform="matrix(0.117899, 0, 0, 0.117857, -100.331919, 12.761496)" fill="none" stroke-linejoin="round" d="M 2783.499608 2148.193178 L 2627.413916 1836.706435 " stroke="#ffffff" stroke-width="6" stroke-opacity="1" stroke-miterlimit="10"/><path stroke-linecap="butt" transform="matrix(0.117899, 0, 0, 0.117857, -100.331919, 12.761496)" fill-opacity="1" fill="#ffffff" fill-rule="nonzero" stroke-linejoin="round" d="M 3565.584675 1500.196018 C 3522.612239 1512.392988 3480.302448 1508.813442 3475.796472 1495.688442 C 3471.588685 1483.193177 3490.606555 1461.815336 3529.106146 1447.596586 C 3530.994681 1446.900564 3533.015743 1446.204541 3535.003674 1445.508518 C 3546.599937 1441.597533 3558.196199 1439.111738 3569.096686 1437.78598 C 3601.400559 1433.709276 3627.707509 1439.509465 3630.987594 1449.286927 C 3635.493571 1462.411927 3611.108288 1487.303026 3565.584675 1500.196018 Z M 3565.584675 1500.196018 " stroke="#3fb1b5" stroke-width="6" stroke-opacity="1" stroke-miterlimit="10"/><path fill="#a0505a" d="M 316.84375 223.9375 L 314.898438 223.9375 L 309.792969 189.488281 L 309.792969 189.464844 L 309.660156 188.605469 C 309.910156 187.035156 312.363281 184.820312 316.6875 183.382812 C 318.847656 182.664062 320.992188 182.347656 322.820312 182.3125 L 324.683594 187.414062 L 324.859375 187.898438 L 330.753906 204.054688 C 334.289062 213.707031 327.132812 223.9375 316.84375 223.9375 Z M 316.84375 223.9375 " fill-opacity="1" fill-rule="nonzero"/><path fill="#73325a" d="M 324.800781 187.78125 C 323.5625 188.558594 321.957031 189.277344 320.046875 189.816406 C 315.664062 191.054688 311.21875 190.550781 309.792969 189.488281 L 309.792969 189.464844 L 309.660156 188.605469 C 309.910156 187.035156 312.363281 184.820312 316.6875 183.382812 C 318.847656 182.664062 320.992188 182.347656 322.820312 182.3125 Z M 324.800781 187.78125 " fill-opacity="1" fill-rule="nonzero"/><path fill="#a0505a" d="M 253.695312 195.59375 L 247.503906 210.984375 C 244.453125 218.585938 237.070312 223.574219 228.867188 223.574219 L 145.664062 223.574219 L 145.664062 215.960938 C 145.664062 214.121094 146.796875 212.46875 148.515625 211.820312 L 157.066406 208.582031 C 157.84375 208.285156 158.65625 208.132812 159.480469 208.132812 L 169.183594 208.132812 L 224.101562 202.59375 L 233.582031 180.898438 Z M 253.695312 195.59375 " fill-opacity="1" fill-rule="nonzero"/><path stroke-linecap="round" transform="matrix(0.117899, 0, 0, 0.117857, -100.331919, 12.761496)" fill="none" stroke-linejoin="miter" d="M 2162.503191 1701.214011 L 2107.801965 1721.895829 C 2096.802082 1726.10511 2089.513003 1736.611738 2089.513003 1748.410981 " stroke="#73325a" stroke-width="6" stroke-opacity="1" stroke-miterlimit="10"/><path stroke-linecap="round" transform="matrix(0.117899, 0, 0, 0.117857, -100.331919, 12.761496)" fill="none" stroke-linejoin="miter" d="M 2162.503191 1734.192231 L 2107.801965 1754.907193 C 2096.802082 1759.083329 2089.513003 1769.589958 2089.513003 1781.389201 " stroke="#73325a" stroke-width="6" stroke-opacity="1" stroke-miterlimit="10"/><path stroke-linecap="round" transform="matrix(0.117899, 0, 0, 0.117857, -100.331919, 12.761496)" fill="none" stroke-linejoin="miter" d="M 2162.503191 1766.010413 L 2107.801965 1785.697913 " stroke="#73325a" stroke-width="6" stroke-opacity="1" stroke-miterlimit="10"/><path fill="#fe5244" d="M 153.953125 209.890625 C 153.953125 209.890625 159.988281 194.484375 161.921875 194.746094 C 163.855469 195.003906 156.570312 208.898438 156.570312 208.898438 Z M 153.953125 209.890625 " fill-opacity="1" fill-rule="nonzero"/><path fill="#73325a" d="M 233.582031 180.910156 L 232.191406 184.078125 L 250.003906 204.761719 L 253.695312 195.59375 Z M 233.582031 180.910156 " fill-opacity="1" fill-rule="nonzero"/><path fill="#3fb1b5" d="M 309.792969 189.5 L 317.101562 238.765625 L 263.351562 223.691406 L 253.695312 195.582031 L 228.769531 177.371094 L 237.519531 166.953125 C 245.324219 157.65625 256.84375 152.28125 268.988281 152.28125 L 286.257812 152.28125 C 301.277344 152.28125 315.109375 160.484375 322.3125 173.660156 L 327.914062 183.347656 C 327.914062 183.347656 326.226562 180.871094 317.136719 183.359375 C 309.132812 185.5625 309.792969 189.5 309.792969 189.5 Z M 309.792969 189.5 " fill-opacity="1" fill-rule="nonzero"/><path stroke-linecap="round" transform="matrix(0.117899, 0, 0, 0.117857, -100.331919, 12.761496)" fill="none" stroke-linejoin="round" d="M 3002.801495 1549.315336 L 3026.491003 1446.502836 " stroke="#ffffff" stroke-width="6" stroke-opacity="1" stroke-miterlimit="10"/><path stroke-linecap="round" transform="matrix(0.117899, 0, 0, 0.117857, -100.331919, 12.761496)" fill="none" stroke-linejoin="round" d="M 3529.106146 1820.00189 L 3452.007568 1340.707382 " stroke="#ffffff" stroke-width="6" stroke-opacity="1" stroke-miterlimit="10"/><path stroke-linecap="round" transform="matrix(0.117899, 0, 0, 0.117857, -100.331919, 12.761496)" fill="none" stroke-linejoin="round" d="M 3084.604843 1787.785981 L 3539.609047 1917.610792 " stroke="#ffffff" stroke-width="6" stroke-opacity="1" stroke-miterlimit="10"/><path fill="#a0505a" d="M 266.238281 144.40625 L 266.238281 152.328125 L 280.222656 152.210938 L 280.222656 138.230469 Z M 266.238281 144.40625 " fill-opacity="1" fill-rule="nonzero"/><path fill="#a0505a" d="M 281.355469 135.792969 L 281.355469 136.003906 C 281.355469 138.125 279.75 139.847656 277.628906 139.847656 L 276.804688 139.847656 C 276.273438 141.945312 271.558594 144.394531 268.207031 144.394531 L 264.304688 144.394531 C 260.039062 144.394531 256.773438 140.566406 257.46875 136.347656 L 257.65625 135.203125 L 256.5 134.554688 C 255.839844 134.179688 255.652344 133.316406 256.113281 132.703125 L 258.613281 129.40625 L 259.152344 126.152344 C 259.589844 123.476562 261.347656 121.296875 263.679688 120.222656 C 264.601562 130.582031 273.75 131.808594 276.167969 131.949219 L 277.511719 131.949219 C 279.632812 131.949219 281.355469 133.671875 281.355469 135.792969 Z M 281.355469 135.792969 " fill-opacity="1" fill-rule="nonzero"/><path stroke-linecap="round" transform="matrix(0.117899, 0, 0, 0.117857, -100.331919, 12.761496)" fill="none" stroke-linejoin="miter" d="M 3184.895947 1052.487684 C 3184.895947 1038.302078 3196.392813 1026.801131 3210.606517 1026.801131 " stroke="#73325a" stroke-width="6" stroke-opacity="1" stroke-miterlimit="10"/><path fill="#73325a" d="M 262.984375 130.664062 C 262.984375 130.851562 262.96875 131.027344 262.941406 131.199219 C 262.910156 131.367188 262.867188 131.519531 262.808594 131.648438 C 262.753906 131.78125 262.6875 131.878906 262.613281 131.949219 C 262.539062 132.019531 262.464844 132.054688 262.382812 132.054688 C 262.304688 132.054688 262.226562 132.019531 262.152344 131.949219 C 262.082031 131.878906 262.015625 131.78125 261.960938 131.648438 C 261.902344 131.519531 261.859375 131.367188 261.828125 131.199219 C 261.796875 131.027344 261.78125 130.851562 261.78125 130.664062 C 261.78125 130.480469 261.796875 130.304688 261.828125 130.132812 C 261.859375 129.964844 261.902344 129.8125 261.960938 129.683594 C 262.015625 129.550781 262.082031 129.453125 262.152344 129.382812 C 262.226562 129.308594 262.304688 129.273438 262.382812 129.273438 C 262.464844 129.273438 262.539062 129.308594 262.613281 129.382812 C 262.6875 129.453125 262.753906 129.550781 262.808594 129.683594 C 262.867188 129.8125 262.910156 129.964844 262.941406 130.132812 C 262.96875 130.304688 262.984375 130.480469 262.984375 130.664062 Z M 262.984375 130.664062 " fill-opacity="1" fill-rule="nonzero"/><path stroke-linecap="round" transform="matrix(0.117899, 0, 0, 0.117857, -100.331919, 12.761496)" fill="none" stroke-linejoin="miter" d="M 3068.701398 963.893934 C 3068.701398 963.893934 3082.815706 962.501889 3097.294468 982.487684 " stroke="#73325a" stroke-width="6" stroke-opacity="1" stroke-miterlimit="10"/><path fill="#73325a" d="M 276.167969 131.949219 L 277.511719 131.949219 C 279.632812 131.949219 281.355469 133.671875 281.355469 135.792969 L 281.355469 136.003906 C 281.355469 138.125 279.75 139.847656 277.628906 139.847656 L 276.722656 140.484375 C 272.902344 142.933594 267.617188 152.574219 268.914062 159.398438 C 270.378906 167.070312 277.0625 168.78125 283.242188 167.601562 C 289.417969 166.421875 293.921875 162.828125 292.460938 155.144531 C 292.296875 154.238281 292.023438 153.328125 291.683594 152.433594 C 291.789062 152.46875 291.882812 152.503906 291.988281 152.539062 C 299.417969 154.566406 308.140625 154.804688 310.546875 149.003906 C 312.949219 143.207031 312.410156 137.464844 305.179688 134.472656 C 300.984375 132.726562 295.277344 132.738281 290.855469 133.941406 C 293.085938 126.199219 289.125 117.582031 281.847656 116.722656 C 270.425781 115.367188 263.871094 120.082031 263.691406 120.210938 C 263.679688 121.578125 264.613281 131.277344 276.167969 131.949219 Z M 276.167969 131.949219 " fill-opacity="1" fill-rule="nonzero"/><path stroke-linecap="round" transform="matrix(0.117899, 0, 0, 0.117857, -100.331919, 12.761496)" fill="none" stroke-linejoin="round" d="M 3320.505952 1025.906245 C 3312.587362 1051.592798 3296.28633 1079.102268 3269.81372 1097.795449 C 3269.81372 1097.795449 3316.596355 1128.685601 3327.596238 1186.090904 " stroke="#ffffff" stroke-width="6" stroke-opacity="1" stroke-miterlimit="10"/><path stroke-linecap="butt" transform="matrix(0.117899, 0, 0, 0.117857, -100.331919, 12.761496)" fill="none" stroke-linejoin="round" d="M 3347.707471 1023.685601 L 3321.201728 1023.685601 L 3321.201728 997.203593 C 3321.201728 983.316283 3332.400404 972.113631 3346.315919 972.113631 L 3347.707471 972.113631 C 3361.589853 972.113631 3372.78853 983.316283 3372.78853 997.203593 L 3372.78853 998.595639 C 3372.887926 1012.383517 3361.589853 1023.685601 3347.707471 1023.685601 Z M 3347.707471 1023.685601 " stroke="#fe5244" stroke-width="6" stroke-opacity="1" stroke-miterlimit="10"/><path stroke-linecap="butt" transform="matrix(0.117899, 0, 0, 0.117857, -100.331919, 12.761496)" fill="none" stroke-linejoin="round" d="M 3337.999742 1050.896775 L 3321.002935 1023.884464 L 3348.00566 1006.914767 C 3361.490457 998.396775 3379.414965 1002.407192 3387.896803 1015.896775 L 3389.487147 1018.415714 C 3398.002117 1031.905298 3393.993124 1049.803025 3380.508327 1058.287874 L 3377.990282 1059.911927 C 3364.306692 1068.396775 3346.514712 1064.386358 3337.999742 1050.896775 Z M 3337.999742 1050.896775 " stroke="#fe5244" stroke-width="6" stroke-opacity="1" stroke-miterlimit="10"/><path stroke-linecap="butt" transform="matrix(0.117899, 0, 0, 0.117857, -100.331919, 12.761496)" fill="none" stroke-linejoin="round" d="M 3181.383936 1099.088063 L 3200.30241 1080.991472 L 3218.790165 1101.905298 C 3227.901514 1112.411927 3226.708756 1128.287874 3216.205855 1137.303025 L 3215.112493 1138.197912 C 3204.609593 1147.312495 3188.706147 1146.086169 3179.694195 1135.612684 L 3178.799626 1134.48579 C 3169.688277 1124.111737 3170.914168 1108.202646 3181.383936 1099.088063 Z M 3181.383936 1099.088063 " stroke="#fe5244" stroke-width="6" stroke-opacity="1" stroke-miterlimit="10"/><path stroke-linecap="butt" transform="matrix(0.117899, 0, 0, 0.117857, -100.331919, 12.761496)" fill="none" stroke-linejoin="round" d="M 3209.016173 1112.113631 L 3200.501203 1081.389199 L 3231.214732 1072.904351 C 3246.588063 1068.595639 3262.491508 1077.61079 3266.798691 1092.989578 L 3267.593864 1095.906245 C 3271.901047 1111.285033 3262.889094 1127.194124 3247.515764 1131.502836 L 3244.600132 1132.29829 C 3229.193669 1136.507571 3213.290224 1127.392987 3209.016173 1112.113631 Z M 3209.016173 1112.113631 " stroke="#fe5244" stroke-width="6" stroke-opacity="1" stroke-miterlimit="10"/><path stroke-linecap="round" transform="matrix(0.117899, 0, 0, 0.117857, -100.331919, 12.761496)" fill="none" stroke-linejoin="miter" d="M 2936.106421 2225.087118 L 2761.897427 3040.394884 " stroke="#ffcf2d" stroke-width="6" stroke-opacity="1" stroke-miterlimit="10"/><path stroke-linecap="round" transform="matrix(0.117899, 0, 0, 0.117857, -100.331919, 12.761496)" fill="none" stroke-linejoin="miter" d="M 3381.899879 2225.087118 L 3556.108872 3040.394884 " stroke="#ffcf2d" stroke-width="6" stroke-opacity="1" stroke-miterlimit="10"/><path stroke-linecap="round" transform="matrix(0.117899, 0, 0, 0.117857, -100.331919, 12.761496)" fill="none" stroke-linejoin="miter" d="M 2800.496415 2859.395831 L 3515.091235 2859.395831 " stroke="#ffcf2d" stroke-width="6" stroke-opacity="1" stroke-miterlimit="10"/><path stroke-linecap="butt" transform="matrix(0.117899, 0, 0, 0.117857, -100.331919, 12.761496)" fill-opacity="1" fill="#ffffff" fill-rule="nonzero" stroke-linejoin="round" d="M 3519.000832 2225.087118 L 2798.906071 2225.087118 C 2789.794721 2225.087118 2782.406246 2217.696019 2782.406246 2208.61458 L 2782.406246 2164.69886 C 2782.406246 2155.584277 2789.794721 2148.193178 2798.906071 2148.193178 L 3519.000832 2148.193178 C 3528.112181 2148.193178 3535.500657 2155.584277 3535.500657 2164.69886 L 3535.500657 2208.61458 C 3535.500657 2217.696019 3528.112181 2225.087118 3519.000832 2225.087118 Z M 3519.000832 2225.087118 " stroke="#66b0f0" stroke-width="6" stroke-opacity="1" stroke-miterlimit="10"/></svg>