<svg xmlns="http://www.w3.org/2000/svg" xmlns:xlink="http://www.w3.org/1999/xlink" width="230" zoomAndPan="magnify" viewBox="0 0 172.5 112.499997" height="150" preserveAspectRatio="xMidYMid meet" version="1.0"><defs><clipPath id="60bf7e10ae"><path d="M 3 42 L 169 42 L 169 112.003906 L 3 112.003906 Z M 3 42 " clip-rule="nonzero"/></clipPath><clipPath id="d4be7df52a"><path d="M 137 64 L 151 64 L 151 112.003906 L 137 112.003906 Z M 137 64 " clip-rule="nonzero"/></clipPath><clipPath id="479b5952ce"><path d="M 110 64 L 123 64 L 123 112.003906 L 110 112.003906 Z M 110 64 " clip-rule="nonzero"/></clipPath><clipPath id="63dd437f1a"><path d="M 51 64 L 64 64 L 64 112.003906 L 51 112.003906 Z M 51 64 " clip-rule="nonzero"/></clipPath><clipPath id="6a10338f4e"><path d="M 23 64 L 37 64 L 37 112.003906 L 23 112.003906 Z M 23 64 " clip-rule="nonzero"/></clipPath></defs><path fill="#d0f0e4" d="M 168.375 111.132812 L 3.265625 111.132812 L 32.90625 93.585938 L 139.191406 93.585938 Z M 168.375 111.132812 " fill-opacity="1" fill-rule="nonzero"/><path stroke-linecap="butt" transform="matrix(0.0440525, 0, 0, 0.0441609, -24.310773, -21.174299)" fill-opacity="1" fill="#ffffff" fill-rule="nonzero" stroke-linejoin="miter" d="M 2774.878531 1053.730934 L 2100.612713 1053.730934 L 2100.612713 663.821266 C 2100.612713 637.373219 2121.98279 615.967107 2148.4072 615.967107 L 2727.084044 615.967107 C 2753.508454 615.967107 2774.878531 637.373219 2774.878531 663.821266 Z M 2774.878531 1053.730934 " stroke="#66b0f0" stroke-width="6" stroke-opacity="1" stroke-miterlimit="10"/><path fill="#66b0f0" d="M 95.6875 24.234375 L 70.589844 24.234375 C 69.929688 24.234375 69.394531 23.699219 69.394531 23.035156 L 69.394531 8.277344 C 69.394531 7.613281 69.929688 7.074219 70.589844 7.074219 L 95.6875 7.074219 C 96.347656 7.074219 96.886719 7.613281 96.886719 8.277344 L 96.886719 23.039062 C 96.886719 23.703125 96.347656 24.234375 95.6875 24.234375 Z M 95.6875 24.234375 " fill-opacity="1" fill-rule="nonzero"/><path stroke-linecap="butt" transform="matrix(0.0440525, 0, 0, 0.0441609, -24.310773, -21.174299)" fill-opacity="1" fill="#66b0f0" fill-rule="nonzero" stroke-linejoin="miter" d="M 2893.078996 1145.193411 C 2918.882698 1161.999862 2912.94164 1194.905125 2882.438294 1194.905125 L 1963.79102 1194.905125 C 1938.07599 1194.905125 1929.297411 1160.230762 1954.480405 1144.308861 Z M 2893.078996 1145.193411 " stroke="#66b0f0" stroke-width="6" stroke-opacity="1" stroke-miterlimit="10"/><path stroke-linecap="butt" transform="matrix(0.0440525, 0, 0, 0.0441609, -24.310773, -21.174299)" fill-opacity="1" fill="#ffffff" fill-rule="nonzero" stroke-linejoin="miter" d="M 2882.438294 1171.995278 L 1963.79102 1171.995278 C 1947.386604 1171.995278 1940.91351 1152.712086 1954.480405 1144.308861 L 2100.790058 1053.730934 L 2773.016408 1053.730934 L 2892.990323 1145.193411 C 2904.961113 1154.304277 2897.955984 1171.995278 2882.438294 1171.995278 Z M 2882.438294 1171.995278 " stroke="#66b0f0" stroke-width="6" stroke-opacity="1" stroke-miterlimit="10"/><path stroke-linecap="butt" transform="matrix(0.0440525, 0, 0, 0.0441609, -24.310773, -21.174299)" fill-opacity="1" fill="#ffffff" fill-rule="nonzero" stroke-linejoin="miter" d="M 2776.385964 1144.662681 L 2069.84335 1144.662681 C 2057.16318 1144.662681 2052.197519 1129.80224 2062.572203 1123.433479 L 2164.190908 1053.730934 L 2692.235745 1053.730934 L 2784.543835 1124.141119 C 2793.765777 1131.129065 2788.356754 1144.662681 2776.385964 1144.662681 Z M 2776.385964 1144.662681 " stroke="#66b0f0" stroke-width="6" stroke-opacity="1" stroke-miterlimit="10"/><path stroke-linecap="butt" transform="matrix(0.0440525, 0, 0, 0.0441609, -24.310773, -21.174299)" fill="none" stroke-linejoin="miter" d="M 2646.480727 1053.730934 L 2738.877489 1144.662681 " stroke="#66b0f0" stroke-width="6" stroke-opacity="1" stroke-miterlimit="10"/><path stroke-linecap="butt" transform="matrix(0.0440525, 0, 0, 0.0441609, -24.310773, -21.174299)" fill="none" stroke-linejoin="miter" d="M 2597.533497 1053.730934 L 2678.934868 1144.662681 " stroke="#66b0f0" stroke-width="6" stroke-opacity="1" stroke-miterlimit="10"/><path stroke-linecap="butt" transform="matrix(0.0440525, 0, 0, 0.0441609, -24.310773, -21.174299)" fill="none" stroke-linejoin="miter" d="M 2551.689806 1053.730934 L 2622.27313 1144.662681 " stroke="#66b0f0" stroke-width="6" stroke-opacity="1" stroke-miterlimit="10"/><path stroke-linecap="butt" transform="matrix(0.0440525, 0, 0, 0.0441609, -24.310773, -21.174299)" fill="none" stroke-linejoin="miter" d="M 2500.525764 1053.730934 L 2560.202368 1144.662681 " stroke="#66b0f0" stroke-width="6" stroke-opacity="1" stroke-miterlimit="10"/><path stroke-linecap="butt" transform="matrix(0.0440525, 0, 0, 0.0441609, -24.310773, -21.174299)" fill="none" stroke-linejoin="miter" d="M 2457.962956 1053.730934 L 2487.136214 1144.662681 " stroke="#66b0f0" stroke-width="6" stroke-opacity="1" stroke-miterlimit="10"/><path stroke-linecap="butt" transform="matrix(0.0440525, 0, 0, 0.0441609, -24.310773, -21.174299)" fill="none" stroke-linejoin="miter" d="M 2207.108406 1053.730934 L 2114.711643 1144.662681 " stroke="#66b0f0" stroke-width="6" stroke-opacity="1" stroke-miterlimit="10"/><path stroke-linecap="butt" transform="matrix(0.0440525, 0, 0, 0.0441609, -24.310773, -21.174299)" fill="none" stroke-linejoin="miter" d="M 2256.144308 1053.730934 L 2174.742937 1144.662681 " stroke="#66b0f0" stroke-width="6" stroke-opacity="1" stroke-miterlimit="10"/><path stroke-linecap="butt" transform="matrix(0.0440525, 0, 0, 0.0441609, -24.310773, -21.174299)" fill="none" stroke-linejoin="miter" d="M 2301.899326 1053.730934 L 2231.316003 1144.662681 " stroke="#66b0f0" stroke-width="6" stroke-opacity="1" stroke-miterlimit="10"/><path stroke-linecap="butt" transform="matrix(0.0440525, 0, 0, 0.0441609, -24.310773, -21.174299)" fill="none" stroke-linejoin="miter" d="M 2353.063368 1053.730934 L 2293.386765 1144.662681 " stroke="#66b0f0" stroke-width="6" stroke-opacity="1" stroke-miterlimit="10"/><path stroke-linecap="butt" transform="matrix(0.0440525, 0, 0, 0.0441609, -24.310773, -21.174299)" fill="none" stroke-linejoin="miter" d="M 2395.626177 1053.730934 L 2366.541591 1144.662681 " stroke="#66b0f0" stroke-width="6" stroke-opacity="1" stroke-miterlimit="10"/><path stroke-linecap="butt" transform="matrix(0.0440525, 0, 0, 0.0441609, -24.310773, -21.174299)" fill="none" stroke-linejoin="miter" d="M 2424.356072 1145.812596 L 2424.356072 1053.730934 " stroke="#66b0f0" stroke-width="6" stroke-opacity="1" stroke-miterlimit="10"/><path stroke-linecap="butt" transform="matrix(0.0440525, 0, 0, 0.0441609, -24.310773, -21.174299)" fill="none" stroke-linejoin="miter" d="M 2114.711643 1087.697657 L 2736.926694 1087.697657 " stroke="#66b0f0" stroke-width="6" stroke-opacity="1" stroke-miterlimit="10"/><path fill="#ffcf2d" d="M 93.601562 24.234375 L 71.3125 24.234375 L 71.714844 21.386719 C 71.960938 19.632812 73.21875 18.195312 74.914062 17.710938 L 80.34375 16.578125 L 84.570312 16.578125 L 90 17.710938 C 91.703125 18.191406 92.957031 19.632812 93.199219 21.386719 Z M 93.601562 24.234375 " fill-opacity="1" fill-rule="nonzero"/><path fill="#ffffff" d="M 83.960938 19.832031 L 82.355469 18.203125 C 82.320312 18.167969 82.320312 18.109375 82.355469 18.082031 C 82.390625 18.046875 82.445312 18.046875 82.476562 18.082031 L 83.953125 19.578125 L 86.242188 16.976562 C 86.273438 16.941406 86.332031 16.9375 86.367188 16.96875 C 86.402344 17 86.40625 17.054688 86.375 17.089844 Z M 83.960938 19.832031 " fill-opacity="1" fill-rule="nonzero"/><path fill="#ffffff" d="M 80.976562 19.832031 L 78.5625 17.089844 C 78.53125 17.054688 78.53125 17 78.570312 16.96875 C 78.605469 16.9375 78.660156 16.9375 78.691406 16.976562 L 80.984375 19.578125 L 82.460938 18.082031 C 82.496094 18.046875 82.546875 18.046875 82.582031 18.082031 C 82.617188 18.117188 82.617188 18.167969 82.582031 18.203125 Z M 80.976562 19.832031 " fill-opacity="1" fill-rule="nonzero"/><path fill="#ffffff" d="M 82.496094 20.898438 C 82.28125 20.898438 82.113281 20.726562 82.113281 20.511719 C 82.113281 20.300781 82.28125 20.128906 82.496094 20.128906 C 82.707031 20.128906 82.878906 20.300781 82.878906 20.511719 C 82.878906 20.726562 82.707031 20.898438 82.496094 20.898438 Z M 82.496094 20.304688 C 82.378906 20.304688 82.289062 20.398438 82.289062 20.511719 C 82.289062 20.628906 82.378906 20.722656 82.496094 20.722656 C 82.609375 20.722656 82.703125 20.628906 82.703125 20.511719 C 82.703125 20.398438 82.609375 20.304688 82.496094 20.304688 Z M 82.496094 20.304688 " fill-opacity="1" fill-rule="nonzero"/><path fill="#ffffff" d="M 82.496094 23.0625 C 82.28125 23.0625 82.113281 22.890625 82.113281 22.675781 C 82.113281 22.464844 82.28125 22.292969 82.496094 22.292969 C 82.707031 22.292969 82.878906 22.464844 82.878906 22.675781 C 82.878906 22.890625 82.707031 23.0625 82.496094 23.0625 Z M 82.496094 22.46875 C 82.378906 22.46875 82.289062 22.5625 82.289062 22.675781 C 82.289062 22.792969 82.378906 22.886719 82.496094 22.886719 C 82.609375 22.886719 82.703125 22.792969 82.703125 22.675781 C 82.703125 22.5625 82.609375 22.46875 82.496094 22.46875 Z M 82.496094 22.46875 " fill-opacity="1" fill-rule="nonzero"/><path stroke-linecap="butt" transform="matrix(0.0440525, 0, 0, 0.0441609, -24.310773, -21.174299)" fill-opacity="1" fill="#ffffff" fill-rule="nonzero" stroke-linejoin="miter" d="M 2375.142825 1026.221427 L 2211.719377 1026.221427 L 2168.092498 896.811753 L 2331.515947 850.019054 Z M 2375.142825 1026.221427 " stroke="#66b0f0" stroke-width="4" stroke-opacity="1" stroke-miterlimit="10"/><path stroke-linecap="round" transform="matrix(0.0440525, 0, 0, 0.0441609, -24.310773, -21.174299)" fill-opacity="1" fill="#ffffff" fill-rule="nonzero" stroke-linejoin="miter" d="M 2220.231938 913.618204 L 2217.1284 913.618204 C 2209.236546 913.618204 2202.763452 907.160988 2202.763452 899.288493 L 2202.763452 854.441805 C 2202.763452 851.168969 2205.423628 848.603774 2208.615839 848.603774 L 2222.094061 848.603774 C 2225.286272 848.603774 2227.857775 851.168969 2227.857775 854.441805 L 2227.857775 905.834163 C 2228.03512 910.080004 2224.488219 913.618204 2220.231938 913.618204 Z M 2220.231938 913.618204 " stroke="#66b0f0" stroke-width="4" stroke-opacity="1" stroke-miterlimit="10"/><path fill="#ffffff" d="M 76.394531 19.171875 L 76.53125 19.171875 C 76.878906 19.171875 77.160156 18.886719 77.160156 18.539062 L 77.160156 16.558594 C 77.160156 16.414062 77.046875 16.300781 76.90625 16.300781 L 76.304688 16.300781 C 76.164062 16.300781 76.050781 16.414062 76.050781 16.558594 L 76.050781 18.828125 C 76.050781 19.015625 76.203125 19.171875 76.394531 19.171875 Z M 76.394531 19.171875 " fill-opacity="1" fill-rule="nonzero"/><path fill="#ffffff" d="M 74.601562 19.402344 L 74.285156 19.402344 C 74.035156 19.402344 73.839844 19.203125 73.839844 18.953125 L 73.839844 16.5625 C 73.839844 16.417969 73.953125 16.304688 74.09375 16.304688 L 74.6875 16.304688 C 74.828125 16.304688 74.945312 16.417969 74.945312 16.5625 L 74.945312 19.054688 C 74.945312 19.246094 74.789062 19.402344 74.601562 19.402344 Z M 74.601562 19.402344 " fill-opacity="1" fill-rule="nonzero"/><path fill="#ffffff" d="M 75.710938 19.488281 L 75.445312 19.488281 C 75.167969 19.488281 74.945312 19.265625 74.945312 18.984375 L 74.945312 16.558594 C 74.945312 16.414062 75.058594 16.300781 75.199219 16.300781 L 75.792969 16.300781 C 75.933594 16.300781 76.050781 16.414062 76.050781 16.558594 L 76.050781 19.144531 C 76.050781 19.335938 75.894531 19.488281 75.710938 19.488281 Z M 75.710938 19.488281 " fill-opacity="1" fill-rule="nonzero"/><path stroke-linecap="round" transform="matrix(0.0440525, 0, 0, 0.0441609, -24.310773, -21.174299)" fill="none" stroke-linejoin="miter" d="M 2286.026946 913.618204 L 2289.130484 913.618204 C 2297.022338 913.618204 2303.406759 907.160988 2303.406759 899.288493 L 2303.406759 854.441805 C 2303.406759 851.168969 2300.835256 848.603774 2297.643045 848.603774 L 2283.987478 848.603774 C 2280.795267 848.603774 2278.223764 851.168969 2278.223764 854.441805 L 2278.223764 905.834163 C 2278.223764 910.080004 2281.681992 913.618204 2286.026946 913.618204 Z M 2286.026946 913.618204 " stroke="#66b0f0" stroke-width="4" stroke-opacity="1" stroke-miterlimit="10"/><path stroke-linecap="round" transform="matrix(0.0440525, 0, 0, 0.0441609, -24.310773, -21.174299)" fill="none" stroke-linejoin="miter" d="M 2245.32626 918.837049 L 2238.143787 918.837049 C 2232.468746 918.837049 2228.03512 914.325844 2228.03512 908.664724 L 2228.03512 854.53026 C 2228.03512 851.257424 2230.606623 848.692229 2233.798833 848.692229 L 2247.277056 848.692229 C 2250.469266 848.692229 2253.129442 851.257424 2253.129442 854.53026 L 2253.129442 910.964554 C 2253.129442 915.298849 2249.582541 918.837049 2245.32626 918.837049 Z M 2245.32626 918.837049 " stroke="#66b0f0" stroke-width="4" stroke-opacity="1" stroke-miterlimit="10"/><path stroke-linecap="round" transform="matrix(0.0440525, 0, 0, 0.0441609, -24.310773, -21.174299)" fill="none" stroke-linejoin="miter" d="M 2270.509255 920.783059 L 2264.479524 920.783059 C 2258.183775 920.783059 2253.129442 915.741124 2253.129442 909.372364 L 2253.129442 854.441805 C 2253.129442 851.168969 2255.700945 848.603774 2258.893156 848.603774 L 2272.371378 848.603774 C 2275.563589 848.603774 2278.223764 851.168969 2278.223764 854.441805 L 2278.223764 912.999019 C 2278.223764 917.333314 2274.676864 920.783059 2270.509255 920.783059 Z M 2270.509255 920.783059 " stroke="#66b0f0" stroke-width="4" stroke-opacity="1" stroke-miterlimit="10"/><path fill="#ffffff" d="M 84.574219 13.980469 L 84.574219 17.207031 C 84.574219 17.761719 83.625 18.21875 82.460938 18.21875 C 81.292969 18.21875 80.34375 17.761719 80.34375 17.207031 L 80.34375 13.980469 Z M 84.574219 13.980469 " fill-opacity="1" fill-rule="nonzero"/><path fill="#66b0f0" d="M 84.574219 13.980469 C 84.574219 16.414062 83.019531 17.140625 81.527344 17.011719 C 81.519531 17.011719 81.515625 17.011719 81.511719 17.011719 C 80.851562 16.949219 80.347656 16.382812 80.347656 15.722656 L 80.347656 13.988281 L 84.574219 13.988281 Z M 84.574219 13.980469 " fill-opacity="1" fill-rule="nonzero"/><path fill="#ffffff" d="M 85.554688 13.152344 L 85.554688 13.316406 C 85.554688 13.675781 85.265625 13.96875 84.902344 13.96875 L 84.570312 13.96875 L 84.574219 14.042969 C 84.574219 15.085938 83.734375 15.929688 82.691406 15.929688 L 82.230469 15.929688 C 81.191406 15.929688 80.347656 15.085938 80.347656 14.042969 L 80.355469 13.96875 L 80.019531 13.96875 C 79.65625 13.96875 79.367188 13.675781 79.367188 13.316406 L 79.367188 13.152344 C 79.367188 12.789062 79.65625 12.5 80.019531 12.5 L 80.445312 12.5 L 80.496094 11.699219 C 80.496094 11.574219 80.511719 11.457031 80.546875 11.347656 C 81.808594 11.660156 83.28125 10.847656 83.679688 10.605469 C 84.121094 10.773438 84.433594 11.195312 84.433594 11.695312 L 84.480469 12.492188 L 84.910156 12.492188 C 85.265625 12.5 85.554688 12.789062 85.554688 13.152344 Z M 85.554688 13.152344 " fill-opacity="1" fill-rule="nonzero"/><path fill="#e57281" d="M 84.933594 12.5 L 84.476562 12.5 L 84.429688 11.699219 C 84.429688 11.199219 84.117188 10.777344 83.675781 10.609375 C 83.277344 10.847656 81.804688 11.660156 80.542969 11.351562 C 80.507812 11.460938 80.488281 11.578125 80.488281 11.703125 L 80.441406 12.503906 L 80.15625 12.503906 C 80.15625 12.503906 79.570312 9.660156 80.148438 9.136719 C 80.574219 8.753906 84.484375 9.59375 84.917969 10.1875 C 85.160156 10.527344 84.933594 12.5 84.933594 12.5 Z M 84.933594 12.5 " fill-opacity="1" fill-rule="nonzero"/><path fill="#66b0f0" d="M 83.832031 12.324219 C 83.820312 12.324219 83.804688 12.320312 83.789062 12.308594 C 83.785156 12.304688 83.5 12.070312 83.039062 12.070312 C 83.003906 12.070312 82.976562 12.039062 82.976562 12.003906 C 82.976562 11.96875 83.003906 11.9375 83.039062 11.9375 C 83.546875 11.9375 83.859375 12.195312 83.875 12.207031 C 83.898438 12.230469 83.902344 12.273438 83.882812 12.300781 C 83.875 12.316406 83.851562 12.324219 83.832031 12.324219 Z M 83.832031 12.324219 " fill-opacity="1" fill-rule="nonzero"/><path fill="#66b0f0" d="M 82.160156 13.695312 C 82.152344 13.695312 82.140625 13.695312 82.136719 13.691406 C 82.101562 13.675781 82.085938 13.636719 82.097656 13.605469 C 82.222656 13.28125 82.191406 12.871094 82.019531 12.507812 C 81.917969 12.285156 81.773438 12.128906 81.644531 12.082031 C 81.363281 11.984375 80.964844 12.121094 80.960938 12.121094 C 80.925781 12.136719 80.890625 12.117188 80.878906 12.082031 C 80.863281 12.046875 80.882812 12.011719 80.917969 12 C 80.933594 11.996094 81.359375 11.847656 81.683594 11.960938 C 81.847656 12.015625 82.015625 12.199219 82.132812 12.453125 C 82.320312 12.847656 82.347656 13.296875 82.21875 13.660156 C 82.210938 13.675781 82.1875 13.695312 82.160156 13.695312 Z M 82.160156 13.695312 " fill-opacity="1" fill-rule="nonzero"/><path fill="#66b0f0" d="M 83.027344 14.398438 C 83.03125 14.433594 83 14.464844 82.964844 14.46875 L 82.960938 14.46875 C 82.925781 14.46875 82.898438 14.441406 82.894531 14.40625 C 82.890625 14.363281 82.882812 14.316406 82.867188 14.277344 C 82.679688 14.371094 82.507812 14.402344 82.367188 14.402344 C 82.089844 14.402344 81.921875 14.285156 81.914062 14.277344 C 81.882812 14.257812 81.878906 14.214844 81.894531 14.183594 C 81.917969 14.15625 81.957031 14.148438 81.988281 14.167969 C 81.996094 14.171875 82.136719 14.269531 82.367188 14.269531 C 82.488281 14.269531 82.640625 14.242188 82.8125 14.160156 C 82.785156 14.113281 82.757812 14.089844 82.757812 14.089844 C 82.734375 14.0625 82.738281 14.015625 82.761719 13.996094 C 82.789062 13.972656 82.832031 13.972656 82.855469 14 C 82.863281 14.011719 83.015625 14.179688 83.027344 14.398438 Z M 83.027344 14.398438 " fill-opacity="1" fill-rule="nonzero"/><path fill="#66b0f0" d="M 83.363281 12.910156 C 83.371094 13.054688 83.339844 13.132812 83.265625 13.136719 C 83.191406 13.140625 83.152344 13.070312 83.140625 12.921875 C 83.132812 12.773438 83.164062 12.699219 83.238281 12.695312 C 83.3125 12.691406 83.351562 12.761719 83.363281 12.910156 Z M 83.363281 12.910156 " fill-opacity="1" fill-rule="nonzero"/><path fill="#66b0f0" d="M 81.554688 12.910156 C 81.5625 13.042969 81.535156 13.113281 81.46875 13.117188 C 81.398438 13.121094 81.363281 13.054688 81.351562 12.921875 C 81.34375 12.785156 81.375 12.714844 81.441406 12.710938 C 81.507812 12.707031 81.546875 12.773438 81.554688 12.910156 Z M 81.554688 12.910156 " fill-opacity="1" fill-rule="nonzero"/><path fill="#66b0f0" d="M 80.234375 13.363281 C 80.199219 13.363281 80.167969 13.332031 80.167969 13.296875 C 80.167969 13.101562 80.011719 12.949219 79.820312 12.949219 C 79.785156 12.949219 79.753906 12.917969 79.753906 12.882812 C 79.753906 12.847656 79.785156 12.816406 79.820312 12.816406 C 80.085938 12.816406 80.300781 13.03125 80.300781 13.296875 C 80.300781 13.335938 80.269531 13.363281 80.234375 13.363281 Z M 80.234375 13.363281 " fill-opacity="1" fill-rule="nonzero"/><path fill="#66b0f0" d="M 84.667969 13.363281 C 84.632812 13.363281 84.601562 13.332031 84.601562 13.296875 C 84.601562 13.03125 84.816406 12.816406 85.082031 12.816406 C 85.117188 12.816406 85.148438 12.847656 85.148438 12.882812 C 85.148438 12.917969 85.117188 12.949219 85.082031 12.949219 C 84.886719 12.949219 84.734375 13.109375 84.734375 13.296875 C 84.734375 13.335938 84.707031 13.363281 84.667969 13.363281 Z M 84.667969 13.363281 " fill-opacity="1" fill-rule="nonzero"/><g clip-path="url(#60bf7e10ae)"><path stroke-linecap="butt" transform="matrix(0.0440525, 0, 0, 0.0441609, -24.310773, -21.174299)" fill="none" stroke-linejoin="miter" d="M 4283.996095 2996.025967 L 3855.707839 1579.772858 C 3847.195277 1551.644166 3821.125557 1532.272519 3791.597609 1532.272519 L 1192.074106 1532.272519 C 1162.28014 1532.272519 1136.121747 1551.997986 1127.786531 1580.657408 L 719.094901 2996.025967 " stroke="#66b0f0" stroke-width="6" stroke-opacity="1" stroke-miterlimit="10"/></g><path stroke-linecap="butt" transform="matrix(0.0440525, 0, 0, 0.0441609, -24.310773, -21.174299)" fill="none" stroke-linejoin="miter" d="M 1904.203088 1053.730934 L 3041.162099 1053.730934 " stroke="#66b0f0" stroke-width="6" stroke-opacity="1" stroke-miterlimit="10"/><path fill="#ffcf2d" d="M 76.957031 34.863281 L 88.789062 34.863281 L 88.789062 45.050781 L 76.957031 45.050781 C 76.957031 45.050781 76.957031 34.476562 76.957031 34.863281 Z M 76.957031 34.863281 " fill-opacity="1" fill-rule="nonzero"/><path fill="#9a3b82" d="M 121.203125 82.199219 L 115.703125 68.464844 L 124.558594 68.464844 Z M 121.203125 82.199219 " fill-opacity="1" fill-rule="nonzero"/><path fill="#9a3b82" d="M 106.105469 50.132812 C 107.289062 47.894531 109.609375 46.492188 112.132812 46.492188 L 118.949219 46.492188 L 123.578125 50.132812 Z M 106.105469 50.132812 " fill-opacity="1" fill-rule="nonzero"/><path fill="#3fb1b5" d="M 131.945312 66.210938 L 114.777344 66.210938 L 121.238281 81.9375 C 120.789062 81.203125 118.097656 81.96875 115.246094 83.722656 C 112.433594 85.453125 110.53125 87.535156 110.917969 88.296875 L 96.988281 64 C 93.375 57.871094 97.78125 50.132812 104.882812 50.132812 L 143.351562 50.132812 L 143.4375 50.398438 C 145.949219 58.214844 140.132812 66.210938 131.945312 66.210938 Z M 131.945312 66.210938 " fill-opacity="1" fill-rule="nonzero"/><path fill="#e6e6e6" d="M 144.019531 54.640625 C 143.957031 56.078125 143.640625 57.464844 143.101562 58.746094 L 122.925781 50.136719 L 142.953125 50.136719 L 143.417969 51.503906 C 143.746094 52.328125 143.925781 53.480469 144.019531 54.640625 Z M 144.019531 54.640625 " fill-opacity="1" fill-rule="nonzero"/><path fill="#66b0f0" d="M 121.242188 81.9375 C 121.691406 82.671875 119.726562 84.671875 116.882812 86.421875 C 114.03125 88.175781 111.382812 89.054688 110.933594 88.324219 C 110.484375 87.589844 112.402344 85.519531 115.253906 83.765625 C 118.097656 82.011719 120.789062 81.203125 121.242188 81.9375 Z M 121.242188 81.9375 " fill-opacity="1" fill-rule="nonzero"/><path stroke-linecap="round" transform="matrix(0.0440525, 0, 0, 0.0441609, -24.310773, -21.174299)" fill="none" stroke-linejoin="miter" d="M 3160.603979 2376.487101 L 2876.231218 1873.708844 C 2853.885744 1833.904091 2882.615639 1784.723108 2928.281985 1784.723108 L 3482.219198 1784.723108 C 3556.792784 1784.723108 3612.479125 1715.993568 3597.13878 1643.018187 " stroke="#ffffff" stroke-width="6" stroke-opacity="1" stroke-miterlimit="10"/><path stroke-linecap="round" transform="matrix(0.0440525, 0, 0, 0.0441609, -24.310773, -21.174299)" fill="none" stroke-linejoin="miter" d="M 3066.788456 2480.598644 C 3056.591117 2463.969103 3100.661358 2411.161464 3168.141143 2371.887441 C 3243.7788 2327.836848 3292.814702 2314.657052 3307.356995 2338.097628 " stroke="#ffffff" stroke-width="6" stroke-opacity="1" stroke-miterlimit="10"/><path stroke-linecap="round" transform="matrix(0.0440525, 0, 0, 0.0441609, -24.310773, -21.174299)" fill="none" stroke-linejoin="miter" d="M 3309.573808 2340.309004 L 3123.804885 1897.326331 " stroke="#ffffff" stroke-width="6" stroke-opacity="1" stroke-miterlimit="10"/><path stroke-linecap="butt" transform="matrix(0.0440525, 0, 0, 0.0441609, -24.310773, -21.174299)" fill="none" stroke-linejoin="miter" d="M 2921.808891 1611.43975 L 3375.102797 1611.43975 " stroke="#ffffff" stroke-width="6" stroke-opacity="1" stroke-miterlimit="10"/><path fill="#e57281" d="M 115.695312 89.332031 L 114.507812 87.707031 L 112.867188 85.472656 C 113.539062 84.910156 114.34375 84.320312 115.246094 83.765625 C 117.046875 82.660156 118.777344 81.929688 119.925781 81.726562 L 120.722656 83.320312 L 121.71875 85.304688 C 121.015625 87.820312 115.695312 89.332031 115.695312 89.332031 Z M 115.695312 89.332031 " fill-opacity="1" fill-rule="nonzero"/><path fill="#9a3b82" d="M 120.726562 83.320312 C 119.988281 84.222656 118.59375 85.367188 116.882812 86.421875 C 116.058594 86.929688 115.253906 87.363281 114.511719 87.707031 L 112.875 85.472656 C 113.542969 84.910156 114.347656 84.320312 115.253906 83.765625 C 117.050781 82.660156 118.78125 81.929688 119.929688 81.726562 Z M 120.726562 83.320312 " fill-opacity="1" fill-rule="nonzero"/><path stroke-linecap="butt" transform="matrix(0.0440525, 0, 0, 0.0441609, -24.310773, -21.174299)" fill-opacity="1" fill="#ffffff" fill-rule="nonzero" stroke-linejoin="miter" d="M 3438.503647 2609.477588 L 3164.062207 2806.643798 C 3140.830008 2822.831064 3104.562949 2836.276225 3109.439937 2777.719011 C 3116.090376 2696.871135 3134.002224 2576.660781 3178.161138 2502.27012 C 3180.111933 2501.827845 3298.933105 2467.507303 3314.894159 2411.073009 L 3440.01108 2499.97029 C 3476.012122 2528.010527 3475.214069 2582.587266 3438.503647 2609.477588 Z M 3438.503647 2609.477588 " stroke="#ffcf2d" stroke-width="6" stroke-opacity="1" stroke-miterlimit="10"/><path stroke-linecap="round" transform="matrix(0.0440525, 0, 0, 0.0441609, -24.310773, -21.174299)" fill="none" stroke-linejoin="miter" d="M 3165.480968 2528.364347 C 3187.294407 2532.521733 3309.66248 2489.090325 3328.727071 2422.21834 " stroke="#ffcf2d" stroke-width="6" stroke-opacity="1" stroke-miterlimit="10"/><path fill="#ffcf2d" d="M 113.839844 101.871094 C 113.839844 101.871094 121.726562 90.882812 127.339844 91.503906 C 133.449219 92.167969 108.84375 108.277344 113.839844 101.871094 Z M 113.839844 101.871094 " fill-opacity="1" fill-rule="nonzero"/><path stroke-linecap="round" transform="matrix(0.0440525, 0, 0, 0.0441609, -24.310773, -21.174299)" fill="none" stroke-linejoin="miter" d="M 3130.898686 2820.177414 C 3116.977101 2821.061964 3102.257463 2804.874698 3122.56347 2778.868926 C 3122.56347 2778.868926 3309.041772 2520.934127 3441.695858 2535.529203 C 3462.179209 2537.740578 3469.095665 2554.370119 3464.307349 2568.788285 " stroke="#ffcf2d" stroke-width="6" stroke-opacity="1" stroke-miterlimit="10"/><path stroke-linecap="butt" transform="matrix(0.0440525, 0, 0, 0.0441609, -24.310773, -21.174299)" fill-opacity="1" fill="#ffffff" fill-rule="nonzero" stroke-linejoin="miter" d="M 3822.100955 1737.134314 C 3758.700105 1722.096963 3600.863025 1682.557575 3420.857816 1640.983722 C 3336.264235 1621.523621 3265.503567 1563.939412 3228.97049 1485.126001 L 3065.103679 1130.50988 L 3164.328225 973.325333 C 3194.831571 924.940445 3246.793666 894.069647 3303.898766 890.619902 L 3401.527207 884.604962 C 3499.865029 878.590021 3578.872241 939.977796 3608.932224 1033.917013 L 3807.381317 1614.712585 C 3829.194756 1669.112414 3822.100955 1737.134314 3822.100955 1737.134314 Z M 3822.100955 1737.134314 " stroke="#fe5244" stroke-width="6" stroke-opacity="1" stroke-miterlimit="10"/><path stroke-linecap="butt" transform="matrix(0.0440525, 0, 0, 0.0441609, -24.310773, -21.174299)" fill="none" stroke-linejoin="miter" d="M 3151.382037 1150.412256 C 3151.382037 1150.412256 3203.61015 1232.410047 3322.519995 1250.543324 " stroke="#fe5244" stroke-width="6" stroke-opacity="1" stroke-miterlimit="10"/><path stroke-linecap="butt" transform="matrix(0.0440525, 0, 0, 0.0441609, -24.310773, -21.174299)" fill-opacity="1" fill="#ffcf2d" fill-rule="nonzero" stroke-linejoin="round" d="M 3221.788016 1001.18866 C 3216.378992 995.439085 3206.891033 997.031275 3203.61015 1004.107676 C 3199.885904 1012.068626 3206.625015 1021.002582 3215.314922 1019.675757 C 3224.182174 1018.437387 3227.90642 1007.734331 3221.788016 1001.18866 Z M 3221.788016 1001.18866 " stroke="#fe5244" stroke-width="6" stroke-opacity="1" stroke-miterlimit="10"/><path stroke-linecap="butt" transform="matrix(0.0440525, 0, 0, 0.0441609, -24.310773, -21.174299)" fill-opacity="1" fill="#ffcf2d" fill-rule="nonzero" stroke-linejoin="round" d="M 3470.869116 1172.083733 C 3465.460092 1166.334157 3455.972133 1167.926348 3452.69125 1175.002748 C 3448.967004 1182.963699 3455.706115 1191.897654 3464.396022 1190.570829 C 3473.263274 1189.332459 3476.987519 1178.629403 3470.869116 1172.083733 Z M 3470.869116 1172.083733 " stroke="#fe5244" stroke-width="6" stroke-opacity="1" stroke-miterlimit="10"/><path stroke-linecap="butt" transform="matrix(0.0440525, 0, 0, 0.0441609, -24.310773, -21.174299)" fill-opacity="1" fill="#ffcf2d" fill-rule="nonzero" stroke-linejoin="round" d="M 3549.787656 1242.140098 C 3544.378632 1236.302068 3534.890673 1237.894258 3531.60979 1244.970658 C 3527.885544 1253.020064 3534.624655 1261.865564 3543.314562 1260.627194 C 3552.093141 1259.388824 3555.817387 1248.685768 3549.787656 1242.140098 Z M 3549.787656 1242.140098 " stroke="#fe5244" stroke-width="6" stroke-opacity="1" stroke-miterlimit="10"/><path stroke-linecap="butt" transform="matrix(0.0440525, 0, 0, 0.0441609, -24.310773, -21.174299)" fill-opacity="1" fill="#ffcf2d" fill-rule="nonzero" stroke-linejoin="round" d="M 3701.062969 1638.241617 C 3695.742618 1632.403587 3686.165986 1633.995777 3682.885103 1641.072177 C 3679.160858 1649.121583 3685.899969 1657.967084 3694.589876 1656.728713 C 3703.368455 1655.401888 3707.0927 1644.787288 3701.062969 1638.241617 Z M 3701.062969 1638.241617 " stroke="#fe5244" stroke-width="6" stroke-opacity="1" stroke-miterlimit="10"/><path stroke-linecap="butt" transform="matrix(0.0440525, 0, 0, 0.0441609, -24.310773, -21.174299)" fill-opacity="1" fill="#ffcf2d" fill-rule="nonzero" stroke-linejoin="round" d="M 3616.380716 1448.859448 C 3610.971692 1443.109873 3601.483733 1444.702063 3598.20285 1451.778463 C 3594.478604 1459.827869 3601.217715 1468.67337 3609.907622 1467.435 C 3618.774874 1466.108174 3622.499119 1455.405119 3616.380716 1448.859448 Z M 3616.380716 1448.859448 " stroke="#fe5244" stroke-width="6" stroke-opacity="1" stroke-miterlimit="10"/><path stroke-linecap="butt" transform="matrix(0.0440525, 0, 0, 0.0441609, -24.310773, -21.174299)" fill-opacity="1" fill="#ffcf2d" fill-rule="nonzero" stroke-linejoin="round" d="M 3651.495032 1312.727193 C 3643.691851 1313.700198 3639.43557 1322.368789 3643.337161 1329.179824 C 3647.682114 1336.87541 3658.766179 1336.610045 3662.756442 1328.737549 C 3666.92405 1320.688144 3660.273612 1311.488823 3651.495032 1312.727193 Z M 3651.495032 1312.727193 " stroke="#fe5244" stroke-width="6" stroke-opacity="1" stroke-miterlimit="10"/><path stroke-linecap="butt" transform="matrix(0.0440525, 0, 0, 0.0441609, -24.310773, -21.174299)" fill-opacity="1" fill="#ffcf2d" fill-rule="nonzero" stroke-linejoin="round" d="M 3715.427917 1514.669973 C 3707.624736 1515.731433 3703.279782 1524.400024 3707.181373 1531.211059 C 3711.614999 1538.906645 3722.699063 1538.64128 3726.689327 1530.680329 C 3730.768262 1522.719379 3724.295169 1513.520058 3715.427917 1514.669973 Z M 3715.427917 1514.669973 " stroke="#fe5244" stroke-width="6" stroke-opacity="1" stroke-miterlimit="10"/><path stroke-linecap="butt" transform="matrix(0.0440525, 0, 0, 0.0441609, -24.310773, -21.174299)" fill-opacity="1" fill="#ffcf2d" fill-rule="nonzero" stroke-linejoin="round" d="M 3450.385764 1296.805292 C 3444.976741 1290.967262 3435.488781 1292.559452 3432.207898 1299.724307 C 3428.483653 1307.685258 3435.222764 1316.619213 3443.912671 1315.292388 C 3452.69125 1313.965563 3456.415495 1303.439418 3450.385764 1296.805292 Z M 3450.385764 1296.805292 " stroke="#fe5244" stroke-width="6" stroke-opacity="1" stroke-miterlimit="10"/><path stroke-linecap="butt" transform="matrix(0.0440525, 0, 0, 0.0441609, -24.310773, -21.174299)" fill-opacity="1" fill="#ffcf2d" fill-rule="nonzero" stroke-linejoin="round" d="M 3395.320131 1410.116155 C 3389.911108 1404.278125 3380.423148 1405.870315 3377.142265 1413.035171 C 3373.41802 1420.996121 3380.068458 1429.930077 3388.758365 1428.603252 C 3397.714289 1427.276427 3401.438535 1416.573371 3395.320131 1410.116155 Z M 3395.320131 1410.116155 " stroke="#fe5244" stroke-width="6" stroke-opacity="1" stroke-miterlimit="10"/><path stroke-linecap="butt" transform="matrix(0.0440525, 0, 0, 0.0441609, -24.310773, -21.174299)" fill-opacity="1" fill="#ffcf2d" fill-rule="nonzero" stroke-linejoin="round" d="M 3296.716293 1370.488312 C 3302.480006 1365.092557 3300.883901 1355.627871 3293.7901 1352.266581 C 3285.809573 1348.639926 3276.942321 1355.274051 3278.183737 1364.031097 C 3279.513824 1372.788143 3290.065854 1376.503253 3296.716293 1370.488312 Z M 3296.716293 1370.488312 " stroke="#fe5244" stroke-width="6" stroke-opacity="1" stroke-miterlimit="10"/><path stroke-linecap="butt" transform="matrix(0.0440525, 0, 0, 0.0441609, -24.310773, -21.174299)" fill-opacity="1" fill="#ffcf2d" fill-rule="nonzero" stroke-linejoin="round" d="M 3384.236067 1565.531602 C 3389.99978 1560.135846 3388.403675 1550.582706 3381.309874 1547.30987 C 3373.329347 1543.59476 3364.373423 1550.317341 3365.703511 1558.985931 C 3367.033598 1567.919887 3377.6743 1571.634997 3384.236067 1565.531602 Z M 3384.236067 1565.531602 " stroke="#fe5244" stroke-width="6" stroke-opacity="1" stroke-miterlimit="10"/><path stroke-linecap="butt" transform="matrix(0.0440525, 0, 0, 0.0441609, -24.310773, -21.174299)" fill-opacity="1" fill="#ffcf2d" fill-rule="nonzero" stroke-linejoin="round" d="M 3531.521117 1398.174729 C 3537.284831 1392.778974 3535.688725 1383.314288 3528.594924 1380.041453 C 3520.614398 1376.326343 3511.658473 1382.960468 3512.988561 1391.717514 C 3514.318649 1400.47456 3524.959351 1404.278125 3531.521117 1398.174729 Z M 3531.521117 1398.174729 " stroke="#fe5244" stroke-width="6" stroke-opacity="1" stroke-miterlimit="10"/><path stroke-linecap="butt" transform="matrix(0.0440525, 0, 0, 0.0441609, -24.310773, -21.174299)" fill-opacity="1" fill="#ffcf2d" fill-rule="nonzero" stroke-linejoin="round" d="M 3581.798434 1607.636185 C 3587.562148 1602.240429 3585.966042 1592.687289 3578.872241 1589.414453 C 3570.891715 1585.699343 3562.024463 1592.421924 3563.265878 1601.090514 C 3564.507293 1610.02447 3575.236668 1613.73958 3581.798434 1607.636185 Z M 3581.798434 1607.636185 " stroke="#fe5244" stroke-width="6" stroke-opacity="1" stroke-miterlimit="10"/><path stroke-linecap="butt" transform="matrix(0.0440525, 0, 0, 0.0441609, -24.310773, -21.174299)" fill-opacity="1" fill="#ffcf2d" fill-rule="nonzero" stroke-linejoin="round" d="M 3280.223204 1183.494429 C 3274.814181 1177.656398 3265.326222 1179.337043 3261.956666 1186.413444 C 3258.321093 1194.374395 3264.971532 1203.30835 3273.661438 1201.981525 C 3282.617362 1200.743155 3286.341608 1190.040099 3280.223204 1183.494429 Z M 3280.223204 1183.494429 " stroke="#fe5244" stroke-width="6" stroke-opacity="1" stroke-miterlimit="10"/><path stroke-linecap="butt" transform="matrix(0.0440525, 0, 0, 0.0441609, -24.310773, -21.174299)" fill-opacity="1" fill="#ffcf2d" fill-rule="nonzero" stroke-linejoin="round" d="M 3298.135053 924.055895 C 3292.726029 918.306319 3283.23807 919.898509 3279.868514 926.97491 C 3276.232941 935.024315 3282.88338 943.869816 3291.573287 942.631446 C 3300.529211 941.304621 3304.164784 930.601565 3298.135053 924.055895 Z M 3298.135053 924.055895 " stroke="#fe5244" stroke-width="6" stroke-opacity="1" stroke-miterlimit="10"/><path stroke-linecap="butt" transform="matrix(0.0440525, 0, 0, 0.0441609, -24.310773, -21.174299)" fill-opacity="1" fill="#ffcf2d" fill-rule="nonzero" stroke-linejoin="round" d="M 3470.869116 924.055895 C 3465.460092 918.306319 3455.972133 919.898509 3452.69125 926.97491 C 3448.967004 935.024315 3455.706115 943.869816 3464.396022 942.631446 C 3473.263274 941.304621 3476.987519 930.601565 3470.869116 924.055895 Z M 3470.869116 924.055895 " stroke="#fe5244" stroke-width="6" stroke-opacity="1" stroke-miterlimit="10"/><path stroke-linecap="butt" transform="matrix(0.0440525, 0, 0, 0.0441609, -24.310773, -21.174299)" fill-opacity="1" fill="#ffcf2d" fill-rule="nonzero" stroke-linejoin="round" d="M 3471.223806 1036.128388 C 3463.863987 1038.958948 3461.824519 1048.423634 3467.322215 1054.084754 C 3473.440619 1060.36506 3484.081321 1057.534499 3486.120789 1048.865909 C 3488.071584 1040.197318 3479.47035 1032.767098 3471.223806 1036.128388 Z M 3471.223806 1036.128388 " stroke="#fe5244" stroke-width="6" stroke-opacity="1" stroke-miterlimit="10"/><path stroke-linecap="butt" transform="matrix(0.0440525, 0, 0, 0.0441609, -24.310773, -21.174299)" fill-opacity="1" fill="#ffcf2d" fill-rule="nonzero" stroke-linejoin="round" d="M 3372.974657 972.263873 C 3365.437493 974.475248 3362.5113 983.586114 3367.299616 989.777964 C 3372.797312 996.677455 3383.704032 994.8199 3386.541552 986.505129 C 3389.379073 978.013449 3381.487219 969.787133 3372.974657 972.263873 Z M 3372.974657 972.263873 " stroke="#fe5244" stroke-width="6" stroke-opacity="1" stroke-miterlimit="10"/><path stroke-linecap="butt" transform="matrix(0.0440525, 0, 0, 0.0441609, -24.310773, -21.174299)" fill-opacity="1" fill="#ffcf2d" fill-rule="nonzero" stroke-linejoin="round" d="M 3358.521037 1249.304954 C 3350.717855 1250.189504 3346.284229 1258.769639 3350.097148 1265.66913 C 3354.442101 1273.364715 3365.526166 1273.27626 3369.605101 1265.49222 C 3373.77271 1257.619724 3367.388288 1248.331948 3358.521037 1249.304954 Z M 3358.521037 1249.304954 " stroke="#fe5244" stroke-width="6" stroke-opacity="1" stroke-miterlimit="10"/><path stroke-linecap="butt" transform="matrix(0.0440525, 0, 0, 0.0441609, -24.310773, -21.174299)" fill-opacity="1" fill="#ffcf2d" fill-rule="nonzero" stroke-linejoin="round" d="M 3272.774713 1457.616494 C 3264.971532 1458.501044 3260.626578 1467.08118 3264.439496 1473.98067 C 3268.695777 1481.676256 3279.779842 1481.587801 3283.858778 1473.80376 C 3288.115058 1465.931264 3281.730637 1456.643489 3272.774713 1457.616494 Z M 3272.774713 1457.616494 " stroke="#fe5244" stroke-width="6" stroke-opacity="1" stroke-miterlimit="10"/><path stroke-linecap="butt" transform="matrix(0.0440525, 0, 0, 0.0441609, -24.310773, -21.174299)" fill-opacity="1" fill="#ffcf2d" fill-rule="nonzero" stroke-linejoin="round" d="M 3301.593281 1054.880849 C 3293.967445 1057.092224 3291.129924 1066.20309 3295.91824 1072.394941 C 3301.415936 1079.294431 3312.322656 1077.436876 3315.071504 1069.122105 C 3317.997697 1060.71888 3310.194515 1052.492564 3301.593281 1054.880849 Z M 3301.593281 1054.880849 " stroke="#fe5244" stroke-width="6" stroke-opacity="1" stroke-miterlimit="10"/><path stroke-linecap="butt" transform="matrix(0.0440525, 0, 0, 0.0441609, -24.310773, -21.174299)" fill-opacity="1" fill="#ffcf2d" fill-rule="nonzero" stroke-linejoin="round" d="M 3384.413412 1110.872868 C 3376.787575 1113.084244 3373.861382 1122.195109 3378.738371 1128.38696 C 3384.236067 1135.28645 3395.142786 1133.428895 3397.891634 1125.114124 C 3400.817827 1116.622444 3393.014646 1108.396128 3384.413412 1110.872868 Z M 3384.413412 1110.872868 " stroke="#fe5244" stroke-width="6" stroke-opacity="1" stroke-miterlimit="10"/><path stroke-linecap="butt" transform="matrix(0.0440525, 0, 0, 0.0441609, -24.310773, -21.174299)" fill-opacity="1" fill="#ffcf2d" fill-rule="nonzero" stroke-linejoin="round" d="M 3205.117583 1108.484583 C 3210.083244 1102.381188 3207.423068 1093.181867 3199.797232 1090.882037 C 3191.373343 1088.316842 3183.392816 1096.100882 3185.875647 1104.504108 C 3188.358477 1113.084244 3199.442542 1115.384074 3205.117583 1108.484583 Z M 3205.117583 1108.484583 " stroke="#fe5244" stroke-width="6" stroke-opacity="1" stroke-miterlimit="10"/><path stroke-linecap="butt" transform="matrix(0.0440525, 0, 0, 0.0441609, -24.310773, -21.174299)" fill-opacity="1" fill="#ffcf2d" fill-rule="nonzero" stroke-linejoin="round" d="M 3584.192592 1108.838403 C 3589.158253 1102.735008 3586.498078 1093.535687 3578.872241 1091.235857 C 3570.537025 1088.582207 3562.467826 1096.366247 3565.039329 1104.769473 C 3567.433486 1113.438064 3578.517551 1115.737894 3584.192592 1108.838403 Z M 3584.192592 1108.838403 " stroke="#fe5244" stroke-width="6" stroke-opacity="1" stroke-miterlimit="10"/><path stroke-linecap="butt" transform="matrix(0.0440525, 0, 0, 0.0441609, -24.310773, -21.174299)" fill-opacity="1" fill="#ffcf2d" fill-rule="nonzero" stroke-linejoin="round" d="M 3487.982911 1514.227698 C 3493.037245 1508.124303 3490.288397 1498.924982 3482.66256 1496.625152 C 3474.327344 1493.971501 3466.258145 1501.843997 3468.829648 1510.158768 C 3471.223806 1518.738903 3482.30787 1521.038733 3487.982911 1514.227698 Z M 3487.982911 1514.227698 " stroke="#fe5244" stroke-width="6" stroke-opacity="1" stroke-miterlimit="10"/><path fill="#e57281" d="M 125.828125 17.746094 C 125.730469 17.75 125.636719 17.753906 125.535156 17.757812 L 121.234375 18.023438 C 120.136719 18.089844 119.089844 18.386719 118.136719 18.875 L 116.816406 14.910156 L 122.707031 10.582031 Z M 125.828125 17.746094 " fill-opacity="1" fill-rule="nonzero"/><path fill="#9a3b82" d="M 118.121094 18.8125 C 119.34375 18.257812 120.324219 17.269531 120.878906 16.039062 L 123.019531 11.292969 L 122.707031 10.578125 L 116.816406 14.90625 Z M 118.121094 18.8125 " fill-opacity="1" fill-rule="nonzero"/><path fill="#e57281" d="M 123.085938 10.980469 C 123.085938 11.390625 122.917969 11.761719 122.648438 12.03125 C 122.378906 12.300781 122.007812 12.46875 121.601562 12.46875 L 120.304688 12.46875 C 119.792969 14.460938 117.816406 15.824219 115.6875 15.449219 L 114.714844 15.277344 C 113.648438 15.085938 112.921875 14.089844 113.070312 13.015625 L 114.210938 7.289062 C 114.410156 6.0625 115.667969 5.316406 116.832031 5.738281 L 118.722656 6.496094 C 119.746094 6.851562 120.433594 7.8125 120.433594 8.894531 L 120.433594 9.445312 L 121.601562 9.492188 C 122.417969 9.492188 123.085938 10.15625 123.085938 10.980469 Z M 123.085938 10.980469 " fill-opacity="1" fill-rule="nonzero"/><path stroke-linecap="round" transform="matrix(0.0440525, 0, 0, 0.0441609, -24.310773, -21.174299)" fill="none" stroke-linejoin="miter" d="M 3296.095585 734.585271 C 3296.095585 721.67084 3306.470269 711.321604 3319.416457 711.321604 " stroke="#9a3b82" stroke-width="5" stroke-opacity="1" stroke-miterlimit="10"/><path stroke-linecap="round" transform="matrix(0.0440525, 0, 0, 0.0441609, -24.310773, -21.174299)" fill="none" stroke-linejoin="miter" d="M 3158.919201 671.782216 C 3158.919201 671.782216 3179.934588 671.782216 3194.920243 691.861503 " stroke="#9a3b82" stroke-width="5" stroke-opacity="1" stroke-miterlimit="10"/><path fill="#9a3b82" d="M 115.328125 9.640625 C 115.390625 9.652344 115.433594 9.707031 115.457031 9.804688 C 115.484375 9.902344 115.484375 10.015625 115.460938 10.144531 C 115.4375 10.273438 115.398438 10.378906 115.339844 10.464844 C 115.28125 10.546875 115.21875 10.582031 115.160156 10.570312 C 115.101562 10.558594 115.058594 10.503906 115.03125 10.40625 C 115.007812 10.308594 115.003906 10.195312 115.027344 10.066406 C 115.050781 9.9375 115.09375 9.832031 115.152344 9.75 C 115.210938 9.667969 115.269531 9.628906 115.328125 9.640625 Z M 115.328125 9.640625 " fill-opacity="1" fill-rule="nonzero"/><path fill="#ffcf2d" d="M 121.601562 9.492188 C 122.417969 9.492188 123.085938 10.15625 123.085938 10.980469 C 123.085938 10.984375 123.085938 10.992188 123.085938 11 C 123.746094 9.980469 125.367188 7.382812 125.367188 6.503906 C 125.367188 5.328125 123.898438 4.148438 122.378906 4.6875 C 122.480469 4.609375 122.585938 4.53125 122.695312 4.449219 C 123.28125 3.988281 123.589844 3.644531 123.640625 3.398438 C 123.65625 3.308594 123.644531 3.230469 123.601562 3.167969 C 123.425781 2.914062 123.230469 2.804688 123.023438 2.839844 C 122.71875 2.890625 122.40625 3.265625 122.09375 3.953125 C 121.953125 4.265625 121.84375 4.574219 121.78125 4.765625 C 121.65625 4.027344 121.0625 1.585938 118.507812 1.960938 C 117.625 2.089844 117.210938 2.457031 117.097656 2.859375 C 116.367188 2.285156 115.386719 1.832031 114.578125 2.261719 C 113.175781 3 113.347656 4.210938 114.160156 5.066406 C 113.394531 5.054688 112.855469 5.277344 112.855469 5.925781 C 112.855469 6.523438 113.46875 6.808594 114.308594 6.925781 C 115.152344 7.039062 116.230469 6.976562 117.164062 6.871094 C 117.828125 6.796875 118.429688 6.703125 118.8125 6.636719 C 118.554688 7.164062 118.453125 7.613281 118.476562 7.992188 C 118.515625 8.78125 119.085938 9.242188 119.886719 9.40625 C 120.058594 9.441406 120.242188 9.464844 120.433594 9.472656 Z M 123.050781 3.015625 C 123.0625 3.011719 123.074219 3.011719 123.09375 3.011719 C 123.21875 3.011719 123.335938 3.101562 123.453125 3.269531 C 123.464844 3.285156 123.476562 3.3125 123.46875 3.363281 C 123.398438 3.71875 122.496094 4.398438 121.96875 4.757812 C 122.175781 4.148438 122.613281 3.09375 123.050781 3.015625 Z M 123.050781 3.015625 " fill-opacity="1" fill-rule="nonzero"/><path fill="#ffffff" d="M 118.085938 4.324219 C 117.78125 4.324219 117.472656 4.160156 117.246094 3.875 C 116.996094 3.554688 116.914062 3.164062 117.019531 2.824219 C 117.03125 2.777344 117.074219 2.753906 117.121094 2.761719 C 117.136719 2.761719 117.15625 2.765625 117.167969 2.777344 C 117.832031 3.253906 118.367188 3.9375 118.289062 4.203125 C 118.269531 4.277344 118.210938 4.320312 118.136719 4.324219 C 118.121094 4.324219 118.101562 4.324219 118.085938 4.324219 Z M 117.160156 2.992188 C 117.121094 3.246094 117.199219 3.527344 117.382812 3.761719 C 117.582031 4.015625 117.855469 4.160156 118.121094 4.144531 C 118.128906 4.027344 117.832031 3.503906 117.160156 2.992188 Z M 117.160156 2.992188 " fill-opacity="1" fill-rule="nonzero"/><path fill="#e57281" d="M 109.390625 43.316406 L 81.195312 43.316406 C 80.5 43.316406 80.082031 42.550781 80.449219 41.960938 L 84.203125 36.054688 C 84.691406 35.285156 85.535156 34.820312 86.441406 34.820312 L 105.523438 34.820312 Z M 109.390625 43.316406 " fill-opacity="1" fill-rule="nonzero"/><path fill="#fe5244" d="M 87.0625 34.824219 L 89.308594 31.117188 C 89.441406 30.894531 89.683594 30.757812 89.941406 30.757812 C 90.515625 30.757812 90.867188 31.390625 90.570312 31.886719 L 88.785156 34.824219 Z M 87.0625 34.824219 " fill-opacity="1" fill-rule="nonzero"/><path fill="#9a3b82" d="M 109.390625 43.316406 L 103.050781 43.316406 C 103.035156 43.304688 103.019531 43.289062 103.003906 43.273438 C 101.464844 41.683594 100.808594 39.273438 101.675781 36.949219 L 102.578125 34.820312 L 105.523438 34.820312 Z M 109.390625 43.316406 " fill-opacity="1" fill-rule="nonzero"/><path fill="#e57281" d="M 85.175781 39.351562 L 81.644531 39.351562 C 81.40625 39.351562 81.1875 39.480469 81.066406 39.6875 L 80.691406 40.339844 C 80.441406 40.785156 80.757812 41.335938 81.269531 41.335938 L 84.113281 41.335938 C 84.605469 41.335938 85.0625 41.078125 85.324219 40.65625 L 85.625 40.15625 C 85.839844 39.804688 85.585938 39.351562 85.175781 39.351562 Z M 85.175781 39.351562 " fill-opacity="1" fill-rule="nonzero"/><path fill="#e57281" d="M 84.265625 41.335938 L 80.734375 41.335938 C 80.496094 41.335938 80.273438 41.464844 80.15625 41.671875 L 79.78125 42.324219 C 79.53125 42.765625 79.847656 43.316406 80.359375 43.316406 L 83.199219 43.316406 C 83.691406 43.316406 84.152344 43.0625 84.410156 42.636719 L 84.714844 42.140625 C 84.929688 41.785156 84.675781 41.335938 84.265625 41.335938 Z M 84.265625 41.335938 " fill-opacity="1" fill-rule="nonzero"/><path fill="#e57281" d="M 86.1875 37.34375 L 82.652344 37.34375 C 82.414062 37.34375 82.195312 37.472656 82.074219 37.679688 L 81.703125 38.332031 C 81.449219 38.773438 81.769531 39.324219 82.277344 39.324219 L 85.121094 39.324219 C 85.613281 39.324219 86.070312 39.070312 86.332031 38.644531 L 86.636719 38.148438 C 86.851562 37.792969 86.597656 37.34375 86.1875 37.34375 Z M 86.1875 37.34375 " fill-opacity="1" fill-rule="nonzero"/><path stroke-linecap="round" transform="matrix(0.0440525, 0, 0, 0.0441609, -24.310773, -21.174299)" fill="none" stroke-linejoin="miter" d="M 2485.362764 1370.576767 L 2405.202808 1370.576767 C 2399.793785 1370.576767 2394.828124 1373.495783 2392.079276 1378.183898 L 2383.566714 1392.955884 C 2377.891673 1403.039755 2385.074147 1415.511911 2396.690247 1415.511911 L 2461.243839 1415.511911 C 2472.416576 1415.511911 2482.791261 1409.67388 2488.732319 1400.12074 L 2495.560103 1388.798499 C 2500.437091 1380.837548 2494.673378 1370.576767 2485.362764 1370.576767 Z M 2485.362764 1370.576767 " stroke="#9a3b82" stroke-width="5" stroke-opacity="1" stroke-miterlimit="10"/><path stroke-linecap="round" transform="matrix(0.0440525, 0, 0, 0.0441609, -24.310773, -21.174299)" fill="none" stroke-linejoin="miter" d="M 2464.702067 1415.511911 L 2384.542112 1415.511911 C 2379.133088 1415.511911 2374.078755 1418.430926 2371.418579 1423.119041 L 2362.906018 1437.891027 C 2357.230977 1447.886443 2364.413451 1460.358599 2376.02955 1460.358599 L 2440.49447 1460.358599 C 2451.667207 1460.358599 2462.130564 1454.609024 2467.98295 1444.967428 L 2474.899407 1433.733642 C 2479.776395 1425.684236 2474.012681 1415.511911 2464.702067 1415.511911 Z M 2464.702067 1415.511911 " stroke="#9a3b82" stroke-width="5" stroke-opacity="1" stroke-miterlimit="10"/><path stroke-linecap="round" transform="matrix(0.0440525, 0, 0, 0.0441609, -24.310773, -21.174299)" fill="none" stroke-linejoin="miter" d="M 2508.328945 1325.110894 L 2428.080318 1325.110894 C 2422.671294 1325.110894 2417.705633 1328.029909 2414.956785 1332.718025 L 2406.532896 1347.490011 C 2400.769182 1357.485426 2408.040329 1369.957582 2419.567756 1369.957582 L 2484.121348 1369.957582 C 2495.294085 1369.957582 2505.66877 1364.208007 2511.609829 1354.566411 L 2518.526285 1343.332625 C 2523.403273 1335.28322 2517.63956 1325.110894 2508.328945 1325.110894 Z M 2508.328945 1325.110894 " stroke="#9a3b82" stroke-width="5" stroke-opacity="1" stroke-miterlimit="10"/><path fill="#e57281" d="M 91.300781 40.296875 C 90.238281 40.296875 89.21875 39.914062 88.414062 39.210938 L 87.074219 38.035156 L 85.84375 38.035156 L 85.527344 38.375 C 84.957031 38.984375 84.257812 39.335938 83.425781 39.335938 L 82.832031 39.335938 C 82.527344 39.335938 82.335938 38.992188 82.503906 38.730469 L 83.988281 36.398438 L 91.304688 36.398438 L 91.304688 40.296875 Z M 91.300781 40.296875 " fill-opacity="1" fill-rule="nonzero"/><path stroke-linecap="round" transform="matrix(0.0440525, 0, 0, 0.0441609, -24.310773, -21.174299)" fill="none" stroke-linejoin="miter" d="M 2458.406318 1303.704783 L 2424.710762 1356.512421 C 2420.897844 1362.438907 2425.242797 1370.222947 2432.159253 1370.222947 L 2445.637476 1370.222947 C 2464.524722 1370.222947 2480.397103 1362.438907 2493.34329 1348.463016 L 2500.525764 1340.76743 L 2528.457607 1340.76743 L 2558.87228 1367.392387 C 2576.961473 1383.225833 2600.282345 1391.982879 2624.40127 1391.982879 " stroke="#9a3b82" stroke-width="5" stroke-opacity="1" stroke-miterlimit="10"/><path fill="#e57281" d="M 121.046875 35.058594 L 114.316406 42.59375 C 112.902344 44.179688 110.882812 45.085938 108.757812 45.085938 C 104.566406 45.085938 101.660156 40.890625 103.132812 36.949219 L 111.125 18.128906 L 108.425781 16.613281 C 108.039062 16.3125 107.855469 15.824219 107.9375 15.347656 L 108.398438 12.25 C 108.539062 11.5625 109.238281 11.023438 109.921875 10.863281 L 113.085938 10.148438 C 113.351562 10.085938 113.601562 10.316406 113.554688 10.585938 L 113.097656 12.976562 C 112.917969 14.140625 113.703125 15.148438 114.863281 15.347656 C 115.816406 15.511719 116.484375 16.46875 116.398438 17.429688 L 114.242188 30.898438 C 114.238281 30.910156 116.445312 34.359375 121.046875 35.058594 Z M 121.046875 35.058594 " fill-opacity="1" fill-rule="nonzero"/><path stroke-linecap="round" transform="matrix(0.0440525, 0, 0, 0.0441609, -24.310773, -21.174299)" fill="none" stroke-linejoin="miter" d="M 3182.506091 946.700376 L 3123.538867 1329.799009 " stroke="#9a3b82" stroke-width="5" stroke-opacity="1" stroke-miterlimit="10"/><path stroke-linecap="round" transform="matrix(0.0440525, 0, 0, 0.0441609, -24.310773, -21.174299)" fill="none" stroke-linejoin="miter" d="M 3060.22669 762.006323 L 3059.428638 786.773725 C 3059.073947 797.034505 3065.192351 805.968461 3073.97093 808.533656 L 3165.92433 827.109208 " stroke="#9a3b82" stroke-width="5" stroke-opacity="1" stroke-miterlimit="10"/><path stroke-linecap="round" transform="matrix(0.0440525, 0, 0, 0.0441609, -24.310773, -21.174299)" fill="none" stroke-linejoin="miter" d="M 3228.438455 835.070158 L 3154.928938 825.340107 C 3130.721341 821.005812 3114.228253 798.36133 3117.597809 774.124659 L 3127.085768 719.813285 C 3127.972493 714.682894 3123.361522 710.437054 3118.395861 711.586969 L 3043.378912 729.10106 " stroke="#9a3b82" stroke-width="5" stroke-opacity="1" stroke-miterlimit="10"/><path stroke-linecap="butt" transform="matrix(0.0440525, 0, 0, 0.0441609, -24.310773, -21.174299)" fill="none" stroke-linejoin="miter" d="M 3187.826442 1397.997819 L 3386.630225 1176.771848 " stroke="#fe5244" stroke-width="6" stroke-opacity="1" stroke-miterlimit="10"/><path stroke-linecap="round" transform="matrix(0.0440525, 0, 0, 0.0441609, -24.310773, -21.174299)" fill="none" stroke-linejoin="miter" d="M 3076.542433 890.089172 L 3111.568077 890.089172 " stroke="#9a3b82" stroke-width="5" stroke-opacity="1" stroke-miterlimit="10"/><path stroke-linecap="round" transform="matrix(0.0440525, 0, 0, 0.0441609, -24.310773, -21.174299)" fill="none" stroke-linejoin="miter" d="M 3060.315363 768.640448 L 3060.315363 776.601399 C 3060.315363 786.066085 3067.231819 793.93858 3075.655708 793.93858 L 3086.739773 793.93858 C 3091.528089 793.93858 3095.341007 789.604285 3095.341007 784.208529 L 3095.961714 732.020076 C 3096.139059 723.882215 3087.537825 718.928735 3080.532697 720.60938 " stroke="#9a3b82" stroke-width="5" stroke-opacity="1" stroke-miterlimit="10"/><path stroke-linecap="round" transform="matrix(0.0440525, 0, 0, 0.0441609, -24.310773, -21.174299)" fill="none" stroke-linejoin="miter" d="M 3095.961714 768.640448 L 3095.961714 776.601399 C 3095.961714 786.066085 3102.878171 793.93858 3111.390732 793.93858 L 3118.395861 793.93858 " stroke="#9a3b82" stroke-width="5" stroke-opacity="1" stroke-miterlimit="10"/><g clip-path="url(#d4be7df52a)"><path stroke-linecap="butt" transform="matrix(0.0440525, 0, 0, 0.0441609, -24.310773, -21.174299)" fill="none" stroke-linejoin="miter" d="M 3760.118866 2029.831931 L 3876.19119 2996.025967 " stroke="#66b0f0" stroke-width="6" stroke-opacity="1" stroke-miterlimit="10"/></g><g clip-path="url(#479b5952ce)"><path stroke-linecap="butt" transform="matrix(0.0440525, 0, 0, 0.0441609, -24.310773, -21.174299)" fill="none" stroke-linejoin="miter" d="M 3256.902333 2029.831931 L 3140.830008 2996.025967 " stroke="#66b0f0" stroke-width="6" stroke-opacity="1" stroke-miterlimit="10"/></g><path stroke-linecap="butt" transform="matrix(0.0440525, 0, 0, 0.0441609, -24.310773, -21.174299)" fill="none" stroke-linejoin="miter" d="M 3180.643968 2664.231237 L 3836.288557 2664.231237 " stroke="#66b0f0" stroke-width="6" stroke-opacity="1" stroke-miterlimit="10"/><path stroke-linecap="butt" transform="matrix(0.0440525, 0, 0, 0.0441609, -24.310773, -21.174299)" fill-opacity="1" fill="#ffffff" fill-rule="nonzero" stroke-linejoin="miter" d="M 3190.043255 2032.839401 L 3821.036885 2032.839401 C 3829.372101 2032.839401 3836.199885 2026.028366 3836.199885 2017.62514 L 3836.199885 1997.015123 C 3836.199885 1988.611898 3829.372101 1981.800862 3821.036885 1981.800862 L 3190.043255 1981.800862 C 3181.619366 1981.800862 3174.791582 1988.611898 3174.791582 1997.015123 L 3174.791582 2017.62514 C 3174.791582 2026.028366 3181.619366 2032.839401 3190.043255 2032.839401 Z M 3190.043255 2032.839401 " stroke="#ffcf2d" stroke-width="6" stroke-opacity="1" stroke-miterlimit="10"/><path stroke-linecap="butt" transform="matrix(0.0440525, 0, 0, 0.0441609, -24.310773, -21.174299)" fill-opacity="1" fill="#ffffff" fill-rule="nonzero" stroke-linejoin="miter" d="M 2139.98331 1301.581862 L 2043.41894 1500.428717 L 1751.509014 1500.428717 L 1868.822754 1301.581862 Z M 2139.98331 1301.581862 " stroke="#3fb1b5" stroke-width="5" stroke-opacity="1" stroke-miterlimit="10"/><path stroke-linecap="butt" transform="matrix(0.0440525, 0, 0, 0.0441609, -24.310773, -21.174299)" fill="none" stroke-linejoin="miter" d="M 2075.961753 1350.143661 C 2075.961753 1350.143661 2063.281583 1328.383729 2032.778238 1333.956395 C 2009.989401 1338.11378 1983.032956 1356.866241 1966.362523 1346.782371 C 1949.780762 1336.6985 1935.061124 1324.137889 1913.602375 1330.064374 C 1892.143626 1336.079315 1876.182573 1347.578466 1876.182573 1347.578466 " stroke="#3fb1b5" stroke-width="5" stroke-opacity="1" stroke-miterlimit="10"/><path stroke-linecap="butt" transform="matrix(0.0440525, 0, 0, 0.0441609, -24.310773, -21.174299)" fill="none" stroke-linejoin="miter" d="M 2066.030431 1381.102913 C 2066.030431 1381.102913 2053.261589 1359.431437 2022.758243 1365.004102 C 1999.969406 1369.073032 1973.012961 1387.913949 1956.431201 1377.830078 C 1939.760767 1367.657752 1925.129802 1355.097141 1903.582381 1361.112082 C 1882.123632 1367.127022 1866.162579 1378.626173 1866.162579 1378.626173 " stroke="#3fb1b5" stroke-width="5" stroke-opacity="1" stroke-miterlimit="10"/><path fill="#fe5244" d="M 74.796875 75.707031 C 74.796875 76.886719 71.535156 77.839844 67.445312 77.839844 C 63.359375 77.839844 60.191406 76.886719 60.191406 75.707031 C 60.191406 74.527344 63.359375 73.574219 67.445312 73.574219 C 71.535156 73.574219 74.796875 74.53125 74.796875 75.707031 Z M 74.796875 75.707031 " fill-opacity="1" fill-rule="nonzero"/><path fill="#a0505a" d="M 72.917969 74.269531 L 72.917969 89.507812 L 72.453125 87.308594 C 71.957031 84.941406 69.875 83.25 67.460938 83.25 C 66.734375 83.25 66.019531 83.402344 65.371094 83.695312 C 65.347656 83.703125 65.328125 83.714844 65.300781 83.726562 L 63.605469 77.523438 L 62.664062 74.078125 C 63.953125 73.761719 65.621094 73.574219 67.445312 73.574219 C 69.613281 73.574219 71.566406 73.84375 72.917969 74.269531 Z M 72.917969 74.269531 " fill-opacity="1" fill-rule="nonzero"/><path fill="#73325a" d="M 72.917969 74.269531 L 72.917969 77.140625 C 71.566406 77.570312 69.613281 77.839844 67.445312 77.839844 C 66.039062 77.839844 64.726562 77.722656 63.605469 77.53125 L 62.664062 74.082031 C 63.953125 73.765625 65.621094 73.578125 67.445312 73.578125 C 69.613281 73.574219 71.566406 73.84375 72.917969 74.269531 Z M 72.917969 74.269531 " fill-opacity="1" fill-rule="nonzero"/><path fill="#ffcf2d" d="M 72.589844 89.058594 C 72.710938 89.09375 73.828125 89.410156 74.820312 89.410156 C 75.359375 89.410156 75.855469 89.316406 76.136719 89.035156 C 76.378906 88.789062 76.4375 88.4375 76.308594 87.992188 C 76.195312 87.59375 75.976562 87.347656 75.652344 87.257812 C 75.0625 87.097656 74.242188 87.539062 73.597656 88.003906 C 74.605469 86.777344 75.601562 85.21875 75.230469 84.199219 C 75.097656 83.835938 74.796875 83.59375 74.425781 83.546875 C 74.113281 83.511719 73.820312 83.625 73.683594 83.832031 C 73.050781 84.796875 72.53125 88.769531 72.507812 88.9375 Z M 73.867188 83.953125 C 73.949219 83.835938 74.117188 83.765625 74.308594 83.765625 C 74.339844 83.765625 74.371094 83.765625 74.402344 83.769531 C 74.542969 83.789062 74.882812 83.867188 75.027344 84.273438 C 75.125 84.542969 75.160156 85.035156 74.769531 85.867188 C 74.398438 86.652344 73.726562 87.578125 72.777344 88.621094 C 72.917969 87.617188 73.367188 84.71875 73.867188 83.953125 Z M 75.984375 88.878906 C 75.691406 89.171875 75.03125 89.257812 74.066406 89.136719 C 73.5625 89.070312 73.089844 88.964844 72.839844 88.898438 C 73.027344 88.730469 73.378906 88.425781 73.789062 88.140625 C 74.574219 87.597656 75.199219 87.363281 75.601562 87.476562 C 75.84375 87.539062 76.003906 87.730469 76.101562 88.054688 C 76.207031 88.425781 76.167969 88.695312 75.984375 88.878906 Z M 75.984375 88.878906 " fill-opacity="1" fill-rule="nonzero"/><path stroke-linecap="butt" transform="matrix(0.0440525, 0, 0, 0.0441609, -24.310773, -21.174299)" fill-opacity="1" fill="#ffffff" fill-rule="nonzero" stroke-linejoin="miter" d="M 1996.688523 2403.377423 L 1973.633669 2429.29474 C 1947.386604 2458.661802 1943.130323 2501.474025 1962.992967 2535.529203 L 2064.700344 2709.874021 C 2084.562987 2744.017653 2121.096064 2764.893035 2160.466662 2764.893035 L 2202.586107 2764.893035 C 2233.089453 2764.893035 2255.789617 2736.941253 2249.493869 2707.131916 L 2196.467704 2456.627337 C 2185.206294 2403.023603 2137.943843 2364.722585 2083.144227 2364.722585 C 2050.158051 2364.63413 2018.679307 2378.698476 1996.688523 2403.377423 Z M 1996.688523 2403.377423 " stroke="#3fb1b5" stroke-width="5" stroke-opacity="1" stroke-miterlimit="10"/><path fill="#3fb1b5" d="M 67.117188 88.292969 L 72.898438 99.527344 C 73.171875 100.035156 73.511719 100.359375 73.898438 100.570312 C 73.566406 100.792969 73.160156 100.929688 72.71875 100.929688 L 70.863281 100.929688 C 69.125 100.929688 67.515625 100.003906 66.644531 98.5 L 62.164062 90.796875 C 61.984375 90.480469 61.847656 90.15625 61.753906 89.816406 C 61.121094 87.453125 63.804688 85.597656 65.816406 86.984375 C 66.273438 87.296875 66.722656 87.722656 67.117188 88.292969 Z M 67.117188 88.292969 " fill-opacity="1" fill-rule="nonzero"/><path fill="#ffffff" d="M 67.128906 88.316406 L 61.789062 88.316406 C 61.816406 88.234375 61.847656 88.15625 61.882812 88.078125 L 66.957031 88.078125 C 67.011719 88.148438 67.0625 88.222656 67.117188 88.296875 Z M 67.128906 88.316406 " fill-opacity="1" fill-rule="nonzero"/><path fill="#ffffff" d="M 67.914062 89.835938 L 61.761719 89.835938 C 61.761719 89.828125 61.757812 89.820312 61.757812 89.816406 C 61.742188 89.746094 61.722656 89.667969 61.710938 89.597656 L 67.792969 89.597656 Z M 67.914062 89.835938 " fill-opacity="1" fill-rule="nonzero"/><path fill="#ffffff" d="M 68.699219 91.359375 L 62.496094 91.359375 L 62.355469 91.117188 L 68.574219 91.117188 Z M 68.699219 91.359375 " fill-opacity="1" fill-rule="nonzero"/><path fill="#ffffff" d="M 69.480469 92.882812 L 63.378906 92.882812 L 63.238281 92.640625 L 69.359375 92.640625 Z M 69.480469 92.882812 " fill-opacity="1" fill-rule="nonzero"/><path fill="#ffffff" d="M 70.265625 94.402344 L 64.265625 94.402344 L 64.125 94.164062 L 70.140625 94.164062 Z M 70.265625 94.402344 " fill-opacity="1" fill-rule="nonzero"/><path fill="#ffffff" d="M 71.050781 95.925781 L 65.152344 95.925781 L 65.011719 95.683594 L 70.921875 95.683594 Z M 71.050781 95.925781 " fill-opacity="1" fill-rule="nonzero"/><path fill="#ffffff" d="M 71.832031 97.449219 L 66.035156 97.449219 L 65.894531 97.207031 L 71.707031 97.207031 Z M 71.832031 97.449219 " fill-opacity="1" fill-rule="nonzero"/><path fill="#ffffff" d="M 72.613281 98.96875 L 66.957031 98.96875 C 66.898438 98.890625 66.84375 98.8125 66.789062 98.730469 L 72.492188 98.730469 Z M 72.613281 98.96875 " fill-opacity="1" fill-rule="nonzero"/><path fill="#ffffff" d="M 73.773438 100.492188 L 68.855469 100.492188 C 68.699219 100.421875 68.542969 100.34375 68.394531 100.253906 L 73.453125 100.253906 C 73.554688 100.34375 73.660156 100.421875 73.773438 100.492188 Z M 73.773438 100.492188 " fill-opacity="1" fill-rule="nonzero"/><path fill="#73325a" d="M 56.753906 75.390625 C 56.714844 76.558594 53.414062 77.503906 49.355469 77.503906 C 45.292969 77.503906 41.992188 76.5625 41.953125 75.390625 L 41.953125 66.210938 L 56.753906 66.210938 Z M 56.753906 75.390625 " fill-opacity="1" fill-rule="nonzero"/><path fill="#a0505a" d="M 55.773438 76.914062 L 55.75 78.007812 L 55.539062 88.652344 L 55.539062 88.34375 C 55.539062 85.609375 53.328125 83.394531 50.601562 83.394531 L 50.300781 83.394531 C 48.910156 83.394531 47.652344 83.9375 46.722656 84.8125 L 46.078125 80.421875 L 45.675781 77.707031 C 46.757812 77.886719 48.015625 77.988281 49.347656 77.988281 C 52.097656 77.984375 54.492188 77.550781 55.773438 76.914062 Z M 55.773438 76.914062 " fill-opacity="1" fill-rule="nonzero"/><path fill="#73325a" d="M 55.773438 76.914062 L 55.75 78.007812 C 54.113281 79.171875 49.050781 80.609375 46.082031 80.417969 L 45.679688 77.703125 C 46.761719 77.878906 48.019531 77.984375 49.355469 77.984375 C 52.097656 77.984375 54.492188 77.550781 55.773438 76.914062 Z M 55.773438 76.914062 " fill-opacity="1" fill-rule="nonzero"/><path stroke-linecap="butt" transform="matrix(0.0440525, 0, 0, 0.0441609, -24.310773, -21.174299)" fill-opacity="1" fill="#ffffff" fill-rule="nonzero" stroke-linejoin="miter" d="M 1705.576651 2768.16587 L 1724.197879 2768.16587 C 1772.967763 2768.16587 1812.604378 2728.626482 1812.604378 2679.799319 L 1812.604378 2479.979459 C 1812.604378 2418.060954 1762.415734 2367.906966 1700.522317 2367.906966 L 1693.694533 2367.906966 C 1621.69245 2367.906966 1566.183454 2431.41766 1575.937431 2502.800851 L 1599.435648 2675.641933 C 1606.706794 2728.626482 1652.01845 2768.16587 1705.576651 2768.16587 Z M 1705.576651 2768.16587 " stroke="#3fb1b5" stroke-width="5" stroke-opacity="1" stroke-miterlimit="10"/><path fill="#3fb1b5" d="M 54.3125 100.007812 C 53.617188 100.664062 52.675781 101.070312 51.644531 101.070312 L 50.824219 101.070312 C 48.464844 101.070312 46.46875 99.324219 46.152344 96.984375 L 45.117188 89.351562 C 45.097656 89.207031 45.082031 89.058594 45.078125 88.917969 C 45.339844 87.226562 46.800781 85.933594 48.5625 85.933594 C 49.429688 85.933594 50.230469 86.25 50.851562 86.78125 C 51.472656 87.3125 51.910156 88.058594 52.046875 88.917969 L 53.40625 98.230469 C 53.507812 98.925781 53.835938 99.542969 54.3125 100.007812 Z M 54.3125 100.007812 " fill-opacity="1" fill-rule="nonzero"/><path fill="#ffffff" d="M 51.636719 87.738281 L 45.480469 87.738281 C 45.527344 87.65625 45.578125 87.578125 45.632812 87.5 L 51.492188 87.5 C 51.542969 87.578125 51.589844 87.65625 51.636719 87.738281 Z M 51.636719 87.738281 " fill-opacity="1" fill-rule="nonzero"/><path fill="#ffffff" d="M 52.09375 89.257812 L 45.101562 89.257812 C 45.09375 89.179688 45.085938 89.101562 45.082031 89.019531 L 52.058594 89.019531 Z M 52.09375 89.257812 " fill-opacity="1" fill-rule="nonzero"/><path fill="#ffffff" d="M 52.320312 90.78125 L 45.308594 90.78125 L 45.273438 90.542969 L 52.285156 90.542969 Z M 52.320312 90.78125 " fill-opacity="1" fill-rule="nonzero"/><path fill="#ffffff" d="M 52.539062 92.304688 L 45.515625 92.304688 L 45.480469 92.0625 L 52.503906 92.0625 Z M 52.539062 92.304688 " fill-opacity="1" fill-rule="nonzero"/><path fill="#ffffff" d="M 52.761719 93.824219 L 45.722656 93.824219 L 45.6875 93.585938 L 52.726562 93.585938 Z M 52.761719 93.824219 " fill-opacity="1" fill-rule="nonzero"/><path fill="#ffffff" d="M 52.984375 95.347656 L 45.925781 95.347656 L 45.894531 95.109375 L 52.949219 95.109375 Z M 52.984375 95.347656 " fill-opacity="1" fill-rule="nonzero"/><path fill="#ffffff" d="M 53.207031 96.871094 L 46.132812 96.871094 L 46.101562 96.628906 L 53.171875 96.628906 Z M 53.207031 96.871094 " fill-opacity="1" fill-rule="nonzero"/><path fill="#ffffff" d="M 53.433594 98.390625 L 46.570312 98.390625 C 46.53125 98.3125 46.496094 98.230469 46.464844 98.152344 L 53.394531 98.152344 L 53.40625 98.230469 C 53.414062 98.285156 53.425781 98.339844 53.433594 98.390625 Z M 53.433594 98.390625 " fill-opacity="1" fill-rule="nonzero"/><path fill="#ffffff" d="M 54.222656 99.914062 L 47.734375 99.914062 C 47.644531 99.839844 47.554688 99.753906 47.476562 99.675781 L 54.019531 99.675781 C 54.082031 99.761719 54.152344 99.839844 54.222656 99.914062 Z M 54.222656 99.914062 " fill-opacity="1" fill-rule="nonzero"/><path fill="#ffcf2d" d="M 59.957031 27.671875 L 59.957031 35.109375 C 59.636719 34.265625 57.089844 34.382812 54.289062 35.449219 C 51.886719 36.363281 50.085938 37.617188 49.820312 38.488281 L 49.820312 28.019531 C 49.820312 24.90625 51.480469 22.125 54.03125 20.605469 C 57.34375 21.183594 59.957031 24.078125 59.957031 27.671875 Z M 59.957031 27.671875 " fill-opacity="1" fill-rule="nonzero"/><path fill="#ffcf2d" d="M 49.628906 20.941406 C 47.371094 22.515625 45.933594 25.125 45.933594 28.019531 L 45.933594 36.65625 L 33.394531 36.65625 L 35.125 29.183594 C 35.859375 26 38.160156 23.460938 41.15625 22.378906 Z M 49.628906 20.941406 " fill-opacity="1" fill-rule="nonzero"/><path fill="#fe5244" d="M 74.992188 57.894531 L 74.992188 75.230469 C 74.992188 74.050781 71.535156 73.097656 67.445312 73.097656 C 63.359375 73.097656 60.046875 74.050781 60.046875 75.230469 L 60.046875 66.921875 C 60.046875 66.535156 59.726562 66.214844 59.339844 66.214844 L 36.855469 66.214844 C 30.09375 66.214844 25.09375 59.90625 26.621094 53.304688 L 32.050781 29.863281 C 32.914062 26.121094 35.933594 23.273438 39.710938 22.628906 L 41.15625 22.382812 C 38.160156 23.464844 35.859375 26.003906 35.125 29.1875 L 33.394531 36.660156 L 45.933594 36.660156 L 45.933594 28.019531 C 45.933594 25.125 47.375 22.507812 49.628906 20.941406 L 51.609375 20.605469 C 52.019531 20.535156 52.421875 20.503906 52.820312 20.503906 C 52.875 20.503906 52.921875 20.503906 52.976562 20.503906 C 53.023438 20.503906 53.070312 20.507812 53.117188 20.507812 C 53.125 20.507812 53.132812 20.507812 53.140625 20.507812 C 53.175781 20.507812 53.21875 20.511719 53.253906 20.511719 C 53.257812 20.511719 53.265625 20.511719 53.269531 20.511719 C 53.292969 20.511719 53.3125 20.519531 53.332031 20.519531 C 53.371094 20.523438 53.40625 20.523438 53.445312 20.527344 C 53.492188 20.53125 53.539062 20.535156 53.582031 20.539062 C 53.628906 20.542969 53.667969 20.550781 53.710938 20.554688 C 53.71875 20.554688 53.726562 20.558594 53.742188 20.558594 C 53.785156 20.5625 53.835938 20.570312 53.878906 20.574219 C 53.882812 20.574219 53.886719 20.574219 53.886719 20.574219 C 53.933594 20.585938 53.984375 20.589844 54.03125 20.597656 C 51.480469 22.117188 49.820312 24.898438 49.820312 28.011719 L 49.820312 49.230469 L 66.359375 49.230469 C 71.125 49.238281 74.992188 53.113281 74.992188 57.894531 Z M 74.992188 57.894531 " fill-opacity="1" fill-rule="nonzero"/><path stroke-linecap="round" transform="matrix(0.0440525, 0, 0, 0.0441609, -24.310773, -21.174299)" fill="none" stroke-linejoin="miter" d="M 1684.915954 949.265572 C 1633.663239 984.912939 1594.469987 1048.423634 1594.469987 1113.968794 L 1594.469987 1309.542813 L 1309.831208 1309.542813 L 1349.113133 1140.328386 C 1365.783566 1068.237555 1413.578053 1009.591886 1481.678546 985.089849 " stroke="#ffffff" stroke-width="6" stroke-opacity="1" stroke-miterlimit="10"/><path stroke-linecap="round" transform="matrix(0.0440525, 0, 0, 0.0441609, -24.310773, -21.174299)" fill="none" stroke-linejoin="miter" d="M 1914.932463 1934.565889 C 1914.932463 1878.92769 1934.617762 1824.970136 1970.530131 1782.511733 " stroke="#ffffff" stroke-width="6" stroke-opacity="1" stroke-miterlimit="10"/><path fill="#ffffff" d="M 41.722656 63.378906 C 41.703125 63.378906 41.679688 63.375 41.664062 63.363281 L 41.082031 63.042969 C 41.015625 63.007812 40.992188 62.929688 41.027344 62.863281 C 41.0625 62.796875 41.140625 62.777344 41.207031 62.8125 L 41.789062 63.128906 C 41.855469 63.164062 41.878906 63.242188 41.84375 63.308594 C 41.816406 63.355469 41.773438 63.378906 41.722656 63.378906 Z M 42.304688 63.230469 C 42.257812 63.230469 42.214844 63.203125 42.191406 63.160156 C 42.15625 63.09375 42.175781 63.015625 42.242188 62.980469 L 42.824219 62.660156 C 42.890625 62.625 42.96875 62.652344 43.007812 62.714844 C 43.042969 62.78125 43.019531 62.859375 42.953125 62.894531 L 42.371094 63.210938 C 42.347656 63.222656 42.328125 63.230469 42.304688 63.230469 Z M 40.5625 62.75 C 40.539062 62.75 40.515625 62.746094 40.5 62.730469 L 39.917969 62.414062 C 39.851562 62.378906 39.828125 62.296875 39.863281 62.230469 C 39.898438 62.167969 39.980469 62.144531 40.046875 62.179688 L 40.628906 62.496094 C 40.691406 62.53125 40.714844 62.613281 40.679688 62.679688 C 40.652344 62.722656 40.609375 62.75 40.5625 62.75 Z M 43.464844 62.59375 C 43.414062 62.59375 43.371094 62.566406 43.347656 62.523438 C 43.3125 62.457031 43.335938 62.378906 43.402344 62.34375 L 43.984375 62.023438 C 44.085938 61.972656 44.175781 61.910156 44.269531 61.84375 C 44.328125 61.800781 44.410156 61.8125 44.457031 61.871094 C 44.5 61.925781 44.484375 62.011719 44.429688 62.054688 C 44.328125 62.128906 44.222656 62.195312 44.113281 62.257812 L 43.53125 62.578125 C 43.507812 62.589844 43.484375 62.59375 43.464844 62.59375 Z M 39.410156 62.09375 C 39.386719 62.09375 39.359375 62.085938 39.332031 62.070312 C 39.148438 61.933594 38.976562 61.773438 38.828125 61.59375 C 38.78125 61.535156 38.789062 61.449219 38.847656 61.40625 C 38.90625 61.359375 38.988281 61.367188 39.03125 61.425781 C 39.164062 61.585938 39.320312 61.730469 39.484375 61.851562 C 39.542969 61.898438 39.554688 61.980469 39.515625 62.039062 C 39.496094 62.078125 39.457031 62.09375 39.410156 62.09375 Z M 44.824219 61.632812 C 44.792969 61.632812 44.769531 61.621094 44.742188 61.601562 C 44.683594 61.558594 44.675781 61.472656 44.722656 61.414062 C 44.855469 61.253906 44.964844 61.074219 45.054688 60.882812 C 45.085938 60.816406 45.164062 60.785156 45.230469 60.816406 C 45.296875 60.84375 45.328125 60.925781 45.296875 60.992188 C 45.199219 61.203125 45.078125 61.402344 44.929688 61.578125 C 44.898438 61.613281 44.863281 61.632812 44.824219 61.632812 Z M 38.582031 61.085938 C 38.535156 61.085938 38.484375 61.058594 38.464844 61.007812 C 38.367188 60.796875 38.296875 60.578125 38.253906 60.347656 C 38.238281 60.277344 38.289062 60.207031 38.359375 60.191406 C 38.429688 60.179688 38.5 60.226562 38.511719 60.296875 C 38.550781 60.503906 38.613281 60.703125 38.703125 60.894531 C 38.734375 60.960938 38.703125 61.039062 38.636719 61.070312 C 38.617188 61.078125 38.601562 61.085938 38.582031 61.085938 Z M 45.371094 60.4375 C 45.363281 60.4375 45.355469 60.4375 45.347656 60.4375 C 45.277344 60.425781 45.230469 60.355469 45.242188 60.285156 C 45.269531 60.140625 45.285156 59.992188 45.285156 59.847656 L 45.285156 59.648438 C 45.285156 59.574219 45.339844 59.515625 45.414062 59.515625 C 45.492188 59.515625 45.546875 59.574219 45.546875 59.648438 L 45.546875 59.847656 C 45.546875 60.011719 45.535156 60.175781 45.503906 60.332031 C 45.492188 60.394531 45.433594 60.4375 45.371094 60.4375 Z M 38.339844 59.792969 C 38.265625 59.792969 38.207031 59.738281 38.207031 59.664062 L 38.207031 59 C 38.207031 58.925781 38.265625 58.867188 38.339844 58.867188 C 38.414062 58.867188 38.472656 58.925781 38.472656 59 L 38.472656 59.664062 C 38.472656 59.734375 38.410156 59.792969 38.339844 59.792969 Z M 45.410156 59.117188 C 45.335938 59.117188 45.277344 59.0625 45.277344 58.988281 L 45.277344 58.324219 C 45.277344 58.25 45.335938 58.191406 45.410156 58.191406 C 45.484375 58.191406 45.542969 58.25 45.542969 58.324219 L 45.542969 58.988281 C 45.542969 59.0625 45.484375 59.117188 45.410156 59.117188 Z M 38.339844 58.46875 C 38.265625 58.46875 38.207031 58.414062 38.207031 58.335938 L 38.207031 57.675781 C 38.207031 57.601562 38.265625 57.542969 38.339844 57.542969 C 38.414062 57.542969 38.472656 57.601562 38.472656 57.675781 L 38.472656 58.335938 C 38.472656 58.40625 38.410156 58.46875 38.339844 58.46875 Z M 45.410156 57.792969 C 45.335938 57.792969 45.277344 57.738281 45.277344 57.660156 L 45.277344 57 C 45.277344 56.925781 45.335938 56.867188 45.410156 56.867188 C 45.484375 56.867188 45.542969 56.925781 45.542969 57 L 45.542969 57.660156 C 45.542969 57.738281 45.484375 57.792969 45.410156 57.792969 Z M 38.339844 57.144531 C 38.265625 57.144531 38.207031 57.085938 38.207031 57.011719 L 38.207031 56.351562 C 38.207031 56.273438 38.265625 56.21875 38.339844 56.21875 C 38.414062 56.21875 38.472656 56.273438 38.472656 56.351562 L 38.472656 57.011719 C 38.472656 57.082031 38.410156 57.144531 38.339844 57.144531 Z M 45.410156 56.46875 C 45.335938 56.46875 45.277344 56.410156 45.277344 56.335938 L 45.277344 55.675781 C 45.277344 55.597656 45.335938 55.542969 45.410156 55.542969 C 45.484375 55.542969 45.542969 55.597656 45.542969 55.675781 L 45.542969 56.335938 C 45.542969 56.410156 45.484375 56.46875 45.410156 56.46875 Z M 38.339844 55.820312 C 38.265625 55.820312 38.207031 55.761719 38.207031 55.6875 L 38.207031 55.117188 L 38.566406 55.117188 C 38.640625 55.117188 38.699219 55.175781 38.699219 55.25 C 38.699219 55.324219 38.640625 55.382812 38.566406 55.382812 L 38.472656 55.382812 L 38.472656 55.6875 C 38.472656 55.757812 38.410156 55.820312 38.339844 55.820312 Z M 45.171875 55.382812 L 44.511719 55.382812 C 44.4375 55.382812 44.378906 55.324219 44.378906 55.25 C 44.378906 55.175781 44.4375 55.117188 44.511719 55.117188 L 45.171875 55.117188 C 45.25 55.117188 45.304688 55.175781 45.304688 55.25 C 45.304688 55.324219 45.25 55.382812 45.171875 55.382812 Z M 43.851562 55.382812 L 43.191406 55.382812 C 43.117188 55.382812 43.058594 55.324219 43.058594 55.25 C 43.058594 55.175781 43.117188 55.117188 43.191406 55.117188 L 43.851562 55.117188 C 43.925781 55.117188 43.984375 55.175781 43.984375 55.25 C 43.984375 55.324219 43.925781 55.382812 43.851562 55.382812 Z M 42.53125 55.382812 L 41.871094 55.382812 C 41.792969 55.382812 41.738281 55.324219 41.738281 55.25 C 41.738281 55.175781 41.792969 55.117188 41.871094 55.117188 L 42.53125 55.117188 C 42.605469 55.117188 42.664062 55.175781 42.664062 55.25 C 42.664062 55.324219 42.605469 55.382812 42.53125 55.382812 Z M 41.207031 55.382812 L 40.546875 55.382812 C 40.472656 55.382812 40.414062 55.324219 40.414062 55.25 C 40.414062 55.175781 40.472656 55.117188 40.546875 55.117188 L 41.207031 55.117188 C 41.285156 55.117188 41.339844 55.175781 41.339844 55.25 C 41.339844 55.324219 41.285156 55.382812 41.207031 55.382812 Z M 39.886719 55.382812 L 39.226562 55.382812 C 39.152344 55.382812 39.09375 55.324219 39.09375 55.25 C 39.09375 55.175781 39.152344 55.117188 39.226562 55.117188 L 39.886719 55.117188 C 39.960938 55.117188 40.019531 55.175781 40.019531 55.25 C 40.019531 55.324219 39.960938 55.382812 39.886719 55.382812 Z M 39.886719 55.382812 " fill-opacity="1" fill-rule="nonzero"/><path fill="#ffffff" d="M 29.257812 62.648438 C 29.207031 62.648438 29.164062 62.621094 29.144531 62.578125 C 29.105469 62.511719 29.128906 62.429688 29.195312 62.394531 L 29.734375 62.101562 C 29.746094 62.089844 29.757812 62.085938 29.773438 62.078125 C 29.835938 62.042969 29.917969 62.066406 29.953125 62.125 C 29.988281 62.1875 29.964844 62.273438 29.90625 62.308594 C 29.890625 62.316406 29.878906 62.324219 29.859375 62.328125 L 29.324219 62.625 C 29.300781 62.644531 29.277344 62.648438 29.257812 62.648438 Z M 30.371094 61.941406 C 30.335938 61.941406 30.300781 61.925781 30.273438 61.898438 C 30.226562 61.84375 30.230469 61.761719 30.285156 61.710938 C 30.4375 61.570312 30.574219 61.40625 30.691406 61.234375 C 30.734375 61.171875 30.816406 61.160156 30.878906 61.199219 C 30.941406 61.238281 30.953125 61.324219 30.914062 61.382812 C 30.785156 61.574219 30.632812 61.75 30.464844 61.910156 C 30.433594 61.933594 30.402344 61.941406 30.371094 61.941406 Z M 31.105469 60.855469 C 31.089844 60.855469 31.078125 60.851562 31.058594 60.84375 C 30.992188 60.820312 30.957031 60.742188 30.984375 60.671875 C 31.058594 60.476562 31.113281 60.273438 31.140625 60.0625 C 31.152344 59.992188 31.21875 59.941406 31.292969 59.949219 C 31.363281 59.957031 31.414062 60.023438 31.40625 60.097656 C 31.375 60.328125 31.320312 60.554688 31.234375 60.769531 C 31.207031 60.824219 31.160156 60.855469 31.105469 60.855469 Z M 31.296875 59.554688 C 31.222656 59.554688 31.164062 59.5 31.164062 59.421875 L 31.164062 58.761719 C 31.164062 58.6875 31.222656 58.628906 31.296875 58.628906 C 31.371094 58.628906 31.429688 58.6875 31.429688 58.761719 L 31.429688 59.421875 C 31.429688 59.496094 31.371094 59.554688 31.296875 59.554688 Z M 31.296875 58.230469 C 31.222656 58.230469 31.164062 58.175781 31.164062 58.097656 L 31.164062 57.4375 C 31.164062 57.363281 31.222656 57.304688 31.296875 57.304688 C 31.371094 57.304688 31.429688 57.363281 31.429688 57.4375 L 31.429688 58.097656 C 31.429688 58.167969 31.371094 58.230469 31.296875 58.230469 Z M 31.296875 56.90625 C 31.222656 56.90625 31.164062 56.847656 31.164062 56.773438 L 31.164062 56.113281 C 31.164062 56.035156 31.222656 55.980469 31.296875 55.980469 C 31.371094 55.980469 31.429688 56.035156 31.429688 56.113281 L 31.429688 56.773438 C 31.429688 56.84375 31.371094 56.90625 31.296875 56.90625 Z M 31.296875 55.582031 C 31.222656 55.582031 31.164062 55.523438 31.164062 55.449219 L 31.164062 55.382812 L 30.835938 55.382812 C 30.757812 55.382812 30.703125 55.324219 30.703125 55.25 C 30.703125 55.175781 30.757812 55.117188 30.835938 55.117188 L 31.429688 55.117188 L 31.429688 55.449219 C 31.429688 55.519531 31.371094 55.582031 31.296875 55.582031 Z M 30.171875 55.382812 L 29.511719 55.382812 C 29.4375 55.382812 29.378906 55.324219 29.378906 55.25 C 29.378906 55.175781 29.4375 55.117188 29.511719 55.117188 L 30.171875 55.117188 C 30.25 55.117188 30.304688 55.175781 30.304688 55.25 C 30.304688 55.324219 30.242188 55.382812 30.171875 55.382812 Z M 28.851562 55.382812 L 28.191406 55.382812 C 28.117188 55.382812 28.058594 55.324219 28.058594 55.25 C 28.058594 55.175781 28.117188 55.117188 28.191406 55.117188 L 28.851562 55.117188 C 28.925781 55.117188 28.984375 55.175781 28.984375 55.25 C 28.984375 55.324219 28.921875 55.382812 28.851562 55.382812 Z M 27.53125 55.382812 L 26.871094 55.382812 C 26.792969 55.382812 26.738281 55.324219 26.738281 55.25 C 26.738281 55.175781 26.792969 55.117188 26.871094 55.117188 L 27.53125 55.117188 C 27.605469 55.117188 27.664062 55.175781 27.664062 55.25 C 27.664062 55.324219 27.601562 55.382812 27.53125 55.382812 Z M 27.53125 55.382812 " fill-opacity="1" fill-rule="nonzero"/><path fill="#fe5244" d="M 59.957031 35.109375 C 60.277344 35.953125 58.242188 37.449219 55.445312 38.511719 C 52.648438 39.578125 50.140625 39.742188 49.820312 38.894531 C 49.5 38.046875 51.484375 36.515625 54.289062 35.453125 C 57.089844 34.390625 59.636719 34.261719 59.957031 35.109375 Z M 59.957031 35.109375 " fill-opacity="1" fill-rule="nonzero"/><path fill="#73325a" d="M 61.519531 62.507812 L 61.519531 62.972656 C 61.375 62.9375 61.222656 62.921875 61.066406 62.921875 L 60.5 62.921875 C 59.65625 62.921875 58.941406 62.382812 58.667969 61.632812 L 60.277344 61.414062 C 60.933594 61.328125 61.519531 61.839844 61.519531 62.507812 Z M 61.519531 62.507812 " fill-opacity="1" fill-rule="nonzero"/><path fill="#a0505a" d="M 63.011719 64.867188 L 63.011719 68.464844 C 63.011719 69.300781 62.332031 69.984375 61.496094 69.984375 L 59.808594 69.984375 C 59.390625 69.984375 59.011719 69.816406 58.738281 69.535156 C 58.464844 69.261719 58.292969 68.882812 58.292969 68.464844 L 59.390625 68.464844 C 59.75 68.464844 60.042969 68.171875 60.042969 67.808594 L 60.042969 66.871094 C 60.042969 66.507812 59.75 66.214844 59.390625 66.214844 L 53.78125 66.214844 C 51.589844 66.214844 49.816406 64.4375 49.816406 62.242188 L 49.816406 38.492188 C 50.082031 37.621094 51.882812 36.363281 54.285156 35.453125 C 55.921875 34.832031 57.476562 34.53125 58.546875 34.558594 L 58.546875 60.972656 C 58.546875 62.050781 59.417969 62.925781 60.496094 62.925781 L 61.0625 62.925781 C 62.136719 62.921875 63.011719 63.792969 63.011719 64.867188 Z M 63.011719 64.867188 " fill-opacity="1" fill-rule="nonzero"/><path fill="#73325a" d="M 58.546875 34.550781 L 58.546875 36.953125 C 57.75 37.492188 56.671875 38.046875 55.441406 38.507812 C 52.640625 39.574219 50.136719 39.738281 49.816406 38.890625 L 49.816406 38.488281 C 50.082031 37.617188 51.882812 36.359375 54.285156 35.449219 C 55.925781 34.824219 57.476562 34.527344 58.546875 34.550781 Z M 58.546875 34.550781 " fill-opacity="1" fill-rule="nonzero"/><path fill="#a0505a" d="M 51.222656 16.664062 L 49.566406 20.941406 L 41.027344 22.472656 L 43.257812 16.664062 Z M 51.222656 16.664062 " fill-opacity="1" fill-rule="nonzero"/><path fill="#73325a" d="M 51.222656 16.664062 L 50.328125 18.976562 L 41.859375 20.300781 L 43.257812 16.664062 Z M 51.222656 16.664062 " fill-opacity="1" fill-rule="nonzero"/><path stroke-linecap="round" transform="matrix(0.0440525, 0, 0, 0.0441609, -24.310773, -21.174299)" fill-opacity="1" fill="#ffffff" fill-rule="nonzero" stroke-linejoin="miter" d="M 1828.210741 659.575425 C 1828.210741 672.666766 1805.510577 687.173387 1779.263512 699.380178 C 1743.61716 716.098174 1701.497715 728.835695 1701.497715 728.835695 L 1673.122509 782.262519 C 1711.695054 802.784081 1726.769382 839.581363 1732.799113 865.32177 C 1736.612031 881.685947 1736.612031 893.362007 1736.612031 893.362007 L 1464.387405 893.362007 C 1464.387405 893.362007 1392.917356 661.7868 1565.208056 606.413966 C 1670.639679 572.535699 1828.210741 628.527718 1828.210741 659.575425 Z M 1828.210741 659.575425 " stroke="#ffcf2d" stroke-width="6" stroke-opacity="1" stroke-miterlimit="10"/><path stroke-linecap="round" transform="matrix(0.0440525, 0, 0, 0.0441609, -24.310773, -21.174299)" fill-opacity="1" fill="#ffffff" fill-rule="nonzero" stroke-linejoin="miter" d="M 1607.682192 571.739604 C 1607.682192 580.673559 1605.997414 589.34215 1602.539186 597.568466 C 1599.080958 605.883236 1594.203969 613.225002 1587.908221 619.593762 C 1581.523799 625.962523 1574.163981 630.827548 1565.917437 634.277293 C 1557.58222 637.638584 1548.980986 639.407684 1540.025062 639.407684 C 1530.980465 639.407684 1522.379231 637.638584 1514.132687 634.277293 C 1505.79747 630.827548 1498.437651 625.962523 1492.141903 619.593762 C 1485.757481 613.225002 1480.880493 605.883236 1477.422265 597.568466 C 1474.052709 589.34215 1472.279259 580.673559 1472.279259 571.739604 C 1472.279259 562.717193 1474.052709 554.048603 1477.422265 545.822287 C 1480.880493 537.507516 1485.757481 530.165751 1492.141903 523.79699 C 1498.437651 517.516685 1505.79747 512.563204 1514.132687 509.113459 C 1522.379231 505.752169 1530.980465 503.983069 1540.025062 503.983069 C 1548.980986 503.983069 1557.58222 505.752169 1565.917437 509.113459 C 1574.163981 512.563204 1581.523799 517.516685 1587.908221 523.79699 C 1594.203969 530.165751 1599.080958 537.507516 1602.539186 545.822287 C 1605.997414 554.048603 1607.682192 562.717193 1607.682192 571.739604 Z M 1607.682192 571.739604 " stroke="#ffcf2d" stroke-width="6" stroke-opacity="1" stroke-miterlimit="10"/><path fill="#a0505a" d="M 52.019531 17.039062 C 51.773438 15.964844 51.15625 14.4375 49.636719 13.515625 L 49.242188 13.515625 C 48.882812 13.515625 48.550781 13.367188 48.3125 13.128906 C 48.078125 12.890625 47.929688 12.558594 47.929688 12.199219 C 47.929688 11.46875 48.515625 10.882812 49.242188 10.882812 L 50.90625 10.917969 L 50.949219 10.917969 C 50.980469 10.910156 51.011719 10.894531 51.046875 10.886719 C 51.496094 10.789062 52.917969 10.445312 54.097656 9.851562 L 54.234375 10.671875 L 54.675781 13.289062 C 54.976562 15.085938 53.746094 16.742188 52.019531 17.039062 Z M 52.019531 17.039062 " fill-opacity="1" fill-rule="nonzero"/><path fill="#73325a" d="M 54.230469 10.664062 C 52.785156 11.253906 50.898438 10.914062 50.898438 10.914062 C 50.898438 10.914062 52.675781 10.558594 54.09375 9.847656 Z M 54.230469 10.664062 " fill-opacity="1" fill-rule="nonzero"/><path stroke-linecap="round" transform="matrix(0.0440525, 0, 0, 0.0441609, -24.310773, -21.174299)" fill="none" stroke-linejoin="miter" d="M 1692.896481 761.387138 C 1692.896481 749.976442 1683.674539 740.777121 1672.324457 740.777121 " stroke="#73325a" stroke-width="5" stroke-opacity="1" stroke-miterlimit="10"/><g clip-path="url(#63dd437f1a)"><path stroke-linecap="butt" transform="matrix(0.0440525, 0, 0, 0.0441609, -24.310773, -21.174299)" fill="none" stroke-linejoin="miter" d="M 1798.771466 2029.831931 L 1914.932463 2996.025967 " stroke="#66b0f0" stroke-width="6" stroke-opacity="1" stroke-miterlimit="10"/></g><g clip-path="url(#6a10338f4e)"><path stroke-linecap="butt" transform="matrix(0.0440525, 0, 0, 0.0441609, -24.310773, -21.174299)" fill="none" stroke-linejoin="miter" d="M 1295.46626 2029.831931 L 1179.482608 2996.025967 " stroke="#66b0f0" stroke-width="6" stroke-opacity="1" stroke-miterlimit="10"/></g><path stroke-linecap="butt" transform="matrix(0.0440525, 0, 0, 0.0441609, -24.310773, -21.174299)" fill="none" stroke-linejoin="miter" d="M 1219.296568 2664.231237 L 1875.02983 2664.231237 " stroke="#66b0f0" stroke-width="6" stroke-opacity="1" stroke-miterlimit="10"/><path stroke-linecap="butt" transform="matrix(0.0440525, 0, 0, 0.0441609, -24.310773, -21.174299)" fill-opacity="1" fill="#ffffff" fill-rule="nonzero" stroke-linejoin="miter" d="M 1194.556936 2029.831931 L 1899.68079 2029.831931 C 1908.104679 2029.831931 1914.932463 2023.020895 1914.932463 2014.61767 L 1914.932463 1994.007653 C 1914.932463 1985.604428 1908.104679 1978.793392 1899.68079 1978.793392 L 1194.556936 1978.793392 C 1186.221719 1978.793392 1179.393936 1985.604428 1179.393936 1994.007653 L 1179.393936 2014.61767 C 1179.482608 2023.020895 1186.310392 2029.831931 1194.556936 2029.831931 Z M 1194.556936 2029.831931 " stroke="#ffcf2d" stroke-width="6" stroke-opacity="1" stroke-miterlimit="10"/></svg>