<svg xmlns="http://www.w3.org/2000/svg" xmlns:xlink="http://www.w3.org/1999/xlink" width="500" zoomAndPan="magnify" viewBox="0 0 375 374.999991" height="500" preserveAspectRatio="xMidYMid meet" version="1.0"><path fill="#99b9ff" d="M 92.378906 103.632812 C 128.953125 66.824219 118.480469 43.757812 143.507812 26.714844 C 182.011719 0.492188 253.878906 23.054688 296.273438 59.121094 C 348.203125 103.296875 374.996094 183.960938 344.476562 256.929688 C 311.972656 334.640625 226.457031 374.984375 150.148438 362.824219 C 82.003906 351.96875 15.015625 298.261719 8.304688 233.851562 C 7.574219 226.867188 4.363281 189.128906 26.886719 156.589844 C 45.507812 129.691406 63.390625 132.8125 92.378906 103.632812 " fill-opacity="1" fill-rule="nonzero"/><path fill="#5479f7" d="M 62.800781 64.074219 C 87.058594 59.609375 109.460938 70.851562 112.832031 89.183594 C 114.34375 97.386719 111.785156 105.617188 106.328125 112.613281 L 117.242188 129.398438 L 94.320312 123.167969 C 88.753906 126.582031 82.210938 129.140625 75.019531 130.460938 C 50.761719 134.925781 28.363281 123.683594 24.988281 105.351562 C 21.613281 87.019531 38.542969 68.535156 62.800781 64.074219 " fill-opacity="1" fill-rule="nonzero"/><path fill="#000000" d="M 45.320312 67.382812 C 45.117188 67.382812 44.917969 67.289062 44.796875 67.105469 C 44.601562 66.8125 44.675781 66.421875 44.96875 66.226562 C 45.507812 65.863281 46.058594 65.507812 46.609375 65.167969 C 46.902344 64.984375 47.296875 65.078125 47.480469 65.375 C 47.664062 65.671875 47.570312 66.0625 47.273438 66.246094 C 46.738281 66.574219 46.199219 66.921875 45.675781 67.277344 C 45.566406 67.347656 45.441406 67.382812 45.320312 67.382812 " fill-opacity="1" fill-rule="nonzero"/><path fill="#000000" d="M 68.023438 126.335938 C 47.847656 126.335938 30.851562 115.636719 27.921875 99.734375 C 25.964844 89.097656 30.550781 78.117188 40.507812 69.609375 C 40.773438 69.378906 41.171875 69.410156 41.402344 69.679688 C 41.628906 69.941406 41.597656 70.34375 41.332031 70.570312 C 31.726562 78.773438 27.296875 89.320312 29.167969 99.503906 C 32.476562 117.464844 54.585938 128.503906 78.464844 124.105469 C 80.253906 123.777344 82.035156 123.363281 83.761719 122.875 C 84.101562 122.78125 84.449219 122.976562 84.542969 123.316406 C 84.640625 123.652344 84.445312 124.003906 84.105469 124.097656 C 82.34375 124.59375 80.519531 125.015625 78.691406 125.355469 C 75.078125 126.019531 71.5 126.335938 68.023438 126.335938 " fill-opacity="1" fill-rule="nonzero"/><path fill="#000000" d="M 120.800781 124.296875 C 120.746094 124.296875 120.691406 124.289062 120.636719 124.273438 L 97.976562 118.117188 C 96.328125 119.113281 94.597656 120.042969 92.816406 120.871094 C 92.5 121.019531 92.125 120.882812 91.976562 120.566406 C 91.828125 120.25 91.964844 119.871094 92.28125 119.722656 C 94.101562 118.875 95.871094 117.921875 97.546875 116.894531 C 97.695312 116.804688 97.875 116.777344 98.042969 116.824219 L 119.367188 122.617188 L 109.355469 107.222656 C 109.207031 106.996094 109.21875 106.699219 109.386719 106.488281 C 114.917969 99.402344 117.183594 91.261719 115.769531 83.566406 C 114.171875 74.898438 108.191406 67.5625 98.921875 62.914062 C 89.597656 58.230469 78.070312 56.828125 66.472656 58.964844 C 63.738281 59.464844 61.039062 60.164062 58.445312 61.035156 C 58.113281 61.144531 57.753906 60.96875 57.644531 60.636719 C 57.53125 60.304688 57.710938 59.945312 58.042969 59.832031 C 60.691406 58.941406 63.449219 58.230469 66.246094 57.714844 C 78.113281 55.535156 89.917969 56.976562 99.492188 61.78125 C 109.121094 66.613281 115.34375 74.269531 117.015625 83.335938 C 118.472656 91.261719 116.21875 99.617188 110.660156 106.910156 L 121.332031 123.320312 C 121.476562 123.539062 121.46875 123.824219 121.3125 124.039062 C 121.191406 124.203125 121 124.296875 120.800781 124.296875 " fill-opacity="1" fill-rule="nonzero"/><path fill="#1d4ed8" d="M 73.570312 88.554688 C 73.222656 88.554688 72.9375 88.269531 72.9375 87.921875 C 72.9375 87.570312 73.21875 87.289062 73.570312 87.285156 L 104.085938 87.214844 C 104.4375 87.214844 104.71875 87.496094 104.71875 87.84375 C 104.71875 88.195312 104.4375 88.480469 104.089844 88.480469 L 73.574219 88.554688 C 73.570312 88.554688 73.570312 88.554688 73.570312 88.554688 " fill-opacity="1" fill-rule="nonzero"/><path fill="#1d4ed8" d="M 38.589844 87.671875 C 38.238281 87.671875 37.957031 87.390625 37.953125 87.042969 C 37.953125 86.691406 38.234375 86.40625 38.585938 86.40625 L 67.742188 86.246094 C 67.742188 86.246094 67.742188 86.246094 67.746094 86.246094 C 68.09375 86.246094 68.375 86.527344 68.378906 86.875 C 68.378906 87.222656 68.097656 87.507812 67.75 87.511719 L 38.589844 87.671875 " fill-opacity="1" fill-rule="nonzero"/><path fill="#1d4ed8" d="M 102.765625 96.488281 C 102.765625 96.488281 102.761719 96.488281 102.757812 96.488281 L 62.890625 95.996094 C 62.539062 95.992188 62.261719 95.703125 62.265625 95.355469 C 62.269531 95.007812 62.550781 94.730469 62.898438 94.730469 C 62.902344 94.730469 62.902344 94.730469 62.90625 94.730469 L 102.773438 95.222656 C 103.125 95.226562 103.40625 95.511719 103.398438 95.863281 C 103.394531 96.210938 103.113281 96.488281 102.765625 96.488281 " fill-opacity="1" fill-rule="nonzero"/><path fill="#1d4ed8" d="M 55.167969 95.902344 C 55.164062 95.902344 55.164062 95.902344 55.160156 95.902344 L 37.261719 95.683594 C 36.910156 95.675781 36.628906 95.390625 36.632812 95.039062 C 36.640625 94.695312 36.921875 94.414062 37.269531 94.414062 C 37.269531 94.414062 37.273438 94.414062 37.277344 94.414062 L 55.175781 94.636719 C 55.527344 94.640625 55.804688 94.929688 55.800781 95.277344 C 55.796875 95.625 55.515625 95.902344 55.167969 95.902344 " fill-opacity="1" fill-rule="nonzero"/><path fill="#1d4ed8" d="M 103.902344 103.257812 L 89.292969 103.167969 C 88.941406 103.167969 88.660156 102.882812 88.664062 102.53125 C 88.664062 102.183594 88.949219 101.902344 89.296875 101.902344 C 89.296875 101.902344 89.296875 101.902344 89.300781 101.902344 L 103.90625 101.992188 C 104.257812 101.992188 104.539062 102.28125 104.539062 102.628906 C 104.535156 102.980469 104.253906 103.257812 103.902344 103.257812 " fill-opacity="1" fill-rule="nonzero"/><path fill="#1d4ed8" d="M 85.8125 103.222656 C 85.808594 103.222656 85.808594 103.222656 85.804688 103.222656 L 38.394531 102.449219 C 38.046875 102.445312 37.765625 102.15625 37.773438 101.804688 C 37.777344 101.457031 38.0625 101.171875 38.417969 101.183594 L 85.824219 101.957031 C 86.175781 101.964844 86.453125 102.25 86.445312 102.601562 C 86.441406 102.949219 86.160156 103.222656 85.8125 103.222656 " fill-opacity="1" fill-rule="nonzero"/><path fill="#1d4ed8" d="M 304.144531 346.628906 L 147.0625 346.628906 C 140.292969 346.628906 135.5 341.167969 136.351562 334.433594 L 175.03125 29.457031 C 175.886719 22.722656 182.066406 17.265625 188.835938 17.265625 L 338.03125 15.523438 C 355.15625 15.523438 357.480469 22.722656 356.625 29.457031 L 317.949219 334.433594 C 317.09375 341.167969 310.914062 346.628906 304.144531 346.628906 " fill-opacity="1" fill-rule="nonzero"/><path fill="#ffffff" d="M 294.691406 346.628906 L 137.609375 346.628906 C 130.84375 346.628906 126.046875 341.140625 126.902344 334.371094 L 165.578125 27.839844 C 166.433594 21.070312 172.613281 15.585938 179.382812 15.585938 L 336.464844 15.585938 C 343.234375 15.585938 348.03125 21.070312 347.175781 27.839844 L 308.496094 334.371094 C 307.640625 341.140625 301.460938 346.628906 294.691406 346.628906 " fill-opacity="1" fill-rule="nonzero"/><path fill="#99b9ff" d="M 135.855469 334.792969 L 172.785156 42.105469 C 172.980469 40.542969 174.40625 39.277344 175.96875 39.277344 L 333.894531 39.277344 C 335.460938 39.277344 336.566406 40.542969 336.367188 42.105469 L 299.4375 334.792969 C 299.242188 336.355469 297.8125 337.621094 296.25 337.621094 L 138.324219 337.621094 C 136.761719 337.621094 135.65625 336.355469 135.855469 334.792969 " fill-opacity="1" fill-rule="nonzero"/><path fill="#99b9ff" d="M 255.957031 31.171875 C 253.421875 31.171875 251.625 29.117188 251.945312 26.578125 C 252.265625 24.046875 254.578125 21.988281 257.113281 21.988281 C 259.652344 21.988281 261.449219 24.046875 261.128906 26.578125 C 260.808594 29.117188 258.492188 31.171875 255.957031 31.171875 " fill-opacity="1" fill-rule="nonzero"/><path fill="#000000" d="M 294.691406 347.261719 L 165.039062 347.261719 C 164.6875 347.261719 164.40625 346.976562 164.40625 346.628906 C 164.40625 346.277344 164.6875 345.996094 165.039062 345.996094 L 294.691406 345.996094 C 301.140625 345.996094 307.054688 340.746094 307.867188 334.292969 L 346.542969 27.761719 C 346.933594 24.652344 346.09375 21.738281 344.171875 19.558594 C 342.273438 17.402344 339.535156 16.21875 336.464844 16.21875 L 179.382812 16.21875 C 172.933594 16.21875 167.019531 21.46875 166.207031 27.917969 L 140.757812 229.621094 C 140.714844 229.964844 140.398438 230.214844 140.050781 230.167969 C 139.703125 230.125 139.457031 229.808594 139.5 229.460938 L 164.949219 27.761719 C 165.839844 20.699219 172.316406 14.949219 179.382812 14.949219 L 336.464844 14.949219 C 339.902344 14.949219 342.976562 16.289062 345.121094 18.722656 C 347.289062 21.179688 348.242188 24.445312 347.800781 27.917969 L 309.125 334.449219 C 308.230469 341.515625 301.757812 347.261719 294.691406 347.261719 " fill-opacity="1" fill-rule="nonzero"/><path fill="#000000" d="M 296.25 338.257812 L 244.84375 338.257812 C 244.492188 338.257812 244.207031 337.972656 244.207031 337.621094 C 244.207031 337.273438 244.492188 336.988281 244.84375 336.988281 L 296.25 336.988281 C 297.503906 336.988281 298.652344 335.96875 298.8125 334.714844 L 335.742188 42.027344 C 335.816406 41.449219 335.660156 40.914062 335.3125 40.519531 C 334.964844 40.125 334.464844 39.910156 333.894531 39.910156 L 175.96875 39.910156 C 174.71875 39.910156 173.570312 40.929688 173.414062 42.1875 L 147.851562 244.753906 C 147.808594 245.101562 147.492188 245.347656 147.144531 245.304688 C 146.800781 245.261719 146.550781 244.945312 146.597656 244.597656 L 172.15625 42.027344 C 172.390625 40.160156 174.105469 38.644531 175.96875 38.644531 L 333.894531 38.644531 C 334.832031 38.644531 335.671875 39.011719 336.261719 39.679688 C 336.859375 40.355469 337.117188 41.242188 337 42.1875 L 300.066406 334.871094 C 299.832031 336.738281 298.121094 338.257812 296.25 338.257812 " fill-opacity="1" fill-rule="nonzero"/><path fill="#000000" d="M 156.332031 215.109375 C 156.332031 215.082031 156.332031 215.054688 156.332031 215.03125 C 156.492188 206.730469 161.628906 198.273438 171.597656 189.894531 C 178.585938 184.019531 185.460938 180.320312 185.75 180.167969 C 188.058594 178.9375 190.925781 179.804688 192.160156 182.113281 C 193.390625 184.417969 192.519531 187.285156 190.214844 188.519531 C 183.496094 192.125 166.019531 203.941406 165.800781 215.210938 C 165.800781 215.230469 165.800781 215.246094 165.800781 215.261719 C 165.742188 218.835938 166.796875 221.621094 169.035156 223.769531 C 174.382812 228.90625 185.234375 229.453125 188.964844 229.230469 C 191.574219 229.074219 193.816406 231.0625 193.972656 233.675781 C 194.128906 236.28125 192.140625 238.527344 189.527344 238.683594 C 188.8125 238.726562 171.878906 239.628906 162.476562 230.597656 C 158.296875 226.582031 156.230469 221.371094 156.332031 215.109375 " fill-opacity="1" fill-rule="nonzero"/><path fill="#1d4ed8" d="M 189.894531 248.910156 L 190.355469 220.871094 C 190.398438 218.257812 192.550781 216.171875 195.167969 216.214844 C 197.78125 216.257812 199.867188 218.410156 199.824219 221.027344 L 199.363281 249.066406 C 199.324219 251.679688 197.167969 253.765625 194.554688 253.722656 C 191.9375 253.679688 189.855469 251.523438 189.894531 248.910156 " fill-opacity="1" fill-rule="nonzero"/><path fill="#1d4ed8" d="M 151.660156 130.480469 L 161.554688 130.480469 C 161.945312 130.480469 162.265625 130.160156 162.265625 129.769531 L 162.265625 100.195312 C 162.265625 99.804688 161.949219 99.488281 161.554688 99.488281 L 151.660156 99.488281 C 149.582031 99.488281 147.898438 101.167969 147.898438 103.246094 L 147.898438 126.71875 C 147.898438 128.796875 149.582031 130.480469 151.660156 130.480469 " fill-opacity="1" fill-rule="nonzero"/><path fill="#ffffff" d="M 298.691406 130.480469 L 288.683594 130.480469 L 288.683594 102.480469 L 298.691406 102.480469 C 301.097656 102.480469 303.046875 104.429688 303.046875 106.835938 L 303.046875 126.121094 C 303.046875 128.527344 301.097656 130.480469 298.691406 130.480469 " fill-opacity="1" fill-rule="nonzero"/><path fill="#000000" d="M 289.316406 129.84375 L 290.703125 129.84375 C 297.160156 129.84375 302.414062 124.589844 302.414062 118.132812 L 302.414062 114.824219 C 302.414062 108.367188 297.160156 103.113281 290.703125 103.113281 L 289.316406 103.113281 Z M 290.703125 131.109375 L 288.683594 131.109375 C 288.332031 131.109375 288.050781 130.828125 288.050781 130.476562 L 288.050781 102.480469 C 288.050781 102.128906 288.332031 101.84375 288.683594 101.84375 L 290.703125 101.84375 C 297.859375 101.84375 303.683594 107.667969 303.683594 114.824219 L 303.683594 118.132812 C 303.683594 125.289062 297.859375 131.109375 290.703125 131.109375 " fill-opacity="1" fill-rule="nonzero"/><path fill="#ffffff" d="M 293.207031 115.320312 C 293.207031 85.234375 262.882812 54.113281 225.472656 54.113281 C 188.066406 54.113281 157.738281 85.234375 157.738281 115.320312 C 157.738281 145.410156 188.066406 163.066406 225.472656 163.066406 C 262.882812 163.066406 293.207031 145.410156 293.207031 115.320312 " fill-opacity="1" fill-rule="nonzero"/><path fill="#000000" d="M 225.472656 54.75 C 187.066406 54.75 158.375 86.730469 158.375 115.320312 C 158.375 129.445312 165.136719 141.417969 177.929688 149.953125 C 190 158 206.882812 162.429688 225.472656 162.429688 C 244.0625 162.429688 260.945312 158 273.015625 149.953125 C 285.808594 141.417969 292.574219 129.445312 292.574219 115.320312 C 292.574219 86.730469 263.878906 54.75 225.472656 54.75 Z M 225.472656 163.699219 C 206.636719 163.699219 189.5 159.191406 177.226562 151.003906 C 164.0625 142.226562 157.105469 129.886719 157.105469 115.320312 C 157.105469 100.402344 164.410156 84.96875 177.144531 72.976562 C 190.496094 60.40625 207.660156 53.480469 225.472656 53.480469 C 243.289062 53.480469 260.453125 60.40625 273.800781 72.976562 C 286.535156 84.96875 293.839844 100.402344 293.839844 115.320312 C 293.839844 129.886719 286.882812 142.226562 273.71875 151.003906 C 261.445312 159.191406 244.308594 163.699219 225.472656 163.699219 " fill-opacity="1" fill-rule="nonzero"/><path fill="#ffffff" d="M 208.507812 172.105469 L 242.441406 172.105469 C 257.3125 172.105469 269.367188 184.160156 269.367188 199.03125 C 269.367188 208.859375 268.410156 218.660156 266.507812 228.300781 L 261.628906 253.007812 C 258.21875 270.273438 243.074219 282.722656 225.472656 282.722656 C 207.871094 282.722656 192.730469 270.273438 189.320312 253.007812 L 184.441406 228.300781 C 182.539062 218.660156 181.578125 208.859375 181.578125 199.03125 C 181.578125 184.160156 193.636719 172.105469 208.507812 172.105469 " fill-opacity="1" fill-rule="nonzero"/><path fill="#000000" d="M 208.507812 172.738281 C 194.007812 172.738281 182.210938 184.53125 182.210938 199.03125 C 182.210938 208.796875 183.171875 218.601562 185.0625 228.179688 L 189.941406 252.886719 C 193.28125 269.808594 208.226562 282.089844 225.472656 282.089844 C 242.722656 282.089844 257.667969 269.808594 261.007812 252.886719 L 265.886719 228.179688 C 267.777344 218.601562 268.734375 208.796875 268.734375 199.03125 C 268.734375 184.53125 256.941406 172.738281 242.441406 172.738281 Z M 225.472656 283.355469 C 207.621094 283.355469 192.15625 270.644531 188.699219 253.128906 L 183.820312 228.425781 C 181.914062 218.765625 180.945312 208.878906 180.945312 199.03125 C 180.945312 183.835938 193.308594 171.472656 208.507812 171.472656 L 242.441406 171.472656 C 257.636719 171.472656 270 183.835938 270 199.03125 C 270 208.878906 269.035156 218.765625 267.128906 228.425781 L 262.25 253.128906 C 258.792969 270.644531 243.324219 283.355469 225.472656 283.355469 " fill-opacity="1" fill-rule="nonzero"/><path fill="#99b9ff" d="M 223.292969 231.769531 L 227.65625 231.769531 C 236.652344 231.769531 243.945312 224.476562 243.945312 215.484375 L 243.945312 172.105469 L 207.003906 172.105469 L 207.003906 215.484375 C 207.003906 224.476562 214.296875 231.769531 223.292969 231.769531 " fill-opacity="1" fill-rule="nonzero"/><path fill="#000000" d="M 243.945312 172.738281 L 207.003906 172.738281 C 206.65625 172.738281 206.371094 172.453125 206.371094 172.105469 C 206.371094 171.753906 206.65625 171.472656 207.003906 171.472656 L 243.945312 171.472656 C 244.292969 171.472656 244.578125 171.753906 244.578125 172.105469 C 244.578125 172.453125 244.292969 172.738281 243.945312 172.738281 " fill-opacity="1" fill-rule="nonzero"/><path fill="#000000" d="M 179.933594 106.292969 L 245.160156 106.292969 C 251.9375 106.292969 257.429688 112.210938 257.429688 119.515625 L 257.429688 128.140625 C 257.429688 133.710938 254.457031 139.609375 249.332031 140.574219 C 231.253906 143.96875 193.839844 143.96875 175.761719 140.574219 C 170.636719 139.609375 167.664062 133.710938 167.664062 128.140625 L 167.664062 119.515625 C 167.664062 112.210938 173.160156 106.292969 179.933594 106.292969 " fill-opacity="1" fill-rule="nonzero"/><path fill="#1d4ed8" d="M 227.875 123.652344 C 227.875 126.097656 229.714844 128.082031 231.984375 128.082031 C 234.253906 128.082031 236.097656 126.097656 236.097656 123.652344 C 236.097656 121.203125 234.253906 119.222656 231.984375 119.222656 C 229.714844 119.222656 227.875 121.203125 227.875 123.652344 " fill-opacity="1" fill-rule="nonzero"/><path fill="#1d4ed8" d="M 184.144531 123.652344 C 184.144531 126.097656 185.984375 128.082031 188.253906 128.082031 C 190.523438 128.082031 192.363281 126.097656 192.363281 123.652344 C 192.363281 121.203125 190.523438 119.222656 188.253906 119.222656 C 185.984375 119.222656 184.144531 121.203125 184.144531 123.652344 " fill-opacity="1" fill-rule="nonzero"/><path fill="#1d4ed8" d="M 252.386719 149.691406 C 252.121094 149.691406 251.875 149.523438 251.785156 149.257812 C 251.679688 148.925781 251.855469 148.566406 252.191406 148.457031 L 273.015625 141.601562 C 282.511719 138.472656 288.304688 129.035156 286.792969 119.15625 L 285.292969 109.359375 C 285.238281 109.015625 285.472656 108.691406 285.820312 108.636719 C 286.171875 108.585938 286.488281 108.824219 286.542969 109.167969 L 288.042969 118.960938 C 289.648438 129.457031 283.496094 139.484375 273.410156 142.804688 L 252.585938 149.660156 C 252.519531 149.683594 252.453125 149.691406 252.386719 149.691406 " fill-opacity="1" fill-rule="nonzero"/><path fill="#1d4ed8" d="M 295.71875 105.148438 C 295.4375 105.148438 295.183594 104.960938 295.109375 104.675781 C 295.074219 104.546875 291.582031 91.625 282.40625 79.082031 C 273.96875 67.558594 258.859375 53.996094 234.730469 54.859375 C 234.386719 54.871094 234.085938 54.601562 234.074219 54.25 C 234.0625 53.902344 234.335938 53.609375 234.683594 53.59375 C 245.578125 53.207031 255.621094 55.644531 264.5 60.832031 C 271.597656 64.976562 277.972656 70.875 283.449219 78.367188 C 292.757812 91.097656 296.296875 104.21875 296.332031 104.351562 C 296.421875 104.6875 296.21875 105.035156 295.882812 105.125 C 295.828125 105.140625 295.773438 105.148438 295.71875 105.148438 " fill-opacity="1" fill-rule="nonzero"/><path fill="#5479f7" d="M 277.957031 119.769531 C 276.839844 110.949219 282.492188 102.972656 290.578125 101.949219 C 291.464844 101.839844 294.75 101.753906 295.613281 101.8125 C 302.628906 102.285156 306.246094 108.214844 307.238281 116.066406 C 308.308594 124.535156 305.082031 132.441406 297.511719 133.949219 C 297.199219 134.011719 294.957031 134.191406 294.632812 134.191406 C 285.769531 134.21875 279.074219 128.589844 277.957031 119.769531 " fill-opacity="1" fill-rule="nonzero"/><path fill="#1d4ed8" d="M 281.453125 119.484375 C 280.511719 110.644531 286.316406 102.78125 294.417969 101.914062 C 302.523438 101.050781 309.859375 107.515625 310.800781 116.355469 C 311.742188 125.191406 305.9375 133.058594 297.835938 133.921875 C 289.730469 134.785156 282.398438 128.324219 281.453125 119.484375 " fill-opacity="1" fill-rule="nonzero"/><path fill="#1d4ed8" d="M 257.082031 152.144531 L 240.863281 153.6875 C 240.242188 153.746094 239.6875 153.285156 239.628906 152.664062 L 239.152344 147.675781 C 239.09375 147.054688 239.554688 146.5 240.175781 146.441406 L 256.394531 144.898438 C 257.015625 144.84375 257.570312 145.300781 257.628906 145.917969 L 258.101562 150.910156 C 258.164062 151.53125 257.703125 152.085938 257.082031 152.144531 " fill-opacity="1" fill-rule="nonzero"/><path fill="#5479f7" d="M 190.578125 267.730469 L 253.734375 267.730469 L 229.203125 201.394531 L 166.046875 201.394531 L 190.578125 267.730469 " fill-opacity="1" fill-rule="nonzero"/><path fill="#000000" d="M 191.019531 267.097656 L 252.824219 267.097656 L 228.761719 202.027344 L 166.957031 202.027344 Z M 253.734375 268.363281 L 190.578125 268.363281 C 190.3125 268.363281 190.074219 268.199219 189.984375 267.949219 L 165.453125 201.613281 C 165.382812 201.417969 165.410156 201.203125 165.527344 201.03125 C 165.644531 200.859375 165.839844 200.761719 166.046875 200.761719 L 229.203125 200.761719 C 229.46875 200.761719 229.703125 200.925781 229.796875 201.175781 L 254.328125 267.511719 C 254.398438 267.703125 254.371094 267.921875 254.253906 268.09375 C 254.136719 268.261719 253.941406 268.363281 253.734375 268.363281 " fill-opacity="1" fill-rule="nonzero"/><path fill="#000000" d="M 268.800781 251.257812 C 278.078125 251.257812 290.628906 249.9375 298.675781 243.769531 C 303.308594 240.214844 306.019531 235.519531 306.722656 229.816406 C 309.890625 204.222656 278.996094 189.570312 277.683594 188.957031 C 275.308594 187.855469 272.496094 188.886719 271.394531 191.257812 C 270.292969 193.628906 271.320312 196.441406 273.6875 197.542969 C 273.949219 197.664062 299.644531 209.910156 297.324219 228.65625 C 296.9375 231.789062 295.496094 234.273438 292.910156 236.253906 C 284.066406 243.035156 260.734375 242.867188 254.050781 241.925781 C 251.460938 241.5625 250.191406 243.277344 249.828125 245.867188 C 249.464844 248.457031 251.449219 250.929688 254.050781 251.214844 C 257.800781 251.628906 262.195312 251.257812 268.800781 251.257812 " fill-opacity="1" fill-rule="nonzero"/><path fill="#000000" d="M 233.851562 257.703125 L 242.945312 257.703125 C 247.914062 257.703125 252.035156 253.972656 252.527344 249.03125 L 252.84375 245.867188 C 253.113281 243.164062 252.226562 240.460938 250.402344 238.445312 C 248.578125 236.433594 245.976562 235.28125 243.261719 235.28125 L 228.757812 235.28125 C 226.144531 235.28125 224.023438 237.398438 224.023438 240.015625 C 224.023438 242.628906 226.144531 244.75 228.757812 244.75 L 243.261719 244.75 C 243.289062 244.75 243.332031 244.75 243.378906 244.800781 C 243.429688 244.851562 243.425781 244.898438 243.421875 244.925781 L 243.105469 248.089844 C 243.097656 248.171875 243.027344 248.234375 242.945312 248.234375 L 233.851562 248.234375 C 231.238281 248.234375 229.117188 250.351562 229.117188 252.96875 C 229.117188 255.582031 231.238281 257.703125 233.851562 257.703125 " fill-opacity="1" fill-rule="nonzero"/><path fill="#5479f7" d="M 130.226562 27.894531 C 135.914062 26.113281 141.96875 29.277344 143.75 34.964844 C 145.53125 40.652344 142.367188 46.707031 136.679688 48.488281 C 130.996094 50.269531 124.941406 47.101562 123.15625 41.417969 C 121.375 35.730469 124.539062 29.679688 130.226562 27.894531 Z M 112.136719 42.675781 L 113.390625 46.675781 L 117.953125 46.300781 C 118.410156 47.175781 118.929688 48.003906 119.511719 48.769531 L 117.234375 52.734375 L 120.320312 55.570312 L 124.085938 52.964844 C 124.910156 53.484375 125.773438 53.9375 126.667969 54.316406 L 126.679688 58.894531 L 130.769531 59.808594 L 132.722656 55.675781 C 133.6875 55.714844 134.664062 55.671875 135.640625 55.546875 L 137.9375 59.507812 L 141.9375 58.253906 L 141.5625 53.691406 C 142.4375 53.234375 143.261719 52.714844 144.03125 52.132812 L 147.996094 54.410156 L 150.832031 51.324219 L 148.226562 47.558594 C 148.746094 46.738281 149.199219 45.871094 149.578125 44.976562 L 154.15625 44.964844 L 155.070312 40.875 L 150.9375 38.921875 C 150.976562 37.957031 150.933594 36.984375 150.8125 36.003906 L 154.769531 33.707031 L 153.515625 29.707031 L 148.953125 30.082031 C 148.5 29.207031 147.976562 28.382812 147.394531 27.613281 L 149.671875 23.648438 L 146.585938 20.8125 L 142.824219 23.417969 C 142 22.898438 141.132812 22.445312 140.238281 22.066406 L 140.226562 17.488281 L 136.136719 16.574219 L 134.183594 20.707031 C 133.21875 20.667969 132.242188 20.710938 131.265625 20.835938 L 128.96875 16.875 L 124.96875 18.128906 L 125.34375 22.691406 C 124.46875 23.148438 123.644531 23.667969 122.875 24.25 L 118.910156 21.972656 L 116.074219 25.058594 L 118.679688 28.820312 C 118.160156 29.644531 117.707031 30.511719 117.328125 31.40625 L 112.75 31.417969 L 111.835938 35.507812 L 115.96875 37.460938 C 115.929688 38.425781 115.972656 39.402344 116.097656 40.378906 L 112.136719 42.675781 " fill-opacity="1" fill-rule="nonzero"/><path fill="#99b9ff" d="M 88.523438 24.523438 C 92.296875 23.339844 96.3125 25.441406 97.492188 29.210938 C 98.675781 32.980469 96.574219 36.996094 92.804688 38.175781 C 89.035156 39.359375 85.019531 37.261719 83.835938 33.492188 C 82.65625 29.71875 84.753906 25.703125 88.523438 24.523438 Z M 76.527344 34.324219 L 77.359375 36.976562 L 80.386719 36.726562 C 80.6875 37.308594 81.035156 37.855469 81.421875 38.363281 L 79.910156 40.996094 L 81.957031 42.875 L 84.453125 41.148438 C 84.996094 41.492188 85.570312 41.792969 86.167969 42.042969 L 86.171875 45.078125 L 88.882812 45.6875 L 90.179688 42.945312 C 90.820312 42.972656 91.46875 42.941406 92.117188 42.859375 L 93.640625 45.488281 L 96.292969 44.65625 L 96.042969 41.628906 C 96.621094 41.328125 97.171875 40.980469 97.679688 40.59375 L 100.308594 42.105469 L 102.191406 40.058594 L 100.460938 37.5625 C 100.808594 37.019531 101.105469 36.445312 101.359375 35.851562 L 104.394531 35.84375 L 105 33.132812 L 102.261719 31.832031 C 102.285156 31.195312 102.257812 30.546875 102.175781 29.898438 L 104.800781 28.375 L 103.96875 25.722656 L 100.945312 25.972656 C 100.644531 25.390625 100.296875 24.84375 99.910156 24.335938 L 101.421875 21.707031 L 99.375 19.824219 L 96.878906 21.554688 C 96.332031 21.207031 95.757812 20.90625 95.164062 20.65625 L 95.15625 17.621094 L 92.445312 17.015625 L 91.148438 19.757812 C 90.511719 19.730469 89.863281 19.757812 89.214844 19.839844 L 87.691406 17.214844 L 85.039062 18.042969 L 85.285156 21.070312 C 84.707031 21.371094 84.160156 21.71875 83.648438 22.105469 L 81.019531 20.59375 L 79.140625 22.640625 L 80.867188 25.136719 C 80.523438 25.683594 80.222656 26.257812 79.972656 26.851562 L 76.9375 26.859375 L 76.328125 29.570312 L 79.070312 30.867188 C 79.042969 31.503906 79.074219 32.152344 79.15625 32.800781 L 76.527344 34.324219 " fill-opacity="1" fill-rule="nonzero"/><path fill="#000000" d="M 298.679688 56.539062 C 298.648438 56.539062 298.617188 56.535156 298.582031 56.53125 C 298.234375 56.480469 298 56.15625 298.054688 55.808594 L 298.5625 52.5625 C 298.621094 52.21875 298.945312 51.984375 299.289062 52.035156 C 299.632812 52.09375 299.871094 52.417969 299.816406 52.761719 L 299.304688 56.003906 C 299.257812 56.316406 298.984375 56.539062 298.679688 56.539062 " fill-opacity="1" fill-rule="nonzero"/><path fill="#000000" d="M 296.890625 67.894531 C 296.859375 67.894531 296.820312 67.890625 296.789062 67.886719 C 296.445312 67.832031 296.210938 67.507812 296.261719 67.160156 L 296.773438 63.917969 C 296.828125 63.570312 297.15625 63.335938 297.5 63.390625 C 297.84375 63.445312 298.082031 63.769531 298.027344 64.113281 L 297.515625 67.359375 C 297.46875 67.671875 297.195312 67.894531 296.890625 67.894531 " fill-opacity="1" fill-rule="nonzero"/><path fill="#000000" d="M 294.054688 59.90625 C 294.019531 59.90625 293.984375 59.902344 293.945312 59.894531 L 290.761719 59.34375 C 290.417969 59.285156 290.183594 58.957031 290.242188 58.613281 C 290.304688 58.265625 290.628906 58.035156 290.976562 58.097656 L 294.164062 58.648438 C 294.507812 58.707031 294.738281 59.035156 294.679688 59.378906 C 294.625 59.6875 294.359375 59.90625 294.054688 59.90625 " fill-opacity="1" fill-rule="nonzero"/><path fill="#000000" d="M 305.21875 61.832031 C 305.179688 61.832031 305.140625 61.832031 305.105469 61.824219 L 301.917969 61.273438 C 301.574219 61.214844 301.34375 60.886719 301.402344 60.542969 C 301.460938 60.199219 301.785156 59.964844 302.136719 60.027344 L 305.324219 60.574219 C 305.667969 60.636719 305.898438 60.964844 305.839844 61.308594 C 305.785156 61.617188 305.519531 61.832031 305.21875 61.832031 " fill-opacity="1" fill-rule="nonzero"/><path fill="#000000" d="M 282.222656 280.992188 C 282.191406 280.992188 282.15625 280.988281 282.125 280.984375 C 281.777344 280.929688 281.542969 280.605469 281.597656 280.257812 L 282.109375 277.015625 C 282.160156 276.667969 282.488281 276.433594 282.832031 276.488281 C 283.175781 276.542969 283.414062 276.867188 283.359375 277.210938 L 282.851562 280.457031 C 282.800781 280.765625 282.527344 280.992188 282.222656 280.992188 " fill-opacity="1" fill-rule="nonzero"/><path fill="#000000" d="M 280.433594 292.347656 C 280.398438 292.347656 280.363281 292.34375 280.332031 292.335938 C 279.984375 292.285156 279.75 291.957031 279.804688 291.613281 L 280.316406 288.371094 C 280.371094 288.023438 280.695312 287.789062 281.042969 287.84375 C 281.386719 287.898438 281.621094 288.222656 281.566406 288.566406 L 281.054688 291.808594 C 281.007812 292.121094 280.738281 292.347656 280.433594 292.347656 " fill-opacity="1" fill-rule="nonzero"/><path fill="#000000" d="M 277.597656 284.355469 C 277.5625 284.355469 277.523438 284.355469 277.488281 284.347656 L 274.300781 283.796875 C 273.953125 283.738281 273.726562 283.410156 273.785156 283.066406 C 273.84375 282.71875 274.171875 282.488281 274.519531 282.550781 L 277.707031 283.097656 C 278.046875 283.160156 278.28125 283.488281 278.222656 283.832031 C 278.167969 284.140625 277.902344 284.355469 277.597656 284.355469 " fill-opacity="1" fill-rule="nonzero"/><path fill="#000000" d="M 288.757812 286.285156 C 288.722656 286.285156 288.683594 286.285156 288.648438 286.277344 L 285.460938 285.726562 C 285.117188 285.664062 284.886719 285.339844 284.945312 284.992188 C 285.003906 284.648438 285.328125 284.417969 285.675781 284.476562 L 288.867188 285.027344 C 289.210938 285.089844 289.441406 285.417969 289.382812 285.761719 C 289.328125 286.070312 289.0625 286.285156 288.757812 286.285156 " fill-opacity="1" fill-rule="nonzero"/><path fill="#ffffff" d="M 245.601562 297.613281 C 246.632812 297.46875 247.78125 297.550781 249.042969 297.972656 L 264.03125 301.269531 C 264.03125 301.269531 260.71875 305.335938 257.273438 305.566406 C 259.140625 308.46875 260.207031 311.046875 260.207031 311.046875 C 260.207031 311.046875 266.851562 312.699219 268.21875 313.304688 C 269.589844 313.910156 271.554688 314.582031 272.515625 316.007812 C 273.476562 317.441406 273.363281 319.59375 273.363281 319.59375 L 257.460938 318.59375 L 243.183594 306.644531 L 216.988281 319.636719 L 218.152344 303.5 L 245.601562 297.613281 " fill-opacity="1" fill-rule="nonzero"/><path fill="#000000" d="M 257.703125 317.976562 L 272.71875 318.921875 C 272.675781 318.238281 272.519531 317.152344 271.988281 316.363281 C 271.265625 315.292969 269.773438 314.65625 268.574219 314.148438 C 268.359375 314.058594 268.15625 313.96875 267.964844 313.882812 C 266.878906 313.402344 261.886719 312.117188 260.054688 311.664062 C 259.859375 311.617188 259.699219 311.476562 259.621094 311.292969 C 259.613281 311.265625 258.550781 308.726562 256.738281 305.910156 C 256.617188 305.722656 256.605469 305.484375 256.707031 305.28125 C 256.804688 305.082031 257.003906 304.949219 257.226562 304.9375 C 259.472656 304.785156 261.714844 302.792969 262.824219 301.652344 L 248.90625 298.589844 C 248.886719 298.585938 248.859375 298.582031 248.839844 298.574219 C 247.765625 298.214844 246.714844 298.101562 245.710938 298.238281 L 218.75 304.019531 L 217.699219 318.578125 L 242.902344 306.074219 C 243.125 305.964844 243.394531 305.996094 243.585938 306.15625 Z M 216.988281 320.273438 C 216.863281 320.273438 216.742188 320.238281 216.636719 320.164062 C 216.445312 320.039062 216.339844 319.820312 216.355469 319.59375 L 217.519531 303.453125 C 217.542969 303.171875 217.742188 302.9375 218.019531 302.878906 L 245.46875 296.992188 C 245.480469 296.992188 245.496094 296.988281 245.511719 296.984375 C 246.703125 296.816406 247.949219 296.941406 249.210938 297.359375 L 264.164062 300.652344 C 264.382812 300.695312 264.554688 300.851562 264.628906 301.0625 C 264.699219 301.269531 264.660156 301.5 264.519531 301.667969 C 264.394531 301.828125 261.585938 305.234375 258.3125 306.039062 C 259.554688 308.082031 260.367188 309.832031 260.664062 310.511719 C 262.003906 310.847656 267.230469 312.171875 268.476562 312.726562 C 268.664062 312.8125 268.863281 312.894531 269.070312 312.980469 C 270.421875 313.554688 272.105469 314.269531 273.039062 315.65625 C 274.105469 317.242188 274.003906 319.53125 273.996094 319.628906 C 273.988281 319.796875 273.914062 319.957031 273.785156 320.066406 C 273.660156 320.179688 273.496094 320.238281 273.324219 320.226562 L 257.417969 319.226562 C 257.28125 319.21875 257.152344 319.167969 257.050781 319.082031 L 243.09375 307.394531 L 217.269531 320.207031 C 217.179688 320.25 217.082031 320.273438 216.988281 320.273438 " fill-opacity="1" fill-rule="nonzero"/><path fill="#1d4ed8" d="M 244.839844 311.269531 C 244.839844 311.269531 235.34375 296.488281 235.328125 296.46875 C 234.582031 295.304688 228.335938 297.164062 227.179688 297.230469 C 223.039062 297.46875 218.730469 296.792969 214.601562 296.335938 C 205.785156 295.359375 197.019531 293.941406 188.34375 292.085938 C 181.261719 290.574219 174.132812 288.730469 167.859375 285.113281 C 159.59375 280.351562 155.257812 272.933594 151.945312 264.28125 C 149.445312 257.742188 146.460938 252.277344 142.730469 246.289062 C 137.207031 237.429688 128.039062 230.160156 120.425781 226.382812 C 108.601562 220.515625 94.847656 217.683594 81.746094 220.296875 C 56.460938 225.339844 39.167969 240.078125 39.167969 240.078125 C 25.414062 251.0625 0.00390625 289.355469 9.0625 307.792969 C 20.175781 330.40625 50.125 317.179688 50.125 317.179688 C 50.125 317.179688 53.03125 321.925781 46.785156 336.359375 C 39.191406 353.898438 50.191406 356.246094 50.191406 356.246094 C 75.757812 368.746094 143.484375 365.953125 137.710938 351.996094 C 131.527344 337.054688 131.425781 318.113281 131.425781 318.113281 C 139.96875 326.5625 158.476562 328.347656 158.476562 328.347656 C 158.476562 328.347656 174.101562 329.828125 184.023438 328.136719 C 239.550781 319.902344 244.839844 311.269531 244.839844 311.269531 " fill-opacity="1" fill-rule="nonzero"/><path fill="#000000" d="M 50.507812 306.148438 C 50.246094 306.148438 50 305.984375 49.910156 305.722656 C 41.445312 281.230469 45.375 261.449219 45.417969 261.25 C 45.488281 260.910156 45.824219 260.6875 46.164062 260.757812 C 46.507812 260.828125 46.726562 261.164062 46.65625 261.507812 C 46.617188 261.703125 42.761719 281.164062 51.105469 305.308594 C 51.21875 305.640625 51.042969 305.996094 50.714844 306.113281 C 50.644531 306.136719 50.574219 306.148438 50.507812 306.148438 " fill-opacity="1" fill-rule="nonzero"/><path fill="#000000" d="M 130.921875 318.878906 C 130.761719 318.878906 130.601562 318.820312 130.480469 318.699219 C 117.25 305.777344 108.035156 275.761719 107.652344 274.492188 C 107.550781 274.15625 107.738281 273.804688 108.074219 273.703125 C 108.410156 273.601562 108.761719 273.789062 108.863281 274.125 C 108.957031 274.433594 118.367188 305.097656 131.363281 317.792969 C 131.613281 318.035156 131.621094 318.4375 131.375 318.6875 C 131.25 318.816406 131.085938 318.878906 130.921875 318.878906 " fill-opacity="1" fill-rule="nonzero"/><path fill="#ffffff" d="M 96.183594 160.410156 C 101.292969 160.433594 106 163.195312 108.566406 167.617188 C 109.753906 169.660156 110.835938 171.570312 111.054688 172.109375 C 111.550781 173.339844 112.648438 177.460938 116.664062 181.433594 C 117.058594 181.828125 117.117188 182.449219 116.773438 182.886719 L 114.199219 186.179688 C 114.019531 186.40625 113.949219 186.695312 113.996094 186.980469 C 114.304688 188.734375 115.835938 195.105469 115.382812 196.253906 C 114.421875 198.691406 108.597656 199.351562 106.871094 199.492188 C 106.546875 199.519531 106.257812 199.703125 106.101562 199.984375 C 105.542969 200.996094 104.066406 203.890625 102.855469 211.109375 C 101.007812 222.105469 111.492188 223.816406 109.355469 224.894531 C 94.460938 232.410156 67.03125 230.703125 68.621094 227.574219 C 69.929688 225.003906 84.980469 218.34375 86.382812 200.253906 C 87.253906 188.972656 71.457031 188.046875 82.839844 166.574219 C 85.484375 161.582031 91.214844 160.386719 96.183594 160.410156 " fill-opacity="1" fill-rule="nonzero"/><path fill="#000000" d="M 69.207031 227.824219 C 69.273438 227.90625 69.515625 228.125 70.285156 228.394531 C 75.640625 230.261719 96.144531 230.683594 108.777344 224.472656 C 108.574219 224.3125 108.292969 224.117188 108.046875 223.941406 C 105.726562 222.320312 100.894531 218.945312 102.230469 211.003906 C 103.082031 205.925781 104.199219 202.117188 105.546875 199.679688 C 105.804688 199.210938 106.28125 198.90625 106.820312 198.863281 C 110.089844 198.589844 114.136719 197.683594 114.792969 196.019531 C 115.070312 195.292969 114.136719 190.816406 113.738281 188.90625 C 113.582031 188.152344 113.445312 187.496094 113.375 187.089844 C 113.292969 186.628906 113.414062 186.15625 113.699219 185.789062 L 116.273438 182.5 C 116.414062 182.316406 116.390625 182.058594 116.21875 181.886719 C 112.617188 178.324219 111.3125 174.6875 110.6875 172.9375 C 110.601562 172.699219 110.527344 172.5 110.46875 172.347656 C 110.367188 172.101562 109.917969 171.203125 108.019531 167.933594 C 105.566406 163.707031 101.027344 161.066406 96.179688 161.042969 C 96.136719 161.042969 96.09375 161.042969 96.046875 161.042969 C 91.65625 161.042969 85.945312 162.066406 83.398438 166.871094 C 76.355469 180.15625 79.898438 185.246094 83.320312 190.167969 C 85.300781 193.015625 87.347656 195.957031 87.011719 200.304688 C 85.914062 214.476562 76.730469 221.671875 71.796875 225.535156 C 70.558594 226.507812 69.480469 227.347656 69.207031 227.824219 Z M 81.773438 230.855469 C 74.949219 230.855469 69.574219 229.992188 68.335938 228.75 C 67.90625 228.320312 67.804688 227.785156 68.058594 227.289062 C 68.425781 226.566406 69.457031 225.757812 71.015625 224.535156 C 75.796875 220.792969 84.695312 213.824219 85.75 200.203125 C 86.050781 196.308594 84.21875 193.679688 82.28125 190.890625 C 78.808594 185.902344 74.875 180.246094 82.28125 166.277344 C 84.535156 162.023438 89.292969 159.773438 96.042969 159.773438 C 96.089844 159.773438 96.140625 159.773438 96.1875 159.773438 C 101.480469 159.800781 106.4375 162.683594 109.117188 167.296875 C 111.339844 171.132812 111.566406 171.6875 111.640625 171.871094 C 111.707031 172.035156 111.785156 172.25 111.878906 172.511719 C 112.472656 174.171875 113.714844 177.625 117.109375 180.984375 C 117.738281 181.605469 117.804688 182.59375 117.269531 183.277344 L 114.699219 186.570312 C 114.628906 186.65625 114.601562 186.761719 114.621094 186.871094 C 114.6875 187.261719 114.824219 187.902344 114.980469 188.648438 C 115.917969 193.140625 116.328125 195.585938 115.972656 196.484375 C 114.910156 199.179688 109.289062 199.929688 106.925781 200.125 C 106.808594 200.132812 106.707031 200.199219 106.65625 200.292969 C 105.0625 203.171875 104.046875 207.820312 103.476562 211.210938 C 102.277344 218.363281 106.5 221.316406 108.773438 222.90625 C 109.738281 223.582031 110.320312 223.988281 110.273438 224.628906 C 110.257812 224.871094 110.132812 225.210938 109.640625 225.457031 C 101.808594 229.410156 90.585938 230.855469 81.773438 230.855469 " fill-opacity="1" fill-rule="nonzero"/><path fill="#000000" d="M 104.867188 177.800781 L 110.828125 170.339844 C 113.882812 166.515625 112.816406 160.878906 108.585938 158.410156 C 107.414062 157.726562 106.035156 157.011719 104.496094 156.351562 C 89.191406 149.757812 71.65625 160.632812 71.640625 177.296875 C 71.632812 184.117188 76.191406 192.023438 85.882812 199.046875 C 85.882812 199.046875 92.691406 193.679688 92.605469 187.871094 C 92.605469 187.871094 87.664062 182.007812 94.625 179.039062 C 95.960938 178.472656 97.480469 178.515625 98.78125 179.15625 C 100.878906 180.191406 103.410156 179.625 104.867188 177.800781 " fill-opacity="1" fill-rule="nonzero"/><path fill="#000000" d="M 95.789062 191.171875 C 93.808594 191.171875 91.28125 190.328125 89.402344 186.773438 C 89.238281 186.464844 89.355469 186.082031 89.664062 185.917969 C 89.972656 185.753906 90.355469 185.871094 90.519531 186.183594 C 93.488281 191.789062 98.144531 189.457031 98.34375 189.355469 C 98.652344 189.195312 99.035156 189.3125 99.195312 189.625 C 99.359375 189.933594 99.238281 190.3125 98.929688 190.476562 C 98.902344 190.492188 97.566406 191.171875 95.789062 191.171875 " fill-opacity="1" fill-rule="nonzero"/><path fill="#000000" d="M 79.617188 161.480469 C 79.617188 161.480469 74.449219 143.601562 55.59375 146.96875 C 43.824219 149.066406 33.546875 156.976562 27.898438 169.882812 C 23.71875 179.433594 23.890625 187.886719 22.972656 197.898438 C 22.152344 206.851562 14.175781 212.832031 12.371094 221.347656 C 10.167969 231.746094 20.285156 239.242188 30.03125 237.308594 C 40.921875 235.152344 51.027344 223.769531 55.484375 214.230469 C 60.09375 204.371094 60.851562 193.421875 63.183594 182.933594 C 64.191406 178.390625 64.957031 172.113281 68.574219 168.964844 C 70.429688 167.351562 76.539062 167.171875 77.597656 165.214844 C 77.597656 165.210938 79.617188 161.480469 79.617188 161.480469 " fill-opacity="1" fill-rule="nonzero"/></svg>