<svg xmlns="http://www.w3.org/2000/svg" xmlns:xlink="http://www.w3.org/1999/xlink" width="500" zoomAndPan="magnify" viewBox="0 0 375 374.999991" height="500" preserveAspectRatio="xMidYMid meet" version="1.0"><path fill="#ffffff" d="M 92.269531 103.324219 C 128.855469 66.5 118.382812 43.421875 143.417969 26.371094 C 181.9375 0.136719 253.832031 22.707031 296.25 58.792969 C 348.199219 102.988281 375 183.679688 344.46875 256.683594 C 311.953125 334.425781 226.398438 374.78125 150.058594 362.621094 C 81.886719 351.761719 14.871094 298.03125 8.15625 233.59375 C 7.425781 226.609375 4.214844 188.851562 26.75 156.300781 C 45.375 129.390625 63.265625 132.511719 92.269531 103.324219 " fill-opacity="1" fill-rule="nonzero"/><path fill="#99b9ff" d="M 270.96875 194.023438 C 251.890625 176.402344 228.625 144.796875 254.582031 132.527344 C 266.03125 127.117188 275.105469 118.972656 277.21875 105.421875 C 279.460938 91.066406 277.609375 74.902344 295.042969 72.0625 C 306.257812 70.230469 319.757812 74.25 328.949219 81.046875 C 355.945312 101.003906 364.125 145.375 349.308594 175.46875 C 337.316406 199.839844 310.980469 219.480469 285.042969 204.925781 C 281.523438 202.949219 276.417969 199.054688 270.96875 194.023438 " fill-opacity="1" fill-rule="nonzero"/><path fill="#5479f7" d="M 305.371094 264.835938 C 305.019531 264.835938 304.734375 264.554688 304.734375 264.203125 L 304.734375 150.769531 C 304.734375 150.421875 305.019531 150.136719 305.371094 150.136719 C 305.71875 150.136719 306.003906 150.421875 306.003906 150.769531 L 306.003906 264.203125 C 306.003906 264.554688 305.71875 264.835938 305.371094 264.835938 " fill-opacity="1" fill-rule="nonzero"/><path fill="#5479f7" d="M 304.816406 180.976562 C 304.605469 180.976562 304.402344 180.875 304.28125 180.683594 L 288.929688 156.328125 C 288.742188 156.03125 288.832031 155.636719 289.128906 155.453125 C 289.425781 155.265625 289.8125 155.355469 290 155.648438 L 305.351562 180.007812 C 305.539062 180.304688 305.449219 180.695312 305.15625 180.878906 C 305.050781 180.945312 304.929688 180.976562 304.816406 180.976562 " fill-opacity="1" fill-rule="nonzero"/><path fill="#5479f7" d="M 322.167969 138.875 C 322.066406 138.875 321.960938 138.851562 321.867188 138.800781 C 321.558594 138.632812 321.445312 138.25 321.609375 137.941406 L 332.957031 117.0625 C 333.125 116.757812 333.511719 116.644531 333.816406 116.808594 C 334.125 116.976562 334.238281 117.359375 334.074219 117.667969 L 322.722656 138.546875 C 322.609375 138.757812 322.390625 138.875 322.167969 138.875 " fill-opacity="1" fill-rule="nonzero"/><path fill="#5479f7" d="M 328.175781 172.105469 C 327.988281 172.105469 327.800781 172.019531 327.675781 171.863281 C 327.460938 171.585938 327.507812 171.1875 327.789062 170.972656 L 339.46875 161.925781 C 339.746094 161.710938 340.140625 161.761719 340.355469 162.039062 C 340.570312 162.316406 340.523438 162.710938 340.246094 162.925781 L 328.5625 171.972656 C 328.445312 172.0625 328.308594 172.105469 328.175781 172.105469 " fill-opacity="1" fill-rule="nonzero"/><path fill="#99b9ff" d="M 95.066406 200.605469 C 104.105469 191.234375 112.914062 161.875 98.402344 142.109375 C 87.332031 127.035156 88.535156 122.679688 86.535156 109.558594 C 84.53125 96.441406 79.722656 75.246094 65.707031 70.328125 C 51.691406 65.40625 42.558594 91.851562 36.550781 118.089844 C 30.542969 144.332031 14.796875 155.617188 26.988281 183.929688 C 35.503906 203.714844 66.585938 230.125 95.066406 200.605469 " fill-opacity="1" fill-rule="nonzero"/><path fill="#5479f7" d="M 61.492188 262.394531 C 61.144531 262.394531 60.863281 262.113281 60.859375 261.769531 L 58.902344 118.882812 C 58.898438 118.535156 59.175781 118.246094 59.527344 118.242188 C 59.527344 118.242188 59.53125 118.242188 59.535156 118.242188 C 59.878906 118.242188 60.164062 118.519531 60.167969 118.863281 L 62.125 261.75 C 62.128906 262.101562 61.851562 262.386719 61.5 262.394531 C 61.496094 262.394531 61.496094 262.394531 61.492188 262.394531 " fill-opacity="1" fill-rule="nonzero"/><path fill="#99b9ff" d="M 14.207031 259.570312 C 33.285156 312.328125 91.269531 353.476562 150.121094 362.851562 C 225.589844 374.875 310.050781 335.542969 343.390625 259.570312 L 14.207031 259.570312 " fill-opacity="1" fill-rule="nonzero"/><path fill="#ffffff" d="M 157.339844 76.089844 C 157.339844 66.132812 165.410156 58.0625 175.367188 58.0625 C 185.324219 58.0625 193.394531 66.132812 193.394531 76.089844 C 193.394531 86.046875 185.324219 94.113281 175.367188 94.113281 C 165.410156 94.113281 157.339844 86.046875 157.339844 76.089844 " fill-opacity="1" fill-rule="nonzero"/><path fill="#000000" d="M 175.371094 58.691406 C 165.777344 58.691406 157.976562 66.496094 157.976562 76.085938 C 157.976562 85.675781 165.777344 93.480469 175.371094 93.480469 C 184.960938 93.480469 192.761719 85.675781 192.761719 76.085938 C 192.761719 66.496094 184.960938 58.691406 175.371094 58.691406 Z M 175.371094 94.746094 C 165.082031 94.746094 156.710938 86.375 156.710938 76.085938 C 156.710938 65.796875 165.082031 57.425781 175.371094 57.425781 C 185.65625 57.425781 194.03125 65.796875 194.03125 76.085938 C 194.03125 86.375 185.65625 94.746094 175.371094 94.746094 " fill-opacity="1" fill-rule="nonzero"/><path fill="#5479f7" d="M 175.46875 85.15625 C 175.292969 85.265625 175.066406 85.269531 174.882812 85.167969 C 173.292969 84.28125 165.921875 79.839844 166.214844 74.03125 C 166.519531 67.894531 173.179688 68.957031 174.824219 71.980469 C 174.886719 72.09375 175.007812 72.164062 175.140625 72.15625 C 175.273438 72.148438 175.382812 72.066406 175.433594 71.949219 C 176.242188 70.007812 178.847656 68.601562 181.304688 69.523438 C 184.230469 70.621094 187.203125 77.882812 175.46875 85.15625 " fill-opacity="1" fill-rule="nonzero"/><path fill="#ffffff" d="M 153.476562 334.410156 L 153.476562 347.585938 L 147.144531 347.203125 L 145.898438 334.410156 L 153.476562 334.410156 " fill-opacity="1" fill-rule="nonzero"/><path fill="#000000" d="M 147.722656 346.605469 L 152.84375 346.914062 L 152.84375 335.042969 L 146.597656 335.042969 Z M 153.476562 348.222656 C 153.464844 348.222656 153.453125 348.222656 153.4375 348.21875 L 147.105469 347.835938 C 146.796875 347.816406 146.546875 347.574219 146.515625 347.261719 L 145.265625 334.472656 C 145.25 334.292969 145.308594 334.117188 145.429688 333.988281 C 145.550781 333.851562 145.71875 333.777344 145.898438 333.777344 L 153.476562 333.777344 C 153.824219 333.777344 154.109375 334.0625 154.109375 334.410156 L 154.109375 347.585938 C 154.109375 347.765625 154.039062 347.929688 153.910156 348.050781 C 153.792969 348.160156 153.636719 348.222656 153.476562 348.222656 " fill-opacity="1" fill-rule="nonzero"/><path fill="#5479f7" d="M 146.195312 364.019531 C 148.773438 364.296875 155.886719 364.511719 157.910156 363.628906 C 159.695312 362.851562 161.265625 359.195312 160.363281 357.828125 C 158.105469 354.410156 156.578125 348.484375 155.25 343.851562 C 155.175781 343.589844 154.828125 343.535156 154.675781 343.765625 L 153.324219 345.804688 L 152.335938 343.410156 C 152.175781 343.140625 151.898438 342.964844 151.589844 342.9375 L 149.367188 342.894531 C 148.859375 342.847656 148.3125 343.339844 148.011719 343.804688 L 146.410156 345.804688 L 145.519531 344.171875 C 145.371094 343.898438 144.957031 343.976562 144.921875 344.289062 L 143.058594 359.652344 C 143.003906 362.121094 144.695312 363.859375 146.195312 364.019531 " fill-opacity="1" fill-rule="nonzero"/><path fill="#000000" d="M 143.691406 359.695312 C 143.660156 361.894531 145.1875 363.277344 146.261719 363.390625 C 149.183594 363.703125 155.894531 363.816406 157.65625 363.046875 C 158.476562 362.691406 159.398438 361.390625 159.804688 360.027344 C 160.042969 359.21875 160.054688 358.511719 159.832031 358.175781 C 157.753906 355.027344 156.320312 349.949219 155.050781 345.472656 C 154.976562 345.207031 154.902344 344.941406 154.828125 344.679688 L 153.851562 346.15625 C 153.722656 346.351562 153.496094 346.460938 153.261719 346.4375 C 153.027344 346.414062 152.828125 346.261719 152.738281 346.046875 L 151.773438 343.703125 C 151.71875 343.632812 151.636719 343.582031 151.546875 343.570312 L 149.355469 343.527344 C 149.339844 343.527344 149.324219 343.527344 149.308594 343.523438 C 149.175781 343.515625 148.804688 343.746094 148.539062 344.152344 C 148.527344 344.167969 148.515625 344.183594 148.503906 344.199219 L 146.902344 346.203125 C 146.773438 346.367188 146.5625 346.457031 146.355469 346.4375 C 146.140625 346.417969 145.957031 346.292969 145.855469 346.109375 L 145.429688 345.332031 Z M 151.722656 364.898438 C 149.484375 364.898438 147.292969 364.773438 146.125 364.652344 C 144.292969 364.453125 142.367188 362.394531 142.425781 359.636719 C 142.425781 359.617188 142.429688 359.597656 142.429688 359.574219 L 144.292969 344.210938 C 144.34375 343.796875 144.648438 343.46875 145.0625 343.390625 C 145.46875 343.3125 145.878906 343.503906 146.078125 343.871094 L 146.511719 344.664062 L 147.496094 343.433594 C 147.886719 342.847656 148.609375 342.207031 149.402344 342.261719 L 151.601562 342.304688 C 151.617188 342.304688 151.632812 342.304688 151.648438 342.308594 C 152.15625 342.355469 152.617188 342.644531 152.878906 343.085938 C 152.894531 343.109375 152.910156 343.140625 152.921875 343.167969 L 153.453125 344.460938 L 154.148438 343.414062 C 154.355469 343.101562 154.710938 342.9375 155.089844 343 C 155.460938 343.054688 155.753906 343.316406 155.859375 343.675781 C 155.996094 344.148438 156.132812 344.632812 156.269531 345.128906 C 157.511719 349.515625 158.917969 354.492188 160.890625 357.480469 C 161.332031 358.148438 161.375 359.179688 161.019531 360.386719 C 160.597656 361.8125 159.523438 363.613281 158.164062 364.210938 C 156.960938 364.734375 154.308594 364.898438 151.722656 364.898438 " fill-opacity="1" fill-rule="nonzero"/><path fill="#000000" d="M 151.476562 361.957031 C 148.042969 361.957031 145.679688 361.1875 145.535156 361.140625 C 145.203125 361.03125 145.023438 360.671875 145.132812 360.339844 C 145.246094 360.007812 145.601562 359.828125 145.933594 359.9375 C 145.984375 359.957031 150.945312 361.550781 156.828125 360.003906 C 157.164062 359.914062 157.511719 360.117188 157.597656 360.457031 C 157.6875 360.792969 157.484375 361.140625 157.148438 361.230469 C 155.089844 361.773438 153.152344 361.957031 151.476562 361.957031 " fill-opacity="1" fill-rule="nonzero"/><path fill="#000000" d="M 154.492188 355.050781 L 148.710938 355.050781 C 148.363281 355.050781 148.078125 354.769531 148.078125 354.421875 C 148.078125 354.070312 148.363281 353.785156 148.710938 353.785156 L 154.492188 353.785156 C 154.839844 353.785156 155.125 354.070312 155.125 354.421875 C 155.125 354.769531 154.839844 355.050781 154.492188 355.050781 " fill-opacity="1" fill-rule="nonzero"/><path fill="#ffffff" d="M 106.894531 327.4375 L 105.023438 343.328125 L 99.089844 343.121094 L 99.089844 327.4375 L 106.894531 327.4375 " fill-opacity="1" fill-rule="nonzero"/><path fill="#000000" d="M 99.722656 342.507812 L 104.464844 342.671875 L 106.183594 328.070312 L 99.722656 328.070312 Z M 105.023438 343.957031 C 105.015625 343.957031 105.007812 343.957031 105 343.957031 L 99.066406 343.753906 C 98.726562 343.742188 98.457031 343.460938 98.457031 343.121094 L 98.457031 327.4375 C 98.457031 327.089844 98.738281 326.804688 99.089844 326.804688 L 106.894531 326.804688 C 107.078125 326.804688 107.25 326.882812 107.367188 327.019531 C 107.488281 327.152344 107.546875 327.332031 107.523438 327.511719 L 105.652344 343.402344 C 105.613281 343.71875 105.34375 343.957031 105.023438 343.957031 " fill-opacity="1" fill-rule="nonzero"/><path fill="#5479f7" d="M 106.964844 339.546875 C 106.964844 339.546875 107.199219 346.589844 106.964844 349.429688 C 106.796875 351.460938 104.011719 357.59375 102.441406 360.921875 C 101.796875 362.289062 100.457031 363.34375 99.121094 363.648438 C 96.613281 364.222656 95.402344 364.191406 93.089844 363.8125 C 89.980469 363.308594 89.015625 360.460938 89.933594 357.734375 C 90.777344 355.21875 92.1875 352.449219 94.511719 349.046875 C 96.199219 346.578125 97.738281 339.273438 97.738281 339.273438 L 102.574219 339.273438 L 103.941406 343.324219 L 106.964844 339.546875 " fill-opacity="1" fill-rule="nonzero"/><path fill="#000000" d="M 98.25 339.90625 C 97.863281 341.628906 96.527344 347.21875 95.035156 349.40625 C 92.839844 352.613281 91.410156 355.324219 90.53125 357.933594 C 90.070312 359.308594 90.144531 360.664062 90.742188 361.652344 C 91.238281 362.476562 92.085938 363.011719 93.195312 363.1875 C 95.425781 363.554688 96.578125 363.582031 98.980469 363.03125 C 100.164062 362.761719 101.324219 361.804688 101.871094 360.648438 C 104.589844 354.886719 106.214844 350.777344 106.332031 349.378906 C 106.492188 347.46875 106.433594 343.554688 106.378906 341.292969 L 104.4375 343.71875 C 104.292969 343.902344 104.058594 343.988281 103.832031 343.949219 C 103.601562 343.910156 103.417969 343.746094 103.34375 343.527344 L 102.121094 339.90625 Z M 95.839844 364.722656 C 94.960938 364.722656 94.089844 364.621094 92.988281 364.4375 C 91.503906 364.199219 90.351562 363.460938 89.65625 362.304688 C 88.867188 361 88.75 359.257812 89.332031 357.53125 C 90.246094 354.808594 91.726562 352 93.988281 348.6875 C 95.585938 346.351562 97.105469 339.214844 97.117188 339.140625 C 97.179688 338.847656 97.441406 338.640625 97.738281 338.640625 L 102.574219 338.640625 C 102.847656 338.640625 103.089844 338.8125 103.175781 339.070312 L 104.171875 342.023438 L 106.46875 339.152344 C 106.636719 338.941406 106.914062 338.859375 107.164062 338.945312 C 107.414062 339.027344 107.589844 339.261719 107.597656 339.527344 C 107.609375 339.8125 107.832031 346.640625 107.59375 349.484375 C 107.429688 351.492188 105.011719 356.960938 103.015625 361.191406 C 102.300781 362.699219 100.828125 363.90625 99.265625 364.265625 C 97.875 364.582031 96.851562 364.722656 95.839844 364.722656 " fill-opacity="1" fill-rule="nonzero"/><path fill="#000000" d="M 103.976562 352.46875 Z M 103.972656 352.46875 Z M 95.085938 361.796875 C 94.214844 361.796875 93.105469 361.703125 92.226562 361.359375 C 91.902344 361.230469 91.742188 360.863281 91.867188 360.539062 C 91.996094 360.214844 92.363281 360.054688 92.6875 360.179688 C 93.765625 360.601562 95.480469 360.558594 96.144531 360.472656 C 97.289062 360.328125 98.347656 359.777344 99.125 358.929688 C 99.789062 358.207031 100.273438 357.546875 100.5625 356.960938 C 101.152344 355.765625 101.761719 354.398438 102.203125 353.398438 C 102.929688 351.757812 102.996094 351.632812 103.171875 351.484375 C 103.445312 351.265625 103.84375 351.308594 104.0625 351.578125 C 104.257812 351.816406 104.25 352.152344 104.0625 352.378906 C 103.964844 352.550781 103.65625 353.242188 103.363281 353.910156 C 102.914062 354.921875 102.300781 356.304688 101.695312 357.523438 C 101.355469 358.214844 100.804688 358.976562 100.058594 359.789062 C 99.078125 360.851562 97.746094 361.542969 96.304688 361.730469 C 96.058594 361.761719 95.617188 361.796875 95.085938 361.796875 " fill-opacity="1" fill-rule="nonzero"/><path fill="#000000" d="M 99.367188 355.25 L 94.074219 355.25 C 93.722656 355.25 93.4375 354.964844 93.4375 354.617188 C 93.4375 354.265625 93.722656 353.984375 94.074219 353.984375 L 99.367188 353.984375 C 99.714844 353.984375 100 354.265625 100 354.617188 C 100 354.964844 99.714844 355.25 99.367188 355.25 " fill-opacity="1" fill-rule="nonzero"/><path fill="#5479f7" d="M 163.648438 202.664062 C 163.648438 202.664062 163.019531 251.15625 160.984375 282.722656 C 159.234375 309.867188 156.019531 331.519531 155.15625 337.050781 C 155.023438 337.890625 154.359375 338.546875 153.519531 338.660156 C 151.863281 338.878906 149.003906 339.109375 146.25 338.589844 C 145.488281 338.445312 144.878906 337.871094 144.710938 337.109375 C 143.511719 331.683594 138.613281 308.980469 138.613281 300.308594 C 138.613281 290.910156 140.300781 288.554688 140.488281 280.890625 C 140.632812 275.160156 138.714844 254.761719 137.738281 244.867188 C 137.613281 243.566406 135.808594 243.351562 135.378906 244.585938 C 132.257812 253.554688 125.609375 272.9375 119.386719 292.832031 C 119.066406 293.855469 117.488281 302.546875 117.175781 303.554688 C 113.320312 315.980469 109.691406 325.949219 108.359375 331.789062 C 108.144531 332.734375 107.375 333.460938 106.417969 333.613281 C 104.574219 333.914062 101.472656 334.179688 98.722656 333.3125 C 97.734375 333 97.078125 332.0625 97.085938 331.023438 C 97.140625 324.59375 97.375 300.699219 97.921875 296.683594 C 99.089844 288.074219 105.804688 279.601562 107.007812 270.460938 C 108.214844 261.316406 108.914062 238.371094 112.234375 224.609375 C 115.558594 210.847656 122.074219 195.386719 122.074219 195.386719 L 163.648438 202.664062 " fill-opacity="1" fill-rule="nonzero"/><path fill="#000000" d="M 136.515625 243.132812 C 136.589844 243.132812 136.667969 243.136719 136.746094 243.148438 C 137.628906 243.253906 138.28125 243.917969 138.371094 244.804688 C 139.457031 255.863281 141.261719 275.257812 141.121094 280.910156 C 141.035156 284.433594 140.644531 286.800781 140.230469 289.308594 C 139.746094 292.21875 139.25 295.230469 139.25 300.308594 C 139.25 309.007812 144.316406 332.375 145.328125 336.972656 C 145.441406 337.476562 145.847656 337.871094 146.367188 337.96875 C 149.09375 338.480469 151.964844 338.226562 153.433594 338.03125 C 153.992188 337.957031 154.441406 337.511719 154.527344 336.953125 C 155.457031 331.03125 158.617188 309.613281 160.351562 282.679688 C 162.25 253.269531 162.933594 208.605469 163.011719 203.195312 L 122.464844 196.09375 C 121.359375 198.773438 115.804688 212.527344 112.851562 224.757812 C 110.605469 234.0625 109.574219 247.460938 108.746094 258.226562 C 108.359375 263.253906 108.027344 267.597656 107.636719 270.542969 C 107.011719 275.289062 104.929688 279.855469 102.921875 284.269531 C 100.960938 288.570312 99.109375 292.636719 98.546875 296.769531 C 98.011719 300.707031 97.777344 323.988281 97.71875 331.03125 C 97.710938 331.796875 98.203125 332.484375 98.914062 332.707031 C 101.605469 333.5625 104.707031 333.25 106.316406 332.988281 C 107.023438 332.871094 107.582031 332.347656 107.742188 331.648438 C 108.574219 328.003906 110.253906 322.878906 112.382812 316.390625 C 113.65625 312.503906 115.101562 308.09375 116.570312 303.367188 C 116.714844 302.902344 117.207031 300.375 117.644531 298.144531 C 118.226562 295.152344 118.621094 293.15625 118.78125 292.644531 C 124.925781 273.007812 131.441406 253.972656 134.78125 244.378906 C 135.046875 243.613281 135.726562 243.132812 136.515625 243.132812 Z M 149.90625 339.539062 C 148.699219 339.539062 147.410156 339.453125 146.132812 339.210938 C 145.113281 339.019531 144.316406 338.246094 144.09375 337.246094 C 142.660156 330.757812 137.980469 308.917969 137.980469 300.308594 C 137.980469 295.125 138.488281 292.066406 138.980469 289.101562 C 139.386719 286.636719 139.773438 284.3125 139.855469 280.878906 C 140 275.085938 137.984375 253.808594 137.109375 244.929688 C 137.066406 244.496094 136.707031 244.417969 136.597656 244.40625 C 136.488281 244.394531 136.121094 244.382812 135.980469 244.792969 C 132.640625 254.386719 126.128906 273.402344 119.992188 293.023438 C 119.839844 293.503906 119.332031 296.097656 118.886719 298.386719 C 118.300781 301.386719 117.933594 303.246094 117.78125 303.742188 C 116.308594 308.476562 114.863281 312.890625 113.585938 316.785156 C 111.464844 323.242188 109.792969 328.34375 108.976562 331.929688 C 108.703125 333.132812 107.738281 334.042969 106.519531 334.238281 C 104.417969 334.578125 101.324219 334.796875 98.53125 333.917969 C 97.296875 333.527344 96.441406 332.335938 96.453125 331.019531 C 96.511719 323.960938 96.75 300.609375 97.292969 296.597656 C 97.878906 292.28125 99.855469 287.941406 101.769531 283.742188 C 103.738281 279.414062 105.78125 274.9375 106.382812 270.378906 C 106.765625 267.464844 107.097656 263.140625 107.484375 258.132812 C 108.316406 247.320312 109.351562 233.863281 111.621094 224.460938 C 114.914062 210.804688 121.425781 195.292969 121.488281 195.136719 C 121.605469 194.867188 121.890625 194.707031 122.183594 194.761719 L 163.757812 202.042969 C 164.066406 202.09375 164.289062 202.363281 164.285156 202.671875 C 164.277344 203.160156 163.628906 251.539062 161.617188 282.761719 C 159.878906 309.75 156.710938 331.210938 155.78125 337.148438 C 155.605469 338.257812 154.710938 339.136719 153.601562 339.285156 C 152.589844 339.421875 151.304688 339.539062 149.90625 339.539062 " fill-opacity="1" fill-rule="nonzero"/><path fill="#000000" d="M 141.578125 108.769531 C 145.351562 107.46875 150.433594 109.996094 151.132812 115.875 C 151.703125 120.679688 147.054688 123.082031 145.265625 126.054688 C 139.492188 135.679688 143.8125 160.496094 134.082031 170.101562 C 126.316406 177.769531 109.480469 180.570312 97.890625 171.570312 C 86.867188 163.015625 81.757812 147.917969 89.503906 138.625 C 96.46875 130.273438 103.859375 136.964844 111.453125 128.917969 C 118.945312 120.984375 115.367188 115.425781 120.296875 111.757812 C 127.039062 106.738281 130.890625 112.457031 141.578125 108.769531 " fill-opacity="1" fill-rule="nonzero"/><path fill="#ffffff" d="M 201.269531 102.648438 L 198.8125 109.320312 C 198.011719 111.386719 198.242188 113.710938 199.4375 115.574219 L 201.640625 119.097656 C 202.003906 119.679688 202.078125 120.371094 202.054688 121.058594 C 202.007812 122.597656 201.65625 124.933594 201.65625 124.933594 L 207.304688 125.308594 C 207.304688 125.308594 206.835938 122.296875 206.601562 121.261719 C 206.300781 119.933594 206.363281 118.503906 206.996094 117.296875 C 209.011719 113.460938 208.679688 109.496094 208.679688 109.496094 L 204.753906 110.332031 C 204.753906 110.332031 203.660156 108.238281 204.066406 104.691406 C 204.164062 103.820312 204.105469 103.152344 203.957031 102.640625 C 203.566406 101.316406 201.679688 101.332031 201.269531 102.648438 " fill-opacity="1" fill-rule="nonzero"/><path fill="#000000" d="M 201.269531 102.652344 L 201.273438 102.652344 Z M 202.378906 124.347656 L 206.550781 124.628906 C 206.398438 123.667969 206.132812 122.085938 205.980469 121.402344 C 205.621094 119.808594 205.78125 118.246094 206.433594 117.003906 C 207.839844 114.332031 208.046875 111.558594 208.0625 110.277344 L 204.886719 110.957031 C 204.605469 111.015625 204.324219 110.882812 204.191406 110.628906 C 204.144531 110.539062 203.011719 108.316406 203.433594 104.621094 C 203.515625 103.90625 203.488281 103.300781 203.347656 102.820312 C 203.207031 102.332031 202.769531 102.292969 202.636719 102.289062 C 202.632812 102.289062 202.628906 102.289062 202.628906 102.289062 C 202.34375 102.289062 202 102.433594 201.871094 102.839844 C 201.867188 102.851562 201.863281 102.859375 201.863281 102.871094 L 199.402344 109.539062 C 198.675781 111.421875 198.886719 113.546875 199.972656 115.234375 L 202.175781 118.765625 C 202.671875 119.5625 202.707031 120.46875 202.6875 121.078125 C 202.65625 122.136719 202.488281 123.53125 202.378906 124.347656 Z M 207.304688 125.945312 C 207.289062 125.945312 207.273438 125.945312 207.261719 125.945312 L 201.617188 125.566406 C 201.4375 125.554688 201.273438 125.46875 201.164062 125.332031 C 201.050781 125.195312 201.003906 125.015625 201.03125 124.839844 C 201.035156 124.820312 201.375 122.523438 201.421875 121.039062 C 201.441406 120.332031 201.339844 119.820312 201.101562 119.4375 L 198.902344 115.914062 C 197.605469 113.890625 197.347656 111.339844 198.222656 109.09375 L 200.667969 102.445312 C 200.941406 101.59375 201.726562 101.023438 202.628906 101.023438 C 202.632812 101.023438 202.640625 101.023438 202.648438 101.023438 C 203.554688 101.03125 204.308594 101.597656 204.5625 102.464844 C 204.75 103.109375 204.792969 103.878906 204.691406 104.765625 C 204.417969 107.152344 204.867188 108.851562 205.136719 109.605469 L 208.542969 108.878906 C 208.722656 108.839844 208.910156 108.882812 209.054688 108.988281 C 209.199219 109.097656 209.292969 109.265625 209.304688 109.445312 C 209.324219 109.613281 209.632812 113.640625 207.554688 117.59375 C 207.042969 118.570312 206.921875 119.820312 207.21875 121.125 C 207.453125 122.171875 207.910156 125.089844 207.929688 125.214844 C 207.957031 125.402344 207.898438 125.597656 207.769531 125.738281 C 207.648438 125.871094 207.480469 125.945312 207.304688 125.945312 " fill-opacity="1" fill-rule="nonzero"/><path fill="#99b9ff" d="M 160.589844 143.992188 C 165.496094 144.785156 180.917969 151.691406 190.039062 143.222656 C 199.15625 134.757812 200.183594 122.945312 200.183594 122.945312 L 208.703125 122.640625 C 208.703125 122.640625 213.84375 136.816406 206.96875 152.6875 C 199.949219 168.890625 169.859375 173.195312 169.859375 173.195312 L 160.589844 143.992188 " fill-opacity="1" fill-rule="nonzero"/><path fill="#000000" d="M 161.519531 144.832031 L 170.296875 172.484375 C 174.324219 171.8125 200.097656 166.960938 206.386719 152.4375 C 212.421875 138.5 209.019531 125.769531 208.25 123.289062 L 200.75 123.558594 C 200.425781 126.042969 198.640625 136.101562 190.46875 143.6875 C 182.796875 150.808594 171.144531 147.519531 164.179688 145.554688 C 163.183594 145.269531 162.277344 145.015625 161.519531 144.832031 Z M 169.855469 173.828125 C 169.585938 173.828125 169.339844 173.652344 169.253906 173.386719 L 159.984375 144.183594 C 159.917969 143.972656 159.96875 143.746094 160.109375 143.578125 C 160.253906 143.410156 160.476562 143.332031 160.691406 143.367188 C 161.648438 143.519531 162.980469 143.898438 164.523438 144.335938 C 171.234375 146.226562 182.457031 149.398438 189.609375 142.761719 C 198.433594 134.566406 199.542969 123.003906 199.554688 122.886719 C 199.582031 122.570312 199.839844 122.324219 200.160156 122.3125 L 208.683594 122.003906 C 208.964844 121.992188 209.207031 122.164062 209.300781 122.425781 C 209.351562 122.566406 214.445312 137.019531 207.546875 152.941406 C 200.472656 169.28125 171.191406 173.644531 169.949219 173.820312 C 169.917969 173.824219 169.886719 173.828125 169.855469 173.828125 " fill-opacity="1" fill-rule="nonzero"/><path fill="#99b9ff" d="M 171.765625 147.675781 C 162.015625 141.117188 139.195312 142.105469 130.035156 145.746094 C 113.792969 152.207031 106.570312 208.082031 111.019531 220.78125 C 115.082031 232.378906 154.4375 236.785156 165.882812 227.613281 C 170.757812 223.707031 170.457031 198.921875 170.132812 189.003906 C 170.03125 185.992188 170.058594 182.976562 170.203125 179.964844 L 171.765625 147.675781 " fill-opacity="1" fill-rule="nonzero"/><path fill="#000000" d="M 149.378906 143.535156 C 141.917969 143.535156 134.632812 144.601562 130.269531 146.335938 C 123.417969 149.0625 117.265625 161.714844 113.386719 181.050781 C 110.199219 196.949219 109.421875 214.308594 111.617188 220.570312 C 112.828125 224.027344 117.628906 227.117188 125.136719 229.269531 C 138.257812 233.03125 158.054688 233.070312 165.488281 227.117188 C 168.695312 224.550781 170.195312 210.308594 169.5 189.027344 C 169.398438 186.023438 169.421875 182.960938 169.570312 179.933594 L 171.117188 148.007812 C 166.164062 144.847656 157.664062 143.535156 149.378906 143.535156 Z M 144.960938 233.179688 C 138.066406 233.179688 130.824219 232.214844 124.789062 230.484375 C 116.875 228.21875 111.773438 224.84375 110.421875 220.988281 C 108.125 214.4375 108.867188 197.160156 112.144531 180.800781 C 114.019531 171.449219 119.492188 149.257812 129.800781 145.160156 C 139.570312 141.273438 162.414062 140.621094 172.121094 147.152344 C 172.304688 147.277344 172.410156 147.488281 172.398438 147.707031 L 170.835938 179.996094 C 170.691406 182.992188 170.664062 186.015625 170.761719 188.984375 C 171.1875 201.914062 171.167969 224.191406 166.277344 228.109375 C 161.886719 231.625 153.710938 233.179688 144.960938 233.179688 " fill-opacity="1" fill-rule="nonzero"/><path fill="#ffffff" d="M 138.308594 127.878906 C 138.65625 127.910156 138.945312 127.632812 138.925781 127.285156 C 138.832031 125.628906 138.460938 122.515625 140.105469 121.207031 C 142.214844 119.535156 145.710938 117.003906 146.929688 118.722656 C 148 120.226562 149.003906 123.226562 151.707031 124.457031 C 151.96875 124.578125 151.976562 124.957031 151.84375 125.210938 L 151.191406 126.648438 C 151.046875 126.929688 151.128906 127.609375 151.238281 127.910156 C 151.570312 128.84375 152.363281 130.796875 152.171875 131.183594 C 151.796875 131.949219 148.710938 133.1875 148.710938 133.1875 L 150.238281 142.601562 C 150.292969 142.957031 150.5 143.554688 150.851562 143.488281 L 154.519531 143.945312 C 154.519531 143.945312 154.035156 148.980469 146.144531 149.976562 C 135.828125 151.285156 134.6875 146.867188 134.6875 146.867188 C 134.6875 146.867188 144.828125 144.703125 141.027344 133.585938 C 140.945312 133.34375 140.734375 133.160156 140.484375 133.109375 C 139.519531 132.914062 136.855469 132.25 136.433594 130.492188 C 135.984375 128.628906 137.128906 127.769531 138.308594 127.878906 " fill-opacity="1" fill-rule="nonzero"/><path fill="#000000" d="M 138.371094 127.246094 L 138.375 127.246094 Z M 135.617188 147.257812 C 136.375 148.277344 138.820312 150.265625 146.0625 149.347656 C 151.746094 148.632812 153.320312 145.75 153.742188 144.484375 L 150.847656 144.125 C 150.640625 144.132812 150.441406 144.074219 150.265625 143.953125 C 149.808594 143.632812 149.65625 142.972656 149.613281 142.699219 L 148.089844 133.289062 C 148.042969 132.996094 148.203125 132.710938 148.480469 132.601562 C 149.875 132.039062 151.261719 131.292969 151.566406 130.953125 C 151.53125 130.515625 151.042969 129.203125 150.824219 128.625 C 150.757812 128.441406 150.691406 128.273438 150.640625 128.125 C 150.523438 127.796875 150.355469 126.890625 150.628906 126.355469 L 151.265625 124.949219 C 149.171875 123.914062 148.082031 121.964844 147.199219 120.394531 C 146.921875 119.902344 146.664062 119.4375 146.414062 119.085938 C 146.292969 118.914062 146.140625 118.824219 145.917969 118.792969 C 144.933594 118.648438 143.109375 119.632812 140.5 121.703125 C 139.257812 122.691406 139.425781 125.25 139.527344 126.78125 C 139.539062 126.945312 139.550781 127.101562 139.558594 127.246094 C 139.578125 127.597656 139.445312 127.9375 139.195312 128.179688 C 138.941406 128.421875 138.601562 128.542969 138.25 128.507812 C 137.835938 128.46875 137.464844 128.597656 137.238281 128.859375 C 136.957031 129.183594 136.894531 129.695312 137.046875 130.34375 C 137.382812 131.726562 139.859375 132.335938 140.609375 132.488281 C 141.082031 132.585938 141.46875 132.925781 141.628906 133.382812 C 142.890625 137.082031 142.804688 140.238281 141.371094 142.769531 C 139.78125 145.574219 136.984375 146.804688 135.617188 147.257812 Z M 142.613281 150.851562 C 135.15625 150.851562 134.121094 147.199219 134.074219 147.023438 C 134.03125 146.855469 134.058594 146.679688 134.152344 146.53125 C 134.242188 146.386719 134.386719 146.28125 134.558594 146.246094 C 134.59375 146.238281 138.449219 145.371094 140.277344 142.136719 C 141.519531 139.933594 141.570312 137.125 140.429688 133.792969 C 140.417969 133.761719 140.390625 133.734375 140.355469 133.730469 C 138.867188 133.425781 136.296875 132.621094 135.820312 130.640625 C 135.566406 129.59375 135.730469 128.667969 136.277344 128.03125 C 136.761719 127.476562 137.492188 127.191406 138.289062 127.238281 C 138.28125 127.121094 138.273438 126.996094 138.265625 126.863281 C 138.140625 124.972656 137.949219 122.113281 139.714844 120.710938 C 142.726562 118.320312 144.695312 117.34375 146.097656 117.539062 C 146.65625 117.617188 147.125 117.902344 147.445312 118.355469 C 147.734375 118.761719 148.011719 119.253906 148.300781 119.773438 C 149.121094 121.230469 150.132812 123.042969 151.972656 123.882812 C 152.21875 123.992188 152.40625 124.199219 152.496094 124.46875 C 152.609375 124.789062 152.574219 125.179688 152.40625 125.503906 L 151.769531 126.910156 C 151.722656 127.039062 151.753906 127.480469 151.832031 127.695312 C 151.882812 127.839844 151.945312 128.003906 152.011719 128.179688 C 152.757812 130.179688 152.976562 130.972656 152.738281 131.464844 C 152.363281 132.230469 150.546875 133.101562 149.417969 133.582031 L 150.863281 142.496094 C 150.886719 142.640625 150.929688 142.777344 150.972656 142.863281 L 154.597656 143.316406 C 154.9375 143.355469 155.179688 143.664062 155.148438 144.003906 C 155.128906 144.230469 154.523438 149.554688 146.222656 150.605469 C 144.878906 150.777344 143.679688 150.851562 142.613281 150.851562 " fill-opacity="1" fill-rule="nonzero"/><path fill="#ffffff" d="M 224.917969 333.796875 L 226.417969 344.472656 L 233.695312 345.070312 L 233.25 332.363281 L 224.917969 333.796875 " fill-opacity="1" fill-rule="nonzero"/><path fill="#000000" d="M 226.976562 343.882812 L 233.039062 344.382812 L 232.644531 333.109375 L 225.632812 334.316406 Z M 233.695312 345.703125 C 233.679688 345.703125 233.660156 345.703125 233.644531 345.703125 L 226.367188 345.105469 C 226.074219 345.082031 225.832031 344.855469 225.792969 344.5625 L 224.292969 333.886719 C 224.246094 333.546875 224.472656 333.230469 224.8125 333.171875 L 233.144531 331.738281 C 233.320312 331.707031 233.507812 331.753906 233.648438 331.871094 C 233.792969 331.988281 233.878906 332.160156 233.882812 332.339844 L 234.328125 345.050781 C 234.335938 345.230469 234.265625 345.40625 234.132812 345.527344 C 234.015625 345.640625 233.859375 345.703125 233.695312 345.703125 " fill-opacity="1" fill-rule="nonzero"/><path fill="#5479f7" d="M 234.011719 364.144531 C 230.980469 364.484375 226.019531 364.722656 220.230469 363.757812 C 218.328125 363.441406 217.109375 361.5625 217.621094 359.707031 C 219.046875 354.539062 221.527344 344.722656 225.441406 340.25 L 226.3125 342.757812 L 227.675781 340.457031 C 227.863281 340.140625 228.1875 339.933594 228.554688 339.898438 L 230.585938 339.804688 C 231.179688 339.746094 231.722656 340.15625 231.828125 340.746094 L 232.222656 342.910156 L 234.503906 339.933594 L 235.09375 348.292969 C 235.28125 350.953125 235.609375 353.597656 236.078125 356.21875 L 236.859375 360.59375 C 237.042969 362.355469 235.773438 363.945312 234.011719 364.144531 " fill-opacity="1" fill-rule="nonzero"/><path fill="#000000" d="M 225.21875 341.539062 C 222.050781 345.882812 219.875 353.851562 218.539062 358.75 L 218.230469 359.875 C 218.035156 360.589844 218.144531 361.328125 218.546875 361.957031 C 218.945312 362.582031 219.597656 363.011719 220.335938 363.132812 C 226 364.074219 230.863281 363.863281 233.941406 363.515625 C 235.339844 363.359375 236.367188 362.085938 236.230469 360.675781 L 235.453125 356.332031 C 234.984375 353.691406 234.652344 351.003906 234.464844 348.335938 L 233.992188 341.644531 L 232.726562 343.296875 C 232.570312 343.496094 232.316406 343.585938 232.074219 343.527344 C 231.828125 343.46875 231.644531 343.273438 231.601562 343.023438 L 231.207031 340.859375 C 231.160156 340.59375 230.910156 340.40625 230.644531 340.4375 L 228.582031 340.53125 C 228.453125 340.542969 228.304688 340.636719 228.222656 340.777344 L 226.859375 343.082031 C 226.730469 343.292969 226.496094 343.410156 226.246094 343.386719 C 226.003906 343.363281 225.796875 343.195312 225.714844 342.964844 Z M 234.011719 364.144531 L 234.015625 364.144531 Z M 228.5625 365.074219 C 226.085938 365.074219 223.222656 364.898438 220.125 364.382812 C 219.039062 364.199219 218.070312 363.5625 217.480469 362.636719 C 216.890625 361.71875 216.722656 360.589844 217.011719 359.539062 L 217.320312 358.417969 C 218.777344 353.0625 221.21875 344.109375 224.964844 339.832031 C 225.113281 339.664062 225.339844 339.585938 225.5625 339.625 C 225.78125 339.671875 225.964844 339.828125 226.039062 340.042969 L 226.460938 341.261719 L 227.128906 340.132812 C 227.417969 339.648438 227.925781 339.324219 228.492188 339.269531 L 230.554688 339.175781 C 231.433594 339.082031 232.289062 339.722656 232.453125 340.632812 L 232.589844 341.390625 L 234.003906 339.546875 C 234.164062 339.339844 234.433594 339.25 234.6875 339.324219 C 234.941406 339.402344 235.117188 339.625 235.136719 339.886719 L 235.726562 348.25 C 235.910156 350.871094 236.238281 353.515625 236.703125 356.109375 L 237.480469 360.480469 C 237.484375 360.496094 237.488281 360.511719 237.488281 360.527344 C 237.707031 362.632812 236.179688 364.535156 234.082031 364.773438 C 232.605469 364.9375 230.734375 365.074219 228.5625 365.074219 " fill-opacity="1" fill-rule="nonzero"/><path fill="#000000" d="M 226.609375 361.578125 C 224.414062 361.578125 221.964844 361.367188 219.539062 360.742188 C 219.203125 360.65625 218.996094 360.308594 219.085938 359.972656 C 219.171875 359.632812 219.515625 359.429688 219.859375 359.515625 C 226.863281 361.316406 234.300781 359.457031 234.375 359.4375 C 234.714844 359.351562 235.058594 359.554688 235.144531 359.894531 C 235.230469 360.230469 235.027344 360.578125 234.6875 360.660156 C 234.476562 360.71875 231.046875 361.578125 226.609375 361.578125 " fill-opacity="1" fill-rule="nonzero"/><path fill="#000000" d="M 224.1875 353.546875 C 223.839844 353.546875 223.558594 353.261719 223.554688 352.914062 C 223.554688 352.566406 223.832031 352.28125 224.1875 352.28125 L 230.984375 352.242188 C 230.988281 352.242188 230.988281 352.242188 230.988281 352.242188 C 231.335938 352.242188 231.621094 352.523438 231.621094 352.871094 C 231.621094 353.222656 231.339844 353.507812 230.992188 353.507812 L 224.191406 353.546875 C 224.1875 353.546875 224.1875 353.546875 224.1875 353.546875 " fill-opacity="1" fill-rule="nonzero"/><path fill="#ffffff" d="M 258.664062 326.902344 L 260.296875 342.507812 L 269.015625 342.199219 L 268.875 326.546875 L 258.664062 326.902344 " fill-opacity="1" fill-rule="nonzero"/><path fill="#000000" d="M 259.363281 327.507812 L 260.863281 341.851562 L 268.378906 341.589844 L 268.246094 327.199219 Z M 260.296875 343.136719 C 259.976562 343.136719 259.703125 342.894531 259.667969 342.570312 L 258.035156 326.964844 C 258.015625 326.792969 258.070312 326.617188 258.183594 326.484375 C 258.300781 326.351562 258.46875 326.277344 258.640625 326.265625 L 268.851562 325.910156 C 269.023438 325.894531 269.1875 325.96875 269.3125 326.085938 C 269.4375 326.203125 269.507812 326.367188 269.507812 326.539062 L 269.652344 342.195312 C 269.652344 342.539062 269.382812 342.820312 269.039062 342.832031 L 260.320312 343.136719 C 260.3125 343.136719 260.304688 343.136719 260.296875 343.136719 " fill-opacity="1" fill-rule="nonzero"/><path fill="#5479f7" d="M 258.328125 351.414062 C 258.355469 352.894531 259.414062 354.160156 260.867188 354.441406 C 265.921875 355.433594 277.304688 357.636719 280.542969 358.003906 C 284.746094 358.480469 290.835938 356.789062 291.964844 354.496094 C 293.417969 351.539062 286.726562 346.382812 283.257812 344.378906 C 278.101562 341.398438 273.035156 335.332031 270.996094 335.125 C 268.953125 334.914062 265.367188 340.941406 265.367188 340.941406 L 259.070312 338.554688 C 259.070312 338.554688 258.175781 343.90625 258.328125 351.414062 " fill-opacity="1" fill-rule="nonzero"/><path fill="#000000" d="M 259.582031 339.425781 C 259.351562 341.15625 258.84375 345.664062 258.960938 351.402344 C 258.984375 352.578125 259.835938 353.59375 260.988281 353.824219 C 265.808594 354.769531 277.371094 357.007812 280.613281 357.375 C 284.699219 357.839844 290.441406 356.15625 291.394531 354.21875 C 292.476562 352.011719 287.082031 347.324219 282.9375 344.929688 C 280.3125 343.410156 277.78125 341.175781 275.554688 339.203125 C 273.683594 337.546875 271.746094 335.839844 270.925781 335.75 C 269.914062 335.652344 267.53125 338.53125 265.90625 341.265625 C 265.75 341.53125 265.425781 341.640625 265.136719 341.53125 Z M 282.0625 358.71875 C 281.511719 358.71875 280.976562 358.6875 280.472656 358.632812 C 277.183594 358.261719 265.578125 356.015625 260.742188 355.0625 C 259.015625 354.722656 257.726562 353.195312 257.691406 351.425781 C 257.542969 343.945312 258.4375 338.503906 258.445312 338.449219 C 258.476562 338.261719 258.589844 338.097656 258.753906 338.003906 C 258.917969 337.910156 259.117188 337.894531 259.296875 337.960938 L 265.097656 340.164062 C 266.117188 338.515625 268.960938 334.265625 271.058594 334.492188 C 272.226562 334.613281 273.769531 335.929688 276.394531 338.25 C 278.578125 340.1875 281.054688 342.378906 283.570312 343.832031 C 286.464844 345.507812 294.332031 351.109375 292.53125 354.777344 C 291.375 357.128906 286.230469 358.71875 282.0625 358.71875 " fill-opacity="1" fill-rule="nonzero"/><path fill="#000000" d="M 282.121094 354.859375 C 273.957031 354.859375 262.238281 351.894531 260.429688 351.421875 C 260.089844 351.335938 259.886719 350.988281 259.976562 350.648438 C 260.0625 350.3125 260.40625 350.109375 260.746094 350.195312 C 267.539062 351.964844 285.777344 355.738281 288.574219 352.046875 C 288.785156 351.769531 289.183594 351.714844 289.457031 351.925781 C 289.738281 352.136719 289.792969 352.53125 289.582031 352.8125 C 288.441406 354.316406 285.605469 354.859375 282.121094 354.859375 " fill-opacity="1" fill-rule="nonzero"/><path fill="#000000" d="M 272.554688 346.710938 C 272.386719 346.710938 272.222656 346.648438 272.097656 346.519531 C 271.851562 346.269531 271.859375 345.867188 272.109375 345.625 L 276.40625 341.46875 C 276.65625 341.226562 277.058594 341.234375 277.300781 341.484375 C 277.546875 341.738281 277.539062 342.136719 277.289062 342.378906 L 272.992188 346.535156 C 272.871094 346.652344 272.710938 346.710938 272.554688 346.710938 " fill-opacity="1" fill-rule="nonzero"/><path fill="#5479f7" d="M 219.695312 211.089844 C 219.695312 211.089844 217.6875 275.199219 216.863281 292.128906 C 216.199219 305.746094 219.738281 325.855469 221.152344 333.203125 C 221.457031 334.808594 222.925781 335.917969 224.550781 335.777344 L 232.222656 335.101562 C 233.875 334.960938 235.136719 333.574219 235.128906 331.921875 C 235.101562 325.511719 235.058594 310.003906 235.300781 299.828125 C 235.402344 295.621094 236.140625 291.453125 237.523438 287.476562 C 239.160156 282.773438 241.363281 275.558594 242.140625 268.875 C 243.4375 257.742188 248.566406 240.042969 248.566406 240.042969 C 248.566406 240.042969 255.261719 315.65625 256.738281 331.5625 C 256.867188 332.988281 258.09375 334.054688 259.527344 333.996094 C 262.355469 333.878906 266.234375 334.355469 269.128906 333.21875 C 270.011719 332.867188 270.644531 332.089844 270.796875 331.15625 C 271.824219 324.9375 276.644531 297.46875 275.265625 282.269531 C 273.699219 264.980469 272.511719 207.535156 272.511719 207.535156 L 219.695312 211.089844 " fill-opacity="1" fill-rule="nonzero"/><path fill="#000000" d="M 220.3125 211.679688 C 220.109375 218.109375 218.269531 276.273438 217.496094 292.160156 C 216.84375 305.582031 220.269531 325.25 221.769531 333.085938 C 222.019531 334.375 223.191406 335.261719 224.5 335.144531 L 232.167969 334.472656 C 233.480469 334.355469 234.503906 333.238281 234.496094 331.921875 C 234.46875 325.675781 234.425781 310.046875 234.671875 299.8125 C 234.769531 295.5 235.53125 291.277344 236.925781 287.265625 C 238.597656 282.46875 240.746094 275.371094 241.511719 268.800781 C 242.800781 257.742188 247.90625 240.046875 247.957031 239.867188 C 248.042969 239.574219 248.320312 239.378906 248.628906 239.414062 C 248.929688 239.445312 249.171875 239.683594 249.199219 239.988281 C 249.265625 240.746094 255.910156 315.78125 257.371094 331.5 C 257.46875 332.589844 258.417969 333.414062 259.5 333.363281 C 260.269531 333.332031 261.097656 333.34375 261.972656 333.355469 C 264.277344 333.382812 266.890625 333.417969 268.898438 332.625 C 269.582031 332.359375 270.058594 331.769531 270.175781 331.050781 L 270.386719 329.804688 C 271.753906 321.585938 275.933594 296.589844 274.636719 282.328125 C 273.179688 266.214844 272.035156 214.671875 271.894531 208.210938 Z M 224.269531 336.421875 C 222.453125 336.421875 220.878906 335.140625 220.527344 333.324219 C 219.015625 325.445312 215.570312 305.660156 216.234375 292.097656 C 217.042969 275.367188 219.046875 211.707031 219.066406 211.070312 C 219.078125 210.742188 219.332031 210.480469 219.65625 210.457031 L 272.46875 206.902344 C 272.640625 206.894531 272.8125 206.949219 272.941406 207.070312 C 273.066406 207.183594 273.140625 207.347656 273.144531 207.519531 C 273.15625 208.097656 274.347656 265.140625 275.898438 282.210938 C 277.210938 296.636719 273.011719 321.757812 271.632812 330.011719 L 271.429688 331.257812 C 271.238281 332.402344 270.445312 333.378906 269.363281 333.804688 C 267.125 334.6875 264.378906 334.652344 261.953125 334.621094 C 261.097656 334.609375 260.285156 334.597656 259.554688 334.628906 C 257.789062 334.695312 256.273438 333.378906 256.109375 331.621094 C 254.832031 317.851562 249.578125 258.597656 248.246094 243.570312 C 246.703125 249.238281 243.710938 260.890625 242.769531 268.949219 C 241.992188 275.632812 239.8125 282.824219 238.125 287.683594 C 236.773438 291.566406 236.035156 295.660156 235.933594 299.84375 C 235.695312 310.0625 235.734375 325.675781 235.761719 331.914062 C 235.773438 333.886719 234.246094 335.5625 232.28125 335.734375 L 224.609375 336.40625 C 224.496094 336.417969 224.382812 336.421875 224.269531 336.421875 " fill-opacity="1" fill-rule="nonzero"/><path fill="#99b9ff" d="M 210.851562 214.058594 C 210.851562 214.058594 231.300781 220.039062 249.71875 220.820312 C 260.597656 221.28125 267.886719 218.058594 267.886719 218.058594 L 257.507812 133.917969 C 257.507812 133.917969 256.941406 127.320312 245.394531 124.253906 C 239.195312 122.605469 234.492188 129.765625 234.492188 129.765625 L 210.851562 214.058594 " fill-opacity="1" fill-rule="nonzero"/><path fill="#5479f7" d="M 262.796875 134.71875 C 257.625 127.304688 249.324219 125.0625 239.632812 124.472656 C 235.929688 124.25 230.769531 126.703125 228.15625 129.097656 C 223.207031 131.007812 218.394531 133 214.8125 136.40625 C 210.800781 140.214844 198.445312 158.320312 195.289062 164.214844 C 185.289062 182.878906 179.707031 220.148438 187.847656 231.992188 C 192.800781 239.195312 196.601562 204.066406 202.484375 191.753906 C 206.332031 183.699219 212.421875 167.917969 215.65625 166.746094 C 215.210938 168.371094 215.082031 172.042969 214.8125 173.628906 C 213.269531 182.761719 208.921875 227.417969 208.921875 227.417969 C 212.371094 229.832031 220.867188 234.8125 220.867188 234.8125 C 227.792969 202.648438 224.847656 200.117188 226.269531 179.925781 C 227.460938 163.011719 230.28125 159.71875 232.828125 141.390625 C 233.214844 138.621094 232.675781 134.53125 235.335938 128.996094 C 236.296875 127 253.851562 133.585938 255.125 135.359375 C 260.527344 142.875 254.34375 165.292969 254.691406 175.414062 C 255.210938 190.410156 257.277344 206.050781 258.003906 209.699219 C 259.53125 217.378906 258.980469 230.992188 258.980469 230.992188 C 265.71875 231.308594 269.96875 228.996094 272.984375 226.179688 C 274.988281 224.304688 275.761719 221.449219 275.066406 218.792969 L 274.085938 215.015625 C 273.3125 212.054688 272.914062 209.007812 272.910156 205.949219 C 272.90625 204.085938 272.839844 201.667969 272.621094 198.863281 C 272.109375 192.136719 269.511719 183.980469 269.511719 183.980469 C 269.511719 183.980469 271.621094 186.464844 278.691406 189.222656 C 285.757812 191.980469 289.757812 183.285156 290.597656 174.402344 C 293.347656 145.308594 262.796875 134.71875 262.796875 134.71875 " fill-opacity="1" fill-rule="nonzero"/><path fill="#000000" d="M 209.585938 227.109375 C 212.5 229.109375 218.347656 232.59375 220.429688 233.824219 C 225.042969 212.191406 225.089844 204.136719 225.148438 194.828125 C 225.171875 190.523438 225.199219 186.074219 225.632812 179.882812 C 226.308594 170.339844 227.488281 165.136719 228.859375 159.113281 C 229.90625 154.519531 231.085938 149.316406 232.199219 141.300781 C 232.289062 140.664062 232.324219 139.949219 232.367188 139.125 C 232.503906 136.554688 232.691406 133.039062 234.765625 128.722656 C 234.964844 128.308594 235.40625 128.066406 236.082031 128.007812 C 239.878906 127.671875 254.3125 133.152344 255.636719 134.992188 C 259.359375 140.167969 257.839844 151.796875 256.503906 162.054688 C 255.839844 167.183594 255.207031 172.019531 255.324219 175.390625 C 255.839844 190.316406 257.894531 205.894531 258.625 209.578125 C 259.976562 216.386719 259.726562 227.574219 259.636719 230.382812 C 264.839844 230.488281 269.066406 228.96875 272.546875 225.71875 C 274.367188 224.019531 275.097656 221.425781 274.453125 218.953125 L 273.46875 215.175781 C 272.683594 212.148438 272.28125 209.042969 272.273438 205.953125 C 272.273438 203.667969 272.175781 201.296875 271.992188 198.910156 C 271.488281 192.335938 268.933594 184.253906 268.90625 184.171875 C 268.816406 183.882812 268.941406 183.570312 269.203125 183.425781 C 269.46875 183.277344 269.800781 183.339844 269.992188 183.570312 C 270.011719 183.589844 272.136719 185.988281 278.917969 188.632812 C 280.769531 189.355469 282.472656 189.25 283.976562 188.324219 C 287.035156 186.441406 289.328125 181.085938 289.964844 174.34375 C 291.085938 162.492188 286.828125 152.332031 277.3125 144.132812 C 270.191406 137.996094 262.664062 135.34375 262.585938 135.316406 C 262.460938 135.273438 262.351562 135.191406 262.277344 135.082031 C 257.886719 128.789062 251.101562 125.808594 239.59375 125.105469 C 236.152344 124.902344 231.117188 127.246094 228.585938 129.566406 C 228.523438 129.621094 228.457031 129.664062 228.382812 129.691406 C 223.429688 131.601562 218.699219 133.582031 215.246094 136.863281 C 211.328125 140.589844 198.914062 158.785156 195.84375 164.519531 C 186.023438 182.847656 180.429688 220.082031 188.371094 231.632812 C 188.5625 231.914062 188.921875 232.378906 189.242188 232.316406 C 191.183594 231.953125 193.625 221.582031 195.582031 213.253906 C 197.515625 205.007812 199.519531 196.484375 201.910156 191.480469 C 202.851562 189.511719 203.929688 187.074219 205.070312 184.492188 C 209.5625 174.328125 212.9375 167.058594 215.4375 166.152344 C 215.660156 166.070312 215.910156 166.121094 216.082031 166.285156 C 216.257812 166.441406 216.328125 166.683594 216.261719 166.914062 C 216.011719 167.84375 215.859375 169.5625 215.726562 171.082031 C 215.632812 172.113281 215.546875 173.082031 215.433594 173.738281 C 213.984375 182.300781 210.007812 222.792969 209.585938 227.109375 Z M 220.863281 235.445312 C 220.753906 235.445312 220.640625 235.417969 220.542969 235.359375 C 220.457031 235.308594 211.988281 230.339844 208.554688 227.941406 C 208.371094 227.808594 208.269531 227.585938 208.289062 227.359375 C 208.332031 226.914062 212.65625 182.574219 214.1875 173.527344 C 214.289062 172.921875 214.371094 171.972656 214.460938 170.96875 C 214.542969 170.054688 214.628906 169.117188 214.730469 168.289062 C 212.394531 171.050781 208.894531 178.972656 206.226562 185.003906 C 205.082031 187.59375 204.003906 190.039062 203.050781 192.027344 C 200.722656 196.90625 198.734375 205.363281 196.8125 213.539062 C 193.886719 225.996094 192.101562 233.070312 189.476562 233.5625 C 188.699219 233.710938 187.980469 233.300781 187.328125 232.351562 C 179.011719 220.257812 184.535156 182.945312 194.730469 163.917969 C 197.910156 157.976562 210.292969 139.828125 214.375 135.945312 C 217.96875 132.53125 222.78125 130.492188 227.820312 128.554688 C 230.558594 126.089844 235.835938 123.613281 239.671875 123.84375 C 247.546875 124.324219 257.324219 125.9375 263.195312 134.191406 C 264.464844 134.65625 271.394531 137.359375 278.140625 143.171875 C 284.90625 149.003906 292.671875 159.164062 291.222656 174.464844 C 290.539062 181.699219 288.082031 187.28125 284.640625 189.402344 C 282.777344 190.550781 280.699219 190.6875 278.460938 189.8125 C 274.558594 188.289062 272.128906 186.839844 270.714844 185.824219 C 271.519531 188.703125 272.894531 194.125 273.253906 198.8125 C 273.441406 201.234375 273.539062 203.636719 273.539062 205.945312 C 273.546875 208.9375 273.933594 211.933594 274.699219 214.859375 L 275.679688 218.632812 C 276.441406 221.554688 275.574219 224.625 273.414062 226.644531 C 269.53125 230.269531 264.800781 231.898438 258.949219 231.625 C 258.605469 231.609375 258.332031 231.316406 258.347656 230.964844 C 258.355469 230.832031 258.875 217.339844 257.382812 209.824219 C 256.648438 206.113281 254.578125 190.433594 254.058594 175.433594 C 253.9375 171.960938 254.578125 167.070312 255.25 161.894531 C 256.558594 151.867188 258.039062 140.5 254.609375 135.726562 C 254.183594 135.136719 250.300781 133.269531 245.40625 131.539062 C 239.414062 129.421875 236.417969 129.058594 235.878906 129.324219 C 233.9375 133.390625 233.769531 136.605469 233.636719 139.191406 C 233.589844 140.011719 233.550781 140.785156 233.457031 141.476562 C 232.335938 149.546875 231.144531 154.777344 230.09375 159.394531 C 228.734375 165.367188 227.5625 170.527344 226.898438 179.972656 C 226.464844 186.121094 226.4375 190.550781 226.414062 194.835938 C 226.359375 204.339844 226.308594 212.542969 221.484375 234.949219 C 221.441406 235.144531 221.304688 235.3125 221.117188 235.390625 C 221.039062 235.429688 220.953125 235.445312 220.863281 235.445312 " fill-opacity="1" fill-rule="nonzero"/><path fill="#000000" d="M 268.445312 178.039062 C 268.433594 178.039062 268.421875 178.039062 268.40625 178.039062 C 268.058594 178.019531 267.792969 177.71875 267.8125 177.367188 C 268.050781 173.476562 266.835938 168.917969 265.617188 164.96875 C 265.515625 164.636719 265.703125 164.28125 266.035156 164.179688 C 266.371094 164.078125 266.722656 164.261719 266.824219 164.59375 C 268.078125 168.652344 269.328125 173.351562 269.078125 177.445312 C 269.054688 177.78125 268.777344 178.039062 268.445312 178.039062 " fill-opacity="1" fill-rule="nonzero"/><path fill="#ffffff" d="M 247.421875 111.507812 C 247.421875 111.507812 246.820312 128.386719 251.339844 130.789062 C 251.386719 130.8125 254.25 133.222656 251.921875 135.007812 L 246.53125 139.136719 C 242.4375 142.273438 236.570312 141.457031 233.484375 137.324219 C 232.382812 135.847656 232.546875 133.570312 233.792969 132.207031 C 236.71875 128.992188 236.625 125.289062 236.089844 122.84375 C 235.101562 118.320312 247.421875 111.507812 247.421875 111.507812 " fill-opacity="1" fill-rule="nonzero"/><path fill="#000000" d="M 246.761719 112.613281 C 243.023438 114.828125 236.046875 119.667969 236.710938 122.703125 C 237.292969 125.367188 237.339844 129.246094 234.261719 132.628906 C 233.203125 133.792969 233.085938 135.730469 233.996094 136.945312 C 235.382812 138.808594 237.414062 140.007812 239.71875 140.328125 C 242.019531 140.648438 244.300781 140.042969 246.148438 138.632812 L 251.535156 134.503906 C 251.980469 134.164062 252.195312 133.796875 252.203125 133.386719 C 252.210938 132.519531 251.28125 131.558594 250.988281 131.316406 C 246.859375 129.011719 246.703125 116.671875 246.761719 112.613281 Z M 240.925781 141.679688 C 240.46875 141.679688 240.007812 141.648438 239.542969 141.582031 C 236.902344 141.214844 234.574219 139.835938 232.980469 137.703125 C 231.707031 135.996094 231.855469 133.394531 233.324219 131.777344 C 236.039062 128.792969 235.992188 125.34375 235.472656 122.972656 C 234.414062 118.132812 245.8125 111.671875 247.117188 110.953125 C 247.316406 110.84375 247.5625 110.847656 247.753906 110.96875 C 247.949219 111.085938 248.0625 111.300781 248.054688 111.53125 C 247.894531 116.113281 248.21875 128.410156 251.636719 130.226562 C 251.773438 130.300781 253.324219 131.589844 253.457031 133.160156 C 253.511719 133.789062 253.351562 134.703125 252.308594 135.507812 L 246.914062 139.636719 C 245.171875 140.972656 243.085938 141.679688 240.925781 141.679688 " fill-opacity="1" fill-rule="nonzero"/><path fill="#000000" d="M 234.476562 119.304688 C 234.476562 119.304688 231.472656 119.234375 230.101562 116.960938 C 228.730469 114.683594 229.226562 110.859375 227.140625 108.257812 C 224.839844 105.394531 227.371094 101.167969 230.148438 100.394531 C 236.351562 98.667969 234.441406 95.507812 237.101562 94.167969 C 240.128906 92.640625 241.503906 95.601562 245.300781 95.667969 C 249.917969 95.742188 253.546875 97 253.269531 102.5 C 252.953125 108.804688 255.496094 113.742188 248.253906 116.015625 C 241.015625 118.289062 234.476562 119.304688 234.476562 119.304688 " fill-opacity="1" fill-rule="nonzero"/><path fill="#ffffff" d="M 232.46875 110.960938 C 232.460938 114.007812 232.953125 117.042969 234 119.90625 C 235.175781 123.125 237.046875 126.21875 239.675781 126.039062 C 244.445312 125.714844 246.734375 122.082031 247.832031 120.164062 C 248.933594 118.242188 249.007812 111.710938 248.894531 110.21875 C 248.894531 110.21875 244.382812 111.152344 244.984375 104.050781 C 244.984375 104.050781 242.820312 103.359375 241.238281 105.050781 C 240.019531 106.351562 237.882812 107.015625 235.363281 105.980469 C 235.363281 105.980469 236.265625 109.300781 232.472656 109.777344 L 232.46875 110.960938 " fill-opacity="1" fill-rule="nonzero"/><path fill="#000000" d="M 239.269531 126.699219 C 237.003906 126.699219 234.984375 124.441406 233.40625 120.121094 C 233.226562 119.636719 232.992188 119.121094 232.742188 118.574219 C 232.269531 117.539062 231.78125 116.460938 231.605469 115.410156 C 231.546875 115.066406 231.777344 114.742188 232.125 114.683594 C 232.464844 114.625 232.792969 114.855469 232.851562 115.203125 C 233 116.089844 233.457031 117.085938 233.894531 118.050781 C 234.144531 118.59375 234.402344 119.15625 234.59375 119.683594 C 235.429688 121.96875 237.183594 125.753906 239.585938 125.410156 C 242.128906 125.050781 243.554688 124.042969 244.6875 123.125 C 244.960938 122.90625 245.355469 122.949219 245.574219 123.21875 C 245.796875 123.492188 245.753906 123.890625 245.480469 124.109375 C 244.21875 125.132812 242.628906 126.257812 239.761719 126.664062 C 239.597656 126.6875 239.433594 126.699219 239.269531 126.699219 " fill-opacity="1" fill-rule="nonzero"/><path fill="#000000" d="M 247.714844 121.476562 C 247.613281 121.476562 247.503906 121.449219 247.410156 121.394531 C 247.101562 121.226562 246.992188 120.839844 247.164062 120.535156 C 247.179688 120.503906 248.265625 118.46875 248.863281 113.574219 C 248.90625 113.226562 249.230469 112.988281 249.570312 113.023438 C 249.917969 113.066406 250.164062 113.382812 250.121094 113.730469 C 249.484375 118.929688 248.316406 121.0625 248.269531 121.148438 C 248.152344 121.355469 247.9375 121.476562 247.714844 121.476562 " fill-opacity="1" fill-rule="nonzero"/><path fill="#000000" d="M 190.527344 339.246094 L 191.484375 352.097656 C 191.441406 353.515625 192.519531 354.6875 193.835938 354.648438 L 195.347656 354.601562 C 196.578125 354.566406 197.558594 353.480469 197.558594 352.148438 L 198.984375 340.429688 L 190.527344 339.246094 " fill-opacity="1" fill-rule="nonzero"/><path fill="#ffffff" d="M 191.246094 351.511719 C 190.902344 351.109375 190.285156 351.105469 189.9375 351.503906 C 189.25 352.292969 188.246094 353.640625 187.914062 355.113281 C 187.394531 357.433594 186.511719 362.3125 188.117188 362.847656 C 189.304688 363.242188 201.882812 362.828125 208.109375 362.601562 C 210.070312 362.527344 211.097656 360.203125 209.796875 358.734375 C 208.808594 357.621094 206.902344 356.460938 204.671875 355.488281 C 201.320312 354.027344 199.730469 352.738281 198.972656 351.863281 C 198.457031 351.265625 197.597656 351.109375 196.921875 351.523438 L 194.90625 352.761719 C 193.925781 353.363281 192.652344 353.160156 191.90625 352.285156 L 191.246094 351.511719 " fill-opacity="1" fill-rule="nonzero"/><path fill="#000000" d="M 190.589844 351.839844 C 190.550781 351.839844 190.472656 351.851562 190.414062 351.921875 C 189.84375 352.574219 188.84375 353.871094 188.535156 355.25 C 187.453125 360.039062 187.828125 362.082031 188.316406 362.242188 C 188.617188 362.335938 190.9375 362.59375 208.082031 361.96875 C 208.886719 361.9375 209.394531 361.40625 209.605469 360.921875 C 209.867188 360.308594 209.761719 359.648438 209.324219 359.15625 C 208.449219 358.171875 206.664062 357.046875 204.417969 356.070312 C 201.597656 354.839844 199.605469 353.566406 198.496094 352.28125 C 198.171875 351.910156 197.652344 351.816406 197.253906 352.0625 L 195.234375 353.300781 C 193.984375 354.070312 192.382812 353.816406 191.425781 352.699219 L 190.765625 351.921875 C 190.703125 351.851562 190.628906 351.851562 190.589844 351.839844 Z M 191.832031 363.644531 C 188.507812 363.644531 188.105469 363.511719 187.914062 363.445312 C 186.355469 362.929688 186.148438 360.078125 187.296875 354.972656 C 187.652344 353.402344 188.667969 351.996094 189.457031 351.089844 C 189.746094 350.761719 190.15625 350.574219 190.585938 350.574219 C 190.589844 350.574219 190.59375 350.574219 190.597656 350.574219 C 191.03125 350.578125 191.445312 350.769531 191.730469 351.101562 L 192.390625 351.875 C 192.9375 352.519531 193.855469 352.664062 194.574219 352.222656 L 196.59375 350.980469 C 197.519531 350.414062 198.722656 350.609375 199.453125 351.453125 C 200.132812 352.234375 201.632812 353.472656 204.925781 354.910156 C 207.367188 355.976562 209.265625 357.183594 210.269531 358.316406 C 211.03125 359.167969 211.21875 360.359375 210.765625 361.417969 C 210.308594 362.496094 209.296875 363.191406 208.132812 363.234375 C 199.527344 363.546875 194.636719 363.644531 191.832031 363.644531 " fill-opacity="1" fill-rule="nonzero"/><path fill="#000000" d="M 197.902344 358.421875 C 197.703125 358.421875 197.503906 358.328125 197.382812 358.152344 C 197.183594 357.863281 197.253906 357.46875 197.542969 357.269531 L 200.605469 355.152344 C 200.890625 354.953125 201.285156 355.023438 201.484375 355.3125 C 201.683594 355.601562 201.609375 355.996094 201.324219 356.191406 L 198.261719 358.3125 C 198.152344 358.386719 198.027344 358.421875 197.902344 358.421875 " fill-opacity="1" fill-rule="nonzero"/><path fill="#5479f7" d="M 208.65625 286.640625 C 208.65625 286.640625 202.101562 342.875 202.097656 342.878906 L 189.328125 342.394531 C 188.765625 341.570312 187.613281 296.296875 188.980469 289.554688 C 190.0625 284.222656 193.023438 268.71875 193.023438 268.71875 L 209.515625 263.652344 C 209.515625 263.652344 208.863281 277.429688 208.65625 286.640625 " fill-opacity="1" fill-rule="nonzero"/><path fill="#000000" d="M 173.613281 338.652344 L 174.71875 352.984375 C 174.683594 354.40625 175.757812 355.574219 177.070312 355.539062 L 178.589844 355.492188 C 179.820312 355.457031 180.792969 354.371094 180.796875 353.039062 L 182.8125 339.097656 L 173.613281 338.652344 " fill-opacity="1" fill-rule="nonzero"/><path fill="#ffffff" d="M 174.484375 352.402344 C 174.140625 352 173.523438 351.996094 173.175781 352.394531 C 172.488281 353.183594 171.484375 354.527344 171.15625 356 C 170.632812 358.320312 169.75 363.203125 171.355469 363.734375 C 172.539062 364.128906 185.121094 363.71875 191.34375 363.492188 C 193.308594 363.417969 194.339844 361.089844 193.035156 359.625 C 192.046875 358.511719 190.140625 357.351562 187.910156 356.378906 C 184.5625 354.917969 182.96875 353.628906 182.210938 352.753906 C 181.695312 352.15625 180.835938 352 180.164062 352.414062 L 178.144531 353.652344 C 177.164062 354.253906 175.894531 354.050781 175.144531 353.175781 L 174.484375 352.402344 " fill-opacity="1" fill-rule="nonzero"/><path fill="#000000" d="M 173.828125 352.730469 C 173.785156 352.730469 173.710938 352.742188 173.652344 352.8125 C 173.082031 353.464844 172.082031 354.761719 171.773438 356.140625 C 170.695312 360.929688 171.066406 362.972656 171.554688 363.132812 C 171.855469 363.226562 174.179688 363.484375 191.324219 362.859375 C 192.125 362.828125 192.632812 362.296875 192.839844 361.808594 C 193.105469 361.195312 193 360.539062 192.5625 360.046875 C 191.6875 359.0625 189.902344 357.9375 187.65625 356.960938 C 184.839844 355.730469 182.84375 354.453125 181.734375 353.167969 C 181.414062 352.796875 180.890625 352.707031 180.492188 352.953125 L 178.476562 354.191406 C 177.21875 354.960938 175.621094 354.707031 174.664062 353.585938 L 174.003906 352.8125 C 173.941406 352.742188 173.871094 352.726562 173.828125 352.730469 Z M 175.074219 364.535156 C 171.75 364.535156 171.34375 364.398438 171.15625 364.335938 C 169.597656 363.816406 169.386719 360.964844 170.535156 355.863281 C 170.890625 354.292969 171.90625 352.882812 172.699219 351.980469 C 172.984375 351.652344 173.382812 351.453125 173.835938 351.464844 C 174.273438 351.46875 174.683594 351.660156 174.964844 351.992188 C 174.964844 351.992188 174.964844 351.992188 174.96875 351.992188 L 175.628906 352.765625 C 176.175781 353.410156 177.09375 353.554688 177.8125 353.113281 L 179.828125 351.871094 C 180.761719 351.300781 181.964844 351.5 182.691406 352.34375 C 183.371094 353.128906 184.867188 354.363281 188.164062 355.800781 C 190.605469 356.863281 192.503906 358.074219 193.511719 359.203125 C 194.269531 360.0625 194.457031 361.25 194.007812 362.308594 C 193.546875 363.386719 192.535156 364.082031 191.367188 364.125 C 182.773438 364.4375 177.882812 364.535156 175.074219 364.535156 " fill-opacity="1" fill-rule="nonzero"/><path fill="#000000" d="M 181.140625 359.3125 C 180.941406 359.3125 180.742188 359.21875 180.621094 359.039062 C 180.421875 358.753906 180.492188 358.359375 180.78125 358.160156 L 183.84375 356.042969 C 184.128906 355.839844 184.523438 355.914062 184.722656 356.203125 C 184.921875 356.492188 184.847656 356.882812 184.5625 357.082031 L 181.5 359.199219 C 181.390625 359.277344 181.265625 359.3125 181.140625 359.3125 " fill-opacity="1" fill-rule="nonzero"/><path fill="#5479f7" d="M 191.890625 287.519531 C 191.890625 287.519531 182.695312 342.960938 182.695312 342.964844 L 171.390625 343.324219 C 170.824219 342.496094 170.851562 297.179688 172.21875 290.4375 C 173.304688 285.101562 174.503906 264.324219 174.503906 264.324219 L 190.527344 269.621094 C 190.527344 269.621094 192.105469 278.308594 191.890625 287.519531 " fill-opacity="1" fill-rule="nonzero"/><path fill="#000000" d="M 173.46875 289.285156 C 173.285156 289.285156 173.105469 289.210938 172.984375 289.0625 C 172.757812 288.792969 172.792969 288.394531 173.058594 288.171875 C 177.347656 284.5625 179.554688 281.066406 179.804688 277.484375 C 179.832031 277.136719 180.136719 276.867188 180.484375 276.898438 C 180.832031 276.921875 181.097656 277.222656 181.070312 277.574219 C 180.792969 281.515625 178.441406 285.300781 173.875 289.140625 C 173.753906 289.238281 173.609375 289.285156 173.46875 289.285156 " fill-opacity="1" fill-rule="nonzero"/><path fill="#000000" d="M 189.914062 342.164062 Z M 175.085938 265.183594 C 174.851562 269.144531 173.808594 285.789062 172.839844 290.5625 C 171.570312 296.816406 171.433594 337.640625 171.917969 342.671875 L 182.15625 342.347656 C 182.667969 339.253906 185.417969 322.671875 187.714844 308.828125 C 187.769531 308.503906 188.070312 308.273438 188.390625 308.300781 C 188.71875 308.328125 188.972656 308.601562 188.972656 308.929688 C 189.023438 323.277344 189.535156 338.984375 189.855469 341.78125 L 201.539062 342.226562 C 202.222656 336.363281 207.851562 288.050781 208.023438 286.59375 C 208.199219 278.835938 208.691406 267.730469 208.839844 264.519531 L 193.574219 269.214844 C 193.375 270.261719 192.777344 273.382812 192.085938 276.964844 C 192.027344 277.273438 191.753906 277.488281 191.4375 277.476562 C 191.121094 277.460938 190.863281 277.21875 190.835938 276.90625 C 190.519531 273.566406 190.121094 271.015625 189.964844 270.101562 Z M 171.976562 343.101562 Z M 171.390625 343.957031 C 171.179688 343.957031 170.984375 343.851562 170.867188 343.683594 C 170.257812 342.789062 170.425781 321.515625 170.445312 319.09375 C 170.496094 313.429688 170.726562 294.617188 171.597656 290.3125 C 172.660156 285.082031 173.859375 264.496094 173.871094 264.289062 C 173.882812 264.089844 173.988281 263.914062 174.148438 263.800781 C 174.3125 263.691406 174.519531 263.660156 174.703125 263.722656 L 190.722656 269.019531 C 190.945312 269.09375 191.105469 269.277344 191.148438 269.507812 C 191.152344 269.527344 191.367188 270.71875 191.625 272.65625 C 192.085938 270.25 192.402344 268.601562 192.402344 268.601562 C 192.445312 268.371094 192.613281 268.183594 192.835938 268.113281 L 209.328125 263.046875 C 209.527344 262.984375 209.738281 263.027344 209.902344 263.152344 C 210.0625 263.277344 210.15625 263.476562 210.148438 263.679688 C 210.136719 263.816406 209.496094 277.554688 209.289062 286.652344 C 209.289062 286.675781 209.285156 286.695312 209.28125 286.710938 C 202.722656 343.011719 202.722656 343.011719 202.699219 343.082031 C 202.609375 343.347656 202.375 343.519531 202.078125 343.511719 L 189.304688 343.027344 C 189.105469 343.023438 188.917969 342.921875 188.808594 342.753906 C 188.296875 342.007812 187.921875 327.042969 187.777344 316.207031 C 183.3125 343.113281 183.3125 343.113281 183.292969 343.164062 C 183.210938 343.417969 182.980469 343.589844 182.714844 343.597656 L 171.410156 343.957031 C 171.402344 343.957031 171.398438 343.957031 171.390625 343.957031 " fill-opacity="1" fill-rule="nonzero"/><path fill="#000000" d="M 208.242188 222.933594 C 213.355469 227.222656 217.023438 226.710938 222.996094 227.210938 C 222.996094 227.210938 229.914062 227.308594 230.265625 225.535156 L 236.3125 211.417969 C 237.210938 209.265625 238.539062 207.320312 240.21875 205.699219 L 245.011719 201.582031 C 245.820312 200.882812 246.984375 201.867188 246.425781 202.785156 L 244.820312 205.421875 C 244.820312 205.421875 245.691406 205.933594 246.144531 206.007812 C 247.132812 206.167969 248.136719 205.832031 248.890625 205.179688 C 249.765625 204.425781 251.179688 203.226562 251.648438 202.941406 C 252.339844 202.523438 253.246094 201.851562 254.175781 201.867188 L 254.203125 201.867188 C 255.175781 201.894531 255.703125 203.015625 255.097656 203.777344 L 253.007812 206.417969 C 251.492188 208.332031 249.402344 209.710938 247.042969 210.355469 L 242.371094 211.628906 C 241.507812 211.867188 240.867188 212.597656 240.75 213.488281 L 238.777344 228.65625 C 238.296875 232.144531 237.054688 234.980469 235.316406 236.308594 C 226.242188 243.238281 199.191406 235.394531 199.191406 235.394531 L 208.242188 222.933594 " fill-opacity="1" fill-rule="nonzero"/><path fill="#000000" d="M 161.011719 243.023438 C 155.222656 253.808594 147.488281 266.070312 139.996094 275.058594 L 132.203125 275.015625 L 126.257812 279.34375 C 126.257812 279.34375 126.851562 280.144531 127.613281 280.371094 C 128.375 280.59375 129.269531 280.253906 129.9375 280.066406 C 130.601562 279.878906 133.449219 278.511719 133.449219 278.511719 C 133.449219 278.511719 134.585938 279.113281 136.105469 279.59375 C 134.949219 280.691406 134.96875 283.109375 134.96875 283.109375 L 141.265625 279.871094 C 141.839844 279.648438 142.273438 279.339844 142.59375 278.984375 C 142.882812 278.671875 143.34375 278.144531 143.34375 278.144531 C 143.34375 278.144531 164.726562 266.699219 170.703125 250.609375 C 170.855469 250.199219 170.84375 248.914062 170.984375 248.5 C 166.054688 247.230469 164.863281 246.199219 161.011719 243.023438 " fill-opacity="1" fill-rule="nonzero"/><path fill="#ffffff" d="M 214.875 222.957031 C 214.664062 222.839844 214.453125 222.726562 214.226562 222.621094 C 214.003906 222.5 213.78125 222.375 213.542969 222.234375 C 213.527344 222.253906 213.511719 222.273438 213.492188 222.292969 C 204.835938 218.765625 185.78125 220.574219 177.542969 223.109375 C 173.914062 224.226562 172.414062 224.753906 171.074219 225.542969 C 171.03125 225.433594 171.007812 225.371094 171.007812 225.371094 C 166.382812 227.765625 158.835938 237.765625 152.582031 249.414062 C 156.433594 252.59375 164.300781 255.941406 169.226562 257.210938 C 170.230469 255.308594 171.011719 253.382812 171.609375 251.46875 C 171.625 251.800781 171.648438 252.132812 171.675781 252.460938 L 173.65625 275.066406 C 198.050781 281.457031 210.5 272.496094 210.5 272.496094 L 211.570312 248.578125 C 211.679688 246.113281 211.964844 243.664062 212.425781 241.25 C 215.34375 241.390625 218.332031 241.265625 221.042969 240.667969 L 225.988281 225.292969 C 221.457031 224.285156 218.980469 225.003906 214.875 222.957031 " fill-opacity="1" fill-rule="nonzero"/><path fill="#000000" d="M 174.246094 274.566406 C 195.960938 280.125 208.035156 273.3125 209.882812 272.148438 L 210.9375 248.546875 C 211.046875 246.078125 211.339844 243.582031 211.800781 241.132812 C 211.859375 240.820312 212.140625 240.601562 212.457031 240.617188 C 215.496094 240.761719 218.214844 240.601562 220.550781 240.125 L 225.167969 225.769531 C 223.828125 225.511719 222.679688 225.394531 221.558594 225.285156 C 219.359375 225.070312 217.285156 224.867188 214.589844 223.523438 C 214.578125 223.519531 214.570312 223.515625 214.5625 223.507812 C 214.367188 223.398438 214.167969 223.292969 213.953125 223.191406 C 213.785156 223.097656 213.625 223.011719 213.46875 222.921875 C 213.398438 222.921875 213.324219 222.90625 213.253906 222.878906 C 205.066406 219.542969 186.351562 221.058594 177.730469 223.710938 C 174.167969 224.808594 172.675781 225.332031 171.394531 226.089844 C 171.246094 226.179688 171.066406 226.203125 170.902344 226.15625 C 166.523438 228.75 159.445312 238.074219 153.390625 249.25 C 157.140625 252.148438 164.109375 255.15625 168.902344 256.46875 C 169.738281 254.820312 170.445312 253.078125 171.003906 251.28125 C 171.09375 250.988281 171.378906 250.804688 171.6875 250.839844 C 171.992188 250.878906 172.222656 251.128906 172.242188 251.4375 C 172.257812 251.761719 172.28125 252.082031 172.304688 252.40625 Z M 190.511719 278.019531 C 185.695312 278.019531 180.023438 277.386719 173.496094 275.675781 C 173.234375 275.609375 173.046875 275.386719 173.023438 275.121094 L 171.214844 254.445312 C 170.785156 255.492188 170.308594 256.515625 169.789062 257.507812 C 169.652344 257.765625 169.351562 257.898438 169.070312 257.824219 C 163.972656 256.511719 156.066406 253.109375 152.179688 249.902344 C 151.945312 249.710938 151.882812 249.382812 152.023438 249.113281 C 158.53125 236.992188 166.042969 227.226562 170.71875 224.808594 C 170.859375 224.738281 171.019531 224.722656 171.171875 224.761719 C 172.472656 224.0625 174.058594 223.519531 177.355469 222.5 C 185.964844 219.851562 204.628906 218.175781 213.476562 221.605469 C 213.605469 221.589844 213.746094 221.617188 213.867188 221.691406 C 214.097656 221.824219 214.3125 221.945312 214.535156 222.066406 C 214.734375 222.160156 214.957031 222.277344 215.167969 222.398438 C 217.648438 223.628906 219.515625 223.8125 221.683594 224.027344 C 222.960938 224.152344 224.414062 224.292969 226.125 224.675781 C 226.296875 224.714844 226.445312 224.824219 226.535156 224.980469 C 226.625 225.132812 226.644531 225.316406 226.589844 225.488281 L 221.644531 240.863281 C 221.578125 241.074219 221.398438 241.238281 221.179688 241.285156 C 218.796875 241.8125 216.03125 242.019531 212.949219 241.902344 C 212.554688 244.125 212.300781 246.375 212.203125 248.605469 L 211.128906 272.527344 C 211.121094 272.722656 211.023438 272.898438 210.867188 273.011719 C 210.488281 273.285156 203.703125 278.019531 190.511719 278.019531 " fill-opacity="1" fill-rule="nonzero"/><path fill="#ffffff" d="M 188.601562 212.9375 C 186.371094 213.851562 184.460938 214.609375 181.933594 214.3125 C 181.503906 214.261719 176.125 213.570312 175.382812 210.25 C 175.058594 208.796875 175.757812 207.449219 176.1875 206.773438 C 174.421875 206.507812 173.222656 204.992188 173.351562 203.488281 C 173.453125 202.339844 174.316406 201.3125 175.53125 200.902344 C 174.734375 200.105469 173.445312 198.5625 173.109375 196.386719 C 172.292969 191.070312 177.964844 187.144531 179.1875 186.359375 C 180.628906 185.429688 184.027344 183.242188 187.136719 184.640625 C 188.582031 185.292969 189.425781 186.472656 189.871094 187.25 C 190.324219 186.824219 191.109375 186.191406 192.226562 185.792969 C 195.722656 184.550781 199.882812 186.558594 201.972656 189.40625 C 202.46875 190.085938 203.742188 191.820312 203.566406 194 C 203.414062 195.808594 202.367188 196.675781 201.070312 198.644531 C 198.707031 202.226562 199.730469 203.050781 197.917969 205.964844 C 195.28125 210.191406 190.941406 211.976562 188.601562 212.9375 " fill-opacity="1" fill-rule="nonzero"/><path fill="#000000" d="M 188.601562 212.9375 L 188.605469 212.9375 Z M 184.964844 184.820312 C 182.746094 184.820312 180.585938 186.210938 179.53125 186.890625 C 178.429688 187.597656 172.980469 191.382812 173.734375 196.289062 C 173.960938 197.773438 174.738281 199.214844 175.976562 200.453125 C 176.132812 200.609375 176.195312 200.832031 176.148438 201.046875 C 176.09375 201.257812 175.941406 201.429688 175.734375 201.5 C 174.765625 201.828125 174.0625 202.652344 173.984375 203.542969 C 173.878906 204.773438 174.90625 205.941406 176.28125 206.148438 C 176.492188 206.179688 176.671875 206.316406 176.761719 206.511719 C 176.851562 206.707031 176.835938 206.933594 176.71875 207.113281 C 176.253906 207.851562 175.746094 208.976562 176 210.109375 C 176.652344 213.023438 181.789062 213.65625 182.007812 213.683594 C 184.425781 213.964844 186.246094 213.21875 188.359375 212.351562 C 190.628906 211.417969 194.851562 209.683594 197.378906 205.632812 C 198.167969 204.367188 198.386719 203.519531 198.617188 202.625 C 198.894531 201.539062 199.214844 200.308594 200.542969 198.296875 C 200.886719 197.773438 201.21875 197.320312 201.507812 196.925781 C 202.308594 195.832031 202.835938 195.109375 202.933594 193.949219 C 203.09375 192.003906 201.949219 190.445312 201.460938 189.78125 C 199.570312 187.207031 195.683594 185.238281 192.441406 186.386719 C 191.664062 186.664062 190.945312 187.109375 190.304688 187.710938 C 190.164062 187.84375 189.96875 187.90625 189.777344 187.875 C 189.585938 187.847656 189.417969 187.734375 189.324219 187.566406 C 188.683594 186.453125 187.863281 185.664062 186.875 185.21875 C 186.25 184.9375 185.605469 184.820312 184.964844 184.820312 Z M 183.03125 215.011719 C 182.65625 215.011719 182.265625 214.988281 181.859375 214.941406 C 181.222656 214.867188 175.59375 214.105469 174.765625 210.386719 C 174.539062 209.378906 174.703125 208.28125 175.238281 207.175781 C 173.664062 206.570312 172.582031 205.042969 172.722656 203.433594 C 172.820312 202.316406 173.484375 201.3125 174.480469 200.695312 C 173.398438 199.417969 172.714844 197.976562 172.484375 196.484375 C 171.632812 190.941406 177.136719 186.925781 178.84375 185.828125 C 180.378906 184.839844 183.972656 182.523438 187.394531 184.0625 C 188.40625 184.519531 189.304688 185.285156 190.015625 186.296875 C 190.632812 185.816406 191.304688 185.449219 192.015625 185.195312 C 195.953125 183.792969 200.347656 186.125 202.480469 189.03125 C 203.003906 189.746094 204.394531 191.636719 204.195312 194.054688 C 204.070312 195.570312 203.386719 196.496094 202.527344 197.671875 C 202.246094 198.058594 201.925781 198.492188 201.597656 198.992188 C 200.386719 200.832031 200.109375 201.902344 199.84375 202.941406 C 199.597656 203.890625 199.34375 204.871094 198.453125 206.304688 C 195.710938 210.703125 191.242188 212.535156 188.839844 213.519531 C 186.984375 214.28125 185.210938 215.011719 183.03125 215.011719 " fill-opacity="1" fill-rule="nonzero"/><path fill="#000000" d="M 186.769531 212.261719 C 186.867188 212.753906 187.59375 217.515625 185.710938 219.628906 C 183.832031 221.742188 182.011719 222.328125 182.011719 222.328125 C 182.011719 222.328125 190.640625 224.34375 195.292969 223.269531 C 199.945312 222.191406 199.335938 220.980469 199.335938 220.980469 L 196.703125 219.601562 C 195.847656 219.152344 195.347656 218.238281 195.4375 217.277344 L 195.488281 216.722656 C 196.09375 216.839844 198.09375 217.148438 199.976562 215.96875 C 202.527344 214.371094 202.785156 211.339844 202.8125 210.496094 C 202.871094 208.785156 202.160156 209.078125 201.558594 205.996094 C 201.042969 203.347656 201.328125 202 200.265625 199.992188 C 199.871094 199.25 199.445312 198.703125 199.167969 198.375 C 197.601562 198.449219 195.992188 198.84375 194.648438 199.882812 C 193.21875 200.988281 193.359375 201.84375 191.945312 202.699219 C 189.878906 203.949219 188.003906 203.085938 187.386719 204.164062 C 187.15625 204.5625 187.078125 205.261719 187.824219 206.59375 C 187.824219 206.59375 185.871094 205.308594 184.527344 206.097656 C 184.003906 206.402344 183.722656 206.921875 183.605469 207.300781 C 183.171875 208.738281 184.453125 210.71875 186.769531 212.261719 " fill-opacity="1" fill-rule="nonzero"/><path fill="#ffffff" d="M 253.71875 197.457031 C 253.71875 197.457031 243.464844 195.617188 239.472656 198.1875 C 235.96875 200.445312 240.3125 201.449219 243.050781 200.953125 C 243.566406 200.859375 244.019531 200.828125 244.425781 200.839844 C 245.46875 200.871094 245.910156 202.289062 245.035156 202.804688 C 241.5 204.875 234.171875 209.34375 234.632812 210.492188 C 235.105469 211.660156 237.578125 211.777344 240.683594 210.453125 C 241.410156 210.144531 242.257812 210.191406 242.992188 210.589844 C 244.46875 211.382812 247.125 212.417969 249.375 211.183594 C 252.316406 209.566406 256.632812 204.101562 256.632812 204.101562 C 256.632812 204.101562 265.304688 202.617188 280.585938 192.003906 C 285.800781 188.382812 287.179688 185.769531 281.003906 181.65625 C 276.058594 178.363281 271.984375 181.355469 271.5625 181.636719 C 269.90625 182.742188 267.21875 185.308594 266.617188 187.257812 C 266.046875 189.109375 263.574219 192.730469 253.71875 197.457031 " fill-opacity="1" fill-rule="nonzero"/><path fill="#000000" d="M 241.679688 209.621094 C 242.226562 209.621094 242.777344 209.757812 243.292969 210.035156 C 244.585938 210.730469 247.054688 211.734375 249.070312 210.628906 C 251.867188 209.09375 256.089844 203.765625 256.132812 203.710938 C 256.230469 203.589844 256.367188 203.503906 256.523438 203.480469 C 256.609375 203.464844 265.269531 201.871094 280.222656 191.484375 C 283.203125 189.417969 284.46875 187.960938 284.457031 186.621094 C 284.445312 185.335938 283.199219 183.882812 280.648438 182.183594 C 276.644531 179.515625 273.242188 181.253906 271.964844 182.128906 L 271.910156 182.167969 C 270.335938 183.214844 267.757812 185.699219 267.21875 187.449219 C 266.523438 189.710938 263.664062 193.386719 253.988281 198.03125 C 253.871094 198.089844 253.734375 198.105469 253.605469 198.082031 C 253.507812 198.066406 243.546875 196.316406 239.8125 198.722656 C 238.882812 199.320312 238.773438 199.679688 238.796875 199.734375 C 238.964844 200.164062 240.941406 200.695312 242.933594 200.332031 C 243.457031 200.234375 243.960938 200.191406 244.441406 200.207031 C 245.222656 200.230469 245.878906 200.765625 246.078125 201.542969 C 246.265625 202.273438 245.980469 202.984375 245.351562 203.351562 C 238.007812 207.65625 235.589844 209.734375 235.269531 210.347656 C 235.34375 210.449219 235.460938 210.53125 235.632812 210.601562 C 236.351562 210.902344 238.042969 210.890625 240.433594 209.871094 C 240.832031 209.703125 241.253906 209.621094 241.679688 209.621094 Z M 247.050781 212.386719 C 245.328125 212.386719 243.703125 211.691406 242.691406 211.152344 C 242.125 210.84375 241.480469 210.804688 240.933594 211.035156 C 238.597656 212.03125 236.433594 212.308594 235.144531 211.773438 C 234.609375 211.550781 234.230469 211.191406 234.042969 210.730469 C 233.792969 210.101562 233.320312 208.933594 244.710938 202.261719 C 244.894531 202.152344 244.878906 201.960938 244.851562 201.859375 C 244.808594 201.6875 244.664062 201.480469 244.402344 201.472656 C 244.015625 201.464844 243.597656 201.496094 243.160156 201.578125 C 241.253906 201.921875 238.1875 201.632812 237.621094 200.203125 C 237.289062 199.371094 237.800781 198.511719 239.125 197.660156 C 243.007812 195.15625 252.101562 196.546875 253.621094 196.800781 C 263.21875 192.167969 265.503906 188.722656 266.011719 187.074219 C 266.667969 184.933594 269.503906 182.25 271.207031 181.113281 L 271.25 181.082031 C 272.742188 180.066406 276.703125 178.035156 281.351562 181.132812 C 284.316406 183.109375 285.707031 184.847656 285.722656 186.605469 C 285.742188 188.878906 283.4375 190.792969 280.945312 192.527344 C 266.933594 202.257812 258.515625 204.359375 256.980469 204.679688 C 256.179688 205.671875 252.421875 210.230469 249.679688 211.738281 C 248.824219 212.210938 247.925781 212.386719 247.050781 212.386719 " fill-opacity="1" fill-rule="nonzero"/><path fill="#000000" d="M 159.457031 224.828125 C 156.253906 224.828125 149.421875 223 142.367188 219.710938 C 132.46875 215.105469 115.5 204.625 113.042969 186.214844 C 113 185.867188 113.242188 185.550781 113.589844 185.503906 C 113.9375 185.457031 114.253906 185.703125 114.300781 186.046875 C 116.671875 203.859375 133.238281 214.066406 142.902344 218.566406 C 152.117188 222.855469 159.175781 223.953125 160.292969 223.5 L 163.5 219.574219 C 159.832031 216.464844 137.46875 197.480469 132.960938 192.972656 C 131.808594 191.820312 131.707031 187.5625 131.679688 181.199219 C 131.671875 179.230469 131.664062 177.371094 131.582031 176.058594 C 131.558594 175.710938 131.824219 175.410156 132.175781 175.386719 C 132.527344 175.367188 132.824219 175.628906 132.847656 175.976562 C 132.929688 177.328125 132.9375 179.207031 132.945312 181.195312 C 132.960938 185.179688 132.984375 191.207031 133.855469 192.078125 C 138.628906 196.847656 164.53125 218.789062 164.792969 219.011719 L 165.265625 219.414062 L 161.128906 224.476562 L 161.042969 224.53125 C 160.734375 224.730469 160.191406 224.828125 159.457031 224.828125 " fill-opacity="1" fill-rule="nonzero"/><path fill="#ffffff" d="M 179.34375 222.945312 C 179.1875 223.011719 179.023438 223.0625 178.859375 223.101562 C 178.332031 223.226562 177.773438 223.214844 177.277344 223.429688 C 176.785156 223.644531 176.371094 224.214844 176.589844 224.707031 C 178.714844 225.136719 180.820312 225.664062 182.894531 226.296875 C 183.386719 226.445312 183.957031 226.679688 184.070312 227.183594 C 184.191406 227.726562 183.703125 228.203125 183.234375 228.503906 C 179.554688 230.859375 174.695312 229.996094 170.609375 228.453125 C 167.898438 227.429688 164.484375 226.171875 162.261719 224.261719 C 159.953125 222.277344 161.800781 221.558594 163.722656 219.851562 C 163.996094 219.609375 169.691406 220.738281 170.40625 220.742188 C 173.71875 220.753906 177.027344 220.824219 180.335938 220.941406 C 180.628906 220.953125 181.023438 221.078125 180.988281 221.367188 C 180.660156 222.070312 180.058594 222.644531 179.34375 222.945312 " fill-opacity="1" fill-rule="nonzero"/><path fill="#000000" d="M 164 220.449219 C 163.714844 220.695312 163.433594 220.925781 163.179688 221.128906 C 162.484375 221.691406 161.828125 222.222656 161.820312 222.613281 C 161.816406 222.808594 161.964844 223.167969 162.671875 223.78125 C 164.746094 225.5625 167.988281 226.785156 170.589844 227.769531 L 170.832031 227.859375 C 175.933594 229.785156 179.992188 229.824219 182.890625 227.96875 C 183.296875 227.710938 183.480469 227.449219 183.453125 227.324219 C 183.433594 227.246094 183.3125 227.082031 182.710938 226.902344 C 180.664062 226.28125 178.5625 225.75 176.464844 225.328125 C 176.261719 225.289062 176.09375 225.152344 176.007812 224.964844 C 175.863281 224.632812 175.859375 224.25 176.003906 223.890625 C 176.175781 223.441406 176.558594 223.050781 177.027344 222.847656 C 177.417969 222.679688 177.820312 222.625 178.179688 222.574219 C 178.367188 222.550781 178.546875 222.523438 178.710938 222.488281 C 178.84375 222.457031 178.96875 222.414062 179.09375 222.359375 C 179.097656 222.359375 179.097656 222.359375 179.097656 222.359375 C 179.503906 222.191406 179.859375 221.910156 180.125 221.570312 C 176.835938 221.453125 173.566406 221.386719 170.40625 221.371094 C 170.09375 221.371094 169.265625 221.238281 167.828125 221 C 166.597656 220.792969 164.59375 220.464844 164 220.449219 Z M 177.8125 230.601562 C 175.613281 230.601562 173.132812 230.082031 170.386719 229.042969 L 170.144531 228.953125 C 167.445312 227.933594 164.089844 226.667969 161.847656 224.738281 C 160.953125 223.972656 160.542969 223.289062 160.554688 222.59375 C 160.570312 221.609375 161.410156 220.929688 162.386719 220.144531 C 162.683594 219.902344 162.992188 219.65625 163.304688 219.378906 C 163.628906 219.09375 163.84375 219.054688 168.039062 219.75 C 169.042969 219.917969 170.183594 220.105469 170.410156 220.105469 C 173.644531 220.121094 176.992188 220.1875 180.359375 220.3125 C 180.570312 220.320312 181.09375 220.375 181.40625 220.746094 C 181.574219 220.941406 181.648438 221.191406 181.617188 221.445312 C 181.605469 221.511719 181.589844 221.574219 181.5625 221.632812 C 181.171875 222.472656 180.453125 223.164062 179.589844 223.527344 C 179.398438 223.609375 179.203125 223.671875 179 223.71875 C 178.777344 223.773438 178.558594 223.800781 178.347656 223.828125 C 178.046875 223.871094 177.761719 223.910156 177.53125 224.011719 C 177.433594 224.054688 177.34375 224.125 177.273438 224.203125 C 179.226562 224.613281 181.175781 225.109375 183.078125 225.6875 C 183.460938 225.804688 184.480469 226.113281 184.6875 227.042969 C 184.847656 227.753906 184.441406 228.480469 183.574219 229.035156 C 181.945312 230.078125 180.019531 230.601562 177.8125 230.601562 " fill-opacity="1" fill-rule="nonzero"/><path fill="#000000" d="M 238.765625 44.515625 C 238.730469 44.515625 238.691406 44.511719 238.652344 44.507812 L 236.261719 44.085938 C 235.917969 44.023438 235.6875 43.691406 235.75 43.351562 C 235.808594 43.003906 236.132812 42.773438 236.480469 42.835938 L 238.875 43.257812 C 239.21875 43.320312 239.449219 43.648438 239.386719 43.992188 C 239.332031 44.300781 239.066406 44.515625 238.765625 44.515625 " fill-opacity="1" fill-rule="nonzero"/><path fill="#000000" d="M 250.226562 46.542969 C 250.191406 46.542969 250.152344 46.539062 250.117188 46.53125 L 247.722656 46.109375 C 247.378906 46.046875 247.152344 45.71875 247.210938 45.375 C 247.269531 45.03125 247.597656 44.800781 247.945312 44.863281 L 250.335938 45.285156 C 250.683594 45.34375 250.910156 45.675781 250.847656 46.019531 C 250.796875 46.324219 250.527344 46.542969 250.226562 46.542969 " fill-opacity="1" fill-rule="nonzero"/><path fill="#000000" d="M 242.066406 52.203125 C 242.03125 52.203125 241.992188 52.199219 241.953125 52.191406 C 241.609375 52.132812 241.378906 51.804688 241.441406 51.457031 L 241.867188 49.078125 C 241.929688 48.734375 242.261719 48.507812 242.605469 48.566406 C 242.945312 48.632812 243.175781 48.960938 243.113281 49.300781 L 242.6875 51.679688 C 242.636719 51.988281 242.367188 52.203125 242.066406 52.203125 " fill-opacity="1" fill-rule="nonzero"/><path fill="#000000" d="M 244.105469 40.808594 C 244.070312 40.808594 244.03125 40.804688 243.996094 40.800781 C 243.652344 40.738281 243.421875 40.40625 243.484375 40.0625 L 243.910156 37.6875 C 243.96875 37.34375 244.296875 37.113281 244.644531 37.175781 C 244.988281 37.238281 245.21875 37.566406 245.15625 37.910156 L 244.730469 40.289062 C 244.675781 40.59375 244.40625 40.808594 244.105469 40.808594 " fill-opacity="1" fill-rule="nonzero"/><path fill="#000000" d="M 14.851562 231.613281 C 14.8125 231.613281 14.777344 231.613281 14.738281 231.605469 L 12.347656 231.183594 C 12.003906 231.121094 11.773438 230.792969 11.832031 230.449219 C 11.894531 230.105469 12.222656 229.875 12.566406 229.9375 L 14.960938 230.359375 C 15.304688 230.417969 15.535156 230.746094 15.472656 231.089844 C 15.417969 231.398438 15.152344 231.613281 14.851562 231.613281 " fill-opacity="1" fill-rule="nonzero"/><path fill="#000000" d="M 26.3125 233.640625 C 26.277344 233.640625 26.238281 233.640625 26.199219 233.632812 L 23.808594 233.210938 C 23.464844 233.148438 23.234375 232.820312 23.292969 232.476562 C 23.355469 232.128906 23.6875 231.902344 24.027344 231.960938 L 26.421875 232.382812 C 26.765625 232.445312 26.996094 232.773438 26.933594 233.117188 C 26.878906 233.425781 26.613281 233.640625 26.3125 233.640625 " fill-opacity="1" fill-rule="nonzero"/><path fill="#000000" d="M 18.152344 239.304688 C 18.117188 239.304688 18.078125 239.300781 18.039062 239.292969 C 17.695312 239.230469 17.46875 238.902344 17.527344 238.558594 L 17.953125 236.179688 C 18.015625 235.835938 18.34375 235.605469 18.6875 235.667969 C 19.03125 235.730469 19.261719 236.058594 19.199219 236.402344 L 18.773438 238.78125 C 18.71875 239.085938 18.453125 239.304688 18.152344 239.304688 " fill-opacity="1" fill-rule="nonzero"/><path fill="#000000" d="M 20.191406 227.910156 C 20.15625 227.910156 20.117188 227.90625 20.078125 227.898438 C 19.734375 227.839844 19.507812 227.511719 19.566406 227.167969 L 19.992188 224.785156 C 20.054688 224.441406 20.382812 224.21875 20.726562 224.277344 C 21.070312 224.335938 21.300781 224.664062 21.238281 225.007812 L 20.8125 227.386719 C 20.757812 227.695312 20.492188 227.910156 20.191406 227.910156 " fill-opacity="1" fill-rule="nonzero"/><path fill="#000000" d="M 220.339844 33.878906 L 220.347656 33.878906 Z M 224.1875 32.28125 C 222.867188 32.28125 221.582031 32.96875 220.890625 34.1875 C 220.890625 34.1875 220.890625 34.1875 220.890625 34.191406 C 220.398438 35.058594 220.277344 36.066406 220.542969 37.027344 C 220.8125 37.996094 221.449219 38.796875 222.324219 39.289062 C 224.140625 40.304688 226.445312 39.667969 227.464844 37.867188 C 227.960938 36.996094 228.085938 35.988281 227.8125 35.027344 C 227.542969 34.0625 226.914062 33.257812 226.03125 32.765625 C 225.445312 32.4375 224.8125 32.28125 224.1875 32.28125 Z M 224.171875 41.039062 C 223.332031 41.039062 222.488281 40.832031 221.707031 40.394531 C 220.53125 39.738281 219.683594 38.660156 219.324219 37.367188 C 218.964844 36.082031 219.132812 34.730469 219.792969 33.566406 C 221.152344 31.160156 224.230469 30.304688 226.648438 31.660156 C 227.828125 32.320312 228.671875 33.390625 229.035156 34.6875 C 229.394531 35.972656 229.226562 37.324219 228.566406 38.488281 C 227.644531 40.121094 225.929688 41.039062 224.171875 41.039062 " fill-opacity="1" fill-rule="nonzero"/></svg>