<svg xmlns="http://www.w3.org/2000/svg" xmlns:xlink="http://www.w3.org/1999/xlink" width="500" zoomAndPan="magnify" viewBox="0 0 375 374.999991" height="500" preserveAspectRatio="xMidYMid meet" version="1.0"><defs><clipPath id="c895d18fb7"><path d="M 76 20.15625 L 340 20.15625 L 340 330 L 76 330 Z M 76 20.15625 " clip-rule="nonzero"/></clipPath><clipPath id="112841eca8"><path d="M 68 20.15625 L 332 20.15625 L 332 330 L 68 330 Z M 68 20.15625 " clip-rule="nonzero"/></clipPath><clipPath id="76f4092afb"><path d="M 81 20.15625 L 333 20.15625 L 333 330 L 81 330 Z M 81 20.15625 " clip-rule="nonzero"/></clipPath></defs><path fill="#d9d9d9" d="M 111.011719 337.289062 C 126.902344 344.367188 157.320312 354.839844 195.152344 350.628906 C 243.691406 345.226562 281.964844 318.488281 303.464844 292.476562 C 374.824219 206.164062 328.726562 48.160156 261.507812 27.238281 C 249.3125 23.441406 237.550781 24.507812 223.078125 25.824219 C 177.046875 30 163.367188 52.003906 114.492188 66.796875 C 70.015625 80.265625 65.007812 66.984375 45.234375 79.578125 C 2.339844 106.894531 0.179688 185.738281 20.742188 239.992188 C 28.644531 260.832031 52.871094 311.394531 111.011719 337.289062 " fill-opacity="1" fill-rule="nonzero"/><g clip-path="url(#c895d18fb7)"><path fill="#5479f7" d="M 312.269531 329.773438 L 84.121094 329.046875 C 79.800781 329.046875 76.378906 325.402344 76.65625 321.09375 L 95.347656 27.867188 C 95.597656 23.929688 98.867188 20.863281 102.8125 20.863281 L 331.546875 20.15625 C 335.863281 20.15625 339.898438 24.507812 339.625 28.820312 L 320.933594 322.042969 C 320.679688 325.980469 316.21875 329.773438 312.269531 329.773438 " fill-opacity="1" fill-rule="nonzero"/></g><g clip-path="url(#112841eca8)"><path fill="#ffffff" d="M 305.785156 329.046875 L 76.4375 329.046875 C 72.121094 329.046875 68.699219 325.402344 68.972656 321.09375 L 87.664062 27.867188 C 87.917969 23.929688 91.183594 20.863281 95.128906 20.863281 L 324.480469 20.863281 C 328.796875 20.863281 332.214844 24.507812 331.941406 28.820312 L 313.25 322.042969 C 313 325.980469 309.730469 329.046875 305.785156 329.046875 " fill-opacity="1" fill-rule="nonzero"/></g><g clip-path="url(#76f4092afb)"><path fill="#000000" d="M 305.785156 329.648438 L 82.441406 329.648438 C 82.109375 329.648438 81.839844 329.378906 81.839844 329.046875 C 81.839844 328.714844 82.109375 328.449219 82.441406 328.449219 L 305.785156 328.449219 C 309.40625 328.449219 312.421875 325.617188 312.652344 322.007812 L 331.34375 28.78125 C 331.46875 26.863281 330.808594 25.039062 329.496094 23.636719 C 328.179688 22.234375 326.398438 21.460938 324.476562 21.460938 L 95.128906 21.460938 C 91.511719 21.460938 88.496094 24.292969 88.265625 27.90625 L 83.242188 106.660156 C 83.222656 106.992188 82.933594 107.242188 82.605469 107.222656 C 82.277344 107.203125 82.023438 106.917969 82.046875 106.585938 L 87.066406 27.828125 C 87.335938 23.585938 90.878906 20.261719 95.128906 20.261719 L 324.476562 20.261719 C 326.734375 20.261719 328.828125 21.167969 330.371094 22.816406 C 331.914062 24.460938 332.6875 26.605469 332.542969 28.859375 L 313.851562 322.082031 C 313.582031 326.324219 310.039062 329.648438 305.785156 329.648438 " fill-opacity="1" fill-rule="nonzero"/></g><path fill="#99b9ff" d="M 297.582031 319.5625 L 84.730469 319.5625 C 80.765625 319.5625 77.625 316.21875 77.878906 312.261719 L 95.542969 35.785156 C 95.773438 32.167969 98.773438 29.355469 102.394531 29.355469 L 315.246094 29.355469 C 319.210938 29.355469 322.351562 32.703125 322.097656 36.65625 L 304.433594 313.136719 C 304.203125 316.75 301.203125 319.5625 297.582031 319.5625 " fill-opacity="1" fill-rule="nonzero"/><path fill="#ffffff" d="M 144.351562 106.949219 C 144.339844 106.949219 144.328125 106.949219 144.3125 106.949219 C 143.984375 106.925781 143.730469 106.640625 143.753906 106.3125 L 145.777344 73.976562 C 146.117188 68.59375 150.605469 64.375 156 64.375 L 209.359375 64.375 C 209.691406 64.375 209.957031 64.644531 209.957031 64.976562 C 209.957031 65.308594 209.691406 65.578125 209.359375 65.578125 L 156 65.578125 C 151.238281 65.578125 147.273438 69.300781 146.976562 74.054688 L 144.949219 106.386719 C 144.929688 106.703125 144.664062 106.949219 144.351562 106.949219 " fill-opacity="1" fill-rule="nonzero"/><path fill="#ffffff" d="M 142.046875 143.769531 C 142.03125 143.769531 142.019531 143.769531 142.007812 143.769531 C 141.675781 143.746094 141.425781 143.464844 141.445312 143.132812 L 142.902344 119.875 C 142.921875 119.546875 143.210938 119.296875 143.539062 119.316406 C 143.871094 119.335938 144.121094 119.621094 144.101562 119.953125 L 142.644531 143.207031 C 142.625 143.523438 142.359375 143.769531 142.046875 143.769531 " fill-opacity="1" fill-rule="nonzero"/><path fill="#5479f7" d="M 148.953125 224.113281 L 125.410156 224.113281 C 121.351562 224.113281 117.585938 222.484375 114.804688 219.535156 C 112.023438 216.582031 110.625 212.722656 110.867188 208.675781 L 111.421875 199.335938 C 111.441406 199.003906 111.730469 198.753906 112.058594 198.773438 C 112.386719 198.792969 112.640625 199.074219 112.621094 199.40625 L 112.0625 208.746094 C 111.84375 212.460938 113.125 216 115.679688 218.710938 C 118.230469 221.421875 121.6875 222.910156 125.410156 222.910156 L 148.953125 222.910156 C 149.285156 222.910156 149.554688 223.179688 149.554688 223.511719 C 149.554688 223.84375 149.285156 224.113281 148.953125 224.113281 " fill-opacity="1" fill-rule="nonzero"/><path fill="#5479f7" d="M 113.808594 170.007812 C 113.796875 170.007812 113.785156 170.007812 113.773438 170.007812 C 113.441406 169.984375 113.1875 169.699219 113.210938 169.371094 L 119.453125 64.625 C 119.863281 57.757812 125.574219 52.375 132.457031 52.375 L 183.757812 52.375 C 184.089844 52.375 184.359375 52.644531 184.359375 52.972656 C 184.359375 53.304688 184.089844 53.574219 183.757812 53.574219 L 132.457031 53.574219 C 126.207031 53.574219 121.023438 58.460938 120.652344 64.695312 L 114.40625 169.441406 C 114.386719 169.761719 114.125 170.007812 113.808594 170.007812 " fill-opacity="1" fill-rule="nonzero"/><path fill="#5479f7" d="M 177.789062 132.058594 C 177.773438 132.058594 177.757812 132.054688 177.746094 132.054688 C 177.414062 132.03125 177.164062 131.742188 177.1875 131.414062 L 179.261719 102.726562 C 179.585938 98.269531 183.335938 94.777344 187.804688 94.777344 L 202.15625 94.777344 C 202.492188 94.777344 202.757812 95.046875 202.757812 95.378906 C 202.757812 95.707031 202.492188 95.976562 202.15625 95.976562 L 187.804688 95.976562 C 183.960938 95.976562 180.734375 98.980469 180.460938 102.8125 L 178.386719 131.5 C 178.363281 131.816406 178.101562 132.058594 177.789062 132.058594 " fill-opacity="1" fill-rule="nonzero"/><path fill="#ffffff" d="M 267.742188 199.1875 L 244.5625 199.1875 C 244.230469 199.1875 243.960938 198.917969 243.960938 198.585938 C 243.960938 198.253906 244.230469 197.984375 244.5625 197.984375 L 267.742188 197.984375 C 271.574219 197.984375 275.058594 195.574219 276.40625 191.992188 L 289.664062 156.800781 C 289.777344 156.488281 290.128906 156.332031 290.4375 156.449219 C 290.746094 156.566406 290.90625 156.914062 290.785156 157.222656 L 277.53125 192.414062 C 276.003906 196.464844 272.070312 199.1875 267.742188 199.1875 " fill-opacity="1" fill-rule="nonzero"/><path fill="#5479f7" d="M 159.757812 137.152344 C 159.75 137.152344 159.738281 137.152344 159.722656 137.152344 C 159.390625 137.132812 159.140625 136.84375 159.160156 136.515625 L 162.117188 88.300781 C 162.40625 83.632812 166.292969 79.976562 170.96875 79.976562 L 194.957031 79.976562 C 195.289062 79.976562 195.558594 80.246094 195.558594 80.574219 C 195.558594 80.90625 195.289062 81.175781 194.957031 81.175781 L 170.96875 81.175781 C 166.925781 81.175781 163.5625 84.335938 163.316406 88.375 L 160.355469 136.589844 C 160.339844 136.90625 160.074219 137.152344 159.757812 137.152344 " fill-opacity="1" fill-rule="nonzero"/><path fill="#5479f7" d="M 257.996094 185.40625 L 249.761719 185.40625 C 249.429688 185.40625 249.164062 185.136719 249.164062 184.804688 C 249.164062 184.472656 249.429688 184.203125 249.761719 184.203125 L 257.996094 184.203125 C 260.71875 184.203125 263.171875 182.488281 264.105469 179.929688 L 272.625 156.621094 C 272.738281 156.3125 273.082031 156.152344 273.394531 156.265625 C 273.703125 156.378906 273.863281 156.722656 273.75 157.035156 L 265.234375 180.34375 C 264.128906 183.371094 261.222656 185.40625 257.996094 185.40625 " fill-opacity="1" fill-rule="nonzero"/><path fill="#5479f7" d="M 279.167969 213.1875 L 240.960938 213.1875 C 240.632812 213.1875 240.363281 212.917969 240.363281 212.589844 C 240.363281 212.253906 240.632812 211.988281 240.960938 211.988281 L 279.167969 211.988281 C 283.15625 211.988281 286.742188 209.613281 288.296875 205.9375 L 299.65625 179.097656 C 299.785156 178.792969 300.136719 178.648438 300.441406 178.777344 C 300.746094 178.90625 300.890625 179.257812 300.761719 179.566406 L 289.402344 206.40625 C 287.65625 210.527344 283.640625 213.1875 279.167969 213.1875 " fill-opacity="1" fill-rule="nonzero"/><path fill="#ffffff" d="M 294.6875 155.398438 C 294.6875 157.371094 293.085938 158.96875 291.113281 158.96875 C 289.140625 158.96875 287.542969 157.371094 287.542969 155.398438 C 287.542969 153.421875 289.140625 151.820312 291.113281 151.820312 C 293.085938 151.820312 294.6875 153.421875 294.6875 155.398438 " fill-opacity="1" fill-rule="nonzero"/><path fill="#5479f7" d="M 278.152344 154.046875 C 278.152344 156.019531 276.550781 157.621094 274.578125 157.621094 C 272.601562 157.621094 271.003906 156.019531 271.003906 154.046875 C 271.003906 152.074219 272.601562 150.472656 274.578125 150.472656 C 276.550781 150.472656 278.152344 152.074219 278.152344 154.046875 " fill-opacity="1" fill-rule="nonzero"/><path fill="#5479f7" d="M 304.84375 176.597656 C 304.84375 178.570312 303.246094 180.171875 301.273438 180.171875 C 299.300781 180.171875 297.699219 178.570312 297.699219 176.597656 C 297.699219 174.625 299.300781 173.027344 301.273438 173.027344 C 303.246094 173.027344 304.84375 174.625 304.84375 176.597656 " fill-opacity="1" fill-rule="nonzero"/><path fill="#ffffff" d="M 212.933594 64.976562 C 212.933594 66.949219 211.332031 68.546875 209.359375 68.546875 C 207.386719 68.546875 205.785156 66.949219 205.785156 64.976562 C 205.785156 63 207.386719 61.402344 209.359375 61.402344 C 211.332031 61.402344 212.933594 63 212.933594 64.976562 " fill-opacity="1" fill-rule="nonzero"/><path fill="#5479f7" d="M 198.644531 80.601562 C 198.644531 82.578125 197.046875 84.175781 195.070312 84.175781 C 193.097656 84.175781 191.496094 82.578125 191.496094 80.601562 C 191.496094 78.628906 193.097656 77.027344 195.070312 77.027344 C 197.046875 77.027344 198.644531 78.628906 198.644531 80.601562 " fill-opacity="1" fill-rule="nonzero"/><path fill="#5479f7" d="M 206.382812 95.511719 C 206.382812 97.484375 204.78125 99.082031 202.808594 99.082031 C 200.835938 99.082031 199.234375 97.484375 199.234375 95.511719 C 199.234375 93.535156 200.835938 91.9375 202.808594 91.9375 C 204.78125 91.9375 206.382812 93.535156 206.382812 95.511719 " fill-opacity="1" fill-rule="nonzero"/><path fill="#5479f7" d="M 187.570312 53 C 187.570312 54.972656 185.96875 56.574219 183.996094 56.574219 C 182.023438 56.574219 180.421875 54.972656 180.421875 53 C 180.421875 51.027344 182.023438 49.425781 183.996094 49.425781 C 185.96875 49.425781 187.570312 51.027344 187.570312 53 " fill-opacity="1" fill-rule="nonzero"/><path fill="#d9d9d9" d="M 264.785156 61.171875 L 265.105469 56.0625 C 265.28125 53.296875 263.085938 50.953125 260.3125 50.953125 L 226.195312 50.953125 C 223.660156 50.953125 221.5625 52.921875 221.402344 55.449219 L 217.25 127.691406 C 217.074219 130.460938 219.273438 132.800781 222.042969 132.800781 L 298.933594 134.414062 C 301.464844 134.414062 303.5625 132.449219 303.726562 129.917969 L 307.207031 66.28125 C 307.386719 63.511719 305.1875 61.171875 302.414062 61.171875 L 264.785156 61.171875 " fill-opacity="1" fill-rule="nonzero"/><path fill="#000000" d="M 226.195312 51.554688 C 223.984375 51.554688 222.140625 53.285156 222 55.488281 L 217.851562 127.726562 C 217.777344 128.902344 218.175781 130.019531 218.980469 130.875 C 219.78125 131.730469 220.871094 132.203125 222.042969 132.203125 L 298.945312 133.816406 C 301.144531 133.816406 302.988281 132.085938 303.128906 129.878906 L 306.609375 66.246094 C 306.683594 65.070312 306.285156 63.953125 305.480469 63.097656 C 304.675781 62.242188 303.585938 61.769531 302.414062 61.769531 L 264.785156 61.769531 C 264.617188 61.769531 264.460938 61.703125 264.34375 61.578125 C 264.230469 61.460938 264.171875 61.296875 264.183594 61.132812 L 264.507812 56.023438 C 264.582031 54.855469 264.179688 53.738281 263.378906 52.882812 C 262.574219 52.027344 261.488281 51.554688 260.3125 51.554688 Z M 298.933594 135.015625 L 222.035156 133.402344 C 220.535156 133.402344 219.136719 132.796875 218.101562 131.695312 C 217.070312 130.59375 216.554688 129.160156 216.652344 127.652344 L 220.800781 55.414062 C 220.984375 52.578125 223.351562 50.355469 226.195312 50.355469 L 260.3125 50.355469 C 261.820312 50.355469 263.21875 50.957031 264.253906 52.058594 C 265.285156 53.160156 265.800781 54.597656 265.703125 56.101562 L 265.421875 60.570312 L 302.414062 60.570312 C 303.921875 60.570312 305.320312 61.175781 306.355469 62.277344 C 307.386719 63.375 307.902344 64.8125 307.808594 66.316406 L 304.324219 129.949219 C 304.144531 132.792969 301.777344 135.015625 298.933594 135.015625 " fill-opacity="1" fill-rule="nonzero"/><path fill="#ffffff" d="M 292.921875 129.78125 L 297.066406 77.507812 L 289.5625 69.375 L 234.132812 69.375 C 231.308594 69.375 228.96875 71.558594 228.773438 74.371094 L 224.890625 129.78125 L 292.921875 129.78125 " fill-opacity="1" fill-rule="nonzero"/><path fill="#000000" d="M 225.535156 129.183594 L 292.363281 129.183594 L 296.445312 77.726562 L 289.300781 69.976562 L 234.132812 69.976562 C 231.632812 69.976562 229.546875 71.925781 229.371094 74.414062 Z M 293.476562 130.382812 L 224.246094 130.382812 L 228.175781 74.328125 C 228.390625 71.214844 231.007812 68.777344 234.132812 68.777344 L 289.828125 68.777344 L 297.683594 77.296875 L 293.476562 130.382812 " fill-opacity="1" fill-rule="nonzero"/><path fill="#000000" d="M 297.0625 78.109375 C 297.058594 78.109375 297.050781 78.109375 297.046875 78.109375 L 288.578125 77.859375 C 288.410156 77.851562 288.257812 77.78125 288.148438 77.65625 C 288.035156 77.535156 287.980469 77.371094 287.996094 77.207031 L 288.628906 69.875 C 288.65625 69.546875 288.949219 69.300781 289.28125 69.328125 C 289.609375 69.355469 289.851562 69.644531 289.824219 69.976562 L 289.246094 76.675781 L 297.082031 76.910156 C 297.410156 76.921875 297.675781 77.195312 297.664062 77.527344 C 297.65625 77.855469 297.386719 78.109375 297.0625 78.109375 " fill-opacity="1" fill-rule="nonzero"/><path fill="#99b9ff" d="M 281.765625 87.976562 L 238.5625 87.976562 C 238.230469 87.976562 237.960938 87.710938 237.960938 87.375 C 237.960938 87.046875 238.230469 86.777344 238.5625 86.777344 L 281.765625 86.777344 C 282.09375 86.777344 282.363281 87.046875 282.363281 87.375 C 282.363281 87.710938 282.09375 87.976562 281.765625 87.976562 " fill-opacity="1" fill-rule="nonzero"/><path fill="#99b9ff" d="M 282.164062 82.773438 L 238.964844 82.773438 C 238.628906 82.773438 238.363281 82.507812 238.363281 82.175781 C 238.363281 81.84375 238.628906 81.574219 238.964844 81.574219 L 282.164062 81.574219 C 282.5 81.574219 282.765625 81.84375 282.765625 82.175781 C 282.765625 82.507812 282.5 82.773438 282.164062 82.773438 " fill-opacity="1" fill-rule="nonzero"/><path fill="#99b9ff" d="M 282.964844 77.578125 L 262.5625 77.578125 C 262.230469 77.578125 261.960938 77.308594 261.960938 76.980469 C 261.960938 76.644531 262.230469 76.378906 262.5625 76.378906 L 282.964844 76.378906 C 283.296875 76.378906 283.5625 76.644531 283.5625 76.980469 C 283.5625 77.308594 283.296875 77.578125 282.964844 77.578125 " fill-opacity="1" fill-rule="nonzero"/><path fill="#99b9ff" d="M 251.761719 77.578125 L 239.761719 77.578125 C 239.429688 77.578125 239.160156 77.308594 239.160156 76.980469 C 239.160156 76.644531 239.429688 76.378906 239.761719 76.378906 L 251.761719 76.378906 C 252.09375 76.378906 252.363281 76.644531 252.363281 76.980469 C 252.363281 77.308594 252.09375 77.578125 251.761719 77.578125 " fill-opacity="1" fill-rule="nonzero"/><path fill="#d9d9d9" d="M 298.773438 134.636719 L 221.785156 134.636719 C 219.394531 134.636719 217.371094 133.257812 217.027344 131.390625 L 210.910156 98.191406 C 210.484375 95.902344 212.734375 93.851562 215.664062 93.851562 L 292.652344 93.851562 C 295.039062 93.851562 297.0625 95.234375 297.40625 97.097656 L 303.527344 130.300781 C 303.949219 132.589844 301.703125 134.636719 298.773438 134.636719 " fill-opacity="1" fill-rule="nonzero"/><path fill="#000000" d="M 298.773438 135.238281 L 244.410156 135.238281 C 244.078125 135.238281 243.8125 134.96875 243.8125 134.636719 C 243.8125 134.308594 244.078125 134.039062 244.410156 134.039062 L 298.773438 134.039062 C 300.222656 134.039062 301.550781 133.480469 302.328125 132.542969 C 302.703125 132.09375 303.113281 131.359375 302.9375 130.410156 L 296.816406 97.207031 C 296.527344 95.636719 294.738281 94.453125 292.652344 94.453125 L 215.664062 94.453125 C 214.214844 94.453125 212.882812 95.011719 212.105469 95.949219 C 211.734375 96.398438 211.324219 97.132812 211.5 98.082031 L 214.367188 113.652344 C 214.429688 113.976562 214.214844 114.289062 213.886719 114.347656 C 213.5625 114.40625 213.246094 114.195312 213.1875 113.867188 L 210.316406 98.300781 C 210.117188 97.203125 210.421875 96.09375 211.183594 95.179688 C 212.1875 93.972656 213.859375 93.253906 215.664062 93.253906 L 292.652344 93.253906 C 295.351562 93.253906 297.597656 94.824219 297.996094 96.992188 L 304.117188 130.195312 C 304.320312 131.289062 304.011719 132.398438 303.253906 133.308594 C 302.246094 134.519531 300.574219 135.238281 298.773438 135.238281 " fill-opacity="1" fill-rule="nonzero"/><path fill="#5479f7" d="M 234.277344 293.292969 C 226.257812 293.980469 219.199219 288.03125 218.511719 280.007812 C 217.828125 271.984375 223.777344 264.921875 231.804688 264.238281 C 239.828125 263.554688 246.886719 269.503906 247.566406 277.527344 C 248.253906 285.550781 242.304688 292.609375 234.277344 293.292969 Z M 260.460938 270.230469 C 260.386719 269.894531 260.085938 269.65625 259.742188 269.660156 L 254.761719 269.679688 C 254.472656 269.679688 254.210938 269.507812 254.09375 269.242188 C 253.691406 268.351562 253.238281 267.492188 252.738281 266.671875 C 252.585938 266.425781 252.589844 266.113281 252.753906 265.875 L 255.5625 261.765625 C 255.753906 261.480469 255.726562 261.101562 255.492188 260.847656 L 252.523438 257.65625 C 252.289062 257.402344 251.914062 257.347656 251.613281 257.519531 L 247.308594 260.03125 C 247.058594 260.175781 246.75 260.15625 246.515625 259.988281 C 245.726562 259.421875 244.90625 258.910156 244.054688 258.445312 C 243.800781 258.308594 243.648438 258.035156 243.671875 257.746094 L 244.050781 252.773438 C 244.074219 252.433594 243.859375 252.117188 243.53125 252.015625 L 239.367188 250.734375 C 239.035156 250.632812 238.683594 250.773438 238.511719 251.074219 L 236.039062 255.394531 C 235.894531 255.644531 235.617188 255.785156 235.328125 255.753906 C 234.375 255.660156 233.40625 255.628906 232.429688 255.65625 C 232.140625 255.664062 231.867188 255.507812 231.742188 255.242188 L 229.585938 250.75 C 229.441406 250.441406 229.097656 250.277344 228.761719 250.351562 L 224.515625 251.328125 C 224.175781 251.402344 223.941406 251.703125 223.941406 252.046875 L 223.960938 257.03125 C 223.960938 257.320312 223.789062 257.582031 223.523438 257.699219 C 222.632812 258.101562 221.773438 258.554688 220.957031 259.058594 C 220.707031 259.207031 220.398438 259.203125 220.160156 259.042969 L 216.054688 256.234375 C 215.769531 256.039062 215.386719 256.066406 215.136719 256.300781 L 211.945312 259.269531 C 211.695312 259.503906 211.636719 259.882812 211.808594 260.179688 L 214.320312 264.492188 C 214.464844 264.742188 214.445312 265.050781 214.277344 265.285156 C 213.710938 266.074219 213.195312 266.894531 212.734375 267.746094 C 212.597656 268 212.328125 268.152344 212.035156 268.128906 L 207.066406 267.75 C 206.726562 267.726562 206.410156 267.941406 206.3125 268.269531 L 205.03125 272.441406 C 204.925781 272.769531 205.066406 273.125 205.367188 273.292969 L 209.683594 275.765625 C 209.933594 275.910156 210.074219 276.1875 210.046875 276.476562 C 209.949219 277.433594 209.917969 278.40625 209.945312 279.382812 C 209.953125 279.671875 209.796875 279.941406 209.53125 280.066406 L 205.042969 282.222656 C 204.734375 282.375 204.570312 282.714844 204.644531 283.050781 L 205.621094 287.300781 C 205.699219 287.636719 205.996094 287.875 206.339844 287.875 L 211.320312 287.855469 C 211.609375 287.855469 211.871094 288.027344 211.988281 288.292969 C 212.390625 289.183594 212.84375 290.042969 213.34375 290.863281 C 213.496094 291.109375 213.492188 291.421875 213.332031 291.660156 L 210.519531 295.769531 C 210.328125 296.054688 210.355469 296.433594 210.589844 296.683594 L 213.558594 299.878906 C 213.792969 300.128906 214.167969 300.1875 214.464844 300.015625 L 218.769531 297.503906 C 219.023438 297.359375 219.332031 297.378906 219.570312 297.546875 C 220.355469 298.113281 221.175781 298.628906 222.027344 299.089844 C 222.28125 299.226562 222.433594 299.496094 222.414062 299.789062 L 222.03125 304.757812 C 222.007812 305.101562 222.222656 305.417969 222.550781 305.519531 L 226.714844 306.800781 C 227.046875 306.902344 227.398438 306.757812 227.570312 306.460938 L 230.042969 302.140625 C 230.183594 301.890625 230.460938 301.75 230.75 301.777344 C 231.707031 301.875 232.675781 301.90625 233.65625 301.878906 C 233.945312 301.871094 234.214844 302.027344 234.339844 302.289062 L 236.492188 306.785156 C 236.640625 307.09375 236.988281 307.257812 237.320312 307.183594 L 241.570312 306.207031 C 241.90625 306.128906 242.140625 305.832031 242.140625 305.488281 L 242.121094 300.503906 C 242.121094 300.210938 242.292969 299.953125 242.558594 299.835938 C 243.449219 299.433594 244.308594 298.980469 245.125 298.476562 C 245.375 298.324219 245.683594 298.328125 245.925781 298.492188 L 250.027344 301.300781 C 250.3125 301.496094 250.691406 301.464844 250.945312 301.234375 L 254.136719 298.261719 C 254.390625 298.027344 254.445312 297.652344 254.269531 297.351562 L 251.765625 293.042969 C 251.617188 292.792969 251.640625 292.484375 251.808594 292.25 C 252.371094 291.460938 252.886719 290.640625 253.347656 289.789062 C 253.484375 289.535156 253.757812 289.382812 254.046875 289.402344 L 259.011719 289.78125 C 259.355469 289.808594 259.671875 289.59375 259.773438 289.265625 L 261.054688 285.09375 C 261.152344 284.765625 261.011719 284.410156 260.714844 284.238281 L 256.398438 281.765625 C 256.148438 281.625 256.007812 281.347656 256.035156 281.058594 C 256.128906 280.101562 256.164062 279.128906 256.136719 278.152344 C 256.128906 277.859375 256.285156 277.59375 256.546875 277.46875 L 261.039062 275.3125 C 261.347656 275.160156 261.515625 274.816406 261.4375 274.484375 L 260.460938 270.230469 " fill-opacity="1" fill-rule="nonzero"/><path fill="#5479f7" d="M 281.726562 268.246094 C 275.8125 269.433594 270.058594 265.601562 268.867188 259.691406 C 267.683594 253.777344 271.511719 248.023438 277.425781 246.835938 C 283.335938 245.648438 289.09375 249.476562 290.277344 255.386719 C 291.46875 261.300781 287.640625 267.058594 281.726562 268.246094 Z M 299.257812 248.871094 C 299.167969 248.625 298.929688 248.472656 298.671875 248.503906 L 294.96875 248.941406 C 294.75 248.964844 294.542969 248.859375 294.433594 248.671875 C 294.0625 248.039062 293.652344 247.441406 293.207031 246.871094 C 293.074219 246.703125 293.050781 246.46875 293.152344 246.28125 L 294.894531 242.984375 C 295.015625 242.757812 294.960938 242.476562 294.765625 242.308594 L 292.285156 240.183594 C 292.09375 240.015625 291.804688 240.003906 291.597656 240.160156 L 288.605469 242.390625 C 288.433594 242.519531 288.199219 242.535156 288.011719 242.425781 C 287.378906 242.074219 286.726562 241.757812 286.050781 241.488281 C 285.851562 241.40625 285.714844 241.21875 285.707031 241 L 285.566406 237.269531 C 285.558594 237.011719 285.371094 236.796875 285.121094 236.746094 L 281.910156 236.148438 C 281.65625 236.101562 281.40625 236.234375 281.304688 236.472656 L 279.832031 239.894531 C 279.742188 240.09375 279.550781 240.222656 279.332031 240.222656 C 278.613281 240.234375 277.890625 240.292969 277.164062 240.394531 C 276.949219 240.425781 276.734375 240.328125 276.617188 240.148438 L 274.636719 236.984375 C 274.5 236.765625 274.230469 236.671875 273.988281 236.757812 L 270.910156 237.84375 C 270.667969 237.929688 270.515625 238.171875 270.546875 238.425781 L 270.980469 242.132812 C 271.003906 242.351562 270.898438 242.558594 270.710938 242.667969 C 270.082031 243.042969 269.484375 243.453125 268.914062 243.894531 C 268.746094 244.027344 268.515625 244.054688 268.320312 243.953125 L 265.03125 242.207031 C 264.800781 242.089844 264.519531 242.140625 264.351562 242.335938 L 262.230469 244.816406 C 262.0625 245.015625 262.050781 245.296875 262.207031 245.503906 L 264.4375 248.5 C 264.566406 248.675781 264.578125 248.90625 264.472656 249.09375 C 264.121094 249.730469 263.804688 250.382812 263.53125 251.058594 C 263.453125 251.257812 263.265625 251.394531 263.046875 251.402344 L 259.320312 251.539062 C 259.0625 251.546875 258.847656 251.734375 258.796875 251.988281 L 258.195312 255.203125 C 258.152344 255.453125 258.285156 255.707031 258.519531 255.808594 L 261.941406 257.285156 C 262.140625 257.367188 262.269531 257.5625 262.269531 257.78125 C 262.285156 258.5 262.339844 259.226562 262.441406 259.953125 C 262.472656 260.164062 262.378906 260.378906 262.195312 260.496094 L 259.035156 262.480469 C 258.816406 262.613281 258.722656 262.886719 258.808594 263.128906 L 259.894531 266.210938 C 259.980469 266.453125 260.222656 266.605469 260.476562 266.574219 L 264.179688 266.140625 C 264.394531 266.113281 264.605469 266.222656 264.71875 266.40625 C 265.089844 267.039062 265.5 267.636719 265.941406 268.207031 C 266.078125 268.378906 266.101562 268.609375 266 268.800781 L 264.253906 272.09375 C 264.136719 272.320312 264.1875 272.601562 264.386719 272.769531 L 266.863281 274.894531 C 267.058594 275.0625 267.34375 275.074219 267.550781 274.917969 L 270.542969 272.6875 C 270.71875 272.558594 270.953125 272.546875 271.136719 272.652344 C 271.769531 273.007812 272.425781 273.320312 273.097656 273.59375 C 273.300781 273.671875 273.4375 273.863281 273.441406 274.078125 L 273.582031 277.808594 C 273.59375 278.066406 273.78125 278.285156 274.03125 278.332031 L 277.238281 278.933594 C 277.492188 278.980469 277.746094 278.84375 277.847656 278.609375 L 279.320312 275.1875 C 279.40625 274.984375 279.601562 274.859375 279.816406 274.855469 C 280.539062 274.84375 281.261719 274.789062 281.988281 274.683594 C 282.203125 274.65625 282.414062 274.75 282.527344 274.933594 L 284.515625 278.09375 C 284.648438 278.3125 284.921875 278.40625 285.164062 278.320312 L 288.242188 277.234375 C 288.484375 277.148438 288.636719 276.90625 288.605469 276.652344 L 288.171875 272.945312 C 288.144531 272.726562 288.253906 272.519531 288.4375 272.410156 C 289.070312 272.035156 289.667969 271.625 290.234375 271.183594 C 290.40625 271.046875 290.636719 271.023438 290.828125 271.125 L 294.121094 272.871094 C 294.351562 272.992188 294.628906 272.9375 294.796875 272.742188 L 296.921875 270.261719 C 297.085938 270.066406 297.097656 269.78125 296.945312 269.574219 L 294.714844 266.582031 C 294.585938 266.40625 294.574219 266.171875 294.675781 265.984375 C 295.03125 265.351562 295.34375 264.695312 295.617188 264.023438 C 295.699219 263.820312 295.886719 263.6875 296.101562 263.675781 L 299.832031 263.539062 C 300.089844 263.53125 300.304688 263.34375 300.351562 263.089844 L 300.953125 259.878906 C 301 259.625 300.867188 259.371094 300.628906 259.269531 L 297.207031 257.796875 C 297.007812 257.710938 296.882812 257.515625 296.878906 257.300781 C 296.867188 256.578125 296.808594 255.855469 296.707031 255.128906 C 296.675781 254.914062 296.773438 254.699219 296.953125 254.585938 L 300.117188 252.601562 C 300.332031 252.460938 300.425781 252.191406 300.339844 251.949219 L 299.257812 248.871094 " fill-opacity="1" fill-rule="nonzero"/><path fill="#ffffff" d="M 130.484375 272.925781 C 124.332031 272.992188 119.292969 268.054688 119.230469 261.902344 C 119.164062 255.75 124.101562 250.710938 130.253906 250.644531 C 136.40625 250.582031 141.445312 255.519531 141.507812 261.671875 C 141.574219 267.824219 136.636719 272.863281 130.484375 272.925781 Z M 151.75 256.847656 C 151.710938 256.585938 151.496094 256.386719 151.234375 256.367188 L 147.4375 256.101562 C 147.21875 256.085938 147.027344 255.9375 146.953125 255.730469 C 146.699219 255.027344 146.402344 254.347656 146.066406 253.691406 C 145.964844 253.496094 145.984375 253.261719 146.125 253.085938 L 148.5 250.117188 C 148.664062 249.910156 148.664062 249.617188 148.5 249.414062 L 146.417969 246.8125 C 146.253906 246.605469 145.96875 246.542969 145.734375 246.65625 L 142.3125 248.320312 C 142.113281 248.421875 141.875 248.386719 141.707031 248.246094 C 141.140625 247.769531 140.542969 247.332031 139.921875 246.929688 C 139.734375 246.8125 139.632812 246.59375 139.667969 246.375 L 140.238281 242.609375 C 140.28125 242.347656 140.132812 242.097656 139.890625 242 L 136.789062 240.789062 C 136.542969 240.691406 136.265625 240.78125 136.117188 240.996094 L 133.988281 244.148438 C 133.863281 244.332031 133.644531 244.421875 133.425781 244.382812 C 132.703125 244.253906 131.96875 244.175781 131.222656 244.140625 C 131 244.128906 130.804688 243.996094 130.722656 243.789062 L 129.335938 240.242188 C 129.242188 239.996094 128.988281 239.851562 128.730469 239.890625 L 125.4375 240.390625 C 125.175781 240.429688 124.980469 240.648438 124.960938 240.90625 L 124.691406 244.707031 C 124.675781 244.929688 124.527344 245.113281 124.320312 245.191406 C 123.617188 245.449219 122.9375 245.742188 122.285156 246.078125 C 122.089844 246.179688 121.851562 246.160156 121.679688 246.019531 L 118.710938 243.644531 C 118.503906 243.484375 118.214844 243.484375 118.007812 243.644531 L 115.40625 245.730469 C 115.203125 245.894531 115.136719 246.175781 115.253906 246.414062 L 116.917969 249.839844 C 117.015625 250.039062 116.984375 250.273438 116.839844 250.445312 C 116.367188 251.011719 115.925781 251.609375 115.527344 252.230469 C 115.40625 252.417969 115.191406 252.515625 114.972656 252.484375 L 111.207031 251.914062 C 110.949219 251.871094 110.695312 252.019531 110.601562 252.261719 L 109.386719 255.367188 C 109.292969 255.613281 109.378906 255.890625 109.597656 256.039062 L 112.742188 258.167969 C 112.925781 258.292969 113.015625 258.511719 112.980469 258.730469 C 112.851562 259.453125 112.773438 260.191406 112.738281 260.9375 C 112.726562 261.160156 112.589844 261.355469 112.382812 261.4375 L 108.839844 262.824219 C 108.597656 262.917969 108.449219 263.171875 108.488281 263.429688 L 108.988281 266.726562 C 109.03125 266.988281 109.242188 267.183594 109.507812 267.203125 L 113.300781 267.472656 C 113.523438 267.488281 113.710938 267.636719 113.785156 267.84375 C 114.039062 268.546875 114.335938 269.226562 114.671875 269.878906 C 114.773438 270.078125 114.753906 270.3125 114.613281 270.484375 L 112.242188 273.457031 C 112.078125 273.660156 112.078125 273.953125 112.242188 274.160156 L 114.320312 276.761719 C 114.484375 276.964844 114.769531 277.03125 115.007812 276.914062 L 118.429688 275.25 C 118.628906 275.152344 118.863281 275.183594 119.035156 275.328125 C 119.601562 275.800781 120.195312 276.242188 120.820312 276.640625 C 121.003906 276.761719 121.105469 276.976562 121.074219 277.195312 L 120.5 280.960938 C 120.460938 281.222656 120.605469 281.476562 120.851562 281.570312 L 123.953125 282.785156 C 124.199219 282.878906 124.476562 282.792969 124.621094 282.574219 L 126.75 279.425781 C 126.875 279.242188 127.09375 279.152344 127.3125 279.191406 C 128.035156 279.316406 128.773438 279.398438 129.519531 279.429688 C 129.742188 279.441406 129.9375 279.578125 130.015625 279.785156 L 131.402344 283.332031 C 131.5 283.574219 131.75 283.71875 132.011719 283.679688 L 135.304688 283.179688 C 135.5625 283.140625 135.761719 282.925781 135.777344 282.664062 L 136.050781 278.867188 C 136.066406 278.644531 136.210938 278.457031 136.421875 278.382812 C 137.121094 278.125 137.800781 277.828125 138.457031 277.492188 C 138.652344 277.394531 138.886719 277.414062 139.0625 277.550781 L 142.027344 279.925781 C 142.234375 280.089844 142.527344 280.089844 142.730469 279.925781 L 145.332031 277.84375 C 145.539062 277.679688 145.601562 277.394531 145.488281 277.160156 L 143.820312 273.734375 C 143.722656 273.53125 143.757812 273.296875 143.898438 273.128906 C 144.375 272.5625 144.8125 271.964844 145.214844 271.34375 C 145.332031 271.15625 145.546875 271.054688 145.769531 271.089844 L 149.53125 271.660156 C 149.789062 271.699219 150.042969 271.554688 150.140625 271.308594 L 151.351562 268.203125 C 151.449219 267.960938 151.363281 267.679688 151.144531 267.535156 L 147.996094 265.40625 C 147.8125 265.28125 147.722656 265.058594 147.761719 264.84375 C 147.886719 264.117188 147.96875 263.378906 148.003906 262.632812 C 148.011719 262.410156 148.148438 262.214844 148.355469 262.136719 L 151.902344 260.75 C 152.144531 260.652344 152.289062 260.402344 152.25 260.140625 L 151.75 256.847656 " fill-opacity="1" fill-rule="nonzero"/><path fill="#5479f7" d="M 138.839844 144.628906 L 155.230469 136.582031 C 168.566406 130.035156 181.011719 121.8125 192.261719 112.105469 L 193.066406 107.125 C 193.066406 107.125 198.625 107.1875 199.8125 107.117188 C 201.332031 107.03125 202.875 107.5625 204.039062 108.699219 C 216.25 120.652344 230.148438 130.738281 245.296875 138.640625 L 256.015625 144.234375 C 258.503906 145.535156 259.421875 147.824219 258.671875 151.113281 L 244.664062 210.277344 C 238.570312 226.828125 214.015625 248.976562 200.199219 260.507812 C 197.683594 262.601562 194.613281 263.628906 191.554688 263.609375 C 190.195312 263.601562 184.582031 263.777344 184.582031 263.777344 C 184.582031 263.777344 183.390625 261.410156 181.820312 259.8125 C 169.398438 247.195312 147.613281 222.90625 143.191406 203.777344 L 135.859375 150.898438 C 135.277344 148.367188 136.511719 145.769531 138.839844 144.628906 " fill-opacity="1" fill-rule="nonzero"/><path fill="#ffffff" d="M 132.632812 144.941406 L 148.898438 136.960938 C 162.128906 130.464844 174.476562 122.304688 185.640625 112.675781 L 189.832031 109.0625 C 192.011719 107.183594 195.269531 107.285156 197.324219 109.296875 C 209.4375 121.152344 223.234375 131.164062 238.261719 139.003906 L 248.894531 144.550781 C 251.367188 145.839844 252.496094 148.765625 251.53125 151.382812 L 237.636719 210.082031 C 231.585938 226.503906 206.964844 248.6875 193.253906 260.128906 C 187.941406 264.558594 180.128906 264.160156 175.277344 259.234375 C 162.957031 246.714844 141.335938 222.613281 136.949219 203.632812 L 129.675781 151.164062 C 129.097656 148.65625 130.320312 146.078125 132.632812 144.941406 " fill-opacity="1" fill-rule="nonzero"/><path fill="#d9d9d9" d="M 142.625 151.914062 L 156.089844 145.304688 C 167.046875 139.929688 177.269531 133.171875 186.511719 125.199219 L 189.980469 122.207031 C 191.785156 120.648438 194.484375 120.734375 196.1875 122.402344 C 206.214844 132.214844 217.636719 140.503906 230.082031 146.996094 L 238.882812 151.59375 C 240.929688 152.65625 241.863281 155.078125 241.066406 157.246094 L 229.5625 205.847656 C 224.554688 219.445312 204.167969 237.8125 192.8125 247.28125 C 188.417969 250.949219 181.945312 250.625 177.929688 246.542969 C 167.730469 236.179688 149.828125 216.222656 146.199219 200.507812 L 140.175781 157.066406 C 139.695312 154.988281 140.710938 152.855469 142.625 151.914062 " fill-opacity="1" fill-rule="nonzero"/><path fill="#000000" d="M 184.769531 263.777344 C 181.152344 263.777344 177.539062 262.386719 174.847656 259.65625 C 162.371094 246.972656 140.773438 222.851562 136.367188 203.769531 C 136.363281 203.753906 136.359375 203.734375 136.359375 203.71875 L 134.476562 190.152344 C 134.429688 189.824219 134.660156 189.523438 134.988281 189.476562 C 135.316406 189.433594 135.621094 189.660156 135.664062 189.988281 L 137.539062 203.523438 C 141.898438 222.316406 163.320312 246.230469 175.707031 258.8125 C 180.300781 263.484375 187.839844 263.859375 192.867188 259.667969 C 206.800781 248.042969 231.066406 226.125 237.058594 209.910156 L 250.949219 151.242188 C 250.953125 151.21875 250.957031 151.195312 250.96875 151.175781 C 251.824219 148.847656 250.8125 146.234375 248.617188 145.085938 L 237.984375 139.539062 C 222.894531 131.664062 209.070312 121.632812 196.90625 109.726562 C 195.054688 107.917969 192.179688 107.828125 190.222656 109.515625 L 186.03125 113.132812 C 174.839844 122.789062 162.433594 130.988281 149.160156 137.5 L 132.898438 145.484375 C 130.824219 146.5 129.742188 148.78125 130.261719 151.03125 C 130.265625 151.046875 130.269531 151.0625 130.269531 151.082031 L 133.390625 173.597656 C 133.4375 173.925781 133.207031 174.230469 132.878906 174.273438 C 132.554688 174.316406 132.25 174.089844 132.203125 173.765625 L 129.085938 151.273438 C 128.457031 148.488281 129.800781 145.664062 132.371094 144.40625 L 148.632812 136.425781 C 161.8125 129.953125 174.132812 121.8125 185.246094 112.222656 L 189.4375 108.609375 C 191.875 106.507812 195.445312 106.617188 197.742188 108.867188 C 209.828125 120.691406 223.554688 130.65625 238.539062 138.472656 L 249.171875 144.023438 C 251.890625 145.441406 253.148438 148.671875 252.109375 151.554688 L 238.21875 210.222656 C 238.210938 210.242188 238.207031 210.269531 238.199219 210.292969 C 232.125 226.773438 207.671875 248.878906 193.632812 260.589844 C 191.074219 262.726562 187.917969 263.777344 184.769531 263.777344 " fill-opacity="1" fill-rule="nonzero"/><path fill="#ffffff" d="M 200.007812 166.089844 L 199.761719 150.519531 C 199.644531 145.492188 195.65625 141.371094 190.632812 141.140625 C 185.089844 140.886719 180.496094 145.417969 180.621094 150.960938 L 180.734375 155.792969 C 180.769531 157.476562 179.378906 158.84375 177.695312 158.777344 C 176.148438 158.714844 174.917969 157.453125 174.894531 155.902344 L 174.828125 151.3125 C 174.621094 142.40625 181.75 135.097656 190.941406 135.46875 L 190.941406 135.476562 C 198.535156 135.785156 205.484375 142.46875 205.675781 150.605469 L 205.871094 166.328125 L 200.007812 166.089844 " fill-opacity="1" fill-rule="nonzero"/><path fill="#000000" d="M 200.601562 165.515625 L 205.265625 165.703125 L 205.074219 150.613281 C 204.898438 143.039062 198.414062 136.382812 190.917969 136.078125 C 190.886719 136.078125 190.851562 136.074219 190.824219 136.066406 C 186.644531 135.921875 182.757812 137.410156 179.855469 140.265625 C 176.902344 143.167969 175.328125 147.085938 175.429688 151.300781 L 175.492188 155.890625 C 175.511719 157.125 176.488281 158.125 177.71875 158.175781 C 178.371094 158.207031 178.976562 157.964844 179.441406 157.511719 C 179.902344 157.058594 180.148438 156.453125 180.132812 155.804688 L 180.023438 150.976562 C 179.957031 148.15625 181.078125 145.40625 183.101562 143.429688 C 185.140625 141.4375 187.832031 140.414062 190.660156 140.542969 C 195.976562 140.785156 200.238281 145.164062 200.359375 150.507812 Z M 205.871094 166.929688 C 205.863281 166.929688 205.855469 166.929688 205.847656 166.929688 L 199.984375 166.6875 C 199.664062 166.675781 199.414062 166.417969 199.410156 166.097656 L 199.160156 150.527344 C 199.054688 145.820312 195.296875 141.957031 190.605469 141.742188 C 188.109375 141.632812 185.738281 142.53125 183.9375 144.289062 C 182.15625 146.03125 181.164062 148.460938 181.222656 150.949219 L 181.332031 155.777344 C 181.355469 156.761719 180.980469 157.679688 180.28125 158.371094 C 179.589844 159.046875 178.636719 159.417969 177.671875 159.375 C 175.804688 159.300781 174.320312 157.777344 174.292969 155.910156 L 174.226562 151.324219 C 174.121094 146.78125 175.820312 142.550781 179.011719 139.410156 C 182.179688 136.300781 186.429688 134.6875 190.96875 134.871094 C 191 134.871094 191.03125 134.875 191.066406 134.882812 C 199.128906 135.265625 206.085938 142.4375 206.273438 150.589844 L 206.472656 166.320312 C 206.472656 166.484375 206.410156 166.644531 206.292969 166.757812 C 206.179688 166.867188 206.027344 166.929688 205.871094 166.929688 " fill-opacity="1" fill-rule="nonzero"/><path fill="#5479f7" d="M 193.5 208.894531 L 186.933594 209.15625 C 177.839844 208.925781 169.796875 198.058594 170.664062 185.285156 L 172.042969 164.851562 L 210.695312 164.539062 C 214.125 164.523438 217 167.585938 216.761719 171.007812 L 215.570312 188.265625 C 214.785156 199.875 205.136719 208.894531 193.5 208.894531 " fill-opacity="1" fill-rule="nonzero"/><path fill="#ffffff" d="M 187.167969 208.574219 C 174.363281 208.574219 164.234375 197.738281 165.097656 184.960938 L 166.4375 165.152344 L 207.304688 165.152344 C 209.183594 165.152344 210.671875 166.742188 210.542969 168.617188 L 209.238281 187.945312 C 208.453125 199.558594 198.804688 208.574219 187.167969 208.574219 " fill-opacity="1" fill-rule="nonzero"/><path fill="#000000" d="M 187.167969 209.175781 C 175.960938 209.175781 166.292969 200.828125 164.683594 189.757812 C 164.636719 189.429688 164.863281 189.125 165.191406 189.074219 C 165.519531 189.027344 165.824219 189.253906 165.871094 189.582031 C 167.398438 200.066406 176.554688 207.976562 187.167969 207.976562 C 198.445312 207.976562 207.878906 199.160156 208.640625 187.90625 L 209.953125 168.476562 C 210 167.765625 209.757812 167.082031 209.269531 166.5625 C 208.78125 166.039062 208.121094 165.753906 207.40625 165.753906 L 169.636719 165.753906 C 168.15625 165.753906 166.917969 166.910156 166.820312 168.386719 L 166.636719 171.09375 C 166.613281 171.425781 166.324219 171.679688 165.996094 171.652344 C 165.667969 171.628906 165.417969 171.34375 165.4375 171.011719 L 165.621094 168.304688 C 165.765625 166.199219 167.527344 164.550781 169.636719 164.550781 L 207.40625 164.550781 C 208.441406 164.550781 209.441406 164.984375 210.148438 165.742188 C 210.855469 166.5 211.21875 167.523438 211.148438 168.558594 L 209.835938 187.988281 C 209.035156 199.871094 199.078125 209.175781 187.167969 209.175781 " fill-opacity="1" fill-rule="nonzero"/><path fill="#000000" d="M 186.660156 196.042969 C 185.617188 196.042969 184.789062 195.164062 184.855469 194.121094 L 185.835938 178.71875 C 185.898438 177.769531 186.6875 177.027344 187.640625 177.027344 C 188.683594 177.027344 189.511719 177.910156 189.445312 178.949219 L 188.464844 194.351562 C 188.402344 195.300781 187.613281 196.042969 186.660156 196.042969 " fill-opacity="1" fill-rule="nonzero"/><path fill="#000000" d="M 193.945312 180.121094 C 193.945312 183.792969 190.96875 186.773438 187.292969 186.773438 C 183.617188 186.773438 180.640625 183.792969 180.640625 180.121094 C 180.640625 176.449219 183.617188 173.46875 187.292969 173.46875 C 190.96875 173.46875 193.945312 176.449219 193.945312 180.121094 " fill-opacity="1" fill-rule="nonzero"/><path fill="#99b9ff" d="M 159.03125 202.71875 C 155.558594 202.71875 152.210938 200.765625 149.597656 197.222656 C 149.398438 196.957031 149.457031 196.582031 149.722656 196.386719 C 149.988281 196.1875 150.367188 196.242188 150.5625 196.511719 C 152.945312 199.742188 155.953125 201.519531 159.03125 201.519531 C 166.359375 201.519531 172.320312 191.769531 172.320312 179.789062 C 172.320312 167.808594 166.359375 158.0625 159.03125 158.0625 C 155.894531 158.0625 152.84375 159.898438 150.4375 163.238281 C 150.246094 163.507812 149.871094 163.570312 149.601562 163.375 C 149.332031 163.179688 149.273438 162.804688 149.464844 162.539062 C 152.101562 158.875 155.496094 156.863281 159.03125 156.863281 C 167.019531 156.863281 173.523438 167.148438 173.523438 179.789062 C 173.523438 192.433594 167.019531 202.71875 159.03125 202.71875 " fill-opacity="1" fill-rule="nonzero"/><path fill="#99b9ff" d="M 174.960938 187.886719 C 174.628906 187.886719 174.363281 187.617188 174.363281 187.285156 C 174.363281 186.953125 174.628906 186.6875 174.960938 186.6875 C 177.164062 186.6875 179.023438 183.527344 179.023438 179.789062 C 179.023438 176.050781 177.164062 172.894531 174.960938 172.894531 C 174.628906 172.894531 174.363281 172.625 174.363281 172.292969 C 174.363281 171.960938 174.628906 171.695312 174.960938 171.695312 C 177.914062 171.695312 180.226562 175.25 180.226562 179.789062 C 180.226562 184.332031 177.914062 187.886719 174.960938 187.886719 " fill-opacity="1" fill-rule="nonzero"/><path fill="#99b9ff" d="M 146.519531 184.28125 C 143.898438 184.28125 141.773438 182.15625 141.773438 179.53125 C 141.773438 176.910156 143.898438 174.785156 146.519531 174.785156 C 149.144531 174.785156 151.269531 176.910156 151.269531 179.53125 C 151.269531 182.15625 149.144531 184.28125 146.519531 184.28125 Z M 186.457031 176.984375 L 165.238281 176.984375 C 163.871094 169.382812 158.078125 165.335938 151.140625 165.335938 C 143.1875 165.335938 136.734375 171.679688 136.734375 179.636719 C 136.734375 187.589844 143.1875 194.027344 151.140625 194.027344 C 157.933594 194.027344 163.625 189.386719 165.144531 182.984375 L 186.457031 182.984375 C 188.207031 182.984375 189.625 181.734375 189.625 179.984375 C 189.625 178.234375 188.207031 176.984375 186.457031 176.984375 " fill-opacity="1" fill-rule="nonzero"/><path fill="#000000" d="M 146.519531 175.386719 C 144.234375 175.386719 142.375 177.246094 142.375 179.53125 C 142.375 181.820312 144.234375 183.679688 146.519531 183.679688 C 148.808594 183.679688 150.671875 181.820312 150.671875 179.53125 C 150.671875 177.246094 148.808594 175.386719 146.519531 175.386719 Z M 146.519531 184.882812 C 143.570312 184.882812 141.171875 182.480469 141.171875 179.53125 C 141.171875 176.582031 143.570312 174.183594 146.519531 174.183594 C 149.46875 174.183594 151.871094 176.582031 151.871094 179.53125 C 151.871094 182.480469 149.46875 184.882812 146.519531 184.882812 Z M 151.140625 165.9375 C 143.527344 165.9375 137.335938 172.082031 137.335938 179.636719 C 137.335938 187.242188 143.527344 193.429688 151.140625 193.429688 C 157.5625 193.429688 163.082031 189.074219 164.558594 182.847656 C 164.621094 182.574219 164.863281 182.386719 165.144531 182.386719 L 186.457031 182.386719 C 187.921875 182.386719 189.027344 181.355469 189.027344 179.984375 C 189.027344 178.617188 187.921875 177.585938 186.457031 177.585938 L 165.238281 177.585938 C 164.949219 177.585938 164.699219 177.375 164.644531 177.09375 C 163.410156 170.210938 158.234375 165.9375 151.140625 165.9375 Z M 151.140625 194.628906 C 142.867188 194.628906 136.136719 187.902344 136.136719 179.636719 C 136.136719 171.421875 142.867188 164.738281 151.140625 164.738281 C 158.683594 164.738281 164.230469 169.183594 165.734375 176.382812 L 186.457031 176.382812 C 188.570312 176.382812 190.226562 177.964844 190.226562 179.984375 C 190.226562 182.003906 188.570312 183.585938 186.457031 183.585938 L 165.609375 183.585938 C 163.84375 190.113281 157.960938 194.628906 151.140625 194.628906 " fill-opacity="1" fill-rule="nonzero"/><path fill="#ffffff" d="M 67.128906 327.46875 L 65.898438 340.53125 C 65.855469 340.898438 66.101562 341.234375 66.429688 341.257812 L 72.914062 341.65625 C 73.195312 341.675781 73.433594 341.449219 73.472656 341.136719 L 74.679688 329.261719 L 67.128906 327.46875 " fill-opacity="1" fill-rule="nonzero"/><path fill="#000000" d="M 66.511719 340.671875 L 66.515625 340.671875 Z M 66.503906 340.660156 L 72.875 341.050781 L 74.027344 329.726562 L 67.660156 328.210938 L 66.496094 340.585938 C 66.492188 340.621094 66.5 340.644531 66.503906 340.660156 Z M 72.945312 342.257812 C 72.921875 342.257812 72.902344 342.257812 72.878906 342.253906 L 66.390625 341.855469 C 66.082031 341.835938 65.800781 341.691406 65.589844 341.441406 C 65.367188 341.175781 65.261719 340.816406 65.300781 340.464844 L 66.53125 327.414062 C 66.546875 327.238281 66.636719 327.082031 66.777344 326.980469 C 66.921875 326.878906 67.097656 326.84375 67.269531 326.886719 L 74.820312 328.679688 C 75.109375 328.746094 75.308594 329.023438 75.277344 329.320312 L 74.070312 341.195312 C 73.992188 341.816406 73.515625 342.257812 72.945312 342.257812 " fill-opacity="1" fill-rule="nonzero"/><path fill="#5479f7" d="M 64.875 337.148438 C 64.445312 338.691406 63.535156 343.039062 63.15625 345.65625 C 62.917969 347.296875 63.957031 348.851562 65.542969 349.28125 C 70.03125 350.492188 80.757812 350.441406 89.691406 350.835938 C 90.300781 350.863281 91.429688 350.5625 91.929688 349.082031 C 93.628906 344.054688 84.242188 342.5 74.964844 337.386719 C 74.78125 337.289062 74.558594 337.296875 74.390625 337.417969 C 74.285156 337.496094 74.148438 337.585938 73.988281 337.6875 C 72.375 338.71875 69.691406 338.71875 68.050781 337.730469 L 66.199219 336.617188 C 65.691406 336.3125 65.035156 336.574219 64.875 337.148438 " fill-opacity="1" fill-rule="nonzero"/><path fill="#000000" d="M 64.875 337.148438 L 64.878906 337.148438 Z M 65.742188 337.089844 C 65.695312 337.089844 65.65625 337.101562 65.628906 337.113281 C 65.578125 337.132812 65.488281 337.183594 65.453125 337.3125 C 65.019531 338.871094 64.113281 343.238281 63.75 345.742188 C 63.558594 347.074219 64.394531 348.347656 65.699219 348.699219 C 68.96875 349.585938 75.910156 349.789062 82.621094 349.992188 C 84.984375 350.0625 87.421875 350.132812 89.71875 350.234375 C 89.914062 350.25 90.914062 350.21875 91.363281 348.890625 C 92.324219 346.050781 88.941406 344.425781 82.886719 341.804688 C 80.375 340.71875 77.535156 339.484375 74.703125 337.929688 C 74.597656 338.007812 74.464844 338.097656 74.308594 338.195312 C 72.527344 339.328125 69.582031 339.351562 67.742188 338.246094 L 65.890625 337.132812 C 65.835938 337.101562 65.785156 337.089844 65.742188 337.089844 Z M 89.765625 351.4375 C 89.734375 351.4375 89.699219 351.4375 89.664062 351.4375 C 87.378906 351.335938 84.941406 351.261719 82.585938 351.191406 C 75.492188 350.980469 68.792969 350.78125 65.386719 349.859375 C 63.496094 349.347656 62.28125 347.503906 62.5625 345.570312 C 62.941406 342.957031 63.847656 338.597656 64.296875 336.988281 C 64.425781 336.53125 64.75 336.171875 65.1875 335.996094 C 65.625 335.820312 66.105469 335.863281 66.507812 336.105469 L 68.359375 337.21875 C 69.824219 338.097656 72.253906 338.082031 73.664062 337.183594 C 73.816406 337.089844 73.941406 337 74.042969 336.929688 C 74.402344 336.675781 74.863281 336.648438 75.253906 336.863281 C 78.042969 338.398438 80.867188 339.621094 83.363281 340.703125 C 89.226562 343.242188 93.859375 345.25 92.5 349.273438 C 91.957031 350.878906 90.714844 351.4375 89.765625 351.4375 " fill-opacity="1" fill-rule="nonzero"/><path fill="#ffffff" d="M 62.886719 346.839844 C 62.878906 346.886719 62.871094 346.917969 62.871094 346.933594 C 62.632812 348.574219 64.191406 349.582031 65.679688 350.28125 C 70.101562 352.355469 87.957031 351.167969 88.648438 351.121094 C 88.660156 351.117188 88.671875 351.117188 88.6875 351.117188 C 88.90625 351.121094 91.175781 351.121094 91.828125 349.710938 C 91.910156 349.539062 91.957031 349.292969 91.988281 349.0625 C 92.039062 348.683594 92.011719 348.300781 91.929688 347.929688 C 91.863281 347.628906 91.566406 347.4375 91.265625 347.515625 C 87.953125 348.363281 80.214844 348.644531 72.480469 347.792969 C 67.339844 347.226562 65.105469 346.105469 63.914062 345.394531 C 63.589844 345.199219 63.171875 345.386719 63.097656 345.761719 C 63.039062 346.074219 62.960938 346.453125 62.886719 346.839844 " fill-opacity="1" fill-rule="nonzero"/><path fill="#000000" d="M 62.886719 346.839844 L 62.890625 346.839844 Z M 63.671875 345.949219 L 63.476562 346.957031 L 63.460938 347.023438 C 63.316406 348.027344 64.078125 348.867188 65.933594 349.738281 C 69.355469 351.34375 82.261719 350.953125 88.605469 350.523438 C 88.621094 350.519531 88.671875 350.519531 88.6875 350.519531 C 89.414062 350.53125 90.882812 350.324219 91.285156 349.460938 C 91.304688 349.417969 91.355469 349.285156 91.394531 348.980469 C 91.429688 348.707031 91.417969 348.414062 91.355469 348.113281 C 88.160156 348.910156 80.472656 349.277344 72.414062 348.390625 C 67.382812 347.832031 65.015625 346.742188 63.671875 345.949219 Z M 77.421875 352.109375 C 72.585938 352.109375 67.574219 351.832031 65.425781 350.824219 C 64.472656 350.375 61.9375 349.1875 62.277344 346.84375 C 62.277344 346.824219 62.285156 346.785156 62.296875 346.722656 L 62.511719 345.644531 C 62.582031 345.273438 62.832031 344.964844 63.171875 344.816406 C 63.511719 344.664062 63.902344 344.6875 64.222656 344.878906 C 65.457031 345.617188 67.660156 346.65625 72.546875 347.195312 C 80.511719 348.074219 88.0625 347.714844 91.117188 346.933594 C 91.417969 346.855469 91.730469 346.90625 91.992188 347.066406 C 92.257812 347.226562 92.449219 347.496094 92.515625 347.800781 C 92.617188 348.257812 92.640625 348.707031 92.585938 349.140625 C 92.539062 349.484375 92.46875 349.757812 92.371094 349.96875 C 91.578125 351.675781 89.15625 351.730469 88.675781 351.71875 C 87.691406 351.785156 82.65625 352.109375 77.421875 352.109375 " fill-opacity="1" fill-rule="nonzero"/><path fill="#000000" d="M 75.601562 342.050781 C 75.417969 342.050781 75.242188 341.96875 75.121094 341.8125 C 74.921875 341.550781 74.972656 341.171875 75.238281 340.972656 L 77.945312 338.910156 C 78.210938 338.707031 78.585938 338.761719 78.785156 339.023438 C 78.988281 339.289062 78.9375 339.664062 78.671875 339.867188 L 75.964844 341.925781 C 75.855469 342.011719 75.726562 342.050781 75.601562 342.050781 " fill-opacity="1" fill-rule="nonzero"/><path fill="#000000" d="M 79.199219 343.523438 C 79.015625 343.523438 78.835938 343.441406 78.71875 343.285156 C 78.519531 343.019531 78.574219 342.644531 78.839844 342.445312 L 81.207031 340.667969 C 81.472656 340.46875 81.851562 340.519531 82.050781 340.785156 C 82.246094 341.050781 82.195312 341.429688 81.929688 341.625 L 79.558594 343.40625 C 79.449219 343.488281 79.324219 343.523438 79.199219 343.523438 " fill-opacity="1" fill-rule="nonzero"/><path fill="#5479f7" d="M 47.851562 206.65625 C 47.851562 206.65625 42.703125 216.957031 40.972656 227.808594 C 39.359375 237.910156 33.433594 279.507812 18.988281 312.871094 C 17.351562 316.65625 19.242188 320.589844 23.269531 321.464844 C 24.878906 321.816406 25.554688 321.242188 26.949219 320.5625 C 27.667969 320.214844 28.859375 319.183594 28.859375 319.183594 C 28.859375 319.183594 54.429688 297.8125 64.859375 241.738281 C 71.5625 205.675781 70.449219 208.535156 70.449219 208.535156 L 47.851562 206.65625 " fill-opacity="1" fill-rule="nonzero"/><path fill="#5479f7" d="M 55.027344 211.371094 C 55.027344 211.371094 52.027344 230.945312 57.703125 245.425781 C 63.164062 259.351562 66.648438 313.9375 64.613281 329.707031 C 64.488281 330.699219 65.175781 331.609375 66.164062 331.746094 C 68.648438 332.09375 73.125 332.570312 76.1875 331.996094 C 76.753906 331.890625 77.207031 331.476562 77.347656 330.921875 C 79.367188 322.917969 96.136719 250.589844 84.3125 213.527344 L 55.027344 211.371094 " fill-opacity="1" fill-rule="nonzero"/><path fill="#99b9ff" d="M 60.769531 262.371094 C 60.453125 262.371094 60.1875 262.128906 60.167969 261.808594 C 60.164062 261.738281 59.71875 254.828125 56.425781 247.132812 C 55.394531 244.71875 54.652344 241.847656 54.214844 238.601562 C 54.171875 238.273438 54.402344 237.972656 54.730469 237.929688 C 55.058594 237.882812 55.363281 238.113281 55.40625 238.441406 C 55.828125 241.582031 56.542969 244.347656 57.53125 246.660156 C 60.90625 254.558594 61.351562 261.445312 61.367188 261.738281 C 61.386719 262.066406 61.136719 262.351562 60.804688 262.371094 C 60.792969 262.371094 60.78125 262.371094 60.769531 262.371094 " fill-opacity="1" fill-rule="nonzero"/><path fill="#99b9ff" d="M 61.171875 222.867188 C 61.003906 222.867188 60.84375 222.925781 60.71875 223.042969 C 60.570312 223.175781 60.492188 223.371094 60.503906 223.570312 L 61.097656 234.636719 C 61.160156 235.78125 61.726562 236.820312 62.652344 237.492188 L 66.128906 240.007812 C 67.359375 240.898438 68.984375 241.0625 70.367188 240.445312 L 75.738281 238.039062 C 77.140625 237.410156 78.015625 236.011719 77.96875 234.476562 L 77.628906 223.90625 C 77.625 223.71875 77.542969 223.550781 77.402344 223.425781 C 77.257812 223.300781 77.078125 223.25 76.890625 223.265625 C 70.402344 223.953125 64.316406 223.3125 61.269531 222.875 C 61.234375 222.867188 61.203125 222.867188 61.171875 222.867188 Z M 68.632812 242.015625 C 67.496094 242.015625 66.371094 241.660156 65.425781 240.980469 L 61.949219 238.464844 C 60.726562 237.578125 59.980469 236.207031 59.898438 234.703125 L 59.304688 223.636719 C 59.273438 223.074219 59.496094 222.535156 59.910156 222.15625 C 60.324219 221.777344 60.882812 221.605469 61.441406 221.683594 C 64.433594 222.117188 70.40625 222.746094 76.761719 222.070312 C 77.28125 222.015625 77.800781 222.179688 78.191406 222.519531 C 78.582031 222.859375 78.8125 223.351562 78.828125 223.867188 L 79.167969 234.4375 C 79.230469 236.460938 78.078125 238.308594 76.230469 239.132812 L 70.859375 241.539062 C 70.148438 241.859375 69.386719 242.015625 68.632812 242.015625 " fill-opacity="1" fill-rule="nonzero"/><path fill="#99b9ff" d="M 42.699219 239.515625 C 42.3125 239.515625 41.929688 239.398438 41.601562 239.164062 L 40.214844 238.226562 C 39.9375 238.039062 39.867188 237.667969 40.050781 237.394531 C 40.238281 237.117188 40.609375 237.046875 40.886719 237.234375 L 42.285156 238.179688 C 42.507812 238.335938 42.785156 238.359375 43.019531 238.238281 L 48.933594 235.234375 C 49.144531 235.125 49.289062 234.917969 49.3125 234.683594 L 50.648438 222.371094 C 50.6875 221.996094 50.429688 221.65625 50.058594 221.601562 L 44.464844 220.71875 C 44.140625 220.667969 43.914062 220.359375 43.96875 220.03125 C 44.019531 219.707031 44.324219 219.480469 44.652344 219.535156 L 50.242188 220.414062 C 51.246094 220.570312 51.949219 221.484375 51.839844 222.5 L 50.507812 234.8125 C 50.4375 235.453125 50.050781 236.011719 49.476562 236.300781 L 43.5625 239.308594 C 43.289062 239.449219 42.992188 239.515625 42.699219 239.515625 " fill-opacity="1" fill-rule="nonzero"/><path fill="#ffffff" d="M 23.238281 327.800781 C 24.027344 323.859375 24.371094 323.046875 26.261719 320.007812 C 27.667969 317.75 24.25 314.34375 22.511719 314.082031 C 19.609375 313.484375 20.070312 314.40625 16.75 318.660156 L 14.152344 321.855469 C 14.152344 321.855469 22.550781 331.246094 23.238281 327.800781 " fill-opacity="1" fill-rule="nonzero"/><path fill="#000000" d="M 22.46875 329.152344 C 20.066406 329.152344 15.199219 323.929688 13.703125 322.257812 C 13.507812 322.039062 13.5 321.703125 13.6875 321.476562 L 16.15625 318.464844 C 17.054688 317.3125 17.625 316.390625 18.132812 315.546875 C 18.304688 315.261719 18.671875 315.167969 18.957031 315.339844 C 19.242188 315.507812 19.332031 315.878906 19.160156 316.164062 C 18.636719 317.039062 18.042969 318 17.09375 319.21875 L 14.945312 321.835938 C 17.882812 325.054688 21.5 328.21875 22.511719 327.953125 C 22.585938 327.929688 22.628906 327.792969 22.652344 327.683594 C 23.363281 324.117188 23.613281 323.082031 25.101562 320.59375 C 25.269531 320.3125 25.640625 320.21875 25.925781 320.390625 C 26.207031 320.558594 26.300781 320.929688 26.128906 321.210938 C 24.738281 323.535156 24.523438 324.445312 23.828125 327.917969 C 23.660156 328.761719 23.128906 329.027344 22.828125 329.109375 C 22.714844 329.140625 22.59375 329.152344 22.46875 329.152344 " fill-opacity="1" fill-rule="nonzero"/><path fill="#5479f7" d="M 23.699219 326.320312 L 20.335938 321.25 C 18.769531 318.882812 15.433594 318.53125 13.40625 320.515625 L 9.558594 323.746094 C 9.558594 323.746094 8.824219 325.964844 9.054688 327.398438 C 9.359375 329.261719 9.960938 331.921875 11.121094 334.554688 C 12.90625 338.609375 17.847656 346.753906 19.609375 349.613281 C 19.976562 350.214844 20.898438 350.804688 21.542969 350.519531 C 22.304688 350.179688 23.09375 349.5625 23.859375 348.847656 C 25.039062 347.738281 24.644531 342.558594 24.222656 338.949219 C 23.949219 336.632812 24.152344 330.734375 24.25 328.300781 C 24.28125 327.597656 24.085938 326.90625 23.699219 326.320312 " fill-opacity="1" fill-rule="nonzero"/><path fill="#000000" d="M 10.078125 324.089844 C 9.867188 324.785156 9.488281 326.332031 9.648438 327.300781 C 9.9375 329.058594 10.519531 331.703125 11.671875 334.3125 C 13.464844 338.386719 18.589844 346.8125 20.121094 349.300781 C 20.382812 349.730469 21.023438 350.089844 21.296875 349.972656 C 21.921875 349.691406 22.625 349.179688 23.449219 348.410156 C 23.71875 348.15625 24.53125 346.730469 23.625 339.019531 C 23.347656 336.664062 23.550781 330.71875 23.652344 328.273438 C 23.675781 327.699219 23.519531 327.136719 23.199219 326.652344 L 19.835938 321.582031 C 19.1875 320.601562 18.148438 319.972656 16.980469 319.847656 C 15.8125 319.722656 14.664062 320.125 13.824219 320.945312 L 13.792969 320.976562 Z M 21.167969 351.199219 C 20.320312 351.199219 19.476562 350.546875 19.097656 349.929688 C 17.125 346.71875 12.347656 338.824219 10.570312 334.796875 C 9.371094 332.070312 8.761719 329.320312 8.464844 327.496094 C 8.210938 325.933594 8.957031 323.652344 8.988281 323.558594 L 9.042969 323.394531 L 13.003906 320.070312 C 14.097656 319.011719 15.589844 318.496094 17.105469 318.652344 C 18.628906 318.816406 19.988281 319.640625 20.835938 320.917969 L 24.199219 325.988281 C 24.660156 326.683594 24.882812 327.492188 24.851562 328.324219 C 24.75 330.742188 24.550781 336.609375 24.816406 338.878906 C 25.753906 346.867188 24.953125 348.644531 24.269531 349.285156 C 23.347656 350.148438 22.535156 350.730469 21.789062 351.066406 C 21.585938 351.15625 21.375 351.199219 21.167969 351.199219 " fill-opacity="1" fill-rule="nonzero"/><path fill="#000000" d="M 24.101562 332.703125 C 24.046875 332.703125 23.992188 332.695312 23.941406 332.679688 L 20.324219 331.6875 C 20.003906 331.601562 19.816406 331.269531 19.902344 330.949219 C 19.992188 330.628906 20.320312 330.441406 20.640625 330.53125 L 24.257812 331.523438 C 24.578125 331.613281 24.765625 331.941406 24.679688 332.261719 C 24.605469 332.527344 24.363281 332.703125 24.101562 332.703125 " fill-opacity="1" fill-rule="nonzero"/><path fill="#000000" d="M 23.832031 335.933594 C 23.777344 335.933594 23.726562 335.925781 23.671875 335.910156 L 20.054688 334.917969 C 19.734375 334.828125 19.546875 334.5 19.632812 334.179688 C 19.722656 333.859375 20.054688 333.667969 20.371094 333.761719 L 23.988281 334.753906 C 24.308594 334.839844 24.496094 335.171875 24.410156 335.492188 C 24.335938 335.757812 24.09375 335.933594 23.832031 335.933594 " fill-opacity="1" fill-rule="nonzero"/><path fill="#ffffff" d="M 20.140625 350.785156 C 20.507812 350.785156 20.859375 350.726562 21.179688 350.617188 C 22.257812 350.242188 24.960938 349.4375 24.660156 345.566406 C 24.347656 341.550781 21.292969 339.503906 19.0625 336.871094 C 17.363281 334.859375 17.53125 326.453125 16.996094 324.804688 C 16.039062 321.851562 11.726562 321.40625 9.558594 323.746094 C 8.1875 325.222656 8.027344 328.429688 8.160156 330.789062 C 8.410156 335.203125 11.007812 343.992188 14.285156 348.238281 C 15.886719 350.308594 18.355469 350.785156 20.140625 350.785156 " fill-opacity="1" fill-rule="nonzero"/><path fill="#000000" d="M 13.09375 322.851562 C 11.921875 322.851562 10.773438 323.320312 10 324.152344 C 9.03125 325.195312 8.582031 327.597656 8.757812 330.753906 C 8.992188 334.867188 11.445312 343.582031 14.761719 347.871094 C 16.316406 349.882812 18.800781 350.183594 20.140625 350.183594 C 20.4375 350.183594 20.722656 350.140625 20.984375 350.046875 L 21.082031 350.015625 C 22.210938 349.628906 24.316406 348.910156 24.0625 345.613281 C 23.835938 342.738281 22.101562 340.949219 20.265625 339.050781 C 19.707031 338.476562 19.132812 337.882812 18.605469 337.257812 C 17.355469 335.78125 17.046875 331.664062 16.800781 328.355469 C 16.691406 326.878906 16.585938 325.480469 16.425781 324.988281 C 16.089844 323.957031 15.214844 323.210938 14.023438 322.949219 C 13.71875 322.882812 13.40625 322.851562 13.09375 322.851562 Z M 20.140625 351.386719 C 18.578125 351.386719 15.683594 351.023438 13.8125 348.605469 C 10.355469 344.132812 7.800781 335.085938 7.5625 330.820312 C 7.445312 328.777344 7.496094 325.085938 9.117188 323.335938 C 10.378906 321.976562 12.40625 321.367188 14.28125 321.777344 C 15.898438 322.136719 17.097656 323.167969 17.566406 324.617188 C 17.773438 325.246094 17.871094 326.582031 17.996094 328.269531 C 18.207031 331.070312 18.523438 335.304688 19.519531 336.484375 C 20.023438 337.074219 20.585938 337.652344 21.125 338.214844 C 23.03125 340.183594 25 342.214844 25.257812 345.519531 C 25.585938 349.746094 22.59375 350.765625 21.46875 351.152344 L 21.375 351.183594 C 20.984375 351.316406 20.570312 351.386719 20.140625 351.386719 " fill-opacity="1" fill-rule="nonzero"/><path fill="#000000" d="M 20.140625 351.386719 C 19.691406 351.386719 19.25 351.359375 18.820312 351.300781 C 18.492188 351.257812 18.257812 350.957031 18.300781 350.628906 C 18.34375 350.300781 18.644531 350.066406 18.972656 350.113281 C 19.351562 350.160156 19.742188 350.183594 20.140625 350.183594 C 20.832031 350.183594 21.449219 349.933594 21.832031 349.492188 C 22.152344 349.125 22.285156 348.65625 22.210938 348.136719 C 21.683594 344.3125 19.632812 342.347656 17.261719 340.074219 C 15.128906 338.027344 14.636719 331.710938 14.375 328.316406 C 14.316406 327.546875 14.253906 326.75 14.203125 326.570312 C 14 325.824219 12.847656 324.890625 11.519531 324.746094 C 10.75 324.660156 9.691406 324.824219 9.027344 326.082031 C 8.871094 326.375 8.507812 326.488281 8.214844 326.332031 C 7.921875 326.175781 7.8125 325.816406 7.964844 325.519531 C 8.71875 324.09375 10.0625 323.378906 11.648438 323.554688 C 13.367188 323.742188 15 324.929688 15.359375 326.253906 C 15.4375 326.53125 15.480469 327.089844 15.570312 328.226562 C 15.804688 331.230469 16.292969 337.476562 18.09375 339.207031 C 20.519531 341.535156 22.816406 343.734375 23.402344 347.96875 C 23.519531 348.832031 23.285156 349.65625 22.738281 350.28125 C 22.128906 350.980469 21.179688 351.386719 20.140625 351.386719 " fill-opacity="1" fill-rule="nonzero"/><path fill="#ffffff" d="M 27.726562 215.957031 C 27.726562 215.957031 23.066406 214.742188 21.863281 215.789062 C 21.550781 216.058594 22.5625 222.128906 22.226562 222.433594 C 20.640625 223.886719 18.160156 225.769531 17.632812 227.128906 C 16.816406 229.238281 17.792969 235.347656 18.289062 238.085938 C 18.546875 239.5 20.515625 239.738281 21.054688 238.40625 C 21.203125 238.042969 21.28125 237.5625 21.238281 236.929688 C 21.085938 234.710938 21.296875 233.117188 21.445312 232.324219 C 21.511719 231.972656 21.707031 231.664062 21.992188 231.453125 C 23.328125 230.460938 27.445312 227.242188 28.050781 224.851562 C 28.128906 224.542969 27.945312 223.808594 27.769531 223.226562 C 27.597656 222.660156 27.523438 222.074219 27.542969 221.484375 L 27.726562 215.957031 " fill-opacity="1" fill-rule="nonzero"/><path fill="#000000" d="M 22.402344 216.148438 C 22.390625 216.644531 22.535156 217.957031 22.640625 218.945312 C 22.984375 222.117188 22.984375 222.554688 22.632812 222.875 C 22.265625 223.214844 21.847656 223.574219 21.421875 223.945312 C 20.140625 225.054688 18.542969 226.4375 18.191406 227.347656 C 17.660156 228.722656 17.917969 232.695312 18.878906 237.976562 C 18.964844 238.445312 19.335938 238.648438 19.652344 238.679688 C 19.796875 238.695312 20.289062 238.703125 20.5 238.183594 C 20.625 237.875 20.671875 237.464844 20.636719 236.972656 C 20.484375 234.667969 20.707031 233 20.855469 232.214844 C 20.949219 231.714844 21.226562 231.273438 21.632812 230.96875 C 24.164062 229.09375 27.027344 226.460938 27.46875 224.703125 C 27.46875 224.699219 27.503906 224.429688 27.195312 223.402344 C 27.003906 222.769531 26.917969 222.117188 26.941406 221.460938 L 27.113281 216.421875 C 25.253906 215.988281 23.136719 215.789062 22.402344 216.148438 Z M 19.753906 239.886719 C 19.679688 239.886719 19.605469 239.882812 19.527344 239.875 C 18.601562 239.777344 17.867188 239.101562 17.699219 238.191406 C 17.101562 234.917969 16.226562 229.097656 17.074219 226.914062 C 17.53125 225.726562 19.109375 224.359375 20.632812 223.039062 C 21.007812 222.714844 21.367188 222.402344 21.695312 222.105469 C 21.722656 221.621094 21.558594 220.105469 21.449219 219.074219 C 21.117188 216.019531 21.121094 215.636719 21.472656 215.335938 C 22.84375 214.140625 27.050781 215.160156 27.878906 215.375 C 28.152344 215.445312 28.335938 215.695312 28.328125 215.976562 L 28.140625 221.503906 C 28.125 222.027344 28.191406 222.546875 28.34375 223.054688 C 28.71875 224.300781 28.695312 224.75 28.632812 224.996094 C 27.996094 227.523438 24.027344 230.691406 22.347656 231.933594 C 22.183594 232.054688 22.074219 232.234375 22.035156 232.433594 C 21.898438 233.167969 21.6875 234.71875 21.835938 236.886719 C 21.882812 237.570312 21.804688 238.15625 21.613281 238.632812 C 21.296875 239.410156 20.582031 239.886719 19.753906 239.886719 " fill-opacity="1" fill-rule="nonzero"/><path fill="#ffffff" d="M 122.285156 185.785156 C 122.3125 185.855469 127.0625 184.957031 129.710938 184.453125 C 130.621094 184.277344 131.542969 184.496094 132.347656 184.953125 C 132.386719 184.972656 132.425781 184.992188 132.460938 185.007812 C 134.257812 185.734375 136.695312 185.996094 139.789062 184.703125 C 142.527344 183.554688 143.378906 181.210938 143.90625 179.445312 C 144.15625 178.628906 143.824219 177.742188 142.972656 177.707031 C 142.890625 177.707031 142.816406 177.699219 142.757812 177.726562 C 135.785156 180.804688 136.25 178.804688 137.003906 176.925781 C 137.21875 176.398438 133.011719 176.335938 130.308594 178.070312 C 129.949219 178.304688 128.296875 178.996094 127.371094 179.074219 C 122.835938 179.449219 119.574219 179.226562 119.574219 179.226562 L 122.285156 185.785156 " fill-opacity="1" fill-rule="nonzero"/><path fill="#000000" d="M 120.488281 179.867188 L 122.667969 185.136719 C 123.316406 185.035156 125.035156 184.734375 129.597656 183.863281 C 130.597656 183.671875 131.652344 183.867188 132.648438 184.429688 C 132.660156 184.4375 132.675781 184.445312 132.6875 184.453125 C 134.757812 185.289062 137.070312 185.191406 139.554688 184.148438 C 141.996094 183.128906 142.785156 181.097656 143.335938 179.273438 C 143.425781 178.96875 143.398438 178.652344 143.265625 178.464844 C 143.191406 178.363281 143.089844 178.3125 142.949219 178.308594 L 142.929688 178.308594 C 139.144531 179.972656 137.246094 180.316406 136.398438 179.496094 C 135.78125 178.898438 135.984375 177.960938 136.25 177.21875 C 135.214844 177.125 132.546875 177.34375 130.636719 178.574219 C 130.207031 178.851562 128.460938 179.585938 127.417969 179.671875 C 124.289062 179.933594 121.78125 179.910156 120.488281 179.867188 Z M 122.835938 185.546875 L 122.84375 185.558594 C 122.839844 185.554688 122.839844 185.550781 122.835938 185.546875 Z M 122.304688 186.382812 C 122 186.382812 121.835938 186.285156 121.726562 186.003906 L 118.648438 178.558594 L 119.613281 178.628906 C 119.648438 178.628906 122.890625 178.84375 127.320312 178.476562 C 128.144531 178.40625 129.699219 177.75 129.984375 177.566406 C 132.40625 176.011719 136.515625 175.644531 137.34375 176.335938 C 137.59375 176.539062 137.675781 176.859375 137.5625 177.148438 C 137.078125 178.351562 137.1875 178.589844 137.234375 178.632812 C 137.296875 178.695312 137.988281 179.179688 142.515625 177.175781 C 142.699219 177.097656 142.871094 177.105469 142.984375 177.109375 C 143.511719 177.128906 143.953125 177.363281 144.242188 177.769531 C 144.59375 178.261719 144.683594 178.953125 144.480469 179.617188 C 144.03125 181.125 143.1875 183.929688 140.019531 185.253906 C 137.230469 186.421875 134.609375 186.527344 132.234375 185.5625 C 132.171875 185.539062 132.113281 185.507812 132.050781 185.472656 C 131.535156 185.179688 130.726562 184.867188 129.824219 185.039062 C 128.496094 185.292969 126.644531 185.644531 125.125 185.925781 C 124.359375 186.066406 123.675781 186.1875 123.183594 186.269531 C 122.800781 186.332031 122.519531 186.382812 122.304688 186.382812 " fill-opacity="1" fill-rule="nonzero"/><path fill="#000000" d="M 129.183594 185.226562 L 127.777344 178.585938 C 127.566406 177.984375 127.011719 177.371094 126.410156 177.433594 C 105.949219 179.601562 102.949219 165.542969 96.964844 155.851562 C 96.964844 155.851562 96.550781 155.203125 95.902344 154.195312 C 93.832031 150.976562 90.945312 148.363281 87.535156 146.625 C 86.628906 146.164062 85.664062 145.828125 84.667969 145.625 C 82.914062 145.269531 81.328125 144.980469 80.464844 144.902344 C 78.480469 144.714844 72.800781 142.574219 60.429688 143.960938 C 55.625 144.5 50.964844 145.964844 46.710938 148.269531 L 46.074219 148.617188 C 46.074219 148.617188 11.457031 171.402344 20.058594 218.8125 C 20.152344 219.335938 20.609375 219.710938 21.136719 219.710938 L 28.164062 219.710938 C 28.746094 219.710938 29.230469 219.195312 29.269531 218.613281 C 29.585938 213.703125 31.496094 192.460938 41.363281 180.710938 C 42.445312 179.425781 44.523438 179.820312 45.027344 181.425781 C 45.8125 183.925781 46.011719 189.25 43.945312 200.464844 C 43.882812 200.804688 41.28125 214.035156 41.28125 214.035156 C 41.28125 214.035156 68.65625 218.730469 78.199219 217.015625 C 85.742188 215.660156 88.019531 213.804688 88.640625 213.089844 C 88.78125 212.921875 88.84375 212.707031 88.820312 212.492188 L 87.714844 202.847656 C 87.320312 199.351562 86.351562 192.820312 87.496094 184.492188 C 87.679688 183.160156 87.9375 181.984375 88.246094 180.949219 C 95.632812 189.636719 100.21875 201.101562 128.710938 186.585938 C 129.179688 186.347656 129.394531 185.828125 129.183594 185.226562 " fill-opacity="1" fill-rule="nonzero"/><path fill="#ffffff" d="M 82.636719 120.460938 C 82.636719 120.460938 84.304688 123.019531 84.382812 125.117188 C 84.40625 125.675781 84.617188 127.453125 85.960938 129.40625 C 86.089844 129.597656 86.058594 129.851562 85.882812 130.003906 L 84.566406 131.152344 C 84.472656 131.230469 84.421875 131.34375 84.417969 131.460938 C 84.40625 132.203125 84.351562 134.941406 84.257812 135.449219 C 84.148438 136.039062 83.667969 136.558594 83.429688 136.683594 C 82.800781 137.011719 80.105469 136.640625 80.105469 136.640625 C 80.105469 136.640625 79.378906 136.699219 77.917969 140.527344 C 76.335938 144.660156 79.5 146.265625 79.5 146.265625 C 80.6875 146.902344 80.5 148.089844 79.199219 148.488281 C 74.726562 149.855469 66.039062 151.339844 60.996094 147.527344 C 60.046875 146.8125 60.449219 146.054688 61.261719 145.871094 C 73.296875 143.203125 67.714844 130.578125 67.96875 130.515625 C 68.609375 130.355469 72.324219 126.527344 74.488281 125.449219 C 75.964844 124.714844 77.730469 125.820312 78.9375 124.699219 L 82.636719 120.460938 " fill-opacity="1" fill-rule="nonzero"/><path fill="#000000" d="M 68.644531 130.816406 C 68.65625 130.851562 68.667969 130.890625 68.679688 130.929688 C 69.1875 132.652344 70.734375 137.894531 68.34375 141.949219 C 67.007812 144.214844 64.667969 145.730469 61.390625 146.457031 C 61.167969 146.507812 61.054688 146.613281 61.046875 146.660156 C 61.035156 146.703125 61.101562 146.855469 61.355469 147.046875 C 66.980469 151.296875 77.0625 148.515625 79.023438 147.914062 C 79.410156 147.796875 79.667969 147.582031 79.691406 147.367188 C 79.707031 147.179688 79.527344 146.960938 79.214844 146.796875 C 79.191406 146.785156 75.601562 144.898438 77.355469 140.3125 C 78.417969 137.539062 79.324219 136.101562 80.054688 136.039062 C 80.101562 136.035156 80.144531 136.039062 80.1875 136.042969 C 81.488281 136.222656 82.875 136.273438 83.15625 136.148438 C 83.246094 136.09375 83.59375 135.738281 83.667969 135.339844 C 83.722656 135.042969 83.785156 133.480469 83.820312 131.453125 C 83.824219 131.164062 83.953125 130.890625 84.171875 130.699219 L 85.390625 129.636719 C 83.980469 127.527344 83.804688 125.667969 83.785156 125.140625 C 83.734375 123.855469 83.015625 122.34375 82.542969 121.480469 L 79.390625 125.09375 C 79.375 125.105469 79.359375 125.121094 79.347656 125.136719 C 78.5 125.925781 77.46875 125.859375 76.558594 125.804688 C 75.902344 125.761719 75.28125 125.722656 74.753906 125.984375 C 73.550781 126.585938 71.726562 128.183594 70.390625 129.351562 C 69.523438 130.113281 69.003906 130.5625 68.644531 130.816406 Z M 69.773438 150.550781 C 66.578125 150.550781 63.203125 149.949219 60.632812 148.007812 C 59.804688 147.382812 59.800781 146.734375 59.871094 146.40625 C 59.992188 145.859375 60.472656 145.433594 61.128906 145.285156 C 64.070312 144.636719 66.148438 143.308594 67.308594 141.339844 C 69.4375 137.734375 68 132.867188 67.527344 131.269531 C 67.34375 130.644531 67.296875 130.476562 67.441406 130.222656 C 67.519531 130.082031 67.660156 129.976562 67.820312 129.933594 C 68.011719 129.84375 68.890625 129.070312 69.601562 128.449219 C 71.0625 127.171875 72.878906 125.578125 74.222656 124.910156 C 75.035156 124.503906 75.886719 124.558594 76.636719 124.605469 C 77.503906 124.660156 78.0625 124.671875 78.507812 124.277344 L 82.1875 120.066406 C 82.308594 119.921875 82.492188 119.84375 82.679688 119.859375 C 82.867188 119.875 83.039062 119.972656 83.140625 120.132812 C 83.210938 120.242188 84.898438 122.855469 84.984375 125.097656 C 84.996094 125.417969 85.125 127.132812 86.457031 129.066406 C 86.757812 129.507812 86.683594 130.105469 86.277344 130.457031 L 85.019531 131.554688 C 84.996094 132.867188 84.941406 135.050781 84.847656 135.558594 C 84.699219 136.359375 84.082031 137.019531 83.710938 137.214844 C 83.042969 137.5625 81.203125 137.386719 80.242188 137.261719 C 80.035156 137.46875 79.4375 138.230469 78.476562 140.742188 C 77.105469 144.332031 79.660156 145.675781 79.773438 145.730469 C 80.539062 146.144531 80.953125 146.796875 80.882812 147.484375 C 80.8125 148.203125 80.25 148.792969 79.378906 149.058594 C 78.1875 149.425781 74.148438 150.550781 69.773438 150.550781 " fill-opacity="1" fill-rule="nonzero"/><path fill="#000000" d="M 85.851562 129.699219 C 85.535156 129.699219 85.273438 129.453125 85.25 129.132812 C 85.230469 128.804688 85.484375 128.519531 85.816406 128.5 C 86.09375 128.480469 86.300781 128.378906 86.460938 128.171875 C 86.910156 127.597656 86.90625 126.394531 86.832031 125.609375 L 77.980469 126.894531 C 77.652344 126.941406 77.347656 126.714844 77.300781 126.386719 C 77.253906 126.0625 77.480469 125.757812 77.808594 125.707031 L 87.257812 124.332031 C 87.574219 124.285156 87.875 124.496094 87.933594 124.8125 C 87.988281 125.09375 88.429688 127.59375 87.410156 128.910156 C 87.039062 129.386719 86.511719 129.660156 85.886719 129.695312 C 85.875 129.699219 85.863281 129.699219 85.851562 129.699219 " fill-opacity="1" fill-rule="nonzero"/><path fill="#000000" d="M 77.84375 130.726562 C 76.828125 130.726562 75.476562 130.261719 74.785156 128.503906 C 74.316406 127.316406 74.507812 126.246094 75.304688 125.648438 C 76.113281 125.039062 77.332031 125.109375 78.261719 125.828125 C 78.597656 126.085938 78.972656 126.683594 79.082031 126.863281 C 79.253906 127.144531 79.160156 127.515625 78.878906 127.6875 C 78.59375 127.855469 78.226562 127.765625 78.054688 127.484375 C 77.894531 127.21875 77.636719 126.863281 77.527344 126.777344 C 76.96875 126.347656 76.347656 126.367188 76.027344 126.605469 C 75.683594 126.863281 75.636719 127.394531 75.902344 128.0625 C 76.632812 129.925781 78.25 129.488281 78.316406 129.46875 C 78.636719 129.378906 78.96875 129.5625 79.058594 129.878906 C 79.152344 130.199219 78.964844 130.53125 78.648438 130.621094 C 78.429688 130.683594 78.152344 130.726562 77.84375 130.726562 " fill-opacity="1" fill-rule="nonzero"/><path fill="#000000" d="M 86.1875 114.207031 C 85.335938 112.746094 84.417969 111.484375 81.574219 110.894531 C 79.628906 110.488281 76.429688 111.890625 74.847656 113.535156 C 74.714844 113.671875 74.507812 113.671875 74.398438 113.535156 C 74.066406 113.109375 73.28125 112.140625 72.570312 112.046875 C 70.527344 111.78125 68.398438 114.410156 67.636719 115.765625 C 67.082031 116.757812 66.136719 119 65.644531 121.617188 C 65.613281 121.777344 65.464844 121.898438 65.300781 121.882812 C 64.6875 121.816406 63.449219 121.804688 62.339844 122.605469 C 60.363281 124.035156 60.554688 126.160156 60.574219 126.421875 C 60.804688 129.449219 63.855469 131.71875 66.171875 132.957031 C 67.746094 133.796875 68.339844 133.921875 69.269531 134.148438 C 69.320312 134.160156 69.378906 134.160156 69.429688 134.140625 C 70.253906 134.269531 71.652344 134.347656 73.214844 133.824219 C 75.699219 132.992188 75.558594 128.882812 75.558594 128.882812 L 75.257812 128.105469 C 75.074219 127.632812 75.054688 127.105469 75.25 126.636719 C 75.851562 125.214844 77.996094 126.3125 78.074219 126.300781 C 82.140625 125.5 83.589844 124.328125 84.332031 123.53125 C 87.007812 120.660156 88.246094 117.75 86.1875 114.207031 " fill-opacity="1" fill-rule="nonzero"/><path fill="#000000" d="M 31.324219 123.699219 C 31.167969 123.699219 31.015625 123.640625 30.898438 123.523438 C 30.664062 123.289062 30.664062 122.90625 30.898438 122.671875 L 32.292969 121.277344 C 32.527344 121.046875 32.90625 121.046875 33.140625 121.277344 C 33.375 121.511719 33.375 121.894531 33.140625 122.128906 L 31.746094 123.523438 C 31.628906 123.640625 31.476562 123.699219 31.324219 123.699219 " fill-opacity="1" fill-rule="nonzero"/><path fill="#000000" d="M 36.59375 118.425781 C 36.441406 118.425781 36.289062 118.367188 36.171875 118.25 C 35.9375 118.015625 35.9375 117.636719 36.171875 117.402344 L 37.566406 116.007812 C 37.800781 115.773438 38.179688 115.773438 38.414062 116.007812 C 38.648438 116.242188 38.648438 116.621094 38.414062 116.855469 L 37.019531 118.25 C 36.902344 118.367188 36.75 118.425781 36.59375 118.425781 " fill-opacity="1" fill-rule="nonzero"/><path fill="#000000" d="M 37.992188 123.699219 C 37.835938 123.699219 37.683594 123.640625 37.566406 123.523438 L 36.171875 122.128906 C 35.9375 121.894531 35.9375 121.511719 36.171875 121.277344 C 36.40625 121.046875 36.785156 121.046875 37.019531 121.277344 L 38.414062 122.671875 C 38.648438 122.90625 38.648438 123.289062 38.414062 123.523438 C 38.296875 123.640625 38.144531 123.699219 37.992188 123.699219 " fill-opacity="1" fill-rule="nonzero"/><path fill="#000000" d="M 32.71875 118.425781 C 32.5625 118.425781 32.410156 118.367188 32.292969 118.25 L 30.898438 116.855469 C 30.664062 116.621094 30.664062 116.242188 30.898438 116.007812 C 31.132812 115.773438 31.511719 115.773438 31.746094 116.007812 L 33.140625 117.402344 C 33.375 117.636719 33.375 118.015625 33.140625 118.25 C 33.023438 118.367188 32.871094 118.425781 32.71875 118.425781 " fill-opacity="1" fill-rule="nonzero"/><path fill="#000000" d="M 50.5 48.296875 C 49.464844 48.296875 48.625 49.140625 48.625 50.175781 C 48.625 51.210938 49.464844 52.054688 50.5 52.054688 C 51.539062 52.054688 52.378906 51.210938 52.378906 50.175781 C 52.378906 49.140625 51.539062 48.296875 50.5 48.296875 Z M 50.5 53.253906 C 48.804688 53.253906 47.421875 51.871094 47.421875 50.175781 C 47.421875 48.476562 48.804688 47.097656 50.5 47.097656 C 52.199219 47.097656 53.582031 48.476562 53.582031 50.175781 C 53.582031 51.871094 52.199219 53.253906 50.5 53.253906 " fill-opacity="1" fill-rule="nonzero"/><path fill="#000000" d="M 61.195312 38.929688 C 60.871094 38.929688 60.605469 38.671875 60.59375 38.347656 C 60.585938 38.015625 60.847656 37.738281 61.179688 37.730469 L 63.300781 37.675781 C 63.308594 37.675781 63.3125 37.675781 63.320312 37.675781 C 63.644531 37.675781 63.910156 37.933594 63.917969 38.261719 C 63.925781 38.589844 63.664062 38.867188 63.335938 38.875 L 61.210938 38.929688 C 61.203125 38.929688 61.199219 38.929688 61.195312 38.929688 " fill-opacity="1" fill-rule="nonzero"/><path fill="#000000" d="M 69.214844 38.71875 C 68.894531 38.71875 68.625 38.457031 68.617188 38.132812 C 68.609375 37.804688 68.871094 37.527344 69.199219 37.515625 L 71.324219 37.460938 C 71.328125 37.460938 71.335938 37.460938 71.339844 37.460938 C 71.664062 37.460938 71.933594 37.71875 71.941406 38.046875 C 71.949219 38.378906 71.6875 38.652344 71.355469 38.660156 L 69.234375 38.714844 C 69.226562 38.71875 69.222656 38.71875 69.214844 38.71875 " fill-opacity="1" fill-rule="nonzero"/><path fill="#000000" d="M 66.402344 43.871094 C 66.078125 43.871094 65.8125 43.613281 65.800781 43.285156 L 65.746094 41.164062 C 65.738281 40.832031 66 40.554688 66.328125 40.546875 C 66.335938 40.546875 66.339844 40.546875 66.347656 40.546875 C 66.667969 40.546875 66.9375 40.804688 66.945312 41.128906 L 67.003906 43.253906 C 67.011719 43.585938 66.75 43.859375 66.417969 43.871094 C 66.414062 43.871094 66.40625 43.871094 66.402344 43.871094 " fill-opacity="1" fill-rule="nonzero"/><path fill="#000000" d="M 66.191406 35.84375 C 65.867188 35.84375 65.597656 35.589844 65.589844 35.261719 L 65.535156 33.140625 C 65.527344 32.808594 65.785156 32.53125 66.117188 32.523438 C 66.4375 32.507812 66.726562 32.777344 66.734375 33.105469 L 66.789062 35.230469 C 66.796875 35.5625 66.539062 35.839844 66.207031 35.84375 C 66.199219 35.84375 66.195312 35.84375 66.191406 35.84375 " fill-opacity="1" fill-rule="nonzero"/><path fill="#d9d9d9" d="M 111.5 84.710938 C 111.5 86.933594 109.699219 88.734375 107.476562 88.734375 C 105.25 88.734375 103.449219 86.933594 103.449219 84.710938 C 103.449219 82.484375 105.25 80.683594 107.476562 80.683594 C 109.699219 80.683594 111.5 82.484375 111.5 84.710938 " fill-opacity="1" fill-rule="nonzero"/></svg>