<svg xmlns="http://www.w3.org/2000/svg" xmlns:xlink="http://www.w3.org/1999/xlink" width="500" zoomAndPan="magnify" viewBox="0 0 375 374.999991" height="500" preserveAspectRatio="xMidYMid meet" version="1.0"><path fill="#55adff" d="M 375 187.5 C 375 190.570312 374.925781 193.636719 374.773438 196.699219 C 374.625 199.765625 374.398438 202.824219 374.097656 205.878906 C 373.796875 208.933594 373.421875 211.976562 372.96875 215.011719 C 372.519531 218.046875 371.996094 221.070312 371.398438 224.078125 C 370.796875 227.089844 370.125 230.082031 369.378906 233.058594 C 368.636719 236.035156 367.816406 238.992188 366.925781 241.929688 C 366.035156 244.863281 365.074219 247.777344 364.039062 250.667969 C 363.003906 253.554688 361.902344 256.417969 360.726562 259.253906 C 359.554688 262.089844 358.308594 264.894531 356.996094 267.667969 C 355.6875 270.441406 354.308594 273.179688 352.859375 275.886719 C 351.414062 278.59375 349.902344 281.261719 348.324219 283.894531 C 346.746094 286.527344 345.105469 289.117188 343.402344 291.667969 C 341.695312 294.222656 339.929688 296.730469 338.101562 299.195312 C 336.273438 301.660156 334.386719 304.078125 332.4375 306.449219 C 330.492188 308.820312 328.488281 311.144531 326.429688 313.417969 C 324.367188 315.691406 322.253906 317.914062 320.082031 320.082031 C 317.914062 322.253906 315.691406 324.367188 313.417969 326.429688 C 311.144531 328.488281 308.820312 330.492188 306.449219 332.4375 C 304.078125 334.386719 301.660156 336.273438 299.195312 338.101562 C 296.730469 339.929688 294.222656 341.695312 291.667969 343.402344 C 289.117188 345.105469 286.527344 346.746094 283.894531 348.324219 C 281.261719 349.902344 278.59375 351.414062 275.886719 352.859375 C 273.179688 354.308594 270.441406 355.6875 267.667969 356.996094 C 264.894531 358.308594 262.089844 359.554688 259.253906 360.726562 C 256.417969 361.902344 253.554688 363.003906 250.667969 364.039062 C 247.777344 365.074219 244.863281 366.035156 241.929688 366.925781 C 238.992188 367.816406 236.035156 368.636719 233.058594 369.378906 C 230.082031 370.125 227.089844 370.796875 224.078125 371.398438 C 221.070312 371.996094 218.046875 372.519531 215.011719 372.96875 C 211.976562 373.421875 208.933594 373.796875 205.878906 374.097656 C 202.824219 374.398438 199.765625 374.625 196.699219 374.773438 C 193.636719 374.925781 190.570312 375 187.5 375 C 184.429688 375 181.363281 374.925781 178.300781 374.773438 C 175.234375 374.625 172.175781 374.398438 169.121094 374.097656 C 166.066406 373.796875 163.023438 373.421875 159.988281 372.96875 C 156.953125 372.519531 153.929688 371.996094 150.921875 371.398438 C 147.910156 370.796875 144.917969 370.125 141.941406 369.378906 C 138.964844 368.636719 136.007812 367.816406 133.070312 366.925781 C 130.136719 366.035156 127.222656 365.074219 124.332031 364.039062 C 121.445312 363.003906 118.582031 361.902344 115.746094 360.726562 C 112.910156 359.554688 110.105469 358.308594 107.332031 356.996094 C 104.558594 355.6875 101.820312 354.308594 99.113281 352.859375 C 96.40625 351.414062 93.738281 349.902344 91.105469 348.324219 C 88.472656 346.746094 85.882812 345.105469 83.332031 343.402344 C 80.777344 341.695312 78.269531 339.929688 75.804688 338.101562 C 73.339844 336.273438 70.921875 334.386719 68.550781 332.4375 C 66.179688 330.492188 63.855469 328.488281 61.582031 326.429688 C 59.308594 324.367188 57.085938 322.253906 54.917969 320.082031 C 52.746094 317.914062 50.632812 315.691406 48.570312 313.417969 C 46.511719 311.144531 44.507812 308.820312 42.558594 306.449219 C 40.613281 304.078125 38.726562 301.660156 36.898438 299.195312 C 35.070312 296.730469 33.304688 294.222656 31.597656 291.667969 C 29.894531 289.117188 28.253906 286.527344 26.675781 283.894531 C 25.097656 281.261719 23.585938 278.59375 22.140625 275.886719 C 20.691406 273.179688 19.3125 270.441406 18.003906 267.667969 C 16.691406 264.894531 15.445312 262.089844 14.273438 259.253906 C 13.097656 256.417969 11.996094 253.554688 10.960938 250.667969 C 9.925781 247.777344 8.964844 244.863281 8.074219 241.929688 C 7.183594 238.992188 6.363281 236.035156 5.617188 233.058594 C 4.875 230.082031 4.203125 227.089844 3.601562 224.078125 C 3.003906 221.070312 2.480469 218.046875 2.03125 215.011719 C 1.578125 211.976562 1.203125 208.933594 0.902344 205.878906 C 0.601562 202.824219 0.375 199.765625 0.226562 196.699219 C 0.0742188 193.636719 0 190.570312 0 187.5 C 0 184.429688 0.0742188 181.363281 0.226562 178.300781 C 0.375 175.234375 0.601562 172.175781 0.902344 169.121094 C 1.203125 166.066406 1.578125 163.023438 2.03125 159.988281 C 2.480469 156.953125 3.003906 153.929688 3.601562 150.921875 C 4.203125 147.910156 4.875 144.917969 5.617188 141.941406 C 6.363281 138.964844 7.183594 136.007812 8.074219 133.070312 C 8.964844 130.136719 9.925781 127.222656 10.960938 124.332031 C 11.996094 121.445312 13.097656 118.582031 14.273438 115.746094 C 15.445312 112.910156 16.691406 110.105469 18.003906 107.332031 C 19.3125 104.558594 20.691406 101.820312 22.140625 99.113281 C 23.585938 96.40625 25.097656 93.738281 26.675781 91.105469 C 28.253906 88.472656 29.894531 85.882812 31.597656 83.332031 C 33.304688 80.777344 35.070312 78.269531 36.898438 75.804688 C 38.726562 73.339844 40.613281 70.921875 42.558594 68.550781 C 44.507812 66.179688 46.511719 63.855469 48.570312 61.582031 C 50.632812 59.308594 52.746094 57.085938 54.917969 54.917969 C 57.085938 52.746094 59.308594 50.632812 61.582031 48.570312 C 63.855469 46.511719 66.179688 44.507812 68.550781 42.558594 C 70.921875 40.613281 73.339844 38.726562 75.804688 36.898438 C 78.269531 35.070312 80.777344 33.304688 83.332031 31.597656 C 85.882812 29.894531 88.472656 28.253906 91.105469 26.675781 C 93.738281 25.097656 96.40625 23.585938 99.113281 22.140625 C 101.820312 20.691406 104.558594 19.3125 107.332031 18.003906 C 110.105469 16.691406 112.910156 15.445312 115.746094 14.273438 C 118.582031 13.097656 121.445312 11.996094 124.332031 10.960938 C 127.222656 9.925781 130.136719 8.964844 133.070312 8.074219 C 136.007812 7.183594 138.964844 6.363281 141.941406 5.617188 C 144.917969 4.875 147.910156 4.203125 150.921875 3.601562 C 153.929688 3.003906 156.953125 2.480469 159.988281 2.03125 C 163.023438 1.578125 166.066406 1.203125 169.121094 0.902344 C 172.175781 0.601562 175.234375 0.375 178.300781 0.226562 C 181.363281 0.0742188 184.429688 0 187.5 0 C 190.570312 0 193.636719 0.0742188 196.699219 0.226562 C 199.765625 0.375 202.824219 0.601562 205.878906 0.902344 C 208.933594 1.203125 211.976562 1.578125 215.011719 2.03125 C 218.046875 2.480469 221.070312 3.003906 224.078125 3.601562 C 227.089844 4.203125 230.082031 4.875 233.058594 5.617188 C 236.035156 6.363281 238.992188 7.183594 241.929688 8.074219 C 244.863281 8.964844 247.777344 9.925781 250.667969 10.960938 C 253.554688 11.996094 256.417969 13.097656 259.253906 14.273438 C 262.089844 15.445312 264.894531 16.691406 267.667969 18.003906 C 270.441406 19.3125 273.179688 20.691406 275.886719 22.140625 C 278.59375 23.585938 281.261719 25.097656 283.894531 26.675781 C 286.527344 28.253906 289.117188 29.894531 291.667969 31.597656 C 294.222656 33.304688 296.730469 35.070312 299.195312 36.898438 C 301.660156 38.726562 304.078125 40.613281 306.449219 42.558594 C 308.820312 44.507812 311.144531 46.511719 313.417969 48.570312 C 315.691406 50.632812 317.914062 52.746094 320.082031 54.917969 C 322.253906 57.085938 324.367188 59.308594 326.429688 61.582031 C 328.488281 63.855469 330.492188 66.179688 332.4375 68.550781 C 334.386719 70.921875 336.273438 73.339844 338.101562 75.804688 C 339.929688 78.269531 341.695312 80.777344 343.402344 83.332031 C 345.105469 85.882812 346.746094 88.472656 348.324219 91.105469 C 349.902344 93.738281 351.414062 96.40625 352.859375 99.113281 C 354.308594 101.820312 355.6875 104.558594 356.996094 107.332031 C 358.308594 110.105469 359.554688 112.910156 360.726562 115.746094 C 361.902344 118.582031 363.003906 121.445312 364.039062 124.332031 C 365.074219 127.222656 366.035156 130.136719 366.925781 133.070312 C 367.816406 136.007812 368.636719 138.964844 369.378906 141.941406 C 370.125 144.917969 370.796875 147.910156 371.398438 150.921875 C 371.996094 153.929688 372.519531 156.953125 372.96875 159.988281 C 373.421875 163.023438 373.796875 166.066406 374.097656 169.121094 C 374.398438 172.175781 374.625 175.234375 374.773438 178.300781 C 374.925781 181.363281 375 184.429688 375 187.5 Z M 375 187.5 " fill-opacity="1" fill-rule="nonzero"/><path fill="#212121" d="M 253.269531 180.085938 C 262.691406 163.402344 269.785156 145.78125 274.554688 127.226562 C 274.648438 126.75 287.738281 80.148438 267.855469 60.269531 C 266.054688 58.582031 264.101562 57.09375 262 55.804688 C 259.898438 54.511719 257.6875 53.445312 255.367188 52.601562 C 253.046875 51.753906 250.667969 51.152344 248.226562 50.789062 C 245.785156 50.425781 243.335938 50.308594 240.871094 50.441406 C 235.542969 50.476562 230.296875 51.125 225.125 52.398438 L 221.332031 53.328125 L 218.65625 50.480469 C 215.039062 46.632812 206.183594 40.179688 187.5 40.179688 C 159.949219 40.179688 113.839844 40.179688 100.445312 66.964844 C 87.195312 93.46875 97.054688 132.699219 97.136719 133.097656 C 99.4375 141.496094 102.433594 149.640625 106.121094 157.527344 C 109.808594 165.414062 114.132812 172.933594 119.101562 180.085938 Z M 253.269531 180.085938 " fill-opacity="1" fill-rule="nonzero"/><path fill="#ea7760" d="M 287.542969 174.105469 C 287.542969 173.238281 287.5 172.375 287.414062 171.507812 C 287.328125 170.644531 287.199219 169.789062 287.03125 168.9375 C 286.863281 168.085938 286.652344 167.242188 286.402344 166.414062 C 286.152344 165.582031 285.859375 164.765625 285.53125 163.960938 C 285.199219 163.160156 284.832031 162.375 284.425781 161.609375 C 284.019531 160.839844 283.578125 160.09375 283.097656 159.371094 C 282.621094 158.648438 282.105469 157.949219 281.558594 157.273438 C 281.011719 156.601562 280.433594 155.953125 279.824219 155.335938 C 279.214844 154.71875 278.578125 154.132812 277.910156 153.574219 C 277.246094 153.019531 276.550781 152.496094 275.835938 152.007812 C 275.117188 151.519531 274.378906 151.066406 273.617188 150.648438 C 272.855469 150.234375 272.074219 149.855469 271.277344 149.511719 C 270.480469 149.171875 269.667969 148.871094 268.839844 148.609375 C 268.011719 148.347656 267.171875 148.125 266.324219 147.945312 C 265.476562 147.765625 264.617188 147.625 263.757812 147.527344 C 262.894531 147.429688 262.027344 147.375 261.160156 147.363281 L 261.160156 147.320312 L 247.769531 147.320312 L 247.769531 200.894531 L 261.160156 200.894531 L 261.160156 200.851562 C 262.027344 200.839844 262.894531 200.785156 263.757812 200.6875 C 264.617188 200.589844 265.476562 200.449219 266.324219 200.269531 C 267.171875 200.089844 268.011719 199.867188 268.839844 199.605469 C 269.667969 199.34375 270.480469 199.042969 271.277344 198.699219 C 272.074219 198.359375 272.855469 197.980469 273.617188 197.5625 C 274.378906 197.148438 275.117188 196.695312 275.835938 196.207031 C 276.550781 195.71875 277.246094 195.195312 277.910156 194.640625 C 278.578125 194.082031 279.214844 193.496094 279.824219 192.878906 C 280.433594 192.261719 281.011719 191.613281 281.558594 190.941406 C 282.105469 190.265625 282.621094 189.566406 283.097656 188.84375 C 283.578125 188.117188 284.019531 187.375 284.425781 186.605469 C 284.832031 185.839844 285.199219 185.054688 285.53125 184.25 C 285.859375 183.449219 286.152344 182.632812 286.402344 181.800781 C 286.652344 180.96875 286.863281 180.128906 287.03125 179.277344 C 287.199219 178.425781 287.328125 177.570312 287.414062 176.703125 C 287.5 175.839844 287.542969 174.976562 287.542969 174.105469 Z M 287.542969 174.105469 " fill-opacity="1" fill-rule="nonzero"/><path fill="#ea7760" d="M 113.839844 147.320312 C 112.960938 147.320312 112.085938 147.363281 111.214844 147.449219 C 110.339844 147.535156 109.472656 147.664062 108.613281 147.835938 C 107.753906 148.007812 106.902344 148.21875 106.0625 148.476562 C 105.222656 148.730469 104.398438 149.023438 103.589844 149.359375 C 102.777344 149.695312 101.984375 150.070312 101.210938 150.484375 C 100.4375 150.898438 99.6875 151.347656 98.957031 151.835938 C 98.226562 152.324219 97.523438 152.84375 96.847656 153.402344 C 96.167969 153.957031 95.519531 154.546875 94.898438 155.167969 C 94.277344 155.785156 93.691406 156.4375 93.132812 157.113281 C 92.578125 157.792969 92.054688 158.496094 91.566406 159.226562 C 91.082031 159.957031 90.628906 160.707031 90.214844 161.480469 C 89.804688 162.253906 89.429688 163.046875 89.09375 163.855469 C 88.757812 164.667969 88.460938 165.492188 88.207031 166.332031 C 87.953125 167.171875 87.738281 168.019531 87.566406 168.882812 C 87.398438 169.742188 87.269531 170.609375 87.183594 171.480469 C 87.097656 172.355469 87.054688 173.230469 87.054688 174.105469 C 87.054688 174.984375 87.097656 175.859375 87.183594 176.734375 C 87.269531 177.605469 87.398438 178.472656 87.566406 179.332031 C 87.738281 180.191406 87.953125 181.042969 88.207031 181.882812 C 88.460938 182.722656 88.757812 183.546875 89.09375 184.359375 C 89.429688 185.167969 89.804688 185.960938 90.214844 186.734375 C 90.628906 187.507812 91.082031 188.257812 91.566406 188.988281 C 92.054688 189.71875 92.578125 190.421875 93.132812 191.101562 C 93.691406 191.777344 94.277344 192.425781 94.898438 193.046875 C 95.519531 193.667969 96.167969 194.257812 96.847656 194.8125 C 97.523438 195.371094 98.226562 195.890625 98.957031 196.378906 C 99.6875 196.867188 100.4375 197.316406 101.210938 197.730469 C 101.984375 198.144531 102.777344 198.519531 103.589844 198.855469 C 104.398438 199.191406 105.222656 199.484375 106.0625 199.738281 C 106.902344 199.992188 107.753906 200.207031 108.613281 200.378906 C 109.472656 200.550781 110.339844 200.679688 111.214844 200.765625 C 112.085938 200.851562 112.960938 200.894531 113.839844 200.894531 L 127.230469 200.894531 L 127.230469 147.320312 Z M 113.839844 147.320312 " fill-opacity="1" fill-rule="nonzero"/><path fill="#ffab91" d="M 326.519531 313.394531 C 321.425781 318.996094 316.019531 324.273438 310.292969 329.226562 C 304.566406 334.179688 298.5625 338.773438 292.285156 343.003906 C 286.007812 347.234375 279.496094 351.074219 272.753906 354.523438 C 266.015625 357.96875 259.09375 361 251.988281 363.617188 L 251.917969 363.617188 C 239.472656 368.191406 226.683594 371.382812 213.550781 373.191406 C 212.90625 373.292969 212.257812 373.359375 211.605469 373.394531 C 210.132812 373.660156 208.59375 373.863281 207.054688 373.996094 C 194.019531 375.339844 180.980469 375.339844 167.945312 373.996094 C 166.40625 373.863281 164.867188 373.660156 163.394531 373.394531 C 162.742188 373.359375 162.09375 373.292969 161.449219 373.191406 C 148.316406 371.382812 135.527344 368.191406 123.082031 363.617188 L 123.011719 363.617188 C 115.90625 361 108.984375 357.96875 102.246094 354.523438 C 95.503906 351.074219 88.992188 347.234375 82.714844 343.003906 C 76.4375 338.773438 70.433594 334.179688 64.707031 329.226562 C 58.980469 324.273438 53.574219 318.996094 48.480469 313.394531 C 50.324219 310.199219 52.46875 307.226562 54.921875 304.476562 C 57.371094 301.726562 60.078125 299.253906 63.039062 297.058594 C 66 294.863281 69.152344 292.992188 72.5 291.445312 C 75.84375 289.902344 79.3125 288.710938 82.902344 287.878906 L 119.800781 279.441406 L 136.742188 275.492188 L 138.28125 275.15625 L 144.175781 273.816406 L 149.730469 272.542969 L 160.714844 270 L 160.714844 249.375 L 214.285156 249.375 L 214.285156 270 L 225.269531 272.542969 L 230.824219 273.816406 L 236.71875 275.15625 L 238.257812 275.492188 L 255.199219 279.441406 L 292.097656 287.878906 C 295.6875 288.710938 299.15625 289.902344 302.5 291.445312 C 305.847656 292.992188 309 294.863281 311.960938 297.058594 C 314.921875 299.253906 317.628906 301.726562 320.078125 304.476562 C 322.53125 307.226562 324.675781 310.199219 326.519531 313.394531 Z M 326.519531 313.394531 " fill-opacity="1" fill-rule="nonzero"/><path fill="#212121" d="M 326.519531 313.394531 C 321.425781 318.996094 316.019531 324.273438 310.292969 329.226562 C 304.566406 334.179688 298.5625 338.773438 292.285156 343.003906 C 286.007812 347.234375 279.496094 351.074219 272.753906 354.523438 C 266.015625 357.96875 259.09375 361 251.988281 363.617188 L 251.917969 363.617188 C 239.472656 368.191406 226.683594 371.382812 213.550781 373.191406 C 212.90625 373.292969 212.257812 373.359375 211.605469 373.394531 C 210.132812 373.660156 208.59375 373.863281 207.054688 373.996094 C 194.019531 375.339844 180.980469 375.339844 167.945312 373.996094 C 166.40625 373.863281 164.867188 373.660156 163.394531 373.394531 C 162.742188 373.359375 162.09375 373.292969 161.449219 373.191406 C 148.316406 371.382812 135.527344 368.191406 123.082031 363.617188 L 123.011719 363.617188 C 115.90625 361 108.984375 357.96875 102.246094 354.523438 C 95.503906 351.074219 88.992188 347.234375 82.714844 343.003906 C 76.4375 338.773438 70.433594 334.179688 64.707031 329.226562 C 58.980469 324.273438 53.574219 318.996094 48.480469 313.394531 C 50.324219 310.199219 52.46875 307.226562 54.921875 304.476562 C 57.371094 301.726562 60.078125 299.253906 63.039062 297.058594 C 66 294.863281 69.152344 292.992188 72.5 291.445312 C 75.84375 289.902344 79.3125 288.710938 82.902344 287.878906 L 119.800781 279.441406 L 136.742188 275.558594 L 136.742188 275.492188 L 138.28125 275.15625 L 144.175781 273.816406 L 149.933594 278.238281 L 173.101562 296.183594 L 176.851562 299.0625 L 187.5 307.300781 L 198.148438 299.0625 L 201.898438 296.183594 L 225.066406 278.238281 L 230.824219 273.816406 L 236.71875 275.15625 L 238.257812 275.492188 L 238.257812 275.558594 L 255.199219 279.441406 L 292.097656 287.878906 C 295.6875 288.710938 299.15625 289.902344 302.5 291.445312 C 305.847656 292.992188 309 294.863281 311.960938 297.058594 C 314.921875 299.253906 317.628906 301.726562 320.078125 304.476562 C 322.53125 307.226562 324.675781 310.199219 326.519531 313.394531 Z M 326.519531 313.394531 " fill-opacity="1" fill-rule="nonzero"/><path fill="#ea7760" d="M 214.285156 263.597656 L 214.285156 249.398438 L 160.714844 249.398438 L 160.714844 263.597656 C 165.039062 265.007812 169.445312 266.070312 173.9375 266.785156 C 178.429688 267.5 182.953125 267.855469 187.5 267.855469 C 192.046875 267.855469 196.570312 267.5 201.0625 266.785156 C 205.554688 266.070312 209.960938 265.007812 214.285156 263.597656 Z M 214.285156 263.597656 " fill-opacity="1" fill-rule="nonzero"/><path fill="#ffab91" d="M 113.839844 147.320312 C 113.839844 106.640625 120.535156 73.660156 187.5 73.660156 C 254.464844 73.660156 261.160156 106.640625 261.160156 147.320312 L 261.160156 180.804688 C 261.160156 182.007812 261.132812 183.214844 261.070312 184.417969 C 261.011719 185.621094 260.925781 186.824219 260.804688 188.023438 C 260.6875 189.222656 260.539062 190.417969 260.363281 191.613281 C 260.1875 192.804688 259.980469 193.992188 259.746094 195.175781 C 259.511719 196.355469 259.246094 197.53125 258.953125 198.703125 C 258.660156 199.871094 258.339844 201.03125 257.988281 202.1875 C 257.640625 203.339844 257.261719 204.484375 256.855469 205.617188 C 256.449219 206.753906 256.015625 207.878906 255.554688 208.992188 C 255.09375 210.105469 254.605469 211.207031 254.089844 212.296875 C 253.574219 213.386719 253.03125 214.464844 252.464844 215.527344 C 251.894531 216.589844 251.300781 217.640625 250.679688 218.671875 C 250.0625 219.707031 249.417969 220.726562 248.746094 221.726562 C 248.078125 222.730469 247.382812 223.714844 246.664062 224.683594 C 245.945312 225.652344 245.207031 226.601562 244.441406 227.535156 C 243.675781 228.464844 242.886719 229.378906 242.078125 230.269531 C 241.269531 231.164062 240.4375 232.035156 239.585938 232.890625 C 238.734375 233.742188 237.859375 234.574219 236.96875 235.382812 C 236.074219 236.191406 235.160156 236.980469 234.230469 237.742188 C 233.296875 238.507812 232.347656 239.25 231.378906 239.96875 C 230.410156 240.6875 229.425781 241.378906 228.421875 242.050781 C 227.421875 242.71875 226.402344 243.363281 225.371094 243.984375 C 224.335938 244.605469 223.285156 245.199219 222.222656 245.765625 C 221.160156 246.335938 220.082031 246.875 218.992188 247.390625 C 217.902344 247.90625 216.800781 248.394531 215.6875 248.855469 C 214.574219 249.320312 213.449219 249.753906 212.316406 250.160156 C 211.179688 250.566406 210.035156 250.941406 208.882812 251.292969 C 207.730469 251.640625 206.566406 251.964844 205.398438 252.257812 C 204.230469 252.550781 203.054688 252.8125 201.871094 253.050781 C 200.6875 253.285156 199.5 253.488281 198.308594 253.667969 C 197.117188 253.84375 195.917969 253.992188 194.71875 254.109375 C 193.519531 254.226562 192.320312 254.316406 191.113281 254.375 C 189.910156 254.433594 188.707031 254.464844 187.5 254.464844 C 186.292969 254.464844 185.089844 254.433594 183.886719 254.375 C 182.679688 254.316406 181.480469 254.226562 180.28125 254.109375 C 179.082031 253.992188 177.882812 253.84375 176.691406 253.667969 C 175.5 253.488281 174.3125 253.285156 173.128906 253.050781 C 171.945312 252.8125 170.769531 252.550781 169.601562 252.257812 C 168.433594 251.964844 167.269531 251.640625 166.117188 251.292969 C 164.964844 250.941406 163.820312 250.566406 162.683594 250.160156 C 161.550781 249.753906 160.425781 249.320312 159.3125 248.855469 C 158.199219 248.394531 157.097656 247.90625 156.007812 247.390625 C 154.917969 246.875 153.839844 246.335938 152.777344 245.765625 C 151.714844 245.199219 150.664062 244.605469 149.628906 243.984375 C 148.597656 243.363281 147.578125 242.71875 146.578125 242.050781 C 145.574219 241.378906 144.589844 240.6875 143.621094 239.96875 C 142.652344 239.25 141.703125 238.507812 140.769531 237.742188 C 139.839844 236.980469 138.925781 236.191406 138.03125 235.382812 C 137.140625 234.574219 136.265625 233.742188 135.414062 232.890625 C 134.5625 232.035156 133.730469 231.164062 132.921875 230.269531 C 132.113281 229.378906 131.324219 228.464844 130.558594 227.535156 C 129.792969 226.601562 129.054688 225.652344 128.335938 224.683594 C 127.617188 223.714844 126.921875 222.730469 126.253906 221.726562 C 125.582031 220.726562 124.9375 219.707031 124.320312 218.671875 C 123.699219 217.640625 123.105469 216.589844 122.535156 215.527344 C 121.96875 214.464844 121.425781 213.386719 120.910156 212.296875 C 120.394531 211.207031 119.90625 210.105469 119.445312 208.992188 C 118.984375 207.878906 118.550781 206.753906 118.144531 205.617188 C 117.738281 204.484375 117.359375 203.339844 117.011719 202.1875 C 116.660156 201.03125 116.339844 199.871094 116.046875 198.703125 C 115.753906 197.53125 115.488281 196.355469 115.253906 195.175781 C 115.019531 193.992188 114.8125 192.804688 114.636719 191.613281 C 114.460938 190.417969 114.3125 189.222656 114.195312 188.023438 C 114.074219 186.824219 113.988281 185.621094 113.929688 184.417969 C 113.867188 183.214844 113.839844 182.007812 113.839844 180.804688 Z M 113.839844 147.320312 " fill-opacity="1" fill-rule="nonzero"/><path fill="#212121" d="M 212.886719 61.460938 C 214.460938 61.453125 216.03125 61.523438 217.597656 61.667969 C 219.164062 61.816406 220.722656 62.039062 222.265625 62.339844 C 223.8125 62.640625 225.339844 63.015625 226.847656 63.46875 C 228.355469 63.917969 229.839844 64.441406 231.296875 65.039062 C 232.753906 65.636719 234.175781 66.304688 235.566406 67.042969 C 236.957031 67.78125 238.308594 68.582031 239.621094 69.453125 C 240.933594 70.324219 242.199219 71.257812 243.417969 72.253906 C 244.636719 73.25 245.804688 74.300781 246.921875 75.414062 C 248.039062 76.523438 249.097656 77.683594 250.097656 78.898438 C 251.097656 80.113281 252.039062 81.375 252.914062 82.683594 C 253.792969 83.992188 254.601562 85.339844 255.347656 86.726562 C 256.089844 88.113281 256.765625 89.535156 257.371094 90.988281 C 257.972656 92.441406 258.503906 93.921875 258.964844 95.425781 C 259.421875 96.933594 259.804688 98.457031 260.113281 100.003906 C 260.421875 101.546875 260.652344 103.101562 260.808594 104.667969 C 260.960938 106.234375 261.039062 107.804688 261.039062 109.378906 L 261.039062 142.777344 L 261.019531 142.773438 C 260.730469 142.707031 230.003906 135.714844 218.074219 116.136719 L 213.660156 108.886719 L 207.636719 114.871094 C 203.007812 119.492188 197.847656 123.421875 192.15625 126.65625 C 186.46875 129.890625 180.453125 132.3125 174.109375 133.929688 C 154.253906 138.269531 134.167969 140.503906 113.84375 140.625 L 113.84375 109.628906 C 113.84375 108.066406 113.917969 106.503906 114.070312 104.949219 C 114.226562 103.390625 114.453125 101.84375 114.757812 100.308594 C 115.0625 98.773438 115.441406 97.257812 115.894531 95.761719 C 116.347656 94.261719 116.871094 92.792969 117.46875 91.34375 C 118.066406 89.898438 118.730469 88.484375 119.464844 87.105469 C 120.203125 85.722656 121.003906 84.382812 121.871094 83.078125 C 122.738281 81.777344 123.664062 80.519531 124.65625 79.308594 C 125.644531 78.097656 126.691406 76.9375 127.796875 75.828125 C 128.898438 74.71875 130.054688 73.664062 131.261719 72.671875 C 132.46875 71.675781 133.71875 70.738281 135.019531 69.867188 C 136.316406 68.992188 137.65625 68.1875 139.03125 67.445312 C 140.410156 66.703125 141.820312 66.027344 143.261719 65.425781 C 144.707031 64.820312 146.175781 64.289062 147.671875 63.828125 C 149.167969 63.367188 150.679688 62.980469 152.214844 62.671875 C 153.746094 62.359375 155.292969 62.121094 156.847656 61.960938 C 158.40625 61.800781 159.964844 61.71875 161.53125 61.710938 Z M 212.886719 61.460938 " fill-opacity="1" fill-rule="nonzero"/><path fill="#cbcfd1" d="M 238.257812 275.492188 L 238.257812 275.558594 C 237.621094 294.996094 234.765625 314.105469 229.6875 332.878906 C 225.628906 346.84375 220.25 360.28125 213.550781 373.191406 C 212.90625 373.292969 212.257812 373.359375 211.605469 373.394531 C 210.132812 373.660156 208.59375 373.863281 207.054688 373.996094 C 194.019531 375.339844 180.980469 375.339844 167.945312 373.996094 C 166.40625 373.863281 164.867188 373.660156 163.394531 373.394531 C 162.742188 373.359375 162.09375 373.292969 161.449219 373.191406 C 154.75 360.28125 149.371094 346.84375 145.3125 332.878906 C 140.234375 314.105469 137.378906 294.996094 136.742188 275.558594 L 136.742188 275.492188 L 138.28125 275.15625 L 144.175781 273.816406 L 149.933594 278.238281 L 173.101562 296.183594 L 176.851562 299.0625 L 187.5 307.300781 L 198.148438 299.0625 L 201.898438 296.183594 L 225.066406 278.238281 L 230.824219 273.816406 L 236.71875 275.15625 Z M 238.257812 275.492188 " fill-opacity="1" fill-rule="nonzero"/><path fill="#bf0d27" d="M 199.21875 293.355469 L 187.5 299.90625 L 175.78125 293.355469 L 163.136719 306.808594 L 177.214844 321.246094 L 197.785156 321.246094 L 211.863281 306.808594 Z M 199.21875 293.355469 " fill-opacity="1" fill-rule="nonzero"/><path fill="#e8002d" d="M 211.605469 373.394531 C 210.132812 373.660156 208.59375 373.863281 207.054688 373.996094 C 194.019531 375.339844 180.980469 375.339844 167.945312 373.996094 C 166.40625 373.863281 164.867188 373.660156 163.394531 373.394531 L 165.402344 365.960938 L 177.589844 321.226562 L 187.5 321.09375 L 197.410156 321.226562 L 209.597656 365.960938 Z M 211.605469 373.394531 " fill-opacity="1" fill-rule="nonzero"/><path fill="#90a4ae" d="M 162.1875 321.703125 L 180.804688 292.949219 L 160.714844 270.007812 L 138.261719 275.167969 Z M 162.1875 321.703125 " fill-opacity="1" fill-rule="nonzero"/><path fill="#90a4ae" d="M 236.738281 275.167969 L 214.285156 270.007812 L 194.195312 292.949219 L 212.8125 321.703125 Z M 236.738281 275.167969 " fill-opacity="1" fill-rule="nonzero"/><path fill="#464646" d="M 167.945312 373.996094 C 166.40625 373.863281 164.867188 373.660156 163.394531 373.394531 C 162.742188 373.359375 162.09375 373.292969 161.449219 373.191406 C 148.316406 371.382812 135.527344 368.191406 123.082031 363.617188 L 123.011719 363.617188 L 120.535156 361.605469 L 127.230469 334.820312 L 104.597656 319.820312 L 119.800781 279.441406 L 136.742188 275.558594 L 138.28125 275.15625 L 144.175781 273.816406 L 149.730469 272.542969 C 149.800781 274.417969 149.800781 276.292969 149.933594 278.238281 C 150.269531 285.738281 150.9375 293.707031 152.007812 301.875 C 154.726562 323.601562 159.191406 344.964844 165.402344 365.960938 C 166.273438 368.707031 167.074219 371.382812 167.945312 373.996094 Z M 167.945312 373.996094 " fill-opacity="1" fill-rule="nonzero"/><path fill="#464646" d="M 247.769531 334.820312 L 254.464844 361.605469 L 251.988281 363.617188 L 251.917969 363.617188 C 239.472656 368.191406 226.683594 371.382812 213.550781 373.191406 C 212.90625 373.292969 212.257812 373.359375 211.605469 373.394531 C 210.132812 373.660156 208.59375 373.863281 207.054688 373.996094 C 207.925781 371.382812 208.726562 368.707031 209.597656 365.960938 C 215.808594 344.964844 220.273438 323.601562 222.992188 301.875 C 224.0625 293.707031 224.730469 285.738281 225.066406 278.238281 C 225.199219 276.292969 225.199219 274.417969 225.269531 272.542969 L 230.824219 273.816406 L 236.71875 275.15625 L 238.257812 275.558594 L 255.199219 279.441406 L 270.402344 319.820312 Z M 247.769531 334.820312 " fill-opacity="1" fill-rule="nonzero"/></svg>