<svg xmlns="http://www.w3.org/2000/svg" xmlns:xlink="http://www.w3.org/1999/xlink" width="500" zoomAndPan="magnify" viewBox="0 0 375 374.999991" height="500" preserveAspectRatio="xMidYMid meet" version="1.0"><defs><clipPath id="e8f9b582b0"><path d="M 130 16 L 246.539062 16 L 246.539062 131.925781 L 130 131.925781 Z M 130 16 " clip-rule="nonzero"/></clipPath><clipPath id="6a89ba6685"><path d="M 0.0546875 187.558594 C 0.0546875 291.117188 84 375.058594 187.554688 375.058594 C 291.113281 375.058594 375.054688 291.117188 375.054688 187.558594 C 375.054688 84 291.113281 0.0585938 187.554688 0.0585938 C 84 0.0546875 0.0546875 84 0.0546875 187.558594 Z M 0.0546875 187.558594 " clip-rule="nonzero"/></clipPath><clipPath id="dfc7355af6"><path d="M 227.433594 63 L 278 63 L 278 97 L 227.433594 97 Z M 227.433594 63 " clip-rule="nonzero"/></clipPath><clipPath id="147b06855d"><path d="M 0.0546875 187.558594 C 0.0546875 291.117188 84 375.058594 187.554688 375.058594 C 291.113281 375.058594 375.054688 291.117188 375.054688 187.558594 C 375.054688 84 291.113281 0.0585938 187.554688 0.0585938 C 84 0.0546875 0.0546875 84 0.0546875 187.558594 Z M 0.0546875 187.558594 " clip-rule="nonzero"/></clipPath><clipPath id="abaa418800"><path d="M 78 271 L 297 271 L 297 375 L 78 375 Z M 78 271 " clip-rule="nonzero"/></clipPath><clipPath id="4f349e6bf5"><path d="M 0.0546875 187.558594 C 0.0546875 291.117188 84 375.058594 187.554688 375.058594 C 291.113281 375.058594 375.054688 291.117188 375.054688 187.558594 C 375.054688 84 291.113281 0.0585938 187.554688 0.0585938 C 84 0.0546875 0.0546875 84 0.0546875 187.558594 Z M 0.0546875 187.558594 " clip-rule="nonzero"/></clipPath><clipPath id="f6b663633a"><path d="M 127.148438 271 L 247.730469 271 L 247.730469 342 L 127.148438 342 Z M 127.148438 271 " clip-rule="nonzero"/></clipPath><clipPath id="eadf22d36b"><path d="M 0.0546875 187.558594 C 0.0546875 291.117188 84 375.058594 187.554688 375.058594 C 291.113281 375.058594 375.054688 291.117188 375.054688 187.558594 C 375.054688 84 291.113281 0.0585938 187.554688 0.0585938 C 84 0.0546875 0.0546875 84 0.0546875 187.558594 Z M 0.0546875 187.558594 " clip-rule="nonzero"/></clipPath><clipPath id="e3420194b9"><path d="M 166 227.433594 L 209 227.433594 L 209 307.425781 L 166 307.425781 Z M 166 227.433594 " clip-rule="nonzero"/></clipPath><clipPath id="45ed872dbd"><path d="M 0.0546875 187.558594 C 0.0546875 291.117188 84 375.058594 187.554688 375.058594 C 291.113281 375.058594 375.054688 291.117188 375.054688 187.558594 C 375.054688 84 291.113281 0.0585938 187.554688 0.0585938 C 84 0.0546875 0.0546875 84 0.0546875 187.558594 Z M 0.0546875 187.558594 " clip-rule="nonzero"/></clipPath><clipPath id="6f98c6aa64"><path d="M 166 227.433594 L 209 227.433594 L 209 275 L 166 275 Z M 166 227.433594 " clip-rule="nonzero"/></clipPath><clipPath id="e7cf641a9e"><path d="M 0.0546875 187.558594 C 0.0546875 291.117188 84 375.058594 187.554688 375.058594 C 291.113281 375.058594 375.054688 291.117188 375.054688 187.558594 C 375.054688 84 291.113281 0.0585938 187.554688 0.0585938 C 84 0.0546875 0.0546875 84 0.0546875 187.558594 Z M 0.0546875 187.558594 " clip-rule="nonzero"/></clipPath><clipPath id="71ef816589"><path d="M 249 173 L 278 173 L 278 221 L 249 221 Z M 249 173 " clip-rule="nonzero"/></clipPath><clipPath id="a660efc153"><path d="M 0.0546875 187.558594 C 0.0546875 291.117188 84 375.058594 187.554688 375.058594 C 291.113281 375.058594 375.054688 291.117188 375.054688 187.558594 C 375.054688 84 291.113281 0.0585938 187.554688 0.0585938 C 84 0.0546875 0.0546875 84 0.0546875 187.558594 Z M 0.0546875 187.558594 " clip-rule="nonzero"/></clipPath><clipPath id="1c8e68c37c"><path d="M 246.539062 181 L 271 181 L 271 215.496094 L 246.539062 215.496094 Z M 246.539062 181 " clip-rule="nonzero"/></clipPath><clipPath id="303cad25fb"><path d="M 0.0546875 187.558594 C 0.0546875 291.117188 84 375.058594 187.554688 375.058594 C 291.113281 375.058594 375.054688 291.117188 375.054688 187.558594 C 375.054688 84 291.113281 0.0585938 187.554688 0.0585938 C 84 0.0546875 0.0546875 84 0.0546875 187.558594 Z M 0.0546875 187.558594 " clip-rule="nonzero"/></clipPath><clipPath id="3f82a660f9"><path d="M 100 173 L 129 173 L 129 221 L 100 221 Z M 100 173 " clip-rule="nonzero"/></clipPath><clipPath id="40d1e62f0d"><path d="M 0.0546875 187.558594 C 0.0546875 291.117188 84 375.058594 187.554688 375.058594 C 291.113281 375.058594 375.054688 291.117188 375.054688 187.558594 C 375.054688 84 291.113281 0.0585938 187.554688 0.0585938 C 84 0.0546875 0.0546875 84 0.0546875 187.558594 Z M 0.0546875 187.558594 " clip-rule="nonzero"/></clipPath><clipPath id="fee1e6dbf1"><path d="M 107 181 L 131.925781 181 L 131.925781 215.496094 L 107 215.496094 Z M 107 181 " clip-rule="nonzero"/></clipPath><clipPath id="1881d1cd31"><path d="M 0.0546875 187.558594 C 0.0546875 291.117188 84 375.058594 187.554688 375.058594 C 291.113281 375.058594 375.054688 291.117188 375.054688 187.558594 C 375.054688 84 291.113281 0.0585938 187.554688 0.0585938 C 84 0.0546875 0.0546875 84 0.0546875 187.558594 Z M 0.0546875 187.558594 " clip-rule="nonzero"/></clipPath><clipPath id="a32223bf75"><path d="M 113 90.136719 L 265 90.136719 L 265 268 L 113 268 Z M 113 90.136719 " clip-rule="nonzero"/></clipPath><clipPath id="0e94f6e23b"><path d="M 0.0546875 187.558594 C 0.0546875 291.117188 84 375.058594 187.554688 375.058594 C 291.113281 375.058594 375.054688 291.117188 375.054688 187.558594 C 375.054688 84 291.113281 0.0585938 187.554688 0.0585938 C 84 0.0546875 0.0546875 84 0.0546875 187.558594 Z M 0.0546875 187.558594 " clip-rule="nonzero"/></clipPath><clipPath id="01da06807e"><path d="M 188.039062 85.363281 L 271 85.363281 L 271 182 L 188.039062 182 Z M 188.039062 85.363281 " clip-rule="nonzero"/></clipPath><clipPath id="f7691d116c"><path d="M 0.0546875 187.558594 C 0.0546875 291.117188 84 375.058594 187.554688 375.058594 C 291.113281 375.058594 375.054688 291.117188 375.054688 187.558594 C 375.054688 84 291.113281 0.0585938 187.554688 0.0585938 C 84 0.0546875 0.0546875 84 0.0546875 187.558594 Z M 0.0546875 187.558594 " clip-rule="nonzero"/></clipPath><clipPath id="45a592fa05"><path d="M 110.433594 73.425781 L 198.78125 73.425781 L 198.78125 173.710938 L 110.433594 173.710938 Z M 110.433594 73.425781 " clip-rule="nonzero"/></clipPath><clipPath id="6db0d104f8"><path d="M 0.0546875 187.558594 C 0.0546875 291.117188 84 375.058594 187.554688 375.058594 C 291.113281 375.058594 375.054688 291.117188 375.054688 187.558594 C 375.054688 84 291.113281 0.0585938 187.554688 0.0585938 C 84 0.0546875 0.0546875 84 0.0546875 187.558594 Z M 0.0546875 187.558594 " clip-rule="nonzero"/></clipPath><clipPath id="94f0bc8b25"><path d="M 200 172 L 259.671875 172 L 259.671875 208.332031 L 200 208.332031 Z M 200 172 " clip-rule="nonzero"/></clipPath><clipPath id="a51e912407"><path d="M 0.0546875 187.558594 C 0.0546875 291.117188 84 375.058594 187.554688 375.058594 C 291.113281 375.058594 375.054688 291.117188 375.054688 187.558594 C 375.054688 84 291.113281 0.0585938 187.554688 0.0585938 C 84 0.0546875 0.0546875 84 0.0546875 187.558594 Z M 0.0546875 187.558594 " clip-rule="nonzero"/></clipPath><clipPath id="9499f237da"><path d="M 174 185.648438 L 202 185.648438 L 202 191.617188 L 174 191.617188 Z M 174 185.648438 " clip-rule="nonzero"/></clipPath><clipPath id="2f3543640b"><path d="M 0.0546875 187.558594 C 0.0546875 291.117188 84 375.058594 187.554688 375.058594 C 291.113281 375.058594 375.054688 291.117188 375.054688 187.558594 C 375.054688 84 291.113281 0.0585938 187.554688 0.0585938 C 84 0.0546875 0.0546875 84 0.0546875 187.558594 Z M 0.0546875 187.558594 " clip-rule="nonzero"/></clipPath><clipPath id="6765bf1c24"><path d="M 119 172 L 178.484375 172 L 178.484375 208.332031 L 119 208.332031 Z M 119 172 " clip-rule="nonzero"/></clipPath><clipPath id="ad88ebdc2d"><path d="M 0.0546875 187.558594 C 0.0546875 291.117188 84 375.058594 187.554688 375.058594 C 291.113281 375.058594 375.054688 291.117188 375.054688 187.558594 C 375.054688 84 291.113281 0.0585938 187.554688 0.0585938 C 84 0.0546875 0.0546875 84 0.0546875 187.558594 Z M 0.0546875 187.558594 " clip-rule="nonzero"/></clipPath><clipPath id="8de3c21586"><path d="M 253 170.128906 L 269 170.128906 L 269 191.617188 L 253 191.617188 Z M 253 170.128906 " clip-rule="nonzero"/></clipPath><clipPath id="fe0173d639"><path d="M 0.0546875 187.558594 C 0.0546875 291.117188 84 375.058594 187.554688 375.058594 C 291.113281 375.058594 375.054688 291.117188 375.054688 187.558594 C 375.054688 84 291.113281 0.0585938 187.554688 0.0585938 C 84 0.0546875 0.0546875 84 0.0546875 187.558594 Z M 0.0546875 187.558594 " clip-rule="nonzero"/></clipPath><clipPath id="4a482c0d86"><path d="M 110.433594 170.128906 L 125.957031 170.128906 L 125.957031 191.617188 L 110.433594 191.617188 Z M 110.433594 170.128906 " clip-rule="nonzero"/></clipPath><clipPath id="74314695a7"><path d="M 0.0546875 187.558594 C 0.0546875 291.117188 84 375.058594 187.554688 375.058594 C 291.113281 375.058594 375.054688 291.117188 375.054688 187.558594 C 375.054688 84 291.113281 0.0585938 187.554688 0.0585938 C 84 0.0546875 0.0546875 84 0.0546875 187.558594 Z M 0.0546875 187.558594 " clip-rule="nonzero"/></clipPath></defs><path fill="#eec124" d="M 0.0546875 187.558594 C 0.0546875 291.117188 84 375.058594 187.554688 375.058594 C 291.113281 375.058594 375.054688 291.117188 375.054688 187.558594 C 375.054688 84 291.113281 0.0585938 187.554688 0.0585938 C 84 0.0546875 0.0546875 84 0.0546875 187.558594 " fill-opacity="1" fill-rule="nonzero"/><g clip-path="url(#e8f9b582b0)"><g clip-path="url(#6a89ba6685)"><path fill="#331520" d="M 246.429688 73.9375 C 246.429688 105.921875 220.5 131.851562 188.515625 131.851562 C 156.53125 131.851562 130.597656 105.921875 130.597656 73.9375 C 130.597656 41.960938 156.53125 16.035156 188.515625 16.035156 C 220.5 16.035156 246.429688 41.960938 246.429688 73.9375 " fill-opacity="1" fill-rule="nonzero"/></g></g><g clip-path="url(#dfc7355af6)"><g clip-path="url(#147b06855d)"><path fill="#ffffff" d="M 227.589844 93.636719 C 227.589844 93.636719 273.257812 63.492188 274.75 63.191406 C 276.242188 62.894531 277.816406 68.265625 277.816406 68.265625 L 230.875 96.917969 L 227.589844 93.636719 " fill-opacity="1" fill-rule="nonzero"/></g></g><g clip-path="url(#abaa418800)"><g clip-path="url(#4f349e6bf5)"><path fill="#78d1cc" d="M 296.957031 375.574219 C 287.679688 382.496094 277.722656 388.5625 267.203125 393.636719 C 265.605469 394.414062 264.003906 395.152344 262.378906 395.882812 C 239.542969 406.125 214.21875 411.820312 187.558594 411.820312 C 160.898438 411.820312 135.589844 406.125 112.75 395.882812 C 111.113281 395.152344 109.503906 394.414062 107.914062 393.636719 C 97.398438 388.550781 87.441406 382.496094 78.175781 375.574219 C 79.800781 339.328125 99.058594 307.664062 127.578125 288.96875 C 144.804688 277.664062 165.414062 271.097656 187.558594 271.097656 C 190.9375 271.097656 194.28125 271.25 197.5625 271.550781 C 215.914062 273.210938 232.9375 279.382812 247.539062 288.96875 C 260.671875 297.578125 271.835938 308.929688 280.21875 322.207031 C 290.054688 337.785156 296.058594 356.015625 296.957031 375.574219 " fill-opacity="1" fill-rule="nonzero"/></g></g><g clip-path="url(#f6b663633a)"><g clip-path="url(#eadf22d36b)"><path fill="#ba5c21" d="M 247.539062 288.96875 C 245.867188 301.613281 240.292969 313.039062 232.042969 321.96875 C 220.988281 333.941406 205.15625 341.453125 187.558594 341.453125 C 159.371094 341.453125 135.683594 322.171875 128.964844 296.070312 C 128.367188 293.757812 127.902344 291.378906 127.578125 288.96875 C 144.804688 277.664062 165.414062 271.097656 187.558594 271.097656 C 190.9375 271.097656 194.28125 271.238281 197.578125 271.550781 C 198.148438 271.597656 198.722656 271.65625 199.285156 271.714844 C 199.640625 271.753906 200 271.789062 200.347656 271.835938 C 200.738281 271.871094 201.132812 271.933594 201.515625 271.980469 C 201.753906 272.003906 202.003906 272.039062 202.246094 272.074219 C 202.589844 272.109375 202.949219 272.171875 203.308594 272.21875 C 203.582031 272.253906 203.855469 272.300781 204.144531 272.335938 C 204.382812 272.375 204.621094 272.410156 204.859375 272.457031 C 205.265625 272.515625 205.660156 272.589844 206.066406 272.648438 C 207.808594 272.945312 209.539062 273.28125 211.246094 273.664062 L 212.390625 273.914062 C 212.605469 273.972656 212.835938 274.019531 213.050781 274.082031 C 213.457031 274.175781 213.871094 274.273438 214.265625 274.378906 C 214.339844 274.390625 214.398438 274.402344 214.445312 274.414062 C 214.960938 274.546875 215.472656 274.675781 215.972656 274.820312 C 216.523438 274.953125 217.0625 275.105469 217.585938 275.261719 C 218.195312 275.429688 218.792969 275.609375 219.402344 275.789062 C 219.867188 275.929688 220.332031 276.074219 220.796875 276.230469 C 221.097656 276.324219 221.40625 276.421875 221.691406 276.515625 C 222.183594 276.671875 222.671875 276.839844 223.148438 277.003906 C 223.746094 277.207031 224.332031 277.410156 224.917969 277.625 C 224.964844 277.648438 225 277.664062 225.035156 277.675781 C 225.644531 277.890625 226.242188 278.117188 226.839844 278.34375 C 227.28125 278.523438 227.734375 278.6875 228.1875 278.878906 C 229.371094 279.347656 230.527344 279.835938 231.671875 280.335938 L 233.179688 281.015625 C 233.632812 281.21875 234.085938 281.433594 234.539062 281.648438 C 234.957031 281.851562 235.363281 282.042969 235.769531 282.246094 C 236.152344 282.425781 236.519531 282.617188 236.890625 282.808594 C 237.128906 282.925781 237.378906 283.046875 237.621094 283.179688 C 238.609375 283.679688 239.578125 284.203125 240.53125 284.730469 C 240.878906 284.921875 241.238281 285.125 241.570312 285.316406 C 241.796875 285.445312 242.011719 285.566406 242.226562 285.683594 L 243.039062 286.164062 L 243.863281 286.664062 L 244.402344 286.988281 C 244.914062 287.285156 245.414062 287.59375 245.917969 287.917969 C 246.464844 288.265625 247.003906 288.609375 247.539062 288.96875 " fill-opacity="1" fill-rule="nonzero"/></g></g><g clip-path="url(#e3420194b9)"><g clip-path="url(#45ed872dbd)"><path fill="#ba5c21" d="M 208.644531 246.5625 L 208.644531 288.039062 C 208.644531 298.53125 200.058594 307.128906 189.578125 307.128906 L 185.542969 307.128906 C 175.058594 307.128906 166.488281 298.53125 166.488281 288.039062 L 166.488281 246.5625 C 166.488281 236.066406 175.058594 227.484375 185.542969 227.484375 L 189.578125 227.484375 C 200.058594 227.484375 208.644531 236.066406 208.644531 246.5625 " fill-opacity="1" fill-rule="nonzero"/></g></g><g clip-path="url(#6f98c6aa64)"><g clip-path="url(#e7cf641a9e)"><path fill="#9e392b" d="M 208.644531 246.5625 L 208.644531 268.503906 C 202.375 271.992188 195.726562 274.019531 188.980469 274.019531 C 181.015625 274.019531 173.425781 271.800781 166.488281 267.945312 L 166.488281 246.5625 C 166.488281 236.066406 175.058594 227.484375 185.542969 227.484375 L 189.578125 227.484375 C 200.058594 227.484375 208.644531 236.066406 208.644531 246.5625 " fill-opacity="1" fill-rule="nonzero"/></g></g><g clip-path="url(#71ef816589)"><g clip-path="url(#a660efc153)"><path fill="#ba5c21" d="M 252.566406 220.84375 C 252.566406 220.84375 265.054688 216.59375 273.03125 202.675781 C 281.699219 187.558594 276.253906 178.140625 274.535156 176.097656 C 269.84375 170.523438 262.59375 174.105469 261.402344 176.097656 C 260.207031 178.09375 242.921875 209.492188 252.566406 220.84375 " fill-opacity="1" fill-rule="nonzero"/></g></g><g clip-path="url(#1c8e68c37c)"><g clip-path="url(#303cad25fb)"><path fill="#9e392b" d="M 264.804688 181.054688 C 264.804688 181.054688 272.730469 182.066406 269.949219 193.207031 C 267.15625 204.359375 259.835938 208.761719 249.878906 214.457031 C 239.933594 220.152344 254.859375 183.320312 264.804688 181.054688 " fill-opacity="1" fill-rule="nonzero"/></g></g><g clip-path="url(#3f82a660f9)"><g clip-path="url(#40d1e62f0d)"><path fill="#ba5c21" d="M 125.800781 220.84375 C 125.800781 220.84375 113.3125 216.59375 105.335938 202.675781 C 96.65625 187.558594 102.101562 178.140625 103.820312 176.097656 C 108.511719 170.523438 115.757812 174.105469 116.953125 176.097656 C 118.148438 178.09375 135.445312 209.492188 125.800781 220.84375 " fill-opacity="1" fill-rule="nonzero"/></g></g><g clip-path="url(#fee1e6dbf1)"><g clip-path="url(#1881d1cd31)"><path fill="#9e392b" d="M 113.550781 181.054688 C 113.550781 181.054688 105.636719 182.066406 108.417969 193.207031 C 111.199219 204.359375 118.527344 208.761719 128.472656 214.457031 C 138.429688 220.152344 123.507812 183.320312 113.550781 181.054688 " fill-opacity="1" fill-rule="nonzero"/></g></g><g clip-path="url(#a32223bf75)"><g clip-path="url(#0e94f6e23b)"><path fill="#ba5c21" d="M 264.804688 173.699219 C 264.804688 127.9375 231.027344 90.832031 189.351562 90.832031 C 147.683594 90.832031 113.886719 127.9375 113.886719 173.699219 C 113.886719 219.460938 147.683594 267.300781 189.351562 267.300781 C 228.511719 267.300781 264.804688 219.078125 264.804688 173.699219 " fill-opacity="1" fill-rule="nonzero"/></g></g><g clip-path="url(#01da06807e)"><g clip-path="url(#f7691d116c)"><path fill="#331520" d="M 196.144531 140.28125 C 196.144531 140.28125 210.339844 185.949219 263.730469 181.421875 C 263.730469 181.421875 273.054688 167.945312 269.902344 138.632812 C 266.34375 105.597656 237.082031 77.804688 189.351562 87.75 C 189.351562 87.75 184.992188 111.234375 196.144531 140.28125 " fill-opacity="1" fill-rule="nonzero"/></g></g><g clip-path="url(#45a592fa05)"><g clip-path="url(#6db0d104f8)"><path fill="#331520" d="M 198.53125 90.832031 C 198.53125 90.832031 200.511719 82.1875 193.351562 75.417969 C 186.1875 68.648438 91.34375 82.546875 113.886719 173.699219 C 113.886719 173.699219 135.996094 119.1875 194.542969 114.410156 L 198.53125 90.832031 " fill-opacity="1" fill-rule="nonzero"/></g></g><g clip-path="url(#94f0bc8b25)"><g clip-path="url(#a51e912407)"><path fill="#ffffff" d="M 229.894531 205.050781 C 216.273438 205.050781 205.230469 198.386719 205.230469 190.164062 C 205.230469 181.9375 216.273438 175.261719 229.894531 175.261719 C 243.515625 175.261719 254.546875 181.9375 254.546875 190.164062 C 254.546875 198.386719 243.515625 205.050781 229.894531 205.050781 Z M 229.894531 172.277344 C 213.539062 172.277344 200.285156 180.289062 200.285156 190.164062 C 200.285156 200.035156 213.539062 208.035156 229.894531 208.035156 C 246.238281 208.035156 259.503906 200.035156 259.503906 190.164062 C 259.503906 180.289062 246.238281 172.277344 229.894531 172.277344 " fill-opacity="1" fill-rule="nonzero"/></g></g><g clip-path="url(#9499f237da)"><g clip-path="url(#2f3543640b)"><path fill="#ffffff" d="M 174.523438 188.71875 C 174.929688 189.792969 175.070312 190.628906 175.070312 191.488281 C 179.105469 189.757812 184.027344 188.730469 189.351562 188.730469 C 193.707031 188.730469 197.804688 189.421875 201.347656 190.617188 C 201.359375 190.53125 201.371094 190.4375 201.386719 190.351562 C 201.46875 189.363281 201.585938 188.382812 201.71875 187.390625 C 197.945312 186.34375 193.769531 185.746094 189.351562 185.746094 C 183.847656 185.746094 178.699219 186.652344 174.296875 188.226562 C 174.367188 188.394531 174.449219 188.5625 174.523438 188.71875 " fill-opacity="1" fill-rule="nonzero"/></g></g><g clip-path="url(#6765bf1c24)"><g clip-path="url(#ad88ebdc2d)"><path fill="#ffffff" d="M 148.804688 205.050781 C 135.183594 205.050781 124.140625 198.386719 124.140625 190.164062 C 124.140625 181.9375 135.183594 175.261719 148.804688 175.261719 C 162.429688 175.261719 173.472656 181.9375 173.472656 190.164062 C 173.472656 198.386719 162.429688 205.050781 148.804688 205.050781 Z M 148.804688 172.277344 C 132.460938 172.277344 119.210938 180.289062 119.210938 190.164062 C 119.210938 200.035156 132.460938 208.035156 148.804688 208.035156 C 165.164062 208.035156 178.414062 200.035156 178.414062 190.164062 C 178.414062 180.289062 165.164062 172.277344 148.804688 172.277344 " fill-opacity="1" fill-rule="nonzero"/></g></g><g clip-path="url(#8de3c21586)"><g clip-path="url(#fe0173d639)"><path fill="#ffffff" d="M 253.558594 181.054688 L 264.804688 170.488281 L 268.78125 170.488281 L 268.78125 173.136719 L 259.503906 191.488281 L 253.558594 181.054688 " fill-opacity="1" fill-rule="nonzero"/></g></g><g clip-path="url(#4a482c0d86)"><g clip-path="url(#74314695a7)"><path fill="#ffffff" d="M 125.65625 181.054688 L 114.398438 170.488281 L 110.433594 170.488281 L 110.433594 173.136719 L 119.710938 191.488281 L 125.65625 181.054688 " fill-opacity="1" fill-rule="nonzero"/></g></g></svg>