<svg xmlns="http://www.w3.org/2000/svg" xmlns:xlink="http://www.w3.org/1999/xlink" width="500" zoomAndPan="magnify" viewBox="0 0 375 374.999991" height="500" preserveAspectRatio="xMidYMid meet" version="1.0"><path fill="#ff89aa" d="M 375 187.5 C 375 190.570312 374.925781 193.636719 374.773438 196.699219 C 374.625 199.765625 374.398438 202.824219 374.097656 205.878906 C 373.796875 208.933594 373.421875 211.976562 372.96875 215.011719 C 372.519531 218.046875 371.996094 221.070312 371.398438 224.078125 C 370.796875 227.089844 370.125 230.082031 369.378906 233.058594 C 368.636719 236.035156 367.816406 238.992188 366.925781 241.929688 C 366.035156 244.863281 365.074219 247.777344 364.039062 250.667969 C 363.003906 253.554688 361.902344 256.417969 360.726562 259.253906 C 359.554688 262.089844 358.308594 264.894531 356.996094 267.667969 C 355.6875 270.441406 354.308594 273.179688 352.859375 275.886719 C 351.414062 278.59375 349.902344 281.261719 348.324219 283.894531 C 346.746094 286.527344 345.105469 289.117188 343.402344 291.667969 C 341.695312 294.222656 339.929688 296.730469 338.101562 299.195312 C 336.273438 301.660156 334.386719 304.078125 332.4375 306.449219 C 330.492188 308.820312 328.488281 311.144531 326.429688 313.417969 C 324.367188 315.691406 322.253906 317.914062 320.082031 320.082031 C 317.914062 322.253906 315.691406 324.367188 313.417969 326.429688 C 311.144531 328.488281 308.820312 330.492188 306.449219 332.4375 C 304.078125 334.386719 301.660156 336.273438 299.195312 338.101562 C 296.730469 339.929688 294.222656 341.695312 291.667969 343.402344 C 289.117188 345.105469 286.527344 346.746094 283.894531 348.324219 C 281.261719 349.902344 278.59375 351.414062 275.886719 352.859375 C 273.179688 354.308594 270.441406 355.6875 267.667969 356.996094 C 264.894531 358.308594 262.089844 359.554688 259.253906 360.726562 C 256.417969 361.902344 253.554688 363.003906 250.667969 364.039062 C 247.777344 365.074219 244.863281 366.035156 241.929688 366.925781 C 238.992188 367.816406 236.035156 368.636719 233.058594 369.378906 C 230.082031 370.125 227.089844 370.796875 224.078125 371.398438 C 221.070312 371.996094 218.046875 372.519531 215.011719 372.96875 C 211.976562 373.421875 208.933594 373.796875 205.878906 374.097656 C 202.824219 374.398438 199.765625 374.625 196.699219 374.773438 C 193.636719 374.925781 190.570312 375 187.5 375 C 184.429688 375 181.363281 374.925781 178.300781 374.773438 C 175.234375 374.625 172.175781 374.398438 169.121094 374.097656 C 166.066406 373.796875 163.023438 373.421875 159.988281 372.96875 C 156.953125 372.519531 153.929688 371.996094 150.921875 371.398438 C 147.910156 370.796875 144.917969 370.125 141.941406 369.378906 C 138.964844 368.636719 136.007812 367.816406 133.070312 366.925781 C 130.136719 366.035156 127.222656 365.074219 124.332031 364.039062 C 121.445312 363.003906 118.582031 361.902344 115.746094 360.726562 C 112.910156 359.554688 110.105469 358.308594 107.332031 356.996094 C 104.558594 355.6875 101.820312 354.308594 99.113281 352.859375 C 96.40625 351.414062 93.738281 349.902344 91.105469 348.324219 C 88.472656 346.746094 85.882812 345.105469 83.332031 343.402344 C 80.777344 341.695312 78.269531 339.929688 75.804688 338.101562 C 73.339844 336.273438 70.921875 334.386719 68.550781 332.4375 C 66.179688 330.492188 63.855469 328.488281 61.582031 326.429688 C 59.308594 324.367188 57.085938 322.253906 54.917969 320.082031 C 52.746094 317.914062 50.632812 315.691406 48.570312 313.417969 C 46.511719 311.144531 44.507812 308.820312 42.558594 306.449219 C 40.613281 304.078125 38.726562 301.660156 36.898438 299.195312 C 35.070312 296.730469 33.304688 294.222656 31.597656 291.667969 C 29.894531 289.117188 28.253906 286.527344 26.675781 283.894531 C 25.097656 281.261719 23.585938 278.59375 22.140625 275.886719 C 20.691406 273.179688 19.3125 270.441406 18.003906 267.667969 C 16.691406 264.894531 15.445312 262.089844 14.273438 259.253906 C 13.097656 256.417969 11.996094 253.554688 10.960938 250.667969 C 9.925781 247.777344 8.964844 244.863281 8.074219 241.929688 C 7.183594 238.992188 6.363281 236.035156 5.617188 233.058594 C 4.875 230.082031 4.203125 227.089844 3.601562 224.078125 C 3.003906 221.070312 2.480469 218.046875 2.03125 215.011719 C 1.578125 211.976562 1.203125 208.933594 0.902344 205.878906 C 0.601562 202.824219 0.375 199.765625 0.226562 196.699219 C 0.0742188 193.636719 0 190.570312 0 187.5 C 0 184.429688 0.0742188 181.363281 0.226562 178.300781 C 0.375 175.234375 0.601562 172.175781 0.902344 169.121094 C 1.203125 166.066406 1.578125 163.023438 2.03125 159.988281 C 2.480469 156.953125 3.003906 153.929688 3.601562 150.921875 C 4.203125 147.910156 4.875 144.917969 5.617188 141.941406 C 6.363281 138.964844 7.183594 136.007812 8.074219 133.070312 C 8.964844 130.136719 9.925781 127.222656 10.960938 124.332031 C 11.996094 121.445312 13.097656 118.582031 14.273438 115.746094 C 15.445312 112.910156 16.691406 110.105469 18.003906 107.332031 C 19.3125 104.558594 20.691406 101.820312 22.140625 99.113281 C 23.585938 96.40625 25.097656 93.738281 26.675781 91.105469 C 28.253906 88.472656 29.894531 85.882812 31.597656 83.332031 C 33.304688 80.777344 35.070312 78.269531 36.898438 75.804688 C 38.726562 73.339844 40.613281 70.921875 42.558594 68.550781 C 44.507812 66.179688 46.511719 63.855469 48.570312 61.582031 C 50.632812 59.308594 52.746094 57.085938 54.917969 54.917969 C 57.085938 52.746094 59.308594 50.632812 61.582031 48.570312 C 63.855469 46.511719 66.179688 44.507812 68.550781 42.558594 C 70.921875 40.613281 73.339844 38.726562 75.804688 36.898438 C 78.269531 35.070312 80.777344 33.304688 83.332031 31.597656 C 85.882812 29.894531 88.472656 28.253906 91.105469 26.675781 C 93.738281 25.097656 96.40625 23.585938 99.113281 22.140625 C 101.820312 20.691406 104.558594 19.3125 107.332031 18.003906 C 110.105469 16.691406 112.910156 15.445312 115.746094 14.273438 C 118.582031 13.097656 121.445312 11.996094 124.332031 10.960938 C 127.222656 9.925781 130.136719 8.964844 133.070312 8.074219 C 136.007812 7.183594 138.964844 6.363281 141.941406 5.617188 C 144.917969 4.875 147.910156 4.203125 150.921875 3.601562 C 153.929688 3.003906 156.953125 2.480469 159.988281 2.03125 C 163.023438 1.578125 166.066406 1.203125 169.121094 0.902344 C 172.175781 0.601562 175.234375 0.375 178.300781 0.226562 C 181.363281 0.0742188 184.429688 0 187.5 0 C 190.570312 0 193.636719 0.0742188 196.699219 0.226562 C 199.765625 0.375 202.824219 0.601562 205.878906 0.902344 C 208.933594 1.203125 211.976562 1.578125 215.011719 2.03125 C 218.046875 2.480469 221.070312 3.003906 224.078125 3.601562 C 227.089844 4.203125 230.082031 4.875 233.058594 5.617188 C 236.035156 6.363281 238.992188 7.183594 241.929688 8.074219 C 244.863281 8.964844 247.777344 9.925781 250.667969 10.960938 C 253.554688 11.996094 256.417969 13.097656 259.253906 14.273438 C 262.089844 15.445312 264.894531 16.691406 267.667969 18.003906 C 270.441406 19.3125 273.179688 20.691406 275.886719 22.140625 C 278.59375 23.585938 281.261719 25.097656 283.894531 26.675781 C 286.527344 28.253906 289.117188 29.894531 291.667969 31.597656 C 294.222656 33.304688 296.730469 35.070312 299.195312 36.898438 C 301.660156 38.726562 304.078125 40.613281 306.449219 42.558594 C 308.820312 44.507812 311.144531 46.511719 313.417969 48.570312 C 315.691406 50.632812 317.914062 52.746094 320.082031 54.917969 C 322.253906 57.085938 324.367188 59.308594 326.429688 61.582031 C 328.488281 63.855469 330.492188 66.179688 332.4375 68.550781 C 334.386719 70.921875 336.273438 73.339844 338.101562 75.804688 C 339.929688 78.269531 341.695312 80.777344 343.402344 83.332031 C 345.105469 85.882812 346.746094 88.472656 348.324219 91.105469 C 349.902344 93.738281 351.414062 96.40625 352.859375 99.113281 C 354.308594 101.820312 355.6875 104.558594 356.996094 107.332031 C 358.308594 110.105469 359.554688 112.910156 360.726562 115.746094 C 361.902344 118.582031 363.003906 121.445312 364.039062 124.332031 C 365.074219 127.222656 366.035156 130.136719 366.925781 133.070312 C 367.816406 136.007812 368.636719 138.964844 369.378906 141.941406 C 370.125 144.917969 370.796875 147.910156 371.398438 150.921875 C 371.996094 153.929688 372.519531 156.953125 372.96875 159.988281 C 373.421875 163.023438 373.796875 166.066406 374.097656 169.121094 C 374.398438 172.175781 374.625 175.234375 374.773438 178.300781 C 374.925781 181.363281 375 184.429688 375 187.5 Z M 375 187.5 " fill-opacity="1" fill-rule="nonzero"/><path fill="#212121" d="M 272.878906 114.28125 C 272.878906 113.023438 272.726562 111.78125 272.425781 110.558594 C 272.125 109.335938 271.679688 108.167969 271.09375 107.050781 C 270.503906 105.9375 269.792969 104.910156 268.953125 103.96875 C 268.117188 103.027344 267.179688 102.199219 266.140625 101.488281 C 267.128906 100.367188 267.933594 99.132812 268.566406 97.78125 C 269.195312 96.425781 269.621094 95.011719 269.839844 93.535156 C 270.058594 92.0625 270.066406 90.585938 269.859375 89.105469 C 269.652344 87.628906 269.242188 86.210938 268.625 84.851562 C 268.007812 83.496094 267.210938 82.25 266.234375 81.125 C 265.257812 79.996094 264.140625 79.027344 262.886719 78.222656 C 261.628906 77.417969 260.285156 76.808594 258.851562 76.390625 C 257.417969 75.976562 255.957031 75.769531 254.464844 75.777344 C 254.046875 75.777344 253.652344 75.871094 253.242188 75.902344 C 253.605469 74.609375 253.792969 73.292969 253.8125 71.949219 C 253.8125 70.929688 253.710938 69.917969 253.511719 68.917969 C 253.3125 67.917969 253.019531 66.945312 252.628906 66 C 252.238281 65.058594 251.757812 64.164062 251.191406 63.3125 C 250.625 62.464844 249.980469 61.679688 249.257812 60.957031 C 248.539062 60.238281 247.753906 59.59375 246.902344 59.023438 C 246.054688 58.457031 245.160156 57.980469 244.214844 57.589844 C 243.273438 57.199219 242.300781 56.902344 241.300781 56.703125 C 240.296875 56.503906 239.289062 56.40625 238.265625 56.40625 C 235.484375 56.421875 232.898438 57.136719 230.503906 58.558594 C 230.507812 58.40625 230.546875 58.265625 230.546875 58.113281 C 230.550781 57.273438 230.484375 56.441406 230.351562 55.613281 C 230.21875 54.78125 230.019531 53.96875 229.753906 53.175781 C 229.488281 52.378906 229.160156 51.609375 228.769531 50.863281 C 228.378906 50.121094 227.929688 49.414062 227.425781 48.746094 C 226.921875 48.074219 226.367188 47.449219 225.757812 46.867188 C 225.152344 46.289062 224.503906 45.761719 223.8125 45.285156 C 223.117188 44.8125 222.394531 44.394531 221.632812 44.039062 C 220.875 43.679688 220.089844 43.386719 219.28125 43.160156 C 218.476562 42.929688 217.65625 42.765625 216.820312 42.667969 C 215.988281 42.574219 215.152344 42.542969 214.3125 42.582031 C 213.472656 42.621094 212.644531 42.730469 211.824219 42.902344 C 211 43.078125 210.199219 43.316406 209.417969 43.621094 C 208.636719 43.921875 207.882812 44.289062 207.160156 44.714844 C 206.4375 45.140625 205.753906 45.621094 205.109375 46.160156 C 204.460938 46.699219 203.867188 47.28125 203.316406 47.917969 C 202.765625 48.550781 202.269531 49.226562 201.832031 49.941406 C 201.535156 49.238281 201.191406 48.5625 200.796875 47.910156 C 200.402344 47.261719 199.960938 46.640625 199.476562 46.054688 C 198.992188 45.46875 198.464844 44.921875 197.902344 44.410156 C 197.335938 43.902344 196.734375 43.4375 196.101562 43.015625 C 195.46875 42.59375 194.804688 42.222656 194.117188 41.898438 C 193.429688 41.574219 192.71875 41.300781 191.992188 41.082031 C 191.261719 40.863281 190.523438 40.695312 189.769531 40.585938 C 189.015625 40.472656 188.257812 40.417969 187.496094 40.417969 C 186.738281 40.417969 185.980469 40.472656 185.226562 40.585938 C 184.472656 40.695312 183.734375 40.863281 183.003906 41.082031 C 182.277344 41.300781 181.566406 41.574219 180.878906 41.898438 C 180.191406 42.222656 179.527344 42.59375 178.894531 43.015625 C 178.261719 43.4375 177.660156 43.902344 177.09375 44.410156 C 176.527344 44.921875 176.003906 45.46875 175.519531 46.054688 C 175.035156 46.640625 174.59375 47.261719 174.199219 47.910156 C 173.804688 48.5625 173.460938 49.238281 173.164062 49.941406 C 172.726562 49.226562 172.230469 48.550781 171.679688 47.917969 C 171.128906 47.285156 170.53125 46.699219 169.886719 46.160156 C 169.242188 45.625 168.558594 45.144531 167.835938 44.714844 C 167.113281 44.289062 166.359375 43.925781 165.578125 43.621094 C 164.796875 43.316406 163.992188 43.078125 163.171875 42.90625 C 162.351562 42.730469 161.523438 42.625 160.683594 42.585938 C 159.84375 42.546875 159.007812 42.574219 158.175781 42.671875 C 157.34375 42.769531 156.523438 42.933594 155.714844 43.160156 C 154.90625 43.390625 154.125 43.683594 153.363281 44.042969 C 152.605469 44.398438 151.878906 44.816406 151.1875 45.289062 C 150.496094 45.765625 149.847656 46.292969 149.238281 46.871094 C 148.632812 47.453125 148.078125 48.078125 147.570312 48.746094 C 147.066406 49.417969 146.621094 50.125 146.230469 50.867188 C 145.839844 51.609375 145.511719 52.378906 145.246094 53.175781 C 144.980469 53.972656 144.78125 54.785156 144.648438 55.613281 C 144.515625 56.441406 144.449219 57.277344 144.449219 58.113281 C 144.449219 58.265625 144.488281 58.40625 144.496094 58.558594 C 142.101562 57.140625 139.511719 56.421875 136.730469 56.40625 C 135.710938 56.40625 134.699219 56.507812 133.699219 56.707031 C 132.695312 56.90625 131.726562 57.199219 130.78125 57.589844 C 129.839844 57.980469 128.941406 58.460938 128.09375 59.027344 C 127.246094 59.59375 126.460938 60.238281 125.738281 60.960938 C 125.015625 61.679688 124.371094 62.464844 123.804688 63.316406 C 123.238281 64.164062 122.761719 65.058594 122.371094 66.003906 C 121.980469 66.945312 121.683594 67.917969 121.484375 68.917969 C 121.285156 69.921875 121.1875 70.929688 121.1875 71.953125 C 121.203125 73.292969 121.394531 74.609375 121.753906 75.902344 C 121.34375 75.871094 120.953125 75.78125 120.535156 75.78125 C 119.042969 75.773438 117.578125 75.976562 116.148438 76.394531 C 114.714844 76.808594 113.371094 77.421875 112.113281 78.226562 C 110.855469 79.03125 109.742188 79.996094 108.765625 81.125 C 107.789062 82.253906 106.992188 83.496094 106.375 84.855469 C 105.757812 86.210938 105.34375 87.628906 105.136719 89.109375 C 104.929688 90.585938 104.9375 92.0625 105.160156 93.539062 C 105.378906 95.015625 105.804688 96.429688 106.433594 97.78125 C 107.0625 99.132812 107.871094 100.371094 108.859375 101.488281 C 107.703125 102.28125 106.675781 103.210938 105.773438 104.28125 C 104.871094 105.351562 104.128906 106.519531 103.542969 107.792969 C 102.957031 109.0625 102.550781 110.390625 102.324219 111.769531 C 102.097656 113.152344 102.058594 114.535156 102.207031 115.929688 C 102.351562 117.320312 102.683594 118.667969 103.195312 119.96875 C 103.707031 121.273438 104.382812 122.484375 105.222656 123.601562 C 106.0625 124.722656 107.035156 125.710938 108.140625 126.566406 C 109.25 127.421875 110.449219 128.117188 111.742188 128.648438 C 111.21875 129.335938 110.753906 130.0625 110.347656 130.828125 C 109.945312 131.59375 109.605469 132.386719 109.335938 133.207031 C 109.066406 134.03125 108.863281 134.871094 108.734375 135.726562 C 108.605469 136.582031 108.546875 137.441406 108.5625 138.308594 C 108.578125 139.171875 108.664062 140.03125 108.824219 140.882812 C 108.980469 141.734375 109.210938 142.5625 109.507812 143.375 C 109.808594 144.1875 110.171875 144.972656 110.601562 145.722656 C 111.03125 146.472656 111.519531 147.183594 112.070312 147.851562 C 112.617188 148.523438 113.21875 149.140625 113.871094 149.707031 C 114.523438 150.277344 115.21875 150.785156 115.960938 151.238281 C 116.699219 151.691406 117.46875 152.074219 118.273438 152.398438 C 119.074219 152.71875 119.898438 152.972656 120.746094 153.15625 C 121.59375 153.339844 122.445312 153.449219 123.3125 153.492188 C 124.175781 153.53125 125.039062 153.496094 125.898438 153.390625 C 126.757812 153.289062 127.601562 153.113281 128.429688 152.863281 C 129.261719 152.617188 130.0625 152.304688 130.839844 151.921875 C 131.945312 154.683594 133.199219 157.375 134.601562 159.996094 L 238.917969 160.714844 C 240.625 157.75 242.125 154.683594 243.421875 151.519531 C 245.734375 152.828125 248.21875 153.488281 250.878906 153.503906 C 252.320312 153.511719 253.738281 153.320312 255.132812 152.929688 C 256.523438 152.539062 257.832031 151.960938 259.0625 151.203125 C 260.292969 150.445312 261.394531 149.535156 262.371094 148.46875 C 263.347656 147.402344 264.15625 146.21875 264.800781 144.925781 C 265.445312 143.632812 265.898438 142.277344 266.160156 140.855469 C 266.425781 139.433594 266.488281 138.003906 266.351562 136.566406 C 266.214844 135.128906 265.882812 133.734375 265.359375 132.390625 C 264.832031 131.042969 264.128906 129.796875 263.253906 128.648438 C 263.960938 128.355469 264.644531 128.015625 265.300781 127.621094 C 265.960938 127.230469 266.585938 126.792969 267.175781 126.308594 C 267.769531 125.820312 268.324219 125.296875 268.839844 124.730469 C 269.351562 124.164062 269.824219 123.5625 270.25 122.925781 C 270.675781 122.292969 271.050781 121.628906 271.378906 120.9375 C 271.707031 120.246094 271.984375 119.53125 272.207031 118.800781 C 272.429688 118.066406 272.597656 117.324219 272.710938 116.566406 C 272.824219 115.808594 272.878906 115.046875 272.878906 114.28125 Z M 272.878906 114.28125 " fill-opacity="1" fill-rule="nonzero"/><path fill="#8e4a3c" d="M 274.152344 174.105469 C 274.148438 173.238281 274.105469 172.375 274.019531 171.507812 C 273.933594 170.644531 273.808594 169.789062 273.640625 168.9375 C 273.46875 168.085938 273.261719 167.242188 273.007812 166.414062 C 272.757812 165.582031 272.46875 164.765625 272.136719 163.960938 C 271.808594 163.160156 271.441406 162.375 271.035156 161.609375 C 270.628906 160.839844 270.183594 160.09375 269.707031 159.371094 C 269.226562 158.648438 268.714844 157.949219 268.167969 157.273438 C 267.621094 156.601562 267.042969 155.953125 266.433594 155.335938 C 265.824219 154.71875 265.183594 154.132812 264.519531 153.574219 C 263.851562 153.019531 263.160156 152.496094 262.441406 152.007812 C 261.726562 151.519531 260.984375 151.066406 260.222656 150.648438 C 259.460938 150.234375 258.683594 149.855469 257.882812 149.511719 C 257.085938 149.171875 256.273438 148.871094 255.445312 148.609375 C 254.617188 148.347656 253.78125 148.125 252.929688 147.945312 C 252.082031 147.765625 251.226562 147.625 250.363281 147.527344 C 249.5 147.429688 248.636719 147.375 247.769531 147.363281 L 247.769531 147.320312 L 234.375 147.320312 L 234.375 200.894531 L 247.769531 200.894531 L 247.769531 200.851562 C 248.636719 200.839844 249.5 200.785156 250.363281 200.6875 C 251.226562 200.589844 252.082031 200.449219 252.929688 200.269531 C 253.78125 200.089844 254.617188 199.867188 255.445312 199.605469 C 256.273438 199.34375 257.085938 199.042969 257.882812 198.699219 C 258.683594 198.359375 259.460938 197.980469 260.222656 197.5625 C 260.984375 197.148438 261.722656 196.695312 262.441406 196.207031 C 263.160156 195.71875 263.851562 195.195312 264.519531 194.640625 C 265.183594 194.082031 265.824219 193.496094 266.433594 192.878906 C 267.042969 192.261719 267.621094 191.613281 268.167969 190.941406 C 268.714844 190.265625 269.226562 189.566406 269.707031 188.84375 C 270.183594 188.117188 270.628906 187.375 271.035156 186.605469 C 271.441406 185.839844 271.808594 185.054688 272.136719 184.25 C 272.46875 183.449219 272.757812 182.632812 273.007812 181.800781 C 273.261719 180.96875 273.46875 180.128906 273.640625 179.277344 C 273.808594 178.425781 273.933594 177.570312 274.019531 176.703125 C 274.105469 175.839844 274.148438 174.976562 274.152344 174.105469 Z M 274.152344 174.105469 " fill-opacity="1" fill-rule="nonzero"/><path fill="#8e4a3c" d="M 127.230469 147.320312 C 126.355469 147.320312 125.480469 147.363281 124.605469 147.449219 C 123.734375 147.535156 122.867188 147.664062 122.007812 147.835938 C 121.144531 148.007812 120.296875 148.21875 119.457031 148.476562 C 118.617188 148.730469 117.792969 149.023438 116.980469 149.359375 C 116.171875 149.695312 115.378906 150.070312 114.605469 150.484375 C 113.832031 150.898438 113.082031 151.347656 112.351562 151.835938 C 111.621094 152.324219 110.917969 152.84375 110.238281 153.402344 C 109.5625 153.957031 108.914062 154.546875 108.292969 155.167969 C 107.671875 155.785156 107.082031 156.4375 106.527344 157.113281 C 105.96875 157.792969 105.449219 158.496094 104.960938 159.226562 C 104.472656 159.957031 104.023438 160.707031 103.609375 161.480469 C 103.195312 162.253906 102.820312 163.046875 102.484375 163.855469 C 102.148438 164.667969 101.855469 165.492188 101.601562 166.332031 C 101.34375 167.171875 101.132812 168.019531 100.960938 168.882812 C 100.789062 169.742188 100.660156 170.609375 100.574219 171.480469 C 100.488281 172.355469 100.445312 173.230469 100.445312 174.105469 C 100.445312 174.984375 100.488281 175.859375 100.574219 176.734375 C 100.660156 177.605469 100.789062 178.472656 100.960938 179.332031 C 101.132812 180.191406 101.34375 181.042969 101.601562 181.882812 C 101.855469 182.722656 102.148438 183.546875 102.484375 184.359375 C 102.820312 185.167969 103.195312 185.960938 103.609375 186.734375 C 104.023438 187.507812 104.472656 188.257812 104.960938 188.988281 C 105.449219 189.71875 105.96875 190.421875 106.527344 191.101562 C 107.082031 191.777344 107.671875 192.425781 108.292969 193.046875 C 108.914062 193.667969 109.5625 194.257812 110.238281 194.8125 C 110.917969 195.371094 111.621094 195.890625 112.351562 196.378906 C 113.082031 196.867188 113.832031 197.316406 114.605469 197.730469 C 115.378906 198.144531 116.171875 198.519531 116.980469 198.855469 C 117.792969 199.191406 118.617188 199.484375 119.457031 199.738281 C 120.296875 199.992188 121.144531 200.207031 122.007812 200.378906 C 122.867188 200.550781 123.734375 200.679688 124.605469 200.765625 C 125.480469 200.851562 126.355469 200.894531 127.230469 200.894531 L 140.625 200.894531 L 140.625 147.320312 Z M 127.230469 147.320312 " fill-opacity="1" fill-rule="nonzero"/><path fill="#ba6e5a" d="M 326.519531 313.394531 C 322.664062 317.652344 318.621094 321.726562 314.390625 325.617188 C 310.160156 329.503906 305.761719 333.1875 301.191406 336.671875 C 296.621094 340.15625 291.902344 343.421875 287.03125 346.46875 C 282.160156 349.515625 277.160156 352.335938 272.03125 354.921875 C 266.902344 357.511719 261.664062 359.855469 256.316406 361.960938 C 250.972656 364.066406 245.539062 365.921875 240.023438 367.527344 C 234.507812 369.132812 228.929688 370.480469 223.289062 371.574219 C 217.644531 372.664062 211.96875 373.492188 206.25 374.0625 C 200.089844 374.664062 193.863281 375 187.5 375 C 181.136719 375 174.910156 374.664062 168.75 374.0625 C 163.03125 373.492188 157.355469 372.664062 151.710938 371.574219 C 146.070312 370.480469 140.492188 369.132812 134.976562 367.527344 C 129.460938 365.921875 124.027344 364.066406 118.683594 361.960938 C 113.335938 359.855469 108.097656 357.511719 102.96875 354.921875 C 97.839844 352.335938 92.839844 349.515625 87.96875 346.46875 C 83.097656 343.421875 78.378906 340.15625 73.808594 336.671875 C 69.238281 333.1875 64.839844 329.503906 60.609375 325.617188 C 56.378906 321.726562 52.335938 317.652344 48.480469 313.394531 C 50.324219 310.199219 52.46875 307.226562 54.921875 304.476562 C 57.371094 301.726562 60.078125 299.253906 63.039062 297.058594 C 66 294.863281 69.152344 292.992188 72.5 291.445312 C 75.84375 289.902344 79.3125 288.710938 82.902344 287.878906 L 138.28125 275.15625 L 144.175781 273.816406 L 160.714844 270 L 160.714844 229.285156 L 214.285156 229.285156 L 214.285156 270 L 230.824219 273.816406 L 236.71875 275.15625 L 292.097656 287.878906 C 295.6875 288.710938 299.15625 289.902344 302.5 291.445312 C 305.847656 292.992188 309 294.863281 311.960938 297.058594 C 314.921875 299.253906 317.628906 301.726562 320.078125 304.476562 C 322.53125 307.226562 324.675781 310.199219 326.519531 313.394531 Z M 326.519531 313.394531 " fill-opacity="1" fill-rule="nonzero"/><path fill="#8e4a3c" d="M 214.285156 262.742188 L 214.285156 229.308594 L 160.714844 229.308594 L 160.714844 262.742188 C 164.976562 264.429688 169.359375 265.707031 173.863281 266.566406 C 178.371094 267.425781 182.914062 267.855469 187.5 267.855469 C 192.085938 267.855469 196.628906 267.425781 201.136719 266.566406 C 205.640625 265.707031 210.023438 264.429688 214.285156 262.742188 Z M 214.285156 262.742188 " fill-opacity="1" fill-rule="nonzero"/><path fill="#ba6e5a" d="M 127.230469 147.320312 C 127.230469 106.640625 132.710938 73.660156 187.5 73.660156 C 242.289062 73.660156 247.769531 106.640625 247.769531 147.320312 L 247.769531 194.195312 C 247.769531 196.171875 247.671875 198.140625 247.476562 200.105469 C 247.285156 202.066406 246.996094 204.019531 246.609375 205.953125 C 246.226562 207.890625 245.746094 209.800781 245.171875 211.691406 C 244.601562 213.582031 243.9375 215.4375 243.179688 217.261719 C 242.425781 219.082031 241.582031 220.867188 240.652344 222.605469 C 239.722656 224.347656 238.707031 226.039062 237.609375 227.679688 C 236.515625 229.320312 235.339844 230.902344 234.085938 232.429688 C 232.835938 233.957031 231.511719 235.417969 230.117188 236.8125 C 228.71875 238.207031 227.257812 239.53125 225.734375 240.785156 C 224.207031 242.035156 222.625 243.210938 220.984375 244.308594 C 219.34375 245.402344 217.652344 246.417969 215.910156 247.347656 C 214.167969 248.277344 212.386719 249.121094 210.5625 249.875 C 208.738281 250.632812 206.882812 251.296875 204.996094 251.867188 C 203.105469 252.441406 201.195312 252.921875 199.257812 253.304688 C 197.320312 253.691406 195.371094 253.980469 193.40625 254.175781 C 191.441406 254.367188 189.472656 254.464844 187.5 254.464844 C 185.527344 254.464844 183.558594 254.367188 181.59375 254.175781 C 179.628906 253.980469 177.679688 253.691406 175.742188 253.304688 C 173.804688 252.921875 171.894531 252.441406 170.003906 251.871094 C 168.117188 251.296875 166.261719 250.632812 164.4375 249.875 C 162.613281 249.121094 160.832031 248.277344 159.089844 247.347656 C 157.347656 246.417969 155.65625 245.402344 154.015625 244.308594 C 152.375 243.210938 150.792969 242.035156 149.265625 240.785156 C 147.742188 239.53125 146.28125 238.207031 144.882812 236.8125 C 143.488281 235.417969 142.164062 233.957031 140.914062 232.429688 C 139.660156 230.902344 138.484375 229.320312 137.390625 227.679688 C 136.292969 226.039062 135.277344 224.347656 134.347656 222.605469 C 133.417969 220.867188 132.574219 219.082031 131.820312 217.261719 C 131.0625 215.4375 130.398438 213.582031 129.828125 211.691406 C 129.253906 209.800781 128.773438 207.890625 128.390625 205.953125 C 128.003906 204.019531 127.714844 202.066406 127.523438 200.105469 C 127.328125 198.140625 127.230469 196.171875 127.230469 194.195312 Z M 127.230469 147.320312 " fill-opacity="1" fill-rule="nonzero"/><path fill="#212121" d="M 243.34375 86.457031 C 233.300781 71.03125 215.601562 63.855469 187.5 63.496094 C 159.398438 63.855469 141.699219 71.03125 131.65625 86.457031 C 121.613281 101.882812 127.230469 158.203125 127.230469 158.203125 L 130.9375 157.84375 C 130.9375 157.84375 131.359375 131.734375 137.039062 129.503906 C 147.082031 125.558594 149.1875 111.566406 150.3125 105.828125 C 151.4375 100.085938 169.324219 94.707031 187.5 94.707031 C 189.5 94.707031 191.492188 94.78125 193.460938 94.90625 C 193.296875 95.804688 193.269531 96.707031 193.375 97.617188 C 193.484375 98.523438 193.722656 99.394531 194.09375 100.230469 C 194.464844 101.0625 194.949219 101.828125 195.546875 102.515625 C 196.148438 103.203125 196.835938 103.789062 197.609375 104.273438 C 198.386719 104.753906 199.214844 105.113281 200.097656 105.347656 C 200.980469 105.578125 201.878906 105.675781 202.792969 105.640625 C 203.707031 105.601562 204.59375 105.429688 205.453125 105.125 C 206.316406 104.820312 207.113281 104.398438 207.847656 103.851562 C 207.847656 103.914062 207.828125 103.972656 207.828125 104.035156 C 207.824219 105.117188 207.96875 106.179688 208.261719 107.226562 C 208.550781 108.269531 208.976562 109.253906 209.539062 110.179688 C 210.097656 111.105469 210.773438 111.9375 211.566406 112.679688 C 212.355469 113.417969 213.230469 114.039062 214.191406 114.539062 C 215.152344 115.039062 216.160156 115.398438 217.222656 115.621094 C 218.28125 115.84375 219.351562 115.917969 220.433594 115.847656 C 221.511719 115.773438 222.5625 115.558594 223.582031 115.195312 C 224.605469 114.835938 225.558594 114.34375 226.445312 113.71875 C 226.734375 115.390625 227.207031 117.003906 227.871094 118.5625 C 228.53125 120.125 229.363281 121.589844 230.359375 122.957031 C 231.359375 124.328125 232.5 125.5625 233.785156 126.667969 C 235.066406 127.777344 236.460938 128.722656 237.960938 129.507812 C 243.636719 131.734375 244.058594 157.847656 244.058594 157.847656 L 247.769531 158.203125 C 247.769531 158.203125 253.386719 101.882812 243.34375 86.457031 Z M 243.34375 86.457031 " fill-opacity="1" fill-rule="nonzero"/><path fill="#fff362" d="M 326.519531 313.394531 C 322.664062 317.652344 318.621094 321.726562 314.390625 325.617188 C 310.160156 329.503906 305.761719 333.1875 301.191406 336.671875 C 296.621094 340.15625 291.902344 343.421875 287.03125 346.46875 C 282.160156 349.515625 277.160156 352.335938 272.03125 354.921875 C 266.902344 357.511719 261.664062 359.855469 256.316406 361.960938 C 250.972656 364.066406 245.539062 365.921875 240.023438 367.527344 C 234.507812 369.132812 228.929688 370.480469 223.289062 371.574219 C 217.644531 372.664062 211.96875 373.492188 206.25 374.0625 C 200.089844 374.664062 193.863281 375 187.5 375 C 181.136719 375 174.910156 374.664062 168.75 374.0625 C 163.03125 373.492188 157.355469 372.664062 151.710938 371.574219 C 146.070312 370.480469 140.492188 369.132812 134.976562 367.527344 C 129.460938 365.921875 124.027344 364.066406 118.683594 361.960938 C 113.335938 359.855469 108.097656 357.511719 102.96875 354.921875 C 97.839844 352.335938 92.839844 349.515625 87.96875 346.46875 C 83.097656 343.421875 78.378906 340.15625 73.808594 336.671875 C 69.238281 333.1875 64.839844 329.503906 60.609375 325.617188 C 56.378906 321.726562 52.335938 317.652344 48.480469 313.394531 C 50.324219 310.199219 52.46875 307.226562 54.921875 304.476562 C 57.371094 301.726562 60.078125 299.253906 63.039062 297.058594 C 66 294.863281 69.152344 292.992188 72.5 291.445312 C 75.84375 289.902344 79.3125 288.710938 82.902344 287.878906 L 138.28125 275.15625 L 144.175781 273.816406 L 173.101562 296.183594 L 176.851562 299.0625 L 187.5 307.300781 L 198.148438 299.0625 L 201.898438 296.183594 L 230.824219 273.816406 L 236.71875 275.15625 L 292.097656 287.878906 C 295.6875 288.710938 299.15625 289.902344 302.5 291.445312 C 305.847656 292.992188 309 294.863281 311.960938 297.058594 C 314.921875 299.253906 317.628906 301.726562 320.078125 304.476562 C 322.53125 307.226562 324.675781 310.199219 326.519531 313.394531 Z M 326.519531 313.394531 " fill-opacity="1" fill-rule="nonzero"/><path fill="#01314f" d="M 199.21875 293.355469 L 187.5 299.90625 L 175.78125 293.355469 L 163.136719 306.808594 L 177.214844 321.246094 L 197.785156 321.246094 L 211.863281 306.808594 Z M 199.21875 293.355469 " fill-opacity="1" fill-rule="nonzero"/><path fill="#00406f" d="M 206.25 374.0625 C 200.089844 374.664062 193.863281 375 187.5 375 C 181.136719 375 174.910156 374.664062 168.75 374.0625 L 177.589844 321.226562 L 187.5 321.09375 L 197.410156 321.226562 Z M 206.25 374.0625 " fill-opacity="1" fill-rule="nonzero"/><path fill="#ed8835" d="M 162.1875 321.703125 L 180.804688 292.949219 L 160.714844 270.007812 L 138.261719 275.167969 Z M 162.1875 321.703125 " fill-opacity="1" fill-rule="nonzero"/><path fill="#ed8835" d="M 236.738281 275.167969 L 214.285156 270.007812 L 194.195312 292.949219 L 212.8125 321.703125 Z M 236.738281 275.167969 " fill-opacity="1" fill-rule="nonzero"/></svg>