<svg xmlns="http://www.w3.org/2000/svg" xmlns:xlink="http://www.w3.org/1999/xlink" width="500" zoomAndPan="magnify" viewBox="0 0 375 374.999991" height="500" preserveAspectRatio="xMidYMid meet" version="1.0"><path fill="#ffca4e" d="M 374.332031 186.832031 C 374.332031 189.890625 374.257812 192.945312 374.109375 196 C 373.957031 199.054688 373.734375 202.101562 373.433594 205.144531 C 373.132812 208.1875 372.757812 211.222656 372.308594 214.246094 C 371.863281 217.269531 371.339844 220.28125 370.742188 223.28125 C 370.144531 226.28125 369.476562 229.261719 368.734375 232.230469 C 367.992188 235.195312 367.175781 238.140625 366.289062 241.066406 C 365.398438 243.992188 364.441406 246.894531 363.410156 249.773438 C 362.382812 252.652344 361.28125 255.503906 360.109375 258.332031 C 358.941406 261.15625 357.703125 263.949219 356.394531 266.714844 C 355.085938 269.476562 353.714844 272.207031 352.273438 274.90625 C 350.832031 277.601562 349.324219 280.261719 347.75 282.882812 C 346.179688 285.507812 344.542969 288.089844 342.84375 290.632812 C 341.148438 293.171875 339.386719 295.671875 337.566406 298.128906 C 335.742188 300.585938 333.863281 302.996094 331.921875 305.359375 C 329.984375 307.722656 327.988281 310.035156 325.933594 312.300781 C 323.878906 314.566406 321.773438 316.78125 319.609375 318.945312 C 317.449219 321.105469 315.234375 323.214844 312.96875 325.265625 C 310.703125 327.320312 308.390625 329.316406 306.027344 331.257812 C 303.660156 333.195312 301.253906 335.078125 298.796875 336.898438 C 296.339844 338.71875 293.839844 340.480469 291.296875 342.179688 C 288.757812 343.878906 286.175781 345.511719 283.550781 347.085938 C 280.929688 348.65625 278.269531 350.164062 275.574219 351.605469 C 272.875 353.046875 270.144531 354.421875 267.382812 355.726562 C 264.617188 357.035156 261.824219 358.273438 258.996094 359.445312 C 256.171875 360.613281 253.320312 361.714844 250.441406 362.742188 C 247.5625 363.773438 244.660156 364.734375 241.734375 365.621094 C 238.808594 366.507812 235.863281 367.324219 232.898438 368.066406 C 229.929688 368.808594 226.949219 369.480469 223.949219 370.074219 C 220.949219 370.671875 217.9375 371.195312 214.914062 371.644531 C 211.890625 372.09375 208.855469 372.464844 205.8125 372.765625 C 202.769531 373.066406 199.722656 373.289062 196.667969 373.441406 C 193.613281 373.589844 190.558594 373.664062 187.5 373.664062 C 184.441406 373.664062 181.386719 373.589844 178.332031 373.441406 C 175.277344 373.289062 172.230469 373.066406 169.1875 372.765625 C 166.144531 372.464844 163.109375 372.09375 160.085938 371.644531 C 157.0625 371.195312 154.050781 370.671875 151.050781 370.074219 C 148.050781 369.480469 145.070312 368.808594 142.101562 368.066406 C 139.136719 367.324219 136.191406 366.507812 133.265625 365.621094 C 130.339844 364.734375 127.4375 363.773438 124.558594 362.742188 C 121.679688 361.714844 118.828125 360.613281 116.003906 359.445312 C 113.175781 358.273438 110.382812 357.035156 107.617188 355.726562 C 104.855469 354.421875 102.125 353.046875 99.425781 351.605469 C 96.730469 350.164062 94.070312 348.65625 91.449219 347.085938 C 88.824219 345.511719 86.242188 343.878906 83.703125 342.179688 C 81.160156 340.480469 78.660156 338.71875 76.203125 336.898438 C 73.746094 335.078125 71.339844 333.195312 68.972656 331.257812 C 66.609375 329.316406 64.296875 327.320312 62.03125 325.265625 C 59.765625 323.214844 57.550781 321.105469 55.390625 318.945312 C 53.226562 316.78125 51.121094 314.566406 49.066406 312.300781 C 47.011719 310.035156 45.015625 307.722656 43.078125 305.359375 C 41.136719 302.996094 39.257812 300.585938 37.433594 298.128906 C 35.613281 295.671875 33.851562 293.171875 32.152344 290.632812 C 30.457031 288.089844 28.820312 285.507812 27.25 282.882812 C 25.675781 280.261719 24.167969 277.601562 22.726562 274.90625 C 21.285156 272.207031 19.914062 269.476562 18.605469 266.714844 C 17.296875 263.949219 16.058594 261.15625 14.890625 258.332031 C 13.71875 255.503906 12.617188 252.652344 11.589844 249.773438 C 10.558594 246.894531 9.601562 243.992188 8.710938 241.066406 C 7.824219 238.140625 7.007812 235.195312 6.265625 232.230469 C 5.523438 229.261719 4.855469 226.28125 4.257812 223.28125 C 3.660156 220.28125 3.136719 217.269531 2.6875 214.246094 C 2.242188 211.222656 1.867188 208.1875 1.566406 205.144531 C 1.265625 202.101562 1.042969 199.054688 0.890625 196 C 0.742188 192.945312 0.667969 189.890625 0.667969 186.832031 C 0.667969 183.773438 0.742188 180.71875 0.890625 177.664062 C 1.042969 174.609375 1.265625 171.5625 1.566406 168.519531 C 1.867188 165.476562 2.242188 162.441406 2.6875 159.417969 C 3.136719 156.394531 3.660156 153.382812 4.257812 150.382812 C 4.855469 147.382812 5.523438 144.402344 6.265625 141.4375 C 7.007812 138.46875 7.824219 135.523438 8.710938 132.597656 C 9.601562 129.671875 10.558594 126.769531 11.589844 123.890625 C 12.617188 121.011719 13.71875 118.160156 14.890625 115.335938 C 16.058594 112.511719 17.296875 109.714844 18.605469 106.953125 C 19.914062 104.1875 21.285156 101.457031 22.726562 98.761719 C 24.167969 96.0625 25.675781 93.402344 27.25 90.78125 C 28.820312 88.160156 30.457031 85.578125 32.152344 83.035156 C 33.851562 80.492188 35.613281 77.992188 37.433594 75.535156 C 39.257812 73.082031 41.136719 70.671875 43.078125 68.308594 C 45.015625 65.945312 47.011719 63.628906 49.066406 61.363281 C 51.121094 59.097656 53.226562 56.882812 55.390625 54.722656 C 57.550781 52.558594 59.765625 50.453125 62.03125 48.398438 C 64.296875 46.34375 66.609375 44.347656 68.972656 42.410156 C 71.339844 40.46875 73.746094 38.589844 76.203125 36.765625 C 78.660156 34.945312 81.160156 33.1875 83.703125 31.488281 C 86.242188 29.789062 88.824219 28.152344 91.449219 26.582031 C 94.070312 25.007812 96.730469 23.503906 99.425781 22.0625 C 102.125 20.621094 104.855469 19.246094 107.617188 17.9375 C 110.382812 16.628906 113.175781 15.390625 116.003906 14.222656 C 118.828125 13.050781 121.679688 11.953125 124.558594 10.921875 C 127.4375 9.890625 130.339844 8.933594 133.265625 8.046875 C 136.191406 7.15625 139.136719 6.34375 142.101562 5.597656 C 145.070312 4.855469 148.050781 4.1875 151.050781 3.589844 C 154.050781 2.992188 157.0625 2.472656 160.085938 2.023438 C 163.109375 1.574219 166.144531 1.199219 169.1875 0.898438 C 172.230469 0.601562 175.277344 0.375 178.332031 0.226562 C 181.386719 0.0742188 184.441406 0 187.5 0 C 190.558594 0 193.613281 0.0742188 196.667969 0.226562 C 199.722656 0.375 202.769531 0.601562 205.8125 0.898438 C 208.855469 1.199219 211.890625 1.574219 214.914062 2.023438 C 217.9375 2.472656 220.949219 2.992188 223.949219 3.589844 C 226.949219 4.1875 229.929688 4.855469 232.898438 5.597656 C 235.863281 6.34375 238.808594 7.15625 241.734375 8.046875 C 244.660156 8.933594 247.5625 9.890625 250.441406 10.921875 C 253.320312 11.953125 256.171875 13.050781 258.996094 14.222656 C 261.824219 15.390625 264.617188 16.628906 267.382812 17.9375 C 270.144531 19.246094 272.875 20.621094 275.574219 22.0625 C 278.269531 23.503906 280.929688 25.007812 283.550781 26.582031 C 286.175781 28.152344 288.757812 29.789062 291.296875 31.488281 C 293.839844 33.1875 296.339844 34.945312 298.796875 36.765625 C 301.253906 38.589844 303.660156 40.46875 306.027344 42.410156 C 308.390625 44.347656 310.703125 46.34375 312.96875 48.398438 C 315.234375 50.453125 317.449219 52.558594 319.609375 54.722656 C 321.773438 56.882812 323.878906 59.097656 325.933594 61.363281 C 327.988281 63.628906 329.984375 65.945312 331.921875 68.308594 C 333.863281 70.671875 335.742188 73.082031 337.566406 75.535156 C 339.386719 77.992188 341.148438 80.492188 342.84375 83.035156 C 344.542969 85.578125 346.179688 88.160156 347.75 90.78125 C 349.324219 93.402344 350.832031 96.0625 352.273438 98.761719 C 353.714844 101.457031 355.085938 104.1875 356.394531 106.953125 C 357.703125 109.714844 358.941406 112.511719 360.109375 115.335938 C 361.28125 118.160156 362.382812 121.011719 363.410156 123.890625 C 364.441406 126.769531 365.398438 129.671875 366.289062 132.597656 C 367.175781 135.523438 367.992188 138.46875 368.734375 141.4375 C 369.476562 144.402344 370.144531 147.382812 370.742188 150.382812 C 371.339844 153.382812 371.863281 156.394531 372.308594 159.417969 C 372.757812 162.441406 373.132812 165.476562 373.433594 168.519531 C 373.734375 171.5625 373.957031 174.609375 374.109375 177.664062 C 374.257812 180.71875 374.332031 183.773438 374.332031 186.832031 Z M 374.332031 186.832031 " fill-opacity="1" fill-rule="nonzero"/><path fill="#4c2d22" d="M 169.386719 62.199219 C 169.386719 62.199219 147.226562 49.328125 126.492188 61.484375 C 105.761719 73.636719 92.175781 110.097656 92.175781 137.265625 C 92.175781 164.429688 109.335938 191.597656 110.050781 220.910156 C 110.765625 250.222656 105.980469 249.25 106.476562 270.238281 C 106.542969 281.984375 108.453125 293.425781 112.195312 304.558594 L 256.609375 284.539062 C 256.609375 284.539062 278.773438 230.703125 276.625 180.410156 C 274.480469 130.113281 233.730469 92.941406 220.148438 83.644531 C 206.566406 74.351562 169.386719 62.199219 169.386719 62.199219 Z M 169.386719 62.199219 " fill-opacity="1" fill-rule="nonzero"/><path fill="#ffab91" d="M 327.359375 310.742188 C 318.171875 321.09375 307.96875 330.3125 296.746094 338.40625 C 285.523438 346.5 273.550781 353.269531 260.832031 358.71875 C 252.539062 362.222656 244.042969 365.136719 235.34375 367.460938 C 230.738281 368.660156 226.132812 369.730469 221.398438 370.53125 C 210.195312 372.621094 198.894531 373.664062 187.5 373.664062 C 176.105469 373.664062 164.804688 372.621094 153.601562 370.53125 C 148.867188 369.730469 144.261719 368.660156 139.65625 367.460938 C 130.957031 365.136719 122.460938 362.222656 114.167969 358.71875 C 101.449219 353.269531 89.476562 346.5 78.253906 338.40625 C 67.03125 330.3125 56.828125 321.09375 47.640625 310.742188 C 49.285156 308.230469 51.296875 306.058594 53.675781 304.230469 C 56.058594 302.398438 58.671875 301.011719 61.519531 300.066406 L 107.628906 284.851562 L 110.832031 283.785156 L 135.585938 275.644531 L 147.53125 271.707031 L 160.609375 267.371094 L 160.808594 248.488281 L 214.191406 248.488281 L 214.191406 267.171875 L 227.46875 271.574219 L 239.414062 275.511719 L 246.21875 277.78125 L 246.285156 277.78125 L 257.761719 281.582031 L 257.761719 281.648438 L 264.101562 283.71875 L 265.503906 284.1875 L 313.480469 300.066406 C 316.328125 301.011719 318.941406 302.398438 321.324219 304.230469 C 323.703125 306.058594 325.714844 308.230469 327.359375 310.742188 Z M 327.359375 310.742188 " fill-opacity="1" fill-rule="nonzero"/><path fill="#1e243a" d="M 327.359375 310.742188 C 318.171875 321.09375 307.96875 330.3125 296.746094 338.40625 C 285.523438 346.5 273.550781 353.269531 260.832031 358.71875 C 252.539062 362.222656 244.042969 365.136719 235.34375 367.460938 C 230.738281 368.660156 226.132812 369.730469 221.398438 370.53125 C 210.195312 372.621094 198.894531 373.664062 187.5 373.664062 C 176.105469 373.664062 164.804688 372.621094 153.601562 370.53125 C 148.867188 369.730469 144.261719 368.660156 139.65625 367.460938 C 130.957031 365.136719 122.460938 362.222656 114.167969 358.71875 C 101.449219 353.269531 89.476562 346.5 78.253906 338.40625 C 67.03125 330.3125 56.828125 321.09375 47.640625 310.742188 C 49.285156 308.230469 51.296875 306.058594 53.675781 304.230469 C 56.058594 302.398438 58.671875 301.011719 61.519531 300.066406 L 107.628906 284.851562 L 110.832031 283.785156 L 135.585938 275.644531 L 134.652344 301.402344 L 134.050781 316.882812 L 135.386719 317.347656 L 147.332031 321.550781 L 187.5 335.632812 L 227.667969 321.550781 L 239.613281 317.347656 L 240.949219 316.882812 L 239.8125 286.855469 L 239.414062 275.511719 L 246.21875 277.78125 L 246.285156 277.78125 L 257.761719 281.582031 L 264.101562 283.71875 L 265.503906 284.1875 L 313.480469 300.066406 C 316.328125 301.011719 318.941406 302.398438 321.324219 304.230469 C 323.703125 306.058594 325.714844 308.230469 327.359375 310.742188 Z M 327.359375 310.742188 " fill-opacity="1" fill-rule="nonzero"/><path fill="#cbcfd1" d="M 238.078125 358.183594 C 237.277344 361.386719 236.410156 364.457031 235.34375 367.460938 C 230.738281 368.660156 226.132812 369.730469 221.398438 370.53125 C 210.195312 372.621094 198.894531 373.664062 187.5 373.664062 C 176.105469 373.664062 164.804688 372.621094 153.601562 370.53125 C 148.867188 369.730469 144.261719 368.660156 139.65625 367.460938 C 138.589844 364.457031 137.722656 361.386719 136.921875 358.183594 C 131.117188 333.964844 133.453125 322.21875 135.386719 317.347656 C 135.746094 316.332031 136.257812 315.398438 136.921875 314.546875 L 144.328125 312.878906 L 146.996094 313.945312 C 154.871094 317.214844 177.757812 326.222656 187.5 326.222656 C 197.242188 326.222656 220.128906 317.214844 228.003906 313.945312 L 230.671875 312.878906 L 238.078125 314.546875 C 238.742188 315.398438 239.253906 316.332031 239.613281 317.347656 C 241.546875 322.21875 243.882812 333.964844 238.078125 358.183594 Z M 238.078125 358.183594 " fill-opacity="1" fill-rule="nonzero"/><path fill="#343d56" d="M 147.332031 321.550781 C 148.398438 338.007812 150.492188 354.335938 153.601562 370.53125 C 148.867188 369.730469 144.261719 368.660156 139.65625 367.460938 C 130.957031 365.136719 122.460938 362.222656 114.167969 358.71875 L 108.230469 352.648438 L 118.105469 326.957031 L 97.488281 309.410156 L 108.230469 288.789062 L 110.832031 283.785156 L 135.585938 275.644531 L 147.53125 271.707031 C 146.796875 280.382812 146.464844 289.925781 146.53125 299.800781 C 146.597656 304.46875 146.730469 309.140625 146.996094 313.945312 C 147.0625 316.480469 147.199219 319.015625 147.332031 321.550781 Z M 147.332031 321.550781 " fill-opacity="1" fill-rule="nonzero"/><path fill="#343d56" d="M 266.703125 352.578125 L 266.769531 352.648438 L 260.832031 358.71875 C 252.539062 362.222656 244.042969 365.136719 235.34375 367.460938 C 230.738281 368.660156 226.132812 369.730469 221.398438 370.53125 C 224.507812 354.335938 226.601562 338.007812 227.667969 321.550781 C 227.800781 319.015625 227.9375 316.480469 228.003906 313.945312 C 228.402344 305.203125 228.535156 296.664062 228.335938 288.457031 C 228.203125 282.585938 227.9375 276.914062 227.46875 271.574219 L 239.414062 275.511719 L 246.21875 277.78125 L 246.285156 277.78125 L 257.761719 281.582031 L 257.761719 281.648438 L 264.101562 283.71875 L 265.300781 286.054688 L 277.511719 309.410156 L 264.433594 320.550781 L 256.894531 326.957031 L 266.703125 352.445312 C 266.75 352.492188 266.75 352.535156 266.703125 352.578125 Z M 266.703125 352.578125 " fill-opacity="1" fill-rule="nonzero"/><path fill="#ea7760" d="M 280.515625 173.488281 C 280.515625 172.621094 280.472656 171.761719 280.386719 170.898438 C 280.300781 170.039062 280.171875 169.183594 280.003906 168.335938 C 279.835938 167.488281 279.628906 166.648438 279.378906 165.820312 C 279.128906 164.992188 278.839844 164.179688 278.507812 163.378906 C 278.179688 162.578125 277.8125 161.796875 277.410156 161.03125 C 277.003906 160.269531 276.5625 159.527344 276.085938 158.804688 C 275.609375 158.082031 275.097656 157.386719 274.550781 156.714844 C 274.007812 156.042969 273.429688 155.398438 272.824219 154.785156 C 272.214844 154.167969 271.582031 153.582031 270.917969 153.027344 C 270.253906 152.476562 269.5625 151.953125 268.847656 151.46875 C 268.132812 150.980469 267.394531 150.53125 266.636719 150.113281 C 265.878906 149.699219 265.101562 149.320312 264.304688 148.980469 C 263.511719 148.640625 262.699219 148.339844 261.875 148.078125 C 261.050781 147.820312 260.214844 147.597656 259.371094 147.417969 C 258.523438 147.238281 257.671875 147.101562 256.8125 147.003906 C 255.953125 146.90625 255.089844 146.851562 254.226562 146.835938 L 254.226562 146.796875 L 240.878906 146.796875 L 240.878906 200.179688 L 254.226562 200.179688 L 254.226562 200.136719 C 255.089844 200.125 255.953125 200.070312 256.8125 199.972656 C 257.671875 199.875 258.523438 199.738281 259.371094 199.554688 C 260.214844 199.375 261.050781 199.15625 261.875 198.894531 C 262.699219 198.632812 263.511719 198.332031 264.304688 197.992188 C 265.101562 197.652344 265.878906 197.277344 266.636719 196.859375 C 267.394531 196.445312 268.132812 195.996094 268.847656 195.507812 C 269.5625 195.019531 270.253906 194.5 270.917969 193.945312 C 271.582031 193.390625 272.214844 192.808594 272.824219 192.191406 C 273.429688 191.574219 274.007812 190.933594 274.550781 190.261719 C 275.097656 189.589844 275.609375 188.890625 276.085938 188.171875 C 276.5625 187.449219 277.003906 186.707031 277.410156 185.941406 C 277.8125 185.179688 278.179688 184.394531 278.507812 183.597656 C 278.839844 182.796875 279.128906 181.980469 279.378906 181.152344 C 279.628906 180.324219 279.835938 179.488281 280.003906 178.640625 C 280.171875 177.792969 280.300781 176.9375 280.386719 176.074219 C 280.472656 175.214844 280.515625 174.351562 280.515625 173.488281 Z M 280.515625 173.488281 " fill-opacity="1" fill-rule="nonzero"/><path fill="#ea7760" d="M 120.773438 146.796875 C 119.898438 146.796875 119.027344 146.839844 118.15625 146.925781 C 117.289062 147.011719 116.425781 147.140625 115.566406 147.308594 C 114.710938 147.480469 113.863281 147.691406 113.027344 147.945312 C 112.191406 148.199219 111.367188 148.496094 110.558594 148.828125 C 109.753906 149.164062 108.964844 149.535156 108.191406 149.949219 C 107.421875 150.359375 106.671875 150.808594 105.945312 151.296875 C 105.21875 151.78125 104.515625 152.300781 103.84375 152.855469 C 103.167969 153.410156 102.519531 153.996094 101.902344 154.613281 C 101.28125 155.234375 100.695312 155.878906 100.140625 156.554688 C 99.585938 157.230469 99.066406 157.933594 98.582031 158.660156 C 98.097656 159.386719 97.648438 160.136719 97.234375 160.90625 C 96.824219 161.675781 96.449219 162.464844 96.117188 163.273438 C 95.78125 164.082031 95.488281 164.902344 95.234375 165.738281 C 94.980469 166.578125 94.765625 167.421875 94.597656 168.28125 C 94.425781 169.136719 94.296875 170 94.210938 170.871094 C 94.125 171.742188 94.082031 172.613281 94.082031 173.488281 C 94.082031 174.363281 94.125 175.234375 94.210938 176.105469 C 94.296875 176.972656 94.425781 177.835938 94.597656 178.695312 C 94.765625 179.550781 94.980469 180.398438 95.234375 181.234375 C 95.488281 182.070312 95.78125 182.894531 96.117188 183.703125 C 96.449219 184.507812 96.824219 185.296875 97.234375 186.070312 C 97.648438 186.839844 98.097656 187.589844 98.582031 188.316406 C 99.066406 189.042969 99.585938 189.742188 100.140625 190.417969 C 100.695312 191.09375 101.28125 191.742188 101.902344 192.359375 C 102.519531 192.980469 103.167969 193.566406 103.84375 194.121094 C 104.515625 194.675781 105.21875 195.195312 105.945312 195.679688 C 106.671875 196.164062 107.421875 196.613281 108.191406 197.027344 C 108.964844 197.4375 109.753906 197.8125 110.558594 198.144531 C 111.367188 198.480469 112.191406 198.773438 113.027344 199.027344 C 113.863281 199.28125 114.710938 199.496094 115.566406 199.664062 C 116.425781 199.835938 117.289062 199.964844 118.15625 200.050781 C 119.027344 200.136719 119.898438 200.179688 120.773438 200.179688 L 134.121094 200.179688 L 134.121094 146.796875 Z M 120.773438 146.796875 " fill-opacity="1" fill-rule="nonzero"/><path fill="#ea7760" d="M 214.191406 261.480469 L 214.191406 228.492188 L 160.808594 228.492188 L 160.808594 261.480469 C 165.03125 263.269531 169.386719 264.621094 173.882812 265.535156 C 178.375 266.449219 182.914062 266.902344 187.5 266.902344 C 192.085938 266.902344 196.625 266.449219 201.117188 265.535156 C 205.613281 264.621094 209.96875 263.269531 214.191406 261.480469 Z M 214.191406 261.480469 " fill-opacity="1" fill-rule="nonzero"/><path fill="#ffab91" d="M 114.101562 146.796875 C 114.101562 106.261719 120.773438 73.398438 187.5 73.398438 C 254.226562 73.398438 260.898438 106.261719 260.898438 146.796875 L 239.480469 215.34375 C 239.050781 216.71875 238.566406 218.074219 238.03125 219.410156 C 237.492188 220.746094 236.90625 222.058594 236.265625 223.34375 C 235.625 224.632812 234.933594 225.894531 234.191406 227.128906 C 233.453125 228.363281 232.664062 229.566406 231.828125 230.738281 C 230.992188 231.910156 230.109375 233.046875 229.183594 234.148438 C 228.257812 235.25 227.289062 236.3125 226.277344 237.335938 C 225.269531 238.363281 224.21875 239.34375 223.128906 240.285156 C 222.042969 241.230469 220.917969 242.125 219.757812 242.976562 C 218.597656 243.832031 217.40625 244.636719 216.183594 245.394531 C 214.960938 246.152344 213.707031 246.859375 212.429688 247.519531 C 211.148438 248.179688 209.84375 248.785156 208.515625 249.339844 C 207.191406 249.894531 205.84375 250.398438 204.472656 250.847656 C 203.105469 251.296875 201.722656 251.6875 200.324219 252.027344 C 198.925781 252.367188 197.515625 252.648438 196.09375 252.875 C 194.671875 253.105469 193.246094 253.273438 191.8125 253.386719 C 190.375 253.5 188.9375 253.558594 187.5 253.558594 C 186.0625 253.558594 184.625 253.5 183.1875 253.386719 C 181.753906 253.273438 180.328125 253.105469 178.90625 252.875 C 177.484375 252.648438 176.074219 252.367188 174.675781 252.027344 C 173.277344 251.6875 171.894531 251.296875 170.527344 250.847656 C 169.15625 250.398438 167.808594 249.894531 166.484375 249.339844 C 165.15625 248.785156 163.851562 248.179688 162.570312 247.519531 C 161.292969 246.859375 160.039062 246.152344 158.816406 245.394531 C 157.59375 244.636719 156.402344 243.832031 155.242188 242.976562 C 154.082031 242.125 152.957031 241.230469 151.871094 240.285156 C 150.78125 239.34375 149.730469 238.363281 148.722656 237.335938 C 147.710938 236.3125 146.742188 235.25 145.816406 234.148438 C 144.890625 233.046875 144.007812 231.910156 143.171875 230.738281 C 142.335938 229.566406 141.546875 228.363281 140.808594 227.128906 C 140.066406 225.894531 139.375 224.632812 138.734375 223.34375 C 138.09375 222.058594 137.507812 220.746094 136.96875 219.410156 C 136.433594 218.074219 135.949219 216.71875 135.519531 215.34375 Z M 114.101562 146.796875 " fill-opacity="1" fill-rule="nonzero"/><path fill="#4c2d22" d="M 272.335938 93.417969 C 245.761719 45.507812 209.066406 47.183594 195.125 46.113281 C 184.46875 45.292969 164.089844 52.652344 158.3125 69.570312 C 156.363281 67.351562 154.910156 65.953125 154.910156 65.953125 C 144.722656 63.269531 124.351562 71.3125 113.085938 93.296875 C 101.824219 115.28125 114.101562 146.796875 114.101562 146.796875 C 114.816406 143.621094 115.773438 140.519531 116.964844 137.492188 C 118.160156 134.464844 119.578125 131.546875 121.21875 128.738281 C 122.863281 125.925781 124.710938 123.257812 126.761719 120.734375 C 128.816406 118.207031 131.050781 115.855469 133.464844 113.671875 C 143.609375 104.179688 159.433594 100.878906 165.707031 94.6875 C 177.753906 105.007812 191.132812 113.121094 205.851562 119.035156 C 228.371094 126.542969 246.601562 129.757812 255.179688 140.480469 C 263.757812 151.203125 264.832031 181.234375 259.46875 209.113281 C 254.105469 236.996094 245.527344 264.878906 245.527344 291.6875 C 245.527344 318.496094 266.785156 352.628906 266.785156 352.628906 C 266.785156 352.628906 259.273438 293.832031 270.09375 261.660156 C 280.914062 229.488281 305.582031 153.351562 272.335938 93.417969 Z M 272.335938 93.417969 " fill-opacity="1" fill-rule="nonzero"/></svg>