<svg xmlns="http://www.w3.org/2000/svg" xmlns:xlink="http://www.w3.org/1999/xlink" width="500" zoomAndPan="magnify" viewBox="0 0 375 374.999991" height="500" preserveAspectRatio="xMidYMid meet" version="1.0"><path fill="#ffca4e" d="M 375 187.5 C 375 190.570312 374.925781 193.636719 374.773438 196.699219 C 374.625 199.765625 374.398438 202.824219 374.097656 205.878906 C 373.796875 208.933594 373.421875 211.976562 372.96875 215.011719 C 372.519531 218.046875 371.996094 221.070312 371.398438 224.078125 C 370.796875 227.089844 370.125 230.082031 369.378906 233.058594 C 368.636719 236.035156 367.816406 238.992188 366.925781 241.929688 C 366.035156 244.863281 365.074219 247.777344 364.039062 250.667969 C 363.003906 253.554688 361.902344 256.417969 360.726562 259.253906 C 359.554688 262.089844 358.308594 264.894531 356.996094 267.667969 C 355.6875 270.441406 354.308594 273.179688 352.859375 275.886719 C 351.414062 278.59375 349.902344 281.261719 348.324219 283.894531 C 346.746094 286.527344 345.105469 289.117188 343.402344 291.667969 C 341.695312 294.222656 339.929688 296.730469 338.101562 299.195312 C 336.273438 301.660156 334.386719 304.078125 332.4375 306.449219 C 330.492188 308.820312 328.488281 311.144531 326.429688 313.417969 C 324.367188 315.691406 322.253906 317.914062 320.082031 320.082031 C 317.914062 322.253906 315.691406 324.367188 313.417969 326.429688 C 311.144531 328.488281 308.820312 330.492188 306.449219 332.4375 C 304.078125 334.386719 301.660156 336.273438 299.195312 338.101562 C 296.730469 339.929688 294.222656 341.695312 291.667969 343.402344 C 289.117188 345.105469 286.527344 346.746094 283.894531 348.324219 C 281.261719 349.902344 278.59375 351.414062 275.886719 352.859375 C 273.179688 354.308594 270.441406 355.6875 267.667969 356.996094 C 264.894531 358.308594 262.089844 359.554688 259.253906 360.726562 C 256.417969 361.902344 253.554688 363.003906 250.667969 364.039062 C 247.777344 365.074219 244.863281 366.035156 241.929688 366.925781 C 238.992188 367.816406 236.035156 368.636719 233.058594 369.378906 C 230.082031 370.125 227.089844 370.796875 224.078125 371.398438 C 221.070312 371.996094 218.046875 372.519531 215.011719 372.96875 C 211.976562 373.421875 208.933594 373.796875 205.878906 374.097656 C 202.824219 374.398438 199.765625 374.625 196.699219 374.773438 C 193.636719 374.925781 190.570312 375 187.5 375 C 184.429688 375 181.363281 374.925781 178.300781 374.773438 C 175.234375 374.625 172.175781 374.398438 169.121094 374.097656 C 166.066406 373.796875 163.023438 373.421875 159.988281 372.96875 C 156.953125 372.519531 153.929688 371.996094 150.921875 371.398438 C 147.910156 370.796875 144.917969 370.125 141.941406 369.378906 C 138.964844 368.636719 136.007812 367.816406 133.070312 366.925781 C 130.136719 366.035156 127.222656 365.074219 124.332031 364.039062 C 121.445312 363.003906 118.582031 361.902344 115.746094 360.726562 C 112.910156 359.554688 110.105469 358.308594 107.332031 356.996094 C 104.558594 355.6875 101.820312 354.308594 99.113281 352.859375 C 96.40625 351.414062 93.738281 349.902344 91.105469 348.324219 C 88.472656 346.746094 85.882812 345.105469 83.332031 343.402344 C 80.777344 341.695312 78.269531 339.929688 75.804688 338.101562 C 73.339844 336.273438 70.921875 334.386719 68.550781 332.4375 C 66.179688 330.492188 63.855469 328.488281 61.582031 326.429688 C 59.308594 324.367188 57.085938 322.253906 54.917969 320.082031 C 52.746094 317.914062 50.632812 315.691406 48.570312 313.417969 C 46.511719 311.144531 44.507812 308.820312 42.558594 306.449219 C 40.613281 304.078125 38.726562 301.660156 36.898438 299.195312 C 35.070312 296.730469 33.304688 294.222656 31.597656 291.667969 C 29.894531 289.117188 28.253906 286.527344 26.675781 283.894531 C 25.097656 281.261719 23.585938 278.59375 22.140625 275.886719 C 20.691406 273.179688 19.3125 270.441406 18.003906 267.667969 C 16.691406 264.894531 15.445312 262.089844 14.273438 259.253906 C 13.097656 256.417969 11.996094 253.554688 10.960938 250.667969 C 9.925781 247.777344 8.964844 244.863281 8.074219 241.929688 C 7.183594 238.992188 6.363281 236.035156 5.617188 233.058594 C 4.875 230.082031 4.203125 227.089844 3.601562 224.078125 C 3.003906 221.070312 2.480469 218.046875 2.03125 215.011719 C 1.578125 211.976562 1.203125 208.933594 0.902344 205.878906 C 0.601562 202.824219 0.375 199.765625 0.226562 196.699219 C 0.0742188 193.636719 0 190.570312 0 187.5 C 0 184.429688 0.0742188 181.363281 0.226562 178.300781 C 0.375 175.234375 0.601562 172.175781 0.902344 169.121094 C 1.203125 166.066406 1.578125 163.023438 2.03125 159.988281 C 2.480469 156.953125 3.003906 153.929688 3.601562 150.921875 C 4.203125 147.910156 4.875 144.917969 5.617188 141.941406 C 6.363281 138.964844 7.183594 136.007812 8.074219 133.070312 C 8.964844 130.136719 9.925781 127.222656 10.960938 124.332031 C 11.996094 121.445312 13.097656 118.582031 14.273438 115.746094 C 15.445312 112.910156 16.691406 110.105469 18.003906 107.332031 C 19.3125 104.558594 20.691406 101.820312 22.140625 99.113281 C 23.585938 96.40625 25.097656 93.738281 26.675781 91.105469 C 28.253906 88.472656 29.894531 85.882812 31.597656 83.332031 C 33.304688 80.777344 35.070312 78.269531 36.898438 75.804688 C 38.726562 73.339844 40.613281 70.921875 42.558594 68.550781 C 44.507812 66.179688 46.511719 63.855469 48.570312 61.582031 C 50.632812 59.308594 52.746094 57.085938 54.917969 54.917969 C 57.085938 52.746094 59.308594 50.632812 61.582031 48.570312 C 63.855469 46.511719 66.179688 44.507812 68.550781 42.558594 C 70.921875 40.613281 73.339844 38.726562 75.804688 36.898438 C 78.269531 35.070312 80.777344 33.304688 83.332031 31.597656 C 85.882812 29.894531 88.472656 28.253906 91.105469 26.675781 C 93.738281 25.097656 96.40625 23.585938 99.113281 22.140625 C 101.820312 20.691406 104.558594 19.3125 107.332031 18.003906 C 110.105469 16.691406 112.910156 15.445312 115.746094 14.273438 C 118.582031 13.097656 121.445312 11.996094 124.332031 10.960938 C 127.222656 9.925781 130.136719 8.964844 133.070312 8.074219 C 136.007812 7.183594 138.964844 6.363281 141.941406 5.617188 C 144.917969 4.875 147.910156 4.203125 150.921875 3.601562 C 153.929688 3.003906 156.953125 2.480469 159.988281 2.03125 C 163.023438 1.578125 166.066406 1.203125 169.121094 0.902344 C 172.175781 0.601562 175.234375 0.375 178.300781 0.226562 C 181.363281 0.0742188 184.429688 0 187.5 0 C 190.570312 0 193.636719 0.0742188 196.699219 0.226562 C 199.765625 0.375 202.824219 0.601562 205.878906 0.902344 C 208.933594 1.203125 211.976562 1.578125 215.011719 2.03125 C 218.046875 2.480469 221.070312 3.003906 224.078125 3.601562 C 227.089844 4.203125 230.082031 4.875 233.058594 5.617188 C 236.035156 6.363281 238.992188 7.183594 241.929688 8.074219 C 244.863281 8.964844 247.777344 9.925781 250.667969 10.960938 C 253.554688 11.996094 256.417969 13.097656 259.253906 14.273438 C 262.089844 15.445312 264.894531 16.691406 267.667969 18.003906 C 270.441406 19.3125 273.179688 20.691406 275.886719 22.140625 C 278.59375 23.585938 281.261719 25.097656 283.894531 26.675781 C 286.527344 28.253906 289.117188 29.894531 291.667969 31.597656 C 294.222656 33.304688 296.730469 35.070312 299.195312 36.898438 C 301.660156 38.726562 304.078125 40.613281 306.449219 42.558594 C 308.820312 44.507812 311.144531 46.511719 313.417969 48.570312 C 315.691406 50.632812 317.914062 52.746094 320.082031 54.917969 C 322.253906 57.085938 324.367188 59.308594 326.429688 61.582031 C 328.488281 63.855469 330.492188 66.179688 332.4375 68.550781 C 334.386719 70.921875 336.273438 73.339844 338.101562 75.804688 C 339.929688 78.269531 341.695312 80.777344 343.402344 83.332031 C 345.105469 85.882812 346.746094 88.472656 348.324219 91.105469 C 349.902344 93.738281 351.414062 96.40625 352.859375 99.113281 C 354.308594 101.820312 355.6875 104.558594 356.996094 107.332031 C 358.308594 110.105469 359.554688 112.910156 360.726562 115.746094 C 361.902344 118.582031 363.003906 121.445312 364.039062 124.332031 C 365.074219 127.222656 366.035156 130.136719 366.925781 133.070312 C 367.816406 136.007812 368.636719 138.964844 369.378906 141.941406 C 370.125 144.917969 370.796875 147.910156 371.398438 150.921875 C 371.996094 153.929688 372.519531 156.953125 372.96875 159.988281 C 373.421875 163.023438 373.796875 166.066406 374.097656 169.121094 C 374.398438 172.175781 374.625 175.234375 374.773438 178.300781 C 374.925781 181.363281 375 184.429688 375 187.5 Z M 375 187.5 " fill-opacity="1" fill-rule="nonzero"/><path fill="#4c2d22" d="M 255.179688 195.152344 C 255.179688 195.152344 275.628906 130.582031 269.171875 96.140625 C 262.714844 61.703125 240.652344 54.707031 226.125 57.9375 C 219.125 59.492188 212.144531 72.410156 206.773438 85.378906 L 168.230469 85.378906 C 162.855469 72.410156 155.875 59.492188 148.878906 57.9375 C 134.347656 54.707031 112.285156 61.703125 105.828125 96.140625 C 99.371094 130.578125 119.820312 195.152344 119.820312 195.152344 L 151.9375 230.308594 L 223.066406 230.308594 Z M 255.179688 195.152344 " fill-opacity="1" fill-rule="nonzero"/><path fill="#ea7760" d="M 280.847656 174.105469 C 280.847656 173.238281 280.804688 172.375 280.71875 171.507812 C 280.632812 170.644531 280.503906 169.789062 280.335938 168.9375 C 280.167969 168.085938 279.957031 167.242188 279.707031 166.414062 C 279.457031 165.582031 279.164062 164.765625 278.835938 163.960938 C 278.503906 163.160156 278.136719 162.375 277.730469 161.609375 C 277.324219 160.839844 276.878906 160.09375 276.402344 159.371094 C 275.921875 158.648438 275.410156 157.949219 274.863281 157.273438 C 274.316406 156.601562 273.738281 155.953125 273.128906 155.335938 C 272.519531 154.71875 271.882812 154.132812 271.214844 153.574219 C 270.546875 153.019531 269.855469 152.496094 269.136719 152.007812 C 268.421875 151.519531 267.679688 151.066406 266.921875 150.648438 C 266.160156 150.234375 265.378906 149.855469 264.582031 149.511719 C 263.78125 149.171875 262.96875 148.871094 262.140625 148.609375 C 261.316406 148.347656 260.476562 148.125 259.628906 147.945312 C 258.777344 147.765625 257.921875 147.625 257.058594 147.527344 C 256.199219 147.429688 255.332031 147.375 254.464844 147.363281 L 254.464844 147.320312 L 241.070312 147.320312 L 241.070312 200.894531 L 254.464844 200.894531 L 254.464844 200.851562 C 255.332031 200.839844 256.199219 200.785156 257.058594 200.6875 C 257.921875 200.589844 258.777344 200.449219 259.628906 200.269531 C 260.476562 200.089844 261.316406 199.867188 262.140625 199.605469 C 262.96875 199.34375 263.78125 199.042969 264.582031 198.699219 C 265.378906 198.359375 266.160156 197.980469 266.921875 197.5625 C 267.679688 197.148438 268.421875 196.695312 269.136719 196.207031 C 269.855469 195.71875 270.546875 195.195312 271.214844 194.640625 C 271.882812 194.082031 272.519531 193.496094 273.128906 192.878906 C 273.738281 192.261719 274.316406 191.613281 274.863281 190.941406 C 275.410156 190.265625 275.921875 189.566406 276.402344 188.84375 C 276.878906 188.117188 277.324219 187.375 277.730469 186.605469 C 278.136719 185.839844 278.503906 185.054688 278.835938 184.25 C 279.164062 183.449219 279.457031 182.632812 279.707031 181.800781 C 279.957031 180.96875 280.167969 180.128906 280.335938 179.277344 C 280.503906 178.425781 280.632812 177.570312 280.71875 176.703125 C 280.804688 175.839844 280.847656 174.976562 280.847656 174.105469 Z M 280.847656 174.105469 " fill-opacity="1" fill-rule="nonzero"/><path fill="#ea7760" d="M 120.535156 147.320312 C 119.660156 147.320312 118.785156 147.363281 117.910156 147.449219 C 117.039062 147.535156 116.171875 147.664062 115.308594 147.835938 C 114.449219 148.007812 113.601562 148.21875 112.761719 148.476562 C 111.921875 148.730469 111.097656 149.023438 110.285156 149.359375 C 109.476562 149.695312 108.683594 150.070312 107.910156 150.484375 C 107.136719 150.898438 106.382812 151.347656 105.65625 151.835938 C 104.925781 152.324219 104.222656 152.84375 103.542969 153.402344 C 102.863281 153.957031 102.214844 154.546875 101.59375 155.167969 C 100.976562 155.785156 100.386719 156.4375 99.828125 157.113281 C 99.273438 157.792969 98.75 158.496094 98.265625 159.226562 C 97.777344 159.957031 97.328125 160.707031 96.914062 161.480469 C 96.5 162.253906 96.125 163.046875 95.789062 163.855469 C 95.453125 164.667969 95.15625 165.492188 94.902344 166.332031 C 94.648438 167.171875 94.4375 168.019531 94.265625 168.882812 C 94.09375 169.742188 93.964844 170.609375 93.878906 171.480469 C 93.792969 172.355469 93.75 173.230469 93.75 174.105469 C 93.75 174.984375 93.792969 175.859375 93.878906 176.734375 C 93.964844 177.605469 94.09375 178.472656 94.265625 179.332031 C 94.4375 180.191406 94.648438 181.042969 94.902344 181.882812 C 95.15625 182.722656 95.453125 183.546875 95.789062 184.359375 C 96.125 185.167969 96.5 185.960938 96.914062 186.734375 C 97.328125 187.507812 97.777344 188.257812 98.265625 188.988281 C 98.75 189.71875 99.273438 190.421875 99.828125 191.101562 C 100.386719 191.777344 100.976562 192.425781 101.59375 193.046875 C 102.214844 193.667969 102.863281 194.257812 103.542969 194.8125 C 104.222656 195.371094 104.925781 195.890625 105.65625 196.378906 C 106.382812 196.867188 107.136719 197.316406 107.910156 197.730469 C 108.683594 198.144531 109.476562 198.519531 110.285156 198.855469 C 111.097656 199.191406 111.921875 199.484375 112.761719 199.738281 C 113.601562 199.992188 114.449219 200.207031 115.308594 200.378906 C 116.171875 200.550781 117.039062 200.679688 117.910156 200.765625 C 118.785156 200.851562 119.660156 200.894531 120.535156 200.894531 L 133.929688 200.894531 L 133.929688 147.320312 Z M 120.535156 147.320312 " fill-opacity="1" fill-rule="nonzero"/><path fill="#ffab91" d="M 326.519531 313.394531 C 322.664062 317.652344 318.621094 321.726562 314.390625 325.617188 C 310.160156 329.503906 305.761719 333.1875 301.191406 336.671875 C 296.621094 340.15625 291.902344 343.421875 287.03125 346.46875 C 282.160156 349.515625 277.160156 352.335938 272.03125 354.921875 C 266.902344 357.511719 261.664062 359.855469 256.316406 361.960938 C 250.972656 364.066406 245.539062 365.921875 240.023438 367.527344 C 234.507812 369.132812 228.929688 370.480469 223.289062 371.574219 C 217.644531 372.664062 211.96875 373.492188 206.25 374.0625 C 200.089844 374.664062 193.863281 375 187.5 375 C 181.136719 375 174.910156 374.664062 168.75 374.0625 C 163.03125 373.492188 157.355469 372.664062 151.710938 371.574219 C 146.070312 370.480469 140.492188 369.132812 134.976562 367.527344 C 129.460938 365.921875 124.027344 364.066406 118.683594 361.960938 C 113.335938 359.855469 108.097656 357.511719 102.96875 354.921875 C 97.839844 352.335938 92.839844 349.515625 87.96875 346.46875 C 83.097656 343.421875 78.378906 340.15625 73.808594 336.671875 C 69.238281 333.1875 64.839844 329.503906 60.609375 325.617188 C 56.378906 321.726562 52.335938 317.652344 48.480469 313.394531 C 50.324219 310.199219 52.46875 307.226562 54.921875 304.476562 C 57.371094 301.726562 60.078125 299.253906 63.039062 297.058594 C 66 294.863281 69.152344 292.992188 72.5 291.445312 C 75.84375 289.902344 79.3125 288.710938 82.902344 287.878906 L 138.28125 275.15625 L 144.175781 273.816406 L 160.714844 270 L 160.714844 229.285156 L 214.285156 229.285156 L 214.285156 270 L 230.824219 273.816406 L 236.71875 275.15625 L 292.097656 287.878906 C 295.6875 288.710938 299.15625 289.902344 302.5 291.445312 C 305.847656 292.992188 309 294.863281 311.960938 297.058594 C 314.921875 299.253906 317.628906 301.726562 320.078125 304.476562 C 322.53125 307.226562 324.675781 310.199219 326.519531 313.394531 Z M 326.519531 313.394531 " fill-opacity="1" fill-rule="nonzero"/><path fill="#ea7760" d="M 214.285156 262.414062 L 214.285156 229.308594 L 160.714844 229.308594 L 160.714844 262.414062 C 164.949219 264.210938 169.324219 265.566406 173.832031 266.484375 C 178.34375 267.398438 182.898438 267.855469 187.5 267.855469 C 192.101562 267.855469 196.65625 267.398438 201.167969 266.484375 C 205.675781 265.566406 210.050781 264.210938 214.285156 262.414062 Z M 214.285156 262.414062 " fill-opacity="1" fill-rule="nonzero"/><path fill="#ffab91" d="M 113.839844 147.320312 C 113.839844 106.640625 120.535156 73.660156 187.5 73.660156 C 254.464844 73.660156 261.160156 106.640625 261.160156 147.320312 L 239.664062 216.113281 C 239.234375 217.492188 238.75 218.851562 238.210938 220.191406 C 237.671875 221.53125 237.082031 222.851562 236.4375 224.144531 C 235.796875 225.4375 235.101562 226.703125 234.359375 227.941406 C 233.617188 229.179688 232.824219 230.386719 231.984375 231.5625 C 231.144531 232.738281 230.261719 233.878906 229.332031 234.984375 C 228.402344 236.089844 227.429688 237.15625 226.417969 238.183594 C 225.402344 239.214844 224.351562 240.199219 223.257812 241.144531 C 222.164062 242.089844 221.035156 242.992188 219.875 243.847656 C 218.710938 244.703125 217.511719 245.507812 216.285156 246.269531 C 215.058594 247.03125 213.800781 247.742188 212.519531 248.402344 C 211.234375 249.0625 209.925781 249.671875 208.59375 250.230469 C 207.261719 250.789062 205.90625 251.292969 204.535156 251.742188 C 203.164062 252.191406 201.773438 252.585938 200.371094 252.929688 C 198.96875 253.269531 197.550781 253.550781 196.125 253.78125 C 194.699219 254.007812 193.265625 254.179688 191.828125 254.292969 C 190.386719 254.40625 188.945312 254.464844 187.5 254.464844 C 186.054688 254.464844 184.613281 254.40625 183.171875 254.292969 C 181.734375 254.179688 180.300781 254.007812 178.875 253.78125 C 177.449219 253.550781 176.03125 253.269531 174.628906 252.929688 C 173.226562 252.585938 171.835938 252.191406 170.464844 251.742188 C 169.09375 251.292969 167.738281 250.789062 166.40625 250.230469 C 165.074219 249.671875 163.765625 249.0625 162.480469 248.402344 C 161.199219 247.742188 159.941406 247.03125 158.714844 246.269531 C 157.488281 245.507812 156.289062 244.703125 155.125 243.847656 C 153.964844 242.992188 152.835938 242.089844 151.742188 241.144531 C 150.652344 240.199219 149.597656 239.214844 148.582031 238.183594 C 147.570312 237.15625 146.597656 236.089844 145.667969 234.984375 C 144.738281 233.878906 143.855469 232.738281 143.015625 231.5625 C 142.175781 230.386719 141.382812 229.179688 140.640625 227.941406 C 139.898438 226.703125 139.203125 225.4375 138.5625 224.144531 C 137.917969 222.851562 137.328125 221.53125 136.789062 220.191406 C 136.25 218.851562 135.765625 217.492188 135.335938 216.113281 Z M 113.839844 147.320312 " fill-opacity="1" fill-rule="nonzero"/><path fill="#4c2d22" d="M 288.246094 46.097656 C 288.246094 46.097656 285.015625 53.09375 268.875 50.941406 C 252.730469 48.789062 212.625 30.109375 179.007812 37.488281 C 153.152344 43.164062 143.480469 58.214844 139.863281 69.730469 C 137.703125 69.691406 135.59375 70.007812 133.542969 70.683594 C 131.492188 71.355469 129.605469 72.347656 127.890625 73.660156 C 122.101562 80.203125 117.417969 87.457031 113.839844 95.425781 L 112.824219 166.09375 L 119.28125 154.019531 L 124.027344 113.390625 C 130.914062 110.375 137.042969 106.238281 142.417969 100.980469 C 145.933594 97.507812 149.359375 94.1875 152.523438 91.152344 C 171.96875 99.96875 192.277344 105.757812 213.449219 108.515625 C 222.242188 109.375 230.945312 108.800781 239.546875 106.789062 C 243.128906 109.382812 246.9375 111.582031 250.972656 113.390625 L 255.71875 154.019531 L 262.175781 166.09375 L 261.160156 99.371094 C 265.363281 96.609375 269.082031 93.304688 272.316406 89.457031 C 275.554688 85.613281 278.171875 81.382812 280.175781 76.769531 C 282.710938 72.046875 284.664062 67.097656 286.027344 61.910156 C 287.390625 56.726562 288.128906 51.457031 288.246094 46.097656 Z M 288.246094 46.097656 " fill-opacity="1" fill-rule="nonzero"/><path fill="#79bbff" d="M 326.519531 313.394531 C 322.664062 317.652344 318.621094 321.726562 314.390625 325.617188 C 310.160156 329.503906 305.761719 333.1875 301.191406 336.671875 C 296.621094 340.15625 291.902344 343.421875 287.03125 346.46875 C 282.160156 349.515625 277.160156 352.335938 272.03125 354.921875 C 266.902344 357.511719 261.664062 359.855469 256.316406 361.960938 C 250.972656 364.066406 245.539062 365.921875 240.023438 367.527344 C 234.507812 369.132812 228.929688 370.480469 223.289062 371.574219 C 217.644531 372.664062 211.96875 373.492188 206.25 374.0625 C 200.089844 374.664062 193.863281 375 187.5 375 C 181.136719 375 174.910156 374.664062 168.75 374.0625 C 163.03125 373.492188 157.355469 372.664062 151.710938 371.574219 C 146.070312 370.480469 140.492188 369.132812 134.976562 367.527344 C 129.460938 365.921875 124.027344 364.066406 118.683594 361.960938 C 113.335938 359.855469 108.097656 357.511719 102.96875 354.921875 C 97.839844 352.335938 92.839844 349.515625 87.96875 346.46875 C 83.097656 343.421875 78.378906 340.15625 73.808594 336.671875 C 69.238281 333.1875 64.839844 329.503906 60.609375 325.617188 C 56.378906 321.726562 52.335938 317.652344 48.480469 313.394531 C 50.324219 310.199219 52.46875 307.226562 54.921875 304.476562 C 57.371094 301.726562 60.078125 299.253906 63.039062 297.058594 C 66 294.863281 69.152344 292.992188 72.5 291.445312 C 75.84375 289.902344 79.3125 288.710938 82.902344 287.878906 L 138.28125 275.15625 L 144.175781 273.816406 L 173.101562 296.183594 L 176.851562 299.0625 L 187.5 307.300781 L 198.148438 299.0625 L 201.898438 296.183594 L 230.824219 273.816406 L 236.71875 275.15625 L 292.097656 287.878906 C 295.6875 288.710938 299.15625 289.902344 302.5 291.445312 C 305.847656 292.992188 309 294.863281 311.960938 297.058594 C 314.921875 299.253906 317.628906 301.726562 320.078125 304.476562 C 322.53125 307.226562 324.675781 310.199219 326.519531 313.394531 Z M 326.519531 313.394531 " fill-opacity="1" fill-rule="nonzero"/><path fill="#bf0d27" d="M 199.21875 293.355469 L 187.5 299.90625 L 175.78125 293.355469 L 163.136719 306.808594 L 177.214844 321.246094 L 197.785156 321.246094 L 211.863281 306.808594 Z M 199.21875 293.355469 " fill-opacity="1" fill-rule="nonzero"/><path fill="#e8002d" d="M 206.25 374.0625 C 200.089844 374.664062 193.863281 375 187.5 375 C 181.136719 375 174.910156 374.664062 168.75 374.0625 L 177.589844 321.226562 L 187.5 321.09375 L 197.410156 321.226562 Z M 206.25 374.0625 " fill-opacity="1" fill-rule="nonzero"/><path fill="#5592c9" d="M 162.1875 321.703125 L 180.804688 292.949219 L 160.714844 270.007812 L 138.261719 275.167969 Z M 162.1875 321.703125 " fill-opacity="1" fill-rule="nonzero"/><path fill="#5592c9" d="M 236.738281 275.167969 L 214.285156 270.007812 L 194.195312 292.949219 L 212.8125 321.703125 Z M 236.738281 275.167969 " fill-opacity="1" fill-rule="nonzero"/></svg>