<svg xmlns="http://www.w3.org/2000/svg" xmlns:xlink="http://www.w3.org/1999/xlink" width="500" zoomAndPan="magnify" viewBox="0 0 375 374.999991" height="500" preserveAspectRatio="xMidYMid meet" version="1.0"><path fill="#55adff" d="M 374.332031 186.832031 C 374.332031 189.890625 374.257812 192.945312 374.109375 196 C 373.957031 199.054688 373.734375 202.101562 373.433594 205.144531 C 373.132812 208.1875 372.757812 211.222656 372.308594 214.246094 C 371.863281 217.269531 371.339844 220.28125 370.742188 223.28125 C 370.144531 226.28125 369.476562 229.261719 368.734375 232.230469 C 367.992188 235.195312 367.175781 238.140625 366.289062 241.066406 C 365.398438 243.992188 364.441406 246.894531 363.410156 249.773438 C 362.382812 252.652344 361.28125 255.503906 360.109375 258.332031 C 358.941406 261.15625 357.703125 263.949219 356.394531 266.714844 C 355.085938 269.476562 353.714844 272.207031 352.273438 274.90625 C 350.832031 277.601562 349.324219 280.261719 347.75 282.882812 C 346.179688 285.507812 344.542969 288.089844 342.84375 290.632812 C 341.148438 293.171875 339.386719 295.671875 337.566406 298.128906 C 335.742188 300.585938 333.863281 302.996094 331.921875 305.359375 C 329.984375 307.722656 327.988281 310.035156 325.933594 312.300781 C 323.878906 314.566406 321.773438 316.78125 319.609375 318.945312 C 317.449219 321.105469 315.234375 323.214844 312.96875 325.265625 C 310.703125 327.320312 308.390625 329.316406 306.027344 331.257812 C 303.660156 333.195312 301.253906 335.078125 298.796875 336.898438 C 296.339844 338.71875 293.839844 340.480469 291.296875 342.179688 C 288.757812 343.878906 286.175781 345.511719 283.550781 347.085938 C 280.929688 348.65625 278.269531 350.164062 275.574219 351.605469 C 272.875 353.046875 270.144531 354.421875 267.382812 355.726562 C 264.617188 357.035156 261.824219 358.273438 258.996094 359.445312 C 256.171875 360.613281 253.320312 361.714844 250.441406 362.742188 C 247.5625 363.773438 244.660156 364.734375 241.734375 365.621094 C 238.808594 366.507812 235.863281 367.324219 232.898438 368.066406 C 229.929688 368.808594 226.949219 369.480469 223.949219 370.074219 C 220.949219 370.671875 217.9375 371.195312 214.914062 371.644531 C 211.890625 372.09375 208.855469 372.464844 205.8125 372.765625 C 202.769531 373.066406 199.722656 373.289062 196.667969 373.441406 C 193.613281 373.589844 190.558594 373.664062 187.5 373.664062 C 184.441406 373.664062 181.386719 373.589844 178.332031 373.441406 C 175.277344 373.289062 172.230469 373.066406 169.1875 372.765625 C 166.144531 372.464844 163.109375 372.09375 160.085938 371.644531 C 157.0625 371.195312 154.050781 370.671875 151.050781 370.074219 C 148.050781 369.480469 145.070312 368.808594 142.101562 368.066406 C 139.136719 367.324219 136.191406 366.507812 133.265625 365.621094 C 130.339844 364.734375 127.4375 363.773438 124.558594 362.742188 C 121.679688 361.714844 118.828125 360.613281 116.003906 359.445312 C 113.175781 358.273438 110.382812 357.035156 107.617188 355.726562 C 104.855469 354.421875 102.125 353.046875 99.425781 351.605469 C 96.730469 350.164062 94.070312 348.65625 91.449219 347.085938 C 88.824219 345.511719 86.242188 343.878906 83.703125 342.179688 C 81.160156 340.480469 78.660156 338.71875 76.203125 336.898438 C 73.746094 335.078125 71.339844 333.195312 68.972656 331.257812 C 66.609375 329.316406 64.296875 327.320312 62.03125 325.265625 C 59.765625 323.214844 57.550781 321.105469 55.390625 318.945312 C 53.226562 316.78125 51.121094 314.566406 49.066406 312.300781 C 47.011719 310.035156 45.015625 307.722656 43.078125 305.359375 C 41.136719 302.996094 39.257812 300.585938 37.433594 298.128906 C 35.613281 295.671875 33.851562 293.171875 32.152344 290.632812 C 30.457031 288.089844 28.820312 285.507812 27.25 282.882812 C 25.675781 280.261719 24.167969 277.601562 22.726562 274.90625 C 21.285156 272.207031 19.914062 269.476562 18.605469 266.714844 C 17.296875 263.949219 16.058594 261.15625 14.890625 258.332031 C 13.71875 255.503906 12.617188 252.652344 11.589844 249.773438 C 10.558594 246.894531 9.601562 243.992188 8.710938 241.066406 C 7.824219 238.140625 7.007812 235.195312 6.265625 232.230469 C 5.523438 229.261719 4.855469 226.28125 4.257812 223.28125 C 3.660156 220.28125 3.136719 217.269531 2.6875 214.246094 C 2.242188 211.222656 1.867188 208.1875 1.566406 205.144531 C 1.265625 202.101562 1.042969 199.054688 0.890625 196 C 0.742188 192.945312 0.667969 189.890625 0.667969 186.832031 C 0.667969 183.773438 0.742188 180.71875 0.890625 177.664062 C 1.042969 174.609375 1.265625 171.5625 1.566406 168.519531 C 1.867188 165.476562 2.242188 162.441406 2.6875 159.417969 C 3.136719 156.394531 3.660156 153.382812 4.257812 150.382812 C 4.855469 147.382812 5.523438 144.402344 6.265625 141.4375 C 7.007812 138.46875 7.824219 135.523438 8.710938 132.597656 C 9.601562 129.671875 10.558594 126.769531 11.589844 123.890625 C 12.617188 121.011719 13.71875 118.160156 14.890625 115.335938 C 16.058594 112.511719 17.296875 109.714844 18.605469 106.953125 C 19.914062 104.1875 21.285156 101.457031 22.726562 98.761719 C 24.167969 96.0625 25.675781 93.402344 27.25 90.78125 C 28.820312 88.160156 30.457031 85.578125 32.152344 83.035156 C 33.851562 80.492188 35.613281 77.992188 37.433594 75.535156 C 39.257812 73.082031 41.136719 70.671875 43.078125 68.308594 C 45.015625 65.945312 47.011719 63.628906 49.066406 61.363281 C 51.121094 59.097656 53.226562 56.882812 55.390625 54.722656 C 57.550781 52.558594 59.765625 50.453125 62.03125 48.398438 C 64.296875 46.34375 66.609375 44.347656 68.972656 42.410156 C 71.339844 40.46875 73.746094 38.589844 76.203125 36.765625 C 78.660156 34.945312 81.160156 33.1875 83.703125 31.488281 C 86.242188 29.789062 88.824219 28.152344 91.449219 26.582031 C 94.070312 25.007812 96.730469 23.503906 99.425781 22.0625 C 102.125 20.621094 104.855469 19.246094 107.617188 17.9375 C 110.382812 16.628906 113.175781 15.390625 116.003906 14.222656 C 118.828125 13.050781 121.679688 11.953125 124.558594 10.921875 C 127.4375 9.890625 130.339844 8.933594 133.265625 8.046875 C 136.191406 7.15625 139.136719 6.34375 142.101562 5.597656 C 145.070312 4.855469 148.050781 4.1875 151.050781 3.589844 C 154.050781 2.992188 157.0625 2.472656 160.085938 2.023438 C 163.109375 1.574219 166.144531 1.199219 169.1875 0.898438 C 172.230469 0.601562 175.277344 0.375 178.332031 0.226562 C 181.386719 0.0742188 184.441406 0 187.5 0 C 190.558594 0 193.613281 0.0742188 196.667969 0.226562 C 199.722656 0.375 202.769531 0.601562 205.8125 0.898438 C 208.855469 1.199219 211.890625 1.574219 214.914062 2.023438 C 217.9375 2.472656 220.949219 2.992188 223.949219 3.589844 C 226.949219 4.1875 229.929688 4.855469 232.898438 5.597656 C 235.863281 6.34375 238.808594 7.15625 241.734375 8.046875 C 244.660156 8.933594 247.5625 9.890625 250.441406 10.921875 C 253.320312 11.953125 256.171875 13.050781 258.996094 14.222656 C 261.824219 15.390625 264.617188 16.628906 267.382812 17.9375 C 270.144531 19.246094 272.875 20.621094 275.574219 22.0625 C 278.269531 23.503906 280.929688 25.007812 283.550781 26.582031 C 286.175781 28.152344 288.757812 29.789062 291.296875 31.488281 C 293.839844 33.1875 296.339844 34.945312 298.796875 36.765625 C 301.253906 38.589844 303.660156 40.46875 306.027344 42.410156 C 308.390625 44.347656 310.703125 46.34375 312.96875 48.398438 C 315.234375 50.453125 317.449219 52.558594 319.609375 54.722656 C 321.773438 56.882812 323.878906 59.097656 325.933594 61.363281 C 327.988281 63.628906 329.984375 65.945312 331.921875 68.308594 C 333.863281 70.671875 335.742188 73.082031 337.566406 75.535156 C 339.386719 77.992188 341.148438 80.492188 342.84375 83.035156 C 344.542969 85.578125 346.179688 88.160156 347.75 90.78125 C 349.324219 93.402344 350.832031 96.0625 352.273438 98.761719 C 353.714844 101.457031 355.085938 104.1875 356.394531 106.953125 C 357.703125 109.714844 358.941406 112.511719 360.109375 115.335938 C 361.28125 118.160156 362.382812 121.011719 363.410156 123.890625 C 364.441406 126.769531 365.398438 129.671875 366.289062 132.597656 C 367.175781 135.523438 367.992188 138.46875 368.734375 141.4375 C 369.476562 144.402344 370.144531 147.382812 370.742188 150.382812 C 371.339844 153.382812 371.863281 156.394531 372.308594 159.417969 C 372.757812 162.441406 373.132812 165.476562 373.433594 168.519531 C 373.734375 171.5625 373.957031 174.609375 374.109375 177.664062 C 374.257812 180.71875 374.332031 183.773438 374.332031 186.832031 Z M 374.332031 186.832031 " fill-opacity="1" fill-rule="nonzero"/><path fill="#b27232" d="M 288.921875 312.878906 C 292.664062 321.15625 295.042969 329.808594 296.0625 338.835938 C 292.558594 341.421875 288.933594 343.824219 285.1875 346.039062 C 284.277344 342.246094 283.011719 338.578125 281.382812 335.03125 C 277.886719 328.472656 273.660156 322.421875 268.707031 316.882812 C 266.996094 314.726562 265.417969 312.480469 263.96875 310.140625 L 240.679688 309.941406 L 228.203125 309.875 L 146.730469 309.207031 L 134.320312 309.140625 L 111.699219 308.941406 L 100.757812 308.875 C 100.757812 308.875 100.691406 307.007812 100.488281 303.601562 C 100.289062 299.867188 100.089844 294.328125 99.753906 287.457031 C 98.6875 263.699219 97.152344 224.464844 96.753906 193.773438 C 96.3125 180.414062 96.558594 167.070312 97.488281 153.738281 C 97.554688 153.335938 97.621094 152.871094 97.6875 152.46875 C 98.339844 148.460938 99.277344 144.519531 100.496094 140.644531 C 101.714844 136.769531 103.207031 133.003906 104.96875 129.34375 C 106.730469 125.683594 108.746094 122.167969 111.011719 118.800781 C 113.28125 115.429688 115.777344 112.242188 118.503906 109.230469 C 129.289062 96.832031 141.722656 86.398438 155.804688 77.9375 C 156.917969 77.214844 158.074219 76.570312 159.273438 76 C 165.089844 72.992188 171.179688 70.714844 177.542969 69.167969 C 183.90625 67.621094 190.359375 66.851562 196.910156 66.859375 C 198.113281 64.441406 199.609375 62.222656 201.398438 60.199219 C 203.183594 58.171875 205.203125 56.410156 207.449219 54.914062 C 211.542969 52.484375 215.90625 50.734375 220.542969 49.664062 C 225.175781 48.59375 229.867188 48.253906 234.609375 48.644531 C 259.296875 49.242188 272.84375 62.589844 281.382812 94.75 C 291.257812 131.785156 291.058594 190.167969 293.195312 207.316406 C 295.328125 224.464844 302.871094 234.140625 302.871094 248.488281 C 302.816406 250.683594 302.539062 252.847656 302.039062 254.988281 C 301.539062 257.125 300.828125 259.1875 299.902344 261.179688 C 298.980469 263.171875 297.863281 265.050781 296.550781 266.8125 C 295.242188 268.574219 293.765625 270.183594 292.125 271.640625 C 294.394531 274.78125 296.164062 278.179688 297.4375 281.835938 C 298.707031 285.496094 299.429688 289.257812 299.601562 293.128906 C 299.667969 293.929688 299.667969 294.730469 299.667969 295.460938 C 299.59375 297.253906 299.292969 299.003906 298.769531 300.71875 C 298.246094 302.429688 297.515625 304.050781 296.574219 305.574219 C 295.632812 307.101562 294.515625 308.480469 293.21875 309.71875 C 291.921875 310.957031 290.492188 312.007812 288.921875 312.878906 Z M 288.921875 312.878906 " fill-opacity="1" fill-rule="nonzero"/><path fill="#ffab91" d="M 327.359375 310.742188 C 317.988281 321.289062 307.554688 330.652344 296.0625 338.835938 C 292.558594 341.421875 288.933594 343.824219 285.1875 346.039062 C 277.394531 350.890625 269.273438 355.117188 260.832031 358.71875 C 252.539062 362.222656 244.042969 365.136719 235.34375 367.460938 C 230.738281 368.660156 226.132812 369.730469 221.398438 370.53125 C 210.195312 372.621094 198.894531 373.664062 187.5 373.664062 C 176.105469 373.664062 164.804688 372.621094 153.601562 370.53125 C 148.867188 369.730469 144.261719 368.660156 139.65625 367.460938 C 130.957031 365.136719 122.460938 362.222656 114.167969 358.71875 C 105.726562 355.117188 97.605469 350.890625 89.8125 346.039062 C 86.066406 343.824219 82.441406 341.421875 78.9375 338.835938 C 67.445312 330.652344 57.011719 321.289062 47.640625 310.742188 C 49.285156 308.230469 51.296875 306.058594 53.675781 304.230469 C 56.058594 302.398438 58.671875 301.011719 61.519531 300.066406 L 75.398438 295.53125 L 99.753906 287.457031 L 110.832031 283.785156 L 116.835938 281.851562 L 116.835938 281.785156 L 135.585938 275.644531 L 147.53125 271.707031 L 160.609375 267.371094 L 160.808594 248.554688 L 160.808594 248.488281 L 214.191406 248.488281 L 214.191406 267.171875 L 227.46875 271.574219 L 239.414062 275.511719 L 264.101562 283.71875 L 299.667969 295.460938 L 313.480469 300.066406 C 316.328125 301.011719 318.941406 302.398438 321.324219 304.230469 C 323.703125 306.058594 325.714844 308.230469 327.359375 310.742188 Z M 327.359375 310.742188 " fill-opacity="1" fill-rule="nonzero"/><path fill="#212121" d="M 327.359375 310.742188 C 317.988281 321.289062 307.554688 330.652344 296.0625 338.835938 C 292.558594 341.421875 288.933594 343.824219 285.1875 346.039062 C 277.394531 350.890625 269.273438 355.117188 260.832031 358.71875 C 252.539062 362.222656 244.042969 365.136719 235.34375 367.460938 C 230.738281 368.660156 226.132812 369.730469 221.398438 370.53125 C 210.195312 372.621094 198.894531 373.664062 187.5 373.664062 C 176.105469 373.664062 164.804688 372.621094 153.601562 370.53125 C 148.867188 369.730469 144.261719 368.660156 139.65625 367.460938 C 130.957031 365.136719 122.460938 362.222656 114.167969 358.71875 C 105.726562 355.117188 97.605469 350.890625 89.8125 346.039062 C 86.066406 343.824219 82.441406 341.421875 78.9375 338.835938 C 67.445312 330.652344 57.011719 321.289062 47.640625 310.742188 C 49.285156 308.230469 51.296875 306.058594 53.675781 304.230469 C 56.058594 302.398438 58.671875 301.011719 61.519531 300.066406 L 75.398438 295.53125 L 99.753906 287.457031 L 110.832031 283.785156 L 116.835938 281.851562 L 116.835938 281.785156 L 135.585938 275.644531 L 134.320312 309.140625 L 134.050781 316.882812 L 135.386719 317.347656 L 147.332031 321.550781 L 187.5 335.632812 L 227.667969 321.550781 L 239.613281 317.347656 L 240.949219 316.882812 L 240.679688 309.941406 L 239.414062 275.511719 L 264.101562 283.71875 L 299.667969 295.460938 L 313.480469 300.066406 C 316.328125 301.011719 318.941406 302.398438 321.324219 304.230469 C 323.703125 306.058594 325.714844 308.230469 327.359375 310.742188 Z M 327.359375 310.742188 " fill-opacity="1" fill-rule="nonzero"/><path fill="#cbcfd1" d="M 238.078125 358.183594 C 237.277344 361.386719 236.410156 364.457031 235.34375 367.460938 C 230.738281 368.660156 226.132812 369.730469 221.398438 370.53125 C 210.195312 372.621094 198.894531 373.664062 187.5 373.664062 C 176.105469 373.664062 164.804688 372.621094 153.601562 370.53125 C 148.867188 369.730469 144.261719 368.660156 139.65625 367.460938 C 138.589844 364.457031 137.722656 361.386719 136.921875 358.183594 C 131.117188 333.964844 133.453125 322.21875 135.386719 317.347656 C 135.746094 316.332031 136.257812 315.398438 136.921875 314.546875 L 144.328125 312.878906 L 146.996094 313.945312 C 154.871094 317.214844 177.757812 326.222656 187.5 326.222656 C 197.242188 326.222656 220.128906 317.214844 228.003906 313.945312 L 230.671875 312.878906 L 238.078125 314.546875 C 238.742188 315.398438 239.253906 316.332031 239.613281 317.347656 C 241.546875 322.21875 243.882812 333.964844 238.078125 358.183594 Z M 238.078125 358.183594 " fill-opacity="1" fill-rule="nonzero"/><path fill="#464646" d="M 147.332031 321.550781 C 148.398438 338.007812 150.492188 354.335938 153.601562 370.53125 C 148.867188 369.730469 144.261719 368.660156 139.65625 367.460938 C 130.957031 365.136719 122.460938 362.222656 114.167969 358.71875 L 108.230469 352.648438 L 118.105469 326.957031 L 106.292969 316.882812 L 97.488281 309.410156 L 100.488281 303.601562 L 110.832031 283.785156 L 116.835938 281.851562 L 116.835938 281.785156 L 135.585938 275.644531 L 147.53125 271.707031 C 146.542969 284.191406 146.277344 296.691406 146.730469 309.207031 C 146.796875 310.742188 146.863281 312.34375 146.996094 313.945312 C 147.0625 316.480469 147.199219 319.015625 147.332031 321.550781 Z M 147.332031 321.550781 " fill-opacity="1" fill-rule="nonzero"/><path fill="#464646" d="M 268.707031 316.882812 L 256.894531 326.957031 L 266.769531 352.648438 L 260.832031 358.71875 C 252.539062 362.222656 244.042969 365.136719 235.34375 367.460938 C 230.738281 368.660156 226.132812 369.730469 221.398438 370.53125 C 224.507812 354.335938 226.601562 338.007812 227.667969 321.550781 C 227.800781 319.015625 227.9375 316.480469 228.003906 313.945312 C 228.136719 312.542969 228.203125 311.210938 228.203125 309.875 C 228.710938 297.09375 228.464844 284.328125 227.46875 271.574219 L 239.414062 275.511719 L 264.101562 283.71875 L 277.511719 309.410156 Z M 268.707031 316.882812 " fill-opacity="1" fill-rule="nonzero"/><path fill="#ea7760" d="M 287.1875 173.488281 C 287.1875 172.621094 287.144531 171.761719 287.058594 170.898438 C 286.972656 170.039062 286.847656 169.183594 286.679688 168.335938 C 286.507812 167.488281 286.300781 166.648438 286.050781 165.820312 C 285.800781 164.992188 285.511719 164.179688 285.183594 163.378906 C 284.851562 162.578125 284.484375 161.796875 284.082031 161.03125 C 283.675781 160.269531 283.234375 159.527344 282.757812 158.804688 C 282.28125 158.082031 281.769531 157.386719 281.226562 156.714844 C 280.679688 156.042969 280.105469 155.398438 279.496094 154.78125 C 278.890625 154.167969 278.253906 153.582031 277.589844 153.027344 C 276.925781 152.476562 276.234375 151.953125 275.519531 151.46875 C 274.804688 150.980469 274.070312 150.53125 273.308594 150.113281 C 272.550781 149.699219 271.773438 149.320312 270.980469 148.980469 C 270.183594 148.640625 269.375 148.339844 268.550781 148.078125 C 267.722656 147.820312 266.890625 147.597656 266.042969 147.417969 C 265.195312 147.238281 264.34375 147.101562 263.484375 147.003906 C 262.625 146.90625 261.761719 146.851562 260.898438 146.835938 L 260.898438 146.796875 L 247.554688 146.796875 L 247.554688 200.179688 L 260.898438 200.179688 L 260.898438 200.136719 C 261.761719 200.125 262.625 200.070312 263.484375 199.972656 C 264.34375 199.875 265.195312 199.738281 266.042969 199.554688 C 266.890625 199.375 267.722656 199.15625 268.550781 198.894531 C 269.375 198.632812 270.183594 198.332031 270.980469 197.992188 C 271.773438 197.652344 272.550781 197.277344 273.308594 196.859375 C 274.070312 196.445312 274.804688 195.996094 275.519531 195.507812 C 276.234375 195.019531 276.925781 194.5 277.589844 193.945312 C 278.253906 193.390625 278.890625 192.808594 279.496094 192.191406 C 280.105469 191.574219 280.679688 190.933594 281.226562 190.261719 C 281.769531 189.589844 282.28125 188.890625 282.757812 188.171875 C 283.234375 187.449219 283.675781 186.707031 284.082031 185.941406 C 284.484375 185.179688 284.851562 184.394531 285.183594 183.597656 C 285.511719 182.796875 285.800781 181.980469 286.050781 181.152344 C 286.300781 180.328125 286.507812 179.488281 286.679688 178.640625 C 286.847656 177.792969 286.972656 176.9375 287.058594 176.074219 C 287.144531 175.214844 287.1875 174.351562 287.1875 173.488281 Z M 287.1875 173.488281 " fill-opacity="1" fill-rule="nonzero"/><path fill="#ea7760" d="M 114.101562 146.796875 C 113.226562 146.796875 112.355469 146.839844 111.484375 146.925781 C 110.617188 147.011719 109.75 147.140625 108.894531 147.308594 C 108.035156 147.480469 107.191406 147.691406 106.355469 147.945312 C 105.515625 148.199219 104.695312 148.496094 103.886719 148.828125 C 103.078125 149.164062 102.289062 149.535156 101.519531 149.949219 C 100.75 150.359375 100 150.808594 99.273438 151.296875 C 98.546875 151.78125 97.84375 152.300781 97.167969 152.855469 C 96.492188 153.410156 95.847656 153.996094 95.226562 154.613281 C 94.609375 155.234375 94.023438 155.878906 93.46875 156.554688 C 92.914062 157.230469 92.394531 157.933594 91.910156 158.660156 C 91.421875 159.386719 90.976562 160.136719 90.5625 160.90625 C 90.152344 161.675781 89.777344 162.464844 89.441406 163.273438 C 89.109375 164.082031 88.8125 164.902344 88.558594 165.738281 C 88.304688 166.578125 88.09375 167.421875 87.925781 168.28125 C 87.753906 169.136719 87.625 170 87.539062 170.871094 C 87.453125 171.742188 87.410156 172.613281 87.410156 173.488281 C 87.410156 174.363281 87.453125 175.234375 87.539062 176.105469 C 87.625 176.972656 87.753906 177.835938 87.925781 178.695312 C 88.09375 179.550781 88.304688 180.398438 88.558594 181.234375 C 88.8125 182.070312 89.109375 182.894531 89.441406 183.703125 C 89.777344 184.507812 90.152344 185.296875 90.5625 186.070312 C 90.976562 186.839844 91.421875 187.589844 91.910156 188.316406 C 92.394531 189.042969 92.914062 189.742188 93.46875 190.417969 C 94.023438 191.09375 94.609375 191.742188 95.226562 192.359375 C 95.847656 192.980469 96.492188 193.566406 97.167969 194.121094 C 97.84375 194.675781 98.546875 195.195312 99.273438 195.679688 C 100 196.164062 100.75 196.613281 101.519531 197.027344 C 102.289062 197.4375 103.078125 197.8125 103.886719 198.144531 C 104.695312 198.480469 105.515625 198.773438 106.355469 199.027344 C 107.191406 199.28125 108.035156 199.496094 108.894531 199.664062 C 109.75 199.835938 110.617188 199.964844 111.484375 200.050781 C 112.355469 200.136719 113.226562 200.179688 114.101562 200.179688 L 127.445312 200.179688 L 127.445312 146.796875 Z M 114.101562 146.796875 " fill-opacity="1" fill-rule="nonzero"/><path fill="#ea7760" d="M 214.191406 262.660156 L 214.191406 248.507812 L 160.808594 248.507812 L 160.808594 262.660156 C 165.117188 264.066406 169.511719 265.125 173.988281 265.835938 C 178.464844 266.546875 182.96875 266.902344 187.5 266.902344 C 192.03125 266.902344 196.535156 266.546875 201.011719 265.835938 C 205.488281 265.125 209.882812 264.066406 214.191406 262.660156 Z M 214.191406 262.660156 " fill-opacity="1" fill-rule="nonzero"/><path fill="#ffab91" d="M 114.101562 146.796875 C 114.101562 106.261719 120.773438 73.398438 187.5 73.398438 C 254.226562 73.398438 260.898438 106.261719 260.898438 146.796875 L 260.898438 180.160156 C 260.898438 181.363281 260.867188 182.5625 260.808594 183.761719 C 260.75 184.960938 260.664062 186.160156 260.546875 187.355469 C 260.425781 188.550781 260.28125 189.742188 260.105469 190.929688 C 259.929688 192.117188 259.722656 193.300781 259.488281 194.480469 C 259.253906 195.65625 258.992188 196.828125 258.699219 197.996094 C 258.40625 199.160156 258.085938 200.316406 257.738281 201.464844 C 257.390625 202.617188 257.011719 203.757812 256.609375 204.886719 C 256.203125 206.019531 255.769531 207.140625 255.3125 208.25 C 254.851562 209.359375 254.363281 210.457031 253.851562 211.542969 C 253.339844 212.628906 252.796875 213.699219 252.230469 214.761719 C 251.664062 215.820312 251.074219 216.863281 250.457031 217.894531 C 249.839844 218.925781 249.195312 219.9375 248.527344 220.9375 C 247.859375 221.9375 247.167969 222.917969 246.453125 223.882812 C 245.738281 224.847656 245 225.796875 244.238281 226.722656 C 243.476562 227.652344 242.691406 228.5625 241.882812 229.453125 C 241.078125 230.339844 240.25 231.210938 239.402344 232.0625 C 238.550781 232.910156 237.679688 233.738281 236.792969 234.542969 C 235.902344 235.351562 234.992188 236.136719 234.0625 236.898438 C 233.136719 237.660156 232.1875 238.398438 231.222656 239.113281 C 230.257812 239.828125 229.277344 240.519531 228.277344 241.1875 C 227.277344 241.855469 226.265625 242.5 225.234375 243.117188 C 224.203125 243.734375 223.160156 244.324219 222.101562 244.890625 C 221.039062 245.457031 219.96875 245.996094 218.882812 246.511719 C 217.796875 247.023438 216.699219 247.511719 215.589844 247.972656 C 214.480469 248.429688 213.359375 248.863281 212.226562 249.269531 C 211.097656 249.671875 209.957031 250.050781 208.804688 250.398438 C 207.65625 250.746094 206.5 251.066406 205.335938 251.359375 C 204.167969 251.652344 202.996094 251.914062 201.820312 252.148438 C 200.640625 252.382812 199.457031 252.589844 198.269531 252.765625 C 197.082031 252.941406 195.890625 253.085938 194.695312 253.207031 C 193.5 253.324219 192.300781 253.410156 191.101562 253.46875 C 189.902344 253.527344 188.703125 253.558594 187.5 253.558594 C 186.296875 253.558594 185.097656 253.527344 183.898438 253.46875 C 182.699219 253.410156 181.5 253.324219 180.304688 253.207031 C 179.109375 253.085938 177.917969 252.941406 176.730469 252.765625 C 175.542969 252.589844 174.359375 252.382812 173.179688 252.148438 C 172.003906 251.914062 170.832031 251.652344 169.664062 251.359375 C 168.5 251.066406 167.34375 250.746094 166.195312 250.398438 C 165.042969 250.050781 163.902344 249.671875 162.773438 249.269531 C 161.640625 248.863281 160.519531 248.429688 159.410156 247.972656 C 158.300781 247.511719 157.203125 247.023438 156.117188 246.511719 C 155.03125 245.996094 153.960938 245.457031 152.898438 244.890625 C 151.839844 244.324219 150.796875 243.734375 149.765625 243.117188 C 148.734375 242.5 147.71875 241.855469 146.722656 241.1875 C 145.722656 240.519531 144.742188 239.828125 143.777344 239.113281 C 142.8125 238.398438 141.863281 237.660156 140.9375 236.898438 C 140.007812 236.136719 139.097656 235.351562 138.207031 234.542969 C 137.320312 233.738281 136.449219 232.910156 135.597656 232.0625 C 134.75 231.210938 133.921875 230.339844 133.113281 229.453125 C 132.308594 228.5625 131.523438 227.652344 130.761719 226.722656 C 130 225.796875 129.261719 224.847656 128.546875 223.882812 C 127.832031 222.917969 127.136719 221.9375 126.472656 220.9375 C 125.804688 219.9375 125.160156 218.925781 124.542969 217.894531 C 123.925781 216.863281 123.335938 215.820312 122.769531 214.761719 C 122.203125 213.699219 121.660156 212.628906 121.148438 211.542969 C 120.636719 210.457031 120.148438 209.359375 119.6875 208.25 C 119.230469 207.140625 118.796875 206.019531 118.390625 204.886719 C 117.988281 203.757812 117.609375 202.617188 117.261719 201.464844 C 116.914062 200.316406 116.59375 199.160156 116.300781 197.996094 C 116.007812 196.828125 115.746094 195.65625 115.511719 194.480469 C 115.277344 193.300781 115.070312 192.117188 114.894531 190.929688 C 114.71875 189.742188 114.574219 188.550781 114.453125 187.355469 C 114.335938 186.160156 114.25 184.960938 114.191406 183.761719 C 114.132812 182.5625 114.101562 181.363281 114.101562 180.160156 Z M 114.101562 146.796875 " fill-opacity="1" fill-rule="nonzero"/><path fill="#b27232" d="M 260.898438 142.460938 C 260.894531 142.40625 260.871094 142.363281 260.832031 142.328125 L 260.832031 142.191406 C 260.230469 139.390625 255.027344 116.769531 247.554688 111.898438 C 231.941406 101.691406 237.277344 111.367188 210.519531 100.089844 C 208.585938 99.289062 206.917969 98.421875 205.382812 97.621094 C 202.433594 101.140625 199.128906 104.285156 195.46875 107.054688 C 191.808594 109.824219 187.882812 112.152344 183.695312 114.035156 C 159.007812 125.84375 134.386719 117.238281 120.441406 131.183594 C 118.183594 133.351562 116.117188 135.6875 114.234375 138.191406 C 111.9375 141.078125 109.957031 144.167969 108.296875 147.464844 C 104.601562 154.875 102.199219 162.679688 101.089844 170.886719 C 99.621094 179.757812 103.757812 189.570312 106.429688 199.042969 C 107.753906 203.121094 108.484375 207.304688 108.628906 211.589844 C 108.628906 224.464844 101.089844 236.277344 103.292969 251.289062 C 105.160156 264.234375 114.96875 266.769531 116.835938 281.785156 L 116.835938 281.851562 C 117.230469 284.53125 117.34375 287.222656 117.171875 289.925781 C 117.058594 293.269531 116.539062 296.554688 115.613281 299.773438 C 114.6875 302.988281 113.382812 306.046875 111.699219 308.941406 C 110.105469 311.730469 108.304688 314.375 106.292969 316.882812 C 101.339844 322.421875 97.113281 328.472656 93.617188 335.03125 C 91.988281 338.578125 90.722656 342.246094 89.8125 346.039062 C 86.066406 343.824219 82.441406 341.421875 78.9375 338.835938 C 79.957031 329.808594 82.335938 321.15625 86.078125 312.878906 C 84.511719 312.019531 83.082031 310.976562 81.785156 309.746094 C 80.492188 308.515625 79.375 307.136719 78.441406 305.617188 C 77.503906 304.097656 76.777344 302.480469 76.265625 300.769531 C 75.75 299.0625 75.460938 297.3125 75.398438 295.53125 C 75.332031 294.730469 75.332031 293.929688 75.398438 293.128906 C 75.570312 289.257812 76.292969 285.496094 77.5625 281.835938 C 78.835938 278.179688 80.605469 274.78125 82.875 271.640625 C 81.234375 270.183594 79.757812 268.574219 78.449219 266.8125 C 77.136719 265.050781 76.019531 263.171875 75.097656 261.179688 C 74.171875 259.1875 73.460938 257.125 72.960938 254.988281 C 72.460938 252.847656 72.183594 250.683594 72.128906 248.488281 C 72.128906 234.140625 79.671875 224.464844 81.804688 207.316406 C 83.941406 190.167969 83.742188 131.785156 93.617188 94.75 C 102.15625 62.589844 128.980469 40.636719 153.671875 40.035156 C 182.296875 39.300781 199.109375 45.773438 207.449219 54.914062 C 209.054688 56.605469 210.394531 58.480469 211.472656 60.542969 C 212.546875 62.605469 213.320312 64.78125 213.789062 67.058594 C 227.734375 69.996094 251.558594 76.535156 256.09375 87.746094 C 262.5 103.824219 260.898438 142.460938 260.898438 142.460938 Z M 260.898438 142.460938 " fill-opacity="1" fill-rule="nonzero"/></svg>