<svg xmlns="http://www.w3.org/2000/svg" xmlns:xlink="http://www.w3.org/1999/xlink" width="500" zoomAndPan="magnify" viewBox="0 0 375 374.999991" height="500" preserveAspectRatio="xMidYMid meet" version="1.0"><path fill="#ff89aa" d="M 374.332031 186.832031 C 374.332031 189.890625 374.257812 192.945312 374.109375 196 C 373.957031 199.054688 373.734375 202.101562 373.433594 205.144531 C 373.132812 208.1875 372.757812 211.222656 372.308594 214.246094 C 371.863281 217.269531 371.339844 220.28125 370.742188 223.28125 C 370.144531 226.28125 369.476562 229.261719 368.734375 232.230469 C 367.992188 235.195312 367.175781 238.140625 366.289062 241.066406 C 365.398438 243.992188 364.441406 246.894531 363.410156 249.773438 C 362.382812 252.652344 361.28125 255.503906 360.109375 258.332031 C 358.941406 261.15625 357.703125 263.949219 356.394531 266.714844 C 355.085938 269.476562 353.714844 272.207031 352.273438 274.90625 C 350.832031 277.601562 349.324219 280.261719 347.75 282.882812 C 346.179688 285.507812 344.542969 288.089844 342.84375 290.632812 C 341.148438 293.171875 339.386719 295.671875 337.566406 298.128906 C 335.742188 300.585938 333.863281 302.996094 331.921875 305.359375 C 329.984375 307.722656 327.988281 310.035156 325.933594 312.300781 C 323.878906 314.566406 321.773438 316.78125 319.609375 318.945312 C 317.449219 321.105469 315.234375 323.214844 312.96875 325.265625 C 310.703125 327.320312 308.390625 329.316406 306.027344 331.257812 C 303.660156 333.195312 301.253906 335.078125 298.796875 336.898438 C 296.339844 338.71875 293.839844 340.480469 291.296875 342.179688 C 288.757812 343.878906 286.175781 345.511719 283.550781 347.085938 C 280.929688 348.65625 278.269531 350.164062 275.574219 351.605469 C 272.875 353.046875 270.144531 354.421875 267.382812 355.726562 C 264.617188 357.035156 261.824219 358.273438 258.996094 359.445312 C 256.171875 360.613281 253.320312 361.714844 250.441406 362.742188 C 247.5625 363.773438 244.660156 364.734375 241.734375 365.621094 C 238.808594 366.507812 235.863281 367.324219 232.898438 368.066406 C 229.929688 368.808594 226.949219 369.480469 223.949219 370.074219 C 220.949219 370.671875 217.9375 371.195312 214.914062 371.644531 C 211.890625 372.09375 208.855469 372.464844 205.8125 372.765625 C 202.769531 373.066406 199.722656 373.289062 196.667969 373.441406 C 193.613281 373.589844 190.558594 373.664062 187.5 373.664062 C 184.441406 373.664062 181.386719 373.589844 178.332031 373.441406 C 175.277344 373.289062 172.230469 373.066406 169.1875 372.765625 C 166.144531 372.464844 163.109375 372.09375 160.085938 371.644531 C 157.0625 371.195312 154.050781 370.671875 151.050781 370.074219 C 148.050781 369.480469 145.070312 368.808594 142.101562 368.066406 C 139.136719 367.324219 136.191406 366.507812 133.265625 365.621094 C 130.339844 364.734375 127.4375 363.773438 124.558594 362.742188 C 121.679688 361.714844 118.828125 360.613281 116.003906 359.445312 C 113.175781 358.273438 110.382812 357.035156 107.617188 355.726562 C 104.855469 354.421875 102.125 353.046875 99.425781 351.605469 C 96.730469 350.164062 94.070312 348.65625 91.449219 347.085938 C 88.824219 345.511719 86.242188 343.878906 83.703125 342.179688 C 81.160156 340.480469 78.660156 338.71875 76.203125 336.898438 C 73.746094 335.078125 71.339844 333.195312 68.972656 331.257812 C 66.609375 329.316406 64.296875 327.320312 62.03125 325.265625 C 59.765625 323.214844 57.550781 321.105469 55.390625 318.945312 C 53.226562 316.78125 51.121094 314.566406 49.066406 312.300781 C 47.011719 310.035156 45.015625 307.722656 43.078125 305.359375 C 41.136719 302.996094 39.257812 300.585938 37.433594 298.128906 C 35.613281 295.671875 33.851562 293.171875 32.152344 290.632812 C 30.457031 288.089844 28.820312 285.507812 27.25 282.882812 C 25.675781 280.261719 24.167969 277.601562 22.726562 274.90625 C 21.285156 272.207031 19.914062 269.476562 18.605469 266.714844 C 17.296875 263.949219 16.058594 261.15625 14.890625 258.332031 C 13.71875 255.503906 12.617188 252.652344 11.589844 249.773438 C 10.558594 246.894531 9.601562 243.992188 8.710938 241.066406 C 7.824219 238.140625 7.007812 235.195312 6.265625 232.230469 C 5.523438 229.261719 4.855469 226.28125 4.257812 223.28125 C 3.660156 220.28125 3.136719 217.269531 2.6875 214.246094 C 2.242188 211.222656 1.867188 208.1875 1.566406 205.144531 C 1.265625 202.101562 1.042969 199.054688 0.890625 196 C 0.742188 192.945312 0.667969 189.890625 0.667969 186.832031 C 0.667969 183.773438 0.742188 180.71875 0.890625 177.664062 C 1.042969 174.609375 1.265625 171.5625 1.566406 168.519531 C 1.867188 165.476562 2.242188 162.441406 2.6875 159.417969 C 3.136719 156.394531 3.660156 153.382812 4.257812 150.382812 C 4.855469 147.382812 5.523438 144.402344 6.265625 141.4375 C 7.007812 138.46875 7.824219 135.523438 8.710938 132.597656 C 9.601562 129.671875 10.558594 126.769531 11.589844 123.890625 C 12.617188 121.011719 13.71875 118.160156 14.890625 115.335938 C 16.058594 112.511719 17.296875 109.714844 18.605469 106.953125 C 19.914062 104.1875 21.285156 101.457031 22.726562 98.761719 C 24.167969 96.0625 25.675781 93.402344 27.25 90.78125 C 28.820312 88.160156 30.457031 85.578125 32.152344 83.035156 C 33.851562 80.492188 35.613281 77.992188 37.433594 75.535156 C 39.257812 73.082031 41.136719 70.671875 43.078125 68.308594 C 45.015625 65.945312 47.011719 63.628906 49.066406 61.363281 C 51.121094 59.097656 53.226562 56.882812 55.390625 54.722656 C 57.550781 52.558594 59.765625 50.453125 62.03125 48.398438 C 64.296875 46.34375 66.609375 44.347656 68.972656 42.410156 C 71.339844 40.46875 73.746094 38.589844 76.203125 36.765625 C 78.660156 34.945312 81.160156 33.1875 83.703125 31.488281 C 86.242188 29.789062 88.824219 28.152344 91.449219 26.582031 C 94.070312 25.007812 96.730469 23.503906 99.425781 22.0625 C 102.125 20.621094 104.855469 19.246094 107.617188 17.9375 C 110.382812 16.628906 113.175781 15.390625 116.003906 14.222656 C 118.828125 13.050781 121.679688 11.953125 124.558594 10.921875 C 127.4375 9.890625 130.339844 8.933594 133.265625 8.046875 C 136.191406 7.15625 139.136719 6.34375 142.101562 5.597656 C 145.070312 4.855469 148.050781 4.1875 151.050781 3.589844 C 154.050781 2.992188 157.0625 2.472656 160.085938 2.023438 C 163.109375 1.574219 166.144531 1.199219 169.1875 0.898438 C 172.230469 0.601562 175.277344 0.375 178.332031 0.226562 C 181.386719 0.0742188 184.441406 0 187.5 0 C 190.558594 0 193.613281 0.0742188 196.667969 0.226562 C 199.722656 0.375 202.769531 0.601562 205.8125 0.898438 C 208.855469 1.199219 211.890625 1.574219 214.914062 2.023438 C 217.9375 2.472656 220.949219 2.992188 223.949219 3.589844 C 226.949219 4.1875 229.929688 4.855469 232.898438 5.597656 C 235.863281 6.34375 238.808594 7.15625 241.734375 8.046875 C 244.660156 8.933594 247.5625 9.890625 250.441406 10.921875 C 253.320312 11.953125 256.171875 13.050781 258.996094 14.222656 C 261.824219 15.390625 264.617188 16.628906 267.382812 17.9375 C 270.144531 19.246094 272.875 20.621094 275.574219 22.0625 C 278.269531 23.503906 280.929688 25.007812 283.550781 26.582031 C 286.175781 28.152344 288.757812 29.789062 291.296875 31.488281 C 293.839844 33.1875 296.339844 34.945312 298.796875 36.765625 C 301.253906 38.589844 303.660156 40.46875 306.027344 42.410156 C 308.390625 44.347656 310.703125 46.34375 312.96875 48.398438 C 315.234375 50.453125 317.449219 52.558594 319.609375 54.722656 C 321.773438 56.882812 323.878906 59.097656 325.933594 61.363281 C 327.988281 63.628906 329.984375 65.945312 331.921875 68.308594 C 333.863281 70.671875 335.742188 73.082031 337.566406 75.535156 C 339.386719 77.992188 341.148438 80.492188 342.84375 83.035156 C 344.542969 85.578125 346.179688 88.160156 347.75 90.78125 C 349.324219 93.402344 350.832031 96.0625 352.273438 98.761719 C 353.714844 101.457031 355.085938 104.1875 356.394531 106.953125 C 357.703125 109.714844 358.941406 112.511719 360.109375 115.335938 C 361.28125 118.160156 362.382812 121.011719 363.410156 123.890625 C 364.441406 126.769531 365.398438 129.671875 366.289062 132.597656 C 367.175781 135.523438 367.992188 138.46875 368.734375 141.4375 C 369.476562 144.402344 370.144531 147.382812 370.742188 150.382812 C 371.339844 153.382812 371.863281 156.394531 372.308594 159.417969 C 372.757812 162.441406 373.132812 165.476562 373.433594 168.519531 C 373.734375 171.5625 373.957031 174.609375 374.109375 177.664062 C 374.257812 180.71875 374.332031 183.773438 374.332031 186.832031 Z M 374.332031 186.832031 " fill-opacity="1" fill-rule="nonzero"/><path fill="#212121" d="M 283.0625 272.382812 C 279.488281 263.804688 283.0625 258.800781 282.347656 245.933594 C 281.632812 233.0625 269.476562 230.917969 266.617188 215.90625 C 263.757812 200.890625 268.273438 195.886719 271.621094 183.734375 C 272.238281 179.097656 272.363281 174.445312 271.996094 169.785156 C 271.625 165.121094 270.769531 160.546875 269.429688 156.066406 C 269.4375 155.996094 269.472656 155.925781 269.476562 155.851562 C 269.445312 147.402344 270.800781 139.179688 273.550781 131.1875 C 276.910156 123.324219 272.695312 112.601562 272.335938 106.523438 C 271.980469 100.445312 275.910156 88.292969 271.265625 79.714844 C 266.617188 71.132812 260.898438 73.277344 254.464844 68.988281 C 248.03125 64.699219 250.175781 55.761719 236.949219 51.832031 C 223.722656 47.898438 225.511719 50.402344 216.214844 49.328125 C 206.921875 48.257812 207.28125 41.824219 195.125 40.035156 C 182.972656 38.25 179.398438 44.683594 170.460938 45.039062 C 161.523438 45.398438 156.164062 39.679688 147.941406 40.035156 C 139.71875 40.394531 137.933594 45.039062 131.855469 48.613281 C 125.777344 52.1875 121.488281 48.257812 115.054688 57.90625 C 108.621094 67.558594 110.40625 74.710938 108.621094 83.289062 C 106.832031 91.867188 100.398438 92.9375 98.589844 104.734375 C 96.78125 116.53125 101.828125 118.675781 102.1875 131.1875 C 102.542969 143.699219 98.253906 140.480469 98.613281 151.207031 C 98.96875 161.929688 100.757812 161.214844 105.761719 168.722656 C 110.765625 176.226562 106.832031 176.226562 109.335938 188.738281 C 109.667969 192.003906 110.847656 194.933594 112.871094 197.519531 C 112.664062 204.691406 100.75 216.703125 100.039062 225.914062 C 99.324219 235.210938 102.898438 240.929688 102.183594 249.507812 C 101.46875 258.085938 95.039062 260.945312 94.082031 270.953125 C 93.128906 280.964844 93.605469 290.257812 100.042969 296.691406 C 106.476562 303.125 142.9375 315.996094 160.808594 321 C 178.683594 326.003906 200.128906 315.996094 221.578125 310.277344 C 243.023438 304.558594 274.480469 309.558594 284.492188 295.976562 C 294.5 282.394531 286.636719 280.964844 283.0625 272.382812 Z M 283.0625 272.382812 " fill-opacity="1" fill-rule="nonzero"/><path fill="#ba6e5a" d="M 327.359375 310.742188 C 318.171875 321.09375 307.96875 330.3125 296.746094 338.40625 C 285.523438 346.5 273.550781 353.269531 260.832031 358.71875 C 252.539062 362.222656 244.042969 365.136719 235.34375 367.460938 C 230.738281 368.660156 226.132812 369.730469 221.398438 370.53125 C 210.195312 372.621094 198.894531 373.664062 187.5 373.664062 C 176.105469 373.664062 164.804688 372.621094 153.601562 370.53125 C 148.867188 369.730469 144.261719 368.660156 139.65625 367.460938 C 130.957031 365.136719 122.460938 362.222656 114.167969 358.71875 C 101.449219 353.269531 89.476562 346.5 78.253906 338.40625 C 67.03125 330.3125 56.828125 321.09375 47.640625 310.742188 C 49.285156 308.230469 51.296875 306.058594 53.675781 304.230469 C 56.058594 302.398438 58.671875 301.011719 61.519531 300.066406 L 95.285156 288.921875 L 110.832031 283.785156 L 135.585938 275.644531 L 147.53125 271.707031 L 160.609375 267.371094 L 160.808594 248.488281 L 214.191406 248.488281 L 214.191406 267.171875 L 227.46875 271.574219 L 239.414062 275.511719 L 264.101562 283.71875 L 287.457031 291.460938 L 313.480469 300.066406 C 316.328125 301.011719 318.941406 302.398438 321.324219 304.230469 C 323.703125 306.058594 325.714844 308.230469 327.359375 310.742188 Z M 327.359375 310.742188 " fill-opacity="1" fill-rule="nonzero"/><path fill="#1e243a" d="M 327.359375 310.742188 C 318.171875 321.09375 307.96875 330.3125 296.746094 338.40625 C 285.523438 346.5 273.550781 353.269531 260.832031 358.71875 C 252.539062 362.222656 244.042969 365.136719 235.34375 367.460938 C 230.738281 368.660156 226.132812 369.730469 221.398438 370.53125 C 210.195312 372.621094 198.894531 373.664062 187.5 373.664062 C 176.105469 373.664062 164.804688 372.621094 153.601562 370.53125 C 148.867188 369.730469 144.261719 368.660156 139.65625 367.460938 C 130.957031 365.136719 122.460938 362.222656 114.167969 358.71875 C 101.449219 353.269531 89.476562 346.5 78.253906 338.40625 C 67.03125 330.3125 56.828125 321.09375 47.640625 310.742188 C 49.285156 308.230469 51.296875 306.058594 53.675781 304.230469 C 56.058594 302.398438 58.671875 301.011719 61.519531 300.066406 L 95.285156 288.921875 L 110.832031 283.785156 L 135.585938 275.644531 L 134.253906 312.410156 L 134.050781 316.882812 L 135.386719 317.347656 L 147.332031 321.550781 L 187.5 335.632812 L 227.667969 321.550781 L 239.613281 317.347656 L 240.949219 316.882812 L 240.613281 307.40625 L 239.414062 275.511719 L 264.101562 283.71875 L 287.457031 291.460938 L 313.480469 300.066406 C 316.328125 301.011719 318.941406 302.398438 321.324219 304.230469 C 323.703125 306.058594 325.714844 308.230469 327.359375 310.742188 Z M 327.359375 310.742188 " fill-opacity="1" fill-rule="nonzero"/><path fill="#cbcfd1" d="M 238.078125 358.183594 C 237.277344 361.386719 236.410156 364.457031 235.34375 367.460938 C 230.738281 368.660156 226.132812 369.730469 221.398438 370.53125 C 210.195312 372.621094 198.894531 373.664062 187.5 373.664062 C 176.105469 373.664062 164.804688 372.621094 153.601562 370.53125 C 148.867188 369.730469 144.261719 368.660156 139.65625 367.460938 C 138.589844 364.457031 137.722656 361.386719 136.921875 358.183594 C 131.117188 333.964844 133.453125 322.21875 135.386719 317.347656 C 135.746094 316.332031 136.257812 315.398438 136.921875 314.546875 L 138.988281 314.078125 L 144.328125 312.878906 L 146.996094 313.945312 C 151.402344 315.8125 160.609375 319.484375 169.550781 322.285156 C 175.359375 324.386719 181.34375 325.699219 187.5 326.222656 C 197.242188 326.222656 220.128906 317.214844 228.003906 313.945312 L 230.671875 312.878906 L 238.078125 314.546875 C 238.742188 315.398438 239.253906 316.332031 239.613281 317.347656 C 241.546875 322.21875 243.882812 333.964844 238.078125 358.183594 Z M 238.078125 358.183594 " fill-opacity="1" fill-rule="nonzero"/><path fill="#343d56" d="M 147.332031 321.550781 C 148.398438 338.007812 150.492188 354.335938 153.601562 370.53125 C 148.867188 369.730469 144.261719 368.660156 139.65625 367.460938 C 130.957031 365.136719 122.460938 362.222656 114.167969 358.71875 L 108.230469 352.648438 L 118.105469 326.957031 L 97.488281 309.410156 L 103.023438 298.867188 L 110.832031 283.785156 L 135.585938 275.644531 L 147.53125 271.707031 C 146.4375 285.777344 146.257812 299.855469 146.996094 313.945312 C 146.996094 314.878906 147.0625 315.878906 147.128906 316.816406 C 147.199219 318.417969 147.265625 320.019531 147.332031 321.550781 Z M 147.332031 321.550781 " fill-opacity="1" fill-rule="nonzero"/><path fill="#343d56" d="M 256.894531 326.957031 L 266.769531 352.648438 L 260.832031 358.71875 C 252.539062 362.222656 244.042969 365.136719 235.34375 367.460938 C 230.738281 368.660156 226.132812 369.730469 221.398438 370.53125 C 224.507812 354.335938 226.601562 338.007812 227.667969 321.550781 C 227.800781 319.015625 227.9375 316.480469 228.003906 313.945312 C 228.136719 312.210938 228.203125 310.542969 228.269531 308.875 C 228.691406 296.425781 228.421875 283.992188 227.46875 271.574219 L 239.414062 275.511719 L 264.101562 283.71875 L 274.109375 302.9375 L 277.511719 309.410156 Z M 256.894531 326.957031 " fill-opacity="1" fill-rule="nonzero"/><path fill="#8e4a3c" d="M 280.515625 173.488281 C 280.515625 172.621094 280.472656 171.761719 280.386719 170.898438 C 280.300781 170.039062 280.171875 169.183594 280.003906 168.335938 C 279.835938 167.488281 279.628906 166.648438 279.378906 165.820312 C 279.128906 164.992188 278.839844 164.179688 278.507812 163.378906 C 278.179688 162.578125 277.8125 161.796875 277.410156 161.03125 C 277.003906 160.269531 276.5625 159.527344 276.085938 158.804688 C 275.609375 158.082031 275.097656 157.386719 274.550781 156.714844 C 274.007812 156.042969 273.429688 155.398438 272.824219 154.785156 C 272.214844 154.167969 271.582031 153.582031 270.917969 153.027344 C 270.253906 152.476562 269.5625 151.953125 268.847656 151.46875 C 268.132812 150.980469 267.394531 150.53125 266.636719 150.113281 C 265.878906 149.699219 265.101562 149.320312 264.304688 148.980469 C 263.511719 148.640625 262.699219 148.339844 261.875 148.078125 C 261.050781 147.820312 260.214844 147.597656 259.371094 147.417969 C 258.523438 147.238281 257.671875 147.101562 256.8125 147.003906 C 255.953125 146.90625 255.089844 146.851562 254.226562 146.835938 L 254.226562 146.796875 L 240.878906 146.796875 L 240.878906 200.179688 L 254.226562 200.179688 L 254.226562 200.136719 C 255.089844 200.125 255.953125 200.070312 256.8125 199.972656 C 257.671875 199.875 258.523438 199.738281 259.371094 199.554688 C 260.214844 199.375 261.050781 199.15625 261.875 198.894531 C 262.699219 198.632812 263.511719 198.332031 264.304688 197.992188 C 265.101562 197.652344 265.878906 197.277344 266.636719 196.859375 C 267.394531 196.445312 268.132812 195.996094 268.847656 195.507812 C 269.5625 195.019531 270.253906 194.5 270.917969 193.945312 C 271.582031 193.390625 272.214844 192.808594 272.824219 192.191406 C 273.429688 191.574219 274.007812 190.933594 274.550781 190.261719 C 275.097656 189.589844 275.609375 188.890625 276.085938 188.171875 C 276.5625 187.449219 277.003906 186.707031 277.410156 185.941406 C 277.8125 185.179688 278.179688 184.394531 278.507812 183.597656 C 278.839844 182.796875 279.128906 181.980469 279.378906 181.152344 C 279.628906 180.324219 279.835938 179.488281 280.003906 178.640625 C 280.171875 177.792969 280.300781 176.9375 280.386719 176.074219 C 280.472656 175.214844 280.515625 174.351562 280.515625 173.488281 Z M 280.515625 173.488281 " fill-opacity="1" fill-rule="nonzero"/><path fill="#8e4a3c" d="M 120.773438 146.796875 C 119.898438 146.796875 119.027344 146.839844 118.15625 146.925781 C 117.289062 147.011719 116.425781 147.140625 115.566406 147.308594 C 114.710938 147.480469 113.863281 147.691406 113.027344 147.945312 C 112.191406 148.199219 111.367188 148.496094 110.558594 148.828125 C 109.753906 149.164062 108.964844 149.535156 108.191406 149.949219 C 107.421875 150.359375 106.671875 150.808594 105.945312 151.296875 C 105.21875 151.78125 104.515625 152.300781 103.84375 152.855469 C 103.167969 153.410156 102.519531 153.996094 101.902344 154.613281 C 101.28125 155.234375 100.695312 155.878906 100.140625 156.554688 C 99.585938 157.230469 99.066406 157.933594 98.582031 158.660156 C 98.097656 159.386719 97.648438 160.136719 97.234375 160.90625 C 96.824219 161.675781 96.449219 162.464844 96.117188 163.273438 C 95.78125 164.082031 95.488281 164.902344 95.234375 165.738281 C 94.980469 166.578125 94.765625 167.421875 94.597656 168.28125 C 94.425781 169.136719 94.296875 170 94.210938 170.871094 C 94.125 171.742188 94.082031 172.613281 94.082031 173.488281 C 94.082031 174.363281 94.125 175.234375 94.210938 176.105469 C 94.296875 176.972656 94.425781 177.835938 94.597656 178.695312 C 94.765625 179.550781 94.980469 180.398438 95.234375 181.234375 C 95.488281 182.070312 95.78125 182.894531 96.117188 183.703125 C 96.449219 184.507812 96.824219 185.296875 97.234375 186.070312 C 97.648438 186.839844 98.097656 187.589844 98.582031 188.316406 C 99.066406 189.042969 99.585938 189.742188 100.140625 190.417969 C 100.695312 191.09375 101.28125 191.742188 101.902344 192.359375 C 102.519531 192.980469 103.167969 193.566406 103.84375 194.121094 C 104.515625 194.675781 105.21875 195.195312 105.945312 195.679688 C 106.671875 196.164062 107.421875 196.613281 108.191406 197.027344 C 108.964844 197.4375 109.753906 197.8125 110.558594 198.144531 C 111.367188 198.480469 112.191406 198.773438 113.027344 199.027344 C 113.863281 199.28125 114.710938 199.496094 115.566406 199.664062 C 116.425781 199.835938 117.289062 199.964844 118.15625 200.050781 C 119.027344 200.136719 119.898438 200.179688 120.773438 200.179688 L 134.121094 200.179688 L 134.121094 146.796875 Z M 120.773438 146.796875 " fill-opacity="1" fill-rule="nonzero"/><path fill="#8e4a3c" d="M 214.191406 261.480469 L 214.191406 228.492188 L 160.808594 228.492188 L 160.808594 261.480469 C 165.03125 263.269531 169.386719 264.621094 173.882812 265.535156 C 178.375 266.449219 182.914062 266.902344 187.5 266.902344 C 192.085938 266.902344 196.625 266.449219 201.117188 265.535156 C 205.613281 264.621094 209.96875 263.269531 214.191406 261.480469 Z M 214.191406 261.480469 " fill-opacity="1" fill-rule="nonzero"/><path fill="#ba6e5a" d="M 114.101562 146.796875 C 114.101562 106.261719 120.773438 73.398438 187.5 73.398438 C 254.226562 73.398438 260.898438 106.261719 260.898438 146.796875 L 239.480469 215.34375 C 239.050781 216.71875 238.566406 218.074219 238.03125 219.410156 C 237.492188 220.746094 236.90625 222.058594 236.265625 223.34375 C 235.625 224.632812 234.933594 225.894531 234.191406 227.128906 C 233.453125 228.363281 232.664062 229.566406 231.828125 230.738281 C 230.992188 231.910156 230.109375 233.046875 229.183594 234.148438 C 228.257812 235.25 227.289062 236.3125 226.277344 237.335938 C 225.269531 238.363281 224.21875 239.34375 223.128906 240.285156 C 222.042969 241.230469 220.917969 242.125 219.757812 242.976562 C 218.597656 243.832031 217.40625 244.636719 216.183594 245.394531 C 214.960938 246.152344 213.707031 246.859375 212.429688 247.519531 C 211.148438 248.179688 209.84375 248.785156 208.515625 249.339844 C 207.191406 249.894531 205.84375 250.398438 204.472656 250.847656 C 203.105469 251.296875 201.722656 251.6875 200.324219 252.027344 C 198.925781 252.367188 197.515625 252.648438 196.09375 252.875 C 194.671875 253.105469 193.246094 253.273438 191.8125 253.386719 C 190.375 253.5 188.9375 253.558594 187.5 253.558594 C 186.0625 253.558594 184.625 253.5 183.1875 253.386719 C 181.753906 253.273438 180.328125 253.105469 178.90625 252.875 C 177.484375 252.648438 176.074219 252.367188 174.675781 252.027344 C 173.277344 251.6875 171.894531 251.296875 170.527344 250.847656 C 169.15625 250.398438 167.808594 249.894531 166.484375 249.339844 C 165.15625 248.785156 163.851562 248.179688 162.570312 247.519531 C 161.292969 246.859375 160.039062 246.152344 158.816406 245.394531 C 157.59375 244.636719 156.402344 243.832031 155.242188 242.976562 C 154.082031 242.125 152.957031 241.230469 151.871094 240.285156 C 150.78125 239.34375 149.730469 238.363281 148.722656 237.335938 C 147.710938 236.3125 146.742188 235.25 145.816406 234.148438 C 144.890625 233.046875 144.007812 231.910156 143.171875 230.738281 C 142.335938 229.566406 141.546875 228.363281 140.808594 227.128906 C 140.066406 225.894531 139.375 224.632812 138.734375 223.34375 C 138.09375 222.058594 137.507812 220.746094 136.96875 219.410156 C 136.433594 218.074219 135.949219 216.71875 135.519531 215.34375 Z M 114.101562 146.796875 " fill-opacity="1" fill-rule="nonzero"/><path fill="#212121" d="M 261.300781 134.1875 C 261.097656 134.121094 260.898438 134.050781 260.632812 133.984375 C 252.566406 131.355469 244.292969 129.953125 235.808594 129.78125 C 232.449219 129.753906 229.113281 130.019531 225.800781 130.582031 C 218.375 131.921875 211.058594 133.703125 203.847656 135.921875 C 198.429688 136.75 192.980469 137.195312 187.5 137.253906 C 182.019531 137.195312 176.570312 136.75 171.152344 135.921875 C 160.769531 132.453125 150.117188 130.40625 139.191406 129.78125 C 134.816406 129.835938 130.480469 130.261719 126.179688 131.050781 C 122.171875 131.75 118.234375 132.726562 114.367188 133.984375 C 114.101562 134.050781 113.902344 134.121094 113.699219 134.1875 C 112.03125 134.71875 111.097656 135.121094 111.097656 135.121094 L 111.097656 146.929688 C 111.097656 146.929688 111.433594 147.464844 111.898438 148.332031 C 112.5 149.332031 113.300781 150.734375 114.101562 152.269531 C 114.984375 153.898438 115.785156 155.566406 116.503906 157.273438 C 117.832031 162.875 119.8125 168.234375 122.441406 173.355469 C 122.84375 174.1875 123.332031 174.964844 123.910156 175.691406 C 125.171875 177.523438 126.671875 179.132812 128.410156 180.519531 C 130.148438 181.90625 132.050781 183.007812 134.121094 183.828125 C 134.824219 184.175781 135.558594 184.445312 136.320312 184.628906 C 152.601562 189.300781 165.28125 185.296875 172.953125 175.355469 C 175.707031 171.710938 177.84375 167.738281 179.371094 163.433594 C 180.894531 159.128906 181.738281 154.695312 181.894531 150.132812 C 181.933594 149.792969 182.003906 149.457031 182.101562 149.128906 C 182.203125 148.800781 182.332031 148.484375 182.488281 148.175781 C 182.648438 147.871094 182.832031 147.585938 183.042969 147.3125 C 183.253906 147.042969 183.488281 146.789062 183.742188 146.5625 C 184 146.332031 184.273438 146.128906 184.566406 145.949219 C 184.859375 145.773438 185.167969 145.621094 185.488281 145.5 C 185.808594 145.375 186.140625 145.285156 186.476562 145.222656 C 186.816406 145.160156 187.15625 145.128906 187.5 145.128906 C 187.84375 145.128906 188.183594 145.160156 188.523438 145.222656 C 188.859375 145.285156 189.191406 145.375 189.511719 145.5 C 189.832031 145.621094 190.140625 145.773438 190.433594 145.949219 C 190.726562 146.128906 191 146.332031 191.257812 146.5625 C 191.511719 146.789062 191.746094 147.042969 191.957031 147.3125 C 192.167969 147.585938 192.351562 147.871094 192.511719 148.175781 C 192.667969 148.484375 192.796875 148.800781 192.898438 149.128906 C 192.996094 149.457031 193.066406 149.792969 193.105469 150.132812 C 193.261719 154.695312 194.105469 159.128906 195.628906 163.433594 C 197.15625 167.738281 199.292969 171.710938 202.046875 175.355469 C 209.71875 185.296875 222.398438 189.300781 238.679688 184.628906 C 239.441406 184.445312 240.175781 184.175781 240.878906 183.828125 C 242.949219 183.007812 244.851562 181.90625 246.589844 180.519531 C 248.328125 179.132812 249.828125 177.523438 251.089844 175.691406 C 251.667969 174.964844 252.15625 174.1875 252.558594 173.355469 C 255.1875 168.234375 257.167969 162.875 258.496094 157.273438 C 259.214844 155.566406 260.015625 153.898438 260.898438 152.269531 C 261.699219 150.800781 262.433594 149.464844 262.96875 148.464844 C 263.566406 147.53125 263.902344 146.929688 263.902344 146.929688 L 263.902344 135.121094 C 263.902344 135.121094 262.96875 134.71875 261.300781 134.1875 Z M 164.414062 178.023438 C 163.296875 178.734375 162.140625 179.371094 160.945312 179.929688 C 159.746094 180.488281 158.519531 180.96875 157.257812 181.367188 C 156 181.765625 154.71875 182.082031 153.417969 182.3125 C 152.117188 182.542969 150.804688 182.691406 149.484375 182.753906 C 148.164062 182.8125 146.847656 182.789062 145.53125 182.679688 C 144.214844 182.566406 142.910156 182.371094 141.617188 182.089844 C 140.328125 181.808594 139.058594 181.445312 137.816406 181 C 136.570312 180.554688 135.363281 180.03125 134.1875 179.425781 C 134.140625 179.425781 134.121094 179.402344 134.121094 179.359375 C 132.660156 178.542969 131.3125 177.570312 130.078125 176.445312 C 128.839844 175.320312 127.75 174.070312 126.800781 172.691406 C 125.851562 171.316406 125.070312 169.847656 124.460938 168.292969 C 123.847656 166.738281 123.417969 165.132812 123.175781 163.480469 C 122.988281 162.976562 122.835938 162.464844 122.710938 161.945312 C 121.933594 159.160156 121.863281 156.355469 122.507812 153.535156 C 123.03125 151.03125 124.097656 148.785156 125.710938 146.796875 C 126.199219 146.050781 126.777344 145.382812 127.445312 144.796875 C 130.65625 142.605469 134.136719 141 137.890625 139.984375 C 141.640625 138.964844 145.457031 138.589844 149.332031 138.855469 C 159.410156 138.855469 173.6875 144.261719 175.488281 150.132812 C 175.632812 151.429688 175.695312 152.726562 175.679688 154.03125 C 175.664062 155.332031 175.570312 156.632812 175.398438 157.921875 C 175.222656 159.214844 174.972656 160.492188 174.640625 161.75 C 174.3125 163.011719 173.90625 164.246094 173.425781 165.457031 C 172.945312 166.667969 172.390625 167.847656 171.765625 168.992188 C 171.140625 170.132812 170.449219 171.234375 169.691406 172.292969 C 168.929688 173.355469 168.109375 174.363281 167.226562 175.320312 C 166.34375 176.28125 165.40625 177.179688 164.414062 178.023438 Z M 252.289062 161.945312 C 252.164062 162.464844 252.011719 162.976562 251.824219 163.480469 C 251.582031 165.132812 251.152344 166.738281 250.539062 168.292969 C 249.929688 169.847656 249.148438 171.316406 248.199219 172.691406 C 247.25 174.070312 246.160156 175.320312 244.921875 176.445312 C 243.6875 177.570312 242.339844 178.542969 240.878906 179.359375 C 240.878906 179.402344 240.859375 179.425781 240.8125 179.425781 C 239.636719 180.03125 238.429688 180.554688 237.183594 181 C 235.941406 181.445312 234.671875 181.808594 233.382812 182.089844 C 232.089844 182.371094 230.785156 182.566406 229.46875 182.679688 C 228.152344 182.789062 226.835938 182.8125 225.515625 182.753906 C 224.195312 182.691406 222.882812 182.542969 221.582031 182.3125 C 220.28125 182.082031 219 181.765625 217.742188 181.367188 C 216.480469 180.96875 215.253906 180.488281 214.054688 179.929688 C 212.859375 179.371094 211.703125 178.734375 210.585938 178.023438 C 209.59375 177.179688 208.65625 176.28125 207.773438 175.320312 C 206.890625 174.363281 206.070312 173.355469 205.308594 172.292969 C 204.550781 171.234375 203.859375 170.132812 203.234375 168.992188 C 202.609375 167.847656 202.054688 166.667969 201.574219 165.457031 C 201.09375 164.246094 200.6875 163.011719 200.359375 161.75 C 200.027344 160.492188 199.777344 159.214844 199.601562 157.921875 C 199.429688 156.632812 199.335938 155.332031 199.320312 154.03125 C 199.304688 152.726562 199.367188 151.429688 199.511719 150.132812 C 201.3125 144.261719 215.589844 138.855469 225.667969 138.855469 C 229.542969 138.589844 233.359375 138.964844 237.109375 139.984375 C 240.863281 141 244.34375 142.605469 247.554688 144.796875 C 248.222656 145.382812 248.800781 146.050781 249.289062 146.796875 C 250.902344 148.785156 251.96875 151.03125 252.492188 153.535156 C 253.136719 156.355469 253.066406 159.160156 252.289062 161.945312 Z M 252.289062 161.945312 " fill-opacity="1" fill-rule="nonzero"/><path fill="#212121" d="M 257.324219 92.226562 L 251.425781 94.703125 C 250.621094 91.28125 249.128906 88.191406 246.957031 85.433594 C 236.589844 73.277344 173.679688 53.261719 154.015625 60.769531 C 151.785156 61.703125 149.617188 62.761719 147.507812 63.945312 C 145.398438 65.125 143.363281 66.425781 141.402344 67.839844 C 139.441406 69.253906 137.566406 70.777344 135.777344 72.40625 C 133.992188 74.035156 132.300781 75.761719 130.710938 77.582031 C 129.121094 79.40625 127.640625 81.3125 126.265625 83.304688 C 124.894531 85.292969 123.640625 87.355469 122.503906 89.492188 C 121.367188 91.625 120.351562 93.820312 119.464844 96.070312 C 118.578125 98.320312 117.824219 100.613281 117.199219 102.949219 C 115.054688 116.53125 112.074219 141.195312 114.101562 152.277344 C 116.402344 161.511719 119.734375 170.351562 124.105469 178.804688 L 121.488281 137.265625 C 127.5 129.714844 132.640625 121.609375 136.914062 112.957031 L 141.507812 102.234375 C 145.527344 104.132812 149.710938 105.566406 154.054688 106.53125 C 158.398438 107.496094 162.792969 107.972656 167.242188 107.953125 C 173.59375 108.578125 179.789062 107.863281 185.832031 105.808594 C 187.242188 105.890625 188.621094 106.128906 189.980469 106.519531 C 191.335938 106.914062 192.628906 107.449219 193.867188 108.128906 C 195.105469 108.808594 196.25 109.617188 197.308594 110.550781 C 198.363281 111.488281 199.304688 112.527344 200.128906 113.671875 C 205.847656 121.535156 204.867188 124.214844 211.03125 125.023438 C 217.199219 125.828125 220.414062 122.074219 222.5625 123.414062 C 224.707031 124.753906 223.902344 130.382812 229.261719 135.210938 C 229.867188 135.75 230.511719 136.234375 231.207031 136.65625 C 231.898438 137.078125 232.621094 137.433594 233.378906 137.722656 C 234.136719 138.011719 234.917969 138.226562 235.714844 138.371094 C 236.511719 138.515625 237.316406 138.585938 238.128906 138.582031 C 238.9375 138.578125 239.742188 138.5 240.539062 138.347656 C 241.335938 138.195312 242.109375 137.972656 242.867188 137.675781 C 243.621094 137.378906 244.339844 137.015625 245.03125 136.585938 C 245.71875 136.15625 246.359375 135.667969 246.957031 135.121094 C 248.011719 134.136719 248.785156 132.972656 249.289062 131.621094 C 251.707031 134.984375 253.511719 137.265625 253.511719 137.265625 L 250.894531 178.804688 C 255.265625 170.351562 258.597656 161.511719 260.898438 152.277344 C 262.925781 141.195312 259.46875 105.808594 257.324219 92.226562 Z M 257.324219 92.226562 " fill-opacity="1" fill-rule="nonzero"/></svg>