<svg xmlns="http://www.w3.org/2000/svg" xmlns:xlink="http://www.w3.org/1999/xlink" width="500" zoomAndPan="magnify" viewBox="0 0 375 374.999991" height="500" preserveAspectRatio="xMidYMid meet" version="1.0"><path fill="#ffca4e" d="M 375 187.5 C 375 190.570312 374.925781 193.636719 374.773438 196.699219 C 374.625 199.765625 374.398438 202.824219 374.097656 205.878906 C 373.796875 208.933594 373.421875 211.976562 372.96875 215.011719 C 372.519531 218.046875 371.996094 221.070312 371.398438 224.078125 C 370.796875 227.089844 370.125 230.082031 369.378906 233.058594 C 368.636719 236.035156 367.816406 238.992188 366.925781 241.929688 C 366.035156 244.863281 365.074219 247.777344 364.039062 250.667969 C 363.003906 253.554688 361.902344 256.417969 360.726562 259.253906 C 359.554688 262.089844 358.308594 264.894531 356.996094 267.667969 C 355.6875 270.441406 354.308594 273.179688 352.859375 275.886719 C 351.414062 278.59375 349.902344 281.261719 348.324219 283.894531 C 346.746094 286.527344 345.105469 289.117188 343.402344 291.667969 C 341.695312 294.222656 339.929688 296.730469 338.101562 299.195312 C 336.273438 301.660156 334.386719 304.078125 332.4375 306.449219 C 330.492188 308.820312 328.488281 311.144531 326.429688 313.417969 C 324.367188 315.691406 322.253906 317.914062 320.082031 320.082031 C 317.914062 322.253906 315.691406 324.367188 313.417969 326.429688 C 311.144531 328.488281 308.820312 330.492188 306.449219 332.4375 C 304.078125 334.386719 301.660156 336.273438 299.195312 338.101562 C 296.730469 339.929688 294.222656 341.695312 291.667969 343.402344 C 289.117188 345.105469 286.527344 346.746094 283.894531 348.324219 C 281.261719 349.902344 278.59375 351.414062 275.886719 352.859375 C 273.179688 354.308594 270.441406 355.6875 267.667969 356.996094 C 264.894531 358.308594 262.089844 359.554688 259.253906 360.726562 C 256.417969 361.902344 253.554688 363.003906 250.667969 364.039062 C 247.777344 365.074219 244.863281 366.035156 241.929688 366.925781 C 238.992188 367.816406 236.035156 368.636719 233.058594 369.378906 C 230.082031 370.125 227.089844 370.796875 224.078125 371.398438 C 221.070312 371.996094 218.046875 372.519531 215.011719 372.96875 C 211.976562 373.421875 208.933594 373.796875 205.878906 374.097656 C 202.824219 374.398438 199.765625 374.625 196.699219 374.773438 C 193.636719 374.925781 190.570312 375 187.5 375 C 184.429688 375 181.363281 374.925781 178.300781 374.773438 C 175.234375 374.625 172.175781 374.398438 169.121094 374.097656 C 166.066406 373.796875 163.023438 373.421875 159.988281 372.96875 C 156.953125 372.519531 153.929688 371.996094 150.921875 371.398438 C 147.910156 370.796875 144.917969 370.125 141.941406 369.378906 C 138.964844 368.636719 136.007812 367.816406 133.070312 366.925781 C 130.136719 366.035156 127.222656 365.074219 124.332031 364.039062 C 121.445312 363.003906 118.582031 361.902344 115.746094 360.726562 C 112.910156 359.554688 110.105469 358.308594 107.332031 356.996094 C 104.558594 355.6875 101.820312 354.308594 99.113281 352.859375 C 96.40625 351.414062 93.738281 349.902344 91.105469 348.324219 C 88.472656 346.746094 85.882812 345.105469 83.332031 343.402344 C 80.777344 341.695312 78.269531 339.929688 75.804688 338.101562 C 73.339844 336.273438 70.921875 334.386719 68.550781 332.4375 C 66.179688 330.492188 63.855469 328.488281 61.582031 326.429688 C 59.308594 324.367188 57.085938 322.253906 54.917969 320.082031 C 52.746094 317.914062 50.632812 315.691406 48.570312 313.417969 C 46.511719 311.144531 44.507812 308.820312 42.558594 306.449219 C 40.613281 304.078125 38.726562 301.660156 36.898438 299.195312 C 35.070312 296.730469 33.304688 294.222656 31.597656 291.667969 C 29.894531 289.117188 28.253906 286.527344 26.675781 283.894531 C 25.097656 281.261719 23.585938 278.59375 22.140625 275.886719 C 20.691406 273.179688 19.3125 270.441406 18.003906 267.667969 C 16.691406 264.894531 15.445312 262.089844 14.273438 259.253906 C 13.097656 256.417969 11.996094 253.554688 10.960938 250.667969 C 9.925781 247.777344 8.964844 244.863281 8.074219 241.929688 C 7.183594 238.992188 6.363281 236.035156 5.617188 233.058594 C 4.875 230.082031 4.203125 227.089844 3.601562 224.078125 C 3.003906 221.070312 2.480469 218.046875 2.03125 215.011719 C 1.578125 211.976562 1.203125 208.933594 0.902344 205.878906 C 0.601562 202.824219 0.375 199.765625 0.226562 196.699219 C 0.0742188 193.636719 0 190.570312 0 187.5 C 0 184.429688 0.0742188 181.363281 0.226562 178.300781 C 0.375 175.234375 0.601562 172.175781 0.902344 169.121094 C 1.203125 166.066406 1.578125 163.023438 2.03125 159.988281 C 2.480469 156.953125 3.003906 153.929688 3.601562 150.921875 C 4.203125 147.910156 4.875 144.917969 5.617188 141.941406 C 6.363281 138.964844 7.183594 136.007812 8.074219 133.070312 C 8.964844 130.136719 9.925781 127.222656 10.960938 124.332031 C 11.996094 121.445312 13.097656 118.582031 14.273438 115.746094 C 15.445312 112.910156 16.691406 110.105469 18.003906 107.332031 C 19.3125 104.558594 20.691406 101.820312 22.140625 99.113281 C 23.585938 96.40625 25.097656 93.738281 26.675781 91.105469 C 28.253906 88.472656 29.894531 85.882812 31.597656 83.332031 C 33.304688 80.777344 35.070312 78.269531 36.898438 75.804688 C 38.726562 73.339844 40.613281 70.921875 42.558594 68.550781 C 44.507812 66.179688 46.511719 63.855469 48.570312 61.582031 C 50.632812 59.308594 52.746094 57.085938 54.917969 54.917969 C 57.085938 52.746094 59.308594 50.632812 61.582031 48.570312 C 63.855469 46.511719 66.179688 44.507812 68.550781 42.558594 C 70.921875 40.613281 73.339844 38.726562 75.804688 36.898438 C 78.269531 35.070312 80.777344 33.304688 83.332031 31.597656 C 85.882812 29.894531 88.472656 28.253906 91.105469 26.675781 C 93.738281 25.097656 96.40625 23.585938 99.113281 22.140625 C 101.820312 20.691406 104.558594 19.3125 107.332031 18.003906 C 110.105469 16.691406 112.910156 15.445312 115.746094 14.273438 C 118.582031 13.097656 121.445312 11.996094 124.332031 10.960938 C 127.222656 9.925781 130.136719 8.964844 133.070312 8.074219 C 136.007812 7.183594 138.964844 6.363281 141.941406 5.617188 C 144.917969 4.875 147.910156 4.203125 150.921875 3.601562 C 153.929688 3.003906 156.953125 2.480469 159.988281 2.03125 C 163.023438 1.578125 166.066406 1.203125 169.121094 0.902344 C 172.175781 0.601562 175.234375 0.375 178.300781 0.226562 C 181.363281 0.0742188 184.429688 0 187.5 0 C 190.570312 0 193.636719 0.0742188 196.699219 0.226562 C 199.765625 0.375 202.824219 0.601562 205.878906 0.902344 C 208.933594 1.203125 211.976562 1.578125 215.011719 2.03125 C 218.046875 2.480469 221.070312 3.003906 224.078125 3.601562 C 227.089844 4.203125 230.082031 4.875 233.058594 5.617188 C 236.035156 6.363281 238.992188 7.183594 241.929688 8.074219 C 244.863281 8.964844 247.777344 9.925781 250.667969 10.960938 C 253.554688 11.996094 256.417969 13.097656 259.253906 14.273438 C 262.089844 15.445312 264.894531 16.691406 267.667969 18.003906 C 270.441406 19.3125 273.179688 20.691406 275.886719 22.140625 C 278.59375 23.585938 281.261719 25.097656 283.894531 26.675781 C 286.527344 28.253906 289.117188 29.894531 291.667969 31.597656 C 294.222656 33.304688 296.730469 35.070312 299.195312 36.898438 C 301.660156 38.726562 304.078125 40.613281 306.449219 42.558594 C 308.820312 44.507812 311.144531 46.511719 313.417969 48.570312 C 315.691406 50.632812 317.914062 52.746094 320.082031 54.917969 C 322.253906 57.085938 324.367188 59.308594 326.429688 61.582031 C 328.488281 63.855469 330.492188 66.179688 332.4375 68.550781 C 334.386719 70.921875 336.273438 73.339844 338.101562 75.804688 C 339.929688 78.269531 341.695312 80.777344 343.402344 83.332031 C 345.105469 85.882812 346.746094 88.472656 348.324219 91.105469 C 349.902344 93.738281 351.414062 96.40625 352.859375 99.113281 C 354.308594 101.820312 355.6875 104.558594 356.996094 107.332031 C 358.308594 110.105469 359.554688 112.910156 360.726562 115.746094 C 361.902344 118.582031 363.003906 121.445312 364.039062 124.332031 C 365.074219 127.222656 366.035156 130.136719 366.925781 133.070312 C 367.816406 136.007812 368.636719 138.964844 369.378906 141.941406 C 370.125 144.917969 370.796875 147.910156 371.398438 150.921875 C 371.996094 153.929688 372.519531 156.953125 372.96875 159.988281 C 373.421875 163.023438 373.796875 166.066406 374.097656 169.121094 C 374.398438 172.175781 374.625 175.234375 374.773438 178.300781 C 374.925781 181.363281 375 184.429688 375 187.5 Z M 375 187.5 " fill-opacity="1" fill-rule="nonzero"/><path fill="#ea7760" d="M 274.152344 174.105469 C 274.148438 173.238281 274.105469 172.375 274.019531 171.507812 C 273.933594 170.644531 273.808594 169.789062 273.640625 168.9375 C 273.46875 168.085938 273.261719 167.242188 273.007812 166.414062 C 272.757812 165.582031 272.46875 164.765625 272.136719 163.960938 C 271.808594 163.160156 271.441406 162.375 271.035156 161.609375 C 270.628906 160.839844 270.183594 160.09375 269.707031 159.371094 C 269.226562 158.648438 268.714844 157.949219 268.167969 157.273438 C 267.621094 156.601562 267.042969 155.953125 266.433594 155.335938 C 265.824219 154.71875 265.183594 154.132812 264.519531 153.574219 C 263.851562 153.019531 263.160156 152.496094 262.441406 152.007812 C 261.726562 151.519531 260.984375 151.066406 260.222656 150.648438 C 259.460938 150.234375 258.683594 149.855469 257.882812 149.511719 C 257.085938 149.171875 256.273438 148.871094 255.445312 148.609375 C 254.617188 148.347656 253.78125 148.125 252.929688 147.945312 C 252.082031 147.765625 251.226562 147.625 250.363281 147.527344 C 249.5 147.429688 248.636719 147.375 247.769531 147.363281 L 247.769531 147.320312 L 234.375 147.320312 L 234.375 200.894531 L 247.769531 200.894531 L 247.769531 200.851562 C 248.636719 200.839844 249.5 200.785156 250.363281 200.6875 C 251.226562 200.589844 252.082031 200.449219 252.929688 200.269531 C 253.78125 200.089844 254.617188 199.867188 255.445312 199.605469 C 256.273438 199.34375 257.085938 199.042969 257.882812 198.699219 C 258.683594 198.359375 259.460938 197.980469 260.222656 197.5625 C 260.984375 197.148438 261.722656 196.695312 262.441406 196.207031 C 263.160156 195.71875 263.851562 195.195312 264.519531 194.640625 C 265.183594 194.082031 265.824219 193.496094 266.433594 192.878906 C 267.042969 192.261719 267.621094 191.613281 268.167969 190.941406 C 268.714844 190.265625 269.226562 189.566406 269.707031 188.84375 C 270.183594 188.117188 270.628906 187.375 271.035156 186.605469 C 271.441406 185.839844 271.808594 185.054688 272.136719 184.25 C 272.46875 183.449219 272.757812 182.632812 273.007812 181.800781 C 273.261719 180.96875 273.46875 180.128906 273.640625 179.277344 C 273.808594 178.425781 273.933594 177.570312 274.019531 176.703125 C 274.105469 175.839844 274.148438 174.976562 274.152344 174.105469 Z M 274.152344 174.105469 " fill-opacity="1" fill-rule="nonzero"/><path fill="#ea7760" d="M 127.230469 147.320312 C 126.355469 147.320312 125.480469 147.363281 124.605469 147.449219 C 123.734375 147.535156 122.867188 147.664062 122.007812 147.835938 C 121.144531 148.007812 120.296875 148.21875 119.457031 148.476562 C 118.617188 148.730469 117.792969 149.023438 116.980469 149.359375 C 116.171875 149.695312 115.378906 150.070312 114.605469 150.484375 C 113.832031 150.898438 113.082031 151.347656 112.351562 151.835938 C 111.621094 152.324219 110.917969 152.84375 110.238281 153.402344 C 109.5625 153.957031 108.914062 154.546875 108.292969 155.167969 C 107.671875 155.785156 107.082031 156.4375 106.527344 157.113281 C 105.96875 157.792969 105.449219 158.496094 104.960938 159.226562 C 104.472656 159.957031 104.023438 160.707031 103.609375 161.480469 C 103.195312 162.253906 102.820312 163.046875 102.484375 163.855469 C 102.148438 164.667969 101.855469 165.492188 101.601562 166.332031 C 101.34375 167.171875 101.132812 168.019531 100.960938 168.882812 C 100.789062 169.742188 100.660156 170.609375 100.574219 171.480469 C 100.488281 172.355469 100.445312 173.230469 100.445312 174.105469 C 100.445312 174.984375 100.488281 175.859375 100.574219 176.734375 C 100.660156 177.605469 100.789062 178.472656 100.960938 179.332031 C 101.132812 180.191406 101.34375 181.042969 101.601562 181.882812 C 101.855469 182.722656 102.148438 183.546875 102.484375 184.359375 C 102.820312 185.167969 103.195312 185.960938 103.609375 186.734375 C 104.023438 187.507812 104.472656 188.257812 104.960938 188.988281 C 105.449219 189.71875 105.96875 190.421875 106.527344 191.101562 C 107.082031 191.777344 107.671875 192.425781 108.292969 193.046875 C 108.914062 193.667969 109.5625 194.257812 110.238281 194.8125 C 110.917969 195.371094 111.621094 195.890625 112.351562 196.378906 C 113.082031 196.867188 113.832031 197.316406 114.605469 197.730469 C 115.378906 198.144531 116.171875 198.519531 116.980469 198.855469 C 117.792969 199.191406 118.617188 199.484375 119.457031 199.738281 C 120.296875 199.992188 121.144531 200.207031 122.007812 200.378906 C 122.867188 200.550781 123.734375 200.679688 124.605469 200.765625 C 125.480469 200.851562 126.355469 200.894531 127.230469 200.894531 L 140.625 200.894531 L 140.625 147.320312 Z M 127.230469 147.320312 " fill-opacity="1" fill-rule="nonzero"/><path fill="#ffab91" d="M 326.519531 313.394531 C 321.425781 318.996094 316.019531 324.273438 310.292969 329.226562 C 304.566406 334.179688 298.5625 338.773438 292.285156 343.003906 C 286.007812 347.234375 279.496094 351.074219 272.753906 354.523438 C 266.015625 357.96875 259.09375 361 251.988281 363.617188 L 251.917969 363.617188 C 239.472656 368.191406 226.683594 371.382812 213.550781 373.191406 C 212.90625 373.292969 212.257812 373.359375 211.605469 373.394531 C 210.132812 373.660156 208.59375 373.863281 207.054688 373.996094 C 194.019531 375.339844 180.980469 375.339844 167.945312 373.996094 C 166.40625 373.863281 164.867188 373.660156 163.394531 373.394531 C 162.742188 373.359375 162.09375 373.292969 161.449219 373.191406 C 148.316406 371.382812 135.527344 368.191406 123.082031 363.617188 L 123.011719 363.617188 C 115.90625 361 108.984375 357.96875 102.246094 354.523438 C 95.503906 351.074219 88.992188 347.234375 82.714844 343.003906 C 76.4375 338.773438 70.433594 334.179688 64.707031 329.226562 C 58.980469 324.273438 53.574219 318.996094 48.480469 313.394531 C 50.324219 310.199219 52.46875 307.226562 54.921875 304.476562 C 57.371094 301.726562 60.078125 299.253906 63.039062 297.058594 C 66 294.863281 69.152344 292.992188 72.5 291.445312 C 75.84375 289.902344 79.3125 288.710938 82.902344 287.878906 L 119.800781 279.441406 L 136.742188 275.492188 L 138.28125 275.15625 L 144.175781 273.816406 L 149.730469 272.542969 L 160.714844 270 L 160.714844 229.285156 L 214.285156 229.285156 L 214.285156 270 L 225.269531 272.542969 L 230.824219 273.816406 L 236.71875 275.15625 L 238.257812 275.492188 L 255.199219 279.441406 L 292.097656 287.878906 C 295.6875 288.710938 299.15625 289.902344 302.5 291.445312 C 305.847656 292.992188 309 294.863281 311.960938 297.058594 C 314.921875 299.253906 317.628906 301.726562 320.078125 304.476562 C 322.53125 307.226562 324.675781 310.199219 326.519531 313.394531 Z M 326.519531 313.394531 " fill-opacity="1" fill-rule="nonzero"/><path fill="#212121" d="M 326.519531 313.394531 C 321.425781 318.996094 316.019531 324.273438 310.292969 329.226562 C 304.566406 334.179688 298.5625 338.773438 292.285156 343.003906 C 286.007812 347.234375 279.496094 351.074219 272.753906 354.523438 C 266.015625 357.96875 259.09375 361 251.988281 363.617188 L 251.917969 363.617188 C 239.472656 368.191406 226.683594 371.382812 213.550781 373.191406 C 212.90625 373.292969 212.257812 373.359375 211.605469 373.394531 C 210.132812 373.660156 208.59375 373.863281 207.054688 373.996094 C 194.019531 375.339844 180.980469 375.339844 167.945312 373.996094 C 166.40625 373.863281 164.867188 373.660156 163.394531 373.394531 C 162.742188 373.359375 162.09375 373.292969 161.449219 373.191406 C 148.316406 371.382812 135.527344 368.191406 123.082031 363.617188 L 123.011719 363.617188 C 115.90625 361 108.984375 357.96875 102.246094 354.523438 C 95.503906 351.074219 88.992188 347.234375 82.714844 343.003906 C 76.4375 338.773438 70.433594 334.179688 64.707031 329.226562 C 58.980469 324.273438 53.574219 318.996094 48.480469 313.394531 C 50.324219 310.199219 52.46875 307.226562 54.921875 304.476562 C 57.371094 301.726562 60.078125 299.253906 63.039062 297.058594 C 66 294.863281 69.152344 292.992188 72.5 291.445312 C 75.84375 289.902344 79.3125 288.710938 82.902344 287.878906 L 119.800781 279.441406 L 136.742188 275.558594 L 136.742188 275.492188 L 138.28125 275.15625 L 144.175781 273.816406 L 149.933594 278.238281 L 173.101562 296.183594 L 176.851562 299.0625 L 187.5 307.300781 L 198.148438 299.0625 L 201.898438 296.183594 L 225.066406 278.238281 L 230.824219 273.816406 L 236.71875 275.15625 L 238.257812 275.492188 L 238.257812 275.558594 L 255.199219 279.441406 L 292.097656 287.878906 C 295.6875 288.710938 299.15625 289.902344 302.5 291.445312 C 305.847656 292.992188 309 294.863281 311.960938 297.058594 C 314.921875 299.253906 317.628906 301.726562 320.078125 304.476562 C 322.53125 307.226562 324.675781 310.199219 326.519531 313.394531 Z M 326.519531 313.394531 " fill-opacity="1" fill-rule="nonzero"/><path fill="#ea7760" d="M 214.285156 262.742188 L 214.285156 229.308594 L 160.714844 229.308594 L 160.714844 262.742188 C 164.976562 264.429688 169.359375 265.707031 173.863281 266.566406 C 178.371094 267.425781 182.914062 267.855469 187.5 267.855469 C 192.085938 267.855469 196.628906 267.425781 201.136719 266.566406 C 205.640625 265.707031 210.023438 264.429688 214.285156 262.742188 Z M 214.285156 262.742188 " fill-opacity="1" fill-rule="nonzero"/><path fill="#ffab91" d="M 127.230469 147.320312 C 127.230469 106.640625 132.710938 73.660156 187.5 73.660156 C 242.289062 73.660156 247.769531 106.640625 247.769531 147.320312 L 247.769531 194.195312 C 247.769531 196.171875 247.671875 198.140625 247.476562 200.105469 C 247.285156 202.066406 246.996094 204.019531 246.609375 205.953125 C 246.226562 207.890625 245.746094 209.800781 245.171875 211.691406 C 244.601562 213.582031 243.9375 215.4375 243.179688 217.261719 C 242.425781 219.082031 241.582031 220.867188 240.652344 222.605469 C 239.722656 224.347656 238.707031 226.039062 237.609375 227.679688 C 236.515625 229.320312 235.339844 230.902344 234.085938 232.429688 C 232.835938 233.957031 231.511719 235.417969 230.117188 236.8125 C 228.71875 238.207031 227.257812 239.53125 225.734375 240.785156 C 224.207031 242.035156 222.625 243.210938 220.984375 244.308594 C 219.34375 245.402344 217.652344 246.417969 215.910156 247.347656 C 214.167969 248.277344 212.386719 249.121094 210.5625 249.875 C 208.738281 250.632812 206.882812 251.296875 204.996094 251.867188 C 203.105469 252.441406 201.195312 252.921875 199.257812 253.304688 C 197.320312 253.691406 195.371094 253.980469 193.40625 254.175781 C 191.441406 254.367188 189.472656 254.464844 187.5 254.464844 C 185.527344 254.464844 183.558594 254.367188 181.59375 254.175781 C 179.628906 253.980469 177.679688 253.691406 175.742188 253.304688 C 173.804688 252.921875 171.894531 252.441406 170.003906 251.871094 C 168.117188 251.296875 166.261719 250.632812 164.4375 249.875 C 162.613281 249.121094 160.832031 248.277344 159.089844 247.347656 C 157.347656 246.417969 155.65625 245.402344 154.015625 244.308594 C 152.375 243.210938 150.792969 242.035156 149.265625 240.785156 C 147.742188 239.53125 146.28125 238.207031 144.882812 236.8125 C 143.488281 235.417969 142.164062 233.957031 140.914062 232.429688 C 139.660156 230.902344 138.484375 229.320312 137.390625 227.679688 C 136.292969 226.039062 135.277344 224.347656 134.347656 222.605469 C 133.417969 220.867188 132.574219 219.082031 131.820312 217.261719 C 131.0625 215.4375 130.398438 213.582031 129.828125 211.691406 C 129.253906 209.800781 128.773438 207.890625 128.390625 205.953125 C 128.003906 204.019531 127.714844 202.066406 127.523438 200.105469 C 127.328125 198.140625 127.230469 196.171875 127.230469 194.195312 Z M 127.230469 147.320312 " fill-opacity="1" fill-rule="nonzero"/><path fill="#cbcfd1" d="M 238.257812 275.492188 L 238.257812 275.558594 C 237.621094 294.996094 234.765625 314.105469 229.6875 332.878906 C 225.628906 346.84375 220.25 360.28125 213.550781 373.191406 C 212.90625 373.292969 212.257812 373.359375 211.605469 373.394531 C 210.132812 373.660156 208.59375 373.863281 207.054688 373.996094 C 194.019531 375.339844 180.980469 375.339844 167.945312 373.996094 C 166.40625 373.863281 164.867188 373.660156 163.394531 373.394531 C 162.742188 373.359375 162.09375 373.292969 161.449219 373.191406 C 154.75 360.28125 149.371094 346.84375 145.3125 332.878906 C 140.234375 314.105469 137.378906 294.996094 136.742188 275.558594 L 136.742188 275.492188 L 138.28125 275.15625 L 144.175781 273.816406 L 149.933594 278.238281 L 173.101562 296.183594 L 176.851562 299.0625 L 187.5 307.300781 L 198.148438 299.0625 L 201.898438 296.183594 L 225.066406 278.238281 L 230.824219 273.816406 L 236.71875 275.15625 Z M 238.257812 275.492188 " fill-opacity="1" fill-rule="nonzero"/><path fill="#bf0d27" d="M 199.21875 293.355469 L 187.5 299.90625 L 175.78125 293.355469 L 163.136719 306.808594 L 177.214844 321.246094 L 197.785156 321.246094 L 211.863281 306.808594 Z M 199.21875 293.355469 " fill-opacity="1" fill-rule="nonzero"/><path fill="#e8002d" d="M 211.605469 373.394531 C 210.132812 373.660156 208.59375 373.863281 207.054688 373.996094 C 194.019531 375.339844 180.980469 375.339844 167.945312 373.996094 C 166.40625 373.863281 164.867188 373.660156 163.394531 373.394531 L 165.402344 365.960938 L 177.589844 321.226562 L 187.5 321.09375 L 197.410156 321.226562 L 209.597656 365.960938 Z M 211.605469 373.394531 " fill-opacity="1" fill-rule="nonzero"/><path fill="#4c2d22" d="M 251.117188 93.75 C 248.964844 83.945312 253.660156 78.949219 245.019531 70.3125 C 236.765625 62.0625 231.027344 68.160156 222.417969 65.289062 C 213.808594 62.421875 212.71875 50.625 202.675781 51.339844 C 192.628906 52.054688 191.566406 58.472656 182.957031 59.191406 C 174.347656 59.910156 165.738281 47.351562 153.179688 54.167969 C 152.027344 54.703125 150.960938 55.378906 149.984375 56.195312 C 149.007812 57.011719 148.152344 57.9375 147.421875 58.980469 C 146.691406 60.019531 146.105469 61.136719 145.667969 62.332031 C 145.230469 63.527344 144.957031 64.757812 144.84375 66.027344 C 143.527344 65.699219 142.1875 65.546875 140.832031 65.574219 C 139.472656 65.597656 138.144531 65.800781 136.839844 66.175781 C 135.535156 66.550781 134.300781 67.089844 133.140625 67.792969 C 131.976562 68.492188 130.925781 69.332031 129.984375 70.3125 C 121.347656 78.949219 126.039062 83.945312 123.886719 93.75 C 121.734375 103.554688 115.277344 104.75 115.996094 115.511719 C 116.023438 118.316406 116.441406 121.058594 117.25 123.742188 C 118.054688 126.425781 119.21875 128.945312 120.738281 131.296875 L 121.734375 166.453125 L 127.230469 166.453125 C 127.230469 166.453125 128.90625 139.191406 134.601562 131.296875 C 136.773438 128.054688 139.414062 125.25 142.519531 122.882812 C 145.625 120.519531 149.027344 118.71875 152.730469 117.484375 C 160.128906 114.070312 158.148438 103.042969 161.621094 97.15625 C 163.703125 99.234375 166 101.039062 168.515625 102.566406 C 171.03125 104.09375 173.691406 105.300781 176.5 106.1875 C 193.71875 111.207031 196.585938 101.882812 205.914062 104.75 C 215.242188 107.621094 210.9375 120.535156 220.265625 124.839844 C 229.59375 129.144531 234.703125 123.40625 240.398438 131.296875 C 246.09375 139.191406 247.769531 166.453125 247.769531 166.453125 L 253.269531 166.453125 L 254.261719 131.296875 C 255.78125 128.945312 256.945312 126.425781 257.753906 123.742188 C 258.558594 121.058594 258.980469 118.316406 259.007812 115.511719 C 259.726562 104.75 253.269531 103.554688 251.117188 93.75 Z M 251.117188 93.75 " fill-opacity="1" fill-rule="nonzero"/><path fill="#90a4ae" d="M 162.1875 321.703125 L 180.804688 292.949219 L 160.714844 270.007812 L 138.261719 275.167969 Z M 162.1875 321.703125 " fill-opacity="1" fill-rule="nonzero"/><path fill="#90a4ae" d="M 236.738281 275.167969 L 214.285156 270.007812 L 194.195312 292.949219 L 212.8125 321.703125 Z M 236.738281 275.167969 " fill-opacity="1" fill-rule="nonzero"/><path fill="#464646" d="M 167.945312 373.996094 C 166.40625 373.863281 164.867188 373.660156 163.394531 373.394531 C 162.742188 373.359375 162.09375 373.292969 161.449219 373.191406 C 148.316406 371.382812 135.527344 368.191406 123.082031 363.617188 L 123.011719 363.617188 L 120.535156 361.605469 L 127.230469 334.820312 L 104.597656 319.820312 L 119.800781 279.441406 L 136.742188 275.558594 L 138.28125 275.15625 L 144.175781 273.816406 L 149.730469 272.542969 C 149.800781 274.417969 149.800781 276.292969 149.933594 278.238281 C 150.269531 285.738281 150.9375 293.707031 152.007812 301.875 C 154.726562 323.601562 159.191406 344.964844 165.402344 365.960938 C 166.273438 368.707031 167.074219 371.382812 167.945312 373.996094 Z M 167.945312 373.996094 " fill-opacity="1" fill-rule="nonzero"/><path fill="#464646" d="M 247.769531 334.820312 L 254.464844 361.605469 L 251.988281 363.617188 L 251.917969 363.617188 C 239.472656 368.191406 226.683594 371.382812 213.550781 373.191406 C 212.90625 373.292969 212.257812 373.359375 211.605469 373.394531 C 210.132812 373.660156 208.59375 373.863281 207.054688 373.996094 C 207.925781 371.382812 208.726562 368.707031 209.597656 365.960938 C 215.808594 344.964844 220.273438 323.601562 222.992188 301.875 C 224.0625 293.707031 224.730469 285.738281 225.066406 278.238281 C 225.199219 276.292969 225.199219 274.417969 225.269531 272.542969 L 230.824219 273.816406 L 236.71875 275.15625 L 238.257812 275.558594 L 255.199219 279.441406 L 270.402344 319.820312 Z M 247.769531 334.820312 " fill-opacity="1" fill-rule="nonzero"/></svg>