<svg xmlns="http://www.w3.org/2000/svg" xmlns:xlink="http://www.w3.org/1999/xlink" width="500" zoomAndPan="magnify" viewBox="0 0 375 374.999991" height="500" preserveAspectRatio="xMidYMid meet" version="1.0"><path fill="#55adff" d="M 374.332031 186.832031 C 374.332031 189.890625 374.257812 192.945312 374.109375 196 C 373.957031 199.054688 373.734375 202.101562 373.433594 205.144531 C 373.132812 208.1875 372.757812 211.222656 372.308594 214.246094 C 371.863281 217.269531 371.339844 220.28125 370.742188 223.28125 C 370.144531 226.28125 369.476562 229.261719 368.734375 232.230469 C 367.992188 235.195312 367.175781 238.140625 366.289062 241.066406 C 365.398438 243.992188 364.441406 246.894531 363.410156 249.773438 C 362.382812 252.652344 361.28125 255.503906 360.109375 258.332031 C 358.941406 261.15625 357.703125 263.949219 356.394531 266.714844 C 355.085938 269.476562 353.714844 272.207031 352.273438 274.90625 C 350.832031 277.601562 349.324219 280.261719 347.75 282.882812 C 346.179688 285.507812 344.542969 288.089844 342.84375 290.632812 C 341.148438 293.171875 339.386719 295.671875 337.566406 298.128906 C 335.742188 300.585938 333.863281 302.996094 331.921875 305.359375 C 329.984375 307.722656 327.988281 310.035156 325.933594 312.300781 C 323.878906 314.566406 321.773438 316.78125 319.609375 318.945312 C 317.449219 321.105469 315.234375 323.214844 312.96875 325.265625 C 310.703125 327.320312 308.390625 329.316406 306.027344 331.257812 C 303.660156 333.195312 301.253906 335.078125 298.796875 336.898438 C 296.339844 338.71875 293.839844 340.480469 291.296875 342.179688 C 288.757812 343.878906 286.175781 345.511719 283.550781 347.085938 C 280.929688 348.65625 278.269531 350.164062 275.574219 351.605469 C 272.875 353.046875 270.144531 354.421875 267.382812 355.726562 C 264.617188 357.035156 261.824219 358.273438 258.996094 359.445312 C 256.171875 360.613281 253.320312 361.714844 250.441406 362.742188 C 247.5625 363.773438 244.660156 364.734375 241.734375 365.621094 C 238.808594 366.507812 235.863281 367.324219 232.898438 368.066406 C 229.929688 368.808594 226.949219 369.480469 223.949219 370.074219 C 220.949219 370.671875 217.9375 371.195312 214.914062 371.644531 C 211.890625 372.09375 208.855469 372.464844 205.8125 372.765625 C 202.769531 373.066406 199.722656 373.289062 196.667969 373.441406 C 193.613281 373.589844 190.558594 373.664062 187.5 373.664062 C 184.441406 373.664062 181.386719 373.589844 178.332031 373.441406 C 175.277344 373.289062 172.230469 373.066406 169.1875 372.765625 C 166.144531 372.464844 163.109375 372.09375 160.085938 371.644531 C 157.0625 371.195312 154.050781 370.671875 151.050781 370.074219 C 148.050781 369.480469 145.070312 368.808594 142.101562 368.066406 C 139.136719 367.324219 136.191406 366.507812 133.265625 365.621094 C 130.339844 364.734375 127.4375 363.773438 124.558594 362.742188 C 121.679688 361.714844 118.828125 360.613281 116.003906 359.445312 C 113.175781 358.273438 110.382812 357.035156 107.617188 355.726562 C 104.855469 354.421875 102.125 353.046875 99.425781 351.605469 C 96.730469 350.164062 94.070312 348.65625 91.449219 347.085938 C 88.824219 345.511719 86.242188 343.878906 83.703125 342.179688 C 81.160156 340.480469 78.660156 338.71875 76.203125 336.898438 C 73.746094 335.078125 71.339844 333.195312 68.972656 331.257812 C 66.609375 329.316406 64.296875 327.320312 62.03125 325.265625 C 59.765625 323.214844 57.550781 321.105469 55.390625 318.945312 C 53.226562 316.78125 51.121094 314.566406 49.066406 312.300781 C 47.011719 310.035156 45.015625 307.722656 43.078125 305.359375 C 41.136719 302.996094 39.257812 300.585938 37.433594 298.128906 C 35.613281 295.671875 33.851562 293.171875 32.152344 290.632812 C 30.457031 288.089844 28.820312 285.507812 27.25 282.882812 C 25.675781 280.261719 24.167969 277.601562 22.726562 274.90625 C 21.285156 272.207031 19.914062 269.476562 18.605469 266.714844 C 17.296875 263.949219 16.058594 261.15625 14.890625 258.332031 C 13.71875 255.503906 12.617188 252.652344 11.589844 249.773438 C 10.558594 246.894531 9.601562 243.992188 8.710938 241.066406 C 7.824219 238.140625 7.007812 235.195312 6.265625 232.230469 C 5.523438 229.261719 4.855469 226.28125 4.257812 223.28125 C 3.660156 220.28125 3.136719 217.269531 2.6875 214.246094 C 2.242188 211.222656 1.867188 208.1875 1.566406 205.144531 C 1.265625 202.101562 1.042969 199.054688 0.890625 196 C 0.742188 192.945312 0.667969 189.890625 0.667969 186.832031 C 0.667969 183.773438 0.742188 180.71875 0.890625 177.664062 C 1.042969 174.609375 1.265625 171.5625 1.566406 168.519531 C 1.867188 165.476562 2.242188 162.441406 2.6875 159.417969 C 3.136719 156.394531 3.660156 153.382812 4.257812 150.382812 C 4.855469 147.382812 5.523438 144.402344 6.265625 141.4375 C 7.007812 138.46875 7.824219 135.523438 8.710938 132.597656 C 9.601562 129.671875 10.558594 126.769531 11.589844 123.890625 C 12.617188 121.011719 13.71875 118.160156 14.890625 115.335938 C 16.058594 112.511719 17.296875 109.714844 18.605469 106.953125 C 19.914062 104.1875 21.285156 101.457031 22.726562 98.761719 C 24.167969 96.0625 25.675781 93.402344 27.25 90.78125 C 28.820312 88.160156 30.457031 85.578125 32.152344 83.035156 C 33.851562 80.492188 35.613281 77.992188 37.433594 75.535156 C 39.257812 73.082031 41.136719 70.671875 43.078125 68.308594 C 45.015625 65.945312 47.011719 63.628906 49.066406 61.363281 C 51.121094 59.097656 53.226562 56.882812 55.390625 54.722656 C 57.550781 52.558594 59.765625 50.453125 62.03125 48.398438 C 64.296875 46.34375 66.609375 44.347656 68.972656 42.410156 C 71.339844 40.46875 73.746094 38.589844 76.203125 36.765625 C 78.660156 34.945312 81.160156 33.1875 83.703125 31.488281 C 86.242188 29.789062 88.824219 28.152344 91.449219 26.582031 C 94.070312 25.007812 96.730469 23.503906 99.425781 22.0625 C 102.125 20.621094 104.855469 19.246094 107.617188 17.9375 C 110.382812 16.628906 113.175781 15.390625 116.003906 14.222656 C 118.828125 13.050781 121.679688 11.953125 124.558594 10.921875 C 127.4375 9.890625 130.339844 8.933594 133.265625 8.046875 C 136.191406 7.15625 139.136719 6.34375 142.101562 5.597656 C 145.070312 4.855469 148.050781 4.1875 151.050781 3.589844 C 154.050781 2.992188 157.0625 2.472656 160.085938 2.023438 C 163.109375 1.574219 166.144531 1.199219 169.1875 0.898438 C 172.230469 0.601562 175.277344 0.375 178.332031 0.226562 C 181.386719 0.0742188 184.441406 0 187.5 0 C 190.558594 0 193.613281 0.0742188 196.667969 0.226562 C 199.722656 0.375 202.769531 0.601562 205.8125 0.898438 C 208.855469 1.199219 211.890625 1.574219 214.914062 2.023438 C 217.9375 2.472656 220.949219 2.992188 223.949219 3.589844 C 226.949219 4.1875 229.929688 4.855469 232.898438 5.597656 C 235.863281 6.34375 238.808594 7.15625 241.734375 8.046875 C 244.660156 8.933594 247.5625 9.890625 250.441406 10.921875 C 253.320312 11.953125 256.171875 13.050781 258.996094 14.222656 C 261.824219 15.390625 264.617188 16.628906 267.382812 17.9375 C 270.144531 19.246094 272.875 20.621094 275.574219 22.0625 C 278.269531 23.503906 280.929688 25.007812 283.550781 26.582031 C 286.175781 28.152344 288.757812 29.789062 291.296875 31.488281 C 293.839844 33.1875 296.339844 34.945312 298.796875 36.765625 C 301.253906 38.589844 303.660156 40.46875 306.027344 42.410156 C 308.390625 44.347656 310.703125 46.34375 312.96875 48.398438 C 315.234375 50.453125 317.449219 52.558594 319.609375 54.722656 C 321.773438 56.882812 323.878906 59.097656 325.933594 61.363281 C 327.988281 63.628906 329.984375 65.945312 331.921875 68.308594 C 333.863281 70.671875 335.742188 73.082031 337.566406 75.535156 C 339.386719 77.992188 341.148438 80.492188 342.84375 83.035156 C 344.542969 85.578125 346.179688 88.160156 347.75 90.78125 C 349.324219 93.402344 350.832031 96.0625 352.273438 98.761719 C 353.714844 101.457031 355.085938 104.1875 356.394531 106.953125 C 357.703125 109.714844 358.941406 112.511719 360.109375 115.335938 C 361.28125 118.160156 362.382812 121.011719 363.410156 123.890625 C 364.441406 126.769531 365.398438 129.671875 366.289062 132.597656 C 367.175781 135.523438 367.992188 138.46875 368.734375 141.4375 C 369.476562 144.402344 370.144531 147.382812 370.742188 150.382812 C 371.339844 153.382812 371.863281 156.394531 372.308594 159.417969 C 372.757812 162.441406 373.132812 165.476562 373.433594 168.519531 C 373.734375 171.5625 373.957031 174.609375 374.109375 177.664062 C 374.257812 180.71875 374.332031 183.773438 374.332031 186.832031 Z M 374.332031 186.832031 " fill-opacity="1" fill-rule="nonzero"/><path fill="#212121" d="M 303.914062 309.203125 C 303.914062 309.203125 287.828125 285.609375 281.394531 226.867188 C 276.828125 185.1875 273.269531 101.566406 268.523438 89.363281 C 267.933594 87.871094 267.207031 86.449219 266.339844 85.101562 L 266.324219 85.035156 C 262.105469 71.050781 229.800781 38.964844 185.832031 40.035156 C 182.820312 40.074219 179.828125 40.308594 176.847656 40.742188 C 173.871094 41.179688 170.933594 41.808594 168.039062 42.628906 C 165.140625 43.453125 162.3125 44.460938 159.550781 45.660156 C 156.789062 46.855469 154.117188 48.230469 151.539062 49.78125 C 148.957031 51.332031 146.492188 53.046875 144.136719 54.921875 C 141.785156 56.800781 139.566406 58.824219 137.480469 60.996094 C 135.394531 63.164062 133.460938 65.464844 131.679688 67.890625 C 129.898438 70.316406 128.285156 72.851562 126.839844 75.488281 C 125.738281 75.449219 124.640625 75.5 123.546875 75.632812 C 122.457031 75.769531 121.378906 75.988281 120.324219 76.296875 C 119.265625 76.601562 118.238281 76.988281 117.242188 77.457031 C 116.246094 77.925781 115.292969 78.46875 114.382812 79.089844 C 113.472656 79.710938 112.617188 80.398438 111.816406 81.152344 C 111.015625 81.910156 110.28125 82.722656 109.609375 83.597656 C 108.9375 84.46875 108.339844 85.386719 107.8125 86.355469 C 107.289062 87.324219 106.839844 88.328125 106.476562 89.363281 C 101.730469 101.566406 98.171875 185.1875 93.605469 226.867188 C 87.171875 285.609375 71.085938 309.203125 71.085938 309.203125 Z M 303.914062 309.203125 " fill-opacity="1" fill-rule="nonzero"/><path fill="#ffab91" d="M 327.359375 310.742188 C 318.171875 321.09375 307.96875 330.3125 296.746094 338.40625 C 285.523438 346.5 273.550781 353.269531 260.832031 358.71875 C 252.539062 362.222656 244.042969 365.136719 235.34375 367.460938 C 230.738281 368.660156 226.132812 369.730469 221.398438 370.53125 C 210.195312 372.621094 198.894531 373.664062 187.5 373.664062 C 176.105469 373.664062 164.804688 372.621094 153.601562 370.53125 C 148.867188 369.730469 144.261719 368.660156 139.65625 367.460938 C 130.957031 365.136719 122.460938 362.222656 114.167969 358.71875 C 101.449219 353.269531 89.476562 346.5 78.253906 338.40625 C 67.03125 330.3125 56.828125 321.09375 47.640625 310.742188 C 49.285156 308.230469 51.296875 306.058594 53.675781 304.230469 C 56.058594 302.398438 58.671875 301.011719 61.519531 300.066406 L 78.136719 294.59375 L 78.203125 294.59375 L 110.832031 283.785156 L 135.585938 275.644531 L 136.789062 275.246094 L 138.257812 274.777344 L 143.527344 273.042969 L 147.53125 271.707031 L 160.609375 267.371094 L 160.808594 248.488281 L 214.191406 248.488281 L 214.191406 267.171875 L 227.46875 271.574219 L 232.472656 273.242188 L 236.742188 274.644531 L 238.210938 275.109375 L 239.414062 275.511719 L 264.101562 283.71875 L 296.796875 294.527344 L 313.480469 300.066406 C 316.328125 301.011719 318.941406 302.398438 321.324219 304.230469 C 323.703125 306.058594 325.714844 308.230469 327.359375 310.742188 Z M 327.359375 310.742188 " fill-opacity="1" fill-rule="nonzero"/><path fill="#1e243a" d="M 327.359375 310.742188 C 318.171875 321.09375 307.96875 330.3125 296.746094 338.40625 C 285.523438 346.5 273.550781 353.269531 260.832031 358.71875 C 252.539062 362.222656 244.042969 365.136719 235.34375 367.460938 C 230.738281 368.660156 226.132812 369.730469 221.398438 370.53125 C 210.195312 372.621094 198.894531 373.664062 187.5 373.664062 C 176.105469 373.664062 164.804688 372.621094 153.601562 370.53125 C 148.867188 369.730469 144.261719 368.660156 139.65625 367.460938 C 130.957031 365.136719 122.460938 362.222656 114.167969 358.71875 C 101.449219 353.269531 89.476562 346.5 78.253906 338.40625 C 67.03125 330.3125 56.828125 321.09375 47.640625 310.742188 C 49.285156 308.230469 51.296875 306.058594 53.675781 304.230469 C 56.058594 302.398438 58.671875 301.011719 61.519531 300.066406 L 78.136719 294.59375 L 78.203125 294.59375 L 110.832031 283.785156 L 135.585938 275.644531 L 135.121094 288.324219 L 135.121094 288.390625 L 134.320312 309.207031 L 134.050781 316.882812 L 147.332031 321.550781 L 162.011719 326.691406 L 162.476562 326.890625 L 187.5 335.632812 L 212.523438 326.890625 L 212.988281 326.691406 L 227.667969 321.550781 L 240.949219 316.882812 L 240.679688 309.207031 L 239.878906 288.121094 L 239.414062 275.511719 L 264.101562 283.71875 L 296.796875 294.527344 L 313.480469 300.066406 C 316.328125 301.011719 318.941406 302.398438 321.324219 304.230469 C 323.703125 306.058594 325.714844 308.230469 327.359375 310.742188 Z M 327.359375 310.742188 " fill-opacity="1" fill-rule="nonzero"/><path fill="#697f87" d="M 187.5 326.230469 L 180.828125 298.578125 L 154.136719 285.59375 Z M 187.5 326.230469 " fill-opacity="1" fill-rule="nonzero"/><path fill="#697f87" d="M 187.5 326.230469 L 194.171875 298.578125 L 220.863281 285.59375 Z M 187.5 326.230469 " fill-opacity="1" fill-rule="nonzero"/><path fill="#cbcfd1" d="M 238.078125 358.183594 C 237.277344 361.386719 236.410156 364.457031 235.34375 367.460938 C 230.738281 368.660156 226.132812 369.730469 221.398438 370.53125 C 210.195312 372.621094 198.894531 373.664062 187.5 373.664062 C 176.105469 373.664062 164.804688 372.621094 153.601562 370.53125 C 148.867188 369.730469 144.261719 368.660156 139.65625 367.460938 C 138.589844 364.457031 137.722656 361.386719 136.921875 358.183594 C 133.578125 342.011719 132.445312 325.6875 133.519531 309.207031 C 133.851562 301.335938 134.453125 294.128906 135.121094 288.390625 L 135.121094 288.324219 C 135.789062 281.648438 136.519531 276.914062 136.789062 275.246094 L 138.257812 274.777344 L 143.527344 273.042969 L 144.328125 272.84375 L 147.128906 276.378906 L 154.9375 285.988281 L 173.753906 309.207031 L 173.886719 309.339844 L 187.5 326.222656 L 201.113281 309.339844 L 201.246094 309.207031 L 220.0625 285.988281 L 227.871094 276.3125 L 230.671875 272.84375 L 232.472656 273.242188 L 236.742188 274.644531 L 238.210938 275.109375 C 238.480469 276.710938 239.144531 281.449219 239.878906 288.121094 C 240.480469 293.929688 241.148438 301.199219 241.480469 309.207031 C 242.523438 325.683594 241.386719 342.011719 238.078125 358.183594 Z M 238.078125 358.183594 " fill-opacity="1" fill-rule="nonzero"/><path fill="#ea7760" d="M 273.84375 173.488281 C 273.84375 172.621094 273.796875 171.761719 273.714844 170.898438 C 273.628906 170.039062 273.5 169.183594 273.332031 168.335938 C 273.164062 167.488281 272.957031 166.648438 272.707031 165.820312 C 272.457031 164.992188 272.164062 164.179688 271.835938 163.378906 C 271.507812 162.578125 271.140625 161.796875 270.734375 161.03125 C 270.332031 160.269531 269.890625 159.527344 269.414062 158.804688 C 268.9375 158.082031 268.425781 157.386719 267.878906 156.714844 C 267.335938 156.042969 266.757812 155.398438 266.152344 154.78125 C 265.542969 154.167969 264.910156 153.582031 264.242188 153.027344 C 263.578125 152.476562 262.890625 151.953125 262.175781 151.46875 C 261.460938 150.980469 260.722656 150.53125 259.964844 150.113281 C 259.207031 149.699219 258.429688 149.320312 257.632812 148.980469 C 256.839844 148.640625 256.027344 148.339844 255.203125 148.078125 C 254.378906 147.820312 253.542969 147.597656 252.699219 147.417969 C 251.851562 147.238281 251 147.101562 250.140625 147.003906 C 249.28125 146.90625 248.417969 146.851562 247.554688 146.835938 L 247.554688 146.796875 L 234.207031 146.796875 L 234.207031 200.179688 L 247.554688 200.179688 L 247.554688 200.136719 C 248.417969 200.125 249.28125 200.070312 250.140625 199.972656 C 251 199.875 251.851562 199.738281 252.699219 199.554688 C 253.542969 199.375 254.378906 199.15625 255.203125 198.894531 C 256.027344 198.632812 256.839844 198.332031 257.632812 197.992188 C 258.429688 197.652344 259.207031 197.277344 259.964844 196.859375 C 260.722656 196.445312 261.460938 195.996094 262.175781 195.507812 C 262.890625 195.019531 263.578125 194.5 264.242188 193.945312 C 264.90625 193.390625 265.542969 192.808594 266.152344 192.191406 C 266.757812 191.574219 267.335938 190.933594 267.878906 190.261719 C 268.425781 189.589844 268.9375 188.890625 269.414062 188.171875 C 269.890625 187.449219 270.332031 186.707031 270.734375 185.941406 C 271.140625 185.179688 271.507812 184.394531 271.835938 183.597656 C 272.164062 182.796875 272.457031 181.980469 272.707031 181.152344 C 272.957031 180.324219 273.164062 179.488281 273.332031 178.640625 C 273.5 177.792969 273.628906 176.9375 273.714844 176.074219 C 273.796875 175.214844 273.84375 174.351562 273.84375 173.488281 Z M 273.84375 173.488281 " fill-opacity="1" fill-rule="nonzero"/><path fill="#ea7760" d="M 127.445312 146.796875 C 126.574219 146.796875 125.699219 146.839844 124.832031 146.925781 C 123.960938 147.011719 123.097656 147.140625 122.238281 147.308594 C 121.382812 147.480469 120.535156 147.691406 119.699219 147.945312 C 118.863281 148.199219 118.039062 148.496094 117.234375 148.828125 C 116.425781 149.164062 115.636719 149.535156 114.863281 149.949219 C 114.09375 150.359375 113.34375 150.808594 112.617188 151.296875 C 111.890625 151.78125 111.191406 152.300781 110.515625 152.855469 C 109.839844 153.410156 109.191406 153.996094 108.574219 154.613281 C 107.957031 155.234375 107.371094 155.878906 106.816406 156.554688 C 106.261719 157.230469 105.738281 157.933594 105.253906 158.660156 C 104.769531 159.386719 104.320312 160.136719 103.90625 160.90625 C 103.496094 161.675781 103.121094 162.464844 102.789062 163.273438 C 102.453125 164.082031 102.160156 164.902344 101.90625 165.738281 C 101.652344 166.578125 101.441406 167.421875 101.269531 168.28125 C 101.097656 169.136719 100.96875 170 100.882812 170.871094 C 100.800781 171.742188 100.757812 172.613281 100.757812 173.488281 C 100.757812 174.363281 100.800781 175.234375 100.882812 176.105469 C 100.96875 176.972656 101.097656 177.835938 101.269531 178.695312 C 101.441406 179.550781 101.652344 180.398438 101.90625 181.234375 C 102.160156 182.070312 102.453125 182.894531 102.789062 183.703125 C 103.121094 184.507812 103.496094 185.296875 103.90625 186.070312 C 104.320312 186.839844 104.769531 187.589844 105.253906 188.316406 C 105.738281 189.042969 106.261719 189.742188 106.816406 190.417969 C 107.371094 191.09375 107.957031 191.742188 108.574219 192.359375 C 109.191406 192.980469 109.839844 193.566406 110.515625 194.121094 C 111.191406 194.675781 111.890625 195.195312 112.617188 195.679688 C 113.34375 196.164062 114.09375 196.613281 114.863281 197.027344 C 115.636719 197.4375 116.425781 197.8125 117.234375 198.144531 C 118.039062 198.480469 118.863281 198.773438 119.699219 199.027344 C 120.535156 199.28125 121.382812 199.496094 122.238281 199.664062 C 123.097656 199.835938 123.960938 199.964844 124.832031 200.050781 C 125.699219 200.136719 126.574219 200.179688 127.445312 200.179688 L 140.792969 200.179688 L 140.792969 146.796875 Z M 127.445312 146.796875 " fill-opacity="1" fill-rule="nonzero"/><path fill="#ea7760" d="M 214.191406 261.804688 L 214.191406 228.492188 L 160.808594 228.492188 L 160.808594 261.804688 C 165.058594 263.488281 169.425781 264.761719 173.914062 265.617188 C 178.402344 266.476562 182.929688 266.902344 187.5 266.902344 C 192.070312 266.902344 196.597656 266.476562 201.085938 265.617188 C 205.574219 264.761719 209.941406 263.488281 214.191406 261.804688 Z M 214.191406 261.804688 " fill-opacity="1" fill-rule="nonzero"/><path fill="#ffab91" d="M 127.445312 146.796875 C 127.445312 106.261719 132.90625 73.398438 187.5 73.398438 C 242.09375 73.398438 247.554688 106.261719 247.554688 146.796875 L 247.554688 193.503906 C 247.554688 195.472656 247.457031 197.433594 247.265625 199.390625 C 247.070312 201.347656 246.78125 203.292969 246.398438 205.222656 C 246.015625 207.148438 245.539062 209.054688 244.96875 210.9375 C 244.398438 212.820312 243.734375 214.667969 242.980469 216.488281 C 242.230469 218.304688 241.390625 220.078125 240.460938 221.8125 C 239.535156 223.550781 238.523438 225.234375 237.433594 226.871094 C 236.339844 228.503906 235.167969 230.082031 233.921875 231.601562 C 232.675781 233.125 231.355469 234.578125 229.964844 235.96875 C 228.574219 237.359375 227.117188 238.679688 225.597656 239.925781 C 224.078125 241.175781 222.5 242.34375 220.863281 243.4375 C 219.226562 244.53125 217.542969 245.539062 215.808594 246.46875 C 214.074219 247.394531 212.296875 248.234375 210.480469 248.988281 C 208.664062 249.738281 206.816406 250.402344 204.933594 250.972656 C 203.050781 251.542969 201.144531 252.019531 199.214844 252.40625 C 197.285156 252.789062 195.34375 253.078125 193.386719 253.269531 C 191.429688 253.460938 189.46875 253.558594 187.5 253.558594 C 185.53125 253.558594 183.570312 253.460938 181.613281 253.269531 C 179.65625 253.078125 177.714844 252.789062 175.785156 252.40625 C 173.855469 252.019531 171.949219 251.542969 170.066406 250.972656 C 168.183594 250.402344 166.335938 249.738281 164.519531 248.988281 C 162.703125 248.234375 160.925781 247.394531 159.191406 246.46875 C 157.457031 245.539062 155.769531 244.53125 154.136719 243.4375 C 152.5 242.34375 150.921875 241.175781 149.402344 239.925781 C 147.882812 238.679688 146.425781 237.359375 145.035156 235.96875 C 143.644531 234.578125 142.324219 233.125 141.078125 231.601562 C 139.832031 230.082031 138.660156 228.503906 137.566406 226.871094 C 136.476562 225.234375 135.464844 223.550781 134.539062 221.8125 C 133.609375 220.078125 132.769531 218.304688 132.019531 216.488281 C 131.265625 214.667969 130.601562 212.820312 130.03125 210.9375 C 129.460938 209.054688 128.984375 207.148438 128.601562 205.222656 C 128.214844 203.292969 127.929688 201.347656 127.734375 199.390625 C 127.542969 197.433594 127.445312 195.472656 127.445312 193.503906 Z M 127.445312 146.796875 " fill-opacity="1" fill-rule="nonzero"/><path fill="#212121" d="M 237.664062 82.574219 C 226.515625 70.535156 193.816406 66.003906 168.875 68.8125 C 165.421875 68.699219 162.015625 69.03125 158.652344 69.816406 C 155.289062 70.597656 152.085938 71.804688 149.039062 73.429688 C 147.089844 74.097656 145.289062 75.046875 143.632812 76.269531 C 141.972656 77.496094 140.539062 78.941406 139.332031 80.609375 C 138.664062 81.257812 137.988281 81.867188 137.335938 82.574219 C 119.464844 101.875 127.445312 146.796875 127.445312 146.796875 C 128.441406 137.511719 130.207031 128.378906 132.742188 119.390625 C 133.492188 117.367188 134.558594 115.53125 135.9375 113.875 C 137.320312 112.21875 138.9375 110.839844 140.792969 109.738281 C 144.316406 108.691406 147.613281 107.148438 150.675781 105.109375 C 153.738281 103.074219 156.433594 100.628906 158.761719 97.78125 C 163.070312 100.777344 167.644531 103.285156 172.492188 105.300781 C 177.335938 107.316406 182.339844 108.796875 187.5 109.738281 C 203.070312 111.636719 218.640625 111.636719 234.207031 109.738281 C 236.0625 110.839844 237.679688 112.21875 239.0625 113.875 C 240.441406 115.53125 241.507812 117.367188 242.257812 119.390625 C 244.792969 128.378906 246.558594 137.511719 247.554688 146.796875 C 247.554688 146.796875 255.535156 101.875 237.664062 82.574219 Z M 237.664062 82.574219 " fill-opacity="1" fill-rule="nonzero"/><path fill="#90a4ae" d="M 162.277344 327.230469 L 180.828125 298.578125 L 160.628906 267.378906 L 138.289062 274.75 Z M 162.277344 327.230469 " fill-opacity="1" fill-rule="nonzero"/><path fill="#90a4ae" d="M 236.75 274.664062 L 214.191406 267.203125 L 194.171875 298.578125 L 212.722656 327.230469 Z M 236.75 274.664062 " fill-opacity="1" fill-rule="nonzero"/><path fill="#343d56" d="M 147.332031 321.550781 C 148.398438 338.007812 150.492188 354.335938 153.601562 370.53125 C 148.867188 369.730469 144.261719 368.660156 139.65625 367.460938 C 130.957031 365.136719 122.460938 362.222656 114.167969 358.71875 L 108.230469 352.648438 L 118.105469 326.957031 L 97.488281 309.410156 L 97.621094 309.207031 L 110.832031 283.785156 L 135.585938 275.644531 L 136.789062 275.246094 L 138.257812 274.777344 L 143.527344 273.042969 L 147.53125 271.707031 C 147.398438 273.242188 147.265625 274.777344 147.128906 276.378906 C 146.796875 281.648438 146.597656 287.1875 146.597656 292.925781 C 146.53125 298.265625 146.597656 303.667969 146.730469 309.207031 C 146.863281 313.277344 147.128906 317.414062 147.332031 321.550781 Z M 147.332031 321.550781 " fill-opacity="1" fill-rule="nonzero"/><path fill="#343d56" d="M 256.894531 326.957031 L 266.769531 352.648438 L 260.832031 358.71875 C 252.539062 362.222656 244.042969 365.136719 235.34375 367.460938 C 230.738281 368.660156 226.132812 369.730469 221.398438 370.53125 C 224.507812 354.335938 226.601562 338.007812 227.667969 321.550781 C 227.871094 317.414062 228.136719 313.277344 228.269531 309.207031 C 228.402344 303.667969 228.46875 298.199219 228.402344 292.859375 C 228.402344 287.121094 228.203125 281.582031 227.871094 276.3125 C 227.734375 274.710938 227.601562 273.109375 227.46875 271.574219 L 232.472656 273.242188 L 236.742188 274.644531 L 238.210938 275.109375 L 239.414062 275.511719 L 264.101562 283.71875 L 277.378906 309.207031 L 277.511719 309.410156 Z M 256.894531 326.957031 " fill-opacity="1" fill-rule="nonzero"/></svg>