<svg xmlns="http://www.w3.org/2000/svg" xmlns:xlink="http://www.w3.org/1999/xlink" width="500" zoomAndPan="magnify" viewBox="0 0 375 374.999991" height="500" preserveAspectRatio="xMidYMid meet" version="1.0"><path fill="#55adff" d="M 374.332031 186.832031 C 374.332031 189.890625 374.257812 192.945312 374.109375 196 C 373.957031 199.054688 373.734375 202.101562 373.433594 205.144531 C 373.132812 208.1875 372.757812 211.222656 372.308594 214.246094 C 371.863281 217.269531 371.339844 220.28125 370.742188 223.28125 C 370.144531 226.28125 369.476562 229.261719 368.734375 232.230469 C 367.992188 235.195312 367.175781 238.140625 366.289062 241.066406 C 365.398438 243.992188 364.441406 246.894531 363.410156 249.773438 C 362.382812 252.652344 361.28125 255.503906 360.109375 258.332031 C 358.941406 261.15625 357.703125 263.949219 356.394531 266.714844 C 355.085938 269.476562 353.714844 272.207031 352.273438 274.90625 C 350.832031 277.601562 349.324219 280.261719 347.75 282.882812 C 346.179688 285.507812 344.542969 288.089844 342.84375 290.632812 C 341.148438 293.171875 339.386719 295.671875 337.566406 298.128906 C 335.742188 300.585938 333.863281 302.996094 331.921875 305.359375 C 329.984375 307.722656 327.988281 310.035156 325.933594 312.300781 C 323.878906 314.566406 321.773438 316.78125 319.609375 318.945312 C 317.449219 321.105469 315.234375 323.214844 312.96875 325.265625 C 310.703125 327.320312 308.390625 329.316406 306.027344 331.257812 C 303.660156 333.195312 301.253906 335.078125 298.796875 336.898438 C 296.339844 338.71875 293.839844 340.480469 291.296875 342.179688 C 288.757812 343.878906 286.175781 345.511719 283.550781 347.085938 C 280.929688 348.65625 278.269531 350.164062 275.574219 351.605469 C 272.875 353.046875 270.144531 354.421875 267.382812 355.726562 C 264.617188 357.035156 261.824219 358.273438 258.996094 359.445312 C 256.171875 360.613281 253.320312 361.714844 250.441406 362.742188 C 247.5625 363.773438 244.660156 364.734375 241.734375 365.621094 C 238.808594 366.507812 235.863281 367.324219 232.898438 368.066406 C 229.929688 368.808594 226.949219 369.480469 223.949219 370.074219 C 220.949219 370.671875 217.9375 371.195312 214.914062 371.644531 C 211.890625 372.09375 208.855469 372.464844 205.8125 372.765625 C 202.769531 373.066406 199.722656 373.289062 196.667969 373.441406 C 193.613281 373.589844 190.558594 373.664062 187.5 373.664062 C 184.441406 373.664062 181.386719 373.589844 178.332031 373.441406 C 175.277344 373.289062 172.230469 373.066406 169.1875 372.765625 C 166.144531 372.464844 163.109375 372.09375 160.085938 371.644531 C 157.0625 371.195312 154.050781 370.671875 151.050781 370.074219 C 148.050781 369.480469 145.070312 368.808594 142.101562 368.066406 C 139.136719 367.324219 136.191406 366.507812 133.265625 365.621094 C 130.339844 364.734375 127.4375 363.773438 124.558594 362.742188 C 121.679688 361.714844 118.828125 360.613281 116.003906 359.445312 C 113.175781 358.273438 110.382812 357.035156 107.617188 355.726562 C 104.855469 354.421875 102.125 353.046875 99.425781 351.605469 C 96.730469 350.164062 94.070312 348.65625 91.449219 347.085938 C 88.824219 345.511719 86.242188 343.878906 83.703125 342.179688 C 81.160156 340.480469 78.660156 338.71875 76.203125 336.898438 C 73.746094 335.078125 71.339844 333.195312 68.972656 331.257812 C 66.609375 329.316406 64.296875 327.320312 62.03125 325.265625 C 59.765625 323.214844 57.550781 321.105469 55.390625 318.945312 C 53.226562 316.78125 51.121094 314.566406 49.066406 312.300781 C 47.011719 310.035156 45.015625 307.722656 43.078125 305.359375 C 41.136719 302.996094 39.257812 300.585938 37.433594 298.128906 C 35.613281 295.671875 33.851562 293.171875 32.152344 290.632812 C 30.457031 288.089844 28.820312 285.507812 27.25 282.882812 C 25.675781 280.261719 24.167969 277.601562 22.726562 274.90625 C 21.285156 272.207031 19.914062 269.476562 18.605469 266.714844 C 17.296875 263.949219 16.058594 261.15625 14.890625 258.332031 C 13.71875 255.503906 12.617188 252.652344 11.589844 249.773438 C 10.558594 246.894531 9.601562 243.992188 8.710938 241.066406 C 7.824219 238.140625 7.007812 235.195312 6.265625 232.230469 C 5.523438 229.261719 4.855469 226.28125 4.257812 223.28125 C 3.660156 220.28125 3.136719 217.269531 2.6875 214.246094 C 2.242188 211.222656 1.867188 208.1875 1.566406 205.144531 C 1.265625 202.101562 1.042969 199.054688 0.890625 196 C 0.742188 192.945312 0.667969 189.890625 0.667969 186.832031 C 0.667969 183.773438 0.742188 180.71875 0.890625 177.664062 C 1.042969 174.609375 1.265625 171.5625 1.566406 168.519531 C 1.867188 165.476562 2.242188 162.441406 2.6875 159.417969 C 3.136719 156.394531 3.660156 153.382812 4.257812 150.382812 C 4.855469 147.382812 5.523438 144.402344 6.265625 141.4375 C 7.007812 138.46875 7.824219 135.523438 8.710938 132.597656 C 9.601562 129.671875 10.558594 126.769531 11.589844 123.890625 C 12.617188 121.011719 13.71875 118.160156 14.890625 115.335938 C 16.058594 112.511719 17.296875 109.714844 18.605469 106.953125 C 19.914062 104.1875 21.285156 101.457031 22.726562 98.761719 C 24.167969 96.0625 25.675781 93.402344 27.25 90.78125 C 28.820312 88.160156 30.457031 85.578125 32.152344 83.035156 C 33.851562 80.492188 35.613281 77.992188 37.433594 75.535156 C 39.257812 73.082031 41.136719 70.671875 43.078125 68.308594 C 45.015625 65.945312 47.011719 63.628906 49.066406 61.363281 C 51.121094 59.097656 53.226562 56.882812 55.390625 54.722656 C 57.550781 52.558594 59.765625 50.453125 62.03125 48.398438 C 64.296875 46.34375 66.609375 44.347656 68.972656 42.410156 C 71.339844 40.46875 73.746094 38.589844 76.203125 36.765625 C 78.660156 34.945312 81.160156 33.1875 83.703125 31.488281 C 86.242188 29.789062 88.824219 28.152344 91.449219 26.582031 C 94.070312 25.007812 96.730469 23.503906 99.425781 22.0625 C 102.125 20.621094 104.855469 19.246094 107.617188 17.9375 C 110.382812 16.628906 113.175781 15.390625 116.003906 14.222656 C 118.828125 13.050781 121.679688 11.953125 124.558594 10.921875 C 127.4375 9.890625 130.339844 8.933594 133.265625 8.046875 C 136.191406 7.15625 139.136719 6.34375 142.101562 5.597656 C 145.070312 4.855469 148.050781 4.1875 151.050781 3.589844 C 154.050781 2.992188 157.0625 2.472656 160.085938 2.023438 C 163.109375 1.574219 166.144531 1.199219 169.1875 0.898438 C 172.230469 0.601562 175.277344 0.375 178.332031 0.226562 C 181.386719 0.0742188 184.441406 0 187.5 0 C 190.558594 0 193.613281 0.0742188 196.667969 0.226562 C 199.722656 0.375 202.769531 0.601562 205.8125 0.898438 C 208.855469 1.199219 211.890625 1.574219 214.914062 2.023438 C 217.9375 2.472656 220.949219 2.992188 223.949219 3.589844 C 226.949219 4.1875 229.929688 4.855469 232.898438 5.597656 C 235.863281 6.34375 238.808594 7.15625 241.734375 8.046875 C 244.660156 8.933594 247.5625 9.890625 250.441406 10.921875 C 253.320312 11.953125 256.171875 13.050781 258.996094 14.222656 C 261.824219 15.390625 264.617188 16.628906 267.382812 17.9375 C 270.144531 19.246094 272.875 20.621094 275.574219 22.0625 C 278.269531 23.503906 280.929688 25.007812 283.550781 26.582031 C 286.175781 28.152344 288.757812 29.789062 291.296875 31.488281 C 293.839844 33.1875 296.339844 34.945312 298.796875 36.765625 C 301.253906 38.589844 303.660156 40.46875 306.027344 42.410156 C 308.390625 44.347656 310.703125 46.34375 312.96875 48.398438 C 315.234375 50.453125 317.449219 52.558594 319.609375 54.722656 C 321.773438 56.882812 323.878906 59.097656 325.933594 61.363281 C 327.988281 63.628906 329.984375 65.945312 331.921875 68.308594 C 333.863281 70.671875 335.742188 73.082031 337.566406 75.535156 C 339.386719 77.992188 341.148438 80.492188 342.84375 83.035156 C 344.542969 85.578125 346.179688 88.160156 347.75 90.78125 C 349.324219 93.402344 350.832031 96.0625 352.273438 98.761719 C 353.714844 101.457031 355.085938 104.1875 356.394531 106.953125 C 357.703125 109.714844 358.941406 112.511719 360.109375 115.335938 C 361.28125 118.160156 362.382812 121.011719 363.410156 123.890625 C 364.441406 126.769531 365.398438 129.671875 366.289062 132.597656 C 367.175781 135.523438 367.992188 138.46875 368.734375 141.4375 C 369.476562 144.402344 370.144531 147.382812 370.742188 150.382812 C 371.339844 153.382812 371.863281 156.394531 372.308594 159.417969 C 372.757812 162.441406 373.132812 165.476562 373.433594 168.519531 C 373.734375 171.5625 373.957031 174.609375 374.109375 177.664062 C 374.257812 180.71875 374.332031 183.773438 374.332031 186.832031 Z M 374.332031 186.832031 " fill-opacity="1" fill-rule="nonzero"/><path fill="#212121" d="M 308.253906 201.078125 C 308.128906 201.019531 307.996094 201 307.867188 200.945312 C 309.980469 199.476562 311.574219 197.570312 312.65625 195.234375 C 312.890625 194.738281 313.09375 194.226562 313.269531 193.707031 C 313.445312 193.183594 313.589844 192.65625 313.703125 192.117188 C 313.816406 191.578125 313.898438 191.035156 313.949219 190.488281 C 314 189.941406 314.019531 189.390625 314.007812 188.839844 C 313.992188 188.292969 313.949219 187.746094 313.871094 187.199219 C 313.796875 186.65625 313.6875 186.117188 313.546875 185.585938 C 313.410156 185.050781 313.238281 184.53125 313.039062 184.015625 C 312.839844 183.503906 312.609375 183.003906 312.351562 182.519531 C 312.09375 182.035156 311.808594 181.566406 311.496094 181.113281 C 311.183594 180.660156 310.847656 180.226562 310.484375 179.8125 C 310.121094 179.398438 309.734375 179.007812 309.328125 178.640625 C 308.917969 178.269531 308.492188 177.925781 308.042969 177.609375 C 307.59375 177.289062 307.128906 176.996094 306.648438 176.734375 C 306.164062 176.46875 305.667969 176.230469 305.160156 176.023438 C 304.648438 175.816406 304.128906 175.640625 303.597656 175.492188 C 303.070312 175.347656 302.53125 175.230469 301.988281 175.144531 C 302.175781 174.8125 302.402344 174.519531 302.5625 174.164062 C 302.953125 173.304688 303.257812 172.417969 303.472656 171.496094 C 303.691406 170.578125 303.816406 169.648438 303.847656 168.703125 C 303.882812 167.757812 303.820312 166.820312 303.667969 165.890625 C 303.519531 164.957031 303.277344 164.046875 302.945312 163.164062 C 302.617188 162.277344 302.203125 161.433594 301.703125 160.632812 C 301.207031 159.828125 300.636719 159.082031 299.992188 158.390625 C 299.347656 157.699219 298.644531 157.078125 297.878906 156.527344 C 297.109375 155.976562 296.296875 155.503906 295.4375 155.113281 C 292.960938 153.988281 290.371094 153.617188 287.675781 153.996094 C 287.046875 152.503906 286.25 151.105469 285.292969 149.800781 C 286.964844 149.117188 288.511719 148.21875 289.941406 147.113281 C 291.371094 146.007812 292.625 144.734375 293.710938 143.289062 C 294.792969 141.84375 295.667969 140.28125 296.328125 138.597656 C 296.988281 136.917969 297.414062 135.179688 297.605469 133.382812 C 297.796875 131.585938 297.746094 129.796875 297.453125 128.015625 C 297.160156 126.230469 296.632812 124.519531 295.878906 122.878906 C 295.121094 121.238281 294.164062 119.726562 292.996094 118.347656 C 291.832031 116.964844 290.507812 115.761719 289.015625 114.742188 C 289.652344 114.023438 290.230469 113.261719 290.753906 112.460938 C 291.277344 111.660156 291.742188 110.824219 292.148438 109.957031 C 292.550781 109.085938 292.890625 108.195312 293.167969 107.277344 C 293.441406 106.359375 293.652344 105.425781 293.792969 104.480469 C 293.933594 103.53125 294.007812 102.578125 294.011719 101.621094 C 294.015625 100.664062 293.953125 99.707031 293.820312 98.761719 C 293.6875 97.8125 293.488281 96.875 293.21875 95.957031 C 292.953125 95.035156 292.621094 94.140625 292.226562 93.269531 C 291.828125 92.394531 291.371094 91.554688 290.855469 90.75 C 290.339844 89.941406 289.765625 89.179688 289.140625 88.453125 C 288.511719 87.730469 287.835938 87.054688 287.113281 86.425781 C 286.386719 85.800781 285.621094 85.226562 284.816406 84.710938 C 284.007812 84.195312 283.167969 83.738281 282.296875 83.339844 C 281.425781 82.945312 280.527344 82.613281 279.609375 82.347656 C 278.6875 82.078125 277.753906 81.878906 276.804688 81.746094 C 275.855469 81.613281 274.902344 81.550781 273.945312 81.554688 C 273.40625 81.554688 272.898438 81.671875 272.367188 81.710938 C 272.628906 80.761719 272.816406 79.796875 272.933594 78.816406 C 273.050781 77.839844 273.09375 76.855469 273.0625 75.871094 C 273.035156 74.886719 272.933594 73.90625 272.757812 72.9375 C 272.582031 71.96875 272.335938 71.015625 272.023438 70.082031 C 271.707031 69.148438 271.324219 68.242188 270.871094 67.367188 C 270.421875 66.488281 269.910156 65.648438 269.335938 64.847656 C 268.757812 64.046875 268.128906 63.292969 267.441406 62.585938 C 266.753906 61.878906 266.019531 61.226562 265.234375 60.628906 C 264.449219 60.03125 263.628906 59.496094 262.765625 59.019531 C 261.898438 58.542969 261.007812 58.132812 260.082031 57.792969 C 259.15625 57.449219 258.214844 57.175781 257.25 56.972656 C 256.285156 56.773438 255.308594 56.640625 254.324219 56.582031 C 253.339844 56.527344 252.359375 56.542969 251.375 56.628906 C 250.394531 56.71875 249.421875 56.878906 248.464844 57.109375 C 247.507812 57.34375 246.570312 57.644531 245.660156 58.015625 C 244.746094 58.386719 243.863281 58.824219 243.015625 59.324219 C 243.023438 59.128906 243.074219 58.949219 243.074219 58.753906 C 243.074219 57.667969 242.992188 56.59375 242.816406 55.523438 C 242.644531 54.453125 242.386719 53.40625 242.046875 52.378906 C 241.703125 51.351562 241.28125 50.355469 240.777344 49.398438 C 240.273438 48.4375 239.695312 47.527344 239.042969 46.660156 C 238.390625 45.796875 237.671875 44.988281 236.890625 44.238281 C 236.109375 43.492188 235.269531 42.808594 234.375 42.199219 C 233.484375 41.585938 232.546875 41.046875 231.566406 40.585938 C 230.585938 40.125 229.574219 39.746094 228.53125 39.449219 C 227.488281 39.15625 226.429688 38.945312 225.355469 38.820312 C 224.277344 38.695312 223.199219 38.65625 222.117188 38.707031 C 221.035156 38.757812 219.964844 38.894531 218.902344 39.121094 C 217.84375 39.34375 216.808594 39.652344 215.800781 40.042969 C 214.789062 40.4375 213.816406 40.90625 212.882812 41.457031 C 211.949219 42.007812 211.066406 42.628906 210.234375 43.320312 C 209.402344 44.015625 208.632812 44.769531 207.921875 45.589844 C 207.210938 46.40625 206.574219 47.277344 206.003906 48.199219 C 205.625 47.292969 205.179688 46.421875 204.667969 45.582031 C 204.160156 44.742188 203.59375 43.941406 202.96875 43.183594 C 202.339844 42.425781 201.664062 41.71875 200.933594 41.0625 C 200.203125 40.40625 199.425781 39.804688 198.609375 39.261719 C 197.789062 38.71875 196.9375 38.234375 196.046875 37.816406 C 195.160156 37.398438 194.246094 37.046875 193.304688 36.765625 C 192.363281 36.480469 191.40625 36.265625 190.433594 36.121094 C 189.460938 35.980469 188.484375 35.90625 187.503906 35.90625 C 186.519531 35.90625 185.542969 35.980469 184.570312 36.121094 C 183.597656 36.265625 182.640625 36.480469 181.703125 36.765625 C 180.761719 37.046875 179.847656 37.398438 178.957031 37.816406 C 178.066406 38.234375 177.214844 38.71875 176.394531 39.261719 C 175.578125 39.804688 174.804688 40.40625 174.074219 41.0625 C 173.34375 41.71875 172.664062 42.425781 172.039062 43.183594 C 171.410156 43.941406 170.84375 44.742188 170.335938 45.582031 C 169.828125 46.421875 169.382812 47.292969 169 48.199219 C 168.433594 47.277344 167.792969 46.40625 167.082031 45.589844 C 166.375 44.769531 165.601562 44.015625 164.769531 43.320312 C 163.9375 42.628906 163.054688 42.007812 162.121094 41.457031 C 161.1875 40.90625 160.214844 40.4375 159.207031 40.042969 C 158.195312 39.652344 157.160156 39.34375 156.101562 39.121094 C 155.042969 38.894531 153.96875 38.757812 152.886719 38.707031 C 151.804688 38.65625 150.726562 38.695312 149.652344 38.820312 C 148.574219 38.945312 147.515625 39.15625 146.472656 39.449219 C 145.433594 39.746094 144.421875 40.125 143.441406 40.585938 C 142.460938 41.046875 141.523438 41.585938 140.628906 42.199219 C 139.734375 42.808594 138.898438 43.492188 138.113281 44.238281 C 137.332031 44.988281 136.613281 45.796875 135.960938 46.660156 C 135.3125 47.527344 134.734375 48.4375 134.230469 49.398438 C 133.726562 50.355469 133.300781 51.351562 132.960938 52.378906 C 132.617188 53.40625 132.359375 54.453125 132.1875 55.523438 C 132.015625 56.59375 131.929688 57.667969 131.933594 58.753906 C 131.933594 58.949219 131.984375 59.128906 131.988281 59.324219 C 128.898438 57.492188 125.558594 56.566406 121.964844 56.546875 C 121.199219 56.539062 120.433594 56.574219 119.671875 56.652344 C 118.90625 56.730469 118.152344 56.855469 117.402344 57.019531 C 116.652344 57.1875 115.914062 57.398438 115.191406 57.652344 C 114.464844 57.902344 113.757812 58.199219 113.070312 58.53125 C 112.378906 58.867188 111.710938 59.242188 111.0625 59.652344 C 110.414062 60.066406 109.792969 60.515625 109.199219 61 C 108.605469 61.484375 108.039062 62.003906 107.503906 62.550781 C 106.96875 63.101562 106.46875 63.683594 106 64.289062 C 105.53125 64.898438 105.101562 65.53125 104.707031 66.191406 C 104.316406 66.851562 103.960938 67.53125 103.644531 68.230469 C 103.328125 68.929688 103.054688 69.644531 102.824219 70.375 C 102.59375 71.109375 102.402344 71.851562 102.257812 72.605469 C 102.113281 73.359375 102.011719 74.117188 101.953125 74.882812 C 101.898438 75.648438 101.882812 76.414062 101.914062 77.179688 C 101.949219 77.949219 102.023438 78.710938 102.144531 79.46875 C 102.261719 80.226562 102.425781 80.972656 102.632812 81.714844 C 102.105469 81.671875 101.597656 81.554688 101.058594 81.554688 C 100.101562 81.550781 99.144531 81.613281 98.199219 81.746094 C 97.25 81.878906 96.3125 82.078125 95.394531 82.347656 C 94.472656 82.613281 93.578125 82.945312 92.707031 83.339844 C 91.832031 83.738281 90.992188 84.195312 90.1875 84.710938 C 89.378906 85.226562 88.613281 85.800781 87.890625 86.425781 C 87.167969 87.054688 86.492188 87.730469 85.863281 88.453125 C 85.238281 89.179688 84.664062 89.945312 84.148438 90.75 C 83.628906 91.558594 83.175781 92.398438 82.777344 93.269531 C 82.382812 94.140625 82.050781 95.039062 81.78125 95.957031 C 81.515625 96.878906 81.316406 97.8125 81.183594 98.761719 C 81.050781 99.710938 80.984375 100.664062 80.992188 101.621094 C 80.996094 102.578125 81.066406 103.53125 81.210938 104.480469 C 81.351562 105.425781 81.558594 106.359375 81.835938 107.277344 C 82.109375 108.195312 82.449219 109.085938 82.855469 109.957031 C 83.257812 110.824219 83.722656 111.660156 84.246094 112.460938 C 84.773438 113.261719 85.351562 114.023438 85.984375 114.742188 C 84.496094 115.765625 83.167969 116.964844 82.003906 118.347656 C 80.839844 119.726562 79.878906 121.238281 79.125 122.878906 C 78.367188 124.519531 77.84375 126.230469 77.550781 128.015625 C 77.257812 129.796875 77.207031 131.585938 77.398438 133.382812 C 77.589844 135.179688 78.015625 136.917969 78.675781 138.597656 C 79.335938 140.28125 80.207031 141.84375 81.292969 143.289062 C 82.375 144.734375 83.632812 146.007812 85.0625 147.113281 C 86.488281 148.21875 88.039062 149.117188 89.710938 149.804688 C 88.75 151.105469 87.957031 152.503906 87.324219 153.996094 C 84.628906 153.617188 82.042969 153.988281 79.5625 155.113281 C 78.703125 155.503906 77.890625 155.976562 77.125 156.527344 C 76.359375 157.082031 75.652344 157.703125 75.007812 158.390625 C 74.367188 159.082031 73.796875 159.828125 73.296875 160.632812 C 72.800781 161.4375 72.386719 162.28125 72.058594 163.164062 C 71.726562 164.050781 71.484375 164.957031 71.332031 165.890625 C 71.179688 166.820312 71.121094 167.757812 71.15625 168.703125 C 71.1875 169.648438 71.3125 170.578125 71.527344 171.5 C 71.746094 172.417969 72.050781 173.308594 72.441406 174.167969 C 72.601562 174.519531 72.828125 174.816406 73.011719 175.148438 C 72.316406 175.261719 71.628906 175.425781 70.957031 175.640625 C 70.285156 175.855469 69.628906 176.117188 68.996094 176.429688 C 68.363281 176.742188 67.753906 177.097656 67.171875 177.5 C 66.59375 177.902344 66.042969 178.347656 65.527344 178.828125 C 65.015625 179.3125 64.539062 179.832031 64.097656 180.386719 C 63.660156 180.941406 63.265625 181.523438 62.914062 182.136719 C 62.5625 182.75 62.257812 183.386719 62 184.046875 C 61.746094 184.703125 61.539062 185.378906 61.382812 186.066406 C 61.222656 186.753906 61.117188 187.453125 61.066406 188.15625 C 61.011719 188.863281 61.011719 189.566406 61.0625 190.269531 C 61.113281 190.976562 61.214844 191.671875 61.371094 192.363281 C 61.527344 193.050781 61.730469 193.726562 61.984375 194.386719 C 62.242188 195.046875 62.542969 195.679688 62.890625 196.296875 C 63.242188 196.910156 63.636719 197.496094 64.070312 198.050781 C 64.507812 198.605469 64.984375 199.128906 65.496094 199.613281 C 66.011719 200.097656 66.558594 200.542969 67.136719 200.945312 C 67.007812 201 66.875 201.019531 66.746094 201.078125 C 66.039062 201.402344 65.363281 201.777344 64.71875 202.207031 C 64.070312 202.636719 63.464844 203.117188 62.894531 203.644531 C 62.328125 204.175781 61.804688 204.746094 61.328125 205.359375 C 60.851562 205.972656 60.429688 206.621094 60.058594 207.304688 C 59.6875 207.984375 59.375 208.695312 59.121094 209.425781 C 58.863281 210.160156 58.667969 210.910156 58.535156 211.671875 C 58.402344 212.4375 58.328125 213.210938 58.320312 213.984375 C 58.3125 214.761719 58.363281 215.535156 58.480469 216.300781 C 58.597656 217.070312 58.773438 217.824219 59.011719 218.5625 C 59.25 219.300781 59.546875 220.015625 59.902344 220.707031 C 60.257812 221.398438 60.664062 222.054688 61.125 222.679688 C 61.589844 223.304688 62.097656 223.886719 62.652344 224.429688 C 63.207031 224.972656 63.804688 225.464844 64.441406 225.910156 C 65.078125 226.355469 65.746094 226.746094 66.445312 227.082031 C 67.144531 227.421875 67.867188 227.699219 68.613281 227.917969 C 69.355469 228.136719 70.113281 228.296875 70.882812 228.394531 C 70.40625 228.910156 69.96875 229.460938 69.574219 230.042969 C 69.175781 230.625 68.824219 231.230469 68.515625 231.863281 C 68.207031 232.5 67.949219 233.152344 67.738281 233.824219 C 67.527344 234.496094 67.363281 235.179688 67.253906 235.875 C 67.140625 236.570312 67.082031 237.269531 67.074219 237.972656 C 67.0625 238.675781 67.105469 239.378906 67.203125 240.074219 C 67.296875 240.773438 67.441406 241.460938 67.636719 242.136719 C 67.832031 242.8125 68.074219 243.472656 68.367188 244.113281 C 68.660156 244.753906 68.996094 245.371094 69.378906 245.960938 C 69.761719 246.554688 70.183594 247.113281 70.648438 247.640625 C 71.113281 248.171875 71.617188 248.664062 72.152344 249.121094 C 72.691406 249.574219 73.257812 249.988281 73.855469 250.359375 C 74.453125 250.734375 75.074219 251.058594 75.722656 251.339844 C 76.367188 251.621094 77.03125 251.851562 77.710938 252.035156 C 78.390625 252.21875 79.078125 252.351562 79.777344 252.433594 C 80.476562 252.515625 81.179688 252.546875 81.882812 252.527344 C 81.449219 253.171875 81.074219 253.847656 80.75 254.554688 C 80.429688 255.261719 80.164062 255.988281 79.960938 256.738281 C 79.753906 257.484375 79.613281 258.246094 79.53125 259.019531 C 79.449219 259.789062 79.433594 260.5625 79.476562 261.339844 C 79.519531 262.113281 79.628906 262.882812 79.796875 263.640625 C 79.964844 264.398438 80.195312 265.136719 80.484375 265.855469 C 80.773438 266.578125 81.117188 267.269531 81.519531 267.933594 C 81.917969 268.601562 82.371094 269.226562 82.875 269.820312 C 83.378906 270.410156 83.925781 270.957031 84.515625 271.460938 C 85.109375 271.960938 85.738281 272.414062 86.402344 272.8125 C 87.066406 273.214844 87.761719 273.558594 88.480469 273.847656 C 89.203125 274.136719 89.941406 274.363281 90.699219 274.53125 C 91.457031 274.699219 92.226562 274.804688 93 274.847656 C 93.777344 274.890625 94.550781 274.871094 95.320312 274.789062 C 96.09375 274.707031 96.855469 274.566406 97.601562 274.359375 C 98.351562 274.15625 99.078125 273.890625 99.785156 273.566406 C 99.914062 273.507812 100.015625 273.421875 100.140625 273.359375 C 99.863281 275.917969 100.253906 278.371094 101.308594 280.722656 C 101.53125 281.222656 101.78125 281.714844 102.058594 282.1875 C 102.335938 282.660156 102.644531 283.117188 102.972656 283.558594 C 103.304688 283.996094 103.660156 284.414062 104.042969 284.8125 C 104.421875 285.210938 104.824219 285.582031 105.246094 285.933594 C 105.671875 286.285156 106.113281 286.609375 106.574219 286.910156 C 107.035156 287.210938 107.515625 287.480469 108.007812 287.726562 C 108.5 287.96875 109.003906 288.183594 109.523438 288.371094 C 110.042969 288.554688 110.566406 288.710938 111.105469 288.832031 C 111.640625 288.957031 112.179688 289.050781 112.726562 289.109375 C 113.273438 289.171875 113.824219 289.203125 114.375 289.199219 C 114.921875 289.195312 115.472656 289.160156 116.015625 289.09375 C 116.5625 289.027344 117.105469 288.929688 117.636719 288.800781 C 118.171875 288.671875 118.699219 288.515625 119.214844 288.324219 C 119.730469 288.132812 120.234375 287.914062 120.726562 287.664062 C 121.214844 287.417969 121.691406 287.140625 122.148438 286.835938 C 122.609375 286.535156 123.046875 286.203125 123.46875 285.847656 C 123.601562 286.207031 123.671875 286.570312 123.832031 286.925781 C 124.398438 288.183594 125.132812 289.335938 126.03125 290.382812 C 126.933594 291.429688 127.964844 292.328125 129.121094 293.074219 C 130.28125 293.824219 131.523438 294.394531 132.847656 294.78125 C 134.171875 295.171875 135.527344 295.367188 136.90625 295.363281 C 138.285156 295.363281 139.640625 295.164062 140.960938 294.773438 C 142.285156 294.378906 143.527344 293.804688 144.683594 293.054688 C 145.84375 292.304688 146.871094 291.402344 147.765625 290.355469 C 148.664062 289.304688 149.394531 288.148438 149.957031 286.890625 C 151.066406 287.558594 152.246094 288.066406 153.492188 288.414062 C 154.738281 288.761719 156.011719 288.941406 157.304688 288.945312 C 158.597656 288.949219 159.871094 288.785156 161.121094 288.445312 C 162.371094 288.105469 163.554688 287.609375 164.667969 286.949219 C 165.78125 286.292969 166.789062 285.496094 167.691406 284.566406 C 168.589844 283.636719 169.351562 282.601562 169.972656 281.464844 C 170.589844 280.328125 171.050781 279.128906 171.347656 277.871094 C 171.644531 276.609375 171.765625 275.332031 171.71875 274.039062 C 172.480469 274.214844 173.253906 274.328125 174.035156 274.378906 C 174.820312 274.425781 175.601562 274.410156 176.378906 274.328125 C 177.160156 274.246094 177.925781 274.101562 178.679688 273.890625 C 179.4375 273.683594 180.167969 273.410156 180.878906 273.082031 C 181.589844 272.75 182.269531 272.359375 182.914062 271.917969 C 183.558594 271.472656 184.164062 270.976562 184.726562 270.433594 C 185.289062 269.886719 185.804688 269.300781 186.269531 268.667969 C 186.734375 268.039062 187.144531 267.375 187.5 266.675781 C 187.855469 267.375 188.265625 268.039062 188.730469 268.667969 C 189.195312 269.300781 189.710938 269.886719 190.273438 270.433594 C 190.835938 270.976562 191.441406 271.472656 192.085938 271.917969 C 192.734375 272.363281 193.410156 272.75 194.121094 273.082031 C 194.832031 273.414062 195.566406 273.683594 196.320312 273.890625 C 197.078125 274.101562 197.84375 274.246094 198.625 274.328125 C 199.402344 274.410156 200.183594 274.425781 200.96875 274.378906 C 201.75 274.328125 202.523438 274.214844 203.285156 274.039062 C 203.238281 275.332031 203.359375 276.609375 203.65625 277.871094 C 203.953125 279.128906 204.414062 280.328125 205.03125 281.464844 C 205.652344 282.601562 206.414062 283.632812 207.3125 284.566406 C 208.214844 285.496094 209.222656 286.289062 210.335938 286.949219 C 211.449219 287.609375 212.632812 288.105469 213.882812 288.445312 C 215.132812 288.785156 216.40625 288.949219 217.699219 288.945312 C 218.992188 288.941406 220.265625 288.761719 221.511719 288.414062 C 222.757812 288.066406 223.9375 287.554688 225.046875 286.890625 C 225.609375 288.148438 226.339844 289.304688 227.238281 290.351562 C 228.132812 291.402344 229.164062 292.300781 230.320312 293.054688 C 231.476562 293.804688 232.71875 294.378906 234.042969 294.769531 C 235.367188 295.164062 236.71875 295.359375 238.097656 295.363281 C 239.476562 295.363281 240.832031 295.171875 242.15625 294.78125 C 243.480469 294.390625 244.722656 293.820312 245.882812 293.074219 C 247.042969 292.324219 248.070312 291.425781 248.972656 290.378906 C 249.871094 289.332031 250.605469 288.179688 251.171875 286.921875 C 251.332031 286.570312 251.40625 286.203125 251.535156 285.847656 C 252.078125 286.300781 252.652344 286.707031 253.257812 287.074219 C 253.859375 287.441406 254.488281 287.761719 255.140625 288.039062 C 255.789062 288.3125 256.460938 288.535156 257.144531 288.710938 C 257.828125 288.882812 258.523438 289.007812 259.226562 289.078125 C 259.929688 289.152344 260.632812 289.171875 261.339844 289.136719 C 262.046875 289.105469 262.746094 289.019531 263.4375 288.882812 C 264.132812 288.746094 264.8125 288.558594 265.476562 288.320312 C 266.140625 288.082031 266.785156 287.796875 267.410156 287.460938 C 268.03125 287.128906 268.625 286.75 269.195312 286.328125 C 269.761719 285.90625 270.292969 285.445312 270.792969 284.945312 C 271.289062 284.445312 271.75 283.910156 272.167969 283.339844 C 272.585938 282.769531 272.960938 282.171875 273.289062 281.546875 C 273.621094 280.921875 273.902344 280.277344 274.136719 279.609375 C 274.371094 278.945312 274.554688 278.265625 274.6875 277.570312 C 274.820312 276.875 274.902344 276.175781 274.933594 275.46875 C 274.960938 274.761719 274.9375 274.058594 274.863281 273.355469 C 274.988281 273.417969 275.089844 273.503906 275.21875 273.5625 C 275.925781 273.886719 276.652344 274.152344 277.402344 274.355469 C 278.148438 274.5625 278.910156 274.707031 279.683594 274.789062 C 280.453125 274.871094 281.226562 274.890625 282.003906 274.847656 C 282.777344 274.800781 283.546875 274.695312 284.304688 274.527344 C 285.0625 274.359375 285.800781 274.132812 286.523438 273.84375 C 287.242188 273.554688 287.9375 273.210938 288.601562 272.8125 C 289.265625 272.410156 289.894531 271.960938 290.488281 271.457031 C 291.078125 270.953125 291.625 270.40625 292.128906 269.816406 C 292.632812 269.226562 293.085938 268.597656 293.484375 267.933594 C 293.886719 267.269531 294.230469 266.574219 294.519531 265.855469 C 294.808594 265.132812 295.039062 264.394531 295.207031 263.636719 C 295.375 262.878906 295.484375 262.113281 295.527344 261.335938 C 295.570312 260.5625 295.554688 259.789062 295.472656 259.015625 C 295.390625 258.242188 295.25 257.484375 295.042969 256.734375 C 294.839844 255.984375 294.574219 255.257812 294.253906 254.550781 C 293.929688 253.84375 293.554688 253.167969 293.121094 252.523438 C 293.824219 252.546875 294.527344 252.515625 295.226562 252.433594 C 295.925781 252.351562 296.613281 252.21875 297.292969 252.035156 C 297.972656 251.851562 298.636719 251.617188 299.285156 251.335938 C 299.929688 251.058594 300.550781 250.730469 301.148438 250.359375 C 301.746094 249.984375 302.3125 249.570312 302.851562 249.117188 C 303.386719 248.660156 303.890625 248.167969 304.355469 247.640625 C 304.820312 247.109375 305.242188 246.550781 305.625 245.960938 C 306.007812 245.367188 306.34375 244.753906 306.636719 244.109375 C 306.929688 243.46875 307.171875 242.8125 307.367188 242.136719 C 307.5625 241.457031 307.707031 240.769531 307.800781 240.074219 C 307.898438 239.375 307.941406 238.675781 307.929688 237.96875 C 307.921875 237.265625 307.863281 236.566406 307.75 235.871094 C 307.640625 235.175781 307.480469 234.492188 307.265625 233.820312 C 307.054688 233.148438 306.796875 232.496094 306.488281 231.863281 C 306.179688 231.230469 305.828125 230.621094 305.429688 230.039062 C 305.035156 229.457031 304.597656 228.90625 304.121094 228.390625 C 304.890625 228.292969 305.648438 228.136719 306.390625 227.914062 C 307.136719 227.695312 307.859375 227.417969 308.558594 227.082031 C 309.257812 226.746094 309.925781 226.351562 310.5625 225.90625 C 311.199219 225.460938 311.796875 224.96875 312.351562 224.425781 C 312.90625 223.886719 313.414062 223.300781 313.878906 222.675781 C 314.339844 222.050781 314.746094 221.394531 315.101562 220.703125 C 315.457031 220.011719 315.753906 219.296875 315.992188 218.558594 C 316.230469 217.820312 316.40625 217.066406 316.523438 216.300781 C 316.640625 215.53125 316.691406 214.757812 316.683594 213.984375 C 316.675781 213.207031 316.601562 212.4375 316.46875 211.671875 C 316.335938 210.90625 316.140625 210.15625 315.882812 209.425781 C 315.628906 208.691406 315.316406 207.984375 314.945312 207.300781 C 314.574219 206.617188 314.152344 205.96875 313.675781 205.355469 C 313.199219 204.742188 312.679688 204.171875 312.109375 203.644531 C 311.539062 203.113281 310.933594 202.632812 310.285156 202.203125 C 309.640625 201.773438 308.964844 201.398438 308.257812 201.078125 Z M 308.253906 201.078125 " fill-opacity="1" fill-rule="nonzero"/><path fill="#ba6e5a" d="M 327.359375 310.742188 C 318.171875 321.09375 307.96875 330.3125 296.746094 338.40625 C 285.523438 346.5 273.550781 353.269531 260.832031 358.71875 C 252.539062 362.222656 244.042969 365.136719 235.34375 367.460938 C 230.738281 368.660156 226.132812 369.730469 221.398438 370.53125 C 210.195312 372.621094 198.894531 373.664062 187.5 373.664062 C 176.105469 373.664062 164.804688 372.621094 153.601562 370.53125 C 148.867188 369.730469 144.261719 368.660156 139.65625 367.460938 C 130.957031 365.136719 122.460938 362.222656 114.167969 358.71875 C 101.449219 353.269531 89.476562 346.5 78.253906 338.40625 C 67.03125 330.3125 56.828125 321.09375 47.640625 310.742188 C 49.285156 308.230469 51.296875 306.058594 53.675781 304.230469 C 56.058594 302.398438 58.671875 301.011719 61.519531 300.066406 L 105.09375 285.71875 L 110.832031 283.785156 L 135.585938 275.644531 L 136.789062 275.246094 L 138.257812 274.777344 L 143.527344 273.042969 L 147.53125 271.707031 L 160.609375 267.371094 L 160.742188 253.558594 L 160.808594 248.488281 L 214.191406 248.488281 L 214.191406 267.171875 L 227.46875 271.574219 L 232.472656 273.242188 L 236.742188 274.644531 L 238.210938 275.109375 L 239.414062 275.511719 L 264.101562 283.71875 L 269.972656 285.652344 L 313.480469 300.066406 C 316.328125 301.011719 318.941406 302.398438 321.324219 304.230469 C 323.703125 306.058594 325.714844 308.230469 327.359375 310.742188 Z M 327.359375 310.742188 " fill-opacity="1" fill-rule="nonzero"/><path fill="#212121" d="M 327.359375 310.742188 C 318.171875 321.09375 307.96875 330.3125 296.746094 338.40625 C 285.523438 346.5 273.550781 353.269531 260.832031 358.71875 C 252.539062 362.222656 244.042969 365.136719 235.34375 367.460938 C 230.738281 368.660156 226.132812 369.730469 221.398438 370.53125 C 210.195312 372.621094 198.894531 373.664062 187.5 373.664062 C 176.105469 373.664062 164.804688 372.621094 153.601562 370.53125 C 148.867188 369.730469 144.261719 368.660156 139.65625 367.460938 C 130.957031 365.136719 122.460938 362.222656 114.167969 358.71875 C 101.449219 353.269531 89.476562 346.5 78.253906 338.40625 C 67.03125 330.3125 56.828125 321.09375 47.640625 310.742188 C 49.285156 308.230469 51.296875 306.058594 53.675781 304.230469 C 56.058594 302.398438 58.671875 301.011719 61.519531 300.066406 L 105.09375 285.71875 L 110.832031 283.785156 L 135.585938 275.644531 L 135.121094 288.324219 L 135.121094 288.390625 L 134.851562 295.195312 L 134.050781 316.882812 L 147.332031 321.550781 L 162.011719 326.691406 L 162.476562 326.890625 L 187.5 335.632812 L 212.523438 326.890625 L 212.988281 326.691406 L 227.667969 321.550781 L 240.949219 316.882812 L 240.148438 295.195312 L 239.878906 288.121094 L 239.414062 275.511719 L 264.101562 283.71875 L 269.972656 285.652344 L 313.480469 300.066406 C 316.328125 301.011719 318.941406 302.398438 321.324219 304.230469 C 323.703125 306.058594 325.714844 308.230469 327.359375 310.742188 Z M 327.359375 310.742188 " fill-opacity="1" fill-rule="nonzero"/><path fill="#697f87" d="M 187.5 326.230469 L 180.828125 298.578125 L 154.136719 285.59375 Z M 187.5 326.230469 " fill-opacity="1" fill-rule="nonzero"/><path fill="#697f87" d="M 187.5 326.230469 L 194.171875 298.578125 L 220.863281 285.59375 Z M 187.5 326.230469 " fill-opacity="1" fill-rule="nonzero"/><path fill="#cbcfd1" d="M 238.078125 358.183594 C 237.277344 361.386719 236.410156 364.457031 235.34375 367.460938 C 230.738281 368.660156 226.132812 369.730469 221.398438 370.53125 C 210.195312 372.621094 198.894531 373.664062 187.5 373.664062 C 176.105469 373.664062 164.804688 372.621094 153.601562 370.53125 C 148.867188 369.730469 144.261719 368.660156 139.65625 367.460938 C 138.589844 364.457031 137.722656 361.386719 136.921875 358.183594 C 132.933594 337.269531 132.109375 316.226562 134.453125 295.0625 C 134.652344 292.660156 134.851562 290.457031 135.121094 288.390625 L 135.121094 288.324219 C 135.789062 281.648438 136.519531 276.914062 136.789062 275.246094 L 138.257812 274.777344 L 143.527344 273.042969 L 144.328125 272.84375 L 147.128906 276.378906 L 154.9375 285.988281 L 157.339844 288.988281 L 157.40625 288.988281 L 173.886719 309.339844 L 187.5 326.222656 L 201.113281 309.339844 L 217.59375 288.988281 L 217.660156 288.988281 L 220.0625 285.988281 L 227.871094 276.3125 L 230.671875 272.84375 L 232.472656 273.242188 L 236.742188 274.644531 L 238.210938 275.109375 C 238.480469 276.710938 239.144531 281.449219 239.878906 288.121094 C 240.078125 290.257812 240.347656 292.59375 240.546875 295.0625 C 242.890625 316.226562 242.066406 337.269531 238.078125 358.183594 Z M 238.078125 358.183594 " fill-opacity="1" fill-rule="nonzero"/><path fill="#90a4ae" d="M 162.277344 327.230469 L 180.828125 298.578125 L 160.628906 267.378906 L 138.289062 274.75 Z M 162.277344 327.230469 " fill-opacity="1" fill-rule="nonzero"/><path fill="#90a4ae" d="M 236.75 274.664062 L 214.191406 267.203125 L 194.171875 298.578125 L 212.722656 327.230469 Z M 236.75 274.664062 " fill-opacity="1" fill-rule="nonzero"/><path fill="#464646" d="M 147.332031 321.550781 C 148.398438 338.007812 150.492188 354.335938 153.601562 370.53125 C 148.867188 369.730469 144.261719 368.660156 139.65625 367.460938 C 130.957031 365.136719 122.460938 362.222656 114.167969 358.71875 L 108.230469 352.648438 L 118.105469 326.957031 L 97.488281 309.410156 L 108.695312 287.921875 L 110.832031 283.785156 L 135.585938 275.644531 L 136.789062 275.246094 L 138.257812 274.777344 L 143.527344 273.042969 L 147.53125 271.707031 C 147.398438 273.242188 147.265625 274.777344 147.128906 276.378906 C 146.863281 281.25 146.664062 286.320312 146.597656 291.527344 C 146.53125 291.992188 146.53125 292.460938 146.597656 292.925781 C 146.464844 302.203125 146.796875 311.878906 147.332031 321.550781 Z M 147.332031 321.550781 " fill-opacity="1" fill-rule="nonzero"/><path fill="#464646" d="M 256.894531 326.957031 L 266.769531 352.648438 L 260.832031 358.71875 C 252.539062 362.222656 244.042969 365.136719 235.34375 367.460938 C 230.738281 368.660156 226.132812 369.730469 221.398438 370.53125 C 224.507812 354.335938 226.601562 338.007812 227.667969 321.550781 C 228.269531 311.808594 228.535156 302.136719 228.402344 292.859375 C 228.46875 292.414062 228.46875 291.96875 228.402344 291.527344 C 228.335938 286.320312 228.136719 281.183594 227.871094 276.3125 C 227.734375 274.710938 227.601562 273.109375 227.46875 271.574219 L 232.472656 273.242188 L 236.742188 274.644531 L 238.210938 275.109375 L 239.414062 275.511719 L 264.101562 283.71875 L 266.304688 287.921875 L 277.511719 309.410156 Z M 256.894531 326.957031 " fill-opacity="1" fill-rule="nonzero"/><path fill="#8e4a3c" d="M 287.1875 173.488281 C 287.1875 172.621094 287.144531 171.761719 287.058594 170.898438 C 286.972656 170.039062 286.847656 169.183594 286.679688 168.335938 C 286.507812 167.488281 286.300781 166.648438 286.050781 165.820312 C 285.800781 164.992188 285.511719 164.179688 285.183594 163.378906 C 284.851562 162.578125 284.484375 161.796875 284.082031 161.03125 C 283.675781 160.269531 283.234375 159.527344 282.757812 158.804688 C 282.28125 158.082031 281.769531 157.386719 281.226562 156.714844 C 280.679688 156.042969 280.105469 155.398438 279.496094 154.78125 C 278.890625 154.167969 278.253906 153.582031 277.589844 153.027344 C 276.925781 152.476562 276.234375 151.953125 275.519531 151.46875 C 274.804688 150.980469 274.070312 150.53125 273.308594 150.113281 C 272.550781 149.699219 271.773438 149.320312 270.980469 148.980469 C 270.183594 148.640625 269.375 148.339844 268.550781 148.078125 C 267.722656 147.820312 266.890625 147.597656 266.042969 147.417969 C 265.195312 147.238281 264.34375 147.101562 263.484375 147.003906 C 262.625 146.90625 261.761719 146.851562 260.898438 146.835938 L 260.898438 146.796875 L 247.554688 146.796875 L 247.554688 200.179688 L 260.898438 200.179688 L 260.898438 200.136719 C 261.761719 200.125 262.625 200.070312 263.484375 199.972656 C 264.34375 199.875 265.195312 199.738281 266.042969 199.554688 C 266.890625 199.375 267.722656 199.15625 268.550781 198.894531 C 269.375 198.632812 270.183594 198.332031 270.980469 197.992188 C 271.773438 197.652344 272.550781 197.277344 273.308594 196.859375 C 274.070312 196.445312 274.804688 195.996094 275.519531 195.507812 C 276.234375 195.019531 276.925781 194.5 277.589844 193.945312 C 278.253906 193.390625 278.890625 192.808594 279.496094 192.191406 C 280.105469 191.574219 280.679688 190.933594 281.226562 190.261719 C 281.769531 189.589844 282.28125 188.890625 282.757812 188.171875 C 283.234375 187.449219 283.675781 186.707031 284.082031 185.941406 C 284.484375 185.179688 284.851562 184.394531 285.183594 183.597656 C 285.511719 182.796875 285.800781 181.980469 286.050781 181.152344 C 286.300781 180.328125 286.507812 179.488281 286.679688 178.640625 C 286.847656 177.792969 286.972656 176.9375 287.058594 176.074219 C 287.144531 175.214844 287.1875 174.351562 287.1875 173.488281 Z M 287.1875 173.488281 " fill-opacity="1" fill-rule="nonzero"/><path fill="#8e4a3c" d="M 114.101562 146.796875 C 113.226562 146.796875 112.355469 146.839844 111.484375 146.925781 C 110.617188 147.011719 109.75 147.140625 108.894531 147.308594 C 108.035156 147.480469 107.191406 147.691406 106.355469 147.945312 C 105.515625 148.199219 104.695312 148.496094 103.886719 148.828125 C 103.078125 149.164062 102.289062 149.535156 101.519531 149.949219 C 100.75 150.359375 100 150.808594 99.273438 151.296875 C 98.546875 151.78125 97.84375 152.300781 97.167969 152.855469 C 96.492188 153.410156 95.847656 153.996094 95.226562 154.613281 C 94.609375 155.234375 94.023438 155.878906 93.46875 156.554688 C 92.914062 157.230469 92.394531 157.933594 91.910156 158.660156 C 91.421875 159.386719 90.976562 160.136719 90.5625 160.90625 C 90.152344 161.675781 89.777344 162.464844 89.441406 163.273438 C 89.109375 164.082031 88.8125 164.902344 88.558594 165.738281 C 88.304688 166.578125 88.09375 167.421875 87.925781 168.28125 C 87.753906 169.136719 87.625 170 87.539062 170.871094 C 87.453125 171.742188 87.410156 172.613281 87.410156 173.488281 C 87.410156 174.363281 87.453125 175.234375 87.539062 176.105469 C 87.625 176.972656 87.753906 177.835938 87.925781 178.695312 C 88.09375 179.550781 88.304688 180.398438 88.558594 181.234375 C 88.8125 182.070312 89.109375 182.894531 89.441406 183.703125 C 89.777344 184.507812 90.152344 185.296875 90.5625 186.070312 C 90.976562 186.839844 91.421875 187.589844 91.910156 188.316406 C 92.394531 189.042969 92.914062 189.742188 93.46875 190.417969 C 94.023438 191.09375 94.609375 191.742188 95.226562 192.359375 C 95.847656 192.980469 96.492188 193.566406 97.167969 194.121094 C 97.84375 194.675781 98.546875 195.195312 99.273438 195.679688 C 100 196.164062 100.75 196.613281 101.519531 197.027344 C 102.289062 197.4375 103.078125 197.8125 103.886719 198.144531 C 104.695312 198.480469 105.515625 198.773438 106.355469 199.027344 C 107.191406 199.28125 108.035156 199.496094 108.894531 199.664062 C 109.75 199.835938 110.617188 199.964844 111.484375 200.050781 C 112.355469 200.136719 113.226562 200.179688 114.101562 200.179688 L 127.445312 200.179688 L 127.445312 146.796875 Z M 114.101562 146.796875 " fill-opacity="1" fill-rule="nonzero"/><path fill="#8e4a3c" d="M 160.808594 248.507812 L 214.191406 248.507812 L 214.191406 266.902344 L 160.808594 266.902344 Z M 160.808594 248.507812 " fill-opacity="1" fill-rule="nonzero"/><path fill="#ba6e5a" d="M 115.488281 135.925781 C 119.324219 99.902344 128.085938 73.398438 187.5 73.398438 C 246.914062 73.398438 255.675781 99.902344 259.511719 135.925781 L 266.054688 197.417969 C 266.179688 198.277344 266.28125 199.140625 266.359375 200.007812 C 266.441406 200.871094 266.496094 201.738281 266.527344 202.609375 C 266.5625 203.476562 266.574219 204.347656 266.558594 205.214844 C 266.546875 206.085938 266.511719 206.953125 266.453125 207.820312 C 266.390625 208.6875 266.308594 209.550781 266.207031 210.414062 C 266.101562 211.277344 265.972656 212.136719 265.820312 212.992188 C 265.671875 213.851562 265.496094 214.703125 265.300781 215.546875 C 265.105469 216.394531 264.886719 217.238281 264.644531 218.070312 C 264.40625 218.90625 264.144531 219.734375 263.859375 220.558594 C 263.574219 221.378906 263.265625 222.191406 262.9375 222.996094 C 262.613281 223.800781 262.261719 224.597656 261.890625 225.382812 C 261.523438 226.171875 261.132812 226.945312 260.71875 227.710938 C 260.308594 228.476562 259.878906 229.230469 259.425781 229.976562 C 258.972656 230.71875 258.503906 231.449219 258.011719 232.167969 C 257.523438 232.882812 257.011719 233.589844 256.484375 234.277344 C 255.957031 234.96875 255.414062 235.644531 254.847656 236.308594 C 254.285156 236.96875 253.703125 237.617188 253.105469 238.246094 C 252.507812 238.878906 251.894531 239.492188 251.261719 240.089844 C 250.632812 240.6875 249.988281 241.269531 249.324219 241.835938 C 248.664062 242.398438 247.988281 242.945312 247.296875 243.472656 C 246.605469 244 245.902344 244.507812 245.183594 245 C 244.46875 245.492188 243.738281 245.960938 242.992188 246.414062 C 242.25 246.867188 241.496094 247.296875 240.730469 247.710938 C 239.964844 248.121094 239.191406 248.511719 238.402344 248.882812 C 237.617188 249.253906 236.820312 249.601562 236.015625 249.929688 C 235.210938 250.257812 234.398438 250.566406 233.578125 250.851562 C 232.757812 251.136719 231.929688 251.398438 231.09375 251.640625 C 230.257812 251.882812 229.417969 252.097656 228.570312 252.296875 C 227.722656 252.492188 226.871094 252.667969 226.015625 252.816406 C 225.160156 252.96875 224.300781 253.097656 223.4375 253.203125 C 222.574219 253.308594 221.710938 253.390625 220.84375 253.449219 C 219.976562 253.507812 219.105469 253.546875 218.238281 253.558594 L 156.761719 253.558594 C 155.894531 253.546875 155.023438 253.507812 154.15625 253.449219 C 153.289062 253.390625 152.425781 253.308594 151.5625 253.203125 C 150.699219 253.097656 149.839844 252.96875 148.984375 252.816406 C 148.128906 252.667969 147.277344 252.492188 146.429688 252.296875 C 145.582031 252.097656 144.742188 251.882812 143.90625 251.640625 C 143.070312 251.398438 142.242188 251.136719 141.421875 250.851562 C 140.601562 250.566406 139.789062 250.257812 138.984375 249.929688 C 138.179688 249.601562 137.382812 249.253906 136.597656 248.882812 C 135.808594 248.511719 135.035156 248.121094 134.269531 247.710938 C 133.503906 247.296875 132.75 246.867188 132.003906 246.414062 C 131.261719 245.960938 130.53125 245.492188 129.816406 245 C 129.097656 244.507812 128.394531 244 127.703125 243.472656 C 127.011719 242.945312 126.335938 242.398438 125.675781 241.835938 C 125.011719 241.269531 124.367188 240.6875 123.738281 240.089844 C 123.105469 239.492188 122.492188 238.878906 121.894531 238.246094 C 121.296875 237.617188 120.714844 236.96875 120.152344 236.308594 C 119.585938 235.644531 119.042969 234.96875 118.515625 234.277344 C 117.988281 233.589844 117.476562 232.882812 116.988281 232.167969 C 116.496094 231.449219 116.027344 230.71875 115.574219 229.976562 C 115.121094 229.230469 114.691406 228.476562 114.28125 227.710938 C 113.867188 226.945312 113.476562 226.171875 113.109375 225.382812 C 112.738281 224.597656 112.386719 223.800781 112.0625 222.996094 C 111.734375 222.191406 111.425781 221.378906 111.140625 220.558594 C 110.855469 219.734375 110.59375 218.90625 110.355469 218.070312 C 110.113281 217.238281 109.894531 216.394531 109.699219 215.546875 C 109.503906 214.703125 109.328125 213.851562 109.179688 212.992188 C 109.027344 212.136719 108.898438 211.277344 108.792969 210.414062 C 108.691406 209.550781 108.609375 208.6875 108.546875 207.820312 C 108.488281 206.953125 108.453125 206.085938 108.441406 205.214844 C 108.425781 204.347656 108.4375 203.476562 108.472656 202.609375 C 108.503906 201.738281 108.558594 200.871094 108.640625 200.007812 C 108.71875 199.140625 108.820312 198.277344 108.945312 197.417969 Z M 115.488281 135.925781 " fill-opacity="1" fill-rule="nonzero"/><path fill="#212121" d="M 256.488281 86.148438 C 246.480469 70.777344 228.847656 63.628906 200.84375 63.269531 C 172.84375 63.628906 128.519531 70.777344 118.511719 86.148438 C 108.5 101.519531 114.101562 157.640625 114.101562 157.640625 L 117.796875 157.28125 C 117.796875 157.28125 118.214844 131.265625 123.871094 129.042969 C 133.882812 125.109375 135.976562 111.171875 137.097656 105.449219 C 138.21875 99.730469 182.734375 94.371094 200.84375 94.371094 C 202.835938 94.371094 204.820312 94.445312 206.785156 94.570312 C 206.621094 95.464844 206.59375 96.363281 206.699219 97.269531 C 206.808594 98.171875 207.046875 99.039062 207.414062 99.871094 C 207.785156 100.703125 208.265625 101.464844 208.863281 102.152344 C 209.460938 102.835938 210.148438 103.421875 210.917969 103.902344 C 211.691406 104.382812 212.519531 104.738281 213.398438 104.972656 C 214.28125 105.203125 215.175781 105.300781 216.082031 105.261719 C 216.992188 105.226562 217.878906 105.054688 218.734375 104.75 C 219.59375 104.449219 220.386719 104.027344 221.121094 103.484375 C 221.121094 103.546875 221.101562 103.601562 221.101562 103.664062 C 221.097656 104.746094 221.242188 105.804688 221.53125 106.84375 C 221.820312 107.882812 222.246094 108.863281 222.804688 109.785156 C 223.363281 110.710938 224.035156 111.539062 224.824219 112.277344 C 225.613281 113.015625 226.484375 113.632812 227.441406 114.132812 C 228.398438 114.628906 229.40625 114.988281 230.460938 115.210938 C 231.515625 115.429688 232.582031 115.503906 233.660156 115.433594 C 234.738281 115.363281 235.785156 115.144531 236.800781 114.785156 C 237.816406 114.425781 238.769531 113.9375 239.648438 113.316406 C 239.9375 114.980469 240.414062 116.589844 241.070312 118.140625 C 241.730469 119.695312 242.558594 121.15625 243.550781 122.519531 C 244.546875 123.882812 245.683594 125.117188 246.964844 126.21875 C 248.242188 127.320312 249.632812 128.261719 251.128906 129.046875 C 256.785156 131.265625 257.203125 157.285156 257.203125 157.285156 L 260.898438 157.640625 C 260.898438 157.640625 266.5 101.519531 256.488281 86.148438 Z M 256.488281 86.148438 " fill-opacity="1" fill-rule="nonzero"/></svg>