<svg xmlns="http://www.w3.org/2000/svg" xmlns:xlink="http://www.w3.org/1999/xlink" width="500" zoomAndPan="magnify" viewBox="0 0 375 374.999991" height="500" preserveAspectRatio="xMidYMid meet" version="1.0"><path fill="#d0f0e4" d="M 370.554688 288.347656 L 4.007812 288.347656 L 69.804688 249.441406 L 305.761719 249.441406 Z M 370.554688 288.347656 " fill-opacity="1" fill-rule="nonzero"/><path stroke-linecap="butt" transform="matrix(0.097798, 0, 0, 0.0979286, -57.214401, -5.047045)" fill-opacity="1" fill="#ffffff" fill-rule="nonzero" stroke-linejoin="miter" d="M 2774.888157 1053.703366 L 2100.586797 1053.703366 L 2100.586797 663.790683 C 2100.586797 637.384321 2121.995725 616.003942 2148.397407 616.003942 L 2727.117488 616.003942 C 2753.51917 616.003942 2774.888157 637.384321 2774.888157 663.790683 Z M 2774.888157 1053.703366 " stroke="#66b0f0" stroke-width="6" stroke-opacity="1" stroke-miterlimit="10"/><path fill="#66b0f0" d="M 209.1875 95.652344 L 153.472656 95.652344 C 152.003906 95.652344 150.8125 94.457031 150.8125 92.988281 L 150.8125 60.261719 C 150.8125 58.792969 152.003906 57.597656 153.472656 57.597656 L 209.1875 57.597656 C 210.652344 57.597656 211.847656 58.792969 211.847656 60.261719 L 211.847656 93 C 211.847656 94.46875 210.652344 95.652344 209.1875 95.652344 Z M 209.1875 95.652344 " fill-opacity="1" fill-rule="nonzero"/><path stroke-linecap="butt" transform="matrix(0.097798, 0, 0, 0.0979286, -57.214401, -5.047045)" fill-opacity="1" fill="#66b0f0" fill-rule="nonzero" stroke-linejoin="miter" d="M 2893.116567 1145.208194 C 2918.919119 1162.001364 2912.887872 1194.909596 2882.412103 1194.909596 L 1963.785342 1194.909596 C 1938.102617 1194.909596 1929.31537 1160.20637 1954.518791 1144.290752 Z M 2893.116567 1145.208194 " stroke="#66b0f0" stroke-width="6" stroke-opacity="1" stroke-miterlimit="10"/><path stroke-linecap="butt" transform="matrix(0.097798, 0, 0, 0.0979286, -57.214401, -5.047045)" fill-opacity="1" fill="#ffffff" fill-rule="nonzero" stroke-linejoin="miter" d="M 2882.412103 1172.013444 L 1963.785342 1172.013444 C 1947.40911 1172.013444 1940.898559 1152.707282 1954.518791 1144.290752 L 2100.786507 1053.703366 L 2773.010881 1053.703366 L 2892.996741 1145.208194 C 2905.019292 1154.302832 2897.989495 1172.013444 2882.412103 1172.013444 Z M 2882.412103 1172.013444 " stroke="#66b0f0" stroke-width="6" stroke-opacity="1" stroke-miterlimit="10"/><path stroke-linecap="butt" transform="matrix(0.097798, 0, 0, 0.0979286, -57.214401, -5.047045)" fill-opacity="1" fill="#ffffff" fill-rule="nonzero" stroke-linejoin="miter" d="M 2776.405954 1144.68964 L 2069.791491 1144.68964 C 2057.209752 1144.68964 2052.216998 1129.81113 2062.601926 1123.389039 L 2164.214452 1053.703366 L 2692.208153 1053.703366 L 2784.514186 1124.107037 C 2793.780737 1131.087571 2788.388563 1144.68964 2776.405954 1144.68964 Z M 2776.405954 1144.68964 " stroke="#66b0f0" stroke-width="6" stroke-opacity="1" stroke-miterlimit="10"/><path stroke-linecap="butt" transform="matrix(0.097798, 0, 0, 0.0979286, -57.214401, -5.047045)" fill="none" stroke-linejoin="miter" d="M 2646.51447 1053.703366 L 2738.900387 1144.68964 " stroke="#66b0f0" stroke-width="6" stroke-opacity="1" stroke-miterlimit="10"/><path stroke-linecap="butt" transform="matrix(0.097798, 0, 0, 0.0979286, -57.214401, -5.047045)" fill="none" stroke-linejoin="miter" d="M 2597.505599 1053.703366 L 2678.907457 1144.68964 " stroke="#66b0f0" stroke-width="6" stroke-opacity="1" stroke-miterlimit="10"/><path stroke-linecap="butt" transform="matrix(0.097798, 0, 0, 0.0979286, -57.214401, -5.047045)" fill="none" stroke-linejoin="miter" d="M 2551.69209 1053.703366 L 2622.3096 1144.68964 " stroke="#66b0f0" stroke-width="6" stroke-opacity="1" stroke-miterlimit="10"/><path stroke-linecap="butt" transform="matrix(0.097798, 0, 0, 0.0979286, -57.214401, -5.047045)" fill="none" stroke-linejoin="miter" d="M 2500.486407 1053.703366 L 2560.199742 1144.68964 " stroke="#66b0f0" stroke-width="6" stroke-opacity="1" stroke-miterlimit="10"/><path stroke-linecap="butt" transform="matrix(0.097798, 0, 0, 0.0979286, -57.214401, -5.047045)" fill="none" stroke-linejoin="miter" d="M 2457.988086 1053.703366 L 2487.105827 1144.68964 " stroke="#66b0f0" stroke-width="6" stroke-opacity="1" stroke-miterlimit="10"/><path stroke-linecap="butt" transform="matrix(0.097798, 0, 0, 0.0979286, -57.214401, -5.047045)" fill="none" stroke-linejoin="miter" d="M 2207.112192 1053.703366 L 2114.686334 1144.68964 " stroke="#66b0f0" stroke-width="6" stroke-opacity="1" stroke-miterlimit="10"/><path stroke-linecap="butt" transform="matrix(0.097798, 0, 0, 0.0979286, -57.214401, -5.047045)" fill="none" stroke-linejoin="miter" d="M 2256.081122 1053.703366 L 2174.719206 1144.68964 " stroke="#66b0f0" stroke-width="6" stroke-opacity="1" stroke-miterlimit="10"/><path stroke-linecap="butt" transform="matrix(0.097798, 0, 0, 0.0979286, -57.214401, -5.047045)" fill="none" stroke-linejoin="miter" d="M 2301.894631 1053.703366 L 2231.317063 1144.68964 " stroke="#66b0f0" stroke-width="6" stroke-opacity="1" stroke-miterlimit="10"/><path stroke-linecap="butt" transform="matrix(0.097798, 0, 0, 0.0979286, -57.214401, -5.047045)" fill="none" stroke-linejoin="miter" d="M 2353.100314 1053.703366 L 2293.386978 1144.68964 " stroke="#66b0f0" stroke-width="6" stroke-opacity="1" stroke-miterlimit="10"/><path stroke-linecap="butt" transform="matrix(0.097798, 0, 0, 0.0979286, -57.214401, -5.047045)" fill="none" stroke-linejoin="miter" d="M 2395.598635 1053.703366 L 2366.480894 1144.68964 " stroke="#66b0f0" stroke-width="6" stroke-opacity="1" stroke-miterlimit="10"/><path stroke-linecap="butt" transform="matrix(0.097798, 0, 0, 0.0979286, -57.214401, -5.047045)" fill="none" stroke-linejoin="miter" d="M 2424.396839 1145.806525 L 2424.396839 1053.703366 " stroke="#66b0f0" stroke-width="6" stroke-opacity="1" stroke-miterlimit="10"/><path stroke-linecap="butt" transform="matrix(0.097798, 0, 0, 0.0979286, -57.214401, -5.047045)" fill="none" stroke-linejoin="miter" d="M 2114.686334 1087.688594 L 2736.903286 1087.688594 " stroke="#66b0f0" stroke-width="6" stroke-opacity="1" stroke-miterlimit="10"/><path fill="#ffcf2d" d="M 204.550781 95.652344 L 155.074219 95.652344 L 155.964844 89.335938 C 156.511719 85.449219 159.300781 82.257812 163.066406 81.179688 L 175.125 78.671875 L 184.503906 78.671875 L 196.5625 81.179688 C 200.335938 82.246094 203.125 85.449219 203.660156 89.335938 Z M 204.550781 95.652344 " fill-opacity="1" fill-rule="nonzero"/><path fill="#ffffff" d="M 183.152344 85.890625 L 179.582031 82.277344 C 179.503906 82.199219 179.503906 82.070312 179.582031 82 C 179.660156 81.921875 179.789062 81.921875 179.859375 82 L 183.132812 85.320312 L 188.21875 79.554688 C 188.289062 79.476562 188.414062 79.464844 188.492188 79.535156 C 188.570312 79.601562 188.582031 79.730469 188.511719 79.808594 Z M 183.152344 85.890625 " fill-opacity="1" fill-rule="nonzero"/><path fill="#ffffff" d="M 176.523438 85.890625 L 171.164062 79.808594 C 171.09375 79.730469 171.09375 79.601562 171.183594 79.535156 C 171.261719 79.464844 171.386719 79.464844 171.457031 79.554688 L 176.542969 85.320312 L 179.820312 82 C 179.898438 81.921875 180.015625 81.921875 180.09375 82 C 180.171875 82.078125 180.171875 82.199219 180.09375 82.277344 Z M 176.523438 85.890625 " fill-opacity="1" fill-rule="nonzero"/><path fill="#ffffff" d="M 179.898438 88.25 C 179.425781 88.25 179.046875 87.867188 179.046875 87.398438 C 179.046875 86.925781 179.425781 86.546875 179.898438 86.546875 C 180.367188 86.546875 180.746094 86.925781 180.746094 87.398438 C 180.746094 87.867188 180.367188 88.25 179.898438 88.25 Z M 179.898438 86.9375 C 179.640625 86.9375 179.4375 87.144531 179.4375 87.398438 C 179.4375 87.652344 179.640625 87.859375 179.898438 87.859375 C 180.152344 87.859375 180.355469 87.652344 180.355469 87.398438 C 180.355469 87.144531 180.152344 86.9375 179.898438 86.9375 Z M 179.898438 86.9375 " fill-opacity="1" fill-rule="nonzero"/><path fill="#ffffff" d="M 179.898438 93.046875 C 179.425781 93.046875 179.046875 92.667969 179.046875 92.195312 C 179.046875 91.726562 179.425781 91.34375 179.898438 91.34375 C 180.367188 91.34375 180.746094 91.726562 180.746094 92.195312 C 180.746094 92.667969 180.367188 93.046875 179.898438 93.046875 Z M 179.898438 91.734375 C 179.640625 91.734375 179.4375 91.941406 179.4375 92.195312 C 179.4375 92.449219 179.640625 92.65625 179.898438 92.65625 C 180.152344 92.65625 180.355469 92.449219 180.355469 92.195312 C 180.355469 91.941406 180.152344 91.734375 179.898438 91.734375 Z M 179.898438 91.734375 " fill-opacity="1" fill-rule="nonzero"/><path stroke-linecap="butt" transform="matrix(0.097798, 0, 0, 0.0979286, -57.214401, -5.047045)" fill-opacity="1" fill="#ffffff" fill-rule="nonzero" stroke-linejoin="miter" d="M 2375.108373 1026.180118 L 2211.705526 1026.180118 L 2168.088828 896.780962 L 2331.491675 849.991441 Z M 2375.108373 1026.180118 " stroke="#66b0f0" stroke-width="4" stroke-opacity="1" stroke-miterlimit="10"/><path stroke-linecap="round" transform="matrix(0.097798, 0, 0, 0.0979286, -57.214401, -5.047045)" fill-opacity="1" fill="#ffffff" fill-rule="nonzero" stroke-linejoin="miter" d="M 2220.213178 913.614021 L 2217.0977 913.614021 C 2209.189178 913.614021 2202.798453 907.19193 2202.798453 899.293955 L 2202.798453 854.419094 C 2202.798453 851.188104 2205.394685 848.595334 2208.590047 848.595334 L 2222.090454 848.595334 C 2225.285816 848.595334 2227.882048 851.188104 2227.882048 854.419094 L 2227.882048 905.795823 C 2228.001874 910.10381 2224.486976 913.614021 2220.213178 913.614021 Z M 2220.213178 913.614021 " stroke="#66b0f0" stroke-width="4" stroke-opacity="1" stroke-miterlimit="10"/><path fill="#ffffff" d="M 166.351562 84.421875 L 166.65625 84.421875 C 167.425781 84.421875 168.054688 83.792969 168.054688 83.019531 L 168.054688 78.625 C 168.054688 78.308594 167.800781 78.054688 167.484375 78.054688 L 166.15625 78.054688 C 165.84375 78.054688 165.589844 78.308594 165.589844 78.625 L 165.589844 83.65625 C 165.589844 84.078125 165.929688 84.421875 166.351562 84.421875 Z M 166.351562 84.421875 " fill-opacity="1" fill-rule="nonzero"/><path fill="#ffffff" d="M 162.371094 84.929688 L 161.667969 84.929688 C 161.121094 84.929688 160.679688 84.488281 160.679688 83.941406 L 160.679688 78.632812 C 160.679688 78.320312 160.933594 78.066406 161.246094 78.066406 L 162.566406 78.066406 C 162.878906 78.066406 163.132812 78.320312 163.132812 78.632812 L 163.132812 84.164062 C 163.132812 84.585938 162.792969 84.929688 162.371094 84.929688 Z M 162.371094 84.929688 " fill-opacity="1" fill-rule="nonzero"/><path fill="#ffffff" d="M 164.835938 85.125 L 164.25 85.125 C 163.632812 85.125 163.132812 84.625 163.132812 84.007812 L 163.132812 78.625 C 163.132812 78.308594 163.386719 78.054688 163.703125 78.054688 L 165.023438 78.054688 C 165.335938 78.054688 165.589844 78.308594 165.589844 78.625 L 165.589844 84.363281 C 165.589844 84.78125 165.246094 85.125 164.835938 85.125 Z M 164.835938 85.125 " fill-opacity="1" fill-rule="nonzero"/><path stroke-linecap="round" transform="matrix(0.097798, 0, 0, 0.0979286, -57.214401, -5.047045)" fill="none" stroke-linejoin="miter" d="M 2285.997703 913.614021 L 2289.113181 913.614021 C 2296.981761 913.614021 2303.412428 907.19193 2303.412428 899.293955 L 2303.412428 854.419094 C 2303.412428 851.188104 2300.816196 848.595334 2297.580892 848.595334 L 2284.000601 848.595334 C 2280.805239 848.595334 2278.209007 851.188104 2278.209007 854.419094 L 2278.209007 905.795823 C 2278.209007 910.10381 2281.683963 913.614021 2285.997703 913.614021 Z M 2285.997703 913.614021 " stroke="#66b0f0" stroke-width="4" stroke-opacity="1" stroke-miterlimit="10"/><path stroke-linecap="round" transform="matrix(0.097798, 0, 0, 0.0979286, -57.214401, -5.047045)" fill="none" stroke-linejoin="miter" d="M 2245.296774 918.799561 L 2238.107208 918.799561 C 2232.515324 918.799561 2228.001874 914.29213 2228.001874 908.707703 L 2228.001874 854.498871 C 2228.001874 851.30777 2230.598106 848.715 2233.793469 848.715 L 2247.293875 848.715 C 2250.489238 848.715 2253.08547 851.30777 2253.08547 854.498871 L 2253.08547 910.981363 C 2253.08547 915.28935 2249.610513 918.799561 2245.296774 918.799561 Z M 2245.296774 918.799561 " stroke="#66b0f0" stroke-width="4" stroke-opacity="1" stroke-miterlimit="10"/><path stroke-linecap="round" transform="matrix(0.097798, 0, 0, 0.0979286, -57.214401, -5.047045)" fill="none" stroke-linejoin="miter" d="M 2270.500195 920.793999 L 2264.50889 920.793999 C 2258.198049 920.793999 2253.08547 915.688237 2253.08547 909.385812 L 2253.08547 854.419094 C 2253.08547 851.188104 2255.681701 848.595334 2258.917006 848.595334 L 2272.417412 848.595334 C 2275.612775 848.595334 2278.209007 851.188104 2278.209007 854.419094 L 2278.209007 913.01569 C 2278.209007 917.283788 2274.694108 920.793999 2270.500195 920.793999 Z M 2270.500195 920.793999 " stroke="#66b0f0" stroke-width="4" stroke-opacity="1" stroke-miterlimit="10"/><path fill="#ffffff" d="M 184.511719 72.914062 L 184.511719 80.0625 C 184.511719 81.296875 182.410156 82.304688 179.820312 82.304688 C 177.226562 82.304688 175.125 81.296875 175.125 80.0625 L 175.125 72.914062 Z M 184.511719 72.914062 " fill-opacity="1" fill-rule="nonzero"/><path fill="#66b0f0" d="M 184.511719 72.914062 C 184.511719 78.308594 181.0625 79.914062 177.746094 79.632812 C 177.734375 79.632812 177.726562 79.632812 177.714844 79.632812 C 176.25 79.496094 175.132812 78.242188 175.132812 76.773438 L 175.132812 72.921875 L 184.511719 72.921875 Z M 184.511719 72.914062 " fill-opacity="1" fill-rule="nonzero"/><path fill="#ffffff" d="M 186.695312 71.074219 L 186.695312 71.433594 C 186.695312 72.238281 186.046875 72.882812 185.246094 72.882812 L 184.503906 72.882812 L 184.511719 73.050781 C 184.511719 75.363281 182.644531 77.234375 180.335938 77.234375 L 179.308594 77.234375 C 177.003906 77.234375 175.132812 75.363281 175.132812 73.050781 L 175.144531 72.882812 L 174.402344 72.882812 C 173.597656 72.882812 172.953125 72.238281 172.953125 71.433594 L 172.953125 71.074219 C 172.953125 70.269531 173.597656 69.625 174.402344 69.625 L 175.347656 69.625 L 175.457031 67.851562 C 175.457031 67.578125 175.496094 67.3125 175.574219 67.066406 C 178.371094 67.761719 181.648438 65.960938 182.527344 65.421875 C 183.503906 65.792969 184.199219 66.734375 184.199219 67.839844 L 184.308594 69.613281 L 185.257812 69.613281 C 186.046875 69.625 186.695312 70.269531 186.695312 71.074219 Z M 186.695312 71.074219 " fill-opacity="1" fill-rule="nonzero"/><path fill="#e57281" d="M 185.316406 69.625 L 184.296875 69.625 L 184.191406 67.851562 C 184.191406 66.746094 183.496094 65.804688 182.519531 65.433594 C 181.636719 65.960938 178.363281 67.761719 175.5625 67.078125 C 175.484375 67.320312 175.445312 67.585938 175.445312 67.859375 L 175.339844 69.632812 L 174.703125 69.632812 C 174.703125 69.632812 173.402344 63.328125 174.683594 62.171875 C 175.632812 61.320312 184.316406 63.179688 185.277344 64.5 C 185.8125 65.257812 185.316406 69.625 185.316406 69.625 Z M 185.316406 69.625 " fill-opacity="1" fill-rule="nonzero"/><path fill="#66b0f0" d="M 182.871094 69.242188 C 182.839844 69.242188 182.800781 69.230469 182.773438 69.203125 C 182.761719 69.191406 182.125 68.671875 181.109375 68.671875 C 181.03125 68.671875 180.960938 68.605469 180.960938 68.527344 C 180.960938 68.449219 181.03125 68.378906 181.109375 68.378906 C 182.234375 68.378906 182.929688 68.949219 182.957031 68.976562 C 183.015625 69.027344 183.027344 69.125 182.976562 69.183594 C 182.957031 69.222656 182.910156 69.242188 182.871094 69.242188 Z M 182.871094 69.242188 " fill-opacity="1" fill-rule="nonzero"/><path fill="#66b0f0" d="M 179.152344 72.277344 C 179.132812 72.277344 179.113281 72.277344 179.105469 72.265625 C 179.027344 72.238281 178.988281 72.148438 179.015625 72.082031 C 179.289062 71.355469 179.222656 70.445312 178.839844 69.644531 C 178.617188 69.152344 178.292969 68.800781 178.007812 68.703125 C 177.382812 68.488281 176.503906 68.792969 176.492188 68.792969 C 176.414062 68.820312 176.335938 68.78125 176.308594 68.703125 C 176.277344 68.625 176.316406 68.546875 176.394531 68.515625 C 176.433594 68.507812 177.375 68.183594 178.097656 68.429688 C 178.460938 68.554688 178.832031 68.957031 179.09375 69.527344 C 179.503906 70.398438 179.574219 71.394531 179.28125 72.199219 C 179.269531 72.238281 179.210938 72.277344 179.152344 72.277344 Z M 179.152344 72.277344 " fill-opacity="1" fill-rule="nonzero"/><path fill="#66b0f0" d="M 181.082031 73.835938 C 181.089844 73.914062 181.023438 73.980469 180.941406 73.992188 L 180.933594 73.992188 C 180.855469 73.992188 180.796875 73.933594 180.785156 73.855469 C 180.777344 73.757812 180.757812 73.65625 180.726562 73.570312 C 180.308594 73.777344 179.925781 73.84375 179.613281 73.84375 C 178.996094 73.84375 178.625 73.589844 178.605469 73.570312 C 178.539062 73.519531 178.527344 73.433594 178.566406 73.363281 C 178.617188 73.296875 178.703125 73.285156 178.773438 73.324219 C 178.792969 73.335938 179.105469 73.550781 179.613281 73.550781 C 179.886719 73.550781 180.21875 73.492188 180.601562 73.304688 C 180.542969 73.207031 180.484375 73.148438 180.484375 73.148438 C 180.425781 73.089844 180.433594 72.992188 180.492188 72.941406 C 180.550781 72.894531 180.648438 72.894531 180.699219 72.953125 C 180.71875 72.984375 181.050781 73.355469 181.082031 73.835938 Z M 181.082031 73.835938 " fill-opacity="1" fill-rule="nonzero"/><path fill="#66b0f0" d="M 181.820312 70.53125 C 181.832031 70.667969 181.8125 70.785156 181.773438 70.882812 C 181.730469 70.980469 181.675781 71.03125 181.609375 71.035156 C 181.539062 71.039062 181.480469 70.996094 181.425781 70.902344 C 181.371094 70.8125 181.34375 70.699219 181.332031 70.5625 C 181.324219 70.429688 181.34375 70.3125 181.382812 70.210938 C 181.425781 70.113281 181.480469 70.0625 181.546875 70.058594 C 181.613281 70.054688 181.675781 70.097656 181.730469 70.191406 C 181.78125 70.285156 181.8125 70.398438 181.820312 70.53125 Z M 181.820312 70.53125 " fill-opacity="1" fill-rule="nonzero"/><path fill="#66b0f0" d="M 177.8125 70.535156 C 177.820312 70.65625 177.804688 70.765625 177.765625 70.855469 C 177.726562 70.945312 177.675781 70.992188 177.617188 70.996094 C 177.554688 71 177.496094 70.960938 177.449219 70.875 C 177.398438 70.789062 177.371094 70.6875 177.363281 70.5625 C 177.355469 70.4375 177.371094 70.328125 177.410156 70.238281 C 177.445312 70.148438 177.496094 70.101562 177.558594 70.097656 C 177.621094 70.09375 177.675781 70.132812 177.726562 70.21875 C 177.777344 70.304688 177.804688 70.410156 177.8125 70.535156 Z M 177.8125 70.535156 " fill-opacity="1" fill-rule="nonzero"/><path fill="#66b0f0" d="M 174.878906 71.542969 C 174.800781 71.542969 174.734375 71.472656 174.734375 71.394531 C 174.734375 70.964844 174.382812 70.621094 173.960938 70.621094 C 173.882812 70.621094 173.8125 70.554688 173.8125 70.476562 C 173.8125 70.398438 173.882812 70.328125 173.960938 70.328125 C 174.546875 70.328125 175.027344 70.808594 175.027344 71.394531 C 175.027344 71.484375 174.957031 71.542969 174.878906 71.542969 Z M 174.878906 71.542969 " fill-opacity="1" fill-rule="nonzero"/><path fill="#66b0f0" d="M 184.71875 71.542969 C 184.640625 71.542969 184.570312 71.472656 184.570312 71.394531 C 184.570312 70.808594 185.050781 70.328125 185.636719 70.328125 C 185.714844 70.328125 185.785156 70.398438 185.785156 70.476562 C 185.785156 70.554688 185.714844 70.621094 185.636719 70.621094 C 185.207031 70.621094 184.863281 70.976562 184.863281 71.394531 C 184.863281 71.484375 184.804688 71.542969 184.71875 71.542969 Z M 184.71875 71.542969 " fill-opacity="1" fill-rule="nonzero"/><path stroke-linecap="butt" transform="matrix(0.097798, 0, 0, 0.0979286, -57.214401, -5.047045)" fill="none" stroke-linejoin="miter" d="M 4284.017897 2996.007023 L 3855.719503 1579.796294 C 3847.211851 1551.594936 3821.089763 1532.288774 3791.612544 1532.288774 L 1192.105312 1532.288774 C 1162.308557 1532.288774 1136.106585 1551.993824 1127.798643 1580.713735 L 719.111786 2996.007023 " stroke="#66b0f0" stroke-width="6" stroke-opacity="1" stroke-miterlimit="10"/><path stroke-linecap="butt" transform="matrix(0.097798, 0, 0, 0.0979286, -57.214401, -5.047045)" fill="none" stroke-linejoin="miter" d="M 1904.191833 1053.703366 L 3041.181674 1053.703366 " stroke="#66b0f0" stroke-width="6" stroke-opacity="1" stroke-miterlimit="10"/><path fill="#ffcf2d" d="M 167.605469 119.214844 L 193.871094 119.214844 L 193.871094 141.808594 L 167.605469 141.808594 C 167.605469 141.808594 167.605469 118.363281 167.605469 119.214844 Z M 167.605469 119.214844 " fill-opacity="1" fill-rule="nonzero"/><path fill="#9a3b82" d="M 265.832031 224.183594 L 253.617188 193.726562 L 273.285156 193.726562 Z M 265.832031 224.183594 " fill-opacity="1" fill-rule="nonzero"/><path fill="#9a3b82" d="M 232.316406 153.078125 C 234.9375 148.113281 240.089844 145.007812 245.695312 145.007812 L 260.824219 145.007812 L 271.101562 153.078125 Z M 232.316406 153.078125 " fill-opacity="1" fill-rule="nonzero"/><path fill="#3fb1b5" d="M 289.675781 188.734375 L 251.5625 188.734375 L 265.910156 223.605469 C 264.914062 221.980469 258.9375 223.675781 252.609375 227.5625 C 246.359375 231.402344 242.136719 236.023438 242.996094 237.707031 L 212.074219 183.828125 C 204.054688 170.234375 213.832031 153.078125 229.597656 153.078125 L 315.003906 153.078125 L 315.191406 153.664062 C 320.765625 171 307.855469 188.734375 289.675781 188.734375 Z M 289.675781 188.734375 " fill-opacity="1" fill-rule="nonzero"/><path fill="#e6e6e6" d="M 316.480469 163.078125 C 316.34375 166.257812 315.640625 169.335938 314.449219 172.183594 L 269.65625 153.089844 L 314.113281 153.089844 L 315.152344 156.125 C 315.875 157.945312 316.277344 160.5 316.480469 163.078125 Z M 316.480469 163.078125 " fill-opacity="1" fill-rule="nonzero"/><path fill="#66b0f0" d="M 265.921875 223.605469 C 266.917969 225.230469 262.554688 229.667969 256.238281 233.554688 C 249.910156 237.445312 244.03125 239.390625 243.035156 237.765625 C 242.039062 236.140625 246.292969 231.546875 252.621094 227.660156 C 258.9375 223.773438 264.914062 221.980469 265.921875 223.605469 Z M 265.921875 223.605469 " fill-opacity="1" fill-rule="nonzero"/><path stroke-linecap="round" transform="matrix(0.097798, 0, 0, 0.0979286, -57.214401, -5.047045)" fill="none" stroke-linejoin="miter" d="M 3160.608346 2376.494606 L 2876.181146 1873.696718 C 2853.893493 1833.88773 2882.611813 1784.704882 2928.305496 1784.704882 L 3482.181634 1784.704882 C 3556.793347 1784.704882 3612.512479 1716.016428 3597.094856 1642.980098 " stroke="#ffffff" stroke-width="6" stroke-opacity="1" stroke-miterlimit="10"/><path stroke-linecap="round" transform="matrix(0.097798, 0, 0, 0.0979286, -57.214401, -5.047045)" fill="none" stroke-linejoin="miter" d="M 3066.784516 2480.604284 C 3056.599298 2464.010558 3100.6953 2411.197832 3168.117447 2371.907398 C 3243.807595 2327.790424 3292.816467 2314.706909 3307.395308 2338.081725 " stroke="#ffffff" stroke-width="6" stroke-opacity="1" stroke-miterlimit="10"/><path stroke-linecap="round" transform="matrix(0.097798, 0, 0, 0.0979286, -57.214401, -5.047045)" fill="none" stroke-linejoin="miter" d="M 3309.59212 2340.315496 L 3123.781793 1897.310867 " stroke="#ffffff" stroke-width="6" stroke-opacity="1" stroke-miterlimit="10"/><path stroke-linecap="butt" transform="matrix(0.097798, 0, 0, 0.0979286, -57.214401, -5.047045)" fill="none" stroke-linejoin="miter" d="M 2921.794945 1611.388196 L 3375.09705 1611.388196 " stroke="#ffffff" stroke-width="6" stroke-opacity="1" stroke-miterlimit="10"/><path fill="#e57281" d="M 253.605469 240.007812 L 250.964844 236.40625 L 247.328125 231.449219 C 248.816406 230.195312 250.605469 228.894531 252.609375 227.660156 C 256.601562 225.210938 260.441406 223.585938 262.996094 223.136719 L 264.765625 226.671875 L 266.976562 231.078125 C 265.410156 236.652344 253.605469 240.007812 253.605469 240.007812 Z M 253.605469 240.007812 " fill-opacity="1" fill-rule="nonzero"/><path fill="#9a3b82" d="M 264.777344 226.671875 C 263.132812 228.679688 260.042969 231.214844 256.238281 233.554688 C 254.410156 234.683594 252.621094 235.640625 250.976562 236.40625 L 247.339844 231.449219 C 248.824219 230.195312 250.613281 228.894531 252.621094 227.660156 C 256.609375 225.210938 260.453125 223.585938 263.003906 223.136719 Z M 264.777344 226.671875 " fill-opacity="1" fill-rule="nonzero"/><path stroke-linecap="butt" transform="matrix(0.097798, 0, 0, 0.0979286, -57.214401, -5.047045)" fill-opacity="1" fill="#ffffff" fill-rule="nonzero" stroke-linejoin="miter" d="M 3438.485052 2609.484886 L 3164.083302 2806.615165 C 3140.797099 2822.810003 3104.609619 2836.292406 3109.402662 2777.69581 C 3116.112924 2696.881171 3134.006953 2576.69632 3178.182839 2502.303773 C 3180.100057 2501.785219 3298.887655 2467.48088 3314.90441 2411.118055 L 3440.002849 2499.990224 C 3475.990619 2527.992138 3475.191778 2582.599858 3438.485052 2609.484886 Z M 3438.485052 2609.484886 " stroke="#ffcf2d" stroke-width="6" stroke-opacity="1" stroke-miterlimit="10"/><path stroke-linecap="round" transform="matrix(0.097798, 0, 0, 0.0979286, -57.214401, -5.047045)" fill="none" stroke-linejoin="miter" d="M 3165.481273 2528.391025 C 3187.289622 2532.499568 3309.711946 2489.100591 3328.68441 2422.207132 " stroke="#ffcf2d" stroke-width="6" stroke-opacity="1" stroke-miterlimit="10"/><path fill="#ffcf2d" d="M 249.480469 267.8125 C 249.480469 267.8125 266.996094 243.445312 279.457031 244.816406 C 293.019531 246.296875 238.390625 282.019531 249.480469 267.8125 Z M 249.480469 267.8125 " fill-opacity="1" fill-rule="nonzero"/><path stroke-linecap="round" transform="matrix(0.097798, 0, 0, 0.0979286, -57.214401, -5.047045)" fill="none" stroke-linejoin="miter" d="M 3130.891475 2820.217234 C 3116.991648 2821.094786 3102.292981 2804.899948 3122.583533 2778.892473 C 3122.583533 2778.892473 3308.992989 2520.891937 3441.680415 2535.491226 C 3462.210618 2537.685108 3469.080648 2554.3985 3464.287604 2568.798345 " stroke="#ffcf2d" stroke-width="6" stroke-opacity="1" stroke-miterlimit="10"/><path stroke-linecap="butt" transform="matrix(0.097798, 0, 0, 0.0979286, -57.214401, -5.047045)" fill-opacity="1" fill="#ffffff" fill-rule="nonzero" stroke-linejoin="miter" d="M 3822.088314 1737.117585 C 3758.700311 1722.119409 3600.889348 1682.589642 3420.910559 1640.98566 C 3336.313338 1621.519942 3265.496118 1563.880676 3228.989102 1485.100364 L 3065.106951 1130.489239 L 3164.283012 973.287615 C 3194.798724 924.902542 3246.803248 894.108415 3303.920351 890.598204 L 3401.498732 884.614889 C 3499.915895 878.591685 3578.88129 939.980495 3608.917697 1033.918538 L 3807.389646 1614.698963 C 3829.197995 1669.10724 3822.088314 1737.117585 3822.088314 1737.117585 Z M 3822.088314 1737.117585 " stroke="#fe5244" stroke-width="6" stroke-opacity="1" stroke-miterlimit="10"/><path stroke-linecap="butt" transform="matrix(0.097798, 0, 0, 0.0979286, -57.214401, -5.047045)" fill="none" stroke-linejoin="miter" d="M 3151.381737 1150.393733 C 3151.381737 1150.393733 3203.585971 1232.405035 3322.493395 1250.514535 " stroke="#fe5244" stroke-width="6" stroke-opacity="1" stroke-miterlimit="10"/><path stroke-linecap="butt" transform="matrix(0.097798, 0, 0, 0.0979286, -57.214401, -5.047045)" fill-opacity="1" fill="#ffcf2d" fill-rule="nonzero" stroke-linejoin="round" d="M 3221.799536 1001.20975 C 3216.407362 995.385991 3206.901159 996.981541 3203.585971 1004.081742 C 3199.911304 1012.099383 3206.581623 1020.994578 3215.288985 1019.718138 C 3224.196058 1018.401808 3227.910667 1007.711619 3221.799536 1001.20975 Z M 3221.799536 1001.20975 " stroke="#fe5244" stroke-width="6" stroke-opacity="1" stroke-miterlimit="10"/><path stroke-linecap="butt" transform="matrix(0.097798, 0, 0, 0.0979286, -57.214401, -5.047045)" fill-opacity="1" fill="#ffcf2d" fill-rule="nonzero" stroke-linejoin="round" d="M 3470.917981 1172.093222 C 3465.485865 1166.309351 3456.019604 1167.904901 3452.704415 1175.005102 C 3448.989806 1182.982855 3455.700067 1191.917938 3464.40743 1190.601609 C 3473.314503 1189.28528 3476.98917 1178.595091 3470.917981 1172.093222 Z M 3470.917981 1172.093222 " stroke="#fe5244" stroke-width="6" stroke-opacity="1" stroke-miterlimit="10"/><path stroke-linecap="butt" transform="matrix(0.097798, 0, 0, 0.0979286, -57.214401, -5.047045)" fill-opacity="1" fill="#ffcf2d" fill-rule="nonzero" stroke-linejoin="round" d="M 3549.803491 1242.098005 C 3544.411317 1236.314134 3534.905114 1237.909685 3531.589925 1245.009885 C 3527.915259 1252.987638 3534.585578 1261.882833 3543.29294 1260.606392 C 3552.080187 1259.409729 3555.794796 1248.71954 3549.803491 1242.098005 Z M 3549.803491 1242.098005 " stroke="#fe5244" stroke-width="6" stroke-opacity="1" stroke-miterlimit="10"/><path stroke-linecap="butt" transform="matrix(0.097798, 0, 0, 0.0979286, -57.214401, -5.047045)" fill-opacity="1" fill="#ffcf2d" fill-rule="nonzero" stroke-linejoin="round" d="M 3701.103903 1638.193446 C 3695.711729 1632.409575 3686.205526 1634.005126 3682.890337 1641.105326 C 3679.21567 1649.083079 3685.885989 1658.018163 3694.593352 1656.701833 C 3703.380599 1655.385504 3707.095208 1644.814981 3701.103903 1638.193446 Z M 3701.103903 1638.193446 " stroke="#fe5244" stroke-width="6" stroke-opacity="1" stroke-miterlimit="10"/><path stroke-linecap="butt" transform="matrix(0.097798, 0, 0, 0.0979286, -57.214401, -5.047045)" fill-opacity="1" fill="#ffcf2d" fill-rule="nonzero" stroke-linejoin="round" d="M 3616.386856 1448.881365 C 3610.994682 1443.097494 3601.488479 1444.693045 3598.213232 1451.793245 C 3594.498624 1459.810887 3601.208885 1468.706082 3609.916247 1467.389753 C 3618.783378 1466.113312 3622.497987 1455.383234 3616.386856 1448.881365 Z M 3616.386856 1448.881365 " stroke="#fe5244" stroke-width="6" stroke-opacity="1" stroke-miterlimit="10"/><path stroke-linecap="butt" transform="matrix(0.097798, 0, 0, 0.0979286, -57.214401, -5.047045)" fill-opacity="1" fill="#ffcf2d" fill-rule="nonzero" stroke-linejoin="round" d="M 3651.495901 1312.70112 C 3643.707205 1313.698339 3639.393466 1322.39409 3643.307785 1329.215069 C 3647.701408 1336.913601 3658.805293 1336.594491 3662.799496 1328.696515 C 3666.913525 1320.718762 3660.283148 1311.504457 3651.495901 1312.70112 Z M 3651.495901 1312.70112 " stroke="#fe5244" stroke-width="6" stroke-opacity="1" stroke-miterlimit="10"/><path stroke-linecap="butt" transform="matrix(0.097798, 0, 0, 0.0979286, -57.214401, -5.047045)" fill-opacity="1" fill="#ffcf2d" fill-rule="nonzero" stroke-linejoin="round" d="M 3715.40315 1514.697828 C 3707.614454 1515.695048 3703.300715 1524.390798 3707.215034 1531.211777 C 3711.608657 1538.910309 3722.712542 1538.591199 3726.706745 1530.693223 C 3730.780832 1522.71547 3724.310223 1513.501165 3715.40315 1514.697828 Z M 3715.40315 1514.697828 " stroke="#fe5244" stroke-width="6" stroke-opacity="1" stroke-miterlimit="10"/><path stroke-linecap="butt" transform="matrix(0.097798, 0, 0, 0.0979286, -57.214401, -5.047045)" fill-opacity="1" fill="#ffcf2d" fill-rule="nonzero" stroke-linejoin="round" d="M 3450.387777 1296.785503 C 3444.995603 1291.001632 3435.4894 1292.597182 3432.214153 1299.697382 C 3428.499545 1307.715024 3435.209806 1316.610219 3443.917168 1315.29389 C 3452.704415 1314.017449 3456.419024 1303.407038 3450.387777 1296.785503 Z M 3450.387777 1296.785503 " stroke="#fe5244" stroke-width="6" stroke-opacity="1" stroke-miterlimit="10"/><path stroke-linecap="butt" transform="matrix(0.097798, 0, 0, 0.0979286, -57.214401, -5.047045)" fill-opacity="1" fill="#ffcf2d" fill-rule="nonzero" stroke-linejoin="round" d="M 3395.307717 1410.109485 C 3389.915543 1404.285726 3380.40934 1405.881276 3377.094151 1412.981476 C 3373.419484 1420.999118 3380.089804 1429.894313 3388.797166 1428.617873 C 3397.704239 1427.301543 3401.418848 1416.611354 3395.307717 1410.109485 Z M 3395.307717 1410.109485 " stroke="#fe5244" stroke-width="6" stroke-opacity="1" stroke-miterlimit="10"/><path stroke-linecap="butt" transform="matrix(0.097798, 0, 0, 0.0979286, -57.214401, -5.047045)" fill-opacity="1" fill="#ffcf2d" fill-rule="nonzero" stroke-linejoin="round" d="M 3296.690844 1370.499941 C 3302.482438 1365.114958 3300.884757 1355.581543 3293.815018 1352.310664 C 3285.786669 1348.601009 3276.919539 1355.302322 3278.197684 1363.998072 C 3279.515771 1372.81349 3290.100409 1376.483256 3296.690844 1370.499941 Z M 3296.690844 1370.499941 " stroke="#fe5244" stroke-width="6" stroke-opacity="1" stroke-miterlimit="10"/><path stroke-linecap="butt" transform="matrix(0.097798, 0, 0, 0.0979286, -57.214401, -5.047045)" fill-opacity="1" fill="#ffcf2d" fill-rule="nonzero" stroke-linejoin="round" d="M 3384.203833 1565.516116 C 3389.995427 1560.091244 3388.397746 1550.597717 3381.288064 1547.28695 C 3373.299658 1543.617183 3364.392586 1550.318496 3365.710673 1559.014247 C 3366.988818 1567.909442 3377.693282 1571.619097 3384.203833 1565.516116 Z M 3384.203833 1565.516116 " stroke="#fe5244" stroke-width="6" stroke-opacity="1" stroke-miterlimit="10"/><path stroke-linecap="butt" transform="matrix(0.097798, 0, 0, 0.0979286, -57.214401, -5.047045)" fill-opacity="1" fill="#ffcf2d" fill-rule="nonzero" stroke-linejoin="round" d="M 3531.510041 1398.182744 C 3537.301636 1392.797761 3535.703955 1383.304235 3528.594273 1379.993467 C 3520.605867 1376.283812 3511.698794 1382.985125 3513.016881 1391.680876 C 3514.295026 1400.496293 3524.99949 1404.285726 3531.510041 1398.182744 Z M 3531.510041 1398.182744 " stroke="#fe5244" stroke-width="6" stroke-opacity="1" stroke-miterlimit="10"/><path stroke-linecap="butt" transform="matrix(0.097798, 0, 0, 0.0979286, -57.214401, -5.047045)" fill-opacity="1" fill="#ffcf2d" fill-rule="nonzero" stroke-linejoin="round" d="M 3581.797058 1607.598763 C 3587.588652 1602.21378 3585.990971 1592.680365 3578.88129 1589.409486 C 3570.892883 1585.699831 3561.985811 1592.401144 3563.303898 1601.096894 C 3564.502159 1609.992089 3575.206623 1613.701744 3581.797058 1607.598763 Z M 3581.797058 1607.598763 " stroke="#fe5244" stroke-width="6" stroke-opacity="1" stroke-miterlimit="10"/><path stroke-linecap="butt" transform="matrix(0.097798, 0, 0, 0.0979286, -57.214401, -5.047045)" fill-opacity="1" fill="#ffcf2d" fill-rule="nonzero" stroke-linejoin="round" d="M 3280.194785 1183.501409 C 3274.802611 1177.717538 3265.296408 1179.313088 3261.981219 1186.413289 C 3258.306552 1194.391042 3265.016814 1203.286236 3273.684234 1202.009796 C 3282.591307 1200.693467 3286.305916 1190.003277 3280.194785 1183.501409 Z M 3280.194785 1183.501409 " stroke="#fe5244" stroke-width="6" stroke-opacity="1" stroke-miterlimit="10"/><path stroke-linecap="butt" transform="matrix(0.097798, 0, 0, 0.0979286, -57.214401, -5.047045)" fill-opacity="1" fill="#ffcf2d" fill-rule="nonzero" stroke-linejoin="round" d="M 3298.088815 924.104767 C 3292.696641 918.281007 3283.190437 919.916446 3279.915191 927.016647 C 3276.200582 934.9944 3282.910843 943.889594 3291.618206 942.613154 C 3300.485337 941.296825 3304.199945 930.606636 3298.088815 924.104767 Z M 3298.088815 924.104767 " stroke="#fe5244" stroke-width="6" stroke-opacity="1" stroke-miterlimit="10"/><path stroke-linecap="butt" transform="matrix(0.097798, 0, 0, 0.0979286, -57.214401, -5.047045)" fill-opacity="1" fill="#ffcf2d" fill-rule="nonzero" stroke-linejoin="round" d="M 3470.917981 924.104767 C 3465.485865 918.281007 3456.019604 919.916446 3452.704415 927.016647 C 3448.989806 934.9944 3455.700067 943.889594 3464.40743 942.613154 C 3473.314503 941.296825 3476.98917 930.606636 3470.917981 924.104767 Z M 3470.917981 924.104767 " stroke="#fe5244" stroke-width="6" stroke-opacity="1" stroke-miterlimit="10"/><path stroke-linecap="butt" transform="matrix(0.097798, 0, 0, 0.0979286, -57.214401, -5.047045)" fill-opacity="1" fill="#ffcf2d" fill-rule="nonzero" stroke-linejoin="round" d="M 3471.197575 1036.11242 C 3463.888184 1038.984411 3461.811198 1048.39816 3467.283256 1054.102253 C 3473.394387 1060.404678 3484.098851 1057.492799 3486.095953 1048.916714 C 3488.093054 1040.181074 3479.505518 1032.801653 3471.197575 1036.11242 Z M 3471.197575 1036.11242 " stroke="#fe5244" stroke-width="6" stroke-opacity="1" stroke-miterlimit="10"/><path stroke-linecap="butt" transform="matrix(0.097798, 0, 0, 0.0979286, -57.214401, -5.047045)" fill-opacity="1" fill="#ffcf2d" fill-rule="nonzero" stroke-linejoin="round" d="M 3372.980122 972.290395 C 3365.391136 974.484278 3362.51531 983.618805 3367.308354 989.801564 C 3372.780412 996.70232 3383.684586 994.787659 3386.480528 986.490796 C 3389.396297 977.994489 3381.487775 969.817292 3372.980122 972.290395 Z M 3372.980122 972.290395 " stroke="#fe5244" stroke-width="6" stroke-opacity="1" stroke-miterlimit="10"/><path stroke-linecap="butt" transform="matrix(0.097798, 0, 0, 0.0979286, -57.214401, -5.047045)" fill-opacity="1" fill="#ffcf2d" fill-rule="nonzero" stroke-linejoin="round" d="M 3358.481165 1249.317872 C 3350.692469 1250.195425 3346.298846 1258.811398 3350.093339 1265.712154 C 3354.407078 1273.410686 3365.510962 1273.29102 3369.58505 1265.51271 C 3373.818905 1257.614735 3367.388238 1248.280764 3358.481165 1249.317872 Z M 3358.481165 1249.317872 " stroke="#fe5244" stroke-width="6" stroke-opacity="1" stroke-miterlimit="10"/><path stroke-linecap="butt" transform="matrix(0.097798, 0, 0, 0.0979286, -57.214401, -5.047045)" fill-opacity="1" fill="#ffcf2d" fill-rule="nonzero" stroke-linejoin="round" d="M 3272.805509 1457.617005 C 3265.016814 1458.494558 3260.583248 1467.110531 3264.417683 1474.011288 C 3268.69148 1481.709819 3279.795365 1481.590153 3283.909394 1473.811844 C 3288.103307 1465.913868 3281.712582 1456.619786 3272.805509 1457.617005 Z M 3272.805509 1457.617005 " stroke="#fe5244" stroke-width="6" stroke-opacity="1" stroke-miterlimit="10"/><path stroke-linecap="butt" transform="matrix(0.097798, 0, 0, 0.0979286, -57.214401, -5.047045)" fill-opacity="1" fill="#ffcf2d" fill-rule="nonzero" stroke-linejoin="round" d="M 3301.603714 1054.900029 C 3294.014728 1057.093911 3291.098959 1066.188549 3295.892003 1072.411197 C 3301.404003 1079.311953 3312.308178 1077.397293 3315.10412 1069.100429 C 3318.019888 1060.6839 3310.19125 1052.506703 3301.603714 1054.900029 Z M 3301.603714 1054.900029 " stroke="#fe5244" stroke-width="6" stroke-opacity="1" stroke-miterlimit="10"/><path stroke-linecap="butt" transform="matrix(0.097798, 0, 0, 0.0979286, -57.214401, -5.047045)" fill-opacity="1" fill="#ffcf2d" fill-rule="nonzero" stroke-linejoin="round" d="M 3384.403543 1110.903856 C 3376.814557 1113.097738 3373.898789 1122.192376 3378.691832 1128.415024 C 3384.203833 1135.31578 3395.108007 1133.401119 3397.903949 1125.104256 C 3400.819717 1116.607949 3392.991079 1108.390863 3384.403543 1110.903856 Z M 3384.403543 1110.903856 " stroke="#fe5244" stroke-width="6" stroke-opacity="1" stroke-miterlimit="10"/><path stroke-linecap="butt" transform="matrix(0.097798, 0, 0, 0.0979286, -57.214401, -5.047045)" fill-opacity="1" fill="#ffcf2d" fill-rule="nonzero" stroke-linejoin="round" d="M 3205.103768 1108.51053 C 3210.096522 1102.407548 3207.380463 1093.193244 3199.791478 1090.919584 C 3191.403651 1088.286925 3183.415245 1096.105124 3185.891651 1104.481764 C 3188.407999 1113.097738 3199.392057 1115.411286 3205.103768 1108.51053 Z M 3205.103768 1108.51053 " stroke="#fe5244" stroke-width="6" stroke-opacity="1" stroke-miterlimit="10"/><path stroke-linecap="butt" transform="matrix(0.097798, 0, 0, 0.0979286, -57.214401, -5.047045)" fill-opacity="1" fill="#ffcf2d" fill-rule="nonzero" stroke-linejoin="round" d="M 3584.19358 1108.789751 C 3589.186333 1102.68677 3586.510217 1093.512354 3578.88129 1091.198805 C 3570.493463 1088.606036 3562.505057 1096.384345 3564.981463 1104.800874 C 3567.417927 1113.416848 3578.481869 1115.690507 3584.19358 1108.789751 Z M 3584.19358 1108.789751 " stroke="#fe5244" stroke-width="6" stroke-opacity="1" stroke-miterlimit="10"/><path stroke-linecap="butt" transform="matrix(0.097798, 0, 0, 0.0979286, -57.214401, -5.047045)" fill-opacity="1" fill="#ffcf2d" fill-rule="nonzero" stroke-linejoin="round" d="M 3488.01317 1514.219163 C 3493.005924 1508.116182 3490.289866 1498.901877 3482.70088 1496.588329 C 3474.313054 1493.995559 3466.284705 1501.813757 3468.801053 1510.190398 C 3471.197575 1518.686705 3482.30146 1521.000253 3488.01317 1514.219163 Z M 3488.01317 1514.219163 " stroke="#fe5244" stroke-width="6" stroke-opacity="1" stroke-miterlimit="10"/><path fill="#e57281" d="M 276.101562 81.257812 C 275.886719 81.265625 275.671875 81.277344 275.445312 81.285156 L 265.898438 81.875 C 263.464844 82.019531 261.136719 82.675781 259.023438 83.765625 L 256.089844 74.96875 L 269.167969 65.375 Z M 276.101562 81.257812 " fill-opacity="1" fill-rule="nonzero"/><path fill="#9a3b82" d="M 258.984375 83.628906 C 261.703125 82.394531 263.875 80.199219 265.109375 77.476562 L 269.859375 66.949219 L 269.167969 65.363281 L 256.089844 74.960938 Z M 258.984375 83.628906 " fill-opacity="1" fill-rule="nonzero"/><path fill="#e57281" d="M 270.007812 66.253906 C 270.007812 67.164062 269.636719 67.988281 269.039062 68.585938 C 268.441406 69.183594 267.621094 69.554688 266.710938 69.554688 L 263.835938 69.554688 C 262.703125 73.972656 258.3125 76.996094 253.585938 76.164062 L 251.425781 75.78125 C 249.058594 75.363281 247.445312 73.148438 247.777344 70.769531 L 250.3125 58.066406 C 250.75 55.355469 253.539062 53.699219 256.128906 54.628906 L 260.324219 56.316406 C 262.59375 57.097656 264.121094 59.234375 264.121094 61.632812 L 264.121094 62.855469 L 266.710938 62.953125 C 268.53125 62.953125 270.007812 64.433594 270.007812 66.253906 Z M 270.007812 66.253906 " fill-opacity="1" fill-rule="nonzero"/><path stroke-linecap="round" transform="matrix(0.097798, 0, 0, 0.0979286, -57.214401, -5.047045)" fill="none" stroke-linejoin="miter" d="M 3296.091713 734.593242 C 3296.091713 721.709171 3306.516583 711.298203 3319.417859 711.298203 " stroke="#9a3b82" stroke-width="5" stroke-opacity="1" stroke-miterlimit="10"/><path stroke-linecap="round" transform="matrix(0.097798, 0, 0, 0.0979286, -57.214401, -5.047045)" fill="none" stroke-linejoin="miter" d="M 3158.890838 671.808325 C 3158.890838 671.808325 3179.900346 671.808325 3194.91855 691.912263 " stroke="#9a3b82" stroke-width="5" stroke-opacity="1" stroke-miterlimit="10"/><path fill="#9a3b82" d="M 252.789062 63.289062 C 252.921875 63.3125 253.019531 63.433594 253.074219 63.652344 C 253.132812 63.871094 253.136719 64.121094 253.085938 64.40625 C 253.03125 64.691406 252.941406 64.925781 252.8125 65.109375 C 252.679688 65.292969 252.550781 65.375 252.417969 65.351562 C 252.285156 65.324219 252.1875 65.203125 252.132812 64.984375 C 252.074219 64.769531 252.070312 64.515625 252.121094 64.230469 C 252.175781 63.945312 252.265625 63.710938 252.394531 63.527344 C 252.527344 63.34375 252.65625 63.265625 252.789062 63.289062 Z M 252.789062 63.289062 " fill-opacity="1" fill-rule="nonzero"/><path fill="#ffcf2d" d="M 266.710938 62.953125 C 268.53125 62.953125 270.007812 64.433594 270.007812 66.253906 C 270.007812 66.265625 270.007812 66.285156 270.007812 66.304688 C 271.476562 64.042969 275.074219 58.285156 275.074219 56.335938 C 275.074219 53.71875 271.816406 51.105469 268.441406 52.300781 C 268.667969 52.132812 268.902344 51.957031 269.148438 51.769531 C 270.449219 50.753906 271.132812 49.988281 271.238281 49.441406 C 271.277344 49.246094 271.25 49.066406 271.152344 48.929688 C 270.761719 48.371094 270.332031 48.128906 269.871094 48.207031 C 269.195312 48.3125 268.5 49.148438 267.808594 50.675781 C 267.496094 51.371094 267.25 52.054688 267.113281 52.476562 C 266.839844 50.839844 265.519531 45.425781 259.847656 46.257812 C 257.890625 46.542969 256.972656 47.355469 256.71875 48.246094 C 255.09375 46.972656 252.921875 45.972656 251.121094 46.921875 C 248.011719 48.558594 248.394531 51.242188 250.195312 53.140625 C 248.492188 53.113281 247.300781 53.613281 247.300781 55.050781 C 247.300781 56.375 248.660156 57.011719 250.527344 57.265625 C 252.394531 57.519531 254.789062 57.382812 256.863281 57.148438 C 258.339844 56.980469 259.671875 56.773438 260.519531 56.628906 C 259.953125 57.792969 259.730469 58.792969 259.777344 59.636719 C 259.867188 61.378906 261.128906 62.40625 262.90625 62.769531 C 263.289062 62.847656 263.699219 62.894531 264.121094 62.914062 Z M 269.929688 48.597656 C 269.957031 48.589844 269.988281 48.589844 270.027344 48.589844 C 270.300781 48.589844 270.566406 48.785156 270.828125 49.15625 C 270.847656 49.195312 270.878906 49.253906 270.859375 49.363281 C 270.703125 50.15625 268.699219 51.664062 267.535156 52.457031 C 267.992188 51.105469 268.960938 48.765625 269.929688 48.597656 Z M 269.929688 48.597656 " fill-opacity="1" fill-rule="nonzero"/><path fill="#ffffff" d="M 258.90625 51.496094 C 258.234375 51.496094 257.546875 51.132812 257.050781 50.496094 C 256.492188 49.792969 256.304688 48.921875 256.542969 48.167969 C 256.570312 48.070312 256.667969 48.011719 256.765625 48.03125 C 256.804688 48.03125 256.84375 48.039062 256.875 48.070312 C 258.351562 49.128906 259.535156 50.636719 259.359375 51.234375 C 259.320312 51.390625 259.191406 51.488281 259.023438 51.496094 C 258.984375 51.496094 258.945312 51.496094 258.90625 51.496094 Z M 256.855469 48.539062 C 256.765625 49.109375 256.941406 49.734375 257.351562 50.253906 C 257.792969 50.8125 258.398438 51.132812 258.984375 51.09375 C 259.003906 50.839844 258.351562 49.675781 256.855469 48.539062 Z M 256.855469 48.539062 " fill-opacity="1" fill-rule="nonzero"/><path fill="#e57281" d="M 239.601562 137.96875 L 177.011719 137.96875 C 175.464844 137.96875 174.539062 136.265625 175.359375 134.960938 L 183.691406 121.859375 C 184.777344 120.15625 186.644531 119.125 188.660156 119.125 L 231.027344 119.125 Z M 239.601562 137.96875 " fill-opacity="1" fill-rule="nonzero"/><path fill="#fe5244" d="M 190.039062 119.136719 L 195.027344 110.910156 C 195.320312 110.421875 195.859375 110.117188 196.425781 110.117188 C 197.707031 110.117188 198.488281 111.515625 197.824219 112.613281 L 193.863281 119.136719 Z M 190.039062 119.136719 " fill-opacity="1" fill-rule="nonzero"/><path fill="#9a3b82" d="M 239.601562 137.96875 L 225.53125 137.96875 C 225.5 137.9375 225.460938 137.898438 225.429688 137.871094 C 222.007812 134.34375 220.550781 128.996094 222.476562 123.847656 L 224.484375 119.125 L 231.027344 119.125 Z M 239.601562 137.96875 " fill-opacity="1" fill-rule="nonzero"/><path fill="#e57281" d="M 185.851562 129.175781 L 178.007812 129.175781 C 177.480469 129.175781 176.992188 129.457031 176.726562 129.917969 L 175.898438 131.367188 C 175.339844 132.347656 176.042969 133.570312 177.179688 133.570312 L 183.484375 133.570312 C 184.582031 133.570312 185.597656 133.003906 186.175781 132.0625 L 186.851562 130.957031 C 187.320312 130.171875 186.761719 129.175781 185.851562 129.175781 Z M 185.851562 129.175781 " fill-opacity="1" fill-rule="nonzero"/><path fill="#e57281" d="M 183.828125 133.570312 L 175.984375 133.570312 C 175.457031 133.570312 174.96875 133.855469 174.703125 134.316406 L 173.871094 135.765625 C 173.316406 136.742188 174.019531 137.96875 175.152344 137.96875 L 181.460938 137.96875 C 182.558594 137.96875 183.574219 137.398438 184.152344 136.460938 L 184.824219 135.351562 C 185.304688 134.570312 184.738281 133.570312 183.828125 133.570312 Z M 183.828125 133.570312 " fill-opacity="1" fill-rule="nonzero"/><path fill="#e57281" d="M 188.09375 124.71875 L 180.25 124.71875 C 179.722656 124.71875 179.230469 125.003906 178.96875 125.460938 L 178.136719 126.910156 C 177.578125 127.890625 178.28125 129.113281 179.417969 129.113281 L 185.726562 129.113281 C 186.820312 129.113281 187.839844 128.546875 188.414062 127.605469 L 189.089844 126.5 C 189.570312 125.71875 189 124.71875 188.09375 124.71875 Z M 188.09375 124.71875 " fill-opacity="1" fill-rule="nonzero"/><path stroke-linecap="round" transform="matrix(0.097798, 0, 0, 0.0979286, -57.214401, -5.047045)" fill="none" stroke-linejoin="miter" d="M 2485.388319 1370.619608 L 2405.184722 1370.619608 C 2399.792548 1370.619608 2394.799794 1373.491599 2392.083736 1378.198473 L 2383.616025 1392.997205 C 2377.904315 1403.009285 2385.09388 1415.494469 2396.717011 1415.494469 L 2461.183449 1415.494469 C 2472.407159 1415.494469 2482.792087 1409.710598 2488.703508 1400.097405 L 2495.613479 1388.808885 C 2500.406523 1380.791243 2494.694812 1370.619608 2485.388319 1370.619608 Z M 2485.388319 1370.619608 " stroke="#9a3b82" stroke-width="5" stroke-opacity="1" stroke-miterlimit="10"/><path stroke-linecap="round" transform="matrix(0.097798, 0, 0, 0.0979286, -57.214401, -5.047045)" fill="none" stroke-linejoin="miter" d="M 2464.698347 1415.494469 L 2384.49475 1415.494469 C 2379.102576 1415.494469 2374.109822 1418.406349 2371.393764 1423.113223 L 2362.886111 1437.911955 C 2357.214343 1447.884146 2364.403909 1460.409219 2375.987098 1460.409219 L 2440.493477 1460.409219 C 2451.717187 1460.409219 2462.102115 1454.585459 2468.013536 1445.012155 L 2474.883565 1433.683746 C 2479.796435 1425.705993 2474.00484 1415.494469 2464.698347 1415.494469 Z M 2464.698347 1415.494469 " stroke="#9a3b82" stroke-width="5" stroke-opacity="1" stroke-miterlimit="10"/><path stroke-linecap="round" transform="matrix(0.097798, 0, 0, 0.0979286, -57.214401, -5.047045)" fill="none" stroke-linejoin="miter" d="M 2508.315045 1325.106526 L 2428.111447 1325.106526 C 2422.719273 1325.106526 2417.686577 1328.018406 2415.010461 1332.685392 L 2406.502809 1347.484124 C 2400.791098 1357.496204 2407.980664 1369.981387 2419.603795 1369.981387 L 2484.110174 1369.981387 C 2495.293943 1369.981387 2505.718813 1364.197516 2511.590291 1354.584324 L 2518.500263 1343.295803 C 2523.413132 1335.31805 2517.581596 1325.106526 2508.315045 1325.106526 Z M 2508.315045 1325.106526 " stroke="#9a3b82" stroke-width="5" stroke-opacity="1" stroke-miterlimit="10"/><path fill="#e57281" d="M 199.445312 131.269531 C 197.089844 131.269531 194.820312 130.417969 193.039062 128.859375 L 190.066406 126.253906 L 187.328125 126.253906 L 186.625 127.007812 C 185.363281 128.359375 183.808594 129.132812 181.960938 129.132812 L 180.648438 129.132812 C 179.964844 129.132812 179.542969 128.371094 179.917969 127.792969 L 183.210938 122.621094 L 199.457031 122.621094 L 199.457031 131.269531 Z M 199.445312 131.269531 " fill-opacity="1" fill-rule="nonzero"/><path stroke-linecap="round" transform="matrix(0.097798, 0, 0, 0.0979286, -57.214401, -5.047045)" fill="none" stroke-linejoin="miter" d="M 2458.387507 1303.686259 L 2424.716375 1356.498985 C 2420.88194 1362.402522 2425.195679 1370.180831 2432.185535 1370.180831 L 2445.606057 1370.180831 C 2464.498637 1370.180831 2480.395565 1362.402522 2493.296841 1348.481343 L 2500.486407 1340.782811 L 2528.48577 1340.782811 L 2558.881655 1367.388618 C 2577.015337 1383.184569 2600.301541 1391.999986 2624.386586 1391.999986 " stroke="#9a3b82" stroke-width="5" stroke-opacity="1" stroke-miterlimit="10"/><path fill="#e57281" d="M 265.480469 119.65625 L 250.546875 136.363281 C 247.40625 139.878906 242.917969 141.886719 238.203125 141.886719 C 228.894531 141.886719 222.449219 132.582031 225.714844 123.847656 L 243.457031 82.109375 L 237.460938 78.75 C 236.609375 78.085938 236.199219 76.996094 236.386719 75.941406 L 237.402344 69.074219 C 237.714844 67.546875 239.269531 66.351562 240.785156 66 L 247.808594 64.414062 C 248.402344 64.277344 248.953125 64.785156 248.855469 65.382812 L 247.835938 70.679688 C 247.4375 73.265625 249.175781 75.5 251.757812 75.941406 C 253.871094 76.300781 255.359375 78.425781 255.164062 80.5625 L 250.378906 110.429688 C 250.371094 110.449219 255.269531 118.097656 265.480469 119.65625 Z M 265.480469 119.65625 " fill-opacity="1" fill-rule="nonzero"/><path stroke-linecap="round" transform="matrix(0.097798, 0, 0, 0.0979286, -57.214401, -5.047045)" fill="none" stroke-linejoin="miter" d="M 3182.496578 946.681808 L 3123.502199 1329.8134 " stroke="#9a3b82" stroke-width="5" stroke-opacity="1" stroke-miterlimit="10"/><path stroke-linecap="round" transform="matrix(0.097798, 0, 0, 0.0979286, -57.214401, -5.047045)" fill="none" stroke-linejoin="miter" d="M 3060.194081 761.996824 L 3059.39524 786.807636 C 3059.115646 797.01916 3065.186835 805.994132 3074.014023 808.507124 L 3165.880694 827.095289 " stroke="#9a3b82" stroke-width="5" stroke-opacity="1" stroke-miterlimit="10"/><path stroke-linecap="round" transform="matrix(0.097798, 0, 0, 0.0979286, -57.214401, -5.047045)" fill="none" stroke-linejoin="miter" d="M 3228.389972 835.112931 L 3154.896635 825.300295 C 3130.691765 820.992308 3114.195706 798.415267 3117.590779 774.08312 L 3127.096982 719.79451 C 3128.015649 714.688748 3123.382373 710.380761 3118.389619 711.617313 L 3043.418428 729.088592 " stroke="#9a3b82" stroke-width="5" stroke-opacity="1" stroke-miterlimit="10"/><path stroke-linecap="butt" transform="matrix(0.097798, 0, 0, 0.0979286, -57.214401, -5.047045)" fill="none" stroke-linejoin="miter" d="M 3187.808868 1397.983301 L 3386.600355 1176.800096 " stroke="#fe5244" stroke-width="6" stroke-opacity="1" stroke-miterlimit="10"/><path stroke-linecap="round" transform="matrix(0.097798, 0, 0, 0.0979286, -57.214401, -5.047045)" fill="none" stroke-linejoin="miter" d="M 3076.490429 890.119539 L 3111.599474 890.119539 " stroke="#9a3b82" stroke-width="5" stroke-opacity="1" stroke-miterlimit="10"/><path stroke-linecap="round" transform="matrix(0.097798, 0, 0, 0.0979286, -57.214401, -5.047045)" fill="none" stroke-linejoin="miter" d="M 3060.313907 768.618359 L 3060.313907 776.596112 C 3060.313907 786.089638 3067.183936 793.907836 3075.691589 793.907836 L 3086.715589 793.907836 C 3091.508633 793.907836 3095.303126 789.59985 3095.303126 784.214866 L 3095.98214 732.000472 C 3096.101966 723.903053 3087.51443 718.916957 3080.484632 720.592285 " stroke="#9a3b82" stroke-width="5" stroke-opacity="1" stroke-miterlimit="10"/><path stroke-linecap="round" transform="matrix(0.097798, 0, 0, 0.0979286, -57.214401, -5.047045)" fill="none" stroke-linejoin="miter" d="M 3095.98214 768.618359 L 3095.98214 776.596112 C 3095.98214 786.089638 3102.892112 793.907836 3111.399764 793.907836 L 3118.389619 793.907836 " stroke="#9a3b82" stroke-width="5" stroke-opacity="1" stroke-miterlimit="10"/><path stroke-linecap="butt" transform="matrix(0.097798, 0, 0, 0.0979286, -57.214401, -5.047045)" fill="none" stroke-linejoin="miter" d="M 3760.098282 2029.781457 L 3876.209765 2996.007023 " stroke="#66b0f0" stroke-width="6" stroke-opacity="1" stroke-miterlimit="10"/><path stroke-linecap="butt" transform="matrix(0.097798, 0, 0, 0.0979286, -57.214401, -5.047045)" fill="none" stroke-linejoin="miter" d="M 3256.908581 2029.781457 L 3140.797099 2996.007023 " stroke="#66b0f0" stroke-width="6" stroke-opacity="1" stroke-miterlimit="10"/><path stroke-linecap="butt" transform="matrix(0.097798, 0, 0, 0.0979286, -57.214401, -5.047045)" fill="none" stroke-linejoin="miter" d="M 3180.619303 2664.212272 L 3836.307677 2664.212272 " stroke="#66b0f0" stroke-width="6" stroke-opacity="1" stroke-miterlimit="10"/><path stroke-linecap="butt" transform="matrix(0.097798, 0, 0, 0.0979286, -57.214401, -5.047045)" fill-opacity="1" fill="#ffffff" fill-rule="nonzero" stroke-linejoin="miter" d="M 3190.00568 2032.813003 L 3821.009879 2032.813003 C 3829.397705 2032.813003 3836.18785 2025.992024 3836.18785 2017.615383 L 3836.18785 1996.992892 C 3836.18785 1988.616251 3829.397705 1981.795272 3821.009879 1981.795272 L 3190.00568 1981.795272 C 3181.617854 1981.795272 3174.787767 1988.616251 3174.787767 1996.992892 L 3174.787767 2017.615383 C 3174.787767 2025.992024 3181.617854 2032.813003 3190.00568 2032.813003 Z M 3190.00568 2032.813003 " stroke="#ffcf2d" stroke-width="6" stroke-opacity="1" stroke-miterlimit="10"/><path stroke-linecap="butt" transform="matrix(0.097798, 0, 0, 0.0979286, -57.214401, -5.047045)" fill-opacity="1" fill="#ffffff" fill-rule="nonzero" stroke-linejoin="miter" d="M 2140.009581 1301.612043 L 2043.389809 1500.41765 L 1751.49345 1500.41765 L 1868.803194 1301.612043 Z M 2140.009581 1301.612043 " stroke="#3fb1b5" stroke-width="5" stroke-opacity="1" stroke-miterlimit="10"/><path stroke-linecap="butt" transform="matrix(0.097798, 0, 0, 0.0979286, -57.214401, -5.047045)" fill="none" stroke-linejoin="miter" d="M 2075.982506 1350.116782 C 2075.982506 1350.116782 2063.28094 1328.417294 2032.805171 1334.001721 C 2009.998272 1338.110264 1982.997459 1356.897872 1966.381574 1346.806015 C 1949.805632 1336.714157 1935.106964 1324.109307 1913.618152 1330.092622 C 1892.089397 1336.115825 1876.192469 1347.60379 1876.192469 1347.60379 " stroke="#3fb1b5" stroke-width="5" stroke-opacity="1" stroke-miterlimit="10"/><path stroke-linecap="butt" transform="matrix(0.097798, 0, 0, 0.0979286, -57.214401, -5.047045)" fill="none" stroke-linejoin="miter" d="M 2065.996998 1381.110353 C 2065.996998 1381.110353 2053.295433 1359.410864 2022.819663 1364.995292 C 2000.012764 1369.103834 1973.011951 1387.891443 1956.396067 1377.799585 C 1939.780182 1367.707728 1925.081515 1355.102878 1903.592702 1361.086193 C 1882.10389 1367.109396 1866.206962 1378.597361 1866.206962 1378.597361 " stroke="#3fb1b5" stroke-width="5" stroke-opacity="1" stroke-miterlimit="10"/><path fill="#fe5244" d="M 162.8125 209.789062 C 162.8125 212.402344 155.566406 214.519531 146.488281 214.519531 C 137.414062 214.519531 130.382812 212.402344 130.382812 209.789062 C 130.382812 207.175781 137.414062 205.058594 146.488281 205.058594 C 155.566406 205.058594 162.8125 207.183594 162.8125 209.789062 Z M 162.8125 209.789062 " fill-opacity="1" fill-rule="nonzero"/><path fill="#a0505a" d="M 158.636719 206.605469 L 158.636719 240.390625 L 157.609375 235.515625 C 156.503906 230.265625 151.878906 226.515625 146.519531 226.515625 C 144.90625 226.515625 143.320312 226.859375 141.882812 227.503906 C 141.832031 227.523438 141.785156 227.554688 141.726562 227.574219 L 137.960938 213.824219 L 135.867188 206.175781 C 138.734375 205.480469 142.441406 205.058594 146.488281 205.058594 C 151.300781 205.058594 155.632812 205.65625 158.636719 206.605469 Z M 158.636719 206.605469 " fill-opacity="1" fill-rule="nonzero"/><path fill="#73325a" d="M 158.636719 206.605469 L 158.636719 212.972656 C 155.632812 213.921875 151.300781 214.519531 146.488281 214.519531 C 143.371094 214.519531 140.453125 214.265625 137.960938 213.832031 L 135.867188 206.183594 C 138.734375 205.488281 142.441406 205.070312 146.488281 205.070312 C 151.300781 205.058594 155.632812 205.65625 158.636719 206.605469 Z M 158.636719 206.605469 " fill-opacity="1" fill-rule="nonzero"/><path fill="#ffcf2d" d="M 157.910156 239.402344 C 158.175781 239.480469 160.660156 240.175781 162.859375 240.175781 C 164.054688 240.175781 165.160156 239.96875 165.785156 239.34375 C 166.324219 238.804688 166.449219 238.019531 166.164062 237.03125 C 165.910156 236.152344 165.421875 235.601562 164.707031 235.40625 C 163.398438 235.054688 161.578125 236.035156 160.140625 237.0625 C 162.382812 234.339844 164.589844 230.882812 163.769531 228.621094 C 163.476562 227.816406 162.8125 227.277344 161.980469 227.179688 C 161.285156 227.101562 160.640625 227.347656 160.335938 227.808594 C 158.929688 229.953125 157.773438 238.757812 157.726562 239.128906 Z M 160.746094 228.082031 C 160.925781 227.816406 161.296875 227.660156 161.726562 227.660156 C 161.792969 227.660156 161.863281 227.660156 161.929688 227.671875 C 162.246094 227.710938 162.996094 227.886719 163.320312 228.785156 C 163.535156 229.382812 163.613281 230.480469 162.742188 232.320312 C 161.921875 234.066406 160.433594 236.113281 158.324219 238.433594 C 158.636719 236.199219 159.632812 229.777344 160.746094 228.082031 Z M 165.441406 239 C 164.796875 239.648438 163.328125 239.84375 161.1875 239.570312 C 160.0625 239.421875 159.015625 239.1875 158.460938 239.039062 C 158.878906 238.667969 159.664062 237.992188 160.570312 237.367188 C 162.3125 236.160156 163.703125 235.640625 164.589844 235.886719 C 165.128906 236.035156 165.492188 236.453125 165.707031 237.167969 C 165.941406 237.992188 165.851562 238.589844 165.441406 239 Z M 165.441406 239 " fill-opacity="1" fill-rule="nonzero"/><path stroke-linecap="butt" transform="matrix(0.097798, 0, 0, 0.0979286, -57.214401, -5.047045)" fill-opacity="1" fill="#ffffff" fill-rule="nonzero" stroke-linejoin="miter" d="M 1996.697575 2403.419523 L 1973.611082 2429.307332 C 1947.40911 2458.705352 1943.09537 2501.505997 1962.986502 2535.491226 L 2064.718853 2709.884908 C 2084.609985 2743.989803 2121.117001 2764.891516 2160.499843 2764.891516 L 2202.598743 2764.891516 C 2233.114454 2764.891516 2255.801528 2736.889603 2249.490687 2707.092695 L 2196.487612 2456.591248 C 2185.184018 2402.980747 2137.892653 2364.687532 2083.092187 2364.687532 C 2050.219896 2364.607754 2018.705634 2378.688489 1996.697575 2403.419523 Z M 1996.697575 2403.419523 " stroke="#3fb1b5" stroke-width="5" stroke-opacity="1" stroke-miterlimit="10"/><path fill="#3fb1b5" d="M 145.753906 237.699219 L 158.597656 262.613281 C 159.203125 263.738281 159.957031 264.460938 160.816406 264.921875 C 160.074219 265.421875 159.171875 265.726562 158.195312 265.726562 L 154.078125 265.726562 C 150.214844 265.726562 146.644531 263.667969 144.710938 260.339844 L 134.761719 243.25 C 134.363281 242.554688 134.058594 241.832031 133.855469 241.078125 C 132.445312 235.835938 138.402344 231.726562 142.871094 234.800781 C 143.886719 235.496094 144.886719 236.433594 145.753906 237.699219 Z M 145.753906 237.699219 " fill-opacity="1" fill-rule="nonzero"/><path fill="#ffffff" d="M 145.785156 237.757812 L 133.933594 237.757812 C 133.992188 237.570312 134.058594 237.394531 134.136719 237.226562 L 145.402344 237.226562 C 145.519531 237.386719 145.636719 237.542969 145.753906 237.707031 Z M 145.785156 237.757812 " fill-opacity="1" fill-rule="nonzero"/><path fill="#ffffff" d="M 147.527344 241.125 L 133.875 241.125 C 133.875 241.105469 133.863281 241.085938 133.863281 241.078125 C 133.824219 240.921875 133.785156 240.753906 133.753906 240.597656 L 147.261719 240.597656 Z M 147.527344 241.125 " fill-opacity="1" fill-rule="nonzero"/><path fill="#ffffff" d="M 149.265625 244.503906 L 135.496094 244.503906 L 135.183594 243.964844 L 148.992188 243.964844 Z M 149.265625 244.503906 " fill-opacity="1" fill-rule="nonzero"/><path fill="#ffffff" d="M 151.007812 247.882812 L 137.460938 247.882812 L 137.148438 247.34375 L 150.734375 247.34375 Z M 151.007812 247.882812 " fill-opacity="1" fill-rule="nonzero"/><path fill="#ffffff" d="M 152.75 251.25 L 139.429688 251.25 L 139.113281 250.722656 L 152.472656 250.722656 Z M 152.75 251.25 " fill-opacity="1" fill-rule="nonzero"/><path fill="#ffffff" d="M 154.488281 254.628906 L 141.394531 254.628906 L 141.082031 254.089844 L 154.207031 254.089844 Z M 154.488281 254.628906 " fill-opacity="1" fill-rule="nonzero"/><path fill="#ffffff" d="M 156.230469 258.007812 L 143.359375 258.007812 L 143.046875 257.46875 L 155.945312 257.46875 Z M 156.230469 258.007812 " fill-opacity="1" fill-rule="nonzero"/><path fill="#ffffff" d="M 157.960938 261.378906 L 145.402344 261.378906 C 145.277344 261.199219 145.148438 261.023438 145.03125 260.847656 L 157.6875 260.847656 Z M 157.960938 261.378906 " fill-opacity="1" fill-rule="nonzero"/><path fill="#ffffff" d="M 160.53125 264.757812 L 149.617188 264.757812 C 149.265625 264.597656 148.925781 264.421875 148.589844 264.226562 L 159.828125 264.226562 C 160.054688 264.421875 160.289062 264.597656 160.53125 264.757812 Z M 160.53125 264.757812 " fill-opacity="1" fill-rule="nonzero"/><path fill="#73325a" d="M 122.753906 209.09375 C 122.664062 211.679688 115.339844 213.773438 106.324219 213.773438 C 97.304688 213.773438 89.980469 211.6875 89.894531 209.09375 L 89.894531 188.734375 L 122.753906 188.734375 Z M 122.753906 209.09375 " fill-opacity="1" fill-rule="nonzero"/><path fill="#a0505a" d="M 120.574219 212.472656 L 120.523438 214.890625 L 120.054688 238.5 L 120.054688 237.816406 C 120.054688 231.753906 115.144531 226.839844 109.089844 226.839844 L 108.425781 226.839844 C 105.335938 226.839844 102.546875 228.042969 100.484375 229.980469 L 99.046875 220.246094 L 98.15625 214.226562 C 100.5625 214.625 103.351562 214.851562 106.3125 214.851562 C 112.417969 214.839844 117.726562 213.882812 120.574219 212.472656 Z M 120.574219 212.472656 " fill-opacity="1" fill-rule="nonzero"/><path fill="#73325a" d="M 120.574219 212.472656 L 120.523438 214.890625 C 116.886719 217.476562 105.648438 220.660156 99.058594 220.238281 L 98.167969 214.214844 C 100.574219 214.605469 103.359375 214.839844 106.324219 214.839844 C 112.417969 214.839844 117.726562 213.882812 120.574219 212.472656 Z M 120.574219 212.472656 " fill-opacity="1" fill-rule="nonzero"/><path stroke-linecap="butt" transform="matrix(0.097798, 0, 0, 0.0979286, -57.214401, -5.047045)" fill-opacity="1" fill="#ffffff" fill-rule="nonzero" stroke-linejoin="miter" d="M 1705.600057 2768.202283 L 1724.213043 2768.202283 C 1772.982262 2768.202283 1812.604757 2728.592739 1812.604757 2679.808779 L 1812.604757 2480.005953 C 1812.604757 2418.098589 1762.397624 2367.918522 1700.487477 2367.918522 L 1693.697332 2367.918522 C 1621.681851 2367.918522 1566.20237 2431.381548 1575.908284 2502.782438 L 1599.394198 2675.58057 C 1606.703589 2728.592739 1651.997852 2768.202283 1705.600057 2768.202283 Z M 1705.600057 2768.202283 " stroke="#3fb1b5" stroke-width="5" stroke-opacity="1" stroke-miterlimit="10"/><path fill="#3fb1b5" d="M 117.335938 263.679688 C 115.789062 265.136719 113.699219 266.039062 111.410156 266.039062 L 109.589844 266.039062 C 104.347656 266.039062 99.917969 262.160156 99.214844 256.96875 L 96.914062 240.046875 C 96.875 239.726562 96.835938 239.402344 96.828125 239.089844 C 97.414062 235.339844 100.652344 232.46875 104.5625 232.46875 C 106.488281 232.46875 108.269531 233.175781 109.648438 234.347656 C 111.027344 235.523438 111.996094 237.179688 112.300781 239.089844 L 115.320312 259.742188 C 115.546875 261.28125 116.269531 262.652344 117.335938 263.679688 Z M 117.335938 263.679688 " fill-opacity="1" fill-rule="nonzero"/><path fill="#ffffff" d="M 111.390625 236.472656 L 97.726562 236.472656 C 97.824219 236.289062 97.941406 236.113281 98.058594 235.945312 L 111.066406 235.945312 C 111.183594 236.113281 111.292969 236.289062 111.390625 236.472656 Z M 111.390625 236.472656 " fill-opacity="1" fill-rule="nonzero"/><path fill="#ffffff" d="M 112.40625 239.84375 L 96.886719 239.84375 C 96.867188 239.667969 96.847656 239.492188 96.835938 239.3125 L 112.328125 239.3125 Z M 112.40625 239.84375 " fill-opacity="1" fill-rule="nonzero"/><path fill="#ffffff" d="M 112.90625 243.222656 L 97.34375 243.222656 L 97.265625 242.691406 L 112.828125 242.691406 Z M 112.90625 243.222656 " fill-opacity="1" fill-rule="nonzero"/><path fill="#ffffff" d="M 113.394531 246.601562 L 97.804688 246.601562 L 97.726562 246.0625 L 113.316406 246.0625 Z M 113.394531 246.601562 " fill-opacity="1" fill-rule="nonzero"/><path fill="#ffffff" d="M 113.894531 249.96875 L 98.265625 249.96875 L 98.1875 249.441406 L 113.816406 249.441406 Z M 113.894531 249.96875 " fill-opacity="1" fill-rule="nonzero"/><path fill="#ffffff" d="M 114.382812 253.347656 L 98.714844 253.347656 L 98.644531 252.820312 L 114.304688 252.820312 Z M 114.382812 253.347656 " fill-opacity="1" fill-rule="nonzero"/><path fill="#ffffff" d="M 114.878906 256.726562 L 99.175781 256.726562 L 99.105469 256.1875 L 114.800781 256.1875 Z M 114.878906 256.726562 " fill-opacity="1" fill-rule="nonzero"/><path fill="#ffffff" d="M 115.378906 260.09375 L 100.140625 260.09375 C 100.054688 259.917969 99.976562 259.742188 99.90625 259.566406 L 115.292969 259.566406 L 115.320312 259.742188 C 115.339844 259.859375 115.359375 259.976562 115.378906 260.09375 Z M 115.378906 260.09375 " fill-opacity="1" fill-rule="nonzero"/><path fill="#ffffff" d="M 117.128906 263.472656 L 102.722656 263.472656 C 102.527344 263.304688 102.332031 263.121094 102.15625 262.945312 L 116.679688 262.945312 C 116.816406 263.128906 116.972656 263.304688 117.128906 263.472656 Z M 117.128906 263.472656 " fill-opacity="1" fill-rule="nonzero"/><path fill="#ffcf2d" d="M 129.863281 103.273438 L 129.863281 119.761719 C 129.148438 117.890625 123.496094 118.15625 117.277344 120.515625 C 111.945312 122.542969 107.945312 125.324219 107.359375 127.253906 L 107.359375 104.046875 C 107.359375 97.140625 111.046875 90.972656 116.710938 87.601562 C 124.0625 88.886719 129.863281 95.300781 129.863281 103.273438 Z M 129.863281 103.273438 " fill-opacity="1" fill-rule="nonzero"/><path fill="#ffcf2d" d="M 106.929688 88.347656 C 101.921875 91.832031 98.734375 97.621094 98.734375 104.046875 L 98.734375 123.191406 L 70.890625 123.191406 L 74.734375 106.621094 C 76.367188 99.558594 81.472656 93.929688 88.125 91.53125 Z M 106.929688 88.347656 " fill-opacity="1" fill-rule="nonzero"/><path fill="#fe5244" d="M 163.242188 170.292969 L 163.242188 208.730469 C 163.242188 206.117188 155.566406 204 146.488281 204 C 137.414062 204 130.058594 206.117188 130.058594 208.730469 L 130.058594 190.3125 C 130.058594 189.449219 129.355469 188.742188 128.496094 188.742188 L 78.578125 188.742188 C 63.566406 188.742188 52.464844 174.75 55.859375 160.109375 L 67.910156 108.128906 C 69.824219 99.835938 76.535156 93.519531 84.914062 92.089844 L 88.125 91.539062 C 81.472656 93.9375 76.367188 99.570312 74.734375 106.628906 L 70.890625 123.199219 L 98.734375 123.199219 L 98.734375 104.046875 C 98.734375 97.621094 101.933594 91.824219 106.929688 88.347656 L 111.332031 87.601562 C 112.238281 87.445312 113.128906 87.378906 114.019531 87.378906 C 114.136719 87.378906 114.246094 87.378906 114.363281 87.378906 C 114.46875 87.378906 114.578125 87.386719 114.675781 87.386719 C 114.695312 87.386719 114.714844 87.386719 114.734375 87.386719 C 114.8125 87.386719 114.898438 87.398438 114.976562 87.398438 C 114.988281 87.398438 115.007812 87.398438 115.019531 87.398438 C 115.066406 87.398438 115.117188 87.40625 115.15625 87.40625 C 115.242188 87.417969 115.320312 87.417969 115.410156 87.425781 C 115.507812 87.4375 115.613281 87.445312 115.710938 87.457031 C 115.808594 87.464844 115.898438 87.476562 115.996094 87.484375 C 116.015625 87.484375 116.035156 87.496094 116.0625 87.496094 C 116.160156 87.503906 116.269531 87.523438 116.367188 87.535156 C 116.378906 87.535156 116.386719 87.535156 116.386719 87.535156 C 116.496094 87.554688 116.601562 87.5625 116.710938 87.582031 C 111.046875 90.953125 107.359375 97.121094 107.359375 104.027344 L 107.359375 151.082031 L 144.074219 151.082031 C 154.65625 151.101562 163.242188 159.6875 163.242188 170.292969 Z M 163.242188 170.292969 " fill-opacity="1" fill-rule="nonzero"/><path stroke-linecap="round" transform="matrix(0.097798, 0, 0, 0.0979286, -57.214401, -5.047045)" fill="none" stroke-linejoin="miter" d="M 1684.910085 949.314467 C 1633.704402 984.895245 1594.481328 1048.39816 1594.481328 1114.015179 L 1594.481328 1309.510019 L 1309.814476 1309.510019 L 1349.117434 1140.301876 C 1365.813203 1068.182988 1413.583871 1009.586391 1481.685033 985.094689 " stroke="#ffffff" stroke-width="6" stroke-opacity="1" stroke-miterlimit="10"/><path stroke-linecap="round" transform="matrix(0.097798, 0, 0, 0.0979286, -57.214401, -5.047045)" fill="none" stroke-linejoin="miter" d="M 1914.896297 1934.606863 C 1914.896297 1878.882257 1934.587718 1824.992535 1970.495603 1782.511 " stroke="#ffffff" stroke-width="6" stroke-opacity="1" stroke-miterlimit="10"/><path fill="#ffffff" d="M 89.386719 182.457031 C 89.335938 182.457031 89.285156 182.445312 89.246094 182.417969 L 87.957031 181.710938 C 87.808594 181.632812 87.761719 181.457031 87.839844 181.3125 C 87.917969 181.164062 88.09375 181.113281 88.242188 181.195312 L 89.53125 181.898438 C 89.679688 181.976562 89.726562 182.152344 89.648438 182.300781 C 89.589844 182.398438 89.492188 182.457031 89.386719 182.457031 Z M 90.675781 182.125 C 90.566406 182.125 90.46875 182.066406 90.421875 181.96875 C 90.34375 181.820312 90.390625 181.644531 90.539062 181.566406 L 91.828125 180.859375 C 91.976562 180.78125 92.152344 180.839844 92.230469 180.976562 C 92.308594 181.125 92.261719 181.300781 92.113281 181.378906 L 90.824219 182.085938 C 90.773438 182.105469 90.722656 182.125 90.675781 182.125 Z M 86.804688 181.054688 C 86.753906 181.054688 86.707031 181.046875 86.664062 181.015625 L 85.375 180.3125 C 85.226562 180.234375 85.179688 180.058594 85.257812 179.910156 C 85.335938 179.765625 85.511719 179.714844 85.660156 179.792969 L 86.949219 180.5 C 87.097656 180.578125 87.144531 180.753906 87.066406 180.898438 C 87.007812 180.996094 86.910156 181.054688 86.804688 181.054688 Z M 93.246094 180.714844 C 93.140625 180.714844 93.042969 180.65625 92.992188 180.558594 C 92.914062 180.410156 92.964844 180.234375 93.109375 180.15625 L 94.402344 179.449219 C 94.625 179.332031 94.832031 179.195312 95.039062 179.050781 C 95.164062 178.949219 95.351562 178.980469 95.449219 179.109375 C 95.546875 179.234375 95.515625 179.421875 95.390625 179.519531 C 95.164062 179.683594 94.929688 179.832031 94.683594 179.96875 L 93.394531 180.675781 C 93.34375 180.703125 93.296875 180.714844 93.246094 180.714844 Z M 84.25 179.605469 C 84.191406 179.605469 84.132812 179.585938 84.074219 179.546875 C 83.664062 179.246094 83.28125 178.890625 82.960938 178.492188 C 82.851562 178.363281 82.871094 178.175781 83 178.078125 C 83.125 177.972656 83.3125 177.992188 83.410156 178.117188 C 83.703125 178.480469 84.046875 178.792969 84.417969 179.070312 C 84.542969 179.167969 84.574219 179.351562 84.484375 179.480469 C 84.4375 179.566406 84.347656 179.605469 84.25 179.605469 Z M 96.269531 178.578125 C 96.203125 178.578125 96.144531 178.558594 96.082031 178.511719 C 95.957031 178.414062 95.9375 178.226562 96.042969 178.097656 C 96.339844 177.738281 96.582031 177.34375 96.777344 176.914062 C 96.847656 176.765625 97.023438 176.699219 97.167969 176.765625 C 97.316406 176.835938 97.382812 177.011719 97.316406 177.160156 C 97.101562 177.628906 96.828125 178.070312 96.503906 178.460938 C 96.4375 178.539062 96.359375 178.578125 96.269531 178.578125 Z M 82.410156 177.363281 C 82.304688 177.363281 82.195312 177.304688 82.148438 177.199219 C 81.933594 176.726562 81.777344 176.238281 81.679688 175.730469 C 81.648438 175.574219 81.757812 175.414062 81.914062 175.386719 C 82.070312 175.355469 82.226562 175.464844 82.253906 175.621094 C 82.34375 176.082031 82.480469 176.523438 82.675781 176.945312 C 82.746094 177.089844 82.675781 177.265625 82.527344 177.335938 C 82.488281 177.355469 82.449219 177.363281 82.410156 177.363281 Z M 97.484375 175.933594 C 97.464844 175.933594 97.441406 175.933594 97.433594 175.933594 C 97.277344 175.90625 97.167969 175.75 97.199219 175.59375 C 97.257812 175.269531 97.285156 174.945312 97.285156 174.621094 L 97.285156 174.183594 C 97.285156 174.015625 97.414062 173.886719 97.582031 173.886719 C 97.746094 173.886719 97.875 174.015625 97.875 174.183594 L 97.875 174.621094 C 97.875 174.984375 97.84375 175.347656 97.777344 175.699219 C 97.746094 175.835938 97.621094 175.933594 97.484375 175.933594 Z M 81.875 174.503906 C 81.707031 174.503906 81.582031 174.378906 81.582031 174.210938 L 81.582031 172.742188 C 81.582031 172.574219 81.707031 172.449219 81.875 172.449219 C 82.039062 172.449219 82.167969 172.574219 82.167969 172.742188 L 82.167969 174.210938 C 82.167969 174.367188 82.03125 174.503906 81.875 174.503906 Z M 97.570312 173.007812 C 97.402344 173.007812 97.277344 172.878906 97.277344 172.714844 L 97.277344 171.242188 C 97.277344 171.078125 97.402344 170.949219 97.570312 170.949219 C 97.738281 170.949219 97.863281 171.078125 97.863281 171.242188 L 97.863281 172.714844 C 97.863281 172.878906 97.738281 173.007812 97.570312 173.007812 Z M 81.875 171.566406 C 81.707031 171.566406 81.582031 171.441406 81.582031 171.273438 L 81.582031 169.804688 C 81.582031 169.636719 81.707031 169.511719 81.875 169.511719 C 82.039062 169.511719 82.167969 169.636719 82.167969 169.804688 L 82.167969 171.273438 C 82.167969 171.429688 82.03125 171.566406 81.875 171.566406 Z M 97.570312 170.070312 C 97.402344 170.070312 97.277344 169.941406 97.277344 169.773438 L 97.277344 168.304688 C 97.277344 168.140625 97.402344 168.011719 97.570312 168.011719 C 97.738281 168.011719 97.863281 168.140625 97.863281 168.304688 L 97.863281 169.773438 C 97.863281 169.941406 97.738281 170.070312 97.570312 170.070312 Z M 81.875 168.628906 C 81.707031 168.628906 81.582031 168.503906 81.582031 168.335938 L 81.582031 166.867188 C 81.582031 166.699219 81.707031 166.574219 81.875 166.574219 C 82.039062 166.574219 82.167969 166.699219 82.167969 166.867188 L 82.167969 168.335938 C 82.167969 168.492188 82.03125 168.628906 81.875 168.628906 Z M 97.570312 167.132812 C 97.402344 167.132812 97.277344 167.003906 97.277344 166.835938 L 97.277344 165.367188 C 97.277344 165.203125 97.402344 165.074219 97.570312 165.074219 C 97.738281 165.074219 97.863281 165.203125 97.863281 165.367188 L 97.863281 166.835938 C 97.863281 167.003906 97.738281 167.132812 97.570312 167.132812 Z M 81.875 165.691406 C 81.707031 165.691406 81.582031 165.5625 81.582031 165.398438 L 81.582031 164.132812 L 82.371094 164.132812 C 82.539062 164.132812 82.667969 164.261719 82.667969 164.429688 C 82.667969 164.59375 82.539062 164.722656 82.371094 164.722656 L 82.167969 164.722656 L 82.167969 165.398438 C 82.167969 165.554688 82.03125 165.691406 81.875 165.691406 Z M 97.042969 164.722656 L 95.574219 164.722656 C 95.410156 164.722656 95.28125 164.59375 95.28125 164.429688 C 95.28125 164.261719 95.410156 164.132812 95.574219 164.132812 L 97.042969 164.132812 C 97.207031 164.132812 97.335938 164.261719 97.335938 164.429688 C 97.335938 164.59375 97.207031 164.722656 97.042969 164.722656 Z M 94.109375 164.722656 L 92.640625 164.722656 C 92.476562 164.722656 92.347656 164.59375 92.347656 164.429688 C 92.347656 164.261719 92.476562 164.132812 92.640625 164.132812 L 94.109375 164.132812 C 94.273438 164.132812 94.402344 164.261719 94.402344 164.429688 C 94.402344 164.59375 94.273438 164.722656 94.109375 164.722656 Z M 91.175781 164.722656 L 89.707031 164.722656 C 89.542969 164.722656 89.414062 164.59375 89.414062 164.429688 C 89.414062 164.261719 89.542969 164.132812 89.707031 164.132812 L 91.175781 164.132812 C 91.339844 164.132812 91.46875 164.261719 91.46875 164.429688 C 91.46875 164.59375 91.339844 164.722656 91.175781 164.722656 Z M 88.242188 164.722656 L 86.773438 164.722656 C 86.605469 164.722656 86.480469 164.59375 86.480469 164.429688 C 86.480469 164.261719 86.605469 164.132812 86.773438 164.132812 L 88.242188 164.132812 C 88.40625 164.132812 88.535156 164.261719 88.535156 164.429688 C 88.535156 164.59375 88.40625 164.722656 88.242188 164.722656 Z M 85.304688 164.722656 L 83.839844 164.722656 C 83.671875 164.722656 83.546875 164.59375 83.546875 164.429688 C 83.546875 164.261719 83.671875 164.132812 83.839844 164.132812 L 85.304688 164.132812 C 85.472656 164.132812 85.601562 164.261719 85.601562 164.429688 C 85.601562 164.59375 85.472656 164.722656 85.304688 164.722656 Z M 85.304688 164.722656 " fill-opacity="1" fill-rule="nonzero"/><path fill="#ffffff" d="M 61.707031 180.832031 C 61.601562 180.832031 61.503906 180.773438 61.453125 180.675781 C 61.375 180.527344 61.425781 180.351562 61.570312 180.273438 L 62.765625 179.617188 C 62.792969 179.597656 62.824219 179.585938 62.851562 179.566406 C 62.988281 179.488281 63.175781 179.539062 63.253906 179.675781 C 63.332031 179.8125 63.28125 180 63.144531 180.078125 C 63.117188 180.097656 63.085938 180.117188 63.046875 180.125 L 61.855469 180.78125 C 61.804688 180.820312 61.757812 180.832031 61.707031 180.832031 Z M 64.183594 179.265625 C 64.105469 179.265625 64.027344 179.234375 63.96875 179.167969 C 63.859375 179.050781 63.871094 178.863281 63.988281 178.753906 C 64.328125 178.441406 64.632812 178.078125 64.894531 177.699219 C 64.984375 177.558594 65.171875 177.53125 65.308594 177.617188 C 65.445312 177.707031 65.472656 177.894531 65.386719 178.03125 C 65.101562 178.453125 64.757812 178.84375 64.386719 179.195312 C 64.320312 179.246094 64.25 179.265625 64.183594 179.265625 Z M 65.816406 176.855469 C 65.777344 176.855469 65.746094 176.84375 65.707031 176.835938 C 65.5625 176.777344 65.484375 176.609375 65.542969 176.453125 C 65.707031 176.011719 65.824219 175.5625 65.894531 175.101562 C 65.914062 174.945312 66.058594 174.828125 66.226562 174.847656 C 66.382812 174.867188 66.5 175.015625 66.480469 175.179688 C 66.410156 175.691406 66.285156 176.1875 66.097656 176.667969 C 66.039062 176.785156 65.933594 176.855469 65.816406 176.855469 Z M 66.234375 173.976562 C 66.070312 173.976562 65.941406 173.847656 65.941406 173.683594 L 65.941406 172.214844 C 65.941406 172.046875 66.070312 171.917969 66.234375 171.917969 C 66.402344 171.917969 66.53125 172.046875 66.53125 172.214844 L 66.53125 173.683594 C 66.53125 173.839844 66.402344 173.976562 66.234375 173.976562 Z M 66.234375 171.039062 C 66.070312 171.039062 65.941406 170.910156 65.941406 170.746094 L 65.941406 169.277344 C 65.941406 169.109375 66.070312 168.980469 66.234375 168.980469 C 66.402344 168.980469 66.53125 169.109375 66.53125 169.277344 L 66.53125 170.746094 C 66.53125 170.902344 66.402344 171.039062 66.234375 171.039062 Z M 66.234375 168.101562 C 66.070312 168.101562 65.941406 167.972656 65.941406 167.808594 L 65.941406 166.335938 C 65.941406 166.171875 66.070312 166.042969 66.234375 166.042969 C 66.402344 166.042969 66.53125 166.171875 66.53125 166.335938 L 66.53125 167.808594 C 66.53125 167.964844 66.402344 168.101562 66.234375 168.101562 Z M 66.234375 165.164062 C 66.070312 165.164062 65.941406 165.035156 65.941406 164.867188 L 65.941406 164.722656 L 65.210938 164.722656 C 65.042969 164.722656 64.914062 164.59375 64.914062 164.429688 C 64.914062 164.261719 65.042969 164.132812 65.210938 164.132812 L 66.53125 164.132812 L 66.53125 164.867188 C 66.53125 165.027344 66.402344 165.164062 66.234375 165.164062 Z M 63.742188 164.722656 L 62.273438 164.722656 C 62.109375 164.722656 61.980469 164.59375 61.980469 164.429688 C 61.980469 164.261719 62.109375 164.132812 62.273438 164.132812 L 63.742188 164.132812 C 63.910156 164.132812 64.035156 164.261719 64.035156 164.429688 C 64.035156 164.59375 63.898438 164.722656 63.742188 164.722656 Z M 60.808594 164.722656 L 59.339844 164.722656 C 59.175781 164.722656 59.046875 164.59375 59.046875 164.429688 C 59.046875 164.261719 59.175781 164.132812 59.339844 164.132812 L 60.808594 164.132812 C 60.972656 164.132812 61.101562 164.261719 61.101562 164.429688 C 61.101562 164.59375 60.964844 164.722656 60.808594 164.722656 Z M 57.875 164.722656 L 56.40625 164.722656 C 56.242188 164.722656 56.113281 164.59375 56.113281 164.429688 C 56.113281 164.261719 56.242188 164.132812 56.40625 164.132812 L 57.875 164.132812 C 58.039062 164.132812 58.167969 164.261719 58.167969 164.429688 C 58.167969 164.59375 58.03125 164.722656 57.875 164.722656 Z M 57.875 164.722656 " fill-opacity="1" fill-rule="nonzero"/><path fill="#fe5244" d="M 129.863281 119.761719 C 130.578125 121.632812 126.058594 124.953125 119.847656 127.3125 C 113.640625 129.671875 108.074219 130.035156 107.359375 128.15625 C 106.644531 126.273438 111.058594 122.886719 117.277344 120.527344 C 123.496094 118.167969 129.148438 117.882812 129.863281 119.761719 Z M 129.863281 119.761719 " fill-opacity="1" fill-rule="nonzero"/><path fill="#73325a" d="M 133.335938 180.519531 L 133.335938 181.554688 C 133.011719 181.476562 132.671875 181.4375 132.328125 181.4375 L 131.066406 181.4375 C 129.199219 181.4375 127.605469 180.242188 126.996094 178.578125 L 130.578125 178.097656 C 132.035156 177.902344 133.335938 179.039062 133.335938 180.519531 Z M 133.335938 180.519531 " fill-opacity="1" fill-rule="nonzero"/><path fill="#a0505a" d="M 136.640625 185.757812 L 136.640625 193.726562 C 136.640625 195.589844 135.132812 197.097656 133.277344 197.097656 L 129.53125 197.097656 C 128.601562 197.097656 127.761719 196.726562 127.15625 196.109375 C 126.546875 195.5 126.167969 194.660156 126.167969 193.726562 L 128.601562 193.726562 C 129.402344 193.726562 130.050781 193.082031 130.050781 192.277344 L 130.050781 190.191406 C 130.050781 189.390625 129.402344 188.742188 128.601562 188.742188 L 116.152344 188.742188 C 111.292969 188.742188 107.351562 184.796875 107.351562 179.929688 L 107.351562 127.265625 C 107.9375 125.335938 111.9375 122.542969 117.265625 120.527344 C 120.90625 119.144531 124.355469 118.480469 126.734375 118.539062 L 126.734375 177.121094 C 126.734375 179.507812 128.671875 181.449219 131.054688 181.449219 L 132.316406 181.449219 C 134.703125 181.4375 136.640625 183.367188 136.640625 185.757812 Z M 136.640625 185.757812 " fill-opacity="1" fill-rule="nonzero"/><path fill="#73325a" d="M 126.734375 118.527344 L 126.734375 123.855469 C 124.964844 125.050781 122.566406 126.273438 119.839844 127.304688 C 113.617188 129.664062 108.0625 130.027344 107.351562 128.144531 L 107.351562 127.253906 C 107.9375 125.324219 111.9375 122.535156 117.265625 120.515625 C 120.914062 119.136719 124.355469 118.46875 126.734375 118.527344 Z M 126.734375 118.527344 " fill-opacity="1" fill-rule="nonzero"/><path fill="#a0505a" d="M 110.46875 78.859375 L 106.792969 88.347656 L 87.839844 91.746094 L 92.789062 78.859375 Z M 110.46875 78.859375 " fill-opacity="1" fill-rule="nonzero"/><path fill="#73325a" d="M 110.46875 78.859375 L 108.484375 83.988281 L 89.6875 86.925781 L 92.789062 78.859375 Z M 110.46875 78.859375 " fill-opacity="1" fill-rule="nonzero"/><path stroke-linecap="round" transform="matrix(0.097798, 0, 0, 0.0979286, -57.214401, -5.047045)" fill-opacity="1" fill="#ffffff" fill-rule="nonzero" stroke-linejoin="miter" d="M 1828.182149 659.602363 C 1828.182149 672.685878 1805.495075 687.205389 1779.293103 699.411351 C 1743.584928 716.084855 1701.486028 728.809371 1701.486028 728.809371 L 1673.087244 782.300206 C 1711.711187 802.803031 1726.809275 839.580473 1732.80058 865.308726 C 1736.595072 881.703009 1736.595072 893.390417 1736.595072 893.390417 L 1464.390134 893.390417 C 1464.390134 893.390417 1392.8939 661.796245 1565.203819 606.39075 C 1670.610838 572.485299 1828.182149 628.489126 1828.182149 659.602363 Z M 1828.182149 659.602363 " stroke="#ffcf2d" stroke-width="6" stroke-opacity="1" stroke-miterlimit="10"/><path stroke-linecap="round" transform="matrix(0.097798, 0, 0, 0.0979286, -57.214401, -5.047045)" fill-opacity="1" fill="#ffffff" fill-rule="nonzero" stroke-linejoin="miter" d="M 1607.70214 571.687524 C 1607.70214 576.155066 1607.262778 580.54283 1606.384053 584.890705 C 1605.54527 589.278469 1604.267125 593.506679 1602.549618 597.615221 C 1600.832111 601.723764 1598.755125 605.632863 1596.278719 609.30263 C 1593.802313 613.012285 1591.006371 616.442719 1587.890893 619.554042 C 1584.735472 622.705255 1581.300458 625.537357 1577.625791 627.970572 C 1573.911182 630.443675 1569.996863 632.55778 1565.922776 634.233108 C 1561.808747 635.948325 1557.574892 637.224766 1553.22121 638.102318 C 1548.867529 638.979871 1544.433963 639.418648 1540.000398 639.418648 C 1535.566833 639.418648 1531.133267 638.979871 1526.779586 638.102318 C 1522.425905 637.224766 1518.192049 635.948325 1514.07802 634.233108 C 1510.003933 632.55778 1506.089614 630.443675 1502.375005 627.970572 C 1498.700338 625.537357 1495.265324 622.705255 1492.109903 619.554042 C 1488.994425 616.442719 1486.198483 613.012285 1483.722077 609.30263 C 1481.245671 605.632863 1479.168686 601.723764 1477.451178 597.615221 C 1475.733671 593.506679 1474.455526 589.278469 1473.616743 584.890705 C 1472.738019 580.54283 1472.298656 576.155066 1472.298656 571.687524 C 1472.298656 567.259871 1472.738019 562.872107 1473.616743 558.484342 C 1474.455526 554.136467 1475.733671 549.908258 1477.451178 545.799715 C 1479.168686 541.691172 1481.245671 537.782073 1483.722077 534.072418 C 1486.198483 530.402652 1488.994425 526.972218 1492.109903 523.821005 C 1495.265324 520.669793 1498.700338 517.877579 1502.375005 515.404476 C 1506.089614 512.931372 1510.003933 510.857156 1514.07802 509.14194 C 1518.192049 507.466611 1522.425905 506.150282 1526.779586 505.312618 C 1531.133267 504.435065 1535.566833 503.996289 1540.000398 503.996289 C 1544.433963 503.996289 1548.867529 504.435065 1553.22121 505.312618 C 1557.574892 506.150282 1561.808747 507.466611 1565.922776 509.14194 C 1569.996863 510.857156 1573.911182 512.931372 1577.625791 515.404476 C 1581.300458 517.877579 1584.735472 520.669793 1587.890893 523.821005 C 1591.006371 526.972218 1593.802313 530.402652 1596.278719 534.072418 C 1598.755125 537.782073 1600.832111 541.691172 1602.549618 545.799715 C 1604.267125 549.908258 1605.54527 554.136467 1606.384053 558.484342 C 1607.262778 562.872107 1607.70214 567.259871 1607.70214 571.687524 Z M 1607.70214 571.687524 " stroke="#ffcf2d" stroke-width="6" stroke-opacity="1" stroke-miterlimit="10"/><path fill="#a0505a" d="M 112.238281 79.691406 C 111.691406 77.3125 110.324219 73.921875 106.949219 71.875 L 106.078125 71.875 C 105.277344 71.875 104.542969 71.550781 104.015625 71.023438 C 103.488281 70.496094 103.164062 69.761719 103.164062 68.957031 C 103.164062 67.339844 104.464844 66.039062 106.078125 66.039062 L 109.765625 66.117188 L 109.863281 66.117188 C 109.933594 66.097656 110 66.070312 110.078125 66.050781 C 111.078125 65.832031 114.234375 65.070312 116.855469 63.757812 L 117.160156 65.570312 L 118.136719 71.375 C 118.800781 75.363281 116.074219 79.035156 112.238281 79.691406 Z M 112.238281 79.691406 " fill-opacity="1" fill-rule="nonzero"/><path fill="#73325a" d="M 117.148438 65.558594 C 113.941406 66.863281 109.757812 66.109375 109.757812 66.109375 C 109.757812 66.109375 113.699219 65.324219 116.847656 63.746094 Z M 117.148438 65.558594 " fill-opacity="1" fill-rule="nonzero"/><path stroke-linecap="round" transform="matrix(0.097798, 0, 0, 0.0979286, -57.214401, -5.047045)" fill="none" stroke-linejoin="miter" d="M 1692.898491 761.398492 C 1692.898491 749.990306 1683.711824 740.815889 1672.288403 740.815889 " stroke="#73325a" stroke-width="5" stroke-opacity="1" stroke-miterlimit="10"/><path stroke-linecap="butt" transform="matrix(0.097798, 0, 0, 0.0979286, -57.214401, -5.047045)" fill="none" stroke-linejoin="miter" d="M 1798.784814 2029.781457 L 1914.896297 2996.007023 " stroke="#66b0f0" stroke-width="6" stroke-opacity="1" stroke-miterlimit="10"/><path stroke-linecap="butt" transform="matrix(0.097798, 0, 0, 0.0979286, -57.214401, -5.047045)" fill="none" stroke-linejoin="miter" d="M 1295.515229 2029.781457 L 1179.48363 2996.007023 " stroke="#66b0f0" stroke-width="6" stroke-opacity="1" stroke-miterlimit="10"/><path stroke-linecap="butt" transform="matrix(0.097798, 0, 0, 0.0979286, -57.214401, -5.047045)" fill="none" stroke-linejoin="miter" d="M 1219.305835 2664.212272 L 1874.994208 2664.212272 " stroke="#66b0f0" stroke-width="6" stroke-opacity="1" stroke-miterlimit="10"/><path stroke-linecap="butt" transform="matrix(0.097798, 0, 0, 0.0979286, -57.214401, -5.047045)" fill-opacity="1" fill="#ffffff" fill-rule="nonzero" stroke-linejoin="miter" d="M 1194.581718 2029.781457 L 1899.718325 2029.781457 C 1908.106152 2029.781457 1914.896297 2023.000367 1914.896297 2014.583837 L 1914.896297 1994.001234 C 1914.896297 1985.584705 1908.106152 1978.803615 1899.718325 1978.803615 L 1194.581718 1978.803615 C 1186.193891 1978.803615 1179.403746 1985.584705 1179.403746 1994.001234 L 1179.403746 2014.583837 C 1179.48363 2023.000367 1186.313718 2029.781457 1194.581718 2029.781457 Z M 1194.581718 2029.781457 " stroke="#ffcf2d" stroke-width="6" stroke-opacity="1" stroke-miterlimit="10"/></svg>