<svg xmlns="http://www.w3.org/2000/svg" xmlns:xlink="http://www.w3.org/1999/xlink" width="500" zoomAndPan="magnify" viewBox="0 0 375 374.999991" height="500" preserveAspectRatio="xMidYMid meet" version="1.0"><path fill="#d0f0e4" d="M 367.800781 357.980469 L 1.253906 357.980469 L 67.050781 319.074219 L 303.007812 319.074219 Z M 367.800781 357.980469 " fill-opacity="1" fill-rule="nonzero"/><path stroke-linecap="butt" transform="matrix(0.097798, 0, 0, 0.0979286, -59.9692, 64.586993)" fill-opacity="1" fill="#ffffff" fill-rule="nonzero" stroke-linejoin="miter" d="M 2774.89749 1053.690847 L 2100.59608 1053.690847 L 2100.59608 663.818053 C 2100.59608 637.41169 2122.00501 615.991423 2148.406694 615.991423 L 2727.086876 615.991423 C 2753.48856 615.991423 2774.89749 637.41169 2774.89749 663.818053 Z M 2774.89749 1053.690847 " stroke="#66b0f0" stroke-width="6" stroke-opacity="1" stroke-miterlimit="10"/><path fill="#66b0f0" d="M 206.433594 165.285156 L 150.71875 165.285156 C 149.25 165.285156 148.058594 164.09375 148.058594 162.625 L 148.058594 129.894531 C 148.058594 128.425781 149.25 127.230469 150.71875 127.230469 L 206.433594 127.230469 C 207.898438 127.230469 209.09375 128.425781 209.09375 129.894531 L 209.09375 162.632812 C 209.09375 164.101562 207.898438 165.285156 206.433594 165.285156 Z M 206.433594 165.285156 " fill-opacity="1" fill-rule="nonzero"/><path stroke-linecap="butt" transform="matrix(0.097798, 0, 0, 0.0979286, -59.9692, 64.586993)" fill-opacity="1" fill="#66b0f0" fill-rule="nonzero" stroke-linejoin="miter" d="M 2893.085967 1145.195675 C 2918.88852 1161.988845 2912.897215 1194.897077 2882.381502 1194.897077 L 1963.794616 1194.897077 C 1938.111888 1194.897077 1929.284699 1160.193851 1954.488122 1144.318122 Z M 2893.085967 1145.195675 " stroke="#66b0f0" stroke-width="6" stroke-opacity="1" stroke-miterlimit="10"/><path stroke-linecap="butt" transform="matrix(0.097798, 0, 0, 0.0979286, -59.9692, 64.586993)" fill-opacity="1" fill="#ffffff" fill-rule="nonzero" stroke-linejoin="miter" d="M 2882.381502 1172.000925 L 1963.794616 1172.000925 C 1947.418382 1172.000925 1940.90783 1152.694763 1954.488122 1144.318122 L 2100.79579 1053.690847 L 2772.980272 1053.690847 L 2893.006083 1145.195675 C 2904.988693 1154.290313 2897.998837 1172.000925 2882.381502 1172.000925 Z M 2882.381502 1172.000925 " stroke="#66b0f0" stroke-width="6" stroke-opacity="1" stroke-miterlimit="10"/><path stroke-linecap="butt" transform="matrix(0.097798, 0, 0, 0.0979286, -59.9692, 64.586993)" fill-opacity="1" fill="#ffffff" fill-rule="nonzero" stroke-linejoin="miter" d="M 2776.415287 1144.71701 L 2069.800772 1144.71701 C 2057.219032 1144.71701 2052.186336 1129.798611 2062.611206 1123.416409 L 2164.183798 1053.690847 L 2692.21748 1053.690847 L 2784.483578 1124.094518 C 2793.790071 1131.114941 2788.397897 1144.71701 2776.415287 1144.71701 Z M 2776.415287 1144.71701 " stroke="#66b0f0" stroke-width="6" stroke-opacity="1" stroke-miterlimit="10"/><path stroke-linecap="butt" transform="matrix(0.097798, 0, 0, 0.0979286, -59.9692, 64.586993)" fill="none" stroke-linejoin="miter" d="M 2646.483852 1053.690847 L 2738.909717 1144.71701 " stroke="#66b0f0" stroke-width="6" stroke-opacity="1" stroke-miterlimit="10"/><path stroke-linecap="butt" transform="matrix(0.097798, 0, 0, 0.0979286, -59.9692, 64.586993)" fill="none" stroke-linejoin="miter" d="M 2597.514919 1053.690847 L 2678.916783 1144.71701 " stroke="#66b0f0" stroke-width="6" stroke-opacity="1" stroke-miterlimit="10"/><path stroke-linecap="butt" transform="matrix(0.097798, 0, 0, 0.0979286, -59.9692, 64.586993)" fill="none" stroke-linejoin="miter" d="M 2551.701406 1053.690847 L 2622.318922 1144.71701 " stroke="#66b0f0" stroke-width="6" stroke-opacity="1" stroke-miterlimit="10"/><path stroke-linecap="butt" transform="matrix(0.097798, 0, 0, 0.0979286, -59.9692, 64.586993)" fill="none" stroke-linejoin="miter" d="M 2500.49572 1053.690847 L 2560.20906 1144.71701 " stroke="#66b0f0" stroke-width="6" stroke-opacity="1" stroke-miterlimit="10"/><path stroke-linecap="butt" transform="matrix(0.097798, 0, 0, 0.0979286, -59.9692, 64.586993)" fill="none" stroke-linejoin="miter" d="M 2457.997396 1053.690847 L 2487.115138 1144.71701 " stroke="#66b0f0" stroke-width="6" stroke-opacity="1" stroke-miterlimit="10"/><path stroke-linecap="butt" transform="matrix(0.097798, 0, 0, 0.0979286, -59.9692, 64.586993)" fill="none" stroke-linejoin="miter" d="M 2207.081542 1053.690847 L 2114.695618 1144.71701 " stroke="#66b0f0" stroke-width="6" stroke-opacity="1" stroke-miterlimit="10"/><path stroke-linecap="butt" transform="matrix(0.097798, 0, 0, 0.0979286, -59.9692, 64.586993)" fill="none" stroke-linejoin="miter" d="M 2256.090417 1053.690847 L 2174.688552 1144.71701 " stroke="#66b0f0" stroke-width="6" stroke-opacity="1" stroke-miterlimit="10"/><path stroke-linecap="butt" transform="matrix(0.097798, 0, 0, 0.0979286, -59.9692, 64.586993)" fill="none" stroke-linejoin="miter" d="M 2301.903929 1053.690847 L 2231.286414 1144.71701 " stroke="#66b0f0" stroke-width="6" stroke-opacity="1" stroke-miterlimit="10"/><path stroke-linecap="butt" transform="matrix(0.097798, 0, 0, 0.0979286, -59.9692, 64.586993)" fill="none" stroke-linejoin="miter" d="M 2353.109616 1053.690847 L 2293.396276 1144.71701 " stroke="#66b0f0" stroke-width="6" stroke-opacity="1" stroke-miterlimit="10"/><path stroke-linecap="butt" transform="matrix(0.097798, 0, 0, 0.0979286, -59.9692, 64.586993)" fill="none" stroke-linejoin="miter" d="M 2395.60794 1053.690847 L 2366.490197 1144.71701 " stroke="#66b0f0" stroke-width="6" stroke-opacity="1" stroke-miterlimit="10"/><path stroke-linecap="butt" transform="matrix(0.097798, 0, 0, 0.0979286, -59.9692, 64.586993)" fill="none" stroke-linejoin="miter" d="M 2424.406146 1145.794006 L 2424.406146 1053.690847 " stroke="#66b0f0" stroke-width="6" stroke-opacity="1" stroke-miterlimit="10"/><path stroke-linecap="butt" transform="matrix(0.097798, 0, 0, 0.0979286, -59.9692, 64.586993)" fill="none" stroke-linejoin="miter" d="M 2114.695618 1087.715964 L 2736.912616 1087.715964 " stroke="#66b0f0" stroke-width="6" stroke-opacity="1" stroke-miterlimit="10"/><path fill="#ffcf2d" d="M 201.796875 165.285156 L 152.320312 165.285156 L 153.210938 158.96875 C 153.757812 155.082031 156.546875 151.890625 160.3125 150.8125 L 172.371094 148.304688 L 181.75 148.304688 L 193.808594 150.8125 C 197.582031 151.878906 200.367188 155.082031 200.90625 158.96875 Z M 201.796875 165.285156 " fill-opacity="1" fill-rule="nonzero"/><path fill="#ffffff" d="M 180.398438 155.523438 L 176.828125 151.910156 C 176.75 151.832031 176.75 151.703125 176.828125 151.636719 C 176.90625 151.558594 177.035156 151.558594 177.101562 151.636719 L 180.378906 154.957031 L 185.464844 149.1875 C 185.53125 149.109375 185.660156 149.097656 185.738281 149.167969 C 185.816406 149.238281 185.828125 149.363281 185.757812 149.441406 Z M 180.398438 155.523438 " fill-opacity="1" fill-rule="nonzero"/><path fill="#ffffff" d="M 173.769531 155.523438 L 168.410156 149.441406 C 168.339844 149.363281 168.339844 149.238281 168.429688 149.167969 C 168.507812 149.097656 168.632812 149.097656 168.703125 149.1875 L 173.789062 154.957031 L 177.0625 151.636719 C 177.140625 151.558594 177.257812 151.558594 177.335938 151.636719 C 177.414062 151.714844 177.414062 151.832031 177.335938 151.910156 Z M 173.769531 155.523438 " fill-opacity="1" fill-rule="nonzero"/><path fill="#ffffff" d="M 177.140625 157.882812 C 176.671875 157.882812 176.292969 157.5 176.292969 157.03125 C 176.292969 156.5625 176.671875 156.179688 177.140625 156.179688 C 177.613281 156.179688 177.992188 156.5625 177.992188 157.03125 C 177.992188 157.5 177.613281 157.882812 177.140625 157.882812 Z M 177.140625 156.570312 C 176.886719 156.570312 176.683594 156.777344 176.683594 157.03125 C 176.683594 157.285156 176.886719 157.492188 177.140625 157.492188 C 177.394531 157.492188 177.601562 157.285156 177.601562 157.03125 C 177.601562 156.777344 177.394531 156.570312 177.140625 156.570312 Z M 177.140625 156.570312 " fill-opacity="1" fill-rule="nonzero"/><path fill="#ffffff" d="M 177.140625 162.683594 C 176.671875 162.683594 176.292969 162.300781 176.292969 161.828125 C 176.292969 161.359375 176.671875 160.976562 177.140625 160.976562 C 177.613281 160.976562 177.992188 161.359375 177.992188 161.828125 C 177.992188 162.300781 177.613281 162.683594 177.140625 162.683594 Z M 177.140625 161.371094 C 176.886719 161.371094 176.683594 161.574219 176.683594 161.828125 C 176.683594 162.085938 176.886719 162.289062 177.140625 162.289062 C 177.394531 162.289062 177.601562 162.085938 177.601562 161.828125 C 177.601562 161.574219 177.394531 161.371094 177.140625 161.371094 Z M 177.140625 161.371094 " fill-opacity="1" fill-rule="nonzero"/><path stroke-linecap="butt" transform="matrix(0.097798, 0, 0, 0.0979286, -59.9692, 64.586993)" fill-opacity="1" fill="#ffffff" fill-rule="nonzero" stroke-linejoin="miter" d="M 2375.117676 1026.207487 L 2211.714817 1026.207487 L 2168.098117 896.808332 L 2331.500976 850.01881 Z M 2375.117676 1026.207487 " stroke="#66b0f0" stroke-width="4" stroke-opacity="1" stroke-miterlimit="10"/><path stroke-linecap="round" transform="matrix(0.097798, 0, 0, 0.0979286, -59.9692, 64.586993)" fill-opacity="1" fill="#ffffff" fill-rule="nonzero" stroke-linejoin="miter" d="M 2220.182528 913.601502 L 2217.106992 913.601502 C 2209.198469 913.601502 2202.807744 907.2193 2202.807744 899.281436 L 2202.807744 854.406575 C 2202.807744 851.215473 2205.403976 848.582815 2208.599339 848.582815 L 2222.099746 848.582815 C 2225.295109 848.582815 2227.891341 851.215473 2227.891341 854.406575 L 2227.891341 905.783304 C 2228.011167 910.091291 2224.496268 913.601502 2220.182528 913.601502 Z M 2220.182528 913.601502 " stroke="#66b0f0" stroke-width="4" stroke-opacity="1" stroke-miterlimit="10"/><path fill="#ffffff" d="M 163.597656 154.054688 L 163.898438 154.054688 C 164.671875 154.054688 165.296875 153.429688 165.296875 152.652344 L 165.296875 148.257812 C 165.296875 147.945312 165.042969 147.6875 164.730469 147.6875 L 163.402344 147.6875 C 163.089844 147.6875 162.835938 147.945312 162.835938 148.257812 L 162.835938 153.289062 C 162.835938 153.710938 163.175781 154.054688 163.597656 154.054688 Z M 163.597656 154.054688 " fill-opacity="1" fill-rule="nonzero"/><path fill="#ffffff" d="M 159.617188 154.5625 L 158.914062 154.5625 C 158.363281 154.5625 157.925781 154.125 157.925781 153.574219 L 157.925781 148.265625 C 157.925781 147.953125 158.179688 147.699219 158.492188 147.699219 L 159.8125 147.699219 C 160.125 147.699219 160.378906 147.953125 160.378906 148.265625 L 160.378906 153.800781 C 160.378906 154.222656 160.039062 154.5625 159.617188 154.5625 Z M 159.617188 154.5625 " fill-opacity="1" fill-rule="nonzero"/><path fill="#ffffff" d="M 162.082031 154.757812 L 161.496094 154.757812 C 160.878906 154.757812 160.378906 154.261719 160.378906 153.644531 L 160.378906 148.257812 C 160.378906 147.945312 160.632812 147.6875 160.945312 147.6875 L 162.265625 147.6875 C 162.578125 147.6875 162.835938 147.945312 162.835938 148.257812 L 162.835938 153.996094 C 162.835938 154.417969 162.492188 154.757812 162.082031 154.757812 Z M 162.082031 154.757812 " fill-opacity="1" fill-rule="nonzero"/><path stroke-linecap="round" transform="matrix(0.097798, 0, 0, 0.0979286, -59.9692, 64.586993)" fill="none" stroke-linejoin="miter" d="M 2286.007 913.601502 L 2289.082536 913.601502 C 2296.991059 913.601502 2303.381784 907.2193 2303.381784 899.281436 L 2303.381784 854.406575 C 2303.381784 851.215473 2300.785552 848.582815 2297.590189 848.582815 L 2284.009898 848.582815 C 2280.814535 848.582815 2278.218303 851.215473 2278.218303 854.406575 L 2278.218303 905.783304 C 2278.218303 910.091291 2281.69326 913.601502 2286.007 913.601502 Z M 2286.007 913.601502 " stroke="#66b0f0" stroke-width="4" stroke-opacity="1" stroke-miterlimit="10"/><path stroke-linecap="round" transform="matrix(0.097798, 0, 0, 0.0979286, -59.9692, 64.586993)" fill="none" stroke-linejoin="miter" d="M 2245.306068 918.787042 L 2238.116502 918.787042 C 2232.484675 918.787042 2228.011167 914.3195 2228.011167 908.695184 L 2228.011167 854.486352 C 2228.011167 851.295251 2230.607399 848.702481 2233.802762 848.702481 L 2247.303169 848.702481 C 2250.498532 848.702481 2253.094764 851.295251 2253.094764 854.486352 L 2253.094764 911.008733 C 2253.094764 915.316719 2249.619807 918.787042 2245.306068 918.787042 Z M 2245.306068 918.787042 " stroke="#66b0f0" stroke-width="4" stroke-opacity="1" stroke-miterlimit="10"/><path stroke-linecap="round" transform="matrix(0.097798, 0, 0, 0.0979286, -59.9692, 64.586993)" fill="none" stroke-linejoin="miter" d="M 2270.509491 920.78148 L 2264.518186 920.78148 C 2258.207344 920.78148 2253.094764 915.715607 2253.094764 909.413182 L 2253.094764 854.406575 C 2253.094764 851.215473 2255.690996 848.582815 2258.886359 848.582815 L 2272.386766 848.582815 C 2275.582129 848.582815 2278.218303 851.215473 2278.218303 854.406575 L 2278.218303 913.003171 C 2278.218303 917.311158 2274.703404 920.78148 2270.509491 920.78148 Z M 2270.509491 920.78148 " stroke="#66b0f0" stroke-width="4" stroke-opacity="1" stroke-miterlimit="10"/><path fill="#ffffff" d="M 181.757812 142.546875 L 181.757812 149.695312 C 181.757812 150.929688 179.65625 151.9375 177.0625 151.9375 C 174.472656 151.9375 172.371094 150.929688 172.371094 149.695312 L 172.371094 142.546875 Z M 181.757812 142.546875 " fill-opacity="1" fill-rule="nonzero"/><path fill="#66b0f0" d="M 181.757812 142.546875 C 181.757812 147.945312 178.304688 149.550781 174.992188 149.265625 C 174.980469 149.265625 174.972656 149.265625 174.960938 149.265625 C 173.492188 149.128906 172.378906 147.875 172.378906 146.40625 L 172.378906 142.558594 L 181.757812 142.558594 Z M 181.757812 142.546875 " fill-opacity="1" fill-rule="nonzero"/><path fill="#ffffff" d="M 183.9375 140.707031 L 183.9375 141.070312 C 183.9375 141.871094 183.292969 142.519531 182.492188 142.519531 L 181.75 142.519531 L 181.757812 142.683594 C 181.757812 144.996094 179.890625 146.867188 177.582031 146.867188 L 176.554688 146.867188 C 174.246094 146.867188 172.378906 144.996094 172.378906 142.683594 L 172.390625 142.519531 L 171.644531 142.519531 C 170.84375 142.519531 170.199219 141.871094 170.199219 141.070312 L 170.199219 140.707031 C 170.199219 139.902344 170.84375 139.257812 171.644531 139.257812 L 172.59375 139.257812 L 172.703125 137.484375 C 172.703125 137.210938 172.742188 136.945312 172.820312 136.703125 C 175.617188 137.398438 178.894531 135.59375 179.773438 135.054688 C 180.75 135.429688 181.445312 136.367188 181.445312 137.476562 L 181.550781 139.246094 L 182.5 139.246094 C 183.292969 139.257812 183.9375 139.902344 183.9375 140.707031 Z M 183.9375 140.707031 " fill-opacity="1" fill-rule="nonzero"/><path fill="#e57281" d="M 182.558594 139.257812 L 181.542969 139.257812 L 181.433594 137.484375 C 181.433594 136.378906 180.742188 135.4375 179.761719 135.066406 C 178.882812 135.59375 175.605469 137.398438 172.808594 136.710938 C 172.730469 136.957031 172.691406 137.21875 172.691406 137.496094 L 172.585938 139.265625 L 171.949219 139.265625 C 171.949219 139.265625 170.648438 132.960938 171.929688 131.804688 C 172.878906 130.953125 181.5625 132.8125 182.519531 134.136719 C 183.058594 134.890625 182.558594 139.257812 182.558594 139.257812 Z M 182.558594 139.257812 " fill-opacity="1" fill-rule="nonzero"/><path fill="#66b0f0" d="M 180.113281 138.875 C 180.085938 138.875 180.046875 138.867188 180.015625 138.835938 C 180.007812 138.828125 179.371094 138.308594 178.355469 138.308594 C 178.277344 138.308594 178.207031 138.238281 178.207031 138.160156 C 178.207031 138.082031 178.277344 138.015625 178.355469 138.015625 C 179.480469 138.015625 180.171875 138.582031 180.203125 138.609375 C 180.261719 138.660156 180.273438 138.757812 180.222656 138.816406 C 180.203125 138.855469 180.152344 138.875 180.113281 138.875 Z M 180.113281 138.875 " fill-opacity="1" fill-rule="nonzero"/><path fill="#66b0f0" d="M 176.398438 141.910156 C 176.378906 141.910156 176.359375 141.910156 176.351562 141.902344 C 176.273438 141.871094 176.234375 141.785156 176.261719 141.714844 C 176.535156 140.992188 176.46875 140.082031 176.085938 139.277344 C 175.859375 138.789062 175.539062 138.433594 175.253906 138.335938 C 174.628906 138.121094 173.75 138.425781 173.738281 138.425781 C 173.660156 138.453125 173.582031 138.414062 173.554688 138.335938 C 173.523438 138.257812 173.5625 138.179688 173.640625 138.152344 C 173.679688 138.140625 174.617188 137.816406 175.34375 138.0625 C 175.703125 138.191406 176.074219 138.589844 176.339844 139.160156 C 176.75 140.03125 176.820312 141.03125 176.527344 141.832031 C 176.515625 141.871094 176.457031 141.910156 176.398438 141.910156 Z M 176.398438 141.910156 " fill-opacity="1" fill-rule="nonzero"/><path fill="#66b0f0" d="M 178.324219 143.46875 C 178.335938 143.546875 178.265625 143.617188 178.1875 143.625 L 178.179688 143.625 C 178.101562 143.625 178.042969 143.566406 178.03125 143.488281 C 178.023438 143.390625 178.003906 143.292969 177.972656 143.203125 C 177.554688 143.410156 177.171875 143.476562 176.859375 143.476562 C 176.242188 143.476562 175.871094 143.222656 175.851562 143.203125 C 175.78125 143.15625 175.773438 143.066406 175.8125 143 C 175.859375 142.929688 175.949219 142.921875 176.015625 142.960938 C 176.035156 142.96875 176.351562 143.183594 176.859375 143.183594 C 177.132812 143.183594 177.464844 143.125 177.847656 142.941406 C 177.789062 142.839844 177.730469 142.78125 177.730469 142.78125 C 177.671875 142.722656 177.679688 142.625 177.738281 142.578125 C 177.796875 142.527344 177.894531 142.527344 177.945312 142.585938 C 177.964844 142.617188 178.296875 142.988281 178.324219 143.46875 Z M 178.324219 143.46875 " fill-opacity="1" fill-rule="nonzero"/><path fill="#66b0f0" d="M 179.066406 140.167969 C 179.074219 140.300781 179.058594 140.417969 179.015625 140.515625 C 178.976562 140.613281 178.921875 140.667969 178.851562 140.671875 C 178.785156 140.675781 178.726562 140.628906 178.671875 140.539062 C 178.617188 140.445312 178.585938 140.332031 178.578125 140.195312 C 178.570312 140.0625 178.585938 139.945312 178.628906 139.847656 C 178.671875 139.75 178.726562 139.695312 178.792969 139.691406 C 178.859375 139.6875 178.921875 139.734375 178.972656 139.824219 C 179.027344 139.917969 179.058594 140.03125 179.066406 140.167969 Z M 179.066406 140.167969 " fill-opacity="1" fill-rule="nonzero"/><path fill="#66b0f0" d="M 175.058594 140.167969 C 175.066406 140.292969 175.050781 140.398438 175.011719 140.488281 C 174.972656 140.582031 174.921875 140.628906 174.859375 140.632812 C 174.796875 140.636719 174.742188 140.59375 174.695312 140.507812 C 174.644531 140.425781 174.617188 140.320312 174.609375 140.195312 C 174.601562 140.070312 174.617188 139.964844 174.652344 139.875 C 174.691406 139.78125 174.742188 139.734375 174.804688 139.730469 C 174.867188 139.726562 174.921875 139.769531 174.972656 139.855469 C 175.019531 139.9375 175.050781 140.042969 175.058594 140.167969 Z M 175.058594 140.167969 " fill-opacity="1" fill-rule="nonzero"/><path fill="#66b0f0" d="M 172.125 141.175781 C 172.046875 141.175781 171.976562 141.109375 171.976562 141.03125 C 171.976562 140.597656 171.625 140.257812 171.207031 140.257812 C 171.128906 140.257812 171.058594 140.1875 171.058594 140.109375 C 171.058594 140.03125 171.128906 139.960938 171.207031 139.960938 C 171.792969 139.960938 172.273438 140.441406 172.273438 141.03125 C 172.273438 141.117188 172.203125 141.175781 172.125 141.175781 Z M 172.125 141.175781 " fill-opacity="1" fill-rule="nonzero"/><path fill="#66b0f0" d="M 181.964844 141.175781 C 181.886719 141.175781 181.816406 141.109375 181.816406 141.03125 C 181.816406 140.441406 182.296875 139.960938 182.882812 139.960938 C 182.960938 139.960938 183.03125 140.03125 183.03125 140.109375 C 183.03125 140.1875 182.960938 140.257812 182.882812 140.257812 C 182.453125 140.257812 182.109375 140.609375 182.109375 141.03125 C 182.109375 141.117188 182.050781 141.175781 181.964844 141.175781 Z M 181.964844 141.175781 " fill-opacity="1" fill-rule="nonzero"/><path stroke-linecap="butt" transform="matrix(0.097798, 0, 0, 0.0979286, -59.9692, 64.586993)" fill="none" stroke-linejoin="miter" d="M 4283.987399 2995.994504 L 3855.688974 1579.783775 C 3847.181321 1551.582417 3821.099173 1532.316144 3791.58201 1532.316144 L 1192.114528 1532.316144 C 1162.317771 1532.316144 1136.115797 1551.981305 1127.807855 1580.701216 L 719.081026 2995.994504 " stroke="#66b0f0" stroke-width="6" stroke-opacity="1" stroke-miterlimit="10"/><path stroke-linecap="butt" transform="matrix(0.097798, 0, 0, 0.0979286, -59.9692, 64.586993)" fill="none" stroke-linejoin="miter" d="M 1904.201102 1053.690847 L 3041.191027 1053.690847 " stroke="#66b0f0" stroke-width="6" stroke-opacity="1" stroke-miterlimit="10"/><path fill="#ffcf2d" d="M 164.847656 188.847656 L 191.117188 188.847656 L 191.117188 211.441406 L 164.847656 211.441406 C 164.847656 211.441406 164.847656 187.996094 164.847656 188.847656 Z M 164.847656 188.847656 " fill-opacity="1" fill-rule="nonzero"/><path fill="#9a3b82" d="M 263.078125 293.816406 L 250.863281 263.363281 L 270.527344 263.363281 Z M 263.078125 293.816406 " fill-opacity="1" fill-rule="nonzero"/><path fill="#9a3b82" d="M 229.5625 222.710938 C 232.183594 217.746094 237.335938 214.644531 242.941406 214.644531 L 258.070312 214.644531 L 268.347656 222.710938 Z M 229.5625 222.710938 " fill-opacity="1" fill-rule="nonzero"/><path fill="#3fb1b5" d="M 286.921875 258.367188 L 248.808594 258.367188 L 263.15625 293.242188 C 262.15625 291.613281 256.183594 293.308594 249.855469 297.195312 C 243.605469 301.035156 239.378906 305.65625 240.242188 307.34375 L 209.316406 253.460938 C 201.296875 239.871094 211.078125 222.710938 226.84375 222.710938 L 312.25 222.710938 L 312.4375 223.300781 C 318.011719 240.632812 305.101562 258.367188 286.921875 258.367188 Z M 286.921875 258.367188 " fill-opacity="1" fill-rule="nonzero"/><path fill="#e6e6e6" d="M 313.726562 232.710938 C 313.589844 235.894531 312.886719 238.96875 311.691406 241.816406 L 266.902344 222.722656 L 311.359375 222.722656 L 312.398438 225.757812 C 313.121094 227.578125 313.519531 230.136719 313.726562 232.710938 Z M 313.726562 232.710938 " fill-opacity="1" fill-rule="nonzero"/><path fill="#66b0f0" d="M 263.164062 293.242188 C 264.164062 294.867188 259.800781 299.300781 253.484375 303.191406 C 247.15625 307.078125 241.277344 309.027344 240.28125 307.402344 C 239.28125 305.773438 243.535156 301.183594 249.863281 297.292969 C 256.183594 293.40625 262.15625 291.613281 263.164062 293.242188 Z M 263.164062 293.242188 " fill-opacity="1" fill-rule="nonzero"/><path stroke-linecap="round" transform="matrix(0.097798, 0, 0, 0.0979286, -59.9692, 64.586993)" fill="none" stroke-linejoin="miter" d="M 3160.617707 2376.482087 L 2876.190487 1873.684199 C 2853.902832 1833.915099 2882.581212 1784.692363 2928.31484 1784.692363 L 3482.191019 1784.692363 C 3556.802737 1784.692363 3612.481932 1716.003909 3597.104249 1643.007468 " stroke="#ffffff" stroke-width="6" stroke-opacity="1" stroke-miterlimit="10"/><path stroke-linecap="round" transform="matrix(0.097798, 0, 0, 0.0979286, -59.9692, 64.586993)" fill="none" stroke-linejoin="miter" d="M 3066.79387 2480.591765 C 3056.608652 2463.998039 3100.704657 2411.185313 3168.086867 2371.894879 C 3243.816963 2327.817794 3292.785896 2314.69439 3307.40468 2338.109095 " stroke="#ffffff" stroke-width="6" stroke-opacity="1" stroke-miterlimit="10"/><path stroke-linecap="round" transform="matrix(0.097798, 0, 0, 0.0979286, -59.9692, 64.586993)" fill="none" stroke-linejoin="miter" d="M 3309.601492 2340.302977 L 3123.791152 1897.298348 " stroke="#ffffff" stroke-width="6" stroke-opacity="1" stroke-miterlimit="10"/><path stroke-linecap="butt" transform="matrix(0.097798, 0, 0, 0.0979286, -59.9692, 64.586993)" fill="none" stroke-linejoin="miter" d="M 2921.804289 1611.415566 L 3375.106427 1611.415566 " stroke="#ffffff" stroke-width="6" stroke-opacity="1" stroke-miterlimit="10"/><path fill="#e57281" d="M 250.851562 309.644531 L 248.210938 306.039062 L 244.574219 301.085938 C 246.058594 299.832031 247.851562 298.527344 249.855469 297.292969 C 253.84375 294.847656 257.6875 293.222656 260.242188 292.769531 L 262.011719 296.304688 L 264.222656 300.710938 C 262.65625 306.285156 250.851562 309.644531 250.851562 309.644531 Z M 250.851562 309.644531 " fill-opacity="1" fill-rule="nonzero"/><path fill="#9a3b82" d="M 262.019531 296.304688 C 260.378906 298.3125 257.289062 300.847656 253.484375 303.191406 C 251.652344 304.316406 249.863281 305.277344 248.222656 306.039062 L 244.582031 301.085938 C 246.070312 299.832031 247.859375 298.527344 249.863281 297.292969 C 253.855469 294.847656 257.699219 293.222656 260.25 292.769531 Z M 262.019531 296.304688 " fill-opacity="1" fill-rule="nonzero"/><path stroke-linecap="butt" transform="matrix(0.097798, 0, 0, 0.0979286, -59.9692, 64.586993)" fill-opacity="1" fill="#ffffff" fill-rule="nonzero" stroke-linejoin="miter" d="M 3438.494434 2609.512255 L 3164.092664 2806.602646 C 3140.806458 2822.797484 3104.618976 2836.319776 3109.41202 2777.683291 C 3116.08234 2696.908541 3134.016313 2576.683801 3178.192202 2502.291254 C 3180.109419 2501.812589 3298.897027 2467.50825 3314.913782 2411.105536 L 3440.012231 2500.017594 C 3476.000004 2528.019507 3475.201163 2582.587339 3438.494434 2609.512255 Z M 3438.494434 2609.512255 " stroke="#ffcf2d" stroke-width="6" stroke-opacity="1" stroke-miterlimit="10"/><path stroke-linecap="round" transform="matrix(0.097798, 0, 0, 0.0979286, -59.9692, 64.586993)" fill="none" stroke-linejoin="miter" d="M 3165.490635 2528.418395 C 3187.298985 2532.487049 3309.681376 2489.088072 3328.693784 2422.194613 " stroke="#ffcf2d" stroke-width="6" stroke-opacity="1" stroke-miterlimit="10"/><path fill="#ffcf2d" d="M 246.726562 337.445312 C 246.726562 337.445312 264.242188 313.082031 276.699219 314.453125 C 290.265625 315.929688 235.636719 351.65625 246.726562 337.445312 Z M 246.726562 337.445312 " fill-opacity="1" fill-rule="nonzero"/><path stroke-linecap="round" transform="matrix(0.097798, 0, 0, 0.0979286, -59.9692, 64.586993)" fill="none" stroke-linejoin="miter" d="M 3130.900834 2820.204715 C 3117.001006 2821.082267 3102.302338 2804.887429 3122.592891 2778.919842 C 3122.592891 2778.919842 3309.002361 2520.919307 3441.689797 2535.518595 C 3462.18006 2537.712477 3469.090032 2554.385981 3464.296988 2568.785826 " stroke="#ffcf2d" stroke-width="6" stroke-opacity="1" stroke-miterlimit="10"/><path stroke-linecap="butt" transform="matrix(0.097798, 0, 0, 0.0979286, -59.9692, 64.586993)" fill-opacity="1" fill="#ffffff" fill-rule="nonzero" stroke-linejoin="miter" d="M 3822.097724 1737.105066 C 3758.709717 1722.10689 3600.898742 1682.617012 3420.919939 1641.01303 C 3336.28277 1621.507423 3265.505487 1563.908046 3228.998468 1485.087845 L 3065.116305 1130.516609 L 3164.292374 973.314984 C 3194.808088 924.890023 3246.812615 894.095896 3303.889781 890.585685 L 3401.508111 884.60237 C 3499.88534 878.619055 3578.890682 940.007865 3608.887149 1033.906019 L 3807.399055 1614.686444 C 3829.207406 1669.094721 3822.097724 1737.105066 3822.097724 1737.105066 Z M 3822.097724 1737.105066 " stroke="#fe5244" stroke-width="6" stroke-opacity="1" stroke-miterlimit="10"/><path stroke-linecap="butt" transform="matrix(0.097798, 0, 0, 0.0979286, -59.9692, 64.586993)" fill="none" stroke-linejoin="miter" d="M 3151.391097 1150.381214 C 3151.391097 1150.381214 3203.595335 1232.392516 3322.502769 1250.502016 " stroke="#fe5244" stroke-width="6" stroke-opacity="1" stroke-miterlimit="10"/><path stroke-linecap="butt" transform="matrix(0.097798, 0, 0, 0.0979286, -59.9692, 64.586993)" fill-opacity="1" fill="#ffcf2d" fill-rule="nonzero" stroke-linejoin="round" d="M 3221.808902 1001.197231 C 3216.416728 995.41336 3206.910524 997.008911 3203.595335 1004.109111 C 3199.880726 1012.086864 3206.590988 1020.982059 3215.298351 1019.705619 C 3224.205424 1018.389289 3227.880091 1007.6991 3221.808902 1001.197231 Z M 3221.808902 1001.197231 " stroke="#fe5244" stroke-width="6" stroke-opacity="1" stroke-miterlimit="10"/><path stroke-linecap="butt" transform="matrix(0.097798, 0, 0, 0.0979286, -59.9692, 64.586993)" fill-opacity="1" fill="#ffcf2d" fill-rule="nonzero" stroke-linejoin="round" d="M 3470.887423 1172.080703 C 3465.495249 1166.296832 3455.989045 1167.892382 3452.713798 1174.992583 C 3448.999189 1183.010224 3455.70945 1191.905419 3464.416814 1190.58909 C 3473.283945 1189.312649 3476.998554 1178.582572 3470.887423 1172.080703 Z M 3470.887423 1172.080703 " stroke="#fe5244" stroke-width="6" stroke-opacity="1" stroke-miterlimit="10"/><path stroke-linecap="butt" transform="matrix(0.097798, 0, 0, 0.0979286, -59.9692, 64.586993)" fill-opacity="1" fill="#ffcf2d" fill-rule="nonzero" stroke-linejoin="round" d="M 3549.812881 1242.085486 C 3544.380765 1236.301615 3534.914503 1237.897166 3531.599314 1244.997366 C 3527.884705 1253.015008 3534.594967 1261.910203 3543.30233 1260.593873 C 3552.089577 1259.39721 3555.804186 1248.707021 3549.812881 1242.085486 Z M 3549.812881 1242.085486 " stroke="#fe5244" stroke-width="6" stroke-opacity="1" stroke-miterlimit="10"/><path stroke-linecap="butt" transform="matrix(0.097798, 0, 0, 0.0979286, -59.9692, 64.586993)" fill-opacity="1" fill="#ffcf2d" fill-rule="nonzero" stroke-linejoin="round" d="M 3701.113304 1638.180927 C 3695.681188 1632.397056 3686.214926 1633.992607 3682.899737 1641.092807 C 3679.185128 1649.110449 3685.89539 1658.005644 3694.602753 1656.689314 C 3703.39 1655.412874 3707.104609 1644.802462 3701.113304 1638.180927 Z M 3701.113304 1638.180927 " stroke="#fe5244" stroke-width="6" stroke-opacity="1" stroke-miterlimit="10"/><path stroke-linecap="butt" transform="matrix(0.097798, 0, 0, 0.0979286, -59.9692, 64.586993)" fill-opacity="1" fill="#ffcf2d" fill-rule="nonzero" stroke-linejoin="round" d="M 3616.396251 1448.908735 C 3611.004077 1443.084975 3601.497873 1444.680526 3598.182684 1451.780726 C 3594.508017 1459.798368 3601.218279 1468.693563 3609.8857 1467.417122 C 3618.792773 1466.100793 3622.507382 1455.410604 3616.396251 1448.908735 Z M 3616.396251 1448.908735 " stroke="#fe5244" stroke-width="6" stroke-opacity="1" stroke-miterlimit="10"/><path stroke-linecap="butt" transform="matrix(0.097798, 0, 0, 0.0979286, -59.9692, 64.586993)" fill-opacity="1" fill="#ffcf2d" fill-rule="nonzero" stroke-linejoin="round" d="M 3651.505299 1312.688601 C 3643.716602 1313.68582 3639.402863 1322.381571 3643.317182 1329.20255 C 3647.710805 1336.901082 3658.814691 1336.581972 3662.808894 1328.683996 C 3666.882982 1320.706243 3660.292546 1311.491938 3651.505299 1312.688601 Z M 3651.505299 1312.688601 " stroke="#fe5244" stroke-width="6" stroke-opacity="1" stroke-miterlimit="10"/><path stroke-linecap="butt" transform="matrix(0.097798, 0, 0, 0.0979286, -59.9692, 64.586993)" fill-opacity="1" fill="#ffcf2d" fill-rule="nonzero" stroke-linejoin="round" d="M 3715.412552 1514.685309 C 3707.583914 1515.682529 3703.310116 1524.418168 3707.184493 1531.199258 C 3711.618059 1538.89779 3722.682002 1538.618569 3726.716148 1530.680704 C 3730.790235 1522.702951 3724.319626 1513.488646 3715.412552 1514.685309 Z M 3715.412552 1514.685309 " stroke="#fe5244" stroke-width="6" stroke-opacity="1" stroke-miterlimit="10"/><path stroke-linecap="butt" transform="matrix(0.097798, 0, 0, 0.0979286, -59.9692, 64.586993)" fill-opacity="1" fill="#ffcf2d" fill-rule="nonzero" stroke-linejoin="round" d="M 3450.39716 1296.812872 C 3445.004986 1290.989113 3435.498782 1292.584663 3432.183593 1299.684863 C 3428.508926 1307.702505 3435.219187 1316.5977 3443.886609 1315.281371 C 3452.713798 1314.00493 3456.388465 1303.394519 3450.39716 1296.812872 Z M 3450.39716 1296.812872 " stroke="#fe5244" stroke-width="6" stroke-opacity="1" stroke-miterlimit="10"/><path stroke-linecap="butt" transform="matrix(0.097798, 0, 0, 0.0979286, -59.9692, 64.586993)" fill-opacity="1" fill="#ffcf2d" fill-rule="nonzero" stroke-linejoin="round" d="M 3395.317096 1410.096966 C 3389.884979 1404.313095 3380.418717 1405.908646 3377.103529 1413.008846 C 3373.388919 1420.986599 3380.099181 1429.881794 3388.806544 1428.605354 C 3397.713618 1427.289024 3401.388285 1416.598835 3395.317096 1410.096966 Z M 3395.317096 1410.096966 " stroke="#fe5244" stroke-width="6" stroke-opacity="1" stroke-miterlimit="10"/><path stroke-linecap="butt" transform="matrix(0.097798, 0, 0, 0.0979286, -59.9692, 64.586993)" fill-opacity="1" fill="#ffcf2d" fill-rule="nonzero" stroke-linejoin="round" d="M 3296.700215 1370.487422 C 3302.49181 1365.102439 3300.894129 1355.608913 3293.784447 1352.298145 C 3285.79604 1348.58849 3276.888967 1355.289803 3278.207054 1363.985553 C 3279.485199 1372.800971 3290.10978 1376.510626 3296.700215 1370.487422 Z M 3296.700215 1370.487422 " stroke="#fe5244" stroke-width="6" stroke-opacity="1" stroke-miterlimit="10"/><path stroke-linecap="butt" transform="matrix(0.097798, 0, 0, 0.0979286, -59.9692, 64.586993)" fill-opacity="1" fill="#ffcf2d" fill-rule="nonzero" stroke-linejoin="round" d="M 3384.213211 1565.503597 C 3390.004805 1560.118613 3388.407124 1550.585198 3381.297442 1547.31432 C 3373.309035 1543.604664 3364.401962 1550.305977 3365.680107 1559.001728 C 3366.998194 1567.896923 3377.702659 1571.606578 3384.213211 1565.503597 Z M 3384.213211 1565.503597 " stroke="#fe5244" stroke-width="6" stroke-opacity="1" stroke-miterlimit="10"/><path stroke-linecap="butt" transform="matrix(0.097798, 0, 0, 0.0979286, -59.9692, 64.586993)" fill-opacity="1" fill="#ffcf2d" fill-rule="nonzero" stroke-linejoin="round" d="M 3531.51943 1398.210114 C 3537.311025 1392.785242 3535.713344 1383.291716 3528.603662 1379.980948 C 3520.615255 1376.311182 3511.708181 1383.012495 3512.986327 1391.708245 C 3514.304414 1400.483774 3525.008879 1404.313095 3531.51943 1398.210114 Z M 3531.51943 1398.210114 " stroke="#fe5244" stroke-width="6" stroke-opacity="1" stroke-miterlimit="10"/><path stroke-linecap="butt" transform="matrix(0.097798, 0, 0, 0.0979286, -59.9692, 64.586993)" fill-opacity="1" fill="#ffcf2d" fill-rule="nonzero" stroke-linejoin="round" d="M 3581.80645 1607.586244 C 3587.598045 1602.201261 3586.000364 1592.707735 3578.890682 1589.396967 C 3570.902275 1585.687312 3561.995202 1592.388625 3563.313289 1601.084375 C 3564.51155 1610.019459 3575.216015 1613.689225 3581.80645 1607.586244 Z M 3581.80645 1607.586244 " stroke="#fe5244" stroke-width="6" stroke-opacity="1" stroke-miterlimit="10"/><path stroke-linecap="butt" transform="matrix(0.097798, 0, 0, 0.0979286, -59.9692, 64.586993)" fill-opacity="1" fill="#ffcf2d" fill-rule="nonzero" stroke-linejoin="round" d="M 3280.204155 1183.48889 C 3274.811981 1177.705019 3265.305777 1179.300569 3261.990588 1186.40077 C 3258.315921 1194.418411 3264.986241 1203.313606 3273.693604 1201.997277 C 3282.600677 1200.680948 3286.315286 1189.990758 3280.204155 1183.48889 Z M 3280.204155 1183.48889 " stroke="#fe5244" stroke-width="6" stroke-opacity="1" stroke-miterlimit="10"/><path stroke-linecap="butt" transform="matrix(0.097798, 0, 0, 0.0979286, -59.9692, 64.586993)" fill-opacity="1" fill="#ffcf2d" fill-rule="nonzero" stroke-linejoin="round" d="M 3298.098186 924.092248 C 3292.706012 918.308377 3283.199808 919.903927 3279.884619 927.004128 C 3276.209952 934.981881 3282.880272 943.916964 3291.587635 942.600635 C 3300.494708 941.284306 3304.209317 930.594117 3298.098186 924.092248 Z M 3298.098186 924.092248 " stroke="#fe5244" stroke-width="6" stroke-opacity="1" stroke-miterlimit="10"/><path stroke-linecap="butt" transform="matrix(0.097798, 0, 0, 0.0979286, -59.9692, 64.586993)" fill-opacity="1" fill="#ffcf2d" fill-rule="nonzero" stroke-linejoin="round" d="M 3470.887423 924.092248 C 3465.495249 918.308377 3455.989045 919.903927 3452.713798 927.004128 C 3448.999189 934.981881 3455.70945 943.916964 3464.416814 942.600635 C 3473.283945 941.284306 3476.998554 930.594117 3470.887423 924.092248 Z M 3470.887423 924.092248 " stroke="#fe5244" stroke-width="6" stroke-opacity="1" stroke-miterlimit="10"/><path stroke-linecap="butt" transform="matrix(0.097798, 0, 0, 0.0979286, -59.9692, 64.586993)" fill-opacity="1" fill="#ffcf2d" fill-rule="nonzero" stroke-linejoin="round" d="M 3471.206959 1036.099901 C 3463.897567 1039.011781 3461.78064 1048.385641 3467.29264 1054.089734 C 3473.403771 1060.392159 3484.108236 1057.48028 3486.105338 1048.904195 C 3488.10244 1040.208444 3479.514902 1032.789134 3471.206959 1036.099901 Z M 3471.206959 1036.099901 " stroke="#fe5244" stroke-width="6" stroke-opacity="1" stroke-miterlimit="10"/><path stroke-linecap="butt" transform="matrix(0.097798, 0, 0, 0.0979286, -59.9692, 64.586993)" fill-opacity="1" fill="#ffcf2d" fill-rule="nonzero" stroke-linejoin="round" d="M 3372.989499 972.317765 C 3365.400513 974.511647 3362.484744 983.606286 3367.31773 989.789045 C 3372.789789 996.689801 3383.693964 994.815029 3386.489906 986.518166 C 3389.405675 977.98197 3381.497152 969.804773 3372.989499 972.317765 Z M 3372.989499 972.317765 " stroke="#fe5244" stroke-width="6" stroke-opacity="1" stroke-miterlimit="10"/><path stroke-linecap="butt" transform="matrix(0.097798, 0, 0, 0.0979286, -59.9692, 64.586993)" fill-opacity="1" fill="#ffcf2d" fill-rule="nonzero" stroke-linejoin="round" d="M 3358.490541 1249.305353 C 3350.701844 1250.182906 3346.308221 1258.798879 3350.102714 1265.699635 C 3354.416454 1273.398167 3365.480397 1273.31839 3369.594426 1265.500191 C 3373.78834 1257.602216 3367.397614 1248.308134 3358.490541 1249.305353 Z M 3358.490541 1249.305353 " stroke="#fe5244" stroke-width="6" stroke-opacity="1" stroke-miterlimit="10"/><path stroke-linecap="butt" transform="matrix(0.097798, 0, 0, 0.0979286, -59.9692, 64.586993)" fill-opacity="1" fill="#ffcf2d" fill-rule="nonzero" stroke-linejoin="round" d="M 3272.814879 1457.604486 C 3264.986241 1458.482039 3260.592617 1467.098012 3264.38711 1473.998769 C 3268.70085 1481.6973 3279.804735 1481.617523 3283.918764 1473.799325 C 3288.112678 1465.901349 3281.682011 1456.607267 3272.814879 1457.604486 Z M 3272.814879 1457.604486 " stroke="#fe5244" stroke-width="6" stroke-opacity="1" stroke-miterlimit="10"/><path stroke-linecap="butt" transform="matrix(0.097798, 0, 0, 0.0979286, -59.9692, 64.586993)" fill-opacity="1" fill="#ffcf2d" fill-rule="nonzero" stroke-linejoin="round" d="M 3301.613085 1054.88751 C 3293.984157 1057.081392 3291.10833 1066.215919 3295.901374 1072.398678 C 3301.413375 1079.299434 3312.31755 1077.384774 3315.113493 1069.08791 C 3317.989319 1060.71127 3310.200622 1052.494184 3301.613085 1054.88751 Z M 3301.613085 1054.88751 " stroke="#fe5244" stroke-width="6" stroke-opacity="1" stroke-miterlimit="10"/><path stroke-linecap="butt" transform="matrix(0.097798, 0, 0, 0.0979286, -59.9692, 64.586993)" fill-opacity="1" fill="#ffcf2d" fill-rule="nonzero" stroke-linejoin="round" d="M 3384.412921 1110.891337 C 3376.783992 1113.085219 3373.908166 1122.219746 3378.70121 1128.402505 C 3384.213211 1135.303261 3395.117386 1133.3886 3397.913328 1125.091737 C 3400.789154 1116.59543 3393.000458 1108.418233 3384.412921 1110.891337 Z M 3384.412921 1110.891337 " stroke="#fe5244" stroke-width="6" stroke-opacity="1" stroke-miterlimit="10"/><path stroke-linecap="butt" transform="matrix(0.097798, 0, 0, 0.0979286, -59.9692, 64.586993)" fill-opacity="1" fill="#ffcf2d" fill-rule="nonzero" stroke-linejoin="round" d="M 3205.113132 1108.498011 C 3210.105887 1102.395029 3207.389828 1093.180725 3199.800842 1090.907065 C 3191.413015 1088.314295 3183.384666 1096.092605 3185.901014 1104.509134 C 3188.417362 1113.085219 3199.401422 1115.398767 3205.113132 1108.498011 Z M 3205.113132 1108.498011 " stroke="#fe5244" stroke-width="6" stroke-opacity="1" stroke-miterlimit="10"/><path stroke-linecap="butt" transform="matrix(0.097798, 0, 0, 0.0979286, -59.9692, 64.586993)" fill-opacity="1" fill="#ffcf2d" fill-rule="nonzero" stroke-linejoin="round" d="M 3584.202972 1108.817121 C 3589.195726 1102.71414 3586.51961 1093.499835 3578.890682 1091.186286 C 3570.502855 1088.593517 3562.514448 1096.411715 3564.990854 1104.788355 C 3567.387376 1113.404329 3578.491261 1115.717877 3584.202972 1108.817121 Z M 3584.202972 1108.817121 " stroke="#fe5244" stroke-width="6" stroke-opacity="1" stroke-miterlimit="10"/><path stroke-linecap="butt" transform="matrix(0.097798, 0, 0, 0.0979286, -59.9692, 64.586993)" fill-opacity="1" fill="#ffcf2d" fill-rule="nonzero" stroke-linejoin="round" d="M 3487.982614 1514.206644 C 3493.01531 1508.103663 3490.299252 1498.889358 3482.710265 1496.615699 C 3474.282496 1493.98304 3466.294089 1501.801238 3468.810437 1510.217768 C 3471.206959 1518.714075 3482.310845 1520.987734 3487.982614 1514.206644 Z M 3487.982614 1514.206644 " stroke="#fe5244" stroke-width="6" stroke-opacity="1" stroke-miterlimit="10"/><path fill="#e57281" d="M 273.347656 150.890625 C 273.128906 150.902344 272.914062 150.910156 272.691406 150.921875 L 263.144531 151.507812 C 260.710938 151.65625 258.382812 152.3125 256.269531 153.398438 L 253.335938 144.605469 L 266.410156 135.007812 Z M 273.347656 150.890625 " fill-opacity="1" fill-rule="nonzero"/><path fill="#9a3b82" d="M 256.230469 153.261719 C 258.949219 152.027344 261.121094 149.832031 262.351562 147.113281 L 267.105469 136.585938 L 266.410156 134.996094 L 253.335938 144.59375 Z M 256.230469 153.261719 " fill-opacity="1" fill-rule="nonzero"/><path fill="#e57281" d="M 267.253906 135.890625 C 267.253906 136.800781 266.882812 137.621094 266.285156 138.21875 C 265.6875 138.816406 264.867188 139.1875 263.957031 139.1875 L 261.082031 139.1875 C 259.949219 143.605469 255.554688 146.632812 250.832031 145.800781 L 248.671875 145.417969 C 246.304688 144.996094 244.691406 142.78125 245.023438 140.402344 L 247.554688 127.703125 C 247.996094 124.988281 250.785156 123.335938 253.375 124.265625 L 257.570312 125.949219 C 259.839844 126.734375 261.367188 128.867188 261.367188 131.265625 L 261.367188 132.492188 L 263.957031 132.589844 C 265.777344 132.589844 267.253906 134.066406 267.253906 135.890625 Z M 267.253906 135.890625 " fill-opacity="1" fill-rule="nonzero"/><path stroke-linecap="round" transform="matrix(0.097798, 0, 0, 0.0979286, -59.9692, 64.586993)" fill="none" stroke-linejoin="miter" d="M 3296.101085 734.580723 C 3296.101085 721.696652 3306.486013 711.285684 3319.38729 711.285684 " stroke="#9a3b82" stroke-width="5" stroke-opacity="1" stroke-miterlimit="10"/><path stroke-linecap="round" transform="matrix(0.097798, 0, 0, 0.0979286, -59.9692, 64.586993)" fill="none" stroke-linejoin="miter" d="M 3158.9002 671.795806 C 3158.9002 671.795806 3179.909709 671.795806 3194.887972 691.899744 " stroke="#9a3b82" stroke-width="5" stroke-opacity="1" stroke-miterlimit="10"/><path fill="#9a3b82" d="M 250.035156 132.921875 C 250.167969 132.945312 250.265625 133.066406 250.320312 133.285156 C 250.378906 133.503906 250.382812 133.757812 250.328125 134.039062 C 250.277344 134.324219 250.1875 134.558594 250.054688 134.742188 C 249.925781 134.929688 249.792969 135.007812 249.660156 134.984375 C 249.527344 134.960938 249.433594 134.839844 249.375 134.621094 C 249.320312 134.402344 249.316406 134.148438 249.367188 133.867188 C 249.417969 133.582031 249.511719 133.347656 249.640625 133.164062 C 249.769531 132.976562 249.902344 132.898438 250.035156 132.921875 Z M 250.035156 132.921875 " fill-opacity="1" fill-rule="nonzero"/><path fill="#ffcf2d" d="M 263.957031 132.589844 C 265.777344 132.589844 267.253906 134.066406 267.253906 135.890625 C 267.253906 135.898438 267.253906 135.917969 267.253906 135.9375 C 268.71875 133.675781 272.320312 127.917969 272.320312 125.96875 C 272.320312 123.355469 269.0625 120.738281 265.6875 121.933594 C 265.914062 121.765625 266.148438 121.589844 266.390625 121.40625 C 267.691406 120.386719 268.378906 119.621094 268.484375 119.074219 C 268.523438 118.878906 268.496094 118.703125 268.398438 118.566406 C 268.007812 118.007812 267.574219 117.761719 267.117188 117.839844 C 266.441406 117.949219 265.746094 118.78125 265.050781 120.308594 C 264.738281 121.003906 264.496094 121.6875 264.359375 122.109375 C 264.085938 120.476562 262.765625 115.058594 257.089844 115.890625 C 255.136719 116.175781 254.214844 116.988281 253.960938 117.878906 C 252.339844 116.605469 250.167969 115.609375 248.367188 116.558594 C 245.257812 118.191406 245.640625 120.875 247.4375 122.777344 C 245.738281 122.746094 244.542969 123.246094 244.542969 124.6875 C 244.542969 126.007812 245.902344 126.644531 247.773438 126.898438 C 249.640625 127.152344 252.035156 127.015625 254.109375 126.78125 C 255.585938 126.613281 256.914062 126.410156 257.765625 126.261719 C 257.199219 127.429688 256.972656 128.425781 257.023438 129.269531 C 257.109375 131.011719 258.371094 132.039062 260.152344 132.402344 C 260.535156 132.480469 260.945312 132.53125 261.367188 132.550781 Z M 267.175781 118.230469 C 267.203125 118.222656 267.234375 118.222656 267.273438 118.222656 C 267.546875 118.222656 267.808594 118.417969 268.074219 118.789062 C 268.09375 118.828125 268.125 118.886719 268.105469 118.996094 C 267.949219 119.789062 265.941406 121.296875 264.777344 122.089844 C 265.238281 120.738281 266.207031 118.398438 267.175781 118.230469 Z M 267.175781 118.230469 " fill-opacity="1" fill-rule="nonzero"/><path fill="#ffffff" d="M 256.152344 121.132812 C 255.476562 121.132812 254.792969 120.769531 254.292969 120.132812 C 253.738281 119.425781 253.550781 118.554688 253.785156 117.800781 C 253.816406 117.703125 253.914062 117.644531 254.011719 117.664062 C 254.050781 117.664062 254.089844 117.675781 254.117188 117.703125 C 255.59375 118.761719 256.777344 120.269531 256.601562 120.867188 C 256.5625 121.023438 256.4375 121.121094 256.269531 121.132812 C 256.230469 121.132812 256.191406 121.132812 256.152344 121.132812 Z M 254.097656 118.171875 C 254.011719 118.742188 254.1875 119.367188 254.597656 119.886719 C 255.039062 120.445312 255.644531 120.769531 256.230469 120.730469 C 256.25 120.476562 255.59375 119.308594 254.097656 118.171875 Z M 254.097656 118.171875 " fill-opacity="1" fill-rule="nonzero"/><path fill="#e57281" d="M 236.847656 207.601562 L 174.257812 207.601562 C 172.710938 207.601562 171.78125 205.898438 172.605469 204.59375 L 180.9375 191.492188 C 182.023438 189.789062 183.890625 188.761719 185.90625 188.761719 L 228.269531 188.761719 Z M 236.847656 207.601562 " fill-opacity="1" fill-rule="nonzero"/><path fill="#fe5244" d="M 187.285156 188.769531 L 192.269531 180.542969 C 192.566406 180.054688 193.101562 179.75 193.667969 179.75 C 194.949219 179.75 195.734375 181.152344 195.070312 182.25 L 191.109375 188.769531 Z M 187.285156 188.769531 " fill-opacity="1" fill-rule="nonzero"/><path fill="#9a3b82" d="M 236.847656 207.601562 L 222.773438 207.601562 C 222.746094 207.574219 222.707031 207.535156 222.675781 207.503906 C 219.253906 203.980469 217.796875 198.632812 219.722656 193.480469 L 221.726562 188.761719 L 228.269531 188.761719 Z M 236.847656 207.601562 " fill-opacity="1" fill-rule="nonzero"/><path fill="#e57281" d="M 183.097656 198.808594 L 175.253906 198.808594 C 174.726562 198.808594 174.238281 199.09375 173.972656 199.550781 L 173.140625 201 C 172.585938 201.980469 173.289062 203.203125 174.421875 203.203125 L 180.730469 203.203125 C 181.828125 203.203125 182.84375 202.636719 183.421875 201.695312 L 184.09375 200.589844 C 184.566406 199.808594 184.007812 198.808594 183.097656 198.808594 Z M 183.097656 198.808594 " fill-opacity="1" fill-rule="nonzero"/><path fill="#e57281" d="M 181.074219 203.203125 L 173.230469 203.203125 C 172.703125 203.203125 172.214844 203.488281 171.949219 203.949219 L 171.117188 205.398438 C 170.558594 206.378906 171.265625 207.601562 172.398438 207.601562 L 178.707031 207.601562 C 179.800781 207.601562 180.820312 207.035156 181.394531 206.09375 L 182.070312 204.988281 C 182.550781 204.203125 181.984375 203.203125 181.074219 203.203125 Z M 181.074219 203.203125 " fill-opacity="1" fill-rule="nonzero"/><path fill="#e57281" d="M 185.335938 194.351562 L 177.492188 194.351562 C 176.964844 194.351562 176.476562 194.636719 176.214844 195.097656 L 175.382812 196.546875 C 174.824219 197.523438 175.527344 198.75 176.664062 198.75 L 182.972656 198.75 C 184.066406 198.75 185.082031 198.179688 185.660156 197.242188 L 186.335938 196.132812 C 186.8125 195.351562 186.246094 194.351562 185.335938 194.351562 Z M 185.335938 194.351562 " fill-opacity="1" fill-rule="nonzero"/><path stroke-linecap="round" transform="matrix(0.097798, 0, 0, 0.0979286, -59.9692, 64.586993)" fill="none" stroke-linejoin="miter" d="M 2485.397631 1370.607089 L 2405.194028 1370.607089 C 2399.801853 1370.607089 2394.809099 1373.518968 2392.093041 1378.185954 L 2383.585388 1392.984686 C 2377.913619 1402.996766 2385.103185 1415.48195 2396.686374 1415.48195 L 2461.192759 1415.48195 C 2472.41647 1415.48195 2482.801399 1409.698079 2488.71282 1400.084886 L 2495.582849 1388.796366 C 2500.415835 1380.818612 2494.704125 1370.607089 2485.397631 1370.607089 Z M 2485.397631 1370.607089 " stroke="#9a3b82" stroke-width="5" stroke-opacity="1" stroke-miterlimit="10"/><path stroke-linecap="round" transform="matrix(0.097798, 0, 0, 0.0979286, -59.9692, 64.586993)" fill="none" stroke-linejoin="miter" d="M 2464.707658 1415.48195 L 2384.504054 1415.48195 C 2379.11188 1415.48195 2374.119126 1418.39383 2371.403067 1423.100704 L 2362.895414 1437.899436 C 2357.183703 1447.911516 2364.413211 1460.3967 2375.996401 1460.3967 L 2440.502785 1460.3967 C 2451.686555 1460.3967 2462.111425 1454.612829 2467.982904 1444.999636 L 2474.892876 1433.711115 C 2479.805746 1425.693474 2474.014151 1415.48195 2464.707658 1415.48195 Z M 2464.707658 1415.48195 " stroke="#9a3b82" stroke-width="5" stroke-opacity="1" stroke-miterlimit="10"/><path stroke-linecap="round" transform="matrix(0.097798, 0, 0, 0.0979286, -59.9692, 64.586993)" fill="none" stroke-linejoin="miter" d="M 2508.284416 1325.094007 L 2428.080813 1325.094007 C 2422.688638 1325.094007 2417.695884 1328.005887 2415.019768 1332.712761 L 2406.512115 1347.511493 C 2400.800404 1357.483685 2407.98997 1370.008757 2419.613102 1370.008757 L 2484.119486 1370.008757 C 2495.303255 1370.008757 2505.688184 1364.184997 2511.599605 1354.611694 L 2518.509577 1343.283284 C 2523.382505 1335.305531 2517.59091 1325.094007 2508.284416 1325.094007 Z M 2508.284416 1325.094007 " stroke="#9a3b82" stroke-width="5" stroke-opacity="1" stroke-miterlimit="10"/><path fill="#e57281" d="M 196.691406 200.902344 C 194.335938 200.902344 192.066406 200.050781 190.285156 198.496094 L 187.3125 195.890625 L 184.574219 195.890625 L 183.871094 196.644531 C 182.609375 197.996094 181.054688 198.769531 179.207031 198.769531 L 177.894531 198.769531 C 177.210938 198.769531 176.789062 198.003906 177.160156 197.425781 L 180.457031 192.257812 L 196.703125 192.257812 L 196.703125 200.902344 Z M 196.691406 200.902344 " fill-opacity="1" fill-rule="nonzero"/><path stroke-linecap="round" transform="matrix(0.097798, 0, 0, 0.0979286, -59.9692, 64.586993)" fill="none" stroke-linejoin="miter" d="M 2458.396816 1303.713629 L 2424.68574 1356.486466 C 2420.891247 1362.390003 2425.204986 1370.208201 2432.194842 1370.208201 L 2445.615366 1370.208201 C 2464.507947 1370.208201 2480.404877 1362.390003 2493.306154 1348.508712 L 2500.49572 1340.810181 L 2528.495085 1340.810181 L 2558.890973 1367.415987 C 2576.984714 1383.211938 2600.310861 1391.987467 2624.395907 1391.987467 " stroke="#9a3b82" stroke-width="5" stroke-opacity="1" stroke-miterlimit="10"/><path fill="#e57281" d="M 262.726562 189.289062 L 247.792969 205.996094 C 244.652344 209.511719 240.164062 211.519531 235.449219 211.519531 C 226.140625 211.519531 219.695312 202.214844 222.960938 193.480469 L 240.699219 151.742188 L 234.707031 148.382812 C 233.855469 147.71875 233.445312 146.632812 233.628906 145.574219 L 234.648438 138.710938 C 234.960938 137.179688 236.515625 135.988281 238.03125 135.632812 L 245.054688 134.046875 C 245.648438 133.910156 246.195312 134.417969 246.097656 135.015625 L 245.082031 140.316406 C 244.679688 142.902344 246.421875 145.132812 249.003906 145.574219 C 251.117188 145.9375 252.601562 148.0625 252.40625 150.195312 L 247.625 180.0625 C 247.613281 180.082031 252.515625 187.730469 262.726562 189.289062 Z M 262.726562 189.289062 " fill-opacity="1" fill-rule="nonzero"/><path stroke-linecap="round" transform="matrix(0.097798, 0, 0, 0.0979286, -59.9692, 64.586993)" fill="none" stroke-linejoin="miter" d="M 3182.505941 946.709178 L 3123.511558 1329.800881 " stroke="#9a3b82" stroke-width="5" stroke-opacity="1" stroke-miterlimit="10"/><path stroke-linecap="round" transform="matrix(0.097798, 0, 0, 0.0979286, -59.9692, 64.586993)" fill="none" stroke-linejoin="miter" d="M 3060.203435 761.984305 L 3059.404594 786.795117 C 3059.085058 797.006641 3065.196189 805.981613 3073.983436 808.494605 L 3165.890055 827.08277 " stroke="#9a3b82" stroke-width="5" stroke-opacity="1" stroke-miterlimit="10"/><path stroke-linecap="round" transform="matrix(0.097798, 0, 0, 0.0979286, -59.9692, 64.586993)" fill="none" stroke-linejoin="miter" d="M 3228.399338 835.100412 L 3154.905996 825.287776 C 3130.701124 821.019678 3114.205064 798.402748 3117.600137 774.11049 L 3127.106341 719.781991 C 3127.985066 714.716118 3123.391732 710.408131 3118.398978 711.604794 L 3043.387839 729.115962 " stroke="#9a3b82" stroke-width="5" stroke-opacity="1" stroke-miterlimit="10"/><path stroke-linecap="butt" transform="matrix(0.097798, 0, 0, 0.0979286, -59.9692, 64.586993)" fill="none" stroke-linejoin="miter" d="M 3187.818232 1398.01067 L 3386.609733 1176.787577 " stroke="#fe5244" stroke-width="6" stroke-opacity="1" stroke-miterlimit="10"/><path stroke-linecap="round" transform="matrix(0.097798, 0, 0, 0.0979286, -59.9692, 64.586993)" fill="none" stroke-linejoin="miter" d="M 3076.499785 890.10702 L 3111.608832 890.10702 " stroke="#9a3b82" stroke-width="5" stroke-opacity="1" stroke-miterlimit="10"/><path stroke-linecap="round" transform="matrix(0.097798, 0, 0, 0.0979286, -59.9692, 64.586993)" fill="none" stroke-linejoin="miter" d="M 3060.283319 768.60584 L 3060.283319 776.583593 C 3060.283319 786.117008 3067.193291 793.895317 3075.700944 793.895317 L 3086.685003 793.895317 C 3091.517989 793.895317 3095.312482 789.587331 3095.312482 784.202347 L 3095.991497 731.987953 C 3096.111323 723.890534 3087.483844 718.904438 3080.493988 720.619655 " stroke="#9a3b82" stroke-width="5" stroke-opacity="1" stroke-miterlimit="10"/><path stroke-linecap="round" transform="matrix(0.097798, 0, 0, 0.0979286, -59.9692, 64.586993)" fill="none" stroke-linejoin="miter" d="M 3095.991497 768.60584 L 3095.991497 776.583593 C 3095.991497 786.117008 3102.901469 793.895317 3111.409122 793.895317 L 3118.398978 793.895317 " stroke="#9a3b82" stroke-width="5" stroke-opacity="1" stroke-miterlimit="10"/><path stroke-linecap="butt" transform="matrix(0.097798, 0, 0, 0.0979286, -59.9692, 64.586993)" fill="none" stroke-linejoin="miter" d="M 3760.107688 2029.808827 L 3876.219179 2995.994504 " stroke="#66b0f0" stroke-width="6" stroke-opacity="1" stroke-miterlimit="10"/><path stroke-linecap="butt" transform="matrix(0.097798, 0, 0, 0.0979286, -59.9692, 64.586993)" fill="none" stroke-linejoin="miter" d="M 3256.91795 2029.808827 L 3140.806458 2995.994504 " stroke="#66b0f0" stroke-width="6" stroke-opacity="1" stroke-miterlimit="10"/><path stroke-linecap="butt" transform="matrix(0.097798, 0, 0, 0.0979286, -59.9692, 64.586993)" fill="none" stroke-linejoin="miter" d="M 3180.588724 2664.199753 L 3836.317088 2664.199753 " stroke="#66b0f0" stroke-width="6" stroke-opacity="1" stroke-miterlimit="10"/><path stroke-linecap="butt" transform="matrix(0.097798, 0, 0, 0.0979286, -59.9692, 64.586993)" fill-opacity="1" fill="#ffffff" fill-rule="nonzero" stroke-linejoin="miter" d="M 3190.015044 2032.800484 L 3821.019289 2032.800484 C 3829.407116 2032.800484 3836.197262 2026.019394 3836.197262 2017.602864 L 3836.197262 1996.980373 C 3836.197262 1988.603732 3829.407116 1981.782753 3821.019289 1981.782753 L 3190.015044 1981.782753 C 3181.587275 1981.782753 3174.797129 1988.603732 3174.797129 1996.980373 L 3174.797129 2017.602864 C 3174.797129 2026.019394 3181.587275 2032.800484 3190.015044 2032.800484 Z M 3190.015044 2032.800484 " stroke="#ffcf2d" stroke-width="6" stroke-opacity="1" stroke-miterlimit="10"/><path stroke-linecap="butt" transform="matrix(0.097798, 0, 0, 0.0979286, -59.9692, 64.586993)" fill-opacity="1" fill="#ffffff" fill-rule="nonzero" stroke-linejoin="miter" d="M 2140.018867 1301.599524 L 2043.399088 1500.405131 L 1751.502707 1500.405131 L 1868.81246 1301.599524 Z M 2140.018867 1301.599524 " stroke="#3fb1b5" stroke-width="5" stroke-opacity="1" stroke-miterlimit="10"/><path stroke-linecap="butt" transform="matrix(0.097798, 0, 0, 0.0979286, -59.9692, 64.586993)" fill="none" stroke-linejoin="miter" d="M 2075.991788 1350.104263 C 2075.991788 1350.104263 2063.290221 1328.404775 2032.814449 1333.989202 C 2010.007548 1338.097745 1983.006734 1356.885353 1966.390848 1346.793496 C 1949.814904 1336.701638 1935.116235 1324.096788 1913.587479 1330.119992 C 1892.098665 1336.103306 1876.201736 1347.591271 1876.201736 1347.591271 " stroke="#3fb1b5" stroke-width="5" stroke-opacity="1" stroke-miterlimit="10"/><path stroke-linecap="butt" transform="matrix(0.097798, 0, 0, 0.0979286, -59.9692, 64.586993)" fill="none" stroke-linejoin="miter" d="M 2066.006279 1381.097834 C 2066.006279 1381.097834 2053.304713 1359.398345 2022.788999 1364.982773 C 1999.982098 1369.091315 1972.981283 1387.918813 1956.405339 1377.787066 C 1939.789453 1367.695209 1925.090785 1355.090359 1903.601971 1361.113562 C 1882.113157 1367.096877 1866.216228 1378.584842 1866.216228 1378.584842 " stroke="#3fb1b5" stroke-width="5" stroke-opacity="1" stroke-miterlimit="10"/><path fill="#fe5244" d="M 160.058594 279.421875 C 160.058594 282.039062 152.808594 284.152344 143.734375 284.152344 C 134.660156 284.152344 127.625 282.039062 127.625 279.421875 C 127.625 276.808594 134.660156 274.691406 143.734375 274.691406 C 152.808594 274.691406 160.058594 276.816406 160.058594 279.421875 Z M 160.058594 279.421875 " fill-opacity="1" fill-rule="nonzero"/><path fill="#a0505a" d="M 155.878906 276.238281 L 155.878906 310.023438 L 154.855469 305.148438 C 153.75 299.898438 149.121094 296.148438 143.761719 296.148438 C 142.148438 296.148438 140.566406 296.492188 139.128906 297.136719 C 139.078125 297.15625 139.03125 297.1875 138.972656 297.207031 L 135.207031 283.457031 L 133.113281 275.808594 C 135.980469 275.113281 139.683594 274.691406 143.734375 274.691406 C 148.546875 274.691406 152.878906 275.289062 155.878906 276.238281 Z M 155.878906 276.238281 " fill-opacity="1" fill-rule="nonzero"/><path fill="#73325a" d="M 155.878906 276.238281 L 155.878906 282.605469 C 152.878906 283.554688 148.546875 284.152344 143.734375 284.152344 C 140.613281 284.152344 137.699219 283.898438 135.207031 283.46875 L 133.113281 275.820312 C 135.980469 275.125 139.683594 274.703125 143.734375 274.703125 C 148.546875 274.691406 152.878906 275.289062 155.878906 276.238281 Z M 155.878906 276.238281 " fill-opacity="1" fill-rule="nonzero"/><path fill="#ffcf2d" d="M 155.15625 309.035156 C 155.421875 309.113281 157.90625 309.808594 160.105469 309.808594 C 161.296875 309.808594 162.402344 309.605469 163.03125 308.976562 C 163.566406 308.4375 163.695312 307.65625 163.410156 306.667969 C 163.15625 305.785156 162.667969 305.238281 161.953125 305.039062 C 160.644531 304.6875 158.824219 305.667969 157.386719 306.695312 C 159.625 303.972656 161.835938 300.515625 161.015625 298.253906 C 160.722656 297.453125 160.058594 296.914062 159.226562 296.816406 C 158.53125 296.738281 157.886719 296.980469 157.582031 297.441406 C 156.175781 299.585938 155.019531 308.390625 154.972656 308.761719 Z M 157.992188 297.714844 C 158.167969 297.453125 158.539062 297.292969 158.972656 297.292969 C 159.039062 297.292969 159.109375 297.292969 159.175781 297.304688 C 159.488281 297.34375 160.242188 297.519531 160.566406 298.421875 C 160.78125 299.019531 160.859375 300.113281 159.988281 301.957031 C 159.167969 303.699219 157.679688 305.746094 155.566406 308.066406 C 155.878906 305.835938 156.878906 299.410156 157.992188 297.714844 Z M 162.6875 308.636719 C 162.042969 309.28125 160.574219 309.476562 158.433594 309.203125 C 157.308594 309.054688 156.261719 308.820312 155.703125 308.675781 C 156.125 308.300781 156.90625 307.625 157.816406 307 C 159.558594 305.792969 160.945312 305.277344 161.835938 305.519531 C 162.375 305.667969 162.738281 306.089844 162.953125 306.804688 C 163.1875 307.625 163.097656 308.222656 162.6875 308.636719 Z M 162.6875 308.636719 " fill-opacity="1" fill-rule="nonzero"/><path stroke-linecap="butt" transform="matrix(0.097798, 0, 0, 0.0979286, -59.9692, 64.586993)" fill-opacity="1" fill="#ffffff" fill-rule="nonzero" stroke-linejoin="miter" d="M 1996.706851 2403.407004 L 1973.580414 2429.294813 C 1947.418382 2458.692833 1943.104642 2501.493478 1962.995775 2535.518595 L 2064.688192 2709.912278 C 2084.619267 2744.017173 2121.086343 2764.918886 2160.50913 2764.918886 L 2202.608034 2764.918886 C 2233.083805 2764.918886 2255.810822 2736.916972 2249.499981 2707.080176 L 2196.496903 2456.618617 C 2185.193307 2403.008116 2137.901939 2364.714902 2083.10147 2364.714902 C 2050.189234 2364.595235 2018.714912 2378.715858 1996.706851 2403.407004 Z M 1996.706851 2403.407004 " stroke="#3fb1b5" stroke-width="5" stroke-opacity="1" stroke-miterlimit="10"/><path fill="#3fb1b5" d="M 143 307.332031 L 155.839844 332.246094 C 156.449219 333.371094 157.199219 334.097656 158.0625 334.554688 C 157.316406 335.054688 156.417969 335.359375 155.441406 335.359375 L 151.324219 335.359375 C 147.460938 335.359375 143.890625 333.304688 141.953125 329.972656 L 132.007812 312.886719 C 131.605469 312.191406 131.304688 311.464844 131.097656 310.710938 C 129.691406 305.472656 135.644531 301.359375 140.117188 304.433594 C 141.132812 305.128906 142.128906 306.070312 143 307.332031 Z M 143 307.332031 " fill-opacity="1" fill-rule="nonzero"/><path fill="#ffffff" d="M 143.03125 307.390625 L 131.175781 307.390625 C 131.234375 307.203125 131.304688 307.027344 131.382812 306.863281 L 142.648438 306.863281 C 142.765625 307.019531 142.882812 307.175781 143 307.34375 Z M 143.03125 307.390625 " fill-opacity="1" fill-rule="nonzero"/><path fill="#ffffff" d="M 144.769531 310.761719 L 131.117188 310.761719 C 131.117188 310.742188 131.109375 310.71875 131.109375 310.710938 C 131.070312 310.554688 131.03125 310.386719 131 310.230469 L 144.507812 310.230469 Z M 144.769531 310.761719 " fill-opacity="1" fill-rule="nonzero"/><path fill="#ffffff" d="M 146.511719 314.136719 L 132.742188 314.136719 L 132.429688 313.601562 L 146.238281 313.601562 Z M 146.511719 314.136719 " fill-opacity="1" fill-rule="nonzero"/><path fill="#ffffff" d="M 148.253906 317.515625 L 134.707031 317.515625 L 134.394531 316.976562 L 147.980469 316.976562 Z M 148.253906 317.515625 " fill-opacity="1" fill-rule="nonzero"/><path fill="#ffffff" d="M 149.992188 320.886719 L 136.671875 320.886719 L 136.359375 320.355469 L 149.71875 320.355469 Z M 149.992188 320.886719 " fill-opacity="1" fill-rule="nonzero"/><path fill="#ffffff" d="M 151.734375 324.265625 L 138.640625 324.265625 L 138.324219 323.726562 L 151.449219 323.726562 Z M 151.734375 324.265625 " fill-opacity="1" fill-rule="nonzero"/><path fill="#ffffff" d="M 153.476562 327.644531 L 140.605469 327.644531 L 140.292969 327.105469 L 153.191406 327.105469 Z M 153.476562 327.644531 " fill-opacity="1" fill-rule="nonzero"/><path fill="#ffffff" d="M 155.207031 331.011719 L 142.648438 331.011719 C 142.523438 330.835938 142.394531 330.660156 142.277344 330.484375 L 154.933594 330.484375 Z M 155.207031 331.011719 " fill-opacity="1" fill-rule="nonzero"/><path fill="#ffffff" d="M 157.777344 334.390625 L 146.863281 334.390625 C 146.511719 334.234375 146.167969 334.058594 145.835938 333.859375 L 157.074219 333.859375 C 157.296875 334.058594 157.535156 334.234375 157.777344 334.390625 Z M 157.777344 334.390625 " fill-opacity="1" fill-rule="nonzero"/><path fill="#73325a" d="M 120 278.726562 C 119.910156 281.3125 112.585938 283.410156 103.570312 283.410156 C 94.550781 283.410156 87.226562 281.324219 87.136719 278.726562 L 87.136719 258.367188 L 120 258.367188 Z M 120 278.726562 " fill-opacity="1" fill-rule="nonzero"/><path fill="#a0505a" d="M 117.816406 282.105469 L 117.769531 284.523438 L 117.300781 308.136719 L 117.300781 307.449219 C 117.300781 301.386719 112.390625 296.472656 106.335938 296.472656 L 105.671875 296.472656 C 102.582031 296.472656 99.792969 297.675781 97.730469 299.617188 L 96.292969 289.882812 L 95.402344 283.859375 C 97.808594 284.261719 100.59375 284.484375 103.558594 284.484375 C 109.660156 284.476562 114.972656 283.515625 117.816406 282.105469 Z M 117.816406 282.105469 " fill-opacity="1" fill-rule="nonzero"/><path fill="#73325a" d="M 117.816406 282.105469 L 117.769531 284.523438 C 114.128906 287.109375 102.894531 290.292969 96.300781 289.871094 L 95.414062 283.847656 C 97.816406 284.242188 100.605469 284.476562 103.570312 284.476562 C 109.660156 284.476562 114.972656 283.515625 117.816406 282.105469 Z M 117.816406 282.105469 " fill-opacity="1" fill-rule="nonzero"/><path stroke-linecap="butt" transform="matrix(0.097798, 0, 0, 0.0979286, -59.9692, 64.586993)" fill-opacity="1" fill="#ffffff" fill-rule="nonzero" stroke-linejoin="miter" d="M 1705.609311 2768.189764 L 1724.182357 2768.189764 C 1772.991522 2768.189764 1812.614019 2728.58022 1812.614019 2679.79626 L 1812.614019 2479.993434 C 1812.614019 2418.08607 1762.406883 2367.906003 1700.496731 2367.906003 L 1693.706585 2367.906003 C 1621.691099 2367.906003 1566.211614 2431.408918 1575.917528 2502.809808 L 1599.403444 2675.60794 C 1606.712836 2728.58022 1652.007102 2768.189764 1705.609311 2768.189764 Z M 1705.609311 2768.189764 " stroke="#3fb1b5" stroke-width="5" stroke-opacity="1" stroke-miterlimit="10"/><path fill="#3fb1b5" d="M 114.582031 333.3125 C 113.035156 334.773438 110.941406 335.671875 108.652344 335.671875 L 106.835938 335.671875 C 101.59375 335.671875 97.164062 331.792969 96.457031 326.605469 L 94.160156 309.683594 C 94.121094 309.359375 94.082031 309.035156 94.074219 308.722656 C 94.660156 304.972656 97.894531 302.101562 101.808594 302.101562 C 103.734375 302.101562 105.515625 302.808594 106.894531 303.984375 C 108.273438 305.160156 109.242188 306.8125 109.542969 308.722656 L 112.566406 329.375 C 112.789062 330.914062 113.515625 332.285156 114.582031 333.3125 Z M 114.582031 333.3125 " fill-opacity="1" fill-rule="nonzero"/><path fill="#ffffff" d="M 108.632812 306.109375 L 94.972656 306.109375 C 95.070312 305.921875 95.1875 305.746094 95.304688 305.578125 L 108.3125 305.578125 C 108.429688 305.746094 108.535156 305.921875 108.632812 306.109375 Z M 108.632812 306.109375 " fill-opacity="1" fill-rule="nonzero"/><path fill="#ffffff" d="M 109.652344 309.476562 L 94.132812 309.476562 C 94.113281 309.300781 94.09375 309.125 94.082031 308.949219 L 109.574219 308.949219 Z M 109.652344 309.476562 " fill-opacity="1" fill-rule="nonzero"/><path fill="#ffffff" d="M 110.148438 312.855469 L 94.589844 312.855469 L 94.511719 312.328125 L 110.070312 312.328125 Z M 110.148438 312.855469 " fill-opacity="1" fill-rule="nonzero"/><path fill="#ffffff" d="M 110.640625 316.234375 L 95.050781 316.234375 L 94.972656 315.695312 L 110.5625 315.695312 Z M 110.640625 316.234375 " fill-opacity="1" fill-rule="nonzero"/><path fill="#ffffff" d="M 111.136719 319.601562 L 95.511719 319.601562 L 95.433594 319.074219 L 111.058594 319.074219 Z M 111.136719 319.601562 " fill-opacity="1" fill-rule="nonzero"/><path fill="#ffffff" d="M 111.628906 322.980469 L 95.960938 322.980469 L 95.890625 322.453125 L 111.550781 322.453125 Z M 111.628906 322.980469 " fill-opacity="1" fill-rule="nonzero"/><path fill="#ffffff" d="M 112.125 326.359375 L 96.417969 326.359375 L 96.351562 325.820312 L 112.046875 325.820312 Z M 112.125 326.359375 " fill-opacity="1" fill-rule="nonzero"/><path fill="#ffffff" d="M 112.625 329.730469 L 97.386719 329.730469 C 97.300781 329.550781 97.222656 329.375 97.152344 329.199219 L 112.535156 329.199219 L 112.566406 329.375 C 112.585938 329.492188 112.605469 329.609375 112.625 329.730469 Z M 112.625 329.730469 " fill-opacity="1" fill-rule="nonzero"/><path fill="#ffffff" d="M 114.375 333.105469 L 99.96875 333.105469 C 99.773438 332.941406 99.578125 332.753906 99.402344 332.578125 L 113.925781 332.578125 C 114.0625 332.765625 114.21875 332.941406 114.375 333.105469 Z M 114.375 333.105469 " fill-opacity="1" fill-rule="nonzero"/><path fill="#ffcf2d" d="M 127.109375 172.90625 L 127.109375 189.398438 C 126.394531 187.527344 120.742188 187.789062 114.523438 190.152344 C 109.191406 192.179688 105.191406 194.960938 104.605469 196.886719 L 104.605469 173.679688 C 104.605469 166.777344 108.292969 160.605469 113.953125 157.238281 C 121.308594 158.519531 127.109375 164.933594 127.109375 172.90625 Z M 127.109375 172.90625 " fill-opacity="1" fill-rule="nonzero"/><path fill="#ffcf2d" d="M 104.175781 157.980469 C 99.167969 161.46875 95.980469 167.253906 95.980469 173.679688 L 95.980469 192.824219 L 68.136719 192.824219 L 71.980469 176.253906 C 73.613281 169.195312 78.71875 163.5625 85.367188 161.164062 Z M 104.175781 157.980469 " fill-opacity="1" fill-rule="nonzero"/><path fill="#fe5244" d="M 160.488281 239.929688 L 160.488281 278.363281 C 160.488281 275.75 152.808594 273.636719 143.734375 273.636719 C 134.660156 273.636719 127.304688 275.75 127.304688 278.363281 L 127.304688 259.945312 C 127.304688 259.082031 126.601562 258.378906 125.738281 258.378906 L 75.824219 258.378906 C 60.8125 258.378906 49.710938 244.382812 53.105469 229.742188 L 65.152344 177.761719 C 67.070312 169.46875 73.777344 163.152344 82.160156 161.722656 L 85.367188 161.175781 C 78.71875 163.574219 73.613281 169.203125 71.980469 176.265625 L 68.136719 192.835938 L 95.980469 192.835938 L 95.980469 173.679688 C 95.980469 167.253906 99.175781 161.457031 104.175781 157.980469 L 108.574219 157.238281 C 109.484375 157.082031 110.375 157.011719 111.265625 157.011719 C 111.382812 157.011719 111.488281 157.011719 111.609375 157.011719 C 111.714844 157.011719 111.824219 157.023438 111.921875 157.023438 C 111.941406 157.023438 111.960938 157.023438 111.980469 157.023438 C 112.058594 157.023438 112.144531 157.03125 112.222656 157.03125 C 112.234375 157.03125 112.253906 157.03125 112.261719 157.03125 C 112.3125 157.03125 112.359375 157.042969 112.398438 157.042969 C 112.488281 157.050781 112.566406 157.050781 112.652344 157.0625 C 112.75 157.070312 112.859375 157.082031 112.957031 157.089844 C 113.054688 157.101562 113.144531 157.109375 113.242188 157.121094 C 113.261719 157.121094 113.28125 157.128906 113.308594 157.128906 C 113.40625 157.140625 113.515625 157.160156 113.613281 157.167969 C 113.621094 157.167969 113.632812 157.167969 113.632812 157.167969 C 113.738281 157.1875 113.847656 157.199219 113.953125 157.21875 C 108.292969 160.585938 104.605469 166.757812 104.605469 173.660156 L 104.605469 220.714844 L 141.320312 220.714844 C 151.898438 220.734375 160.488281 229.324219 160.488281 239.929688 Z M 160.488281 239.929688 " fill-opacity="1" fill-rule="nonzero"/><path stroke-linecap="round" transform="matrix(0.097798, 0, 0, 0.0979286, -59.9692, 64.586993)" fill="none" stroke-linejoin="miter" d="M 1684.919338 949.301948 C 1633.713651 984.882726 1594.490574 1048.385641 1594.490574 1114.00266 L 1594.490574 1309.4975 L 1309.783759 1309.4975 L 1349.08672 1140.289357 C 1365.78249 1068.210357 1413.593104 1009.613761 1481.694271 985.08217 " stroke="#ffffff" stroke-width="6" stroke-opacity="1" stroke-miterlimit="10"/><path stroke-linecap="round" transform="matrix(0.097798, 0, 0, 0.0979286, -59.9692, 64.586993)" fill="none" stroke-linejoin="miter" d="M 1914.905567 1934.594344 C 1914.905567 1878.909627 1934.596989 1825.019905 1970.504877 1782.498481 " stroke="#ffffff" stroke-width="6" stroke-opacity="1" stroke-miterlimit="10"/><path fill="#ffffff" d="M 86.628906 252.089844 C 86.582031 252.089844 86.53125 252.082031 86.492188 252.050781 L 85.203125 251.347656 C 85.054688 251.269531 85.007812 251.09375 85.085938 250.945312 C 85.164062 250.796875 85.339844 250.75 85.484375 250.828125 L 86.777344 251.53125 C 86.921875 251.609375 86.972656 251.789062 86.894531 251.933594 C 86.835938 252.03125 86.738281 252.089844 86.628906 252.089844 Z M 87.921875 251.757812 C 87.8125 251.757812 87.714844 251.699219 87.667969 251.601562 C 87.589844 251.453125 87.636719 251.277344 87.785156 251.199219 L 89.074219 250.496094 C 89.222656 250.417969 89.398438 250.476562 89.476562 250.613281 C 89.554688 250.757812 89.503906 250.933594 89.359375 251.011719 L 88.066406 251.71875 C 88.019531 251.738281 87.96875 251.757812 87.921875 251.757812 Z M 84.046875 250.691406 C 84 250.691406 83.949219 250.679688 83.910156 250.652344 L 82.621094 249.945312 C 82.472656 249.867188 82.425781 249.691406 82.503906 249.542969 C 82.582031 249.398438 82.757812 249.347656 82.902344 249.425781 L 84.195312 250.132812 C 84.339844 250.210938 84.390625 250.386719 84.3125 250.535156 C 84.253906 250.632812 84.15625 250.691406 84.046875 250.691406 Z M 90.492188 250.347656 C 90.386719 250.347656 90.289062 250.289062 90.238281 250.191406 C 90.160156 250.042969 90.210938 249.867188 90.355469 249.789062 L 91.648438 249.085938 C 91.871094 248.96875 92.078125 248.828125 92.28125 248.683594 C 92.410156 248.585938 92.59375 248.613281 92.695312 248.742188 C 92.792969 248.867188 92.761719 249.054688 92.632812 249.152344 C 92.410156 249.320312 92.175781 249.464844 91.929688 249.601562 L 90.640625 250.308594 C 90.589844 250.339844 90.542969 250.347656 90.492188 250.347656 Z M 81.496094 249.242188 C 81.4375 249.242188 81.378906 249.222656 81.320312 249.183594 C 80.910156 248.878906 80.527344 248.527344 80.203125 248.125 C 80.097656 247.996094 80.117188 247.8125 80.242188 247.714844 C 80.371094 247.605469 80.558594 247.625 80.65625 247.753906 C 80.949219 248.113281 81.289062 248.429688 81.660156 248.703125 C 81.789062 248.800781 81.816406 248.988281 81.730469 249.113281 C 81.679688 249.203125 81.59375 249.242188 81.496094 249.242188 Z M 93.515625 248.210938 C 93.445312 248.210938 93.386719 248.191406 93.328125 248.144531 C 93.203125 248.046875 93.183594 247.859375 93.289062 247.734375 C 93.582031 247.371094 93.828125 246.980469 94.023438 246.546875 C 94.09375 246.402344 94.269531 246.332031 94.414062 246.402344 C 94.5625 246.46875 94.628906 246.644531 94.5625 246.792969 C 94.347656 247.261719 94.074219 247.703125 93.75 248.09375 C 93.679688 248.171875 93.601562 248.210938 93.515625 248.210938 Z M 79.65625 247 C 79.550781 247 79.441406 246.941406 79.394531 246.832031 C 79.179688 246.363281 79.019531 245.871094 78.921875 245.363281 C 78.894531 245.207031 79 245.050781 79.15625 245.019531 C 79.316406 244.992188 79.472656 245.097656 79.5 245.253906 C 79.589844 245.714844 79.726562 246.15625 79.921875 246.578125 C 79.988281 246.722656 79.921875 246.902344 79.773438 246.96875 C 79.734375 246.988281 79.695312 247 79.65625 247 Z M 94.726562 245.570312 C 94.707031 245.570312 94.6875 245.570312 94.679688 245.570312 C 94.523438 245.539062 94.414062 245.382812 94.445312 245.226562 C 94.503906 244.902344 94.53125 244.578125 94.53125 244.257812 L 94.53125 243.816406 C 94.53125 243.648438 94.660156 243.523438 94.824219 243.523438 C 94.992188 243.523438 95.117188 243.648438 95.117188 243.816406 L 95.117188 244.257812 C 95.117188 244.617188 95.089844 244.980469 95.019531 245.332031 C 94.992188 245.472656 94.863281 245.570312 94.726562 245.570312 Z M 79.117188 244.140625 C 78.953125 244.140625 78.824219 244.011719 78.824219 243.84375 L 78.824219 242.375 C 78.824219 242.210938 78.953125 242.082031 79.117188 242.082031 C 79.285156 242.082031 79.414062 242.210938 79.414062 242.375 L 79.414062 243.84375 C 79.414062 244 79.277344 244.140625 79.117188 244.140625 Z M 94.816406 242.640625 C 94.648438 242.640625 94.523438 242.511719 94.523438 242.347656 L 94.523438 240.878906 C 94.523438 240.710938 94.648438 240.585938 94.816406 240.585938 C 94.980469 240.585938 95.109375 240.710938 95.109375 240.878906 L 95.109375 242.347656 C 95.109375 242.511719 94.980469 242.640625 94.816406 242.640625 Z M 79.117188 241.203125 C 78.953125 241.203125 78.824219 241.074219 78.824219 240.90625 L 78.824219 239.4375 C 78.824219 239.273438 78.953125 239.144531 79.117188 239.144531 C 79.285156 239.144531 79.414062 239.273438 79.414062 239.4375 L 79.414062 240.90625 C 79.414062 241.0625 79.277344 241.203125 79.117188 241.203125 Z M 94.816406 239.703125 C 94.648438 239.703125 94.523438 239.574219 94.523438 239.410156 L 94.523438 237.941406 C 94.523438 237.773438 94.648438 237.644531 94.816406 237.644531 C 94.980469 237.644531 95.109375 237.773438 95.109375 237.941406 L 95.109375 239.410156 C 95.109375 239.574219 94.980469 239.703125 94.816406 239.703125 Z M 79.117188 238.261719 C 78.953125 238.261719 78.824219 238.136719 78.824219 237.96875 L 78.824219 236.5 C 78.824219 236.335938 78.953125 236.207031 79.117188 236.207031 C 79.285156 236.207031 79.414062 236.335938 79.414062 236.5 L 79.414062 237.96875 C 79.414062 238.125 79.277344 238.261719 79.117188 238.261719 Z M 94.816406 236.765625 C 94.648438 236.765625 94.523438 236.636719 94.523438 236.472656 L 94.523438 235.003906 C 94.523438 234.835938 94.648438 234.707031 94.816406 234.707031 C 94.980469 234.707031 95.109375 234.835938 95.109375 235.003906 L 95.109375 236.472656 C 95.109375 236.636719 94.980469 236.765625 94.816406 236.765625 Z M 79.117188 235.324219 C 78.953125 235.324219 78.824219 235.199219 78.824219 235.03125 L 78.824219 233.769531 L 79.617188 233.769531 C 79.785156 233.769531 79.910156 233.894531 79.910156 234.0625 C 79.910156 234.230469 79.785156 234.355469 79.617188 234.355469 L 79.414062 234.355469 L 79.414062 235.03125 C 79.414062 235.1875 79.277344 235.324219 79.117188 235.324219 Z M 94.289062 234.355469 L 92.820312 234.355469 C 92.65625 234.355469 92.527344 234.230469 92.527344 234.0625 C 92.527344 233.894531 92.65625 233.769531 92.820312 233.769531 L 94.289062 233.769531 C 94.453125 233.769531 94.582031 233.894531 94.582031 234.0625 C 94.582031 234.230469 94.453125 234.355469 94.289062 234.355469 Z M 91.355469 234.355469 L 89.886719 234.355469 C 89.71875 234.355469 89.59375 234.230469 89.59375 234.0625 C 89.59375 233.894531 89.71875 233.769531 89.886719 233.769531 L 91.355469 233.769531 C 91.519531 233.769531 91.648438 233.894531 91.648438 234.0625 C 91.648438 234.230469 91.519531 234.355469 91.355469 234.355469 Z M 88.417969 234.355469 L 86.953125 234.355469 C 86.785156 234.355469 86.660156 234.230469 86.660156 234.0625 C 86.660156 233.894531 86.785156 233.769531 86.953125 233.769531 L 88.417969 233.769531 C 88.585938 233.769531 88.714844 233.894531 88.714844 234.0625 C 88.714844 234.230469 88.585938 234.355469 88.417969 234.355469 Z M 85.484375 234.355469 L 84.019531 234.355469 C 83.851562 234.355469 83.726562 234.230469 83.726562 234.0625 C 83.726562 233.894531 83.851562 233.769531 84.019531 233.769531 L 85.484375 233.769531 C 85.652344 233.769531 85.777344 233.894531 85.777344 234.0625 C 85.777344 234.230469 85.652344 234.355469 85.484375 234.355469 Z M 82.550781 234.355469 L 81.085938 234.355469 C 80.917969 234.355469 80.792969 234.230469 80.792969 234.0625 C 80.792969 233.894531 80.917969 233.769531 81.085938 233.769531 L 82.550781 233.769531 C 82.71875 233.769531 82.84375 233.894531 82.84375 234.0625 C 82.84375 234.230469 82.71875 234.355469 82.550781 234.355469 Z M 82.550781 234.355469 " fill-opacity="1" fill-rule="nonzero"/><path fill="#ffffff" d="M 58.953125 250.464844 C 58.84375 250.464844 58.746094 250.40625 58.699219 250.308594 C 58.621094 250.160156 58.667969 249.984375 58.816406 249.90625 L 60.007812 249.25 C 60.039062 249.230469 60.066406 249.222656 60.097656 249.203125 C 60.234375 249.125 60.421875 249.171875 60.5 249.308594 C 60.578125 249.445312 60.527344 249.632812 60.390625 249.710938 C 60.363281 249.730469 60.332031 249.75 60.292969 249.761719 L 59.101562 250.417969 C 59.050781 250.457031 59.003906 250.464844 58.953125 250.464844 Z M 61.425781 248.898438 C 61.347656 248.898438 61.269531 248.867188 61.210938 248.800781 C 61.105469 248.683594 61.113281 248.496094 61.230469 248.390625 C 61.574219 248.074219 61.878906 247.714844 62.140625 247.332031 C 62.230469 247.195312 62.414062 247.164062 62.550781 247.253906 C 62.6875 247.339844 62.71875 247.527344 62.628906 247.664062 C 62.347656 248.085938 62.003906 248.476562 61.632812 248.828125 C 61.5625 248.878906 61.496094 248.898438 61.425781 248.898438 Z M 63.0625 246.488281 C 63.023438 246.488281 62.992188 246.480469 62.953125 246.46875 C 62.804688 246.410156 62.726562 246.246094 62.785156 246.085938 C 62.953125 245.648438 63.070312 245.195312 63.140625 244.738281 C 63.160156 244.578125 63.304688 244.460938 63.472656 244.480469 C 63.628906 244.5 63.746094 244.648438 63.726562 244.816406 C 63.65625 245.324219 63.53125 245.824219 63.34375 246.304688 C 63.285156 246.421875 63.179688 246.488281 63.0625 246.488281 Z M 63.480469 243.609375 C 63.316406 243.609375 63.1875 243.484375 63.1875 243.316406 L 63.1875 241.847656 C 63.1875 241.679688 63.316406 241.554688 63.480469 241.554688 C 63.648438 241.554688 63.773438 241.679688 63.773438 241.847656 L 63.773438 243.316406 C 63.773438 243.472656 63.648438 243.609375 63.480469 243.609375 Z M 63.480469 240.671875 C 63.316406 240.671875 63.1875 240.546875 63.1875 240.378906 L 63.1875 238.910156 C 63.1875 238.742188 63.316406 238.617188 63.480469 238.617188 C 63.648438 238.617188 63.773438 238.742188 63.773438 238.910156 L 63.773438 240.378906 C 63.773438 240.535156 63.648438 240.671875 63.480469 240.671875 Z M 63.480469 237.734375 C 63.316406 237.734375 63.1875 237.605469 63.1875 237.441406 L 63.1875 235.972656 C 63.1875 235.804688 63.316406 235.679688 63.480469 235.679688 C 63.648438 235.679688 63.773438 235.804688 63.773438 235.972656 L 63.773438 237.441406 C 63.773438 237.597656 63.648438 237.734375 63.480469 237.734375 Z M 63.480469 234.796875 C 63.316406 234.796875 63.1875 234.667969 63.1875 234.503906 L 63.1875 234.355469 L 62.453125 234.355469 C 62.289062 234.355469 62.160156 234.230469 62.160156 234.0625 C 62.160156 233.894531 62.289062 233.769531 62.453125 233.769531 L 63.773438 233.769531 L 63.773438 234.503906 C 63.773438 234.660156 63.648438 234.796875 63.480469 234.796875 Z M 60.988281 234.355469 L 59.519531 234.355469 C 59.355469 234.355469 59.226562 234.230469 59.226562 234.0625 C 59.226562 233.894531 59.355469 233.769531 59.519531 233.769531 L 60.988281 233.769531 C 61.152344 233.769531 61.28125 233.894531 61.28125 234.0625 C 61.28125 234.230469 61.144531 234.355469 60.988281 234.355469 Z M 58.054688 234.355469 L 56.585938 234.355469 C 56.421875 234.355469 56.292969 234.230469 56.292969 234.0625 C 56.292969 233.894531 56.421875 233.769531 56.585938 233.769531 L 58.054688 233.769531 C 58.21875 233.769531 58.347656 233.894531 58.347656 234.0625 C 58.347656 234.230469 58.210938 234.355469 58.054688 234.355469 Z M 55.121094 234.355469 L 53.652344 234.355469 C 53.484375 234.355469 53.359375 234.230469 53.359375 234.0625 C 53.359375 233.894531 53.484375 233.769531 53.652344 233.769531 L 55.121094 233.769531 C 55.285156 233.769531 55.414062 233.894531 55.414062 234.0625 C 55.414062 234.230469 55.277344 234.355469 55.121094 234.355469 Z M 55.121094 234.355469 " fill-opacity="1" fill-rule="nonzero"/><path fill="#fe5244" d="M 127.109375 189.398438 C 127.824219 191.265625 123.304688 194.585938 117.09375 196.945312 C 110.882812 199.308594 105.320312 199.667969 104.605469 197.789062 C 103.890625 195.910156 108.300781 192.519531 114.523438 190.160156 C 120.742188 187.800781 126.394531 187.515625 127.109375 189.398438 Z M 127.109375 189.398438 " fill-opacity="1" fill-rule="nonzero"/><path fill="#73325a" d="M 130.582031 250.152344 L 130.582031 251.191406 C 130.257812 251.113281 129.914062 251.074219 129.574219 251.074219 L 128.3125 251.074219 C 126.445312 251.074219 124.847656 249.878906 124.242188 248.210938 L 127.824219 247.734375 C 129.28125 247.539062 130.582031 248.671875 130.582031 250.152344 Z M 130.582031 250.152344 " fill-opacity="1" fill-rule="nonzero"/><path fill="#a0505a" d="M 133.886719 255.390625 L 133.886719 263.363281 C 133.886719 265.222656 132.378906 266.730469 130.523438 266.730469 L 126.777344 266.730469 C 125.847656 266.730469 125.007812 266.359375 124.398438 265.742188 C 123.792969 265.136719 123.410156 264.292969 123.410156 263.363281 L 125.847656 263.363281 C 126.648438 263.363281 127.292969 262.714844 127.292969 261.914062 L 127.292969 259.828125 C 127.292969 259.023438 126.648438 258.378906 125.847656 258.378906 L 113.398438 258.378906 C 108.535156 258.378906 104.59375 254.429688 104.59375 249.5625 L 104.59375 196.898438 C 105.183594 194.96875 109.183594 192.179688 114.511719 190.160156 C 118.148438 188.78125 121.601562 188.113281 123.980469 188.171875 L 123.980469 246.753906 C 123.980469 249.144531 125.914062 251.082031 128.300781 251.082031 L 129.5625 251.082031 C 131.949219 251.074219 133.886719 253 133.886719 255.390625 Z M 133.886719 255.390625 " fill-opacity="1" fill-rule="nonzero"/><path fill="#73325a" d="M 123.980469 188.164062 L 123.980469 193.492188 C 122.207031 194.683594 119.8125 195.910156 117.085938 196.9375 C 110.863281 199.296875 105.308594 199.660156 104.59375 197.78125 L 104.59375 196.886719 C 105.183594 194.960938 109.183594 192.167969 114.511719 190.152344 C 118.160156 188.769531 121.601562 188.105469 123.980469 188.164062 Z M 123.980469 188.164062 " fill-opacity="1" fill-rule="nonzero"/><path fill="#a0505a" d="M 107.714844 148.492188 L 104.039062 157.980469 L 85.085938 161.378906 L 90.035156 148.492188 Z M 107.714844 148.492188 " fill-opacity="1" fill-rule="nonzero"/><path fill="#73325a" d="M 107.714844 148.492188 L 105.730469 153.625 L 86.933594 156.5625 L 90.035156 148.492188 Z M 107.714844 148.492188 " fill-opacity="1" fill-rule="nonzero"/><path stroke-linecap="round" transform="matrix(0.097798, 0, 0, 0.0979286, -59.9692, 64.586993)" fill-opacity="1" fill="#ffffff" fill-rule="nonzero" stroke-linejoin="miter" d="M 1828.191412 659.589844 C 1828.191412 672.713248 1805.504337 687.19287 1779.302363 699.398832 C 1743.594185 716.112225 1701.495282 728.796852 1701.495282 728.796852 L 1673.096496 782.287687 C 1711.6805 802.790512 1726.818531 839.607843 1732.809836 865.296207 C 1736.604329 881.69049 1736.604329 893.417787 1736.604329 893.417787 L 1464.399371 893.417787 C 1464.399371 893.417787 1392.903131 661.783726 1565.213063 606.41812 C 1670.580148 572.512669 1828.191412 628.516496 1828.191412 659.589844 Z M 1828.191412 659.589844 " stroke="#ffcf2d" stroke-width="6" stroke-opacity="1" stroke-miterlimit="10"/><path stroke-linecap="round" transform="matrix(0.097798, 0, 0, 0.0979286, -59.9692, 64.586993)" fill-opacity="1" fill="#ffffff" fill-rule="nonzero" stroke-linejoin="miter" d="M 1607.711387 571.714894 C 1607.711387 576.142547 1607.272025 580.530311 1606.3933 584.918075 C 1605.514575 589.26595 1604.23643 593.49416 1602.558865 597.602702 C 1600.841357 601.711245 1598.764371 605.620344 1596.287965 609.329999 C 1593.811559 612.999766 1591.015617 616.4302 1587.860196 619.581412 C 1584.744718 622.732625 1581.309703 625.524838 1577.595094 627.997942 C 1573.920427 630.471045 1570.006107 632.545261 1565.892078 634.260478 C 1561.81799 635.935806 1557.584135 637.212247 1553.190511 638.089799 C 1548.83683 638.967352 1544.443206 639.406129 1540.00964 639.406129 C 1535.536132 639.406129 1531.142509 638.967352 1526.788827 638.089799 C 1522.435145 637.212247 1518.20129 635.935806 1514.08726 634.260478 C 1509.973231 632.545261 1506.098854 630.471045 1502.384245 627.997942 C 1498.709578 625.524838 1495.274563 622.732625 1492.119142 619.581412 C 1489.003663 616.4302 1486.167779 612.999766 1483.691373 609.329999 C 1481.254909 605.620344 1479.137981 601.711245 1477.460416 597.602702 C 1475.742908 593.49416 1474.464763 589.26595 1473.586038 584.918075 C 1472.747256 580.530311 1472.307893 576.142547 1472.307893 571.714894 C 1472.307893 567.247352 1472.747256 562.859588 1473.586038 558.511712 C 1474.464763 554.123948 1475.742908 549.895739 1477.460416 545.787196 C 1479.137981 541.678653 1481.254909 537.769554 1483.691373 534.099788 C 1486.167779 530.390133 1489.003663 526.959699 1492.119142 523.848375 C 1495.274563 520.697163 1498.709578 517.86506 1502.384245 515.391957 C 1506.098854 512.958742 1509.973231 510.844637 1514.08726 509.169309 C 1518.20129 507.454092 1522.435145 506.177652 1526.788827 505.300099 C 1531.142509 504.422546 1535.536132 503.98377 1540.00964 503.98377 C 1544.443206 503.98377 1548.83683 504.422546 1553.190511 505.300099 C 1557.584135 506.177652 1561.81799 507.454092 1565.892078 509.169309 C 1570.006107 510.844637 1573.920427 512.958742 1577.595094 515.391957 C 1581.309703 517.86506 1584.744718 520.697163 1587.860196 523.848375 C 1591.015617 526.959699 1593.811559 530.390133 1596.287965 534.099788 C 1598.764371 537.769554 1600.841357 541.678653 1602.558865 545.787196 C 1604.23643 549.895739 1605.514575 554.123948 1606.3933 558.511712 C 1607.272025 562.859588 1607.711387 567.247352 1607.711387 571.714894 Z M 1607.711387 571.714894 " stroke="#ffcf2d" stroke-width="6" stroke-opacity="1" stroke-miterlimit="10"/><path fill="#a0505a" d="M 109.484375 149.324219 C 108.9375 146.945312 107.570312 143.554688 104.195312 141.511719 L 103.324219 141.511719 C 102.523438 141.511719 101.789062 141.1875 101.261719 140.65625 C 100.734375 140.128906 100.410156 139.394531 100.410156 138.589844 C 100.410156 136.976562 101.710938 135.671875 103.324219 135.671875 L 107.011719 135.75 L 107.109375 135.75 C 107.175781 135.730469 107.246094 135.703125 107.324219 135.683594 C 108.320312 135.46875 111.480469 134.703125 114.101562 133.390625 L 114.40625 135.203125 L 115.382812 141.011719 C 116.046875 144.996094 113.320312 148.667969 109.484375 149.324219 Z M 109.484375 149.324219 " fill-opacity="1" fill-rule="nonzero"/><path fill="#73325a" d="M 114.394531 135.195312 C 111.1875 136.496094 107 135.742188 107 135.742188 C 107 135.742188 110.941406 134.957031 114.089844 133.382812 Z M 114.394531 135.195312 " fill-opacity="1" fill-rule="nonzero"/><path stroke-linecap="round" transform="matrix(0.097798, 0, 0, 0.0979286, -59.9692, 64.586993)" fill="none" stroke-linejoin="miter" d="M 1692.907744 761.385973 C 1692.907744 750.017675 1683.681135 740.80337 1672.297655 740.80337 " stroke="#73325a" stroke-width="5" stroke-opacity="1" stroke-miterlimit="10"/><path stroke-linecap="butt" transform="matrix(0.097798, 0, 0, 0.0979286, -59.9692, 64.586993)" fill="none" stroke-linejoin="miter" d="M 1798.794075 2029.808827 L 1914.905567 2995.994504 " stroke="#66b0f0" stroke-width="6" stroke-opacity="1" stroke-miterlimit="10"/><path stroke-linecap="butt" transform="matrix(0.097798, 0, 0, 0.0979286, -59.9692, 64.586993)" fill="none" stroke-linejoin="miter" d="M 1295.484511 2029.808827 L 1179.492846 2995.994504 " stroke="#66b0f0" stroke-width="6" stroke-opacity="1" stroke-miterlimit="10"/><path stroke-linecap="butt" transform="matrix(0.097798, 0, 0, 0.0979286, -59.9692, 64.586993)" fill="none" stroke-linejoin="miter" d="M 1219.315053 2664.199753 L 1875.003475 2664.199753 " stroke="#66b0f0" stroke-width="6" stroke-opacity="1" stroke-miterlimit="10"/><path stroke-linecap="butt" transform="matrix(0.097798, 0, 0, 0.0979286, -59.9692, 64.586993)" fill-opacity="1" fill="#ffffff" fill-rule="nonzero" stroke-linejoin="miter" d="M 1194.590935 2029.808827 L 1899.687652 2029.808827 C 1908.115421 2029.808827 1914.905567 2022.987848 1914.905567 2014.611207 L 1914.905567 1993.988715 C 1914.905567 1985.612075 1908.115421 1978.791096 1899.687652 1978.791096 L 1194.590935 1978.791096 C 1186.203107 1978.791096 1179.412962 1985.612075 1179.412962 1993.988715 L 1179.412962 2014.611207 C 1179.492846 2022.987848 1186.282992 2029.808827 1194.590935 2029.808827 Z M 1194.590935 2029.808827 " stroke="#ffcf2d" stroke-width="6" stroke-opacity="1" stroke-miterlimit="10"/></svg>