<svg xmlns="http://www.w3.org/2000/svg" xmlns:xlink="http://www.w3.org/1999/xlink" width="500" zoomAndPan="magnify" viewBox="0 0 375 374.999991" height="500" preserveAspectRatio="xMidYMid meet" version="1.0"><defs><clipPath id="147a93e098"><path d="M 22 253 L 371.886719 253 L 371.886719 368 L 22 368 Z M 22 253 " clip-rule="nonzero"/></clipPath><clipPath id="6f1a9ea574"><path d="M 22 239 L 371.886719 239 L 371.886719 355 L 22 355 Z M 22 239 " clip-rule="nonzero"/></clipPath><clipPath id="f18af68468"><path d="M 356 210 L 371.886719 210 L 371.886719 217 L 356 217 Z M 356 210 " clip-rule="nonzero"/></clipPath></defs><path fill="#d9d9d9" d="M 279.515625 102.890625 C 243.734375 65.859375 253.980469 42.648438 229.496094 25.503906 C 191.824219 -0.878906 121.511719 21.820312 80.03125 58.105469 C 29.226562 102.550781 3.011719 183.699219 32.871094 257.113281 C 64.671875 335.296875 148.34375 375.882812 223 363.652344 C 289.671875 352.730469 355.210938 298.695312 361.777344 233.894531 C 362.488281 226.867188 365.632812 188.898438 343.59375 156.164062 C 325.378906 129.105469 307.882812 132.242188 279.515625 102.890625 " fill-opacity="1" fill-rule="nonzero"/><path fill="#5479f5" d="M 174.921875 294.148438 C 176.828125 289.691406 189.28125 259.988281 184.449219 242.121094 C 183.773438 239.632812 182.730469 235.773438 179.386719 232.605469 C 172.707031 226.269531 165.539062 230.925781 160.207031 226.285156 C 153.175781 220.167969 161.867188 208.78125 154.582031 191.605469 C 152.835938 187.488281 150.117188 181.070312 143.722656 177.660156 C 136.585938 173.847656 132.214844 177.703125 125.144531 174.707031 C 116.328125 170.976562 117.597656 162.648438 109.496094 153.980469 C 100.957031 144.84375 83.914062 137.363281 70.886719 143.84375 C 59.527344 149.496094 55.53125 163.621094 55.695312 173.398438 C 55.945312 187.839844 65.40625 199.984375 75.566406 205.804688 C 90.171875 214.167969 105.457031 209.027344 107.242188 214.761719 C 108.902344 220.101562 95.71875 224.789062 96.03125 234.691406 C 96.25 241.601562 102.96875 248.597656 110.023438 250.597656 C 119.800781 253.375 125.832031 245.320312 131.601562 248.6875 C 137.65625 252.214844 133.828125 262.710938 137.890625 272.503906 C 141.238281 280.582031 150.433594 289.34375 174.921875 294.148438 " fill-opacity="1" fill-rule="nonzero"/><path fill="#ffffff" d="M 175.417969 290.960938 C 175.113281 290.960938 174.84375 290.738281 174.789062 290.429688 C 167.78125 250.09375 143.816406 220.535156 124.945312 202.839844 C 104.472656 183.644531 85.410156 173.875 85.222656 173.777344 C 84.90625 173.617188 84.78125 173.230469 84.941406 172.917969 C 85.101562 172.601562 85.484375 172.472656 85.800781 172.636719 C 85.992188 172.730469 105.191406 182.566406 125.792969 201.878906 C 137.894531 213.222656 148.113281 225.574219 156.164062 238.589844 C 166.238281 254.867188 172.929688 272.234375 176.050781 290.210938 C 176.113281 290.554688 175.878906 290.886719 175.53125 290.949219 C 175.492188 290.957031 175.457031 290.960938 175.417969 290.960938 " fill-opacity="1" fill-rule="nonzero"/><path fill="#5479f5" d="M 195.820312 278.027344 C 223.773438 220.242188 221.328125 194.449219 212.472656 181.675781 C 209.828125 177.867188 203.542969 170.722656 200.007812 158.621094 C 195.425781 142.925781 199.929688 134.144531 199.882812 121.253906 C 199.792969 96.042969 182.34375 71.28125 162.433594 58.929688 C 148.527344 50.304688 121.523438 40.351562 104.246094 53.003906 C 96.941406 58.355469 89.40625 69.1875 92.25 77.304688 C 96.316406 88.917969 118.921875 83.453125 129.042969 99.242188 C 134.566406 107.859375 129.460938 111.933594 135.402344 121.03125 C 144.765625 135.367188 161.800781 131.921875 164.796875 141.964844 C 167.695312 151.6875 152.300781 157.453125 154.003906 169.863281 C 155.949219 184.011719 176.574219 186.679688 176.964844 200.261719 C 177.195312 208.351562 169.929688 209.070312 169.183594 218.429688 C 168.273438 229.8125 178.535156 234.964844 187.585938 252.269531 C 192.664062 261.976562 194.59375 271.058594 195.820312 278.027344 " fill-opacity="1" fill-rule="nonzero"/><path fill="#d9d9d9" d="M 196.703125 272.679688 C 196.679688 272.679688 196.65625 272.679688 196.632812 272.675781 C 196.28125 272.636719 196.03125 272.320312 196.070312 271.96875 C 201.523438 222.019531 195.40625 168.558594 179.707031 128.957031 C 168.882812 101.65625 154.800781 84.476562 144.894531 74.871094 C 134.164062 64.464844 125.882812 60.460938 125.800781 60.421875 C 125.480469 60.269531 125.347656 59.886719 125.496094 59.566406 C 125.648438 59.25 126.03125 59.113281 126.351562 59.265625 C 126.691406 59.425781 134.863281 63.371094 145.734375 73.902344 C 155.75 83.597656 169.976562 100.941406 180.898438 128.488281 C 188.003906 146.417969 193.378906 168.1875 196.4375 191.445312 C 199.957031 218.234375 200.261719 245.371094 197.339844 272.109375 C 197.304688 272.4375 197.027344 272.679688 196.703125 272.679688 " fill-opacity="1" fill-rule="nonzero"/><g clip-path="url(#147a93e098)"><path fill="#000000" d="M 371.324219 261.441406 L 346.328125 261.441406 L 346.328125 268.019531 L 251.078125 253.855469 C 247.925781 253.386719 244.707031 253.710938 241.714844 254.804688 L 37.925781 329.128906 L 37.925781 323.515625 L 22.464844 323.515625 L 22.464844 337.988281 L 22.472656 337.988281 C 22.5625 339.855469 23.792969 341.667969 26.058594 342.070312 L 164.453125 366.660156 C 169.667969 367.585938 175.042969 366.914062 179.863281 364.730469 L 368.871094 279.121094 C 370.808594 278.246094 371.550781 276.363281 371.265625 274.648438 L 371.324219 274.648438 L 371.324219 261.441406 " fill-opacity="1" fill-rule="nonzero"/></g><path fill="#ffffff" d="M 26.839844 328.757812 L 164.648438 353.347656 C 169.84375 354.273438 175.191406 353.601562 179.996094 351.417969 L 368.203125 265.8125 C 371.980469 264.09375 371.199219 258.507812 367.089844 257.894531 L 250.90625 240.542969 C 247.769531 240.078125 244.5625 240.402344 241.582031 241.492188 L 26.109375 320.410156 C 21.949219 321.933594 22.480469 327.980469 26.839844 328.757812 " fill-opacity="1" fill-rule="nonzero"/><g clip-path="url(#6f1a9ea574)"><path fill="#000000" d="M 248.113281 240.976562 C 245.964844 240.976562 243.820312 241.355469 241.800781 242.09375 L 26.332031 321.011719 C 24.367188 321.730469 23.804688 323.507812 23.917969 324.808594 C 24.03125 326.109375 24.894531 327.761719 26.953125 328.128906 L 164.761719 352.714844 C 169.847656 353.625 175.023438 352.972656 179.726562 350.835938 L 367.933594 265.230469 C 369.707031 264.425781 370.136719 262.730469 369.96875 261.527344 C 369.800781 260.324219 368.917969 258.816406 366.996094 258.527344 L 250.808594 241.179688 C 249.917969 241.042969 249.011719 240.976562 248.113281 240.976562 Z M 169.242188 354.398438 C 167.675781 354.398438 166.101562 354.257812 164.535156 353.976562 L 26.730469 329.390625 C 24.449219 328.980469 22.84375 327.226562 22.640625 324.917969 C 22.441406 322.613281 23.714844 320.605469 25.890625 319.808594 L 241.359375 240.894531 C 244.429688 239.769531 247.765625 239.429688 251 239.910156 L 367.183594 257.261719 C 369.34375 257.585938 370.933594 259.1875 371.238281 261.351562 C 371.539062 263.511719 370.449219 265.492188 368.464844 266.394531 L 180.257812 352 C 176.765625 353.589844 173.023438 354.394531 169.242188 354.398438 " fill-opacity="1" fill-rule="nonzero"/></g><path fill="#5479f5" d="M 169.21875 348.816406 C 167.980469 348.816406 166.734375 348.707031 165.515625 348.488281 L 29.875 324.289062 L 243.277344 246.128906 C 244.828125 245.558594 246.453125 245.273438 248.101562 245.273438 C 248.796875 245.273438 249.492188 245.324219 250.175781 245.425781 L 363.800781 262.394531 L 177.949219 346.925781 C 175.191406 348.183594 172.25 348.816406 169.21875 348.816406 " fill-opacity="1" fill-rule="nonzero"/><path fill="#000000" d="M 115.117188 89.519531 C 117.179688 89.40625 119.609375 89.953125 124.460938 91.054688 C 128.835938 92.042969 130.046875 92.710938 130.585938 93.859375 C 131.46875 95.730469 130.152344 98.042969 129.757812 98.734375 C 127.519531 102.660156 123.425781 103.171875 120.726562 104.964844 C 111.992188 110.761719 116.445312 120.601562 109.203125 126.761719 C 102.308594 132.625 95.863281 125.734375 83.460938 131.328125 C 73.699219 135.730469 74.609375 141.390625 66.648438 143.886719 C 56.921875 146.933594 41.6875 142.839844 35.507812 130.601562 C 29.632812 118.964844 33.695312 103.429688 41.632812 99.460938 C 48.84375 95.855469 54.414062 103.820312 64.050781 100.085938 C 73.554688 96.402344 74.289062 86.199219 81.699219 86.328125 C 83.472656 86.359375 83.101562 86.9375 94.777344 91.15625 C 100.183594 93.113281 100.832031 93.195312 101.417969 93.234375 C 107.234375 93.621094 108.449219 89.882812 115.117188 89.519531 " fill-opacity="1" fill-rule="nonzero"/><path fill="#99b9ff" d="M 135.976562 149.261719 C 140.128906 174.699219 140.609375 175.070312 141.171875 177.738281 C 141.171875 177.738281 142.820312 185.226562 143.277344 192.445312 C 143.671875 198.703125 142.496094 236.308594 123.058594 244.589844 C 116.039062 247.578125 114.003906 242.085938 99.058594 242.679688 C 83.742188 243.292969 80.636719 248.742188 73.957031 246.832031 C 59.492188 242.699219 54.769531 211.667969 55.566406 192.492188 C 56.214844 176.875 63.984375 162.128906 79.53125 132.632812 C 81.898438 128.140625 85.6875 121.28125 91.792969 120.410156 C 94.59375 120.007812 95.710938 120.4375 106.949219 123.523438 C 119.171875 126.878906 122.273438 123.308594 127.519531 126.613281 C 132.941406 130.03125 133.894531 136.53125 135.976562 149.261719 " fill-opacity="1" fill-rule="nonzero"/><path fill="#ffffff" d="M 113.664062 296.546875 L 113.664062 308.847656 L 107.746094 308.488281 L 106.582031 296.546875 L 113.664062 296.546875 " fill-opacity="1" fill-rule="nonzero"/><path fill="#000000" d="M 108.332031 307.882812 L 113.023438 308.167969 L 113.023438 297.1875 L 107.289062 297.1875 Z M 113.664062 309.488281 C 113.652344 309.488281 113.640625 309.488281 113.625 309.488281 L 107.707031 309.128906 C 107.394531 309.109375 107.140625 308.863281 107.109375 308.550781 L 105.945312 296.609375 C 105.925781 296.429688 105.984375 296.25 106.105469 296.117188 C 106.230469 295.980469 106.402344 295.90625 106.582031 295.90625 L 113.664062 295.90625 C 114.019531 295.90625 114.304688 296.191406 114.304688 296.546875 L 114.304688 308.847656 C 114.304688 309.023438 114.234375 309.195312 114.105469 309.316406 C 113.984375 309.425781 113.828125 309.488281 113.664062 309.488281 " fill-opacity="1" fill-rule="nonzero"/><path fill="#ffffff" d="M 106.859375 324.1875 C 109.269531 324.445312 113.210938 324.609375 117.808594 323.820312 C 119.316406 323.558594 120.269531 322.058594 119.855469 320.585938 C 118.703125 316.488281 116.425781 308.847656 114.613281 305.1875 L 113.523438 307.183594 L 112.648438 305.078125 C 112.496094 304.828125 112.238281 304.664062 111.949219 304.636719 L 109.679688 304.425781 C 109.207031 304.378906 108.636719 304.847656 108.554688 305.316406 L 107.058594 307.183594 L 106.199219 304.964844 L 104.582031 321.375 C 104.445312 322.777344 105.457031 324.035156 106.859375 324.1875 " fill-opacity="1" fill-rule="nonzero"/><path fill="#000000" d="M 106.582031 307.609375 L 105.21875 321.441406 C 105.117188 322.492188 105.882812 323.4375 106.925781 323.550781 C 109.367188 323.808594 113.21875 323.960938 117.699219 323.1875 C 118.242188 323.09375 118.722656 322.777344 119.015625 322.3125 C 119.308594 321.84375 119.390625 321.292969 119.238281 320.761719 C 118.386719 317.730469 116.339844 310.710938 114.566406 306.613281 L 114.082031 307.492188 C 113.964844 307.707031 113.726562 307.835938 113.488281 307.824219 C 113.242188 307.808594 113.023438 307.65625 112.929688 307.429688 L 112.078125 305.378906 C 112.035156 305.320312 111.964844 305.28125 111.890625 305.277344 L 109.621094 305.0625 C 109.503906 305.050781 109.214844 305.269531 109.1875 305.425781 C 109.167969 305.53125 109.121094 305.632812 109.054688 305.714844 L 107.558594 307.582031 C 107.417969 307.761719 107.191406 307.851562 106.960938 307.816406 C 106.8125 307.792969 106.679688 307.71875 106.582031 307.609375 Z M 110.972656 325.042969 C 109.335938 325.042969 107.917969 324.945312 106.789062 324.824219 C 105.050781 324.636719 103.773438 323.0625 103.945312 321.3125 L 105.5625 304.902344 C 105.589844 304.605469 105.816406 304.371094 106.109375 304.332031 C 106.402344 304.289062 106.6875 304.457031 106.792969 304.734375 L 107.253906 305.914062 L 107.96875 305.023438 C 108.199219 304.300781 109.007812 303.722656 109.738281 303.789062 L 112.007812 304 C 112.5 304.042969 112.941406 304.324219 113.195312 304.746094 C 113.214844 304.773438 113.226562 304.800781 113.238281 304.832031 L 113.601562 305.703125 L 114.050781 304.882812 C 114.167969 304.671875 114.390625 304.542969 114.625 304.546875 C 114.867188 304.554688 115.082031 304.6875 115.1875 304.902344 C 117.113281 308.792969 119.527344 317.046875 120.472656 320.414062 C 120.71875 321.285156 120.582031 322.226562 120.097656 322.996094 C 119.609375 323.765625 118.816406 324.296875 117.917969 324.453125 C 115.359375 324.890625 113 325.042969 110.972656 325.042969 " fill-opacity="1" fill-rule="nonzero"/><path fill="#000000" d="M 112.582031 322.253906 C 109.109375 322.253906 106.441406 321.597656 106.273438 321.558594 C 105.929688 321.472656 105.722656 321.125 105.808594 320.78125 C 105.894531 320.441406 106.238281 320.230469 106.585938 320.316406 C 106.644531 320.332031 112.53125 321.765625 118.046875 320.316406 C 118.390625 320.230469 118.738281 320.429688 118.828125 320.773438 C 118.917969 321.117188 118.714844 321.46875 118.371094 321.558594 C 116.382812 322.078125 114.375 322.253906 112.582031 322.253906 " fill-opacity="1" fill-rule="nonzero"/><path fill="#000000" d="M 114.613281 315.863281 L 109.210938 315.863281 C 108.859375 315.863281 108.570312 315.578125 108.570312 315.222656 C 108.570312 314.871094 108.859375 314.582031 109.210938 314.582031 L 114.613281 314.582031 C 114.96875 314.582031 115.253906 314.871094 115.253906 315.222656 C 115.253906 315.578125 114.96875 315.863281 114.613281 315.863281 " fill-opacity="1" fill-rule="nonzero"/><path fill="#ffffff" d="M 70.128906 290.039062 L 68.378906 304.867188 L 62.832031 304.675781 L 62.832031 290.039062 L 70.128906 290.039062 " fill-opacity="1" fill-rule="nonzero"/><path fill="#000000" d="M 63.472656 304.058594 L 67.8125 304.207031 L 69.40625 290.679688 L 63.472656 290.679688 Z M 68.378906 305.507812 C 68.371094 305.507812 68.363281 305.507812 68.355469 305.507812 L 62.808594 305.316406 C 62.464844 305.304688 62.191406 305.019531 62.191406 304.675781 L 62.191406 290.039062 C 62.191406 289.683594 62.476562 289.394531 62.832031 289.394531 L 70.128906 289.394531 C 70.3125 289.394531 70.484375 289.476562 70.605469 289.613281 C 70.730469 289.75 70.785156 289.933594 70.765625 290.113281 L 69.015625 304.945312 C 68.976562 305.269531 68.703125 305.507812 68.378906 305.507812 " fill-opacity="1" fill-rule="nonzero"/><path fill="#ffffff" d="M 69.699219 301.328125 C 69.699219 301.328125 70.410156 307.917969 70.191406 310.566406 C 70.035156 312.460938 67.433594 318.1875 65.964844 321.292969 C 65.363281 322.570312 64.210938 323.386719 62.933594 323.445312 C 61.378906 323.511719 59.214844 323.585938 57.46875 323.589844 C 55.066406 323.59375 53.414062 320.863281 54.273438 318.316406 C 55.0625 315.96875 56.320312 313.023438 58.296875 309.890625 C 59.785156 307.527344 61.957031 301.113281 61.957031 301.113281 L 66.480469 301.113281 L 67.367188 304.867188 L 69.699219 301.328125 " fill-opacity="1" fill-rule="nonzero"/><path fill="#000000" d="M 62.414062 301.753906 C 61.894531 303.257812 60.140625 308.167969 58.839844 310.230469 C 57.175781 312.867188 55.84375 315.65625 54.878906 318.523438 C 54.5 319.644531 54.671875 320.867188 55.339844 321.792969 C 55.875 322.539062 56.628906 322.949219 57.464844 322.949219 C 57.464844 322.949219 57.464844 322.949219 57.46875 322.949219 C 59.214844 322.945312 61.390625 322.867188 62.90625 322.804688 C 63.9375 322.757812 64.886719 322.074219 65.386719 321.019531 C 67.925781 315.644531 69.445312 311.816406 69.554688 310.511719 C 69.695312 308.800781 69.429688 305.324219 69.238281 303.195312 L 67.902344 305.21875 C 67.761719 305.433594 67.503906 305.542969 67.253906 305.5 C 67.003906 305.453125 66.800781 305.265625 66.742188 305.015625 L 65.972656 301.753906 Z M 57.464844 324.230469 C 56.222656 324.230469 55.070312 323.617188 54.300781 322.542969 C 53.394531 321.28125 53.15625 319.625 53.664062 318.113281 C 54.664062 315.152344 56.039062 312.265625 57.753906 309.546875 C 59.1875 307.277344 61.332031 300.972656 61.351562 300.910156 C 61.441406 300.648438 61.683594 300.472656 61.957031 300.472656 L 66.480469 300.472656 C 66.777344 300.472656 67.035156 300.679688 67.101562 300.964844 L 67.648438 303.277344 L 69.164062 300.976562 C 69.3125 300.75 69.585938 300.644531 69.847656 300.707031 C 70.113281 300.769531 70.304688 300.992188 70.335938 301.261719 C 70.363281 301.53125 71.054688 307.9375 70.828125 310.621094 C 70.671875 312.503906 68.414062 317.613281 66.542969 321.566406 C 65.839844 323.050781 64.46875 324.015625 62.964844 324.082031 C 61.433594 324.148438 59.238281 324.230469 57.46875 324.230469 C 57.46875 324.230469 57.464844 324.230469 57.464844 324.230469 " fill-opacity="1" fill-rule="nonzero"/><path fill="#000000" d="M 68.140625 313.585938 Z M 60.917969 321.40625 C 60.914062 321.40625 60.914062 321.40625 60.910156 321.40625 L 55.765625 321.402344 C 55.410156 321.402344 55.125 321.113281 55.125 320.761719 C 55.125 320.40625 55.410156 320.121094 55.765625 320.121094 L 60.914062 320.125 C 60.914062 320.125 60.914062 320.125 60.917969 320.125 C 62.464844 320.125 63.878906 319.21875 64.601562 317.761719 C 67.046875 312.824219 67.179688 312.71875 67.332031 312.59375 C 67.605469 312.371094 68.007812 312.414062 68.230469 312.6875 C 68.433594 312.933594 68.421875 313.285156 68.214844 313.515625 C 68.128906 313.652344 67.707031 314.382812 65.75 318.332031 C 64.808594 320.230469 62.957031 321.40625 60.917969 321.40625 " fill-opacity="1" fill-rule="nonzero"/><path fill="#000000" d="M 63.089844 316.046875 L 58.140625 316.046875 C 57.789062 316.046875 57.5 315.761719 57.5 315.40625 C 57.5 315.050781 57.789062 314.765625 58.140625 314.765625 L 63.089844 314.765625 C 63.445312 314.765625 63.730469 315.050781 63.730469 315.40625 C 63.730469 315.761719 63.445312 316.046875 63.089844 316.046875 " fill-opacity="1" fill-rule="nonzero"/><path fill="#000000" d="M 123.175781 173.566406 C 123.175781 173.566406 122.585938 218.832031 120.683594 248.296875 C 118.78125 277.765625 115.027344 300.292969 115.027344 300.292969 C 115.027344 300.292969 108.574219 302.613281 104.335938 301.398438 C 104.335938 301.398438 100.828125 275.550781 100.03125 266.8125 C 99.234375 258.074219 101.347656 253.742188 101.527344 246.589844 C 101.707031 239.441406 98.445312 207.867188 98.445312 207.867188 C 98.445312 207.867188 74.109375 279.242188 71.328125 295.007812 C 71.328125 295.007812 65.433594 296.007812 61.277344 293.734375 C 61.277344 293.734375 61.148438 265.667969 61.738281 261.332031 C 62.832031 253.296875 69.105469 245.386719 70.234375 236.851562 C 71.359375 228.316406 72.015625 206.898438 75.121094 194.050781 C 78.222656 181.203125 84.3125 166.769531 84.3125 166.769531 L 123.175781 173.566406 " fill-opacity="1" fill-rule="nonzero"/><path fill="#ffffff" d="M 81.714844 190.566406 C 81.464844 190.566406 81.222656 190.414062 81.121094 190.167969 C 80.988281 189.84375 81.144531 189.464844 81.472656 189.332031 C 89.277344 186.136719 91.582031 178.507812 91.605469 178.429688 C 91.703125 178.089844 92.058594 177.894531 92.398438 177.996094 C 92.738281 178.09375 92.933594 178.449219 92.835938 178.789062 C 92.738281 179.128906 90.328125 187.089844 81.957031 190.519531 C 81.878906 190.550781 81.796875 190.566406 81.714844 190.566406 " fill-opacity="1" fill-rule="nonzero"/><path fill="#ffffff" d="M 74.367188 211.660156 C 74.339844 211.660156 74.308594 211.65625 74.28125 211.652344 C 73.929688 211.605469 73.683594 211.285156 73.730469 210.9375 C 76.539062 189.351562 84.972656 174.921875 85.054688 174.777344 C 85.234375 174.472656 85.628906 174.371094 85.933594 174.550781 C 86.238281 174.730469 86.339844 175.121094 86.160156 175.429688 C 86.074219 175.570312 77.773438 189.792969 75 211.101562 C 74.957031 211.421875 74.683594 211.660156 74.367188 211.660156 " fill-opacity="1" fill-rule="nonzero"/><path fill="#ffffff" d="M 198.671875 126.265625 L 188.066406 130.675781 L 184.191406 139.007812 C 181.875 140.554688 179.558594 141.808594 177.269531 142.820312 C 177.6875 143.714844 178.101562 144.609375 178.492188 145.511719 C 179.128906 146.976562 179.742188 148.453125 180.351562 149.933594 C 184.988281 145.324219 186.773438 141 186.773438 141 C 193.3125 140.621094 193.476562 135.574219 193.152344 134.265625 C 192.828125 132.960938 193.425781 131.476562 196.433594 129.5 C 199.722656 127.335938 198.671875 126.265625 198.671875 126.265625 " fill-opacity="1" fill-rule="nonzero"/><path fill="#000000" d="M 184.191406 139.007812 L 184.199219 139.007812 Z M 178.125 143.140625 C 178.441406 143.824219 178.769531 144.539062 179.082031 145.257812 C 179.601562 146.449219 180.109375 147.671875 180.574219 148.789062 C 184.570312 144.589844 186.160156 140.796875 186.179688 140.757812 C 186.273438 140.53125 186.488281 140.375 186.734375 140.363281 C 189.027344 140.230469 190.683594 139.488281 191.660156 138.160156 C 192.757812 136.671875 192.65625 134.917969 192.53125 134.421875 C 192.078125 132.585938 193.203125 130.851562 196.082031 128.964844 C 197.226562 128.210938 197.769531 127.625 198.015625 127.234375 L 188.542969 131.171875 L 184.773438 139.277344 C 184.722656 139.382812 184.648438 139.476562 184.550781 139.539062 C 182.472656 140.925781 180.316406 142.132812 178.125 143.140625 Z M 180.351562 150.574219 C 180.308594 150.574219 180.265625 150.570312 180.222656 150.5625 C 180.015625 150.519531 179.839844 150.375 179.757812 150.175781 C 179.207031 148.835938 178.5625 147.28125 177.90625 145.765625 C 177.507812 144.855469 177.085938 143.941406 176.6875 143.09375 C 176.613281 142.9375 176.605469 142.757812 176.667969 142.597656 C 176.726562 142.4375 176.851562 142.304688 177.007812 142.238281 C 179.285156 141.230469 181.53125 140 183.6875 138.574219 L 187.484375 130.40625 C 187.554688 130.261719 187.671875 130.144531 187.820312 130.085938 L 198.425781 125.675781 C 198.667969 125.574219 198.945312 125.632812 199.128906 125.816406 C 199.199219 125.886719 199.535156 126.265625 199.460938 126.9375 C 199.359375 127.890625 198.460938 128.933594 196.785156 130.035156 C 193.6875 132.070312 193.582031 133.335938 193.773438 134.113281 C 194.023438 135.117188 193.941406 137.230469 192.691406 138.921875 C 191.539062 140.488281 189.691406 141.394531 187.199219 141.613281 C 186.660156 142.769531 184.753906 146.457031 180.804688 150.386719 C 180.683594 150.507812 180.519531 150.574219 180.351562 150.574219 " fill-opacity="1" fill-rule="nonzero"/><path fill="#ffffff" d="M 127.601562 123.546875 C 127.601562 123.546875 113.078125 121.46875 98.78125 121.054688 C 98.78125 121.054688 80.851562 167.824219 80.855469 170.984375 C 80.855469 174.136719 88.511719 178.175781 98.78125 175.601562 C 109.054688 173.023438 122.105469 172.769531 129.445312 174.484375 C 140.441406 177.050781 127.601562 123.546875 127.601562 123.546875 " fill-opacity="1" fill-rule="nonzero"/><path fill="#000000" d="M 99.21875 121.707031 C 92.03125 140.46875 81.492188 168.769531 81.492188 170.980469 C 81.492188 171.65625 82.03125 172.460938 82.964844 173.191406 C 85.722656 175.34375 91.636719 176.730469 98.628906 174.980469 C 108.460938 172.515625 121.773438 172.035156 129.59375 173.859375 C 130.371094 174.042969 130.964844 173.890625 131.472656 173.378906 C 136.328125 168.496094 130.039062 136.582031 127.082031 124.121094 C 124.597656 123.78125 111.804688 122.105469 99.21875 121.707031 Z M 92.328125 177.070312 C 87.667969 177.070312 84.121094 175.71875 82.175781 174.199219 C 80.910156 173.214844 80.214844 172.070312 80.214844 170.984375 C 80.210938 167.796875 96.34375 125.625 98.183594 120.824219 C 98.28125 120.570312 98.53125 120.402344 98.800781 120.414062 C 112.96875 120.824219 127.546875 122.894531 127.691406 122.914062 C 127.953125 122.949219 128.164062 123.140625 128.222656 123.398438 C 128.660156 125.210938 138.796875 167.828125 132.378906 174.285156 C 131.566406 175.101562 130.5 175.386719 129.300781 175.109375 C 121.652344 173.320312 108.597656 173.800781 98.9375 176.222656 C 96.554688 176.820312 94.335938 177.070312 92.328125 177.070312 " fill-opacity="1" fill-rule="nonzero"/><path fill="#99b9ff" d="M 181.355469 139.207031 L 188.050781 143.453125 C 188.050781 143.453125 180.988281 159.773438 165.628906 164.757812 C 150.265625 169.746094 135.746094 155.617188 135.746094 155.617188 L 137.066406 185.917969 C 137.066406 185.917969 129.644531 190.316406 129.644531 189.925781 C 129.644531 189.539062 126.398438 122.332031 126.398438 122.332031 C 126.398438 122.332031 132.390625 122.425781 135.0625 126.230469 C 137.734375 130.03125 147.84375 145.746094 159.46875 145.9375 C 171.089844 146.125 181.355469 139.207031 181.355469 139.207031 " fill-opacity="1" fill-rule="nonzero"/><path fill="#000000" d="M 144.429688 136.132812 L 118.03125 133.410156 C 117.144531 133.410156 116.304688 134.152344 116.15625 135.070312 L 109.785156 174.417969 C 109.636719 175.335938 110.234375 176.078125 111.117188 176.078125 L 139.109375 174.703125 C 139.996094 174.703125 140.925781 175.335938 141.074219 174.417969 L 147.449219 135.070312 C 147.597656 134.152344 145.316406 136.132812 144.429688 136.132812 " fill-opacity="1" fill-rule="nonzero"/><path fill="#000000" d="M 118 134.050781 C 117.4375 134.066406 116.886719 134.574219 116.789062 135.171875 L 110.414062 174.519531 C 110.371094 174.789062 110.429688 175.03125 110.574219 175.203125 C 110.703125 175.355469 110.890625 175.4375 111.117188 175.4375 L 139.078125 174.066406 C 139.082031 174.066406 139.085938 174.066406 139.085938 174.066406 C 139.457031 174.066406 139.777344 174.132812 140.0625 174.195312 C 140.179688 174.21875 140.335938 174.253906 140.449219 174.269531 L 146.683594 135.792969 C 146.585938 135.847656 146.492188 135.902344 146.40625 135.949219 C 145.550781 136.445312 144.953125 136.773438 144.429688 136.773438 C 144.40625 136.773438 144.382812 136.769531 144.363281 136.769531 Z M 111.148438 176.714844 C 110.511719 176.714844 109.972656 176.476562 109.597656 176.035156 C 109.210938 175.578125 109.046875 174.953125 109.152344 174.3125 L 115.527344 134.96875 C 115.726562 133.738281 116.824219 132.769531 118.03125 132.769531 C 118.050781 132.769531 118.074219 132.769531 118.097656 132.773438 L 144.449219 135.488281 C 144.695312 135.460938 145.386719 135.0625 145.761719 134.84375 C 146.664062 134.320312 147.253906 133.976562 147.761719 134.328125 C 147.886719 134.410156 148.164062 134.664062 148.082031 135.171875 L 141.707031 174.519531 C 141.644531 174.898438 141.480469 175.179688 141.21875 175.359375 C 140.777344 175.664062 140.25 175.546875 139.789062 175.445312 C 139.558594 175.398438 139.316406 175.34375 139.109375 175.34375 L 111.148438 176.714844 " fill-opacity="1" fill-rule="nonzero"/><path fill="#ffffff" d="M 146.988281 133.410156 L 118.90625 133.410156 C 118.019531 133.410156 117.179688 134.152344 117.03125 135.070312 L 110.65625 174.417969 C 110.507812 175.335938 111.105469 176.078125 111.992188 176.078125 L 140.078125 176.078125 C 140.960938 176.078125 141.800781 175.335938 141.949219 174.417969 L 148.324219 135.070312 C 148.472656 134.152344 147.875 133.410156 146.988281 133.410156 " fill-opacity="1" fill-rule="nonzero"/><path fill="#000000" d="M 118.90625 134.050781 C 118.332031 134.050781 117.761719 134.566406 117.664062 135.171875 L 111.289062 174.519531 C 111.246094 174.789062 111.300781 175.03125 111.449219 175.203125 C 111.578125 175.355469 111.765625 175.4375 111.992188 175.4375 L 140.078125 175.4375 C 140.652344 175.4375 141.21875 174.921875 141.316406 174.3125 L 147.691406 134.96875 C 147.734375 134.699219 147.679688 134.457031 147.535156 134.285156 C 147.402344 134.132812 147.214844 134.050781 146.988281 134.050781 Z M 140.078125 176.71875 L 111.992188 176.71875 C 111.386719 176.71875 110.847656 176.476562 110.472656 176.035156 C 110.085938 175.578125 109.921875 174.953125 110.023438 174.3125 L 116.398438 134.96875 C 116.597656 133.738281 117.699219 132.769531 118.90625 132.769531 L 146.988281 132.769531 C 147.59375 132.769531 148.132812 133.011719 148.507812 133.453125 C 148.894531 133.910156 149.058594 134.535156 148.957031 135.171875 L 142.582031 174.519531 C 142.382812 175.753906 141.28125 176.71875 140.078125 176.71875 " fill-opacity="1" fill-rule="nonzero"/><path fill="#ffffff" d="M 112.65625 151.222656 L 112.960938 154.925781 L 124.207031 152.882812 C 124.207031 152.882812 124.464844 153.257812 124.621094 153.855469 C 124.832031 154.660156 124.855469 155.875 123.824219 157.160156 C 123.335938 157.769531 121.390625 157.789062 121.542969 159 C 121.675781 160.058594 117.277344 160.882812 113.476562 161.589844 C 109.21875 162.378906 109.582031 156.3125 110.636719 153.207031 C 111.457031 150.785156 112.65625 151.222656 112.65625 151.222656 " fill-opacity="1" fill-rule="nonzero"/><path fill="#000000" d="M 112.472656 151.835938 L 112.476562 151.835938 Z M 112.078125 151.988281 C 111.832031 152.179688 111.519531 152.59375 111.242188 153.414062 C 110.4375 155.785156 110.261719 159.144531 111.382812 160.4375 C 111.828125 160.953125 112.476562 161.125 113.359375 160.960938 C 115.792969 160.511719 120.277344 159.675781 120.898438 158.980469 C 120.8125 157.789062 121.957031 157.347656 122.648438 157.082031 C 122.871094 156.992188 123.25 156.847656 123.328125 156.757812 C 124.023438 155.890625 124.25 154.96875 124.003906 154.015625 C 123.960938 153.851562 123.910156 153.714844 123.859375 153.597656 L 113.074219 155.558594 C 112.898438 155.589844 112.714844 155.542969 112.570312 155.433594 C 112.425781 155.324219 112.335938 155.160156 112.320312 154.980469 Z M 112.761719 162.300781 C 111.578125 162.300781 110.84375 161.769531 110.414062 161.273438 C 108.730469 159.332031 109.261719 155.265625 110.027344 153.003906 C 110.425781 151.828125 110.980469 151.0625 111.675781 150.730469 C 112.292969 150.4375 112.785156 150.589844 112.875 150.621094 C 113.109375 150.707031 113.277344 150.921875 113.296875 151.171875 L 113.542969 154.171875 L 124.09375 152.253906 C 124.339844 152.207031 124.589844 152.308594 124.734375 152.515625 C 124.765625 152.5625 125.0625 153.003906 125.242188 153.695312 C 125.484375 154.632812 125.523438 156.0625 124.324219 157.558594 C 124.039062 157.917969 123.566406 158.097656 123.109375 158.273438 C 122.351562 158.566406 122.152344 158.707031 122.179688 158.921875 C 122.367188 160.429688 119.707031 161.085938 113.59375 162.21875 C 113.292969 162.273438 113.015625 162.300781 112.761719 162.300781 " fill-opacity="1" fill-rule="nonzero"/><path fill="#99b9ff" d="M 111.25 161.445312 L 108.996094 158.019531 C 108.996094 158.019531 97.808594 160.285156 92.648438 158.019531 C 83.628906 154.054688 85.335938 140.210938 86.867188 133.320312 C 88.402344 126.429688 91.792969 120.410156 91.792969 120.410156 C 91.792969 120.410156 83.507812 125.089844 77.890625 135.382812 C 72.269531 145.675781 70.441406 168.710938 89.234375 172.871094 C 101.527344 175.59375 111.25 161.445312 111.25 161.445312 " fill-opacity="1" fill-rule="nonzero"/><path fill="#ffffff" d="M 79.621094 168.574219 C 79.476562 168.574219 79.332031 168.523438 79.210938 168.421875 C 73.097656 163.285156 73.488281 152.585938 73.507812 152.132812 C 73.523438 151.777344 73.816406 151.511719 74.175781 151.519531 C 74.527344 151.535156 74.800781 151.832031 74.789062 152.1875 C 74.785156 152.292969 74.40625 162.710938 80.035156 167.445312 C 80.304688 167.667969 80.339844 168.074219 80.113281 168.34375 C 79.988281 168.496094 79.804688 168.574219 79.621094 168.574219 " fill-opacity="1" fill-rule="nonzero"/><path fill="#ffffff" d="M 114.304688 103.769531 C 114.582031 103.933594 114.9375 103.820312 115.0625 103.515625 C 115.644531 102.082031 116.578125 99.308594 118.492188 98.867188 C 120.941406 98.304688 124.910156 97.574219 125.25 99.507812 C 125.550781 101.207031 125.195312 104.140625 126.984375 106.261719 C 127.15625 106.464844 127.007812 106.792969 126.796875 106.953125 L 125.671875 107.902344 C 125.433594 108.082031 125.230469 108.6875 125.203125 108.984375 C 125.113281 109.90625 124.996094 111.867188 124.675781 112.121094 C 124.054688 112.613281 120.957031 112.421875 120.957031 112.421875 L 118.472656 120.96875 C 118.378906 121.292969 118.570312 121.628906 118.894531 121.714844 L 121.851562 122.71875 C 121.851562 122.71875 119.476562 126.046875 112.058594 125.542969 C 107.3125 125.222656 103.84375 121.882812 103.84375 121.882812 C 103.84375 121.882812 113.0625 120.574219 114.308594 109.671875 C 114.335938 109.433594 114.234375 109.195312 114.042969 109.054688 C 113.304688 108.5 111.324219 106.871094 111.671875 105.222656 C 112.039062 103.46875 113.347656 103.203125 114.304688 103.769531 " fill-opacity="1" fill-rule="nonzero"/><path fill="#000000" d="M 105.230469 122.191406 C 106.53125 123.15625 109.054688 124.699219 112.097656 124.90625 C 116.957031 125.234375 119.539062 123.847656 120.648438 122.988281 L 118.707031 122.328125 C 118.394531 122.238281 118.132812 122.035156 117.96875 121.75 C 117.804688 121.460938 117.761719 121.109375 117.855469 120.789062 L 120.339844 112.242188 C 120.425781 111.957031 120.699219 111.765625 120.996094 111.785156 C 122.367188 111.867188 123.808594 111.800781 124.222656 111.644531 C 124.359375 111.246094 124.46875 109.984375 124.519531 109.421875 C 124.535156 109.238281 124.550781 109.066406 124.5625 108.921875 C 124.59375 108.589844 124.824219 107.738281 125.285156 107.390625 L 126.347656 106.496094 C 125.007812 104.777344 124.871094 102.707031 124.753906 101.03125 C 124.71875 100.507812 124.6875 100.015625 124.617188 99.621094 C 124.585938 99.441406 124.5 99.3125 124.335938 99.207031 C 123.574219 98.699219 121.652344 98.796875 118.632812 99.492188 C 117.214844 99.820312 116.339844 102.03125 115.816406 103.351562 L 115.652344 103.761719 C 115.523438 104.074219 115.265625 104.320312 114.945312 104.425781 C 114.621094 104.535156 114.269531 104.496094 113.976562 104.320312 C 113.652344 104.128906 113.304688 104.089844 113.019531 104.214844 C 112.671875 104.367188 112.421875 104.761719 112.296875 105.351562 C 112.117188 106.210938 112.914062 107.40625 114.425781 108.542969 C 114.800781 108.824219 114.996094 109.285156 114.945312 109.746094 C 113.945312 118.488281 107.925781 121.34375 105.230469 122.191406 Z M 113.546875 126.238281 C 113.058594 126.238281 112.550781 126.21875 112.011719 126.1875 C 107.09375 125.851562 103.546875 122.488281 103.398438 122.34375 C 103.222656 122.175781 103.160156 121.917969 103.234375 121.6875 C 103.308594 121.453125 103.511719 121.285156 103.753906 121.25 C 104.109375 121.195312 112.5 119.855469 113.671875 109.601562 C 112.511719 108.707031 110.648438 106.980469 111.042969 105.089844 C 111.253906 104.089844 111.773438 103.363281 112.507812 103.042969 C 113.136719 102.765625 113.863281 102.808594 114.515625 103.15625 L 114.625 102.878906 C 115.28125 101.226562 116.273438 98.722656 118.347656 98.246094 C 121.867188 97.433594 123.929688 97.402344 125.042969 98.136719 C 125.5 98.4375 125.789062 98.875 125.878906 99.398438 C 125.960938 99.859375 125.996094 100.386719 126.035156 100.945312 C 126.140625 102.492188 126.269531 104.417969 127.472656 105.851562 C 127.644531 106.054688 127.722656 106.320312 127.691406 106.59375 C 127.65625 106.925781 127.464844 107.25 127.183594 107.464844 L 126.082031 108.390625 C 125.992188 108.488281 125.855469 108.859375 125.839844 109.046875 C 125.824219 109.1875 125.808594 109.355469 125.796875 109.535156 C 125.621094 111.5625 125.492188 112.292969 125.074219 112.625 C 124.457031 113.113281 122.699219 113.140625 121.429688 113.089844 L 119.085938 121.148438 L 122.058594 122.113281 C 122.25 122.179688 122.398438 122.328125 122.460938 122.523438 C 122.523438 122.714844 122.488281 122.925781 122.371094 123.089844 C 122.273438 123.230469 120.046875 126.238281 113.546875 126.238281 " fill-opacity="1" fill-rule="nonzero"/><path fill="#ffffff" d="M 312.984375 129.839844 L 338.324219 121.023438 C 338.324219 121.023438 348.222656 124.734375 347.296875 137.585938 C 353.738281 139.179688 359.417969 143 360.398438 154.261719 C 347.660156 158.59375 332.441406 164.8125 332.441406 164.8125 L 323.9375 146.898438 L 312.984375 129.839844 " fill-opacity="1" fill-rule="nonzero"/><path fill="#000000" d="M 313.964844 130.175781 L 324.480469 146.550781 C 324.492188 146.574219 324.507812 146.597656 324.519531 146.621094 L 332.765625 163.992188 C 335.59375 162.84375 348.578125 157.625 359.714844 153.8125 C 358.5625 142.46875 352.40625 139.507812 347.140625 138.203125 C 346.839844 138.128906 346.632812 137.84375 346.660156 137.535156 C 347.464844 126.316406 339.675781 122.320312 338.308594 121.707031 Z M 332.445312 165.453125 C 332.207031 165.453125 331.976562 165.316406 331.867188 165.085938 L 323.378906 147.207031 L 312.445312 130.183594 C 312.339844 130.019531 312.316406 129.8125 312.378906 129.628906 C 312.445312 129.441406 312.589844 129.296875 312.777344 129.234375 L 338.121094 120.414062 C 338.261719 120.367188 338.414062 120.367188 338.554688 120.421875 C 338.65625 120.457031 348.609375 124.34375 347.964844 137.09375 C 353.210938 138.492188 359.972656 141.898438 361.039062 154.203125 C 361.0625 154.496094 360.882812 154.769531 360.605469 154.863281 C 348.03125 159.140625 332.839844 165.34375 332.6875 165.40625 C 332.605469 165.4375 332.523438 165.453125 332.445312 165.453125 " fill-opacity="1" fill-rule="nonzero"/><path fill="#5479f5" d="M 312.984375 129.835938 C 312.984375 129.835938 313.734375 132.257812 311.707031 135.917969 C 315.472656 138.09375 320.449219 142.738281 322.710938 149.230469 C 326.558594 153.515625 328.796875 156.238281 328.5 165.363281 C 329.910156 165.011719 332.445312 164.8125 332.445312 164.8125 C 332.445312 164.8125 335.699219 153.746094 324.929688 146.484375 C 324.65625 138.402344 315.59375 131.34375 312.984375 129.835938 " fill-opacity="1" fill-rule="nonzero"/><path fill="#000000" d="M 323.273438 148.898438 C 327.097656 153.164062 329.296875 156.105469 329.160156 164.574219 C 330.152344 164.394531 331.308594 164.273438 331.933594 164.214844 C 332.398438 162.160156 333.777344 153.222656 324.570312 147.019531 C 324.402344 146.902344 324.296875 146.714844 324.289062 146.507812 C 324.058594 139.59375 316.996094 133.394531 313.757812 131.105469 C 313.753906 132.167969 313.519531 133.75 312.558594 135.679688 C 316.394531 138.058594 321.0625 142.667969 323.273438 148.898438 Z M 332.445312 164.8125 Z M 328.5 166.003906 C 328.355469 166.003906 328.210938 165.953125 328.097656 165.859375 C 327.941406 165.734375 327.855469 165.542969 327.859375 165.34375 C 328.152344 156.25 325.796875 153.628906 322.234375 149.660156 C 322.175781 149.597656 322.132812 149.519531 322.105469 149.441406 C 319.925781 143.191406 315.140625 138.644531 311.390625 136.472656 C 311.085938 136.296875 310.976562 135.914062 311.148438 135.609375 C 312.996094 132.269531 312.378906 130.042969 312.371094 130.023438 C 312.300781 129.769531 312.386719 129.496094 312.589844 129.335938 C 312.796875 129.171875 313.082031 129.152344 313.308594 129.28125 C 315.792969 130.722656 325.042969 137.742188 325.554688 146.140625 C 336.269531 153.578125 333.09375 164.882812 333.0625 164.992188 C 332.988281 165.246094 332.761719 165.429688 332.496094 165.453125 C 332.46875 165.453125 329.992188 165.652344 328.65625 165.988281 C 328.601562 166 328.550781 166.003906 328.5 166.003906 " fill-opacity="1" fill-rule="nonzero"/><path fill="#000000" d="M 323.058594 149.632812 C 322.921875 149.632812 322.789062 149.59375 322.675781 149.507812 C 322.390625 149.292969 322.332031 148.894531 322.542969 148.609375 L 324.414062 146.105469 C 324.488281 146.011719 324.582031 145.933594 324.695312 145.894531 L 347.058594 136.988281 C 347.386719 136.855469 347.757812 137.015625 347.890625 137.347656 C 348.023438 137.675781 347.863281 138.046875 347.53125 138.175781 L 325.335938 147.015625 L 323.570312 149.375 C 323.445312 149.542969 323.25 149.632812 323.058594 149.632812 " fill-opacity="1" fill-rule="nonzero"/><path fill="#000000" d="M 355.554688 153.101562 C 355.265625 153.101562 355 152.902344 354.933594 152.601562 C 353.738281 147.359375 351.089844 143.832031 346.832031 141.820312 C 346.511719 141.671875 346.375 141.289062 346.527344 140.96875 C 346.675781 140.648438 347.058594 140.511719 347.378906 140.664062 C 352.011719 142.851562 354.890625 146.664062 356.183594 152.316406 C 356.261719 152.660156 356.042969 153.007812 355.699219 153.085938 C 355.652344 153.097656 355.605469 153.101562 355.554688 153.101562 " fill-opacity="1" fill-rule="nonzero"/><path fill="#000000" d="M 352.015625 154.375 C 351.726562 154.375 351.457031 154.171875 351.394531 153.875 C 350.195312 148.628906 347.546875 145.105469 343.289062 143.089844 C 342.972656 142.941406 342.832031 142.5625 342.984375 142.242188 C 343.136719 141.921875 343.519531 141.785156 343.839844 141.933594 C 348.472656 144.125 351.351562 147.9375 352.640625 153.589844 C 352.71875 153.9375 352.503906 154.277344 352.160156 154.359375 C 352.109375 154.367188 352.066406 154.375 352.015625 154.375 " fill-opacity="1" fill-rule="nonzero"/><path fill="#000000" d="M 332.652344 140.472656 C 332.335938 140.472656 332.0625 140.234375 332.019531 139.910156 C 331.234375 133.742188 327.550781 130.492188 325.425781 129.105469 C 325.128906 128.910156 325.046875 128.515625 325.238281 128.21875 C 325.433594 127.921875 325.828125 127.839844 326.125 128.03125 C 328.4375 129.539062 332.441406 133.070312 333.289062 139.75 C 333.335938 140.097656 333.085938 140.417969 332.738281 140.464844 C 332.710938 140.46875 332.679688 140.472656 332.652344 140.472656 " fill-opacity="1" fill-rule="nonzero"/><path fill="#000000" d="M 329.167969 141.890625 C 328.851562 141.890625 328.574219 141.65625 328.535156 141.332031 C 327.746094 135.164062 324.066406 131.914062 321.9375 130.527344 C 321.640625 130.335938 321.558594 129.9375 321.753906 129.640625 C 321.945312 129.34375 322.34375 129.261719 322.640625 129.453125 C 324.949219 130.964844 328.953125 134.492188 329.804688 141.171875 C 329.847656 141.523438 329.601562 141.84375 329.25 141.886719 C 329.222656 141.890625 329.195312 141.890625 329.167969 141.890625 " fill-opacity="1" fill-rule="nonzero"/><path fill="#ffffff" d="M 318.613281 219.335938 L 188.667969 202.953125 C 185.515625 202.558594 182.960938 199.679688 182.960938 196.535156 L 182.960938 163.46875 C 182.960938 160.316406 185.515625 158.085938 188.667969 158.484375 L 318.613281 174.863281 C 321.761719 175.261719 324.316406 178.136719 324.316406 181.285156 L 324.316406 214.351562 C 324.316406 217.5 321.761719 219.734375 318.613281 219.335938 " fill-opacity="1" fill-rule="nonzero"/><path fill="#000000" d="M 318.695312 218.699219 C 320.039062 218.871094 321.296875 218.507812 322.238281 217.679688 C 323.164062 216.859375 323.675781 215.679688 323.675781 214.351562 L 323.675781 181.285156 C 323.675781 178.453125 321.367188 175.859375 318.53125 175.5 L 188.585938 159.117188 C 187.238281 158.949219 185.980469 159.3125 185.042969 160.140625 C 184.117188 160.957031 183.605469 162.140625 183.605469 163.464844 L 183.605469 196.53125 C 183.605469 199.367188 185.910156 201.960938 188.746094 202.316406 Z M 319.339844 220.023438 C 319.074219 220.023438 318.804688 220.003906 318.53125 219.96875 L 188.585938 203.589844 C 185.132812 203.152344 182.324219 199.988281 182.324219 196.53125 L 182.324219 163.464844 C 182.324219 161.765625 182.988281 160.246094 184.195312 159.179688 C 185.414062 158.105469 187.03125 157.632812 188.746094 157.847656 L 318.695312 174.230469 C 322.144531 174.664062 324.957031 177.828125 324.957031 181.285156 L 324.957031 214.351562 C 324.957031 216.050781 324.289062 217.574219 323.085938 218.640625 C 322.058594 219.542969 320.75 220.023438 319.339844 220.023438 " fill-opacity="1" fill-rule="nonzero"/><path fill="#ffffff" d="M 318.613281 278.886719 L 188.667969 262.507812 C 185.515625 262.109375 182.960938 259.234375 182.960938 256.082031 L 182.960938 223.019531 C 182.960938 219.871094 185.515625 217.640625 188.667969 218.035156 L 318.613281 234.417969 C 321.761719 234.8125 324.316406 237.6875 324.316406 240.839844 L 324.316406 273.902344 C 324.316406 277.050781 321.761719 279.285156 318.613281 278.886719 " fill-opacity="1" fill-rule="nonzero"/><path fill="#000000" d="M 187.941406 218.628906 C 186.84375 218.628906 185.828125 218.996094 185.042969 219.691406 C 184.117188 220.507812 183.605469 221.691406 183.605469 223.019531 L 183.605469 256.082031 C 183.605469 258.917969 185.910156 261.511719 188.746094 261.871094 L 318.695312 278.25 C 320.039062 278.421875 321.296875 278.058594 322.238281 277.230469 C 323.164062 276.414062 323.675781 275.230469 323.675781 273.902344 L 323.675781 240.839844 C 323.675781 238.003906 321.367188 235.410156 318.53125 235.050781 L 188.585938 218.671875 C 188.367188 218.644531 188.15625 218.628906 187.941406 218.628906 Z M 319.339844 279.574219 C 319.074219 279.574219 318.804688 279.554688 318.53125 279.519531 L 188.585938 263.140625 C 185.132812 262.707031 182.324219 259.539062 182.324219 256.082031 L 182.324219 223.019531 C 182.324219 221.316406 182.988281 219.796875 184.195312 218.730469 C 185.414062 217.65625 187.03125 217.183594 188.746094 217.398438 L 318.695312 233.78125 C 322.144531 234.214844 324.957031 237.382812 324.957031 240.839844 L 324.957031 273.902344 C 324.957031 275.601562 324.289062 277.128906 323.085938 278.191406 C 322.058594 279.097656 320.75 279.574219 319.339844 279.574219 " fill-opacity="1" fill-rule="nonzero"/><path fill="#99b9ff" d="M 317.535156 93.398438 C 317.535156 128.683594 288.925781 153.6875 253.636719 149.238281 C 218.347656 144.789062 189.742188 112.574219 189.742188 77.285156 C 189.742188 41.996094 218.347656 16.996094 253.636719 21.445312 C 288.925781 25.894531 317.535156 58.105469 317.535156 93.398438 " fill-opacity="1" fill-rule="nonzero"/><path fill="#d9d9d9" d="M 313.890625 196.503906 C 313.890625 204.863281 307.113281 210.785156 298.753906 209.730469 C 290.394531 208.679688 283.621094 201.046875 283.621094 192.6875 C 283.621094 184.328125 290.394531 178.410156 298.753906 179.464844 C 307.113281 180.515625 313.890625 188.144531 313.890625 196.503906 " fill-opacity="1" fill-rule="nonzero"/><path fill="#000000" d="M 294.804688 187.960938 L 296.902344 200.507812 L 306.546875 193.707031 Z M 296.441406 202.257812 C 296.355469 202.257812 296.273438 202.242188 296.191406 202.207031 C 295.988281 202.125 295.84375 201.945312 295.808594 201.722656 L 293.335938 186.945312 C 293.296875 186.707031 293.390625 186.46875 293.582031 186.324219 C 293.773438 186.183594 294.03125 186.15625 294.246094 186.261719 L 308.085938 193.03125 C 308.289062 193.128906 308.421875 193.328125 308.441406 193.554688 C 308.460938 193.78125 308.355469 194 308.171875 194.128906 L 296.808594 202.140625 C 296.699219 202.222656 296.570312 202.257812 296.441406 202.257812 " fill-opacity="1" fill-rule="nonzero"/><path fill="#ffffff" d="M 296.4375 187.148438 C 296.4375 188.515625 295.332031 189.484375 293.96875 189.3125 C 292.601562 189.140625 291.496094 187.890625 291.496094 186.527344 C 291.496094 185.160156 292.601562 184.195312 293.96875 184.367188 C 295.332031 184.539062 296.4375 185.785156 296.4375 187.148438 " fill-opacity="1" fill-rule="nonzero"/><path fill="#000000" d="M 293.65625 184.988281 C 293.265625 184.988281 292.910156 185.113281 292.632812 185.355469 C 292.3125 185.640625 292.132812 186.058594 292.132812 186.53125 C 292.132812 187.5625 293.007812 188.546875 294.046875 188.675781 C 294.527344 188.738281 294.96875 188.609375 295.296875 188.320312 C 295.621094 188.039062 295.796875 187.621094 295.796875 187.152344 C 295.796875 186.117188 294.921875 185.132812 293.886719 185.003906 C 293.808594 184.992188 293.730469 184.988281 293.65625 184.988281 Z M 294.28125 189.972656 C 294.152344 189.972656 294.019531 189.964844 293.886719 189.945312 C 292.214844 189.738281 290.851562 188.203125 290.851562 186.53125 C 290.851562 185.683594 291.183594 184.925781 291.785156 184.394531 C 292.394531 183.859375 293.195312 183.625 294.046875 183.730469 C 295.71875 183.941406 297.078125 185.476562 297.078125 187.152344 C 297.078125 187.996094 296.75 188.753906 296.144531 189.285156 C 295.632812 189.734375 294.980469 189.972656 294.28125 189.972656 " fill-opacity="1" fill-rule="nonzero"/><path fill="#ffffff" d="M 299.671875 202.027344 C 299.671875 203.8125 298.222656 205.074219 296.4375 204.851562 C 294.652344 204.625 293.207031 202.996094 293.207031 201.210938 C 293.207031 199.429688 294.652344 198.164062 296.4375 198.386719 C 298.222656 198.613281 299.671875 200.242188 299.671875 202.027344 " fill-opacity="1" fill-rule="nonzero"/><path fill="#000000" d="M 296.027344 199.003906 C 295.472656 199.003906 294.964844 199.1875 294.570312 199.535156 C 294.101562 199.941406 293.847656 200.539062 293.847656 201.210938 C 293.847656 202.683594 295.046875 204.027344 296.519531 204.214844 C 297.199219 204.300781 297.835938 204.117188 298.308594 203.703125 C 298.773438 203.292969 299.03125 202.699219 299.03125 202.027344 C 299.03125 200.558594 297.832031 199.207031 296.359375 199.023438 C 296.246094 199.007812 296.136719 199.003906 296.027344 199.003906 Z M 296.851562 205.519531 C 296.6875 205.519531 296.523438 205.507812 296.359375 205.484375 C 294.269531 205.222656 292.566406 203.304688 292.566406 201.210938 C 292.566406 200.167969 292.976562 199.230469 293.722656 198.574219 C 294.472656 197.910156 295.464844 197.621094 296.519531 197.75 C 298.609375 198.015625 300.308594 199.933594 300.308594 202.027344 C 300.308594 203.070312 299.902344 204.007812 299.15625 204.664062 C 298.523438 205.222656 297.71875 205.519531 296.851562 205.519531 " fill-opacity="1" fill-rule="nonzero"/><path fill="#ffffff" d="M 310.273438 193.917969 C 310.273438 195.285156 309.167969 196.25 307.800781 196.078125 C 306.4375 195.910156 305.332031 194.660156 305.332031 193.292969 C 305.332031 191.929688 306.4375 190.960938 307.800781 191.132812 C 309.167969 191.308594 310.273438 192.554688 310.273438 193.917969 " fill-opacity="1" fill-rule="nonzero"/><path fill="#000000" d="M 307.492188 191.753906 C 307.101562 191.753906 306.746094 191.882812 306.472656 192.125 C 306.148438 192.410156 305.972656 192.824219 305.972656 193.296875 C 305.972656 194.328125 306.847656 195.3125 307.882812 195.445312 C 308.363281 195.503906 308.808594 195.378906 309.136719 195.089844 C 309.457031 194.804688 309.636719 194.390625 309.636719 193.917969 C 309.636719 192.886719 308.757812 191.902344 307.722656 191.769531 C 307.648438 191.761719 307.566406 191.753906 307.492188 191.753906 Z M 308.121094 196.738281 C 307.988281 196.738281 307.855469 196.730469 307.722656 196.714844 C 306.050781 196.503906 304.691406 194.972656 304.691406 193.296875 C 304.691406 192.453125 305.019531 191.695312 305.625 191.164062 C 306.234375 190.628906 307.03125 190.390625 307.882812 190.5 C 309.554688 190.710938 310.917969 192.242188 310.917969 193.917969 C 310.917969 194.761719 310.585938 195.519531 309.980469 196.046875 C 309.46875 196.5 308.820312 196.738281 308.121094 196.738281 " fill-opacity="1" fill-rule="nonzero"/><path fill="#000000" d="M 269.761719 184.347656 C 269.738281 184.347656 269.710938 184.34375 269.683594 184.34375 L 197.660156 175.265625 C 197.308594 175.21875 197.058594 174.898438 197.105469 174.546875 C 197.148438 174.195312 197.46875 173.949219 197.820312 173.992188 L 269.839844 183.070312 C 270.191406 183.117188 270.441406 183.4375 270.394531 183.785156 C 270.355469 184.109375 270.078125 184.347656 269.761719 184.347656 " fill-opacity="1" fill-rule="nonzero"/><path fill="#000000" d="M 259.902344 190.339844 C 259.875 190.339844 259.847656 190.339844 259.824219 190.335938 L 250.144531 189.117188 C 249.792969 189.070312 249.546875 188.75 249.589844 188.398438 C 249.632812 188.046875 249.957031 187.800781 250.304688 187.84375 L 259.984375 189.0625 C 260.332031 189.109375 260.582031 189.429688 260.539062 189.78125 C 260.496094 190.101562 260.222656 190.339844 259.902344 190.339844 " fill-opacity="1" fill-rule="nonzero"/><path fill="#000000" d="M 232.46875 186.882812 C 232.441406 186.882812 232.414062 186.878906 232.386719 186.875 L 197.660156 182.5 C 197.308594 182.453125 197.058594 182.132812 197.101562 181.785156 C 197.144531 181.433594 197.46875 181.183594 197.816406 181.226562 L 232.546875 185.605469 C 232.898438 185.648438 233.148438 185.96875 233.101562 186.320312 C 233.0625 186.644531 232.785156 186.882812 232.46875 186.882812 " fill-opacity="1" fill-rule="nonzero"/><path fill="#000000" d="M 245.492188 195.757812 C 245.464844 195.757812 245.4375 195.757812 245.410156 195.753906 L 232.386719 194.113281 C 232.035156 194.066406 231.789062 193.746094 231.832031 193.394531 C 231.878906 193.042969 232.199219 192.796875 232.546875 192.839844 L 245.570312 194.480469 C 245.921875 194.527344 246.171875 194.847656 246.125 195.195312 C 246.085938 195.519531 245.8125 195.757812 245.492188 195.757812 " fill-opacity="1" fill-rule="nonzero"/><path fill="#000000" d="M 217.667969 192.25 C 217.640625 192.25 217.613281 192.25 217.585938 192.246094 L 197.660156 189.734375 C 197.308594 189.6875 197.058594 189.367188 197.101562 189.019531 C 197.144531 188.667969 197.46875 188.417969 197.816406 188.460938 L 217.746094 190.972656 C 218.097656 191.015625 218.34375 191.335938 218.300781 191.6875 C 218.261719 192.011719 217.984375 192.25 217.667969 192.25 " fill-opacity="1" fill-rule="nonzero"/><path fill="#000000" d="M 269.761719 243.898438 C 269.738281 243.898438 269.710938 243.898438 269.683594 243.894531 L 197.660156 234.816406 C 197.308594 234.769531 197.058594 234.449219 197.105469 234.101562 C 197.148438 233.75 197.46875 233.503906 197.820312 233.542969 L 269.839844 242.625 C 270.191406 242.667969 270.441406 242.988281 270.394531 243.339844 C 270.355469 243.664062 270.078125 243.898438 269.761719 243.898438 " fill-opacity="1" fill-rule="nonzero"/><path fill="#000000" d="M 264.386719 250.457031 C 264.359375 250.457031 264.332031 250.457031 264.304688 250.453125 L 258.933594 249.773438 C 258.582031 249.730469 258.332031 249.410156 258.378906 249.058594 C 258.421875 248.707031 258.742188 248.460938 259.09375 248.503906 L 264.464844 249.179688 C 264.816406 249.226562 265.066406 249.546875 265.023438 249.894531 C 264.980469 250.21875 264.703125 250.457031 264.386719 250.457031 " fill-opacity="1" fill-rule="nonzero"/><path fill="#000000" d="M 253.636719 249.101562 C 253.613281 249.101562 253.585938 249.101562 253.558594 249.097656 L 227.335938 245.792969 C 226.984375 245.746094 226.734375 245.425781 226.78125 245.078125 C 226.824219 244.726562 227.144531 244.476562 227.496094 244.519531 L 253.71875 247.824219 C 254.070312 247.871094 254.320312 248.191406 254.273438 248.542969 C 254.230469 248.867188 253.957031 249.101562 253.636719 249.101562 " fill-opacity="1" fill-rule="nonzero"/><path fill="#000000" d="M 207.703125 243.3125 C 207.675781 243.3125 207.648438 243.308594 207.621094 243.308594 L 197.660156 242.050781 C 197.308594 242.007812 197.058594 241.683594 197.101562 241.335938 C 197.144531 240.984375 197.46875 240.738281 197.816406 240.78125 L 207.78125 242.035156 C 208.132812 242.082031 208.382812 242.398438 208.339844 242.75 C 208.296875 243.074219 208.019531 243.3125 207.703125 243.3125 " fill-opacity="1" fill-rule="nonzero"/><path fill="#000000" d="M 255.0625 256.515625 C 255.039062 256.515625 255.011719 256.515625 254.984375 256.511719 L 238.898438 254.484375 C 238.550781 254.4375 238.300781 254.117188 238.34375 253.769531 C 238.386719 253.417969 238.707031 253.167969 239.058594 253.210938 L 255.144531 255.242188 C 255.492188 255.285156 255.742188 255.605469 255.699219 255.957031 C 255.660156 256.28125 255.382812 256.515625 255.0625 256.515625 " fill-opacity="1" fill-rule="nonzero"/><path fill="#000000" d="M 220.511719 252.160156 C 220.484375 252.160156 220.457031 252.15625 220.429688 252.15625 L 197.660156 249.285156 C 197.308594 249.238281 197.058594 248.921875 197.101562 248.570312 C 197.144531 248.21875 197.46875 247.96875 197.816406 248.011719 L 220.59375 250.886719 C 220.941406 250.929688 221.191406 251.25 221.148438 251.601562 C 221.105469 251.925781 220.828125 252.160156 220.511719 252.160156 " fill-opacity="1" fill-rule="nonzero"/><path fill="#d9d9d9" d="M 313.890625 256.058594 C 313.890625 264.414062 307.113281 270.335938 298.753906 269.285156 C 290.394531 268.230469 283.621094 260.601562 283.621094 252.238281 C 283.621094 243.882812 290.394531 237.960938 298.753906 239.015625 C 307.113281 240.066406 313.890625 247.699219 313.890625 256.058594 " fill-opacity="1" fill-rule="nonzero"/><path fill="#ffffff" d="M 301.417969 252.125 L 301.417969 246.195312 L 296.09375 245.523438 L 296.09375 251.453125 C 293.554688 252.179688 291.765625 254.453125 291.765625 257.371094 C 291.765625 261.230469 294.894531 264.757812 298.753906 265.246094 C 302.617188 265.730469 305.746094 262.996094 305.746094 259.132812 C 305.746094 256.214844 303.957031 253.492188 301.417969 252.125 " fill-opacity="1" fill-rule="nonzero"/><path fill="#000000" d="M 296.734375 246.25 L 296.734375 251.453125 C 296.734375 251.738281 296.542969 251.988281 296.269531 252.070312 C 293.921875 252.738281 292.40625 254.820312 292.40625 257.371094 C 292.40625 260.914062 295.289062 264.160156 298.835938 264.609375 C 300.527344 264.820312 302.109375 264.363281 303.292969 263.320312 C 304.464844 262.292969 305.105469 260.804688 305.105469 259.132812 C 305.105469 256.523438 303.539062 253.992188 301.113281 252.6875 C 300.902344 252.574219 300.777344 252.359375 300.777344 252.125 L 300.777344 246.761719 Z M 299.648438 265.941406 C 299.328125 265.941406 299.003906 265.921875 298.671875 265.878906 C 294.511719 265.351562 291.121094 261.539062 291.121094 257.371094 C 291.121094 254.40625 292.808594 251.949219 295.453125 250.988281 L 295.453125 245.523438 C 295.453125 245.339844 295.53125 245.164062 295.667969 245.042969 C 295.808594 244.921875 295.992188 244.867188 296.171875 244.886719 L 301.496094 245.558594 C 301.816406 245.601562 302.054688 245.871094 302.054688 246.195312 L 302.054688 251.75 C 304.699219 253.324219 306.386719 256.183594 306.386719 259.132812 C 306.386719 261.179688 305.589844 263.003906 304.140625 264.28125 C 302.910156 265.367188 301.339844 265.941406 299.648438 265.941406 " fill-opacity="1" fill-rule="nonzero"/><path fill="#ffffff" d="M 302.058594 247.386719 L 295.453125 246.554688 C 294.894531 246.484375 294.445312 245.976562 294.445312 245.417969 L 294.445312 244.734375 C 294.445312 244.175781 294.894531 243.785156 295.453125 243.851562 L 302.058594 244.6875 C 302.617188 244.753906 303.066406 245.265625 303.066406 245.820312 L 303.066406 246.507812 C 303.066406 247.0625 302.617188 247.457031 302.058594 247.386719 " fill-opacity="1" fill-rule="nonzero"/><path fill="#000000" d="M 302.136719 246.75 C 302.222656 246.765625 302.300781 246.746094 302.351562 246.699219 C 302.398438 246.65625 302.425781 246.589844 302.425781 246.507812 L 302.425781 245.824219 C 302.425781 245.585938 302.214844 245.351562 301.976562 245.320312 L 295.371094 244.488281 C 295.285156 244.476562 295.210938 244.496094 295.160156 244.542969 C 295.113281 244.585938 295.085938 244.652344 295.085938 244.734375 L 295.085938 245.417969 C 295.085938 245.652344 295.296875 245.890625 295.53125 245.921875 Z M 302.179688 248.035156 C 302.113281 248.035156 302.046875 248.03125 301.976562 248.023438 L 295.371094 247.191406 C 294.492188 247.078125 293.804688 246.300781 293.804688 245.417969 L 293.804688 244.734375 C 293.804688 244.285156 293.992188 243.867188 294.3125 243.582031 C 294.636719 243.292969 295.082031 243.164062 295.53125 243.21875 L 302.136719 244.050781 C 303.015625 244.164062 303.707031 244.941406 303.707031 245.824219 L 303.707031 246.507812 C 303.707031 246.957031 303.519531 247.375 303.195312 247.660156 C 302.921875 247.902344 302.558594 248.035156 302.179688 248.035156 " fill-opacity="1" fill-rule="nonzero"/><path fill="#ffffff" d="M 293.320312 256.664062 L 304.082031 258.019531 L 293.320312 256.664062 " fill-opacity="1" fill-rule="nonzero"/><path fill="#000000" d="M 304.082031 258.660156 C 304.058594 258.660156 304.03125 258.660156 304.003906 258.65625 L 293.242188 257.300781 C 292.886719 257.253906 292.640625 256.933594 292.683594 256.585938 C 292.730469 256.234375 293.046875 255.984375 293.398438 256.027344 L 304.164062 257.386719 C 304.515625 257.429688 304.761719 257.75 304.71875 258.101562 C 304.679688 258.425781 304.402344 258.660156 304.082031 258.660156 " fill-opacity="1" fill-rule="nonzero"/><path fill="#ffffff" d="M 197.199219 76.738281 L 197.199219 110.042969 C 197.199219 120.070312 213.921875 128.199219 234.554688 128.199219 C 255.183594 128.199219 271.90625 120.070312 271.90625 110.042969 L 271.90625 76.738281 L 197.199219 76.738281 " fill-opacity="1" fill-rule="nonzero"/><path fill="#000000" d="M 197.839844 77.375 L 197.839844 110.042969 C 197.839844 119.703125 214.308594 127.558594 234.554688 127.558594 C 254.796875 127.558594 271.265625 119.703125 271.265625 110.042969 L 271.265625 77.375 Z M 234.554688 128.839844 C 224.480469 128.839844 215 126.929688 207.859375 123.457031 C 200.574219 119.914062 196.558594 115.152344 196.558594 110.042969 L 196.558594 76.738281 C 196.558594 76.382812 196.847656 76.09375 197.199219 76.09375 L 271.90625 76.09375 C 272.261719 76.09375 272.550781 76.382812 272.550781 76.738281 L 272.550781 110.042969 C 272.550781 115.152344 268.535156 119.914062 261.246094 123.457031 C 254.105469 126.929688 244.625 128.839844 234.554688 128.839844 " fill-opacity="1" fill-rule="nonzero"/><path fill="#5479f5" d="M 273.992188 69.300781 L 235.671875 53.085938 C 234.949219 52.828125 234.160156 52.828125 233.4375 53.085938 L 195.117188 69.300781 L 179.863281 69.300781 L 179.863281 73 C 179.863281 73.460938 180.125 73.921875 180.644531 74.105469 L 233.4375 92.914062 C 234.160156 93.171875 234.949219 93.171875 235.671875 92.914062 L 288.464844 74.105469 C 288.984375 73.921875 289.246094 73.460938 289.246094 73 L 289.246094 69.300781 L 273.992188 69.300781 " fill-opacity="1" fill-rule="nonzero"/><path fill="#000000" d="M 180.503906 69.941406 L 180.503906 73 C 180.503906 73.089844 180.53125 73.386719 180.859375 73.503906 L 233.652344 92.3125 C 234.234375 92.523438 234.875 92.523438 235.453125 92.3125 L 288.25 73.503906 C 288.578125 73.386719 288.601562 73.089844 288.601562 73 L 288.601562 69.941406 L 273.992188 69.941406 C 273.90625 69.941406 273.820312 69.925781 273.742188 69.890625 L 235.417969 53.675781 C 234.875 53.484375 234.234375 53.484375 233.652344 53.691406 L 195.367188 69.890625 C 195.289062 69.925781 195.203125 69.941406 195.117188 69.941406 Z M 234.554688 93.75 C 234.101562 93.75 233.652344 93.671875 233.222656 93.519531 L 180.429688 74.710938 C 179.695312 74.449219 179.222656 73.777344 179.222656 73 L 179.222656 69.300781 C 179.222656 68.949219 179.511719 68.660156 179.863281 68.660156 L 194.988281 68.660156 L 233.1875 52.5 C 234.082031 52.179688 235.027344 52.179688 235.886719 52.484375 L 274.117188 68.660156 L 289.246094 68.660156 C 289.597656 68.660156 289.886719 68.949219 289.886719 69.300781 L 289.886719 73 C 289.886719 73.777344 289.414062 74.449219 288.679688 74.710938 L 235.886719 93.519531 C 235.457031 93.671875 235.007812 93.75 234.554688 93.75 " fill-opacity="1" fill-rule="nonzero"/><path fill="#ffffff" d="M 288.464844 68.195312 L 235.671875 49.386719 C 234.949219 49.128906 234.160156 49.128906 233.4375 49.386719 L 180.644531 68.195312 C 179.605469 68.566406 179.605469 70.035156 180.644531 70.40625 L 233.4375 89.214844 C 234.160156 89.472656 234.949219 89.472656 235.671875 89.214844 L 288.464844 70.40625 C 289.503906 70.035156 289.503906 68.566406 288.464844 68.195312 " fill-opacity="1" fill-rule="nonzero"/><path fill="#000000" d="M 234.554688 49.832031 C 234.25 49.832031 233.945312 49.886719 233.652344 49.988281 L 180.859375 68.796875 C 180.53125 68.914062 180.503906 69.210938 180.503906 69.300781 C 180.503906 69.390625 180.53125 69.683594 180.859375 69.800781 L 233.652344 88.613281 C 234.234375 88.816406 234.875 88.816406 235.453125 88.613281 L 288.25 69.800781 C 288.578125 69.683594 288.601562 69.390625 288.601562 69.300781 C 288.601562 69.210938 288.578125 68.914062 288.25 68.796875 L 235.453125 49.988281 C 235.164062 49.886719 234.863281 49.832031 234.554688 49.832031 Z M 234.554688 90.046875 C 234.101562 90.046875 233.652344 89.972656 233.222656 89.820312 L 180.429688 71.007812 C 179.699219 70.746094 179.226562 70.078125 179.226562 69.300781 C 179.226562 68.523438 179.699219 67.851562 180.429688 67.59375 L 233.222656 48.78125 C 234.082031 48.476562 235.027344 48.476562 235.886719 48.78125 L 288.679688 67.59375 C 289.414062 67.851562 289.886719 68.523438 289.886719 69.300781 C 289.886719 70.078125 289.414062 70.746094 288.679688 71.007812 L 235.886719 89.820312 C 235.457031 89.972656 235.007812 90.046875 234.554688 90.046875 " fill-opacity="1" fill-rule="nonzero"/><path fill="#5479f5" d="M 264.523438 96.339844 C 263.480469 96.339844 262.609375 97.148438 262.539062 98.191406 L 260.511719 127.574219 L 268.535156 127.574219 L 266.507812 98.191406 C 266.433594 97.148438 265.570312 96.339844 264.523438 96.339844 " fill-opacity="1" fill-rule="nonzero"/><path fill="#000000" d="M 261.199219 126.933594 L 267.847656 126.933594 L 265.867188 98.234375 C 265.820312 97.53125 265.230469 96.976562 264.523438 96.976562 C 263.816406 96.976562 263.230469 97.53125 263.179688 98.234375 Z M 268.535156 128.214844 L 260.511719 128.214844 C 260.335938 128.214844 260.164062 128.140625 260.042969 128.011719 C 259.925781 127.882812 259.863281 127.707031 259.871094 127.53125 L 261.902344 98.148438 C 261.996094 96.773438 263.148438 95.695312 264.523438 95.695312 C 265.902344 95.695312 267.050781 96.773438 267.148438 98.148438 L 269.175781 127.53125 C 269.183594 127.707031 269.125 127.882812 269.003906 128.011719 C 268.882812 128.140625 268.714844 128.214844 268.535156 128.214844 " fill-opacity="1" fill-rule="nonzero"/><path fill="#000000" d="M 264.523438 96.609375 C 264.167969 96.609375 263.882812 96.324219 263.882812 95.972656 L 263.882812 80.882812 L 234.332031 69.898438 C 234 69.777344 233.832031 69.410156 233.953125 69.078125 C 234.078125 68.746094 234.445312 68.578125 234.777344 68.699219 L 264.746094 79.835938 C 264.996094 79.929688 265.164062 80.167969 265.164062 80.4375 L 265.164062 95.972656 C 265.164062 96.324219 264.875 96.609375 264.523438 96.609375 " fill-opacity="1" fill-rule="nonzero"/><path fill="#99b9ff" d="M 329.171875 56.972656 C 328.910156 56.972656 328.667969 56.8125 328.570312 56.550781 C 328.449219 56.21875 328.621094 55.851562 328.953125 55.730469 L 351.484375 47.476562 C 351.816406 47.359375 352.179688 47.527344 352.304688 47.859375 C 352.425781 48.191406 352.257812 48.558594 351.925781 48.679688 L 329.394531 56.933594 C 329.320312 56.957031 329.246094 56.972656 329.171875 56.972656 " fill-opacity="1" fill-rule="nonzero"/><path fill="#99b9ff" d="M 310.324219 47.964844 C 310.0625 47.964844 309.816406 47.804688 309.722656 47.542969 C 309.601562 47.210938 309.773438 46.84375 310.105469 46.722656 L 319.304688 43.355469 C 319.636719 43.230469 320.003906 43.402344 320.125 43.734375 C 320.246094 44.066406 320.074219 44.433594 319.746094 44.554688 L 310.542969 47.925781 C 310.472656 47.953125 310.394531 47.964844 310.324219 47.964844 " fill-opacity="1" fill-rule="nonzero"/><path fill="#99b9ff" d="M 329.457031 40.957031 C 329.195312 40.957031 328.949219 40.796875 328.855469 40.535156 C 328.734375 40.203125 328.90625 39.835938 329.234375 39.714844 L 363.195312 27.277344 C 363.527344 27.15625 363.894531 27.324219 364.019531 27.660156 C 364.136719 27.992188 363.96875 28.359375 363.636719 28.480469 L 329.675781 40.917969 C 329.601562 40.945312 329.527344 40.957031 329.457031 40.957031 " fill-opacity="1" fill-rule="nonzero"/><path fill="#000000" d="M 32.542969 297.613281 C 32.28125 297.613281 32.039062 297.453125 31.941406 297.195312 C 31.820312 296.863281 31.992188 296.492188 32.324219 296.371094 L 41.660156 292.953125 C 41.988281 292.835938 42.359375 293.003906 42.480469 293.335938 C 42.601562 293.667969 42.429688 294.035156 42.097656 294.15625 L 32.765625 297.574219 C 32.691406 297.601562 32.617188 297.613281 32.542969 297.613281 " fill-opacity="1" fill-rule="nonzero"/><path fill="#000000" d="M 48.96875 291.597656 C 48.707031 291.597656 48.460938 291.4375 48.367188 291.179688 C 48.246094 290.847656 48.417969 290.476562 48.746094 290.355469 L 57.921875 286.996094 C 58.253906 286.875 58.621094 287.046875 58.742188 287.378906 C 58.867188 287.710938 58.695312 288.078125 58.363281 288.199219 L 49.1875 291.5625 C 49.117188 291.585938 49.042969 291.597656 48.96875 291.597656 " fill-opacity="1" fill-rule="nonzero"/><path fill="#99b9ff" d="M 126.398438 263.242188 C 126.136719 263.242188 125.890625 263.078125 125.796875 262.820312 C 125.675781 262.488281 125.847656 262.117188 126.179688 262 L 138.679688 257.421875 C 139.011719 257.300781 139.378906 257.46875 139.5 257.800781 C 139.621094 258.132812 139.453125 258.5 139.117188 258.621094 L 126.621094 263.199219 C 126.546875 263.226562 126.472656 263.242188 126.398438 263.242188 " fill-opacity="1" fill-rule="nonzero"/><path fill="#99b9ff" d="M 143.246094 257.070312 C 142.984375 257.070312 142.742188 256.910156 142.644531 256.648438 C 142.523438 256.316406 142.695312 255.949219 143.027344 255.828125 L 161.375 249.105469 C 161.707031 248.984375 162.074219 249.15625 162.195312 249.488281 C 162.320312 249.820312 162.148438 250.1875 161.816406 250.308594 L 143.46875 257.027344 C 143.394531 257.054688 143.320312 257.070312 143.246094 257.070312 " fill-opacity="1" fill-rule="nonzero"/><path fill="#000000" d="M 22.464844 287.886719 C 22.203125 287.886719 21.960938 287.726562 21.863281 287.464844 C 21.742188 287.136719 21.914062 286.765625 22.246094 286.644531 L 39.578125 280.296875 C 39.910156 280.175781 40.277344 280.34375 40.398438 280.679688 C 40.523438 281.007812 40.351562 281.378906 40.019531 281.5 L 22.6875 287.847656 C 22.613281 287.875 22.539062 287.886719 22.464844 287.886719 " fill-opacity="1" fill-rule="nonzero"/><path fill="#99b9ff" d="M 126.304688 249.855469 C 126.042969 249.855469 125.796875 249.695312 125.703125 249.4375 C 125.582031 249.101562 125.75 248.734375 126.082031 248.613281 L 150.320312 239.734375 C 150.652344 239.613281 151.023438 239.785156 151.144531 240.117188 C 151.265625 240.449219 151.09375 240.816406 150.761719 240.9375 L 126.523438 249.816406 C 126.449219 249.84375 126.375 249.855469 126.304688 249.855469 " fill-opacity="1" fill-rule="nonzero"/><path fill="#99b9ff" d="M 154.957031 239.363281 C 154.695312 239.363281 154.449219 239.199219 154.355469 238.941406 C 154.234375 238.609375 154.402344 238.242188 154.738281 238.121094 L 168.285156 233.15625 C 168.617188 233.035156 168.984375 233.207031 169.109375 233.539062 C 169.226562 233.871094 169.058594 234.238281 168.726562 234.359375 L 155.175781 239.320312 C 155.105469 239.347656 155.03125 239.363281 154.957031 239.363281 " fill-opacity="1" fill-rule="nonzero"/><path fill="#000000" d="M 345.121094 234.328125 C 344.859375 234.328125 344.617188 234.167969 344.519531 233.910156 C 344.398438 233.578125 344.570312 233.207031 344.902344 233.085938 L 363.25 226.367188 C 363.582031 226.246094 363.949219 226.414062 364.070312 226.746094 C 364.195312 227.078125 364.023438 227.449219 363.691406 227.570312 L 345.34375 234.289062 C 345.269531 234.316406 345.195312 234.328125 345.121094 234.328125 " fill-opacity="1" fill-rule="nonzero"/><path fill="#000000" d="M 328.179688 227.117188 C 327.917969 227.117188 327.671875 226.953125 327.578125 226.691406 C 327.457031 226.363281 327.625 225.992188 327.960938 225.875 L 352.199219 216.996094 C 352.53125 216.875 352.898438 217.042969 353.019531 217.375 C 353.140625 217.707031 352.972656 218.074219 352.640625 218.195312 L 328.398438 227.074219 C 328.328125 227.101562 328.25 227.117188 328.179688 227.117188 " fill-opacity="1" fill-rule="nonzero"/><g clip-path="url(#f18af68468)"><path fill="#000000" d="M 356.832031 216.621094 C 356.570312 216.621094 356.324219 216.457031 356.230469 216.199219 C 356.105469 215.867188 356.277344 215.5 356.613281 215.378906 L 370.160156 210.417969 C 370.492188 210.296875 370.859375 210.464844 370.980469 210.796875 C 371.101562 211.128906 370.933594 211.496094 370.597656 211.617188 L 357.050781 216.582031 C 356.976562 216.609375 356.902344 216.621094 356.832031 216.621094 " fill-opacity="1" fill-rule="nonzero"/></g><path fill="#99b9ff" d="M 346.941406 187.289062 C 346.675781 187.289062 346.433594 187.128906 346.339844 186.871094 C 346.214844 186.539062 346.386719 186.167969 346.71875 186.046875 L 356.054688 182.628906 C 356.386719 182.507812 356.753906 182.679688 356.875 183.011719 C 356.996094 183.339844 356.824219 183.710938 356.496094 183.828125 L 347.160156 187.25 C 347.089844 187.277344 347.011719 187.289062 346.941406 187.289062 " fill-opacity="1" fill-rule="nonzero"/><path fill="#99b9ff" d="M 336.859375 177.5625 C 336.597656 177.5625 336.351562 177.402344 336.257812 177.144531 C 336.136719 176.808594 336.308594 176.441406 336.636719 176.320312 L 353.972656 169.972656 C 354.304688 169.851562 354.671875 170.019531 354.792969 170.355469 C 354.917969 170.683594 354.746094 171.054688 354.414062 171.175781 L 337.078125 177.523438 C 337.007812 177.546875 336.933594 177.5625 336.859375 177.5625 " fill-opacity="1" fill-rule="nonzero"/><path fill="#ffffff" d="M 175.183594 312.417969 C 174.925781 312.417969 174.679688 312.257812 174.582031 311.996094 C 174.460938 311.664062 174.632812 311.296875 174.964844 311.175781 L 189.234375 305.949219 C 189.566406 305.828125 189.933594 306 190.054688 306.328125 C 190.175781 306.664062 190.003906 307.03125 189.671875 307.152344 L 175.40625 312.378906 C 175.332031 312.40625 175.257812 312.417969 175.183594 312.417969 " fill-opacity="1" fill-rule="nonzero"/><path fill="#ffffff" d="M 194.417969 305.375 C 194.15625 305.375 193.910156 305.210938 193.816406 304.953125 C 193.695312 304.621094 193.863281 304.253906 194.195312 304.132812 L 215.140625 296.460938 C 215.472656 296.339844 215.839844 296.507812 215.960938 296.839844 C 216.082031 297.175781 215.914062 297.542969 215.582031 297.664062 L 194.636719 305.335938 C 194.5625 305.363281 194.488281 305.375 194.417969 305.375 " fill-opacity="1" fill-rule="nonzero"/><path fill="#ffffff" d="M 175.074219 297.140625 C 174.8125 297.140625 174.570312 296.976562 174.472656 296.71875 C 174.351562 296.386719 174.519531 296.019531 174.855469 295.898438 L 202.523438 285.765625 C 202.859375 285.644531 203.222656 285.8125 203.347656 286.144531 C 203.46875 286.476562 203.296875 286.84375 202.964844 286.964844 L 175.296875 297.101562 C 175.222656 297.125 175.148438 297.140625 175.074219 297.140625 " fill-opacity="1" fill-rule="nonzero"/><path fill="#ffffff" d="M 207.78125 285.160156 C 207.519531 285.160156 207.277344 285 207.183594 284.738281 C 207.058594 284.40625 207.230469 284.039062 207.5625 283.917969 L 223.027344 278.253906 C 223.359375 278.132812 223.726562 278.304688 223.847656 278.636719 C 223.972656 278.96875 223.800781 279.335938 223.46875 279.457031 L 208.003906 285.121094 C 207.929688 285.148438 207.855469 285.160156 207.78125 285.160156 " fill-opacity="1" fill-rule="nonzero"/><path fill="#99b9ff" d="M 234.171875 287.230469 C 237.785156 288.472656 240.386719 296.945312 242.078125 300.21875 C 242.117188 300.296875 242.152344 300.367188 242.191406 300.4375 C 242.660156 301.320312 243.964844 301.140625 244.183594 300.167969 C 245.085938 296.148438 245.464844 292.109375 241.738281 288.925781 C 235.527344 283.613281 234.398438 278.757812 234.738281 273.109375 C 234.953125 269.5 233.585938 266.613281 232.574219 265 C 231.464844 263.234375 230.515625 261.371094 229.703125 259.453125 C 214.761719 224.265625 238.699219 234.253906 240.835938 242.71875 C 242.359375 248.765625 240.046875 252.433594 245.316406 256.652344 C 252.003906 262.003906 252.542969 267.722656 252.394531 270.359375 C 252.242188 272.996094 249.90625 276.914062 255.101562 282.03125 C 260.296875 287.152344 260.449219 293.027344 258.492188 298.976562 C 256.53125 304.925781 260.222656 309.597656 262.253906 312.007812 C 262.257812 312.011719 262.261719 312.015625 262.265625 312.015625 C 262.652344 312.480469 263.378906 312.367188 263.582031 311.800781 C 264.496094 309.296875 266.414062 308.21875 267.75 307.640625 C 269.480469 306.886719 271.363281 303.496094 272.792969 298.75 C 274.222656 294.007812 283.636719 289.714844 287.324219 291.75 C 291.011719 293.78125 293.195312 302.59375 290.183594 307.035156 C 287.175781 311.480469 272.042969 315.621094 272.792969 322.097656 C 273.546875 328.574219 262.40625 332.414062 262.40625 332.414062 C 262.40625 332.414062 261.484375 332.292969 260.542969 331.476562 C 257.617188 333.230469 253.246094 334.945312 250.773438 331.625 C 250.40625 331.132812 250.039062 330.578125 249.671875 329.972656 C 248.648438 329.910156 247.101562 329.339844 244.789062 327.894531 C 236.09375 322.476562 238.351562 317.957031 236.996094 314.113281 C 235.640625 310.273438 229.769531 304.398438 229.769531 304.398438 C 222.089844 292.3125 230.558594 285.984375 234.171875 287.230469 " fill-opacity="1" fill-rule="nonzero"/><path fill="#ffffff" d="M 255.285156 328.113281 C 255.285156 328.113281 255.28125 328.113281 255.277344 328.113281 C 254.921875 328.109375 254.640625 327.816406 254.644531 327.464844 C 255.34375 284.199219 232.734375 245.242188 232.507812 244.855469 C 232.328125 244.550781 232.429688 244.15625 232.734375 243.976562 C 233.039062 243.796875 233.433594 243.898438 233.609375 244.203125 C 233.839844 244.59375 256.628906 283.867188 255.925781 327.484375 C 255.921875 327.832031 255.636719 328.113281 255.285156 328.113281 " fill-opacity="1" fill-rule="nonzero"/><path fill="#ffffff" d="M 264.109375 328.820312 C 264.074219 328.820312 264.035156 328.816406 263.996094 328.8125 C 263.648438 328.75 263.417969 328.417969 263.476562 328.070312 C 266.839844 308.777344 286.503906 296.171875 286.699219 296.046875 C 287 295.859375 287.398438 295.949219 287.582031 296.246094 C 287.773438 296.546875 287.683594 296.941406 287.382812 297.132812 C 287.191406 297.253906 268.003906 309.5625 264.742188 328.289062 C 264.683594 328.601562 264.414062 328.820312 264.109375 328.820312 " fill-opacity="1" fill-rule="nonzero"/><path fill="#ffffff" d="M 250.523438 327.585938 C 250.242188 327.585938 249.984375 327.398438 249.90625 327.113281 C 246.273438 313.96875 235.996094 299.757812 235.894531 299.613281 C 235.683594 299.328125 235.746094 298.929688 236.035156 298.71875 C 236.320312 298.511719 236.71875 298.574219 236.929688 298.859375 C 237.03125 299.003906 247.449219 313.402344 251.140625 326.773438 C 251.234375 327.113281 251.035156 327.46875 250.695312 327.5625 C 250.636719 327.578125 250.582031 327.585938 250.523438 327.585938 " fill-opacity="1" fill-rule="nonzero"/><path fill="#ffffff" d="M 252.957031 301.230469 C 252.785156 301.230469 252.613281 301.164062 252.488281 301.03125 C 249.101562 297.449219 247.070312 292.230469 246.988281 292.011719 C 246.859375 291.683594 247.023438 291.308594 247.355469 291.183594 C 247.6875 291.054688 248.054688 291.222656 248.183594 291.550781 C 248.203125 291.601562 250.207031 296.753906 253.417969 300.148438 C 253.664062 300.40625 253.652344 300.8125 253.394531 301.054688 C 253.273438 301.171875 253.113281 301.230469 252.957031 301.230469 " fill-opacity="1" fill-rule="nonzero"/><path fill="#ffffff" d="M 253.660156 306.878906 C 253.539062 306.878906 253.417969 306.84375 253.3125 306.773438 C 249.03125 304.003906 247.355469 299.292969 247.285156 299.09375 C 247.167969 298.761719 247.34375 298.398438 247.675781 298.28125 C 248.011719 298.164062 248.378906 298.339844 248.496094 298.671875 C 248.507812 298.71875 250.101562 303.171875 254.007812 305.699219 C 254.304688 305.890625 254.390625 306.289062 254.199219 306.585938 C 254.074219 306.773438 253.871094 306.878906 253.660156 306.878906 " fill-opacity="1" fill-rule="nonzero"/><path fill="#ffffff" d="M 247.78125 320.132812 C 247.707031 320.132812 247.632812 320.121094 247.558594 320.09375 C 244.195312 318.863281 239.257812 311.929688 239.050781 311.632812 C 238.84375 311.347656 238.914062 310.945312 239.199219 310.742188 C 239.492188 310.539062 239.890625 310.605469 240.09375 310.894531 C 241.449219 312.8125 245.515625 317.984375 248 318.894531 C 248.332031 319.011719 248.503906 319.382812 248.382812 319.710938 C 248.285156 319.972656 248.039062 320.132812 247.78125 320.132812 " fill-opacity="1" fill-rule="nonzero"/><path fill="#ffffff" d="M 278.222656 304.289062 C 277.902344 304.289062 277.628906 304.050781 277.585938 303.726562 C 276.949219 298.53125 280.140625 294.859375 280.277344 294.703125 C 280.511719 294.441406 280.917969 294.414062 281.179688 294.652344 C 281.445312 294.882812 281.472656 295.289062 281.238281 295.554688 C 281.207031 295.585938 278.292969 298.964844 278.855469 303.570312 C 278.902344 303.921875 278.652344 304.242188 278.300781 304.285156 C 278.273438 304.289062 278.246094 304.289062 278.222656 304.289062 " fill-opacity="1" fill-rule="nonzero"/><path fill="#ffffff" d="M 268.753906 316.585938 C 268.503906 316.585938 268.265625 316.433594 268.160156 316.1875 C 268.027344 315.863281 268.179688 315.488281 268.511719 315.351562 C 273.765625 313.171875 279.375 308.488281 279.429688 308.441406 C 279.703125 308.210938 280.105469 308.246094 280.335938 308.519531 C 280.5625 308.789062 280.527344 309.195312 280.253906 309.417969 C 280.019531 309.617188 274.4375 314.28125 269 316.535156 C 268.921875 316.570312 268.835938 316.585938 268.753906 316.585938 " fill-opacity="1" fill-rule="nonzero"/><path fill="#ffffff" d="M 246.066406 274.390625 C 245.984375 274.390625 245.902344 274.371094 245.820312 274.339844 C 245.496094 274.203125 245.339844 273.828125 245.476562 273.503906 C 247.300781 269.144531 246.058594 263.359375 246.046875 263.304688 C 245.96875 262.960938 246.1875 262.617188 246.535156 262.539062 C 246.878906 262.464844 247.222656 262.683594 247.296875 263.027344 C 247.355469 263.28125 248.636719 269.265625 246.65625 273.996094 C 246.554688 274.242188 246.320312 274.390625 246.066406 274.390625 " fill-opacity="1" fill-rule="nonzero"/><path fill="#ffffff" d="M 243.734375 355.914062 L 268.820312 355.914062 C 271.949219 355.914062 274.488281 353.375 274.488281 350.242188 L 274.488281 327.726562 L 238.070312 327.726562 L 238.070312 350.242188 C 238.070312 353.375 240.605469 355.914062 243.734375 355.914062 " fill-opacity="1" fill-rule="nonzero"/><path fill="#000000" d="M 238.710938 328.367188 L 238.710938 337.703125 C 238.710938 347.390625 246.589844 355.273438 256.277344 355.273438 C 265.964844 355.273438 273.847656 347.390625 273.847656 337.703125 L 273.847656 328.367188 Z M 256.277344 356.554688 C 245.882812 356.554688 237.429688 348.097656 237.429688 337.703125 L 237.429688 327.726562 C 237.429688 327.375 237.714844 327.089844 238.070312 327.089844 L 274.488281 327.089844 C 274.839844 327.089844 275.128906 327.375 275.128906 327.726562 L 275.128906 337.703125 C 275.128906 348.097656 266.671875 356.554688 256.277344 356.554688 " fill-opacity="1" fill-rule="nonzero"/></svg>