<svg xmlns="http://www.w3.org/2000/svg" xmlns:xlink="http://www.w3.org/1999/xlink" width="500" zoomAndPan="magnify" viewBox="0 0 375 374.999991" height="500" preserveAspectRatio="xMidYMid meet" version="1.0"><path fill="#d9d9d9" d="M 157.589844 16.296875 C 150.183594 18.601562 117.335938 29.320312 84.53125 57.761719 C 76.582031 64.652344 44.460938 92.503906 30.738281 129.945312 C 7.378906 193.679688 35.332031 290.640625 115.84375 329.605469 C 209.621094 374.992188 328.078125 319.128906 355.09375 244.367188 C 367.074219 211.207031 367.617188 156.222656 337.429688 119.964844 C 313.136719 90.785156 271.59375 76.917969 273.203125 49.316406 C 273.976562 36.023438 284.015625 32.347656 281.230469 23.976562 C 274.625 4.117188 209.917969 -0.00390625 157.589844 16.296875 " fill-opacity="1" fill-rule="nonzero"/><path fill="#ffffff" d="M 215.769531 69.269531 C 215.769531 69.269531 210.109375 58.511719 195.742188 50.4375 C 194.957031 49.996094 193.050781 53.476562 192.21875 53.058594 C 191.152344 52.515625 190.121094 47.441406 188.976562 46.949219 C 179.347656 42.804688 166.992188 40.464844 151.707031 42.96875 C 151.707031 42.96875 154.339844 47.191406 159.636719 52.320312 C 160.246094 52.914062 164.34375 52.042969 165.027344 52.65625 C 165.679688 53.238281 162.914062 55.304688 163.628906 55.894531 C 174.066406 64.519531 191.402344 73.554688 215.769531 69.269531 " fill-opacity="1" fill-rule="nonzero"/><path fill="#99b9ff" d="M 232.921875 80.542969 C 232.921875 80.542969 230.589844 47.851562 196.105469 29.839844 C 195.25 29.394531 192.890625 32.949219 192 32.523438 C 191.105469 32.097656 189.613281 25.949219 188.683594 25.546875 C 184.234375 23.617188 179.34375 21.945312 173.972656 20.628906 C 173.972656 20.628906 181.46875 68.546875 232.921875 80.542969 " fill-opacity="1" fill-rule="nonzero"/><path fill="#d9d9d9" d="M 225.152344 73.132812 C 224.996094 73.132812 224.84375 73.078125 224.722656 72.964844 C 219.738281 68.175781 215.15625 63.867188 211.101562 60.164062 C 210.851562 59.9375 210.835938 59.546875 211.0625 59.296875 C 211.292969 59.046875 211.683594 59.027344 211.929688 59.257812 C 215.992188 62.96875 220.582031 67.28125 225.574219 72.074219 C 225.820312 72.3125 225.828125 72.699219 225.59375 72.945312 C 225.472656 73.070312 225.308594 73.132812 225.152344 73.132812 " fill-opacity="1" fill-rule="nonzero"/><path fill="#d9d9d9" d="M 203.140625 52.894531 C 203 52.894531 202.859375 52.847656 202.742188 52.75 C 202.601562 52.628906 188.445312 40.457031 184.140625 32.625 C 183.976562 32.328125 184.085938 31.953125 184.382812 31.792969 C 184.679688 31.628906 185.054688 31.734375 185.21875 32.035156 C 189.417969 39.671875 203.402344 51.695312 203.539062 51.8125 C 203.800781 52.035156 203.828125 52.421875 203.609375 52.679688 C 203.488281 52.824219 203.316406 52.894531 203.140625 52.894531 " fill-opacity="1" fill-rule="nonzero"/><path fill="#99b9ff" d="M 206.089844 88.929688 C 206.089844 88.929688 217.109375 56.859375 243.449219 41.890625 C 244.328125 41.386719 246.191406 44.890625 247.105469 44.433594 C 248.277344 43.84375 248.507812 39.304688 249.738281 38.785156 C 254.292969 36.867188 259.25 35.472656 264.613281 34.800781 C 264.613281 34.800781 262.445312 45.386719 254.640625 57.324219 C 254.050781 58.222656 249.242188 57.441406 248.585938 58.351562 C 247.96875 59.214844 251.507812 61.765625 250.828125 62.632812 C 242.042969 73.808594 228.035156 84.984375 206.089844 88.929688 " fill-opacity="1" fill-rule="nonzero"/><path fill="#ffffff" d="M 235.90625 55.28125 C 236.09375 54.210938 231.269531 53.777344 231.417969 52.730469 C 231.5625 51.695312 237.050781 48.816406 237.160156 47.808594 C 239.3125 28.015625 234.929688 13.375 234.929688 13.375 C 228.378906 18.019531 223 23.394531 218.585938 29.191406 C 217.882812 30.117188 220.113281 35.195312 219.453125 36.140625 C 218.738281 37.179688 214.675781 35.195312 214.011719 36.253906 C 204.21875 51.902344 200.902344 68.652344 199.726562 83.210938 C 206.878906 86.800781 214.03125 89.410156 221.128906 91.140625 C 229.828125 78.632812 233.886719 66.890625 235.90625 55.28125 " fill-opacity="1" fill-rule="nonzero"/><path fill="#d9d9d9" d="M 213.433594 82.859375 C 213.390625 82.859375 213.347656 82.855469 213.304688 82.847656 C 212.972656 82.773438 212.761719 82.449219 212.832031 82.117188 C 214.117188 76.125 215.578125 70.089844 217.171875 64.175781 C 217.257812 63.847656 217.597656 63.652344 217.921875 63.742188 C 218.253906 63.828125 218.445312 64.167969 218.359375 64.496094 C 216.769531 70.390625 215.3125 76.40625 214.035156 82.375 C 213.972656 82.664062 213.714844 82.859375 213.433594 82.859375 " fill-opacity="1" fill-rule="nonzero"/><path fill="#d9d9d9" d="M 220.140625 56.542969 C 220.085938 56.542969 220.023438 56.535156 219.96875 56.515625 C 219.640625 56.417969 219.457031 56.078125 219.554688 55.753906 C 222.484375 45.847656 225.898438 35.949219 229.6875 26.332031 L 231.417969 21.9375 C 231.542969 21.621094 231.902344 21.46875 232.214844 21.59375 C 232.53125 21.714844 232.6875 22.074219 232.5625 22.390625 L 230.832031 26.78125 C 227.054688 36.367188 223.652344 46.230469 220.730469 56.101562 C 220.652344 56.367188 220.40625 56.542969 220.140625 56.542969 " fill-opacity="1" fill-rule="nonzero"/><path fill="#5479f7" d="M 209.109375 67.300781 L 117.957031 67.300781 C 113.863281 67.300781 110.550781 70.613281 110.550781 74.707031 L 110.550781 218.023438 C 110.550781 222.113281 113.863281 225.429688 117.957031 225.429688 L 226.367188 225.429688 L 226.367188 84.558594 C 226.367188 75.027344 218.640625 67.300781 209.109375 67.300781 " fill-opacity="1" fill-rule="nonzero"/><path fill="#000000" d="M 117.957031 67.914062 C 114.210938 67.914062 111.164062 70.960938 111.164062 74.707031 L 111.164062 218.023438 C 111.164062 221.765625 114.210938 224.8125 117.957031 224.8125 L 225.753906 224.8125 L 225.753906 84.558594 C 225.753906 75.378906 218.285156 67.914062 209.109375 67.914062 Z M 226.367188 226.042969 L 117.957031 226.042969 C 113.53125 226.042969 109.933594 222.445312 109.933594 218.023438 L 109.933594 74.707031 C 109.933594 70.28125 113.53125 66.683594 117.957031 66.683594 L 209.109375 66.683594 C 218.964844 66.683594 226.980469 74.703125 226.980469 84.558594 L 226.980469 225.429688 C 226.980469 225.765625 226.707031 226.042969 226.367188 226.042969 " fill-opacity="1" fill-rule="nonzero"/><path fill="#5479f7" d="M 334.777344 67.300781 L 243.625 67.300781 C 234.09375 67.300781 226.367188 75.027344 226.367188 84.558594 L 226.367188 225.429688 L 334.777344 225.429688 C 338.871094 225.429688 342.1875 222.113281 342.1875 218.023438 L 342.1875 74.707031 C 342.1875 70.613281 338.871094 67.300781 334.777344 67.300781 " fill-opacity="1" fill-rule="nonzero"/><path fill="#000000" d="M 226.980469 224.8125 L 334.777344 224.8125 C 338.523438 224.8125 341.570312 221.765625 341.570312 218.023438 L 341.570312 74.707031 C 341.570312 70.960938 338.523438 67.914062 334.777344 67.914062 L 243.625 67.914062 C 234.445312 67.914062 226.980469 75.378906 226.980469 84.558594 Z M 334.777344 226.042969 L 226.367188 226.042969 C 226.027344 226.042969 225.753906 225.765625 225.753906 225.429688 L 225.753906 84.558594 C 225.753906 74.703125 233.769531 66.683594 243.625 66.683594 L 334.777344 66.683594 C 339.203125 66.683594 342.800781 70.28125 342.800781 74.707031 L 342.800781 218.023438 C 342.800781 222.445312 339.203125 226.042969 334.777344 226.042969 " fill-opacity="1" fill-rule="nonzero"/><path fill="#99b9ff" d="M 226.367188 218.125 L 118.816406 218.125 L 118.816406 70.746094 L 130.808594 64.023438 L 226.367188 168.746094 L 226.367188 218.125 " fill-opacity="1" fill-rule="nonzero"/><path fill="#000000" d="M 119.429688 217.511719 L 225.753906 217.511719 L 225.753906 168.980469 L 130.683594 64.800781 L 119.429688 71.105469 Z M 226.367188 218.742188 L 118.816406 218.742188 C 118.476562 218.742188 118.203125 218.464844 118.203125 218.125 L 118.203125 70.746094 C 118.203125 70.523438 118.324219 70.316406 118.515625 70.207031 L 130.507812 63.488281 C 130.757812 63.351562 131.070312 63.402344 131.261719 63.609375 L 226.820312 168.332031 C 226.925781 168.445312 226.980469 168.589844 226.980469 168.746094 L 226.980469 218.125 C 226.980469 218.464844 226.707031 218.742188 226.367188 218.742188 " fill-opacity="1" fill-rule="nonzero"/><path fill="#99b9ff" d="M 226.367188 218.125 L 333.917969 218.125 L 333.917969 70.746094 L 321.925781 64.023438 L 226.367188 168.746094 L 226.367188 218.125 " fill-opacity="1" fill-rule="nonzero"/><path fill="#000000" d="M 226.980469 217.511719 L 333.300781 217.511719 L 333.300781 71.105469 L 322.050781 64.800781 L 226.980469 168.980469 Z M 333.917969 218.742188 L 226.367188 218.742188 C 226.027344 218.742188 225.753906 218.464844 225.753906 218.125 L 225.753906 168.746094 C 225.753906 168.589844 225.808594 168.445312 225.914062 168.332031 L 321.472656 63.609375 C 321.664062 63.402344 321.976562 63.351562 322.226562 63.488281 L 334.21875 70.207031 C 334.414062 70.316406 334.53125 70.523438 334.53125 70.746094 L 334.53125 218.125 C 334.53125 218.464844 334.257812 218.742188 333.917969 218.742188 " fill-opacity="1" fill-rule="nonzero"/><path fill="#ffffff" d="M 321.925781 64.023438 L 241.066406 64.023438 C 232.949219 64.023438 226.367188 70.605469 226.367188 78.726562 L 226.367188 218.125 C 226.367188 210.007812 232.949219 203.425781 241.066406 203.425781 L 321.925781 203.425781 L 321.925781 64.023438 " fill-opacity="1" fill-rule="nonzero"/><path fill="#000000" d="M 241.066406 64.640625 C 233.300781 64.640625 226.980469 70.957031 226.980469 78.726562 L 226.980469 212.113281 C 229.320312 206.652344 234.753906 202.8125 241.066406 202.8125 L 321.308594 202.8125 L 321.308594 64.640625 Z M 226.367188 218.742188 C 226.027344 218.742188 225.753906 218.464844 225.753906 218.125 L 225.753906 78.726562 C 225.753906 70.28125 232.621094 63.410156 241.066406 63.410156 L 321.925781 63.410156 C 322.265625 63.410156 322.539062 63.6875 322.539062 64.023438 L 322.539062 203.425781 C 322.539062 203.765625 322.265625 204.042969 321.925781 204.042969 L 241.066406 204.042969 C 233.300781 204.042969 226.980469 210.359375 226.980469 218.125 C 226.980469 218.464844 226.707031 218.742188 226.367188 218.742188 " fill-opacity="1" fill-rule="nonzero"/><path fill="#000000" d="M 305.386719 88.738281 L 248.425781 88.738281 C 248.085938 88.738281 247.8125 88.464844 247.8125 88.125 C 247.8125 87.785156 248.085938 87.511719 248.425781 87.511719 L 305.386719 87.511719 C 305.726562 87.511719 306 87.785156 306 88.125 C 306 88.464844 305.726562 88.738281 305.386719 88.738281 " fill-opacity="1" fill-rule="nonzero"/><path fill="#000000" d="M 305.386719 97.695312 L 248.425781 97.695312 C 248.085938 97.695312 247.8125 97.421875 247.8125 97.085938 C 247.8125 96.746094 248.085938 96.46875 248.425781 96.46875 L 305.386719 96.46875 C 305.726562 96.46875 306 96.746094 306 97.085938 C 306 97.421875 305.726562 97.695312 305.386719 97.695312 " fill-opacity="1" fill-rule="nonzero"/><path fill="#000000" d="M 305.386719 106.65625 L 248.425781 106.65625 C 248.085938 106.65625 247.8125 106.378906 247.8125 106.042969 C 247.8125 105.703125 248.085938 105.425781 248.425781 105.425781 L 305.386719 105.425781 C 305.726562 105.425781 306 105.703125 306 106.042969 C 306 106.378906 305.726562 106.65625 305.386719 106.65625 " fill-opacity="1" fill-rule="nonzero"/><path fill="#000000" d="M 305.386719 124.570312 L 248.425781 124.570312 C 248.085938 124.570312 247.8125 124.296875 247.8125 123.957031 C 247.8125 123.617188 248.085938 123.339844 248.425781 123.339844 L 305.386719 123.339844 C 305.726562 123.339844 306 123.617188 306 123.957031 C 306 124.296875 305.726562 124.570312 305.386719 124.570312 " fill-opacity="1" fill-rule="nonzero"/><path fill="#000000" d="M 305.386719 133.527344 L 248.425781 133.527344 C 248.085938 133.527344 247.8125 133.253906 247.8125 132.914062 C 247.8125 132.574219 248.085938 132.296875 248.425781 132.296875 L 305.386719 132.296875 C 305.726562 132.296875 306 132.574219 306 132.914062 C 306 133.253906 305.726562 133.527344 305.386719 133.527344 " fill-opacity="1" fill-rule="nonzero"/><path fill="#000000" d="M 305.386719 142.484375 L 248.425781 142.484375 C 248.085938 142.484375 247.8125 142.210938 247.8125 141.871094 C 247.8125 141.53125 248.085938 141.257812 248.425781 141.257812 L 305.386719 141.257812 C 305.726562 141.257812 306 141.53125 306 141.871094 C 306 142.210938 305.726562 142.484375 305.386719 142.484375 " fill-opacity="1" fill-rule="nonzero"/><path fill="#000000" d="M 305.386719 160.402344 L 248.425781 160.402344 C 248.085938 160.402344 247.8125 160.125 247.8125 159.785156 C 247.8125 159.449219 248.085938 159.171875 248.425781 159.171875 L 305.386719 159.171875 C 305.726562 159.171875 306 159.449219 306 159.785156 C 306 160.125 305.726562 160.402344 305.386719 160.402344 " fill-opacity="1" fill-rule="nonzero"/><path fill="#000000" d="M 305.386719 169.359375 L 248.425781 169.359375 C 248.085938 169.359375 247.8125 169.082031 247.8125 168.746094 C 247.8125 168.40625 248.085938 168.128906 248.425781 168.128906 L 305.386719 168.128906 C 305.726562 168.128906 306 168.40625 306 168.746094 C 306 169.082031 305.726562 169.359375 305.386719 169.359375 " fill-opacity="1" fill-rule="nonzero"/><path fill="#000000" d="M 305.386719 178.316406 L 248.425781 178.316406 C 248.085938 178.316406 247.8125 178.042969 247.8125 177.703125 C 247.8125 177.363281 248.085938 177.085938 248.425781 177.085938 L 305.386719 177.085938 C 305.726562 177.085938 306 177.363281 306 177.703125 C 306 178.042969 305.726562 178.316406 305.386719 178.316406 " fill-opacity="1" fill-rule="nonzero"/><path fill="#ffffff" d="M 130.808594 64.023438 L 211.667969 64.023438 C 219.785156 64.023438 226.367188 70.605469 226.367188 78.726562 L 226.367188 218.125 C 226.367188 210.007812 219.785156 203.425781 211.667969 203.425781 L 130.808594 203.425781 L 130.808594 64.023438 " fill-opacity="1" fill-rule="nonzero"/><path fill="#000000" d="M 131.421875 202.8125 L 211.667969 202.8125 C 217.980469 202.8125 223.410156 206.652344 225.753906 212.113281 L 225.753906 78.726562 C 225.753906 70.957031 219.433594 64.640625 211.667969 64.640625 L 131.421875 64.640625 Z M 226.367188 218.742188 C 226.027344 218.742188 225.753906 218.464844 225.753906 218.125 C 225.753906 210.359375 219.433594 204.042969 211.667969 204.042969 L 130.808594 204.042969 C 130.46875 204.042969 130.195312 203.765625 130.195312 203.425781 L 130.195312 64.023438 C 130.195312 63.6875 130.46875 63.410156 130.808594 63.410156 L 211.667969 63.410156 C 220.113281 63.410156 226.980469 70.28125 226.980469 78.726562 L 226.980469 218.125 C 226.980469 218.464844 226.707031 218.742188 226.367188 218.742188 " fill-opacity="1" fill-rule="nonzero"/><path fill="#000000" d="M 204.308594 97.695312 L 147.347656 97.695312 C 147.007812 97.695312 146.734375 97.421875 146.734375 97.085938 C 146.734375 96.746094 147.007812 96.46875 147.347656 96.46875 L 204.308594 96.46875 C 204.648438 96.46875 204.921875 96.746094 204.921875 97.085938 C 204.921875 97.421875 204.648438 97.695312 204.308594 97.695312 " fill-opacity="1" fill-rule="nonzero"/><path fill="#000000" d="M 204.308594 106.65625 L 147.347656 106.65625 C 147.007812 106.65625 146.734375 106.378906 146.734375 106.042969 C 146.734375 105.703125 147.007812 105.425781 147.347656 105.425781 L 204.308594 105.425781 C 204.648438 105.425781 204.921875 105.703125 204.921875 106.042969 C 204.921875 106.378906 204.648438 106.65625 204.308594 106.65625 " fill-opacity="1" fill-rule="nonzero"/><path fill="#000000" d="M 204.308594 124.570312 L 147.347656 124.570312 C 147.007812 124.570312 146.734375 124.296875 146.734375 123.957031 C 146.734375 123.617188 147.007812 123.339844 147.347656 123.339844 L 204.308594 123.339844 C 204.648438 123.339844 204.921875 123.617188 204.921875 123.957031 C 204.921875 124.296875 204.648438 124.570312 204.308594 124.570312 " fill-opacity="1" fill-rule="nonzero"/><path fill="#000000" d="M 204.308594 133.527344 L 147.347656 133.527344 C 147.007812 133.527344 146.734375 133.253906 146.734375 132.914062 C 146.734375 132.574219 147.007812 132.296875 147.347656 132.296875 L 204.308594 132.296875 C 204.648438 132.296875 204.921875 132.574219 204.921875 132.914062 C 204.921875 133.253906 204.648438 133.527344 204.308594 133.527344 " fill-opacity="1" fill-rule="nonzero"/><path fill="#000000" d="M 204.308594 142.484375 L 147.347656 142.484375 C 147.007812 142.484375 146.734375 142.210938 146.734375 141.871094 C 146.734375 141.53125 147.007812 141.257812 147.347656 141.257812 L 204.308594 141.257812 C 204.648438 141.257812 204.921875 141.53125 204.921875 141.871094 C 204.921875 142.210938 204.648438 142.484375 204.308594 142.484375 " fill-opacity="1" fill-rule="nonzero"/><path fill="#000000" d="M 204.308594 160.402344 L 147.347656 160.402344 C 147.007812 160.402344 146.734375 160.125 146.734375 159.785156 C 146.734375 159.449219 147.007812 159.171875 147.347656 159.171875 L 204.308594 159.171875 C 204.648438 159.171875 204.921875 159.449219 204.921875 159.785156 C 204.921875 160.125 204.648438 160.402344 204.308594 160.402344 " fill-opacity="1" fill-rule="nonzero"/><path fill="#000000" d="M 204.308594 169.359375 L 147.347656 169.359375 C 147.007812 169.359375 146.734375 169.082031 146.734375 168.746094 C 146.734375 168.40625 147.007812 168.128906 147.347656 168.128906 L 204.308594 168.128906 C 204.648438 168.128906 204.921875 168.40625 204.921875 168.746094 C 204.921875 169.082031 204.648438 169.359375 204.308594 169.359375 " fill-opacity="1" fill-rule="nonzero"/><path fill="#000000" d="M 204.308594 178.316406 L 147.347656 178.316406 C 147.007812 178.316406 146.734375 178.042969 146.734375 177.703125 C 146.734375 177.363281 147.007812 177.085938 147.347656 177.085938 L 204.308594 177.085938 C 204.648438 177.085938 204.921875 177.363281 204.921875 177.703125 C 204.921875 178.042969 204.648438 178.316406 204.308594 178.316406 " fill-opacity="1" fill-rule="nonzero"/><path fill="#000000" d="M 188.742188 64.023438 L 180.398438 64.023438 L 180.398438 62.203125 C 180.398438 59.402344 182.667969 57.136719 185.46875 57.136719 L 188.742188 57.136719 L 188.742188 64.023438 " fill-opacity="1" fill-rule="nonzero"/><path fill="#000000" d="M 181.015625 63.410156 L 188.128906 63.410156 L 188.128906 57.75 L 185.46875 57.75 C 183.011719 57.75 181.015625 59.746094 181.015625 62.203125 Z M 188.742188 64.640625 L 180.398438 64.640625 C 180.058594 64.640625 179.785156 64.363281 179.785156 64.023438 L 179.785156 62.203125 C 179.785156 59.070312 182.332031 56.519531 185.46875 56.519531 L 188.742188 56.519531 C 189.082031 56.519531 189.355469 56.796875 189.355469 57.136719 L 189.355469 64.023438 C 189.355469 64.363281 189.082031 64.640625 188.742188 64.640625 " fill-opacity="1" fill-rule="nonzero"/><path fill="#5479f7" d="M 204.855469 57.136719 L 184.828125 57.136719 C 187.015625 57.136719 188.789062 58.910156 188.789062 61.097656 L 188.789062 90.644531 L 198.246094 81.1875 L 207.703125 90.644531 L 207.703125 59.980469 C 207.703125 58.410156 206.429688 57.136719 204.855469 57.136719 " fill-opacity="1" fill-rule="nonzero"/><path fill="#000000" d="M 187.945312 57.75 C 188.84375 58.585938 189.40625 59.777344 189.40625 61.097656 L 189.40625 89.160156 L 197.8125 80.75 C 198.042969 80.519531 198.449219 80.519531 198.679688 80.75 L 207.085938 89.160156 L 207.085938 59.976562 C 207.085938 58.75 206.085938 57.75 204.855469 57.75 Z M 188.789062 91.253906 C 188.710938 91.253906 188.632812 91.238281 188.554688 91.207031 C 188.328125 91.113281 188.175781 90.890625 188.175781 90.644531 L 188.175781 61.097656 C 188.175781 59.253906 186.675781 57.75 184.828125 57.75 C 184.492188 57.75 184.214844 57.476562 184.214844 57.136719 C 184.214844 56.796875 184.492188 56.519531 184.828125 56.519531 L 204.855469 56.519531 C 206.765625 56.519531 208.316406 58.074219 208.316406 59.976562 L 208.316406 90.644531 C 208.316406 90.890625 208.164062 91.113281 207.9375 91.207031 C 207.707031 91.304688 207.441406 91.25 207.265625 91.078125 L 198.246094 82.054688 L 189.226562 91.078125 C 189.105469 91.195312 188.949219 91.253906 188.789062 91.253906 " fill-opacity="1" fill-rule="nonzero"/><path fill="#5479f7" d="M 208.160156 218.125 L 208.160156 226.808594 C 208.160156 229.28125 210.164062 231.285156 212.636719 231.285156 L 240.203125 231.285156 C 242.671875 231.285156 244.675781 229.28125 244.675781 226.808594 L 244.675781 218.125 L 208.160156 218.125 " fill-opacity="1" fill-rule="nonzero"/><path fill="#000000" d="M 208.773438 218.742188 L 208.773438 226.808594 C 208.773438 228.9375 210.507812 230.667969 212.636719 230.667969 L 240.203125 230.667969 C 242.328125 230.667969 244.0625 228.9375 244.0625 226.808594 L 244.0625 218.742188 Z M 240.203125 231.898438 L 212.636719 231.898438 C 209.828125 231.898438 207.546875 229.613281 207.546875 226.808594 L 207.546875 218.125 C 207.546875 217.785156 207.820312 217.511719 208.160156 217.511719 L 244.675781 217.511719 C 245.015625 217.511719 245.289062 217.785156 245.289062 218.125 L 245.289062 226.808594 C 245.289062 229.613281 243.007812 231.898438 240.203125 231.898438 " fill-opacity="1" fill-rule="nonzero"/><path fill="#5479f7" d="M 306.523438 40.464844 C 295.15625 40.464844 285.9375 49.679688 285.9375 61.050781 L 285.9375 81.632812 L 306.203125 81.632812 C 306.308594 81.632812 306.417969 81.632812 306.523438 81.632812 C 317.894531 81.632812 327.113281 72.417969 327.113281 61.050781 C 327.113281 49.679688 317.894531 40.464844 306.523438 40.464844 " fill-opacity="1" fill-rule="nonzero"/><path fill="#000000" d="M 306.203125 81.015625 C 306.207031 81.015625 306.210938 81.015625 306.210938 81.015625 L 306.523438 81.019531 C 317.535156 81.019531 326.496094 72.0625 326.496094 61.050781 C 326.496094 50.035156 317.535156 41.078125 306.523438 41.078125 C 295.511719 41.078125 286.550781 50.035156 286.550781 61.050781 L 286.550781 81.019531 L 306.132812 81.019531 C 306.15625 81.015625 306.179688 81.015625 306.203125 81.015625 Z M 306.523438 82.25 C 306.441406 82.25 306.355469 82.246094 306.273438 82.246094 L 306.265625 82.246094 C 306.242188 82.246094 306.222656 82.25 306.203125 82.25 L 285.9375 82.25 C 285.597656 82.25 285.324219 81.976562 285.324219 81.632812 L 285.324219 61.050781 C 285.324219 49.359375 294.832031 39.847656 306.523438 39.847656 C 318.214844 39.847656 327.722656 49.359375 327.722656 61.050781 C 327.722656 72.738281 318.214844 82.25 306.523438 82.25 " fill-opacity="1" fill-rule="nonzero"/><path fill="#ffffff" d="M 309.320312 70.171875 L 309.320312 57.4375 L 303.730469 57.4375 L 303.730469 70.171875 C 303.730469 71.03125 303.03125 71.730469 302.171875 71.730469 L 302.171875 73.105469 L 310.875 73.105469 L 310.875 71.730469 C 310.015625 71.730469 309.320312 71.03125 309.320312 70.171875 " fill-opacity="1" fill-rule="nonzero"/><path fill="#ffffff" d="M 309.675781 51.8125 C 309.675781 53.550781 308.261719 54.964844 306.523438 54.964844 C 304.785156 54.964844 303.375 53.550781 303.375 51.8125 C 303.375 50.074219 304.785156 48.664062 306.523438 48.664062 C 308.261719 48.664062 309.675781 50.074219 309.675781 51.8125 " fill-opacity="1" fill-rule="nonzero"/><path fill="#5479f7" d="M 203.167969 114.140625 L 100.410156 114.140625 C 98.3125 114.140625 96.609375 112.4375 96.609375 110.335938 L 96.609375 98.148438 C 96.609375 96.050781 98.3125 94.347656 100.410156 94.347656 L 203.167969 94.347656 C 205.269531 94.347656 206.972656 96.050781 206.972656 98.148438 L 206.972656 110.335938 C 206.972656 112.4375 205.269531 114.140625 203.167969 114.140625 " fill-opacity="1" fill-rule="nonzero"/><path fill="#000000" d="M 100.410156 94.960938 C 98.652344 94.960938 97.222656 96.390625 97.222656 98.148438 L 97.222656 110.335938 C 97.222656 112.09375 98.652344 113.523438 100.410156 113.523438 L 203.167969 113.523438 C 204.929688 113.523438 206.359375 112.09375 206.359375 110.335938 L 206.359375 98.148438 C 206.359375 96.390625 204.929688 94.960938 203.167969 94.960938 Z M 203.167969 114.753906 L 100.410156 114.753906 C 97.976562 114.753906 95.992188 112.773438 95.992188 110.335938 L 95.992188 98.148438 C 95.992188 95.714844 97.976562 93.730469 100.410156 93.730469 L 203.167969 93.730469 C 205.605469 93.730469 207.589844 95.714844 207.589844 98.148438 L 207.589844 110.335938 C 207.589844 112.773438 205.605469 114.753906 203.167969 114.753906 " fill-opacity="1" fill-rule="nonzero"/><path fill="#ffffff" d="M 120.210938 86.871094 C 129.199219 98.921875 126.71875 115.976562 114.667969 124.964844 C 102.617188 133.953125 85.5625 131.472656 76.574219 119.421875 C 67.585938 107.371094 70.066406 90.316406 82.117188 81.328125 C 94.167969 72.339844 111.222656 74.820312 120.210938 86.871094 Z M 80.519531 79.1875 C 67.285156 89.058594 64.5625 107.785156 74.433594 121.019531 C 84.304688 134.253906 103.03125 136.976562 116.265625 127.105469 C 129.496094 117.234375 132.222656 98.507812 122.351562 85.273438 C 112.480469 72.039062 93.75 69.316406 80.519531 79.1875 " fill-opacity="1" fill-rule="nonzero"/><path fill="#000000" d="M 98.335938 76.535156 C 92.644531 76.535156 87.128906 78.355469 82.484375 81.820312 C 70.722656 90.59375 68.292969 107.296875 77.066406 119.054688 C 85.835938 130.8125 102.539062 133.242188 114.300781 124.472656 C 119.996094 120.222656 123.699219 114.011719 124.722656 106.980469 C 125.746094 99.945312 123.96875 92.933594 119.71875 87.238281 C 115.46875 81.542969 109.253906 77.839844 102.222656 76.816406 C 100.921875 76.628906 99.625 76.535156 98.335938 76.535156 Z M 98.425781 130.972656 C 89.929688 130.972656 81.539062 127.105469 76.082031 119.789062 C 66.902344 107.488281 69.445312 90.011719 81.75 80.835938 C 87.707031 76.390625 95.042969 74.53125 102.398438 75.601562 C 109.757812 76.671875 116.257812 80.546875 120.703125 86.503906 C 125.148438 92.464844 127.007812 99.796875 125.9375 107.15625 C 124.867188 114.511719 120.996094 121.011719 115.035156 125.457031 C 110.050781 129.175781 104.214844 130.972656 98.425781 130.972656 Z M 80.886719 79.679688 C 67.945312 89.332031 65.273438 107.710938 74.925781 120.652344 C 84.578125 133.589844 102.957031 136.265625 115.894531 126.613281 C 128.835938 116.960938 131.511719 98.582031 121.859375 85.640625 C 112.207031 72.703125 93.828125 70.027344 80.886719 79.679688 Z M 98.429688 133.640625 C 89.121094 133.640625 79.921875 129.40625 73.941406 121.386719 C 63.882812 107.902344 66.667969 88.753906 80.152344 78.695312 C 93.636719 68.636719 112.785156 71.425781 122.84375 84.90625 C 132.902344 98.390625 130.113281 117.542969 116.632812 127.597656 C 111.167969 131.671875 104.773438 133.640625 98.429688 133.640625 " fill-opacity="1" fill-rule="nonzero"/><path fill="#ffffff" d="M 38.359375 147.972656 C 37.320312 146.578125 37.609375 144.605469 39 143.566406 L 71.300781 119.476562 L 75.0625 124.519531 L 42.765625 148.613281 C 41.371094 149.652344 39.398438 149.363281 38.359375 147.972656 " fill-opacity="1" fill-rule="nonzero"/><path fill="#000000" d="M 38.851562 147.601562 C 39.6875 148.722656 41.277344 148.953125 42.398438 148.121094 L 74.203125 124.394531 L 71.175781 120.335938 L 39.367188 144.0625 C 38.828125 144.464844 38.472656 145.054688 38.375 145.722656 C 38.277344 146.394531 38.449219 147.0625 38.851562 147.601562 Z M 40.886719 149.851562 C 39.738281 149.851562 38.605469 149.328125 37.867188 148.339844 C 37.265625 147.535156 37.015625 146.542969 37.160156 145.546875 C 37.304688 144.554688 37.828125 143.675781 38.632812 143.074219 L 70.933594 118.984375 C 71.0625 118.882812 71.226562 118.839844 71.386719 118.867188 C 71.550781 118.890625 71.695312 118.976562 71.792969 119.105469 L 75.554688 124.152344 C 75.757812 124.425781 75.703125 124.808594 75.429688 125.011719 L 43.132812 149.105469 C 42.457031 149.609375 41.667969 149.851562 40.886719 149.851562 " fill-opacity="1" fill-rule="nonzero"/><path fill="#ffffff" d="M 67.710938 128.8125 L 65.089844 125.296875 C 64.253906 124.179688 64.484375 122.597656 65.601562 121.761719 L 65.855469 121.578125 C 66.972656 120.742188 68.554688 120.972656 69.386719 122.089844 L 72.011719 125.605469 C 72.84375 126.722656 72.617188 128.304688 71.496094 129.140625 L 71.246094 129.328125 C 70.128906 130.164062 68.546875 129.929688 67.710938 128.8125 " fill-opacity="1" fill-rule="nonzero"/><path fill="#000000" d="M 68.203125 128.445312 C 68.835938 129.289062 70.03125 129.464844 70.878906 128.835938 L 71.128906 128.648438 C 71.972656 128.019531 72.148438 126.820312 71.519531 125.972656 L 68.894531 122.457031 C 68.589844 122.046875 68.144531 121.78125 67.640625 121.710938 C 67.132812 121.636719 66.632812 121.761719 66.222656 122.066406 L 65.96875 122.257812 C 65.5625 122.5625 65.296875 123.007812 65.222656 123.511719 C 65.148438 124.015625 65.277344 124.519531 65.582031 124.929688 Z M 69.738281 130.441406 C 68.78125 130.441406 67.835938 130.007812 67.21875 129.183594 L 64.59375 125.664062 C 64.09375 124.992188 63.886719 124.164062 64.007812 123.335938 C 64.125 122.507812 64.5625 121.773438 65.234375 121.273438 L 65.488281 121.082031 C 66.160156 120.582031 66.988281 120.375 67.816406 120.492188 C 68.648438 120.613281 69.378906 121.050781 69.878906 121.722656 L 72.503906 125.238281 C 73.539062 126.625 73.253906 128.597656 71.863281 129.632812 L 71.613281 129.820312 C 71.050781 130.238281 70.390625 130.441406 69.738281 130.441406 " fill-opacity="1" fill-rule="nonzero"/><path fill="#ffffff" d="M 60.261719 134.371094 L 57.640625 130.851562 C 56.804688 129.734375 57.035156 128.152344 58.152344 127.320312 L 58.40625 127.132812 C 59.523438 126.296875 61.105469 126.527344 61.9375 127.648438 L 64.5625 131.164062 C 65.398438 132.28125 65.167969 133.863281 64.050781 134.695312 L 63.796875 134.882812 C 62.679688 135.71875 61.097656 135.488281 60.261719 134.371094 " fill-opacity="1" fill-rule="nonzero"/><path fill="#000000" d="M 59.914062 127.246094 C 59.515625 127.246094 59.117188 127.367188 58.773438 127.625 L 58.523438 127.8125 C 57.675781 128.441406 57.503906 129.640625 58.132812 130.488281 L 60.757812 134.003906 C 61.058594 134.410156 61.507812 134.675781 62.011719 134.75 C 62.515625 134.824219 63.019531 134.699219 63.429688 134.390625 L 63.683594 134.203125 C 64.089844 133.898438 64.355469 133.453125 64.429688 132.945312 C 64.503906 132.441406 64.375 131.9375 64.070312 131.53125 L 61.445312 128.011719 C 61.074219 127.511719 60.496094 127.246094 59.914062 127.246094 Z M 62.292969 136 C 62.140625 136 61.988281 135.988281 61.835938 135.96875 C 61.003906 135.847656 60.273438 135.410156 59.769531 134.738281 L 57.148438 131.21875 C 56.644531 130.546875 56.4375 129.722656 56.558594 128.890625 C 56.679688 128.0625 57.113281 127.328125 57.785156 126.828125 L 58.039062 126.640625 C 59.425781 125.605469 61.398438 125.890625 62.433594 127.277344 L 65.054688 130.796875 C 65.554688 131.46875 65.765625 132.296875 65.644531 133.125 C 65.523438 133.953125 65.089844 134.6875 64.417969 135.1875 L 64.164062 135.375 C 63.617188 135.785156 62.964844 136 62.292969 136 " fill-opacity="1" fill-rule="nonzero"/><path fill="#000000" d="M 119.097656 103.050781 C 118.757812 103.050781 118.484375 102.777344 118.480469 102.441406 C 118.464844 100.414062 118.148438 98.40625 117.542969 96.480469 C 117.441406 96.15625 117.621094 95.8125 117.945312 95.707031 C 118.269531 95.605469 118.613281 95.785156 118.714844 96.109375 C 119.359375 98.152344 119.691406 100.28125 119.710938 102.429688 C 119.714844 102.769531 119.441406 103.046875 119.101562 103.050781 C 119.097656 103.050781 119.097656 103.050781 119.097656 103.050781 " fill-opacity="1" fill-rule="nonzero"/><path fill="#000000" d="M 91.042969 123.140625 C 90.976562 123.140625 90.910156 123.128906 90.839844 123.105469 C 86.75 121.679688 83.214844 119.082031 80.617188 115.597656 C 73.460938 106.007812 75.445312 92.382812 85.035156 85.230469 C 94.625 78.074219 108.25 80.054688 115.402344 89.648438 C 115.605469 89.921875 115.550781 90.304688 115.277344 90.507812 C 115.007812 90.710938 114.621094 90.65625 114.417969 90.382812 C 107.667969 81.335938 94.816406 79.464844 85.769531 86.210938 C 76.722656 92.964844 74.851562 105.816406 81.601562 114.863281 C 84.054688 118.152344 87.390625 120.597656 91.246094 121.945312 C 91.566406 122.058594 91.734375 122.40625 91.625 122.730469 C 91.535156 122.980469 91.296875 123.140625 91.042969 123.140625 " fill-opacity="1" fill-rule="nonzero"/><path fill="#000000" d="M 100.410156 94.960938 C 98.652344 94.960938 97.222656 96.390625 97.222656 98.148438 L 97.222656 110.335938 C 97.222656 112.09375 98.652344 113.523438 100.410156 113.523438 L 128.433594 113.523438 C 130.496094 107.527344 130.777344 101.128906 129.257812 94.960938 Z M 128.871094 114.753906 L 100.410156 114.753906 C 97.976562 114.753906 95.992188 112.773438 95.992188 110.335938 L 95.992188 98.148438 C 95.992188 95.714844 97.976562 93.730469 100.410156 93.730469 L 129.734375 93.730469 C 130.011719 93.730469 130.257812 93.921875 130.328125 94.191406 C 132.078125 100.878906 131.777344 107.847656 129.449219 114.347656 C 129.363281 114.589844 129.128906 114.753906 128.871094 114.753906 " fill-opacity="1" fill-rule="nonzero"/><path fill="#99b9ff" d="M 362.746094 246.714844 L 22.777344 202.167969 L 22.777344 308.605469 L 225.289062 345.945312 L 362.746094 345.945312 L 362.746094 246.714844 " fill-opacity="1" fill-rule="nonzero"/><path fill="#000000" d="M 362.75 247.332031 C 362.722656 247.332031 362.695312 247.332031 362.667969 247.328125 L 22.699219 202.777344 C 22.363281 202.730469 22.125 202.425781 22.167969 202.085938 C 22.214844 201.75 22.523438 201.515625 22.859375 201.558594 L 362.828125 246.109375 C 363.164062 246.152344 363.402344 246.460938 363.355469 246.796875 C 363.316406 247.105469 363.050781 247.332031 362.75 247.332031 " fill-opacity="1" fill-rule="nonzero"/><path fill="#5479f7" d="M 276.253906 245.089844 L 159.917969 228.910156 C 157 228.535156 154.808594 226.054688 154.808594 223.105469 L 153.214844 141.960938 C 153.214844 141.960938 155.863281 140.050781 157.367188 139.316406 C 158.132812 138.945312 159.011719 138.78125 159.929688 138.898438 L 275.921875 153.691406 C 278.839844 154.0625 281.027344 156.546875 281.027344 159.492188 L 281.027344 239.191406 C 281.027344 240.617188 280.378906 241.875 279.371094 242.703125 C 278.441406 243.46875 276.253906 245.089844 276.253906 245.089844 " fill-opacity="1" fill-rule="nonzero"/><path fill="#ffffff" d="M 272.703125 246.167969 L 156.714844 231.375 C 153.792969 231 151.605469 228.515625 151.605469 225.570312 L 151.605469 145.871094 C 151.605469 143.132812 154.011719 141.015625 156.726562 141.363281 L 272.714844 156.152344 C 275.636719 156.527344 277.824219 159.011719 277.824219 161.957031 L 277.824219 241.65625 C 277.824219 244.394531 275.421875 246.511719 272.703125 246.167969 " fill-opacity="1" fill-rule="nonzero"/><path fill="#000000" d="M 151.605469 164.113281 C 151.265625 164.113281 150.992188 163.839844 150.992188 163.5 L 150.992188 145.871094 C 150.992188 144.390625 151.628906 142.980469 152.738281 142 C 153.851562 141.019531 155.332031 140.566406 156.804688 140.753906 L 247.867188 152.363281 C 248.203125 152.410156 248.441406 152.714844 248.398438 153.054688 C 248.355469 153.390625 248.046875 153.625 247.710938 153.585938 L 156.648438 141.972656 C 155.53125 141.828125 154.398438 142.175781 153.554688 142.921875 C 152.703125 143.667969 152.21875 144.742188 152.21875 145.871094 L 152.21875 163.5 C 152.21875 163.839844 151.945312 164.113281 151.605469 164.113281 " fill-opacity="1" fill-rule="nonzero"/><path fill="#d9d9d9" d="M 270.238281 242.882812 L 159.488281 228.757812 C 157.363281 228.488281 155.769531 226.679688 155.769531 224.539062 L 155.769531 147.660156 C 155.769531 145.832031 157.375 144.417969 159.191406 144.648438 L 269.945312 158.773438 C 272.066406 159.042969 273.660156 160.851562 273.660156 162.992188 L 273.660156 239.871094 C 273.660156 241.699219 272.054688 243.113281 270.238281 242.882812 " fill-opacity="1" fill-rule="nonzero"/><path fill="#ffffff" d="M 261.507812 168.3125 C 261.480469 168.3125 261.453125 168.3125 261.429688 168.308594 L 165.113281 156.363281 C 164.773438 156.320312 164.535156 156.015625 164.578125 155.675781 C 164.617188 155.339844 164.925781 155.101562 165.261719 155.140625 L 261.582031 167.089844 C 261.917969 167.132812 262.15625 167.441406 262.117188 167.773438 C 262.078125 168.085938 261.8125 168.3125 261.507812 168.3125 " fill-opacity="1" fill-rule="nonzero"/><path fill="#ffffff" d="M 261.507812 174.289062 C 261.480469 174.289062 261.453125 174.285156 261.429688 174.285156 L 165.113281 162.335938 C 164.773438 162.296875 164.535156 161.988281 164.578125 161.652344 C 164.617188 161.3125 164.925781 161.074219 165.261719 161.117188 L 261.582031 173.0625 C 261.917969 173.105469 262.15625 173.410156 262.117188 173.75 C 262.078125 174.0625 261.8125 174.289062 261.507812 174.289062 " fill-opacity="1" fill-rule="nonzero"/><path fill="#ffffff" d="M 261.507812 179.601562 C 261.480469 179.601562 261.453125 179.601562 261.429688 179.597656 L 165.113281 167.652344 C 164.773438 167.609375 164.535156 167.304688 164.578125 166.964844 C 164.617188 166.628906 164.925781 166.390625 165.261719 166.433594 L 261.582031 178.378906 C 261.917969 178.421875 262.15625 178.726562 262.117188 179.0625 C 262.078125 179.375 261.8125 179.601562 261.507812 179.601562 " fill-opacity="1" fill-rule="nonzero"/><path fill="#ffffff" d="M 261.507812 185.578125 C 261.480469 185.578125 261.453125 185.574219 261.429688 185.574219 L 165.113281 173.625 C 164.773438 173.582031 164.535156 173.277344 164.578125 172.941406 C 164.617188 172.605469 164.925781 172.363281 165.261719 172.40625 L 261.582031 184.351562 C 261.917969 184.394531 262.15625 184.703125 262.117188 185.039062 C 262.078125 185.351562 261.8125 185.578125 261.507812 185.578125 " fill-opacity="1" fill-rule="nonzero"/><path fill="#ffffff" d="M 221.15625 185.746094 C 221.132812 185.746094 221.105469 185.746094 221.082031 185.742188 L 165.113281 178.867188 C 164.773438 178.824219 164.535156 178.519531 164.578125 178.183594 C 164.617188 177.84375 164.921875 177.609375 165.261719 177.648438 L 221.230469 184.523438 C 221.570312 184.566406 221.808594 184.871094 221.769531 185.207031 C 221.730469 185.519531 221.464844 185.746094 221.15625 185.746094 " fill-opacity="1" fill-rule="nonzero"/><path fill="#ffffff" d="M 221.15625 191.722656 C 221.132812 191.722656 221.105469 191.71875 221.082031 191.714844 L 165.113281 184.839844 C 164.773438 184.796875 164.535156 184.492188 164.578125 184.15625 C 164.617188 183.820312 164.921875 183.582031 165.261719 183.621094 L 221.230469 190.496094 C 221.570312 190.539062 221.808594 190.84375 221.769531 191.179688 C 221.730469 191.492188 221.464844 191.722656 221.15625 191.722656 " fill-opacity="1" fill-rule="nonzero"/><path fill="#ffffff" d="M 221.15625 197.035156 C 221.132812 197.035156 221.105469 197.035156 221.082031 197.03125 L 165.113281 190.15625 C 164.773438 190.117188 164.535156 189.808594 164.578125 189.472656 C 164.617188 189.132812 164.921875 188.898438 165.261719 188.9375 L 221.230469 195.8125 C 221.570312 195.855469 221.808594 196.160156 221.769531 196.496094 C 221.730469 196.808594 221.464844 197.035156 221.15625 197.035156 " fill-opacity="1" fill-rule="nonzero"/><path fill="#ffffff" d="M 221.15625 203.011719 C 221.132812 203.011719 221.105469 203.007812 221.082031 203.007812 L 165.113281 196.128906 C 164.773438 196.089844 164.535156 195.78125 164.578125 195.445312 C 164.617188 195.109375 164.921875 194.871094 165.261719 194.910156 L 221.230469 201.785156 C 221.570312 201.828125 221.808594 202.132812 221.769531 202.46875 C 221.730469 202.78125 221.464844 203.011719 221.15625 203.011719 " fill-opacity="1" fill-rule="nonzero"/><path fill="#ffffff" d="M 221.15625 209.03125 C 221.132812 209.03125 221.105469 209.03125 221.082031 209.027344 L 165.113281 202.152344 C 164.773438 202.109375 164.535156 201.804688 164.578125 201.464844 C 164.617188 201.128906 164.921875 200.894531 165.261719 200.929688 L 221.230469 207.808594 C 221.570312 207.847656 221.808594 208.15625 221.769531 208.492188 C 221.730469 208.804688 221.464844 209.03125 221.15625 209.03125 " fill-opacity="1" fill-rule="nonzero"/><path fill="#ffffff" d="M 221.15625 215.003906 C 221.132812 215.003906 221.105469 215.003906 221.082031 215 L 165.113281 208.125 C 164.773438 208.082031 164.535156 207.777344 164.578125 207.441406 C 164.617188 207.101562 164.921875 206.867188 165.261719 206.90625 L 221.230469 213.78125 C 221.570312 213.820312 221.808594 214.128906 221.769531 214.46875 C 221.730469 214.777344 221.464844 215.003906 221.15625 215.003906 " fill-opacity="1" fill-rule="nonzero"/><path fill="#ffffff" d="M 221.15625 220.320312 C 221.132812 220.320312 221.105469 220.320312 221.082031 220.316406 L 165.113281 213.441406 C 164.773438 213.398438 164.535156 213.09375 164.578125 212.753906 C 164.617188 212.417969 164.921875 212.179688 165.261719 212.21875 L 221.230469 219.097656 C 221.570312 219.136719 221.808594 219.445312 221.769531 219.78125 C 221.730469 220.09375 221.464844 220.320312 221.15625 220.320312 " fill-opacity="1" fill-rule="nonzero"/><path fill="#ffffff" d="M 221.15625 226.292969 C 221.132812 226.292969 221.105469 226.292969 221.082031 226.289062 L 165.113281 219.414062 C 164.773438 219.375 164.535156 219.066406 164.578125 218.730469 C 164.617188 218.394531 164.921875 218.15625 165.261719 218.195312 L 221.230469 225.070312 C 221.570312 225.113281 221.808594 225.417969 221.769531 225.753906 C 221.730469 226.066406 221.464844 226.292969 221.15625 226.292969 " fill-opacity="1" fill-rule="nonzero"/><path fill="#5479f7" d="M 205.035156 293.105469 L 85.746094 277.71875 C 84.8125 277.601562 84.285156 276.820312 84.296875 276.039062 C 84.304688 275.5 84.347656 271.699219 84.347656 271.699219 L 147.425781 235.644531 C 150.585938 233.835938 154.671875 233.140625 158.285156 233.601562 L 276.070312 248.796875 C 276.777344 248.886719 277.382812 249.347656 277.664062 250.007812 L 277.855469 250.449219 C 277.855469 250.449219 277.753906 253.613281 277.796875 254.355469 C 277.828125 254.933594 277.566406 255.53125 276.960938 255.875 L 215.46875 291.035156 C 212.308594 292.839844 208.644531 293.566406 205.035156 293.105469 " fill-opacity="1" fill-rule="nonzero"/><path fill="#ffffff" d="M 205.035156 288.878906 L 86.171875 273.523438 C 84.59375 273.320312 84.179688 271.230469 85.558594 270.441406 L 146.722656 235.507812 C 149.882812 233.703125 153.546875 232.976562 157.15625 233.441406 L 276.019531 248.792969 C 277.597656 248.996094 278.011719 251.089844 276.632812 251.878906 L 215.46875 286.808594 C 212.308594 288.613281 208.644531 289.339844 205.035156 288.878906 " fill-opacity="1" fill-rule="nonzero"/><path fill="#d9d9d9" d="M 228.308594 269.488281 L 125.238281 256.078125 C 123.8125 255.894531 123.4375 254.003906 124.683594 253.292969 L 148.917969 239.589844 C 151.773438 237.960938 155.082031 237.300781 158.34375 237.71875 L 261.414062 251.132812 C 262.839844 251.316406 263.210938 253.203125 261.964844 253.917969 L 237.730469 267.621094 C 234.875 269.25 231.570312 269.90625 228.308594 269.488281 " fill-opacity="1" fill-rule="nonzero"/><path fill="#000000" d="M 207.136719 289.625 C 206.40625 289.625 205.683594 289.582031 204.957031 289.488281 L 180.269531 286.296875 C 179.929688 286.253906 179.691406 285.945312 179.734375 285.609375 C 179.777344 285.273438 180.085938 285.035156 180.425781 285.078125 L 205.117188 288.269531 C 208.570312 288.710938 212.140625 288.003906 215.164062 286.277344 L 254.695312 263.691406 C 254.988281 263.523438 255.363281 263.625 255.53125 263.917969 C 255.703125 264.214844 255.597656 264.589844 255.304688 264.757812 L 215.773438 287.34375 C 213.152344 288.839844 210.148438 289.625 207.136719 289.625 " fill-opacity="1" fill-rule="nonzero"/><path fill="#000000" d="M 217.273438 241.945312 C 217.242188 241.945312 217.21875 241.941406 217.191406 241.9375 L 157.074219 234.046875 C 153.621094 233.605469 150.050781 234.3125 147.027344 236.042969 L 143.578125 238.007812 C 143.285156 238.179688 142.910156 238.078125 142.742188 237.78125 C 142.574219 237.488281 142.675781 237.109375 142.96875 236.945312 L 146.417969 234.976562 C 149.671875 233.113281 153.515625 232.355469 157.234375 232.828125 L 217.351562 240.71875 C 217.6875 240.761719 217.921875 241.074219 217.878906 241.410156 C 217.839844 241.71875 217.574219 241.945312 217.273438 241.945312 " fill-opacity="1" fill-rule="nonzero"/><path fill="#ffffff" d="M 261.183594 296.359375 L 269.503906 307.28125 C 269.585938 307.421875 269.65625 307.625 269.945312 307.613281 C 276.367188 307.273438 332.238281 300.769531 358.222656 298.675781 C 358.351562 298.664062 358.332031 298.582031 358.214844 298.503906 L 354.609375 296.097656 L 261.183594 296.359375 " fill-opacity="1" fill-rule="nonzero"/><path fill="#000000" d="M 357.878906 299.019531 C 357.878906 299.019531 357.882812 299.023438 357.882812 299.023438 Z M 269.914062 308.226562 C 269.316406 308.226562 269.074219 307.777344 268.992188 307.625 L 268.988281 307.617188 L 260.695312 296.730469 C 260.488281 296.464844 260.542969 296.078125 260.8125 295.871094 C 261.078125 295.664062 261.464844 295.71875 261.671875 295.988281 L 269.992188 306.910156 C 270.007812 306.929688 270.023438 306.953125 270.035156 306.976562 L 270.042969 306.988281 C 272.914062 306.820312 283.902344 305.636719 297.753906 304.148438 C 317.234375 302.054688 341.316406 299.464844 356.636719 298.1875 L 354.269531 296.609375 C 353.988281 296.421875 353.914062 296.039062 354.101562 295.757812 C 354.289062 295.472656 354.671875 295.398438 354.953125 295.585938 L 358.558594 297.996094 C 358.902344 298.214844 358.964844 298.546875 358.90625 298.777344 C 358.835938 299.0625 358.585938 299.261719 358.273438 299.289062 C 343.082031 300.511719 318.023438 303.207031 297.886719 305.371094 C 283.792969 306.886719 272.660156 308.082031 269.976562 308.222656 C 269.957031 308.226562 269.933594 308.226562 269.914062 308.226562 " fill-opacity="1" fill-rule="nonzero"/><path fill="#ffffff" d="M 356.046875 296.027344 C 354.242188 295.191406 334.058594 283.28125 317.621094 272.539062 C 315.925781 272.820312 281.230469 275.28125 245.863281 277.644531 L 264.664062 303.824219 C 264.664062 303.824219 306.355469 300.050781 356.09375 296.238281 C 356.261719 296.222656 356.234375 296.117188 356.046875 296.027344 " fill-opacity="1" fill-rule="nonzero"/><path fill="#000000" d="M 355.785156 296.585938 C 355.789062 296.585938 355.789062 296.585938 355.789062 296.589844 L 356.046875 296.027344 Z M 247.007812 278.179688 L 264.957031 303.183594 C 269.050781 302.8125 308.242188 299.300781 354.265625 295.761719 C 349.011719 292.800781 332.101562 282.730469 317.472656 273.175781 C 313.992188 273.566406 282.019531 275.839844 247.007812 278.179688 Z M 264.664062 304.441406 C 264.464844 304.441406 264.277344 304.347656 264.164062 304.183594 L 245.367188 278 C 245.234375 277.820312 245.214844 277.582031 245.308594 277.382812 C 245.402344 277.179688 245.601562 277.046875 245.824219 277.03125 C 281.722656 274.632812 315.894531 272.203125 317.519531 271.933594 C 317.671875 271.90625 317.828125 271.941406 317.957031 272.023438 C 334.386719 282.761719 354.632812 294.695312 356.304688 295.46875 C 356.75 295.679688 356.855469 296.03125 356.808594 296.289062 C 356.765625 296.527344 356.566406 296.816406 356.140625 296.851562 C 306.972656 300.617188 265.132812 304.398438 264.714844 304.4375 C 264.699219 304.441406 264.679688 304.441406 264.664062 304.441406 " fill-opacity="1" fill-rule="nonzero"/><path fill="#000000" d="M 296.164062 297.230469 C 296.003906 297.230469 295.839844 297.167969 295.722656 297.042969 C 295.605469 296.925781 284.199219 285.117188 278.722656 279.371094 C 278.488281 279.125 278.5 278.738281 278.742188 278.503906 C 278.992188 278.269531 279.378906 278.277344 279.613281 278.523438 C 285.085938 284.265625 296.492188 296.070312 296.605469 296.191406 C 296.839844 296.433594 296.835938 296.824219 296.589844 297.058594 C 296.472656 297.175781 296.316406 297.230469 296.164062 297.230469 " fill-opacity="1" fill-rule="nonzero"/><path fill="#000000" d="M 283.777344 291.738281 C 283.621094 291.738281 283.464844 291.675781 283.34375 291.558594 C 280.855469 289.066406 278.421875 286.414062 276.273438 284.074219 C 274.8125 282.488281 273.4375 280.984375 272.292969 279.816406 C 272.058594 279.570312 272.0625 279.183594 272.304688 278.945312 C 272.550781 278.707031 272.9375 278.714844 273.175781 278.957031 C 274.328125 280.140625 275.710938 281.648438 277.175781 283.242188 C 279.316406 285.574219 281.742188 288.214844 284.210938 290.6875 C 284.453125 290.925781 284.453125 291.316406 284.210938 291.558594 C 284.09375 291.675781 283.9375 291.738281 283.777344 291.738281 " fill-opacity="1" fill-rule="nonzero"/><path fill="#000000" d="M 289.824219 298.078125 C 289.65625 298.078125 289.496094 298.015625 289.375 297.882812 C 289.375 297.882812 287.960938 296.367188 285.765625 293.984375 C 285.535156 293.734375 285.550781 293.347656 285.800781 293.117188 C 286.050781 292.886719 286.4375 292.902344 286.667969 293.152344 C 288.863281 295.53125 290.273438 297.042969 290.273438 297.046875 C 290.503906 297.292969 290.488281 297.683594 290.242188 297.914062 C 290.125 298.023438 289.972656 298.078125 289.824219 298.078125 " fill-opacity="1" fill-rule="nonzero"/><path fill="#000000" d="M 282.78125 298.40625 C 282.617188 298.40625 282.453125 298.339844 282.332031 298.210938 C 282.222656 298.097656 271.441406 286.628906 266.457031 280.640625 C 266.242188 280.378906 266.277344 279.992188 266.539062 279.773438 C 266.800781 279.558594 267.1875 279.59375 267.402344 279.851562 C 272.363281 285.8125 283.121094 297.253906 283.230469 297.367188 C 283.460938 297.617188 283.449219 298.007812 283.203125 298.238281 C 283.085938 298.347656 282.933594 298.40625 282.78125 298.40625 " fill-opacity="1" fill-rule="nonzero"/><path fill="#000000" d="M 332.621094 292.953125 C 332.492188 292.953125 332.363281 292.914062 332.253906 292.828125 L 311.601562 277.300781 C 311.332031 277.097656 311.277344 276.710938 311.480469 276.441406 C 311.683594 276.167969 312.070312 276.113281 312.339844 276.316406 L 332.992188 291.847656 C 333.261719 292.050781 333.316406 292.433594 333.113281 292.707031 C 332.992188 292.867188 332.808594 292.953125 332.621094 292.953125 " fill-opacity="1" fill-rule="nonzero"/><path fill="#000000" d="M 324.3125 294.226562 C 324.171875 294.226562 324.035156 294.179688 323.921875 294.085938 L 304.136719 277.730469 C 303.875 277.515625 303.839844 277.125 304.054688 276.867188 C 304.273438 276.605469 304.65625 276.566406 304.917969 276.785156 L 324.703125 293.136719 C 324.964844 293.355469 325 293.742188 324.785156 294.003906 C 324.664062 294.148438 324.488281 294.226562 324.3125 294.226562 " fill-opacity="1" fill-rule="nonzero"/><path fill="#000000" d="M 317.402344 296.132812 C 317.253906 296.132812 317.105469 296.078125 316.984375 295.96875 C 316.945312 295.929688 312.796875 292.105469 306.847656 286.914062 C 306.59375 286.691406 306.566406 286.300781 306.789062 286.042969 C 307.011719 285.789062 307.398438 285.761719 307.65625 285.984375 C 313.621094 291.191406 317.78125 295.027344 317.820312 295.066406 C 318.070312 295.296875 318.082031 295.683594 317.851562 295.933594 C 317.734375 296.066406 317.566406 296.132812 317.402344 296.132812 " fill-opacity="1" fill-rule="nonzero"/><path fill="#000000" d="M 303.535156 290.429688 C 303.378906 290.429688 303.226562 290.371094 303.109375 290.257812 C 298.382812 285.695312 290.640625 278.195312 290.640625 278.195312 L 291.496094 277.3125 C 291.496094 277.3125 299.238281 284.8125 303.960938 289.371094 C 304.203125 289.605469 304.210938 289.996094 303.976562 290.238281 C 303.855469 290.367188 303.695312 290.429688 303.535156 290.429688 " fill-opacity="1" fill-rule="nonzero"/><path fill="#000000" d="M 309.941406 296.5 C 309.785156 296.5 309.628906 296.441406 309.507812 296.324219 C 309.488281 296.304688 307.769531 294.605469 305.585938 292.503906 C 305.339844 292.269531 305.332031 291.878906 305.570312 291.636719 C 305.804688 291.390625 306.195312 291.382812 306.4375 291.617188 C 308.628906 293.726562 310.355469 295.429688 310.371094 295.449219 C 310.613281 295.6875 310.613281 296.078125 310.378906 296.320312 C 310.257812 296.4375 310.097656 296.5 309.941406 296.5 " fill-opacity="1" fill-rule="nonzero"/><path fill="#000000" d="M 303.535156 296.976562 C 303.378906 296.976562 303.222656 296.917969 303.105469 296.800781 C 302.980469 296.675781 290.421875 284.449219 284.519531 278.761719 C 284.277344 278.523438 284.269531 278.136719 284.503906 277.890625 C 284.738281 277.648438 285.128906 277.640625 285.371094 277.875 C 291.273438 283.566406 303.835938 295.796875 303.964844 295.921875 C 304.207031 296.15625 304.210938 296.546875 303.972656 296.789062 C 303.855469 296.914062 303.695312 296.976562 303.535156 296.976562 " fill-opacity="1" fill-rule="nonzero"/><path fill="#000000" d="M 304.800781 285.109375 C 304.648438 285.109375 304.496094 285.054688 304.378906 284.945312 L 296.984375 278.011719 C 296.738281 277.78125 296.726562 277.390625 296.957031 277.144531 C 297.191406 276.898438 297.578125 276.882812 297.828125 277.117188 L 305.21875 284.046875 C 305.46875 284.28125 305.476562 284.667969 305.246094 284.917969 C 305.125 285.042969 304.960938 285.109375 304.800781 285.109375 " fill-opacity="1" fill-rule="nonzero"/><path fill="#000000" d="M 282.601562 314.695312 C 284.941406 315.6875 287.316406 316.730469 289.167969 318.464844 C 291.066406 320.242188 292.339844 322.910156 291.761719 325.441406 C 290.6875 330.167969 285.53125 332.726562 281.847656 335.121094 C 277.152344 338.175781 272.269531 340.988281 267.03125 343.003906 C 260.800781 345.40625 252.671875 345.933594 248.152344 339.9375 C 245.140625 335.953125 252.375 323.648438 258.597656 318.53125 C 261.332031 316.28125 264.675781 314.753906 268.09375 313.753906 C 272.914062 312.34375 277.839844 312.679688 282.4375 314.625 C 282.488281 314.648438 282.546875 314.671875 282.601562 314.695312 " fill-opacity="1" fill-rule="nonzero"/><path fill="#ffffff" d="M 248.128906 327.605469 C 250.011719 327.316406 251.5625 326.4375 253.082031 324.605469 C 255.050781 322.230469 256.265625 319.527344 257.964844 316.992188 C 260.855469 312.675781 264.484375 311.339844 269.628906 311.589844 C 273.746094 311.792969 277.84375 312.492188 281.792969 313.683594 C 283.691406 314.253906 285.636719 314.992188 286.972656 316.457031 C 287.335938 316.851562 287.660156 317.421875 287.410156 317.898438 C 287.289062 318.140625 287.042969 318.292969 286.816406 318.4375 C 283.453125 320.585938 281.035156 323.882812 279.953125 327.6875 C 279.046875 330.859375 276.921875 333.5625 274.453125 335.726562 C 269.570312 340.007812 262.554688 342.9375 255.980469 342.230469 C 253.367188 341.953125 250.863281 341.101562 248.265625 340.730469 C 245.71875 340.367188 243.128906 340.464844 240.5625 340.535156 C 234.996094 340.6875 229.433594 340.984375 223.867188 341.128906 C 213.226562 341.40625 202.589844 341.65625 191.953125 341.898438 C 186.453125 342.027344 180.949219 342.152344 175.449219 342.265625 C 160.496094 342.265625 146.78125 333.972656 139.839844 320.730469 L 126.0625 294.453125 L 141.847656 250.355469 C 141.847656 250.355469 166.46875 307.554688 166.597656 307.847656 C 167.859375 310.789062 172.636719 313.046875 175.289062 314.351562 C 179.710938 316.53125 184.441406 318.078125 189.1875 319.394531 C 200.027344 322.40625 211.203125 324.199219 222.355469 325.578125 C 230.171875 326.542969 238.042969 327.351562 245.914062 327.699219 C 246.707031 327.734375 247.4375 327.710938 248.128906 327.605469 " fill-opacity="1" fill-rule="nonzero"/><path fill="#000000" d="M 248.128906 327.605469 L 248.132812 327.605469 Z M 243.933594 339.851562 C 245.402344 339.851562 246.886719 339.914062 248.351562 340.121094 C 249.5625 340.296875 250.761719 340.574219 251.921875 340.839844 C 253.269531 341.152344 254.660156 341.472656 256.046875 341.621094 C 261.957031 342.257812 268.855469 339.816406 274.046875 335.265625 C 276.796875 332.851562 278.585938 330.25 279.359375 327.519531 C 280.492188 323.542969 283.019531 320.132812 286.484375 317.917969 C 286.648438 317.816406 286.820312 317.707031 286.867188 317.617188 C 286.9375 317.480469 286.789062 317.167969 286.519531 316.871094 C 285.277344 315.511719 283.429688 314.816406 281.617188 314.273438 C 277.722656 313.097656 273.675781 312.402344 269.597656 312.203125 C 264.3125 311.945312 261.085938 313.429688 258.476562 317.335938 C 257.839844 318.28125 257.261719 319.277344 256.699219 320.242188 C 255.769531 321.835938 254.808594 323.488281 253.554688 325 C 251.980469 326.898438 250.335938 327.890625 248.21875 328.210938 C 247.515625 328.320312 246.753906 328.351562 245.890625 328.3125 C 239.050781 328.007812 231.550781 327.332031 222.28125 326.1875 C 208.660156 324.503906 198.402344 322.589844 189.019531 319.988281 C 183.183594 318.371094 178.863281 316.800781 175.015625 314.902344 L 174.703125 314.75 C 171.949219 313.394531 167.335938 311.125 166.03125 308.089844 C 165.917969 307.824219 145.714844 260.890625 141.898438 252.03125 L 126.734375 294.40625 L 140.382812 320.445312 C 147.242188 333.527344 160.679688 341.652344 175.449219 341.652344 C 180.9375 341.535156 186.4375 341.410156 191.941406 341.285156 C 201.375 341.070312 212.542969 340.8125 223.847656 340.515625 C 226.699219 340.441406 229.601562 340.324219 232.40625 340.210938 C 235.074219 340.105469 237.832031 339.996094 240.546875 339.917969 L 240.933594 339.90625 C 241.921875 339.878906 242.921875 339.851562 243.933594 339.851562 Z M 257.921875 342.949219 C 257.246094 342.949219 256.574219 342.914062 255.914062 342.84375 C 254.457031 342.6875 253.027344 342.355469 251.644531 342.039062 C 250.511719 341.777344 249.335938 341.503906 248.175781 341.339844 C 245.8125 341 243.351562 341.070312 240.96875 341.136719 L 240.578125 341.148438 C 237.871094 341.222656 235.121094 341.332031 232.457031 341.4375 C 229.648438 341.550781 226.742188 341.667969 223.878906 341.742188 C 212.574219 342.039062 201.402344 342.300781 191.96875 342.515625 C 186.464844 342.640625 180.964844 342.765625 175.460938 342.882812 C 160.21875 342.882812 146.367188 334.503906 139.296875 321.015625 L 125.519531 294.738281 C 125.441406 294.589844 125.425781 294.40625 125.484375 294.246094 L 141.269531 250.148438 C 141.351562 249.910156 141.574219 249.746094 141.828125 249.742188 C 142.078125 249.730469 142.3125 249.878906 142.410156 250.113281 C 142.410156 250.113281 167.035156 307.3125 167.160156 307.605469 C 168.289062 310.222656 172.644531 312.367188 175.246094 313.648438 L 175.5625 313.800781 C 179.335938 315.664062 183.589844 317.207031 189.347656 318.804688 C 198.671875 321.390625 208.875 323.292969 222.429688 324.96875 C 231.667969 326.109375 239.136719 326.785156 245.941406 327.085938 C 246.726562 327.121094 247.410156 327.09375 248.035156 326.996094 C 249.832031 326.722656 251.242188 325.863281 252.609375 324.214844 C 253.796875 322.78125 254.691406 321.246094 255.640625 319.621094 C 256.207031 318.644531 256.796875 317.628906 257.453125 316.652344 C 260.304688 312.394531 263.953125 310.695312 269.660156 310.976562 C 273.835938 311.179688 277.980469 311.894531 281.96875 313.09375 C 283.953125 313.695312 285.984375 314.460938 287.425781 316.042969 C 288.089844 316.769531 288.285156 317.550781 287.957031 318.183594 C 287.757812 318.5625 287.425781 318.777344 287.160156 318.945312 C 283.9375 321.007812 281.589844 324.167969 280.542969 327.855469 C 279.699219 330.816406 277.789062 333.621094 274.859375 336.1875 C 269.992188 340.457031 263.667969 342.949219 257.921875 342.949219 " fill-opacity="1" fill-rule="nonzero"/><path fill="#5479f7" d="M 103.324219 219.453125 C 103.324219 219.453125 132.332031 223.296875 141.960938 235.035156 C 154.164062 249.902344 159.421875 271.988281 161.132812 281.535156 C 161.632812 284.339844 161.574219 287.214844 160.953125 289.992188 L 160.242188 293.179688 C 157.738281 304.4375 147.472656 312.238281 135.957031 311.636719 L 136.535156 311.640625 C 134.675781 311.542969 131.960938 310.925781 131.171875 309.238281 L 128.125 303.679688 L 127.835938 305.683594 C 125.546875 320.472656 132.472656 342.335938 132.472656 342.335938 L 103.195312 336.109375 C 85.570312 334.34375 68.800781 327.398438 55.34375 315.875 C 48.039062 309.621094 42.390625 303.765625 39.953125 296.660156 C 35.8125 284.589844 36.191406 281.152344 35.03125 266.507812 C 34.242188 256.535156 37.167969 246.578125 43.421875 238.769531 C 52.613281 227.300781 70.300781 215.265625 103.324219 219.453125 " fill-opacity="1" fill-rule="nonzero"/><path fill="#99b9ff" d="M 130.09375 309.515625 C 129.863281 309.515625 129.644531 309.386719 129.539062 309.164062 L 121.414062 292.105469 C 121.269531 291.800781 121.398438 291.433594 121.703125 291.289062 C 122.011719 291.144531 122.378906 291.269531 122.523438 291.578125 L 130.648438 308.636719 C 130.792969 308.945312 130.664062 309.308594 130.359375 309.457031 C 130.273438 309.496094 130.183594 309.515625 130.09375 309.515625 " fill-opacity="1" fill-rule="nonzero"/><path fill="#000000" d="M 107.871094 161.363281 L 110.003906 159.941406 C 111.710938 158.804688 112.429688 156.640625 111.71875 154.714844 C 109.578125 148.933594 101.777344 138.859375 73.402344 146.507812 C 44.464844 154.3125 49.582031 200.738281 74.230469 210.664062 C 98.882812 220.582031 107.253906 169.578125 107.253906 169.578125 L 107.871094 161.363281 " fill-opacity="1" fill-rule="nonzero"/><path fill="#ffffff" d="M 104.316406 162.425781 C 104.644531 160.65625 107.003906 160.265625 107.894531 161.832031 C 110.058594 165.632812 111.09375 168.273438 111.4375 169.890625 C 111.902344 172.058594 109.886719 174.230469 110.972656 176.554688 C 112.058594 178.878906 113.765625 181.515625 113.917969 185.703125 C 114.070312 189.792969 118.21875 208.539062 103.65625 207.945312 C 103.082031 207.921875 102.605469 208.371094 102.613281 208.945312 C 102.648438 211.800781 102.800781 219.644531 103.433594 223.894531 C 103.777344 226.210938 102.335938 228.410156 100.082031 229.046875 C 94.253906 230.695312 83.398438 233.011719 75.273438 230.371094 C 73.164062 229.683594 72.054688 227.367188 72.808594 225.28125 C 73.769531 222.613281 75.109375 215.121094 74.230469 210.664062 C 74.230469 210.664062 79.09375 210.183594 84.511719 207.699219 C 92.835938 203.878906 96.933594 194.578125 94.632812 185.710938 C 94.136719 183.804688 93.066406 181.09375 94.183594 178.222656 C 97.058594 170.816406 101.359375 178.261719 101.359375 178.261719 L 104.316406 162.425781 " fill-opacity="1" fill-rule="nonzero"/><path fill="#000000" d="M 74.945312 211.191406 C 75.625 215.855469 74.332031 222.863281 73.386719 225.488281 C 73.074219 226.351562 73.125 227.277344 73.527344 228.101562 C 73.925781 228.910156 74.613281 229.507812 75.464844 229.785156 C 83.449219 232.382812 94.210938 230.066406 99.914062 228.457031 C 101.875 227.902344 103.125 225.980469 102.824219 223.984375 C 102.191406 219.742188 102.035156 212.058594 101.996094 208.953125 C 101.992188 208.507812 102.164062 208.09375 102.480469 207.789062 C 102.796875 207.480469 103.230469 207.316406 103.679688 207.332031 C 106.875 207.464844 109.351562 206.613281 111.035156 204.8125 C 114.910156 200.660156 114 192.382812 113.507812 187.9375 C 113.40625 187 113.324219 186.261719 113.304688 185.726562 C 113.179688 182.371094 112.027344 180.0625 111.007812 178.023438 C 110.800781 177.609375 110.601562 177.207031 110.417969 176.816406 C 109.710938 175.308594 110.128906 173.871094 110.496094 172.601562 C 110.761719 171.6875 111.011719 170.824219 110.835938 170.019531 C 110.609375 168.953125 109.855469 166.511719 107.359375 162.136719 C 107.023438 161.542969 106.433594 161.410156 105.992188 161.484375 C 105.554688 161.558594 105.042969 161.875 104.917969 162.539062 L 101.660156 180.003906 L 100.828125 178.570312 C 100.320312 177.691406 98.683594 175.4375 97.203125 175.558594 C 96.074219 175.644531 95.25 177.175781 94.757812 178.445312 C 93.867188 180.738281 94.496094 182.953125 95 184.730469 C 95.082031 185.019531 95.160156 185.296875 95.226562 185.558594 C 97.632812 194.828125 93.234375 204.375 84.769531 208.257812 C 80.417969 210.253906 76.464844 210.972656 74.945312 211.191406 Z M 83.84375 232.179688 C 80.816406 232.179688 77.800781 231.839844 75.085938 230.957031 C 73.914062 230.574219 72.96875 229.753906 72.425781 228.640625 C 71.875 227.515625 71.804688 226.25 72.230469 225.074219 C 73.152344 222.503906 74.484375 215.136719 73.628906 210.78125 L 73.496094 210.117188 L 74.171875 210.050781 C 74.21875 210.046875 79.003906 209.546875 84.253906 207.140625 C 92.179688 203.503906 96.292969 194.558594 94.039062 185.867188 C 93.972656 185.613281 93.898438 185.347656 93.816406 185.066406 C 93.292969 183.214844 92.570312 180.675781 93.609375 178 C 94.511719 175.675781 95.691406 174.445312 97.109375 174.332031 C 98.734375 174.210938 100.160156 175.59375 101.027344 176.695312 L 103.710938 162.3125 C 103.910156 161.25 104.722656 160.453125 105.789062 160.269531 C 106.855469 160.089844 107.894531 160.585938 108.429688 161.527344 C 110.875 165.820312 111.742188 168.371094 112.039062 169.761719 C 112.277344 170.867188 111.972656 171.925781 111.675781 172.945312 C 111.339844 174.105469 111.019531 175.203125 111.53125 176.296875 C 111.707031 176.679688 111.90625 177.070312 112.105469 177.476562 C 113.128906 179.515625 114.398438 182.058594 114.53125 185.679688 C 114.550781 186.171875 114.632812 186.925781 114.730469 187.800781 C 115.242188 192.445312 116.195312 201.082031 111.933594 205.648438 C 109.996094 207.726562 107.203125 208.699219 103.628906 208.558594 C 103.515625 208.550781 103.414062 208.59375 103.335938 208.667969 C 103.296875 208.710938 103.222656 208.800781 103.226562 208.9375 C 103.265625 212.019531 103.417969 219.636719 104.042969 223.804688 C 104.429688 226.410156 102.800781 228.917969 100.25 229.640625 C 96.324219 230.746094 90.050781 232.179688 83.84375 232.179688 " fill-opacity="1" fill-rule="nonzero"/><path fill="#000000" d="M 61.75 155.894531 C 61.75 155.894531 47.511719 149.097656 37.15625 158.808594 C 26.800781 168.515625 16.769531 189.871094 32.304688 213.171875 C 42.066406 227.8125 45.820312 239.390625 47.261719 245.96875 C 47.746094 248.171875 50.632812 248.726562 51.882812 246.847656 C 58.136719 237.460938 69.539062 216.765625 64.015625 197.316406 C 56.574219 171.105469 61.75 155.894531 61.75 155.894531 " fill-opacity="1" fill-rule="nonzero"/><path fill="#000000" d="M 114.273438 183.925781 L 113.644531 182.875 C 118.113281 180.191406 115.351562 172.652344 114.449219 170.507812 L 101.367188 177.1875 L 100.808594 176.09375 L 115.03125 168.832031 L 115.304688 169.398438 C 115.515625 169.839844 120.4375 180.230469 114.273438 183.925781 " fill-opacity="1" fill-rule="nonzero"/><path fill="#000000" d="M 114.335938 189.433594 C 114.179688 189.433594 114.019531 189.375 113.898438 189.253906 C 113.660156 189.011719 113.664062 188.625 113.902344 188.382812 L 115.765625 186.535156 C 116.285156 186.023438 116.351562 185.222656 115.925781 184.628906 L 114.644531 182.84375 C 114.449219 182.566406 114.511719 182.179688 114.789062 181.984375 C 115.0625 181.785156 115.445312 181.851562 115.644531 182.125 L 116.925781 183.914062 C 117.703125 185 117.582031 186.46875 116.632812 187.410156 L 114.769531 189.257812 C 114.648438 189.375 114.492188 189.433594 114.335938 189.433594 " fill-opacity="1" fill-rule="nonzero"/><path fill="#000000" d="M 99.339844 191.058594 C 99.023438 191.058594 98.691406 191.019531 98.34375 190.933594 C 96.6875 190.523438 95.269531 189.117188 94.132812 186.757812 C 93.984375 186.453125 94.113281 186.085938 94.417969 185.9375 C 94.722656 185.792969 95.09375 185.917969 95.238281 186.226562 C 96.207031 188.230469 97.347656 189.414062 98.621094 189.738281 C 99.976562 190.085938 101.039062 189.335938 101.085938 189.304688 C 101.359375 189.105469 101.742188 189.167969 101.941406 189.441406 C 102.140625 189.714844 102.082031 190.09375 101.8125 190.296875 C 101.757812 190.332031 100.753906 191.058594 99.339844 191.058594 " fill-opacity="1" fill-rule="nonzero"/><path fill="#ffffff" d="M 58.171875 154.613281 C 58.171875 154.613281 71.402344 158.59375 65.988281 171.285156 C 65.988281 171.285156 72.097656 166.875 71.945312 159.988281 C 71.789062 153.101562 66.683594 150.859375 63.28125 150.933594 C 59.875 151.015625 58.171875 154.613281 58.171875 154.613281 " fill-opacity="1" fill-rule="nonzero"/><path fill="#000000" d="M 59.074219 154.277344 C 60.777344 154.941406 64.996094 156.933594 66.929688 161.070312 C 68.058594 163.484375 68.207031 166.203125 67.378906 169.183594 C 69.089844 167.375 71.421875 164.136719 71.332031 160.003906 C 71.265625 157.132812 70.265625 154.824219 68.441406 153.328125 C 67.035156 152.175781 65.105469 151.511719 63.292969 151.550781 C 61.117188 151.601562 59.691406 153.335938 59.074219 154.277344 Z M 64.554688 173.074219 L 65.421875 171.042969 C 66.945312 167.472656 67.078125 164.296875 65.820312 161.597656 C 63.65625 156.960938 58.050781 155.21875 57.996094 155.199219 L 57.3125 154.992188 L 57.617188 154.347656 C 57.695312 154.1875 59.523438 150.40625 63.265625 150.320312 C 65.398438 150.277344 67.570312 151.023438 69.21875 152.375 C 70.691406 153.585938 72.464844 155.882812 72.558594 159.976562 C 72.71875 167.101562 66.605469 171.59375 66.347656 171.78125 L 64.554688 173.074219 " fill-opacity="1" fill-rule="nonzero"/><path fill="#ffffff" d="M 29.863281 265.382812 C 40.785156 271.980469 62.988281 281.390625 98.726562 279.207031 C 101.355469 279.046875 103.785156 280.605469 104.710938 283.070312 L 106.941406 291.992188 C 110.863281 307.679688 118.234375 322.296875 128.519531 334.773438 L 133.859375 341.253906 C 134.683594 342.25 133.90625 343.746094 132.617188 343.648438 L 109.054688 341.917969 C 68.609375 336.566406 37.1875 316.28125 27.109375 279.328125 L 24.417969 269.472656 C 23.546875 266.269531 27.027344 263.667969 29.863281 265.382812 " fill-opacity="1" fill-rule="nonzero"/><path fill="#000000" d="M 133.03125 344.289062 C 132.980469 344.289062 132.929688 344.289062 132.878906 344.285156 L 127.3125 343.878906 C 126.976562 343.851562 126.722656 343.558594 126.746094 343.21875 C 126.773438 342.878906 127.0625 342.628906 127.402344 342.652344 L 132.96875 343.058594 C 133.414062 343.09375 133.613281 342.769531 133.664062 342.671875 C 133.714844 342.570312 133.863281 342.222656 133.582031 341.878906 L 128.046875 335.164062 C 117.765625 322.695312 110.265625 307.816406 106.347656 292.140625 L 104.125 283.253906 C 103.28125 281.054688 101.132812 279.679688 98.765625 279.820312 C 62.257812 282.046875 39.726562 272.058594 29.546875 265.90625 C 28.234375 265.113281 26.910156 265.476562 26.113281 266.078125 C 25.316406 266.679688 24.613281 267.84375 25.011719 269.308594 L 27.699219 279.164062 C 36.621094 311.878906 63.5625 333.648438 103.558594 340.464844 C 103.894531 340.523438 104.121094 340.839844 104.0625 341.175781 C 104.007812 341.511719 103.6875 341.738281 103.355469 341.679688 C 83.804688 338.34375 67.320312 331.550781 54.359375 321.484375 C 40.558594 310.765625 31.191406 296.636719 26.515625 279.488281 L 23.828125 269.632812 C 23.359375 267.910156 23.949219 266.171875 25.371094 265.097656 C 26.800781 264.019531 28.644531 263.929688 30.183594 264.855469 C 40.238281 270.933594 62.515625 280.800781 98.691406 278.59375 C 101.609375 278.421875 104.261719 280.125 105.289062 282.851562 C 105.296875 282.875 105.304688 282.898438 105.308594 282.917969 L 107.539062 291.84375 C 111.410156 307.34375 118.832031 322.054688 128.996094 334.382812 L 134.527344 341.097656 C 135.035156 341.710938 135.121094 342.527344 134.757812 343.234375 C 134.414062 343.894531 133.761719 344.289062 133.03125 344.289062 " fill-opacity="1" fill-rule="nonzero"/><path fill="#ffffff" d="M 356.207031 213.445312 C 356.152344 213.445312 356.097656 213.4375 356.046875 213.421875 C 355.71875 213.335938 355.523438 213 355.613281 212.667969 C 360.757812 193.65625 351.503906 162.21875 351.410156 161.902344 C 351.3125 161.578125 351.496094 161.234375 351.824219 161.136719 C 352.148438 161.039062 352.488281 161.226562 352.585938 161.550781 C 352.683594 161.871094 362.03125 193.644531 356.796875 212.992188 C 356.726562 213.265625 356.476562 213.445312 356.207031 213.445312 " fill-opacity="1" fill-rule="nonzero"/><path fill="#ffffff" d="M 40.949219 128.695312 C 40.878906 128.695312 40.804688 128.679688 40.734375 128.65625 C 40.417969 128.539062 40.253906 128.183594 40.371094 127.867188 C 48.953125 104.597656 58.332031 97.476562 58.726562 97.1875 C 59 96.984375 59.382812 97.042969 59.585938 97.316406 C 59.785156 97.585938 59.730469 97.972656 59.457031 98.171875 C 59.355469 98.25 49.953125 105.433594 41.523438 128.289062 C 41.433594 128.539062 41.199219 128.695312 40.949219 128.695312 " fill-opacity="1" fill-rule="nonzero"/><path fill="#ffffff" d="M 49.691406 121.578125 C 49.601562 121.578125 49.511719 121.5625 49.425781 121.519531 C 49.121094 121.375 48.992188 121.007812 49.136719 120.699219 C 51.597656 115.554688 54.253906 111.042969 57.03125 107.289062 C 57.230469 107.011719 57.617188 106.953125 57.890625 107.15625 C 58.164062 107.359375 58.222656 107.742188 58.019531 108.015625 C 55.289062 111.710938 52.675781 116.15625 50.246094 121.230469 C 50.140625 121.453125 49.921875 121.578125 49.691406 121.578125 " fill-opacity="1" fill-rule="nonzero"/></svg>