<svg xmlns="http://www.w3.org/2000/svg" xmlns:xlink="http://www.w3.org/1999/xlink" width="500" zoomAndPan="magnify" viewBox="0 0 375 374.999991" height="500" preserveAspectRatio="xMidYMid meet" version="1.0"><path stroke-linecap="butt" transform="matrix(0.12165, 0, 0, 0.121498, -114.904368, -6.242532)" fill="none" stroke-linejoin="miter" d="M 3928.487562 3059.008508 L 969.113536 3059.008508 " stroke="#66b0f0" stroke-width="6" stroke-opacity="1" stroke-miterlimit="10"/><path stroke-linecap="butt" transform="matrix(0.12165, 0, 0, 0.121498, -114.904368, -6.242532)" fill="none" stroke-linejoin="miter" d="M 1227.603596 3112.60364 L 2922.302962 3112.60364 " stroke="#66b0f0" stroke-width="6" stroke-opacity="1" stroke-miterlimit="10"/><path stroke-linecap="butt" transform="matrix(0.12165, 0, 0, 0.121498, -114.904368, -6.242532)" fill-opacity="1" fill="#d0f0e4" fill-rule="nonzero" stroke-linejoin="miter" d="M 3775.994482 2393.908026 L 3302.684732 2393.908026 C 3280.303668 2393.908026 3262.096976 2412.105294 3262.096976 2434.514296 L 3262.096976 3059.008508 L 3816.485906 3059.008508 L 3816.485906 2434.514296 C 3816.614349 2412.105294 3798.407657 2393.908026 3775.994482 2393.908026 Z M 3775.994482 2393.908026 " stroke="#ffcf2d" stroke-width="6" stroke-opacity="1" stroke-miterlimit="10"/><path stroke-linecap="butt" transform="matrix(0.12165, 0, 0, 0.121498, -114.904368, -6.242532)" fill="none" stroke-linejoin="miter" d="M 3198.293281 1692.284408 L 3881.28503 1692.284408 L 3881.28503 3058.912056 L 3198.293281 3058.912056 Z M 3198.293281 1692.284408 " stroke="#ffcf2d" stroke-width="6" stroke-opacity="1" stroke-miterlimit="10"/><path stroke-linecap="butt" transform="matrix(0.12165, 0, 0, 0.121498, -114.904368, -6.242532)" fill="none" stroke-linejoin="miter" d="M 3899.202726 1521.210803 L 1556.897455 1521.210803 L 1556.897455 1692.284408 L 4030.888159 1692.284408 " stroke="#ffcf2d" stroke-width="6" stroke-opacity="1" stroke-miterlimit="10"/><path stroke-linecap="butt" transform="matrix(0.12165, 0, 0, 0.121498, -114.904368, -6.242532)" fill="none" stroke-linejoin="miter" d="M 3775.994482 2013.501545 L 3303.615939 2013.501545 C 3281.202763 2013.501545 3262.996072 1995.304277 3262.996072 1972.895275 L 3262.996072 1806.097706 C 3262.996072 1783.688704 3281.202763 1765.491436 3303.615939 1765.491436 L 3775.994482 1765.491436 C 3798.407657 1765.491436 3816.614349 1783.688704 3816.614349 1806.097706 L 3816.614349 1972.991727 C 3816.614349 1995.400729 3798.407657 2013.501545 3775.994482 2013.501545 Z M 3775.994482 2013.501545 " stroke="#ffcf2d" stroke-width="6" stroke-opacity="1" stroke-miterlimit="10"/><path stroke-linecap="butt" transform="matrix(0.12165, 0, 0, 0.121498, -114.904368, -6.242532)" fill="none" stroke-linejoin="miter" d="M 3775.994482 2315.492593 L 3303.615939 2315.492593 C 3281.202763 2315.492593 3262.996072 2297.295325 3262.996072 2274.886323 L 3262.996072 2108.088755 C 3262.996072 2085.711903 3281.202763 2067.514635 3303.615939 2067.514635 L 3775.994482 2067.514635 C 3798.407657 2067.514635 3816.614349 2085.711903 3816.614349 2108.088755 L 3816.614349 2274.886323 C 3816.614349 2297.295325 3798.407657 2315.492593 3775.994482 2315.492593 Z M 3775.994482 2315.492593 " stroke="#ffcf2d" stroke-width="6" stroke-opacity="1" stroke-miterlimit="10"/><path stroke-linecap="butt" transform="matrix(0.12165, 0, 0, 0.121498, -114.904368, -6.242532)" fill="none" stroke-linejoin="miter" d="M 3573.890577 1887.406698 C 3573.890577 1891.714885 3573.087813 1895.862319 3571.418063 1899.848999 C 3569.780424 1903.803529 3567.436353 1907.340101 3564.385849 1910.394412 C 3561.335345 1913.416573 3557.803183 1915.763571 3553.821473 1917.435405 C 3549.839762 1919.075088 3545.697499 1919.911005 3541.394683 1919.911005 C 3537.091868 1919.911005 3532.949604 1919.075088 3528.967894 1917.435405 C 3524.986184 1915.763571 3521.454022 1913.416573 3518.403518 1910.394412 C 3515.385125 1907.340101 3513.008943 1903.803529 3511.371304 1899.848999 C 3509.733665 1895.862319 3508.89879 1891.714885 3508.89879 1887.406698 C 3508.89879 1883.098511 3509.733665 1878.951077 3511.371304 1874.964397 C 3513.008943 1870.977716 3515.385125 1867.473296 3518.403518 1864.418984 C 3521.454022 1861.364672 3524.986184 1859.017675 3528.967894 1857.377992 C 3532.949604 1855.738309 3537.091868 1854.902392 3541.394683 1854.902392 C 3545.697499 1854.902392 3549.839762 1855.738309 3553.821473 1857.377992 C 3557.803183 1859.017675 3561.335345 1861.364672 3564.385849 1864.418984 C 3567.436353 1867.473296 3569.780424 1870.977716 3571.418063 1874.964397 C 3573.087813 1878.951077 3573.890577 1883.098511 3573.890577 1887.406698 Z M 3573.890577 1887.406698 " stroke="#66b0f0" stroke-width="6" stroke-opacity="1" stroke-miterlimit="10"/><path stroke-linecap="butt" transform="matrix(0.12165, 0, 0, 0.121498, -114.904368, -6.242532)" fill="none" stroke-linejoin="miter" d="M 3573.890577 2190.297965 C 3573.890577 2194.606152 3573.087813 2198.753586 3571.418063 2202.740266 C 3569.780424 2206.726947 3567.436353 2210.231367 3564.385849 2213.285679 C 3561.335345 2216.339991 3557.803183 2218.686988 3553.821473 2220.326671 C 3549.839762 2221.966354 3545.697499 2222.802271 3541.394683 2222.802271 C 3537.091868 2222.802271 3532.949604 2221.966354 3528.967894 2220.326671 C 3524.986184 2218.686988 3521.454022 2216.339991 3518.403518 2213.285679 C 3515.385125 2210.231367 3513.008943 2206.726947 3511.371304 2202.740266 C 3509.733665 2198.753586 3508.89879 2194.606152 3508.89879 2190.297965 C 3508.89879 2185.989778 3509.733665 2181.842344 3511.371304 2177.855664 C 3513.008943 2173.868983 3515.385125 2170.364562 3518.403518 2167.310251 C 3521.454022 2164.255939 3524.986184 2161.908942 3528.967894 2160.269258 C 3532.949604 2158.629575 3537.091868 2157.793658 3541.394683 2157.793658 C 3545.697499 2157.793658 3549.839762 2158.629575 3553.821473 2160.269258 C 3557.803183 2161.908942 3561.335345 2164.255939 3564.385849 2167.310251 C 3567.436353 2170.364562 3569.780424 2173.868983 3571.418063 2177.855664 C 3573.087813 2181.842344 3573.890577 2185.989778 3573.890577 2190.297965 Z M 3573.890577 2190.297965 " stroke="#66b0f0" stroke-width="6" stroke-opacity="1" stroke-miterlimit="10"/><path fill="#ffffff" d="M 340.589844 309.882812 L 340.503906 310.40625 L 340.46875 310.710938 L 339.203125 318.765625 L 339.070312 319.628906 L 338.496094 323.296875 L 338.289062 324.585938 L 337.753906 327.988281 L 337.621094 328.851562 L 336.320312 337.183594 L 336.320312 337.222656 L 336.1875 338.082031 L 336.113281 338.472656 L 334.871094 346.441406 L 334.738281 347.304688 L 334.15625 351.058594 L 334.15625 351.070312 L 333.949219 352.359375 L 333.425781 355.664062 L 333.289062 356.527344 L 331.988281 364.898438 L 331.976562 364.945312 L 331.917969 365.335938 L 331.902344 365.421875 L 297.71875 365.421875 L 297.707031 365.324219 L 297.648438 364.984375 L 297.636719 364.875 L 296.320312 356.515625 L 296.1875 355.640625 L 295.675781 352.394531 L 295.480469 351.097656 L 294.886719 347.28125 L 294.753906 346.417969 L 293.511719 338.507812 L 293.4375 338.058594 L 293.304688 337.207031 L 293.304688 337.195312 L 291.992188 328.824219 L 291.855469 327.964844 L 291.332031 324.621094 L 291.140625 323.332031 L 290.554688 319.605469 L 290.421875 318.742188 L 289.167969 310.746094 L 289.035156 309.882812 Z M 340.589844 309.882812 " fill-opacity="1" fill-rule="nonzero"/><path fill="#66b0f0" d="M 332.230469 365.796875 L 297.390625 365.796875 L 297.246094 364.898438 L 288.585938 309.507812 L 341.027344 309.507812 Z M 298.035156 365.042969 L 331.574219 365.042969 L 340.140625 310.273438 L 289.460938 310.273438 Z M 298.035156 365.042969 " fill-opacity="1" fill-rule="nonzero"/><path fill="#66b0f0" d="M 341.0625 309.882812 C 341.0625 310.054688 341.039062 310.234375 340.980469 310.40625 C 340.566406 311.683594 338.667969 312.859375 335.6875 313.832031 C 335.46875 313.90625 335.25 313.964844 335.03125 314.039062 C 333.109375 314.609375 330.808594 315.109375 328.21875 315.484375 C 327.972656 315.519531 327.730469 315.558594 327.476562 315.59375 C 325.1875 315.910156 322.695312 316.140625 320.054688 316.273438 C 319.789062 316.285156 319.53125 316.300781 319.265625 316.3125 C 317.816406 316.371094 316.320312 316.410156 314.800781 316.410156 C 313.632812 316.410156 312.476562 316.382812 311.34375 316.347656 C 311.066406 316.335938 310.785156 316.324219 310.503906 316.3125 C 307.464844 316.191406 304.59375 315.933594 301.988281 315.570312 C 301.675781 315.519531 301.371094 315.484375 301.066406 315.4375 C 296.648438 314.769531 293.097656 313.785156 290.921875 312.605469 C 289.65625 311.925781 288.863281 311.183594 288.609375 310.40625 L 288.535156 309.894531 C 288.535156 306.300781 300.285156 303.394531 314.789062 303.394531 C 329.203125 303.394531 340.90625 306.277344 341.039062 309.847656 C 341.0625 309.847656 341.0625 309.859375 341.0625 309.882812 Z M 341.0625 309.882812 " fill-opacity="1" fill-rule="nonzero"/><path fill="#66b0f0" d="M 332 364.910156 L 332 365.398438 L 331.917969 365.335938 L 331.902344 365.410156 L 331.585938 365.410156 L 327.707031 360.402344 L 327.304688 359.878906 L 323.402344 354.851562 L 323 354.328125 L 319.09375 349.296875 L 318.691406 348.777344 L 314.789062 343.746094 L 314.386719 343.222656 L 310.480469 338.191406 L 310.078125 337.671875 L 306.1875 332.640625 L 305.785156 332.117188 L 301.878906 327.089844 L 301.480469 326.566406 L 297.585938 321.535156 L 297.183594 321.011719 L 293.292969 315.984375 L 292.890625 315.460938 L 289.15625 310.648438 L 289.09375 310.296875 C 289.339844 311.0625 290.117188 311.792969 291.359375 312.460938 L 293.28125 314.9375 L 293.679688 315.460938 L 297.585938 320.492188 L 297.988281 321.011719 L 301.894531 326.042969 L 302.292969 326.566406 L 306.199219 331.597656 L 306.601562 332.117188 L 310.503906 337.148438 L 310.90625 337.671875 L 314.8125 342.699219 L 315.214844 343.222656 L 319.117188 348.253906 L 319.519531 348.777344 L 323.425781 353.804688 L 323.828125 354.328125 L 327.730469 359.359375 L 328.132812 359.878906 L 332.011719 364.886719 Z M 332 364.910156 " fill-opacity="1" fill-rule="nonzero"/><path fill="#66b0f0" d="M 333.425781 355.664062 L 333.289062 356.527344 L 332 354.863281 L 331.601562 354.339844 L 327.695312 349.308594 L 327.292969 348.789062 L 323.386719 343.757812 L 322.988281 343.234375 L 319.082031 338.207031 L 318.679688 337.683594 L 314.777344 332.652344 L 314.375 332.128906 L 310.503906 327.148438 L 310.105469 326.625 L 306.199219 321.597656 L 305.796875 321.074219 L 301.894531 316.042969 L 301.492188 315.519531 L 301.320312 315.304688 C 301.613281 315.351562 301.917969 315.386719 302.222656 315.4375 L 302.28125 315.519531 L 306.1875 320.550781 L 306.589844 321.074219 L 310.492188 326.105469 L 310.894531 326.625 L 314.800781 331.65625 L 315.203125 332.179688 L 319.105469 337.207031 L 319.507812 337.730469 L 323.414062 342.761719 L 323.8125 343.285156 L 327.71875 348.3125 L 328.121094 348.835938 L 332.027344 353.867188 L 332.425781 354.390625 Z M 333.425781 355.664062 " fill-opacity="1" fill-rule="nonzero"/><path fill="#66b0f0" d="M 334.871094 346.441406 L 334.738281 347.304688 L 332 343.78125 L 331.601562 343.257812 L 327.695312 338.230469 L 327.292969 337.707031 L 323.386719 332.675781 L 322.988281 332.15625 L 319.082031 327.125 L 318.679688 326.601562 L 314.777344 321.570312 L 314.375 321.050781 L 310.566406 316.140625 C 310.847656 316.152344 311.113281 316.164062 311.394531 316.175781 L 314.777344 320.527344 L 315.175781 321.050781 L 319.082031 326.078125 L 319.484375 326.601562 L 323.386719 331.632812 L 323.789062 332.15625 L 327.695312 337.183594 L 328.097656 337.707031 L 332 342.738281 L 332.402344 343.257812 Z M 334.871094 346.441406 " fill-opacity="1" fill-rule="nonzero"/><path fill="#66b0f0" d="M 336.320312 337.222656 L 336.1875 338.082031 L 335.90625 337.71875 L 332 332.6875 L 331.601562 332.167969 L 327.695312 327.136719 L 327.292969 326.613281 L 323.386719 321.585938 L 322.988281 321.0625 L 319.179688 316.152344 C 319.433594 316.140625 319.703125 316.128906 319.957031 316.117188 L 323.386719 320.539062 L 323.789062 321.0625 L 327.695312 326.09375 L 328.097656 326.613281 L 332 331.644531 L 332.402344 332.167969 L 336.308594 337.195312 Z M 336.320312 337.222656 " fill-opacity="1" fill-rule="nonzero"/><path fill="#66b0f0" d="M 306.441406 365.226562 L 306.199219 365.410156 L 306.1875 365.421875 L 305.785156 365.421875 L 301.894531 360.414062 L 301.492188 359.894531 L 297.597656 354.863281 L 297.195312 354.351562 L 295.675781 352.394531 L 295.480469 351.097656 L 297.597656 353.828125 L 298 354.351562 L 301.894531 359.371094 L 302.292969 359.894531 L 306.199219 364.921875 Z M 306.441406 365.226562 " fill-opacity="1" fill-rule="nonzero"/><path fill="#66b0f0" d="M 297.828125 365.226562 L 297.707031 365.324219 L 297.648438 364.984375 Z M 297.828125 365.226562 " fill-opacity="1" fill-rule="nonzero"/><path fill="#66b0f0" d="M 315.042969 365.226562 L 314.800781 365.410156 L 314.789062 365.421875 L 314.386719 365.421875 L 310.503906 360.414062 L 310.105469 359.894531 L 306.199219 354.863281 L 305.796875 354.351562 L 301.894531 349.324219 L 301.492188 348.8125 L 301.492188 348.800781 L 297.597656 343.78125 L 297.195312 343.257812 L 293.511719 338.507812 L 293.4375 338.058594 L 293.304688 337.207031 L 293.695312 337.71875 L 297.597656 342.75 L 298 343.257812 L 301.894531 348.289062 L 302.292969 348.8125 L 306.199219 353.828125 L 306.601562 354.351562 L 310.503906 359.371094 L 310.90625 359.894531 L 314.800781 364.921875 Z M 315.042969 365.226562 " fill-opacity="1" fill-rule="nonzero"/><path fill="#66b0f0" d="M 323.644531 365.226562 L 323.402344 365.410156 L 323.386719 365.421875 L 322.988281 365.421875 L 319.105469 360.414062 L 318.703125 359.894531 L 314.800781 354.863281 L 314.398438 354.351562 L 310.503906 349.324219 L 310.105469 348.8125 L 306.199219 343.78125 L 305.796875 343.257812 L 301.894531 338.242188 L 301.492188 337.71875 L 297.597656 332.6875 L 297.195312 332.179688 L 293.292969 327.148438 L 292.890625 326.636719 L 291.332031 324.621094 L 291.140625 323.332031 L 293.292969 326.117188 L 293.695312 326.636719 L 297.597656 331.65625 L 298 332.179688 L 301.894531 337.195312 L 302.292969 337.71875 L 306.199219 342.75 L 306.601562 343.257812 L 310.503906 348.289062 L 310.90625 348.8125 L 314.800781 353.828125 L 315.203125 354.351562 L 319.105469 359.371094 L 319.507812 359.894531 L 323.402344 364.921875 Z M 323.644531 365.226562 " fill-opacity="1" fill-rule="nonzero"/><path fill="#66b0f0" d="M 337.753906 327.988281 L 337.621094 328.851562 L 336.308594 327.148438 L 335.90625 326.625 L 332 321.597656 L 331.601562 321.074219 L 327.695312 316.042969 L 327.292969 315.519531 L 327.246094 315.460938 C 327.488281 315.425781 327.730469 315.386719 327.960938 315.351562 L 328.097656 315.519531 L 332 320.550781 L 332.402344 321.074219 L 336.308594 326.105469 L 336.710938 326.625 Z M 337.753906 327.988281 " fill-opacity="1" fill-rule="nonzero"/><path fill="#66b0f0" d="M 339.203125 318.765625 L 339.070312 319.628906 L 336.308594 316.066406 L 335.90625 315.546875 L 334.675781 313.953125 C 334.894531 313.894531 335.117188 313.820312 335.320312 313.746094 L 336.308594 315.023438 L 336.710938 315.546875 Z M 339.203125 318.765625 " fill-opacity="1" fill-rule="nonzero"/><path fill="#66b0f0" d="M 340.941406 310.078125 L 340.601562 310.515625 L 340.503906 310.394531 C 340.566406 310.222656 340.589844 310.054688 340.589844 309.882812 C 340.589844 309.859375 340.589844 309.847656 340.589844 309.824219 L 340.601562 309.8125 Z M 340.941406 310.078125 " fill-opacity="1" fill-rule="nonzero"/><path fill="#66b0f0" d="M 338.496094 323.296875 L 338.289062 324.585938 L 336.710938 326.636719 L 336.308594 327.148438 L 332.402344 332.179688 L 332 332.6875 L 328.109375 337.71875 L 327.707031 338.242188 L 323.800781 343.257812 L 323.402344 343.78125 L 319.507812 348.8125 L 319.105469 349.324219 L 315.203125 354.351562 L 314.800781 354.863281 L 310.90625 359.894531 L 310.503906 360.414062 L 306.613281 365.421875 L 306.210938 365.421875 L 306.199219 365.410156 L 305.96875 365.226562 L 306.199219 364.921875 L 310.105469 359.894531 L 310.503906 359.371094 L 314.398438 354.351562 L 314.800781 353.828125 L 318.703125 348.8125 L 319.105469 348.289062 L 323 343.257812 L 323.402344 342.75 L 327.304688 337.71875 L 327.707031 337.195312 L 331.601562 332.179688 L 332 331.65625 L 335.90625 326.636719 L 336.308594 326.117188 Z M 338.496094 323.296875 " fill-opacity="1" fill-rule="nonzero"/><path fill="#66b0f0" d="M 340.46875 310.710938 L 336.710938 315.558594 L 336.308594 316.082031 L 332.402344 321.109375 L 332 321.632812 L 328.097656 326.664062 L 327.695312 327.183594 L 323.789062 332.214844 L 323.386719 332.738281 L 319.507812 337.71875 L 319.105469 338.242188 L 315.203125 343.273438 L 314.800781 343.792969 L 310.894531 348.824219 L 310.492188 349.347656 L 306.589844 354.375 L 306.1875 354.898438 L 302.28125 359.929688 L 301.878906 360.453125 L 298 365.457031 L 297.707031 365.457031 L 297.695312 365.359375 L 297.648438 365.019531 L 297.597656 364.960938 L 297.636719 364.910156 L 301.503906 359.929688 L 301.90625 359.40625 L 305.808594 354.375 L 306.210938 353.855469 L 310.117188 348.824219 L 310.519531 348.300781 L 314.421875 343.273438 L 314.824219 342.75 L 318.730469 337.71875 L 319.128906 337.195312 L 323.035156 332.167969 L 323.4375 331.644531 L 327.34375 326.613281 L 327.742188 326.09375 L 331.648438 321.0625 L 332.050781 320.539062 L 335.941406 315.507812 L 336.34375 314.988281 L 338.253906 312.519531 C 339.507812 311.851562 340.296875 311.125 340.554688 310.34375 Z M 340.46875 310.710938 " fill-opacity="1" fill-rule="nonzero"/><path fill="#66b0f0" d="M 328.265625 315.339844 L 328.097656 315.558594 L 327.695312 316.082031 L 323.789062 321.109375 L 323.386719 321.632812 L 319.484375 326.664062 L 319.082031 327.183594 L 315.175781 332.214844 L 314.777344 332.738281 L 310.871094 337.769531 L 310.46875 338.289062 L 306.5625 343.320312 L 306.164062 343.84375 L 302.257812 348.871094 L 301.855469 349.394531 L 297.953125 354.425781 L 297.550781 354.949219 L 296.273438 356.585938 L 296.136719 355.726562 L 297.148438 354.425781 L 297.550781 353.902344 L 301.441406 348.871094 L 301.84375 348.351562 L 305.75 343.320312 L 306.152344 342.796875 L 310.042969 337.769531 L 310.445312 337.246094 L 314.351562 332.214844 L 314.75 331.691406 L 318.65625 326.664062 L 319.058594 326.140625 L 322.960938 321.109375 L 323.363281 320.589844 L 327.269531 315.558594 L 327.328125 315.472656 C 327.535156 315.449219 327.742188 315.414062 327.9375 315.386719 C 328.070312 315.363281 328.167969 315.351562 328.265625 315.339844 Z M 328.265625 315.339844 " fill-opacity="1" fill-rule="nonzero"/><path fill="#66b0f0" d="M 319.007812 316.191406 L 315.203125 321.085938 L 314.800781 321.609375 L 310.894531 326.636719 L 310.492188 327.160156 L 306.589844 332.191406 L 306.1875 332.714844 L 302.28125 337.742188 L 301.878906 338.265625 L 297.976562 343.296875 L 297.574219 343.820312 L 294.863281 347.316406 L 294.726562 346.453125 L 297.171875 343.296875 L 297.574219 342.773438 L 301.480469 337.742188 L 301.878906 337.222656 L 305.785156 332.191406 L 306.1875 331.667969 L 310.09375 326.636719 L 310.492188 326.117188 L 314.398438 321.085938 L 314.800781 320.5625 L 318.183594 316.214844 C 318.449219 316.214844 318.730469 316.203125 319.007812 316.191406 Z M 319.007812 316.191406 " fill-opacity="1" fill-rule="nonzero"/><path fill="#66b0f0" d="M 334.15625 351.070312 L 333.949219 352.359375 L 332.402344 354.351562 L 332 354.863281 L 328.109375 359.894531 L 327.707031 360.414062 L 323.8125 365.421875 L 323.414062 365.421875 L 323.402344 365.410156 L 323.167969 365.226562 L 323.402344 364.921875 L 327.304688 359.894531 L 327.707031 359.371094 L 331.601562 354.351562 L 332 353.828125 Z M 334.15625 351.070312 " fill-opacity="1" fill-rule="nonzero"/><path fill="#66b0f0" d="M 336.113281 338.472656 L 332.402344 343.257812 L 332 343.78125 L 328.109375 348.8125 L 327.707031 349.324219 L 323.800781 354.351562 L 323.402344 354.863281 L 319.507812 359.894531 L 319.105469 360.414062 L 315.214844 365.421875 L 314.8125 365.421875 L 314.800781 365.410156 L 314.570312 365.226562 L 314.800781 364.921875 L 318.703125 359.894531 L 319.105469 359.371094 L 323 354.351562 L 323.402344 353.828125 L 327.304688 348.8125 L 327.707031 348.289062 L 331.601562 343.257812 L 332 342.75 L 335.90625 337.71875 L 336.308594 337.195312 L 336.320312 337.183594 L 336.320312 337.222656 L 336.1875 338.082031 Z M 336.113281 338.472656 " fill-opacity="1" fill-rule="nonzero"/><path fill="#66b0f0" d="M 310.410156 316.175781 L 306.601562 321.085938 L 306.199219 321.609375 L 302.292969 326.636719 L 301.894531 327.160156 L 297.988281 332.191406 L 297.585938 332.714844 L 293.679688 337.742188 L 293.425781 338.082031 L 293.292969 337.246094 L 293.28125 337.234375 L 293.292969 337.222656 L 297.183594 332.203125 L 297.585938 331.679688 L 301.480469 326.652344 L 301.878906 326.128906 L 305.785156 321.097656 L 306.1875 320.574219 L 309.617188 316.152344 C 309.898438 316.152344 310.152344 316.164062 310.410156 316.175781 Z M 310.410156 316.175781 " fill-opacity="1" fill-rule="nonzero"/><path fill="#66b0f0" d="M 302.355469 315.484375 L 302.304688 315.558594 L 301.90625 316.082031 L 298 321.109375 L 297.597656 321.632812 L 293.695312 326.664062 L 293.292969 327.183594 L 291.992188 328.863281 L 291.855469 328 L 292.890625 326.664062 L 293.292969 326.140625 L 297.183594 321.109375 L 297.585938 320.589844 L 301.492188 315.558594 L 301.625 315.386719 C 301.820312 315.414062 302.027344 315.449219 302.234375 315.472656 Z M 302.355469 315.484375 " fill-opacity="1" fill-rule="nonzero"/><path fill="#66b0f0" d="M 294.933594 313.953125 L 293.695312 315.546875 L 293.292969 316.066406 L 290.542969 319.605469 L 290.410156 318.742188 L 292.890625 315.546875 L 293.292969 315.023438 L 294.289062 313.746094 C 294.496094 313.820312 294.714844 313.894531 294.933594 313.953125 Z M 294.933594 313.953125 " fill-opacity="1" fill-rule="nonzero"/><path stroke-linecap="butt" transform="matrix(0.12165, 0, 0, 0.121498, -114.904368, -6.242532)" fill-opacity="1" fill="#ffffff" fill-rule="nonzero" stroke-linejoin="miter" d="M 3764.884226 2543.215642 L 3672.598458 2543.215642 L 3672.598458 2515.115974 L 3728.599286 2515.115974 C 3746.099545 2515.115974 3760.709852 2527.108166 3764.884226 2543.215642 Z M 3764.884226 2543.215642 " stroke="#ffcf2d" stroke-width="5" stroke-opacity="1" stroke-miterlimit="10"/><path stroke-linecap="butt" transform="matrix(0.12165, 0, 0, 0.121498, -114.904368, -6.242532)" fill-opacity="1" fill="#ffffff" fill-rule="nonzero" stroke-linejoin="miter" d="M 3729.209387 2515.115974 C 3703.007164 2515.40533 3680.112331 2532.895283 3673.112227 2558.197844 L 3651.790811 2635.488005 C 3648.804528 2636.002415 3645.689803 2636.484675 3642.607189 2636.902634 C 3640.584223 2637.191989 3638.593368 2637.513496 3636.506181 2637.802852 C 3617.689389 2640.407054 3597.202848 2642.303943 3575.496105 2643.397065 C 3573.312587 2643.493517 3571.193289 2643.589969 3569.009771 2643.686421 C 3557.09675 2644.200831 3544.798404 2644.490187 3532.307393 2644.490187 C 3522.706334 2644.490187 3513.201606 2644.297283 3503.889542 2644.007927 C 3501.609692 2643.911475 3499.297731 2643.815023 3496.98577 2643.686421 C 3496.086674 2643.686421 3495.187578 2643.589969 3494.288482 2643.589969 L 3517.889749 2558.197844 C 3524.889852 2532.702379 3548.105792 2515.115974 3574.597009 2515.115974 Z M 3729.209387 2515.115974 " stroke="#ffcf2d" stroke-width="5" stroke-opacity="1" stroke-miterlimit="10"/><path fill="#ffcf2d" d="M 331.066406 96.886719 L 359.785156 178.582031 L 254.609375 178.582031 L 282.5625 96.886719 Z M 331.066406 96.886719 " fill-opacity="1" fill-rule="nonzero"/><path stroke-linecap="butt" transform="matrix(0.12165, 0, 0, 0.121498, -114.904368, -6.242532)" fill="none" stroke-linejoin="miter" d="M 3468.503698 768.692707 C 3468.503698 740.689491 3491.205868 717.991133 3519.206282 717.991133 L 3548.491119 717.991133 C 3576.491533 717.991133 3599.193703 740.689491 3599.193703 768.692707 L 3599.193703 1424.791006 " stroke="#66b0f0" stroke-width="6" stroke-opacity="1" stroke-miterlimit="10"/><path stroke-linecap="butt" transform="matrix(0.12165, 0, 0, 0.121498, -114.904368, -6.242532)" fill-opacity="1" fill="#ffffff" fill-rule="nonzero" stroke-linejoin="miter" d="M 3667.300215 1499.798471 L 3667.300215 1520.085531 L 3453.508063 1520.085531 L 3453.508063 1499.798471 C 3453.508063 1482.501422 3459.384297 1466.490398 3469.306462 1453.790892 C 3482.985563 1436.204487 3504.499643 1424.791006 3528.486236 1424.791006 L 3592.1936 1424.791006 C 3593.189027 1424.791006 3594.312897 1424.791006 3595.308325 1424.887458 C 3635.414422 1426.494991 3667.300215 1459.385105 3667.300215 1499.798471 Z M 3667.300215 1499.798471 " stroke="#fe5244" stroke-width="6" stroke-opacity="1" stroke-miterlimit="10"/><path fill="#fe5244" d="M 337 97.226562 L 276.820312 97.226562 L 276.820312 95.34375 C 276.820312 90.835938 280.484375 87.191406 284.984375 87.191406 L 328.839844 87.191406 C 333.351562 87.191406 337 90.847656 337 95.34375 Z M 337 97.226562 " fill-opacity="1" fill-rule="nonzero"/><path stroke-linecap="round" transform="matrix(0.12165, 0, 0, 0.121498, -114.904368, -6.242532)" fill="none" stroke-linejoin="miter" d="M 3714.791742 839.199081 L 3220.096355 839.199081 " stroke="#ffffff" stroke-width="5" stroke-opacity="1" stroke-miterlimit="10"/><path fill="#ffffff" d="M 330.710938 97.226562 C 330.710938 99.375 329.375 101.125 327.707031 101.125 L 285.589844 101.125 C 283.9375 101.125 282.585938 99.375 282.585938 97.226562 Z M 330.710938 97.226562 " fill-opacity="1" fill-rule="nonzero"/><path stroke-linecap="butt" transform="matrix(0.12165, 0, 0, 0.121498, -114.904368, -6.242532)" fill-opacity="1" fill="#ffffff" fill-rule="nonzero" stroke-linejoin="miter" d="M 3599.193703 1444.402902 C 3599.193703 1476.48925 3569.908866 1502.595577 3533.784479 1502.595577 C 3501.288586 1502.595577 3474.31571 1481.504751 3469.306462 1453.790892 C 3482.985563 1436.204487 3504.499643 1424.791006 3528.486236 1424.791006 L 3592.1936 1424.791006 C 3593.189027 1424.791006 3594.312897 1424.791006 3595.308325 1424.887458 C 3597.90928 1430.996081 3599.193703 1437.586965 3599.193703 1444.402902 Z M 3599.193703 1444.402902 " stroke="#fe5244" stroke-width="6" stroke-opacity="1" stroke-miterlimit="10"/><path fill="#fe5244" d="M 315.203125 165.203125 L 315.203125 169.019531 C 315.203125 169.796875 314.484375 170.429688 313.609375 170.429688 C 312.730469 170.429688 312.015625 169.796875 312.015625 169.019531 L 312.015625 165.203125 L 312.039062 165.203125 C 312.183594 165.871094 312.828125 166.382812 313.59375 166.382812 C 314.363281 166.382812 315.007812 165.871094 315.152344 165.203125 Z M 315.203125 165.203125 " fill-opacity="1" fill-rule="nonzero"/><path stroke-linecap="butt" transform="matrix(0.12165, 0, 0, 0.121498, -114.904368, -6.242532)" fill-opacity="1" fill="#ffffff" fill-rule="nonzero" stroke-linejoin="miter" d="M 3532.789052 1410.001708 C 3532.789052 1410.709022 3532.69272 1411.384185 3532.596388 1412.0915 C 3531.697292 1417.107001 3527.490808 1420.804326 3522.385228 1420.804326 C 3517.40809 1420.804326 3513.201606 1417.107001 3512.206179 1412.0915 C 3512.109847 1411.384185 3512.013515 1410.709022 3512.013515 1410.001708 C 3512.013515 1403.989536 3516.605326 1399.199089 3522.385228 1399.199089 C 3528.100909 1399.199089 3532.789052 1404.085988 3532.789052 1410.001708 Z M 3532.789052 1410.001708 " stroke="#fe5244" stroke-width="6" stroke-opacity="1" stroke-miterlimit="10"/><path fill="#3fb1b5" d="M 269.265625 123.203125 L 273.425781 123.203125 L 273.425781 178.582031 L 269.265625 178.582031 Z M 269.265625 123.203125 " fill-opacity="1" fill-rule="nonzero"/><path stroke-linecap="butt" transform="matrix(0.12165, 0, 0, 0.121498, -114.904368, -6.242532)" fill-opacity="1" fill="#ffffff" fill-rule="nonzero" stroke-linejoin="miter" d="M 3143.705318 1521.210803 L 3085.103534 1521.210803 C 3078.906195 1521.210803 3073.896946 1516.195302 3073.896946 1509.990227 L 3073.896946 1171.186685 C 3073.896946 1165.01376 3078.906195 1159.998259 3085.103534 1159.998259 L 3143.705318 1159.998259 C 3149.902657 1159.998259 3154.911905 1165.01376 3154.911905 1171.186685 L 3154.911905 1509.990227 C 3154.911905 1516.195302 3149.902657 1521.210803 3143.705318 1521.210803 Z M 3143.705318 1521.210803 " stroke="#ffcf2d" stroke-width="5" stroke-opacity="1" stroke-miterlimit="10"/><path stroke-linecap="butt" transform="matrix(0.12165, 0, 0, 0.121498, -114.904368, -6.242532)" fill="none" stroke-linejoin="miter" d="M 3332.194343 1513.912606 L 3264.890596 1513.912606 C 3260.00979 1513.912606 3255.803305 1510.408185 3254.904209 1505.585588 L 3194.504234 1191.795251 C 3193.284032 1185.493724 3198.100617 1179.706607 3204.49062 1179.706607 L 3271.794367 1179.706607 C 3276.707284 1179.706607 3280.913768 1183.211028 3281.812864 1188.001474 L 3342.21284 1501.791811 C 3343.400931 1508.093338 3338.584346 1513.912606 3332.194343 1513.912606 Z M 3332.194343 1513.912606 " stroke="#66b0f0" stroke-width="6" stroke-opacity="1" stroke-miterlimit="10"/><path fill="#fe5244" d="M 257.40625 178.582031 L 218.84375 178.582031 C 217.941406 178.582031 217.210938 177.851562 217.210938 176.953125 L 217.210938 169.066406 C 217.210938 168.167969 217.941406 167.4375 218.84375 167.4375 L 257.40625 167.4375 C 258.304688 167.4375 259.035156 168.167969 259.035156 169.066406 L 259.035156 176.953125 C 259.035156 177.851562 258.304688 178.582031 257.40625 178.582031 Z M 257.40625 178.582031 " fill-opacity="1" fill-rule="nonzero"/><path stroke-linecap="butt" transform="matrix(0.12165, 0, 0, 0.121498, -114.904368, -6.242532)" fill-opacity="1" fill="#ffffff" fill-rule="nonzero" stroke-linejoin="miter" d="M 1873.411308 408.798339 L 1873.411308 615.591315 C 1873.411308 656.101133 1840.497978 688.991247 1800.006553 688.991247 L 1570.704998 688.991247 C 1611.196423 688.991247 1644.109753 656.197585 1644.109753 615.591315 L 1644.109753 408.798339 Z M 1873.411308 408.798339 " stroke="#ffcf2d" stroke-width="5" stroke-opacity="1" stroke-miterlimit="10"/><path fill="#fe5244" d="M 97.863281 40.996094 L 100.113281 40.996094 L 100.113281 46.355469 L 97.863281 46.355469 Z M 97.863281 40.996094 " fill-opacity="1" fill-rule="nonzero"/><path fill="#ffcf2d" d="M 104.878906 52.976562 C 104.5625 52.976562 104.25 52.855469 103.992188 52.625 L 103.054688 51.796875 C 102.765625 51.542969 102.375 51.542969 102.082031 51.796875 L 101.195312 52.585938 C 100.671875 53.046875 99.941406 53.046875 99.40625 52.585938 L 98.589844 51.871094 C 98.300781 51.613281 97.910156 51.613281 97.617188 51.871094 L 96.863281 52.539062 C 96.339844 53 95.609375 53 95.074219 52.539062 L 94.457031 51.992188 C 94.164062 51.738281 93.773438 51.738281 93.480469 51.992188 L 92.8125 52.585938 C 92.289062 53.046875 91.558594 53.046875 91.023438 52.585938 L 90.40625 52.039062 C 90.113281 51.785156 89.722656 51.785156 89.429688 52.039062 C 89.308594 52.148438 89.113281 52.136719 89.003906 52.015625 C 88.894531 51.894531 88.90625 51.699219 89.03125 51.589844 C 89.554688 51.128906 90.28125 51.128906 90.816406 51.589844 L 91.4375 52.136719 C 91.730469 52.390625 92.121094 52.390625 92.410156 52.136719 L 93.082031 51.542969 C 93.605469 51.082031 94.332031 51.082031 94.867188 51.542969 L 95.488281 52.089844 C 95.78125 52.34375 96.171875 52.34375 96.460938 52.089844 L 97.214844 51.421875 C 97.738281 50.957031 98.46875 50.957031 99.003906 51.421875 L 99.820312 52.136719 C 100.113281 52.390625 100.5 52.390625 100.792969 52.136719 L 101.679688 51.347656 C 102.203125 50.886719 102.933594 50.886719 103.46875 51.347656 L 104.40625 52.175781 C 104.699219 52.429688 105.085938 52.429688 105.378906 52.175781 L 106.351562 51.3125 C 106.875 50.847656 107.605469 50.847656 108.140625 51.3125 C 108.261719 51.421875 108.273438 51.613281 108.164062 51.738281 C 108.054688 51.859375 107.859375 51.871094 107.738281 51.761719 C 107.449219 51.503906 107.058594 51.503906 106.765625 51.761719 L 105.792969 52.625 C 105.5 52.855469 105.195312 52.976562 104.878906 52.976562 Z M 104.878906 52.976562 " fill-opacity="1" fill-rule="nonzero"/><path fill="#ffcf2d" d="M 104.878906 57.96875 C 104.5625 57.96875 104.25 57.847656 103.992188 57.617188 L 103.054688 56.789062 C 102.765625 56.535156 102.375 56.535156 102.082031 56.789062 L 101.195312 57.582031 C 100.671875 58.042969 99.941406 58.042969 99.40625 57.582031 L 98.589844 56.863281 C 98.300781 56.609375 97.910156 56.609375 97.617188 56.863281 L 96.863281 57.53125 C 96.339844 57.992188 95.609375 57.992188 95.074219 57.53125 L 94.457031 56.984375 C 94.164062 56.730469 93.773438 56.730469 93.480469 56.984375 L 92.8125 57.582031 C 92.289062 58.042969 91.558594 58.042969 91.023438 57.582031 L 90.40625 57.035156 C 90.113281 56.777344 89.722656 56.777344 89.429688 57.035156 C 89.308594 57.144531 89.113281 57.132812 89.003906 57.007812 C 88.894531 56.886719 88.90625 56.695312 89.03125 56.585938 C 89.554688 56.121094 90.28125 56.121094 90.816406 56.585938 L 91.4375 57.132812 C 91.730469 57.386719 92.121094 57.386719 92.410156 57.132812 L 93.082031 56.535156 C 93.605469 56.074219 94.332031 56.074219 94.867188 56.535156 L 95.488281 57.082031 C 95.78125 57.335938 96.171875 57.335938 96.460938 57.082031 L 97.214844 56.414062 C 97.738281 55.953125 98.46875 55.953125 99.003906 56.414062 L 99.820312 57.132812 C 100.113281 57.386719 100.5 57.386719 100.792969 57.132812 L 101.679688 56.339844 C 102.203125 55.878906 102.933594 55.878906 103.46875 56.339844 L 104.40625 57.167969 C 104.699219 57.421875 105.085938 57.421875 105.378906 57.167969 L 106.351562 56.304688 C 106.875 55.84375 107.605469 55.84375 108.140625 56.304688 C 108.261719 56.414062 108.273438 56.609375 108.164062 56.730469 C 108.054688 56.851562 107.859375 56.863281 107.738281 56.753906 C 107.449219 56.5 107.058594 56.5 106.765625 56.753906 L 105.792969 57.617188 C 105.5 57.859375 105.195312 57.96875 104.878906 57.96875 Z M 104.878906 57.96875 " fill-opacity="1" fill-rule="nonzero"/><path fill="#ffcf2d" d="M 104.878906 62.964844 C 104.5625 62.964844 104.25 62.839844 103.992188 62.609375 L 103.054688 61.785156 C 102.765625 61.527344 102.375 61.527344 102.082031 61.785156 L 101.195312 62.574219 C 100.671875 63.035156 99.941406 63.035156 99.40625 62.574219 L 98.589844 61.855469 C 98.300781 61.601562 97.910156 61.601562 97.617188 61.855469 L 96.863281 62.527344 C 96.339844 62.988281 95.609375 62.988281 95.074219 62.527344 L 94.457031 61.980469 C 94.164062 61.722656 93.773438 61.722656 93.480469 61.980469 L 92.8125 62.574219 C 92.289062 63.035156 91.558594 63.035156 91.023438 62.574219 L 90.40625 62.027344 C 90.113281 61.773438 89.722656 61.773438 89.429688 62.027344 C 89.308594 62.136719 89.113281 62.125 89.003906 62.003906 C 88.894531 61.882812 88.90625 61.6875 89.03125 61.578125 C 89.554688 61.117188 90.28125 61.117188 90.816406 61.578125 L 91.4375 62.125 C 91.730469 62.378906 92.121094 62.378906 92.410156 62.125 L 93.082031 61.527344 C 93.605469 61.066406 94.332031 61.066406 94.867188 61.527344 L 95.488281 62.074219 C 95.78125 62.332031 96.171875 62.332031 96.460938 62.074219 L 97.214844 61.40625 C 97.738281 60.945312 98.46875 60.945312 99.003906 61.40625 L 99.820312 62.125 C 100.113281 62.378906 100.5 62.378906 100.792969 62.125 L 101.679688 61.335938 C 102.203125 60.875 102.933594 60.875 103.46875 61.335938 L 104.40625 62.160156 C 104.699219 62.417969 105.085938 62.417969 105.378906 62.160156 L 106.351562 61.296875 C 106.875 60.835938 107.605469 60.835938 108.140625 61.296875 C 108.261719 61.40625 108.273438 61.601562 108.164062 61.722656 C 108.054688 61.84375 107.859375 61.855469 107.738281 61.746094 C 107.449219 61.492188 107.058594 61.492188 106.765625 61.746094 L 105.792969 62.609375 C 105.5 62.855469 105.195312 62.964844 104.878906 62.964844 Z M 104.878906 62.964844 " fill-opacity="1" fill-rule="nonzero"/><path fill="#ffcf2d" d="M 104.878906 67.96875 C 104.5625 67.96875 104.25 67.847656 103.992188 67.617188 L 103.054688 66.789062 C 102.765625 66.535156 102.375 66.535156 102.082031 66.789062 L 101.195312 67.578125 C 100.671875 68.042969 99.941406 68.042969 99.40625 67.578125 L 98.589844 66.863281 C 98.300781 66.609375 97.910156 66.609375 97.617188 66.863281 L 96.863281 67.53125 C 96.339844 67.992188 95.609375 67.992188 95.074219 67.53125 L 94.457031 66.984375 C 94.164062 66.730469 93.773438 66.730469 93.480469 66.984375 L 92.8125 67.578125 C 92.289062 68.042969 91.558594 68.042969 91.023438 67.578125 L 90.40625 67.03125 C 90.113281 66.777344 89.722656 66.777344 89.429688 67.03125 C 89.308594 67.140625 89.113281 67.128906 89.003906 67.007812 C 88.894531 66.886719 88.90625 66.691406 89.03125 66.582031 C 89.554688 66.121094 90.28125 66.121094 90.816406 66.582031 L 91.4375 67.128906 C 91.730469 67.386719 92.121094 67.386719 92.410156 67.128906 L 93.082031 66.535156 C 93.605469 66.074219 94.332031 66.074219 94.867188 66.535156 L 95.488281 67.082031 C 95.78125 67.335938 96.171875 67.335938 96.460938 67.082031 L 97.214844 66.414062 C 97.738281 65.953125 98.46875 65.953125 99.003906 66.414062 L 99.820312 67.128906 C 100.113281 67.386719 100.5 67.386719 100.792969 67.128906 L 101.679688 66.339844 C 102.203125 65.878906 102.933594 65.878906 103.46875 66.339844 L 104.40625 67.167969 C 104.699219 67.421875 105.085938 67.421875 105.378906 67.167969 L 106.351562 66.304688 C 106.875 65.84375 107.605469 65.84375 108.140625 66.304688 C 108.261719 66.414062 108.273438 66.609375 108.164062 66.730469 C 108.054688 66.851562 107.859375 66.863281 107.738281 66.753906 C 107.449219 66.5 107.058594 66.5 106.765625 66.753906 L 105.792969 67.617188 C 105.5 67.847656 105.195312 67.96875 104.878906 67.96875 Z M 104.878906 67.96875 " fill-opacity="1" fill-rule="nonzero"/><path fill="#66b0f0" d="M 122.203125 43.425781 L 141.714844 43.425781 L 141.714844 62.914062 L 122.203125 62.914062 Z M 122.203125 43.425781 " fill-opacity="1" fill-rule="nonzero"/><path fill="#ffcf2d" d="M 125.066406 40.839844 L 126.480469 42.589844 L 121.324219 46.753906 L 119.910156 45.003906 Z M 125.066406 40.839844 " fill-opacity="1" fill-rule="nonzero"/><path fill="#ffcf2d" d="M 144.132812 45 L 142.71875 46.75 L 137.5625 42.585938 L 138.976562 40.839844 Z M 144.132812 45 " fill-opacity="1" fill-rule="nonzero"/><path fill="#ffffff" d="M 125.753906 48.042969 L 137.59375 48.042969 L 137.59375 48.773438 L 125.753906 48.773438 Z M 125.753906 48.042969 " fill-opacity="1" fill-rule="nonzero"/><path fill="#ffffff" d="M 125.753906 51.191406 L 137.59375 51.191406 L 137.59375 51.917969 L 125.753906 51.917969 Z M 125.753906 51.191406 " fill-opacity="1" fill-rule="nonzero"/><path fill="#ffffff" d="M 125.753906 54.347656 L 137.59375 54.347656 L 137.59375 55.078125 L 125.753906 55.078125 Z M 125.753906 54.347656 " fill-opacity="1" fill-rule="nonzero"/><path fill="#ffffff" d="M 125.753906 57.496094 L 137.59375 57.496094 L 137.59375 58.222656 L 125.753906 58.222656 Z M 125.753906 57.496094 " fill-opacity="1" fill-rule="nonzero"/><path stroke-linecap="butt" transform="matrix(0.12165, 0, 0, 0.121498, -114.904368, -6.242532)" fill-opacity="1" fill="#ffffff" fill-rule="nonzero" stroke-linejoin="miter" d="M 2722.607349 1521.210803 L 2348.711913 1521.210803 L 2421.08913 1361.197022 L 2431.685617 1337.694897 L 2639.601535 1337.694897 L 2668.79004 1402.1891 Z M 2722.607349 1521.210803 " stroke="#66b0f0" stroke-width="6" stroke-opacity="1" stroke-miterlimit="10"/><path fill="#66b0f0" d="M 209.753906 164.121094 L 179.621094 159.140625 L 180.910156 156.285156 L 206.203125 156.285156 Z M 209.753906 164.121094 " fill-opacity="1" fill-rule="nonzero"/><path stroke-linecap="butt" transform="matrix(0.12165, 0, 0, 0.121498, -114.904368, -6.242532)" fill-opacity="1" fill="#ffffff" fill-rule="nonzero" stroke-linejoin="miter" d="M 2976.312935 1337.694897 L 2096.194419 1337.694897 C 2063.891189 1337.694897 2037.785298 1311.492118 2037.785298 1279.309318 L 2037.785298 704.809367 C 2037.785298 672.497964 2063.98752 646.391637 2096.194419 646.391637 L 2976.312935 646.391637 C 3008.616165 646.391637 3034.689945 672.594416 3034.689945 704.809367 L 3034.689945 1279.212866 C 3034.689945 1311.492118 3008.487722 1337.694897 2976.312935 1337.694897 Z M 2976.312935 1337.694897 " stroke="#66b0f0" stroke-width="6" stroke-opacity="1" stroke-miterlimit="10"/><path fill="#66b0f0" d="M 215.082031 151.351562 L 172.164062 151.351562 C 170.074219 151.351562 168.382812 149.664062 168.382812 147.574219 L 168.382812 142.386719 C 168.382812 140.296875 170.074219 138.609375 172.164062 138.609375 L 215.082031 138.609375 C 217.175781 138.609375 218.867188 140.296875 218.867188 142.386719 L 218.867188 147.574219 C 218.867188 149.664062 217.164062 151.351562 215.082031 151.351562 Z M 215.082031 151.351562 " fill-opacity="1" fill-rule="nonzero"/><path fill="#ffffff" d="M 203.820312 147.890625 L 200.921875 147.890625 C 200.207031 147.890625 199.621094 147.308594 199.621094 146.589844 L 199.621094 144.332031 C 199.621094 143.613281 200.207031 143.03125 200.921875 143.03125 L 203.820312 143.03125 C 204.535156 143.03125 205.121094 143.613281 205.121094 144.332031 L 205.121094 146.589844 C 205.121094 147.308594 204.535156 147.890625 203.820312 147.890625 Z M 203.820312 147.890625 " fill-opacity="1" fill-rule="nonzero"/><path fill="#ffffff" d="M 207.503906 147.511719 L 206.433594 146.832031 C 206.140625 146.652344 205.960938 146.324219 205.960938 145.96875 L 205.960938 144.949219 C 205.960938 144.597656 206.140625 144.269531 206.433594 144.085938 L 207.503906 143.40625 C 207.761719 143.25 208.089844 143.429688 208.089844 143.722656 L 208.089844 147.1875 C 208.101562 147.488281 207.761719 147.671875 207.503906 147.511719 Z M 207.503906 147.511719 " fill-opacity="1" fill-rule="nonzero"/><path fill="#ffffff" d="M 192.847656 146.75 L 192.578125 146.75 C 191.519531 146.75 190.65625 145.886719 190.65625 144.828125 L 190.65625 143.699219 C 190.65625 143.601562 190.742188 143.515625 190.839844 143.515625 L 194.574219 143.515625 C 194.671875 143.515625 194.753906 143.601562 194.753906 143.699219 L 194.753906 144.828125 C 194.769531 145.886719 193.902344 146.75 192.847656 146.75 Z M 191.019531 143.878906 L 191.019531 144.828125 C 191.019531 145.679688 191.714844 146.382812 192.578125 146.382812 L 192.847656 146.382812 C 193.699219 146.382812 194.402344 145.691406 194.402344 144.828125 L 194.402344 143.878906 Z M 191.019531 143.878906 " fill-opacity="1" fill-rule="nonzero"/><path fill="#ffffff" d="M 192.710938 148.851562 C 192.613281 148.851562 192.53125 148.765625 192.53125 148.667969 L 192.53125 147.292969 C 192.53125 147.199219 192.613281 147.113281 192.710938 147.113281 C 192.808594 147.113281 192.894531 147.199219 192.894531 147.292969 L 192.894531 148.667969 C 192.894531 148.765625 192.808594 148.851562 192.710938 148.851562 Z M 192.710938 148.851562 " fill-opacity="1" fill-rule="nonzero"/><path fill="#ffffff" d="M 193.671875 148.851562 L 191.761719 148.851562 C 191.664062 148.851562 191.582031 148.765625 191.582031 148.667969 C 191.582031 148.570312 191.664062 148.484375 191.761719 148.484375 L 193.671875 148.484375 C 193.769531 148.484375 193.855469 148.570312 193.855469 148.667969 C 193.855469 148.765625 193.769531 148.851562 193.671875 148.851562 Z M 193.671875 148.851562 " fill-opacity="1" fill-rule="nonzero"/><path fill="#ffffff" d="M 192.796875 145.898438 L 192.625 145.898438 C 192.019531 145.898438 191.53125 145.410156 191.53125 144.804688 L 191.53125 142.59375 C 191.53125 141.984375 192.019531 141.5 192.625 141.5 L 192.796875 141.5 C 193.40625 141.5 193.890625 141.984375 193.890625 142.59375 L 193.890625 144.804688 C 193.890625 145.410156 193.40625 145.898438 192.796875 145.898438 Z M 192.796875 145.898438 " fill-opacity="1" fill-rule="nonzero"/><path fill="#ffffff" d="M 181.605469 144.523438 L 181.59375 144.535156 C 181.363281 144.816406 181.433594 145.242188 181.738281 145.496094 L 182.859375 146.394531 C 183.164062 146.640625 183.601562 146.613281 183.832031 146.335938 L 183.84375 146.324219 C 184.074219 146.042969 184.511719 146.03125 184.804688 146.285156 L 185.8125 147.199219 C 186.128906 147.488281 186.128906 147.976562 185.8125 148.195312 C 184.757812 148.933594 183.382812 148.667969 182.25 147.757812 L 180.546875 146.382812 C 179.414062 145.460938 178.867188 144.171875 179.367188 142.980469 C 179.523438 142.617188 180 142.519531 180.339844 142.773438 L 181.445312 143.578125 C 181.75 143.820312 181.824219 144.246094 181.605469 144.523438 Z M 181.605469 144.523438 " fill-opacity="1" fill-rule="nonzero"/><path fill="#ffffff" d="M 184.574219 145.230469 C 184.476562 145.230469 184.402344 145.15625 184.390625 145.058594 C 184.332031 144.183594 183.574219 143.515625 182.699219 143.578125 C 182.601562 143.578125 182.519531 143.503906 182.503906 143.40625 C 182.492188 143.308594 182.578125 143.226562 182.675781 143.210938 C 183.757812 143.140625 184.683594 143.964844 184.757812 145.035156 C 184.769531 145.132812 184.695312 145.21875 184.574219 145.230469 C 184.585938 145.230469 184.585938 145.230469 184.574219 145.230469 Z M 184.574219 145.230469 " fill-opacity="1" fill-rule="nonzero"/><path fill="#ffffff" d="M 185.71875 145.046875 C 185.621094 145.046875 185.546875 144.972656 185.535156 144.878906 C 185.484375 144.148438 185.15625 143.46875 184.597656 142.980469 C 184.039062 142.496094 183.332031 142.253906 182.601562 142.300781 C 182.503906 142.300781 182.421875 142.226562 182.40625 142.132812 C 182.394531 142.035156 182.480469 141.949219 182.578125 141.9375 C 183.40625 141.886719 184.207031 142.15625 184.839844 142.703125 C 185.472656 143.25 185.839844 144.015625 185.898438 144.839844 C 185.910156 144.960938 185.828125 145.046875 185.71875 145.046875 C 185.730469 145.046875 185.730469 145.046875 185.71875 145.046875 Z M 185.71875 145.046875 " fill-opacity="1" fill-rule="nonzero"/><path stroke-linecap="butt" transform="matrix(0.12165, 0, 0, 0.121498, -114.904368, -6.242532)" fill="none" stroke-linejoin="miter" d="M 2819.806034 690.08437 C 2819.806034 691.466847 2819.549149 692.817175 2819.00327 694.07105 C 2818.489501 695.357076 2817.718847 696.482349 2816.75553 697.446868 C 2815.792213 698.443538 2814.668343 699.183003 2813.383921 699.697414 C 2812.099498 700.243975 2810.782965 700.50118 2809.40221 700.50118 C 2808.021456 700.50118 2806.704923 700.243975 2805.4205 699.697414 C 2804.136077 699.183003 2803.012208 698.443538 2802.048891 697.446868 C 2801.085574 696.482349 2800.31492 695.357076 2799.801151 694.07105 C 2799.255271 692.817175 2798.998387 691.466847 2798.998387 690.08437 C 2798.998387 688.734042 2799.255271 687.383715 2799.801151 686.12984 C 2800.31492 684.843814 2801.085574 683.718541 2802.048891 682.754021 C 2803.012208 681.757351 2804.136077 681.017886 2805.4205 680.503476 C 2806.704923 679.956915 2808.021456 679.69971 2809.40221 679.69971 C 2810.782965 679.69971 2812.099498 679.956915 2813.383921 680.503476 C 2814.668343 681.017886 2815.792213 681.757351 2816.75553 682.754021 C 2817.718847 683.718541 2818.489501 684.843814 2819.00327 686.12984 C 2819.549149 687.383715 2819.806034 688.734042 2819.806034 690.08437 Z M 2819.806034 690.08437 " stroke="#ffcf2d" stroke-width="5" stroke-opacity="1" stroke-miterlimit="10"/><path stroke-linecap="butt" transform="matrix(0.12165, 0, 0, 0.121498, -114.904368, -6.242532)" fill="none" stroke-linejoin="miter" d="M 2862.288313 690.08437 C 2862.288313 691.466847 2862.031429 692.817175 2861.51766 694.07105 C 2860.97178 695.357076 2860.233237 696.482349 2859.237809 697.446868 C 2858.274492 698.443538 2857.150623 699.183003 2855.8662 699.697414 C 2854.613888 700.243975 2853.265244 700.50118 2851.88449 700.50118 C 2850.535846 700.50118 2849.187202 700.243975 2847.93489 699.697414 C 2846.650467 699.183003 2845.526598 698.443538 2844.53117 697.446868 C 2843.567853 696.482349 2842.82931 695.357076 2842.28343 694.07105 C 2841.769661 692.817175 2841.512777 691.466847 2841.512777 690.08437 C 2841.512777 688.734042 2841.769661 687.383715 2842.28343 686.12984 C 2842.82931 684.843814 2843.567853 683.718541 2844.53117 682.754021 C 2845.526598 681.757351 2846.650467 681.017886 2847.93489 680.503476 C 2849.187202 679.956915 2850.535846 679.69971 2851.88449 679.69971 C 2853.265244 679.69971 2854.613888 679.956915 2855.8662 680.503476 C 2857.150623 681.017886 2858.274492 681.757351 2859.237809 682.754021 C 2860.233237 683.718541 2860.97178 684.843814 2861.51766 686.12984 C 2862.031429 687.383715 2862.288313 688.734042 2862.288313 690.08437 Z M 2862.288313 690.08437 " stroke="#ffcf2d" stroke-width="5" stroke-opacity="1" stroke-miterlimit="10"/><path stroke-linecap="butt" transform="matrix(0.12165, 0, 0, 0.121498, -114.904368, -6.242532)" fill="none" stroke-linejoin="miter" d="M 2904.899035 690.08437 C 2904.899035 691.466847 2904.64215 692.817175 2904.096271 694.07105 C 2903.582502 695.357076 2902.843959 696.482349 2901.848531 697.446868 C 2900.885214 698.443538 2899.761344 699.183003 2898.476922 699.697414 C 2897.192499 700.243975 2895.875966 700.50118 2894.495211 700.50118 C 2893.114457 700.50118 2891.797924 700.243975 2890.513501 699.697414 C 2889.261189 699.183003 2888.105209 698.443538 2887.141892 697.446868 C 2886.178575 696.482349 2885.407921 695.357076 2884.894152 694.07105 C 2884.348272 692.817175 2884.091388 691.466847 2884.091388 690.08437 C 2884.091388 688.734042 2884.348272 687.383715 2884.894152 686.12984 C 2885.407921 684.843814 2886.178575 683.718541 2887.141892 682.754021 C 2888.105209 681.757351 2889.261189 681.017886 2890.513501 680.503476 C 2891.797924 679.956915 2893.114457 679.69971 2894.495211 679.69971 C 2895.875966 679.69971 2897.192499 679.956915 2898.476922 680.503476 C 2899.761344 681.017886 2900.885214 681.757351 2901.848531 682.754021 C 2902.843959 683.718541 2903.582502 684.843814 2904.096271 686.12984 C 2904.64215 687.383715 2904.899035 688.734042 2904.899035 690.08437 Z M 2904.899035 690.08437 " stroke="#ffcf2d" stroke-width="5" stroke-opacity="1" stroke-miterlimit="10"/><path stroke-linecap="butt" transform="matrix(0.12165, 0, 0, 0.121498, -114.904368, -6.242532)" fill="none" stroke-linejoin="miter" d="M 2499.214138 1166.589142 L 2185.81501 1166.589142 C 2176.21395 1166.589142 2168.507414 1158.808685 2168.507414 1149.292093 L 2168.507414 981.497854 C 2168.507414 971.88481 2176.310282 964.200805 2185.81501 964.200805 L 2499.214138 964.200805 C 2508.815198 964.200805 2516.489623 972.013413 2516.489623 981.497854 L 2516.489623 1149.292093 C 2516.489623 1158.808685 2508.815198 1166.589142 2499.214138 1166.589142 Z M 2499.214138 1166.589142 " stroke="#66b0f0" stroke-width="6" stroke-opacity="1" stroke-miterlimit="10"/><path fill="#3fb1b5" d="M 237.210938 135.496094 L 199.085938 135.496094 C 197.917969 135.496094 196.980469 134.550781 196.980469 133.394531 L 196.980469 113.007812 C 196.980469 111.839844 197.929688 110.90625 199.085938 110.90625 L 237.210938 110.90625 C 238.378906 110.90625 239.316406 111.855469 239.316406 113.007812 L 239.316406 133.394531 C 239.316406 134.550781 238.378906 135.496094 237.210938 135.496094 Z M 237.210938 135.496094 " fill-opacity="1" fill-rule="nonzero"/><path fill="#fe5244" d="M 230.011719 135.4375 L 205.097656 135.4375 C 207.613281 132.339844 211.457031 130.347656 215.765625 130.347656 L 219.339844 130.347656 C 223.648438 130.359375 227.492188 132.339844 230.011719 135.4375 Z M 230.011719 135.4375 " fill-opacity="1" fill-rule="nonzero"/><path fill="#ffffff" d="M 216.773438 130.359375 C 216.53125 132.191406 214.960938 133.601562 213.0625 133.601562 C 211.664062 133.601562 210.449219 132.835938 209.804688 131.707031 C 211.605469 130.84375 213.625 130.359375 215.753906 130.359375 Z M 216.773438 130.359375 " fill-opacity="1" fill-rule="nonzero"/><path fill="#ffffff" d="M 224.132812 131.207031 C 223.585938 132.605469 222.238281 133.589844 220.644531 133.589844 C 218.746094 133.589844 217.175781 132.179688 216.933594 130.347656 L 219.351562 130.347656 C 221.03125 130.359375 222.636719 130.648438 224.132812 131.207031 Z M 224.132812 131.207031 " fill-opacity="1" fill-rule="nonzero"/><path fill="#a0505a" d="M 221.398438 124.9375 L 221.398438 130.457031 C 221.398438 131.316406 219.667969 132.011719 217.554688 132.011719 C 217.164062 132.011719 216.785156 131.984375 216.433594 131.949219 C 214.851562 131.753906 213.707031 131.160156 213.707031 130.457031 L 213.707031 124.9375 Z M 221.398438 124.9375 " fill-opacity="1" fill-rule="nonzero"/><path fill="#73325a" d="M 220.886719 126.070312 C 220.886719 128.460938 218.792969 131.367188 216.433594 131.9375 C 214.851562 131.742188 213.707031 131.148438 213.707031 130.441406 L 213.707031 124.925781 L 220.765625 124.925781 Z M 220.886719 126.070312 " fill-opacity="1" fill-rule="nonzero"/><path fill="#a0505a" d="M 223.367188 124.234375 L 223.367188 124.367188 C 223.367188 125.304688 222.601562 126.070312 221.664062 126.070312 L 220.035156 126.070312 C 219.292969 127.660156 217.675781 128.753906 215.800781 128.753906 L 215.484375 128.753906 C 213.390625 128.753906 211.703125 127.066406 211.703125 124.976562 L 211.703125 121.074219 C 214.121094 121.234375 217.199219 119.121094 217.199219 119.121094 C 218.210938 123.019531 221.09375 122.972656 222.429688 122.714844 C 222.976562 122.996094 223.367188 123.578125 223.367188 124.234375 Z M 223.367188 124.234375 " fill-opacity="1" fill-rule="nonzero"/><path fill="#73325a" d="M 220.972656 124.828125 C 220.875 124.828125 220.789062 124.746094 220.789062 124.648438 C 220.789062 123.871094 221.421875 123.238281 222.199219 123.238281 C 222.296875 123.238281 222.382812 123.324219 222.382812 123.421875 C 222.382812 123.519531 222.296875 123.601562 222.199219 123.601562 C 221.628906 123.601562 221.152344 124.0625 221.152344 124.648438 C 221.152344 124.746094 221.070312 124.828125 220.972656 124.828125 Z M 220.972656 124.828125 " fill-opacity="1" fill-rule="nonzero"/><path fill="#ffcf2d" d="M 221.398438 126.070312 L 221.664062 126.070312 C 222.601562 126.070312 223.367188 125.304688 223.367188 124.367188 L 223.367188 124.234375 C 223.367188 123.566406 222.992188 122.996094 222.429688 122.714844 C 222.066406 122.789062 221.566406 122.835938 221.03125 122.800781 C 219.644531 122.691406 217.929688 121.9375 217.199219 119.121094 C 217.199219 119.121094 214.121094 121.234375 211.703125 121.074219 C 211.25 121.050781 210.824219 120.941406 210.449219 120.722656 C 208.441406 119.582031 213.296875 114.234375 218.867188 115.035156 C 223.320312 115.679688 223.222656 121.003906 223.136719 122.265625 C 223.355469 122.242188 223.574219 122.230469 223.792969 122.230469 C 227.054688 122.230469 229.695312 124.734375 229.695312 127.832031 C 229.695312 129.847656 228.574219 131.621094 226.882812 132.605469 C 225.265625 131.535156 223.402344 130.808594 221.398438 130.503906 Z M 221.398438 126.070312 " fill-opacity="1" fill-rule="nonzero"/><path fill="#73325a" d="M 214.160156 124.964844 C 214.132812 124.964844 214.109375 124.964844 214.097656 124.953125 C 214 124.914062 213.953125 124.804688 213.988281 124.71875 C 213.988281 124.707031 214.351562 123.722656 213.746094 122.667969 C 213.222656 121.757812 212.066406 121.914062 212.019531 121.925781 C 211.921875 121.9375 211.824219 121.878906 211.8125 121.769531 C 211.800781 121.671875 211.859375 121.574219 211.96875 121.5625 C 212.03125 121.550781 213.417969 121.355469 214.074219 122.484375 C 214.765625 123.6875 214.355469 124.804688 214.339844 124.84375 C 214.292969 124.914062 214.230469 124.964844 214.160156 124.964844 Z M 214.160156 124.964844 " fill-opacity="1" fill-rule="nonzero"/><path fill="#73325a" d="M 218.308594 122.65625 C 218.269531 122.65625 218.234375 122.644531 218.199219 122.617188 C 217.140625 121.804688 215.726562 121.902344 215.714844 121.902344 C 215.617188 121.914062 215.535156 121.828125 215.519531 121.730469 C 215.507812 121.632812 215.59375 121.550781 215.691406 121.539062 C 215.753906 121.539062 217.25 121.429688 218.417969 122.328125 C 218.5 122.386719 218.515625 122.496094 218.453125 122.582031 C 218.40625 122.628906 218.355469 122.65625 218.308594 122.65625 Z M 218.308594 122.65625 " fill-opacity="1" fill-rule="nonzero"/><path fill="#ffffff" d="M 213.527344 125.375 C 213.527344 125.375 213.816406 127.296875 215.800781 125.425781 C 215.800781 125.425781 214.414062 125.609375 213.527344 125.375 Z M 213.527344 125.375 " fill-opacity="1" fill-rule="nonzero"/><path fill="#73325a" d="M 216.835938 123.191406 C 216.835938 123.347656 216.808594 123.480469 216.761719 123.59375 C 216.710938 123.703125 216.648438 123.761719 216.578125 123.761719 C 216.507812 123.761719 216.449219 123.703125 216.398438 123.59375 C 216.347656 123.480469 216.324219 123.347656 216.324219 123.191406 C 216.324219 123.03125 216.347656 122.898438 216.398438 122.785156 C 216.449219 122.675781 216.507812 122.617188 216.578125 122.617188 C 216.648438 122.617188 216.710938 122.675781 216.761719 122.785156 C 216.808594 122.898438 216.835938 123.03125 216.835938 123.191406 Z M 216.835938 123.191406 " fill-opacity="1" fill-rule="nonzero"/><path fill="#73325a" d="M 213.003906 123.191406 C 213.003906 123.320312 212.980469 123.433594 212.9375 123.523438 C 212.894531 123.617188 212.84375 123.664062 212.785156 123.664062 C 212.722656 123.664062 212.671875 123.617188 212.628906 123.523438 C 212.585938 123.433594 212.566406 123.320312 212.566406 123.191406 C 212.566406 123.058594 212.585938 122.945312 212.628906 122.855469 C 212.671875 122.761719 212.722656 122.714844 212.785156 122.714844 C 212.84375 122.714844 212.894531 122.761719 212.9375 122.855469 C 212.980469 122.945312 213.003906 123.058594 213.003906 123.191406 Z M 213.003906 123.191406 " fill-opacity="1" fill-rule="nonzero"/><path fill="#66b0f0" d="M 236.738281 107.636719 L 198.613281 107.636719 C 197.445312 107.636719 196.507812 106.691406 196.507812 105.535156 L 196.507812 85.148438 C 196.507812 83.980469 197.457031 83.046875 198.613281 83.046875 L 236.738281 83.046875 C 237.90625 83.046875 238.839844 83.996094 238.839844 85.148438 L 238.839844 105.535156 C 238.839844 106.691406 237.894531 107.636719 236.738281 107.636719 Z M 236.738281 107.636719 " fill-opacity="1" fill-rule="nonzero"/><path fill="#ffcf2d" d="M 228.976562 107.636719 L 205.703125 107.636719 C 208.050781 104.515625 211.640625 102.523438 215.667969 102.523438 L 219.011719 102.523438 C 223.039062 102.523438 226.628906 104.515625 228.976562 107.636719 Z M 228.976562 107.636719 " fill-opacity="1" fill-rule="nonzero"/><path fill="#ffffff" d="M 216.105469 106.59375 L 216.628906 106.59375 C 218.902344 106.59375 220.753906 104.746094 220.753906 102.472656 L 220.753906 99.546875 C 220.753906 99.535156 220.738281 99.523438 220.726562 99.523438 L 213.078125 99.523438 C 213.0625 99.523438 213.050781 99.535156 213.050781 99.546875 L 213.050781 103.566406 C 213.0625 105.246094 214.425781 106.59375 216.105469 106.59375 Z M 216.105469 106.59375 " fill-opacity="1" fill-rule="nonzero"/><path fill="#ffcf2d" d="M 213.0625 99.523438 L 213.0625 103.46875 C 213.0625 103.519531 213.0625 103.578125 213.0625 103.628906 C 213.171875 105.886719 218.804688 105 220.496094 99.523438 Z M 213.0625 99.523438 " fill-opacity="1" fill-rule="nonzero"/><path fill="#ffffff" d="M 222.976562 97.761719 C 222.976562 98.246094 222.785156 98.683594 222.457031 99.011719 C 222.140625 99.328125 221.699219 99.523438 221.203125 99.523438 L 219.535156 99.523438 C 218.941406 101.101562 217.40625 102.21875 215.617188 102.21875 L 214.316406 102.21875 C 212.503906 102.21875 211.042969 100.75 211.042969 98.949219 L 211.042969 93.847656 C 212.917969 94.003906 214.5 92.5 214.558594 92.4375 C 214.535156 92.523438 213.585938 95.195312 215.742188 95.34375 C 217.882812 95.488281 218.585938 93.945312 218.609375 93.882812 C 218.609375 93.945312 218.625 96.011719 220.3125 96.121094 L 221.203125 96.121094 C 222.1875 96.121094 222.976562 96.789062 222.976562 97.761719 Z M 222.976562 97.761719 " fill-opacity="1" fill-rule="nonzero"/><path fill="#fe5244" d="M 220.472656 96.121094 L 220.4375 96.121094 C 220.398438 96.121094 220.363281 96.121094 220.328125 96.121094 C 218.636719 96.011719 218.625 93.957031 218.625 93.882812 C 218.597656 93.945312 217.882812 95.488281 215.753906 95.34375 C 213.613281 95.195312 214.546875 92.523438 214.574219 92.4375 C 214.511719 92.488281 212.929688 94.003906 211.058594 93.847656 C 210.644531 93.8125 210.230469 93.703125 209.804688 93.472656 C 207.066406 91.988281 208.832031 88.9375 211.519531 88.902344 C 213.660156 88.878906 214.574219 90.042969 214.574219 90.042969 C 214.574219 90.042969 215.035156 87.652344 217.664062 88.066406 C 220.289062 88.476562 219.816406 90.796875 219.816406 90.796875 C 219.816406 90.796875 222.015625 89.777344 223.234375 91.660156 C 224.667969 93.871094 222.515625 96.121094 220.472656 96.121094 Z M 220.472656 96.121094 " fill-opacity="1" fill-rule="nonzero"/><path fill="#ffcf2d" d="M 213.28125 98.34375 C 213.269531 98.34375 213.257812 98.34375 213.234375 98.34375 C 213.136719 98.320312 213.078125 98.222656 213.101562 98.125 C 213.101562 98.113281 213.390625 96.910156 212.871094 95.925781 C 212.296875 94.878906 211.3125 95.050781 211.277344 95.050781 C 211.179688 95.0625 211.082031 95.003906 211.070312 94.90625 C 211.042969 94.808594 211.117188 94.710938 211.214844 94.699219 C 211.226562 94.699219 212.503906 94.46875 213.199219 95.753906 C 213.792969 96.859375 213.476562 98.160156 213.464844 98.210938 C 213.429688 98.28125 213.355469 98.34375 213.28125 98.34375 Z M 213.28125 98.34375 " fill-opacity="1" fill-rule="nonzero"/><path fill="#ffcf2d" d="M 213.925781 99.753906 C 213.671875 99.753906 213.441406 99.714844 213.269531 99.667969 C 213.171875 99.644531 213.113281 99.546875 213.136719 99.449219 C 213.160156 99.351562 213.257812 99.289062 213.355469 99.316406 C 213.417969 99.328125 214.804688 99.691406 215.316406 98.621094 C 215.363281 98.539062 215.460938 98.488281 215.558594 98.539062 C 215.65625 98.585938 215.691406 98.683594 215.644531 98.78125 C 215.289062 99.546875 214.546875 99.753906 213.925781 99.753906 Z M 213.925781 99.753906 " fill-opacity="1" fill-rule="nonzero"/><path fill="#ffcf2d" d="M 215.945312 96.3125 C 215.945312 96.472656 215.921875 96.605469 215.871094 96.71875 C 215.824219 96.828125 215.761719 96.886719 215.691406 96.886719 C 215.621094 96.886719 215.5625 96.828125 215.511719 96.71875 C 215.460938 96.605469 215.4375 96.472656 215.4375 96.3125 C 215.4375 96.15625 215.460938 96.023438 215.511719 95.910156 C 215.5625 95.800781 215.621094 95.742188 215.691406 95.742188 C 215.761719 95.742188 215.824219 95.800781 215.871094 95.910156 C 215.921875 96.023438 215.945312 96.15625 215.945312 96.3125 Z M 215.945312 96.3125 " fill-opacity="1" fill-rule="nonzero"/><path fill="#ffcf2d" d="M 212.128906 96.3125 C 212.128906 96.445312 212.105469 96.558594 212.0625 96.648438 C 212.019531 96.742188 211.96875 96.789062 211.910156 96.789062 C 211.847656 96.789062 211.796875 96.742188 211.753906 96.648438 C 211.710938 96.558594 211.6875 96.445312 211.6875 96.3125 C 211.6875 96.183594 211.710938 96.070312 211.753906 95.980469 C 211.796875 95.886719 211.847656 95.839844 211.910156 95.839844 C 211.96875 95.839844 212.019531 95.886719 212.0625 95.980469 C 212.105469 96.070312 212.128906 96.183594 212.128906 96.3125 Z M 212.128906 96.3125 " fill-opacity="1" fill-rule="nonzero"/><path fill="#ffcf2d" d="M 220.289062 98.429688 C 220.191406 98.429688 220.109375 98.34375 220.109375 98.246094 C 220.109375 97.46875 220.738281 96.835938 221.519531 96.835938 C 221.617188 96.835938 221.699219 96.921875 221.699219 97.019531 C 221.699219 97.117188 221.617188 97.199219 221.519531 97.199219 C 220.945312 97.199219 220.472656 97.664062 220.472656 98.246094 C 220.472656 98.34375 220.386719 98.429688 220.289062 98.429688 Z M 220.289062 98.429688 " fill-opacity="1" fill-rule="nonzero"/><path fill="#ffcf2d" d="M 188.636719 107.636719 L 150.511719 107.636719 C 149.34375 107.636719 148.40625 106.691406 148.40625 105.535156 L 148.40625 85.148438 C 148.40625 83.980469 149.355469 83.046875 150.511719 83.046875 L 188.636719 83.046875 C 189.804688 83.046875 190.742188 83.996094 190.742188 85.148438 L 190.742188 105.535156 C 190.753906 106.691406 189.804688 107.636719 188.636719 107.636719 Z M 188.636719 107.636719 " fill-opacity="1" fill-rule="nonzero"/><path fill="#ffffff" d="M 179.429688 107.636719 L 155.777344 107.636719 C 158.164062 104.078125 161.8125 101.804688 165.898438 101.804688 L 169.304688 101.804688 C 173.394531 101.804688 177.03125 104.078125 179.429688 107.636719 Z M 179.429688 107.636719 " fill-opacity="1" fill-rule="nonzero"/><path fill="#feb040" d="M 179.429688 107.636719 L 155.777344 107.636719 C 155.851562 107.527344 155.925781 107.429688 155.996094 107.320312 C 156.011719 107.296875 156.023438 107.273438 156.046875 107.261719 L 179.171875 107.261719 C 179.183594 107.285156 179.195312 107.296875 179.222656 107.320312 C 179.28125 107.417969 179.355469 107.527344 179.429688 107.636719 Z M 179.429688 107.636719 " fill-opacity="1" fill-rule="nonzero"/><path fill="#feb040" d="M 178.429688 106.3125 L 156.777344 106.3125 C 156.886719 106.179688 156.996094 106.058594 157.105469 105.9375 L 178.101562 105.9375 C 178.210938 106.058594 178.320312 106.179688 178.429688 106.3125 Z M 178.429688 106.3125 " fill-opacity="1" fill-rule="nonzero"/><path fill="#feb040" d="M 177.09375 104.929688 L 158.113281 104.929688 C 158.261719 104.792969 158.40625 104.671875 158.550781 104.550781 L 176.652344 104.550781 C 176.800781 104.671875 176.945312 104.792969 177.09375 104.929688 Z M 177.09375 104.929688 " fill-opacity="1" fill-rule="nonzero"/><path fill="#feb040" d="M 175.046875 103.410156 L 160.144531 103.410156 C 160.363281 103.277344 160.597656 103.15625 160.828125 103.03125 L 174.355469 103.03125 C 174.597656 103.15625 174.816406 103.277344 175.046875 103.410156 Z M 175.046875 103.410156 " fill-opacity="1" fill-rule="nonzero"/><path fill="#e57281" d="M 171.375 97.261719 L 171.375 102.691406 C 171.375 103.25 169.648438 103.703125 167.53125 103.703125 C 165.460938 103.703125 163.769531 103.277344 163.6875 102.730469 C 163.6875 102.71875 163.6875 102.703125 163.6875 102.691406 L 163.6875 97.261719 Z M 171.375 97.261719 " fill-opacity="1" fill-rule="nonzero"/><path fill="#9a3b82" d="M 171.324219 97.261719 L 171.324219 97.382812 C 171.324219 100.054688 168.003906 103.117188 165.609375 103.46875 C 165.230469 103.53125 164.0625 103.300781 163.699219 102.71875 C 163.699219 102.703125 163.699219 102.691406 163.699219 102.679688 L 163.699219 97.25 L 171.324219 97.25 Z M 171.324219 97.261719 " fill-opacity="1" fill-rule="nonzero"/><path fill="#e57281" d="M 173.46875 95.546875 L 173.46875 95.671875 C 173.46875 96.605469 172.699219 97.371094 171.765625 97.371094 L 170.292969 97.371094 C 169.816406 99.070312 168.261719 100.3125 166.410156 100.3125 L 164.84375 100.3125 C 163.101562 100.3125 161.679688 98.902344 161.679688 97.152344 L 161.679688 90.238281 C 164.597656 91.054688 169.816406 90.289062 169.816406 90.289062 C 169.816406 90.289062 169.34375 91.988281 170.242188 93.835938 L 171.777344 93.835938 C 172.699219 93.847656 173.46875 94.613281 173.46875 95.546875 Z M 173.46875 95.546875 " fill-opacity="1" fill-rule="nonzero"/><path stroke-linecap="butt" transform="matrix(0.12165, 0, 0, 0.121498, -114.904368, -6.242532)" fill-opacity="1" fill="#ffffff" fill-rule="nonzero" stroke-linejoin="miter" d="M 2356.001012 821.998483 L 2344.601761 821.998483 C 2334.90437 805.601652 2340.395276 794.702582 2340.395276 794.702582 C 2340.395276 794.702582 2297.49556 800.907657 2273.508967 794.284624 C 2262.591374 791.294613 2255.59127 785.603948 2258.192226 775.508645 C 2266.508863 743.10079 2355.90468 777.598437 2362.102019 789.301273 C 2368.39569 801.004109 2356.001012 821.998483 2356.001012 821.998483 Z M 2356.001012 821.998483 " stroke="#feb040" stroke-width="4" stroke-opacity="1" stroke-miterlimit="10"/><path fill="#9a3b82" d="M 166.300781 97.359375 C 166.265625 97.394531 166.230469 97.40625 166.179688 97.40625 C 166.132812 97.40625 166.082031 97.382812 166.046875 97.347656 L 165.875 97.164062 C 165.351562 97.625 164.855469 97.855469 164.390625 97.855469 C 164.34375 97.855469 164.292969 97.855469 164.257812 97.84375 C 163.746094 97.796875 163.492188 97.457031 163.480469 97.445312 C 163.417969 97.359375 163.429688 97.25 163.515625 97.1875 C 163.601562 97.128906 163.710938 97.140625 163.769531 97.226562 C 163.785156 97.238281 163.953125 97.457031 164.308594 97.492188 C 164.695312 97.527344 165.144531 97.324219 165.632812 96.898438 L 165.535156 96.789062 C 165.460938 96.714844 165.472656 96.59375 165.546875 96.53125 C 165.621094 96.460938 165.742188 96.472656 165.804688 96.546875 L 166.3125 97.105469 C 166.386719 97.175781 166.375 97.285156 166.300781 97.359375 Z M 166.300781 97.359375 " fill-opacity="1" fill-rule="nonzero"/><path fill="#9a3b82" d="M 168.152344 93.738281 C 168.101562 93.738281 168.054688 93.726562 168.015625 93.691406 C 166.945312 92.644531 165.585938 92.851562 165.570312 92.851562 C 165.472656 92.863281 165.378906 92.804688 165.363281 92.707031 C 165.351562 92.609375 165.414062 92.511719 165.511719 92.5 C 165.570312 92.488281 167.066406 92.242188 168.273438 93.433594 C 168.34375 93.507812 168.34375 93.617188 168.273438 93.691406 C 168.25 93.726562 168.199219 93.738281 168.152344 93.738281 Z M 168.152344 93.738281 " fill-opacity="1" fill-rule="nonzero"/><path fill="#9a3b82" d="M 164.003906 96.289062 C 163.992188 96.289062 163.964844 96.289062 163.953125 96.277344 C 163.855469 96.253906 163.808594 96.144531 163.832031 96.046875 C 163.832031 96.035156 164.210938 94.796875 163.601562 93.738281 C 163.078125 92.828125 161.898438 93.105469 161.886719 93.117188 C 161.789062 93.144531 161.691406 93.082031 161.667969 92.984375 C 161.640625 92.886719 161.703125 92.789062 161.800781 92.765625 C 162.300781 92.644531 163.394531 92.644531 163.917969 93.566406 C 164.609375 94.769531 164.210938 96.109375 164.183594 96.167969 C 164.148438 96.242188 164.085938 96.289062 164.003906 96.289062 Z M 164.003906 96.289062 " fill-opacity="1" fill-rule="nonzero"/><path fill="#9a3b82" d="M 162.859375 94.394531 C 162.859375 94.523438 162.835938 94.636719 162.792969 94.730469 C 162.753906 94.820312 162.699219 94.867188 162.640625 94.867188 C 162.578125 94.867188 162.527344 94.820312 162.484375 94.730469 C 162.441406 94.636719 162.421875 94.523438 162.421875 94.394531 C 162.421875 94.261719 162.441406 94.152344 162.484375 94.058594 C 162.527344 93.96875 162.578125 93.921875 162.640625 93.921875 C 162.699219 93.921875 162.753906 93.96875 162.792969 94.058594 C 162.835938 94.152344 162.859375 94.261719 162.859375 94.394531 Z M 162.859375 94.394531 " fill-opacity="1" fill-rule="nonzero"/><path fill="#9a3b82" d="M 166.679688 94.394531 C 166.679688 94.550781 166.652344 94.6875 166.605469 94.796875 C 166.554688 94.910156 166.492188 94.964844 166.421875 94.964844 C 166.351562 94.964844 166.292969 94.910156 166.242188 94.796875 C 166.191406 94.6875 166.167969 94.550781 166.167969 94.394531 C 166.167969 94.238281 166.191406 94.101562 166.242188 93.992188 C 166.292969 93.878906 166.351562 93.824219 166.421875 93.824219 C 166.492188 93.824219 166.554688 93.878906 166.605469 93.992188 C 166.652344 94.101562 166.679688 94.238281 166.679688 94.394531 Z M 166.679688 94.394531 " fill-opacity="1" fill-rule="nonzero"/><path fill="#9a3b82" d="M 170.816406 96.167969 C 170.71875 96.167969 170.632812 96.082031 170.632812 95.984375 C 170.632812 95.195312 171.277344 94.550781 172.066406 94.550781 C 172.164062 94.550781 172.25 94.636719 172.25 94.734375 C 172.25 94.832031 172.164062 94.917969 172.066406 94.917969 C 171.472656 94.917969 170.996094 95.390625 170.996094 95.984375 C 170.996094 96.082031 170.925781 96.167969 170.816406 96.167969 Z M 170.816406 96.167969 " fill-opacity="1" fill-rule="nonzero"/><path fill="#a0505a" d="M 233.441406 325.375 C 233.113281 325.277344 232.929688 325.230469 232.929688 325.230469 L 228.953125 338.242188 L 213.976562 334.316406 C 213.855469 334.207031 213.792969 334.148438 213.792969 334.148438 C 213.792969 334.148438 153.152344 286.679688 149.964844 263.898438 C 146.789062 241.117188 172.191406 219.5 172.191406 219.5 C 172.191406 219.5 226.359375 321.765625 233.0625 325.109375 C 233.195312 325.179688 233.332031 325.265625 233.441406 325.375 Z M 233.441406 325.375 " fill-opacity="1" fill-rule="nonzero"/><path fill="#73325a" d="M 185.011719 243.425781 C 183.113281 253.570312 176.449219 274.113281 169.550781 293.992188 C 159.332031 282.996094 151.082031 271.902344 149.964844 263.882812 C 147.945312 249.449219 157.421875 235.464844 164.621094 227.179688 C 167.261719 225.066406 170.109375 223.121094 173.1875 221.382812 C 175.074219 224.921875 179.441406 233.109375 185.011719 243.425781 Z M 185.011719 243.425781 " fill-opacity="1" fill-rule="nonzero"/><path stroke-linecap="butt" transform="matrix(0.12165, 0, 0, 0.121498, -114.904368, -6.242532)" fill-opacity="1" fill="#ffffff" fill-rule="nonzero" stroke-linejoin="miter" d="M 3143.28788 2801.513958 L 2960.19343 2918.99243 L 2907.114664 2910.986918 L 2858.210271 2942.012295 L 2874.00867 2974.387999 L 2793.50748 3026.086243 C 2686.804068 2928.991282 2701.896034 2802.703532 2701.896034 2802.703532 L 2826.485032 2835.400742 L 2859.205699 2728.306929 C 2859.205699 2728.306929 2971.111023 2761.00414 3053.6994 2758.207033 C 3136.512551 2755.409927 3143.28788 2801.513958 3143.28788 2801.513958 Z M 3143.28788 2801.513958 " stroke="#fe5244" stroke-width="6" stroke-opacity="1" stroke-miterlimit="10"/><path stroke-linecap="butt" transform="matrix(0.12165, 0, 0, 0.121498, -114.904368, -6.242532)" fill="none" stroke-linejoin="miter" d="M 2935.21141 2742.613968 C 2935.21141 2742.613968 2927.504874 2661.208524 2908.206423 2666.288327 C 2888.907973 2671.496732 2913.087229 2752.709272 2934.793972 2743.803542 C 2956.500715 2734.897812 2978.207458 2677.187397 2978.207458 2677.187397 " stroke="#fe5244" stroke-width="6" stroke-opacity="1" stroke-miterlimit="10"/><path stroke-linecap="butt" transform="matrix(0.12165, 0, 0, 0.121498, -114.904368, -6.242532)" fill="none" stroke-linejoin="miter" d="M 2721.001821 2918.895978 L 2843.696295 2920.792866 L 2904.61004 2884.398331 L 2962.40906 2893.689869 L 3135.709787 2785.502934 " stroke="#fe5244" stroke-width="6" stroke-opacity="1" stroke-miterlimit="10"/><path stroke-linecap="butt" transform="matrix(0.12165, 0, 0, 0.121498, -114.904368, -6.242532)" fill="none" stroke-linejoin="miter" d="M 2909.811952 2737.984275 L 2898.412701 2791.097147 " stroke="#fe5244" stroke-width="6" stroke-opacity="1" stroke-miterlimit="10"/><path stroke-linecap="butt" transform="matrix(0.12165, 0, 0, 0.121498, -114.904368, -6.242532)" fill="none" stroke-linejoin="miter" d="M 2934.601309 2743.996446 L 2923.202058 2797.109319 " stroke="#fe5244" stroke-width="6" stroke-opacity="1" stroke-miterlimit="10"/><path stroke-linecap="butt" transform="matrix(0.12165, 0, 0, 0.121498, -114.904368, -6.242532)" fill="none" stroke-linejoin="miter" d="M 2960.514536 2748.304633 L 2949.115285 2801.385355 " stroke="#fe5244" stroke-width="6" stroke-opacity="1" stroke-miterlimit="10"/><path fill="#a0505a" d="M 167.042969 214.53125 C 167.042969 214.53125 175.960938 218.6875 175.960938 233.921875 C 175.960938 248.648438 141.921875 338.824219 141.921875 338.824219 L 131.449219 347.695312 L 120.816406 336.066406 C 126.011719 331.132812 111.097656 241.953125 167.042969 214.53125 Z M 167.042969 214.53125 " fill-opacity="1" fill-rule="nonzero"/><path stroke-linecap="butt" transform="matrix(0.12165, 0, 0, 0.121498, -114.904368, -6.242532)" fill-opacity="1" fill="#ffffff" fill-rule="nonzero" stroke-linejoin="miter" d="M 2309.890238 3055.311183 L 2092.30904 3055.504087 L 2051.913947 3020.106222 L 1993.986485 3019.784715 L 1989.812112 3055.600539 L 1904.494337 3055.696991 C 1858.094568 2911.308425 1938.1141 2817.299926 1938.1141 2817.299926 L 2024.908961 2912.915957 L 2111.60749 2839.998285 C 2111.60749 2839.998285 2186.810437 2928.187516 2257.8069 2970.401318 C 2328.996025 3012.711573 2309.890238 3055.311183 2309.890238 3055.311183 Z M 2309.890238 3055.311183 " stroke="#fe5244" stroke-width="6" stroke-opacity="1" stroke-miterlimit="10"/><path stroke-linecap="butt" transform="matrix(0.12165, 0, 0, 0.121498, -114.904368, -6.242532)" fill="none" stroke-linejoin="miter" d="M 2161.186205 2891.407173 C 2161.186205 2891.407173 2246.600312 2836.30096 2222.292613 2815.210134 C 2197.984914 2794.087158 2149.112632 2885.684357 2162.406407 2893.014705 C 2175.700181 2900.312903 2267.793286 2872.599043 2267.793286 2872.599043 " stroke="#fe5244" stroke-width="6" stroke-opacity="1" stroke-miterlimit="10"/><path stroke-linecap="butt" transform="matrix(0.12165, 0, 0, 0.121498, -114.904368, -6.242532)" fill="none" stroke-linejoin="miter" d="M 1892.998754 2927.994612 L 1995.110355 2992.392362 L 2066.010486 2992.392362 L 2110.901058 3030.105074 L 2311.592098 3030.105074 " stroke="#fe5244" stroke-width="6" stroke-opacity="1" stroke-miterlimit="10"/><path stroke-linecap="butt" transform="matrix(0.12165, 0, 0, 0.121498, -114.904368, -6.242532)" fill="none" stroke-linejoin="miter" d="M 2142.20886 2870.605703 L 2103.804623 2908.993578 " stroke="#fe5244" stroke-width="6" stroke-opacity="1" stroke-miterlimit="10"/><path stroke-linecap="butt" transform="matrix(0.12165, 0, 0, 0.121498, -114.904368, -6.242532)" fill="none" stroke-linejoin="miter" d="M 2159.805451 2889.092326 L 2121.401213 2927.512352 " stroke="#fe5244" stroke-width="6" stroke-opacity="1" stroke-miterlimit="10"/><path stroke-linecap="butt" transform="matrix(0.12165, 0, 0, 0.121498, -114.904368, -6.242532)" fill="none" stroke-linejoin="miter" d="M 2179.200233 2906.710882 L 2140.795995 2945.098757 " stroke="#fe5244" stroke-width="6" stroke-opacity="1" stroke-miterlimit="10"/><path fill="#fe5244" d="M 167.042969 214.53125 C 146.011719 224.835938 134.988281 243.886719 129.160156 263.898438 L 65.332031 263.898438 C 48.996094 263.898438 36.816406 248.84375 40.261719 232.890625 L 44.945312 211.167969 L 155.925781 211.167969 C 160.035156 211.167969 163.855469 212.40625 167.042969 214.53125 Z M 167.042969 214.53125 " fill-opacity="1" fill-rule="nonzero"/><path fill="#a0505a" d="M 119.648438 235.355469 L 142.628906 235.308594 L 139.222656 240.886719 Z M 119.648438 235.355469 " fill-opacity="1" fill-rule="nonzero"/><path stroke-linecap="round" transform="matrix(0.12165, 0, 0, 0.121498, -114.904368, -6.242532)" fill="none" stroke-linejoin="miter" d="M 2318.688534 1816.096558 C 2232.696437 1858.310361 2167.094549 1918.303472 2116.905734 1988.198984 L 1638.201409 1988.198984 C 1551.888206 1988.198984 1487.506521 1908.915483 1505.103111 1824.391426 L 1512.39221 1789.411519 " stroke="#ffffff" stroke-width="6" stroke-opacity="1" stroke-miterlimit="10"/><path stroke-linecap="round" transform="matrix(0.12165, 0, 0, 0.121498, -114.904368, -6.242532)" fill="none" stroke-linejoin="miter" d="M 2006.991265 2223.284531 C 2026.097052 2157.600755 2051.913947 2093.106552 2087.010796 2034.013659 L 1928.095603 1988.391888 " stroke="#ffffff" stroke-width="6" stroke-opacity="1" stroke-miterlimit="10"/><path fill="#3fb1b5" d="M 30.03125 152.8125 L 41.71875 198.617188 L 19.90625 198.617188 C 7.207031 198.617188 -0.96875 185.140625 4.921875 173.902344 L 21.671875 141.914062 C 26.417969 132.859375 35.796875 127.1875 46.027344 127.1875 L 49.980469 127.1875 C 36.550781 127.175781 26.707031 139.8125 30.03125 152.8125 Z M 30.03125 152.8125 " fill-opacity="1" fill-rule="nonzero"/><path fill="#3fb1b5" d="M 164.648438 140.929688 C 171.519531 140.929688 177.238281 140.015625 178.625 138.742188 L 157.300781 184.910156 C 153.441406 193.269531 145.0625 198.617188 135.851562 198.617188 C 133.152344 198.617188 130.5 198.152344 127.992188 197.265625 C 125.488281 196.378906 123.128906 195.082031 121.023438 193.378906 L 107.582031 182.542969 C 107.582031 182.542969 106.242188 190.402344 96.695312 192.40625 L 96.695312 211.140625 L 44.929688 211.140625 L 30.03125 152.796875 C 26.707031 139.796875 36.550781 127.152344 49.980469 127.152344 L 86.21875 127.152344 C 89.417969 127.152344 92.570312 127.550781 95.609375 128.328125 C 103.933594 130.441406 111.402344 135.328125 116.679688 142.324219 L 134.394531 165.800781 L 150.304688 138.023438 C 150.304688 138.050781 150.292969 138.085938 150.292969 138.109375 C 150.304688 139.726562 156.738281 140.929688 164.648438 140.929688 Z M 164.648438 140.929688 " fill-opacity="1" fill-rule="nonzero"/><path stroke-linecap="round" transform="matrix(0.12165, 0, 0, 0.121498, -114.904368, -6.242532)" fill="none" stroke-linejoin="miter" d="M 1190.387449 1309.11297 L 1284.503519 1689.101494 " stroke="#ffffff" stroke-width="6" stroke-opacity="1" stroke-miterlimit="10"/><path stroke-linecap="round" transform="matrix(0.12165, 0, 0, 0.121498, -114.904368, -6.242532)" fill="none" stroke-linejoin="miter" d="M 1829.901491 1558.891364 L 1746.285576 1469.898367 " stroke="#ffffff" stroke-width="6" stroke-opacity="1" stroke-miterlimit="10"/><path fill="#fe5244" d="M 178.941406 138.0625 L 178.625 138.742188 C 177.238281 140.027344 171.519531 140.929688 164.648438 140.929688 C 156.738281 140.929688 150.304688 139.726562 150.304688 138.132812 C 150.304688 138.109375 150.304688 138.074219 150.316406 138.050781 C 150.535156 136.492188 156.886719 135.15625 164.660156 135.15625 C 172.421875 135.15625 178.722656 136.492188 178.941406 138.0625 C 178.941406 138.050781 178.941406 138.050781 178.941406 138.0625 Z M 178.941406 138.0625 " fill-opacity="1" fill-rule="nonzero"/><path fill="#a0505a" d="M 185.316406 114.734375 C 185.316406 115.425781 185.144531 116.105469 184.828125 116.703125 C 184.511719 117.296875 184.050781 117.820312 183.480469 118.21875 L 183.199219 118.414062 L 181.019531 130.019531 C 180.667969 131.902344 179.550781 133.566406 177.929688 134.597656 L 174.949219 136.492188 L 172.589844 138 L 171.496094 140.613281 C 169.464844 140.820312 167.140625 140.941406 164.660156 140.941406 C 162.152344 140.941406 159.792969 140.820312 157.738281 140.601562 L 157.738281 122.605469 C 157.738281 121.828125 157.90625 121.0625 158.238281 120.359375 L 162.203125 111.828125 C 162.203125 111.828125 166.53125 112.898438 164.539062 118.207031 C 162.726562 123.03125 166.863281 121.792969 169.183594 120.929688 C 171.265625 120.152344 180.351562 115.535156 183.90625 113.847656 C 184.5625 113.53125 185.316406 114.015625 185.316406 114.734375 Z M 185.316406 114.734375 " fill-opacity="1" fill-rule="nonzero"/><path stroke-linecap="round" transform="matrix(0.12165, 0, 0, 0.121498, -114.904368, -6.242532)" fill="none" stroke-linejoin="miter" d="M 2436.694865 1085.215849 C 2433.804914 1100.712462 2424.589182 1114.312186 2411.295407 1122.799958 L 2367.400263 1150.803173 " stroke="#73325a" stroke-width="5" stroke-opacity="1" stroke-miterlimit="10"/><path stroke-linecap="round" transform="matrix(0.12165, 0, 0, 0.121498, -114.904368, -6.242532)" fill="none" stroke-linejoin="miter" d="M 2443.887632 1044.706031 C 2440.997681 1060.202644 2431.814059 1073.802368 2418.488174 1082.29014 L 2374.59303 1110.293355 " stroke="#73325a" stroke-width="5" stroke-opacity="1" stroke-miterlimit="10"/><path stroke-linecap="round" transform="matrix(0.12165, 0, 0, 0.121498, -114.904368, -6.242532)" fill="none" stroke-linejoin="miter" d="M 2447.291352 1027.087475 L 2376.712327 1071.90548 " stroke="#73325a" stroke-width="5" stroke-opacity="1" stroke-miterlimit="10"/><path fill="#73325a" d="M 175.414062 136.191406 L 174.9375 136.492188 L 172.578125 138 L 171.484375 140.613281 C 169.453125 140.820312 167.128906 140.941406 164.648438 140.941406 C 162.140625 140.941406 159.78125 140.820312 157.726562 140.601562 L 157.726562 135.546875 C 159.78125 135.304688 162.140625 135.167969 164.648438 135.167969 C 168.941406 135.15625 172.785156 135.558594 175.414062 136.191406 Z M 175.414062 136.191406 " fill-opacity="1" fill-rule="nonzero"/><path fill="#a0505a" d="M 94.480469 128.050781 C 92.714844 130.417969 86.148438 135.996094 64.03125 135.996094 C 35.578125 135.996094 53.789062 127.199219 53.789062 127.199219 L 65.855469 107.066406 L 78.800781 115 L 78.800781 121.378906 C 78.800781 124.597656 81.414062 127.199219 84.625 127.199219 L 85.464844 127.199219 C 88.480469 127.1875 91.597656 127.320312 94.480469 128.050781 Z M 94.480469 128.050781 " fill-opacity="1" fill-rule="nonzero"/><path fill="#73325a" d="M 78.785156 114.988281 L 78.785156 116.617188 L 53.777344 127.1875 L 65.84375 107.054688 Z M 78.785156 114.988281 " fill-opacity="1" fill-rule="nonzero"/><path fill="#a0505a" d="M 79.46875 115.777344 L 82.21875 115.777344 C 84.746094 115.777344 86.804688 113.726562 86.804688 111.199219 L 86.804688 95.902344 L 70.394531 95.902344 L 70.394531 106.714844 C 70.394531 111.71875 74.457031 115.777344 79.46875 115.777344 Z M 79.46875 115.777344 " fill-opacity="1" fill-rule="nonzero"/><path stroke-linecap="round" transform="matrix(0.12165, 0, 0, 0.121498, -114.904368, -6.242532)" fill="none" stroke-linejoin="miter" d="M 1655.187899 959.313906 C 1640.706033 959.313906 1634.894021 949.315054 1634.894021 949.315054 " stroke="#73325a" stroke-width="5" stroke-opacity="1" stroke-miterlimit="10"/><path fill="#73325a" d="M 85.441406 104.285156 C 85.441406 104.597656 85.382812 104.863281 85.269531 105.082031 C 85.15625 105.304688 85.019531 105.414062 84.855469 105.414062 C 84.695312 105.414062 84.558594 105.304688 84.445312 105.082031 C 84.332031 104.863281 84.273438 104.597656 84.273438 104.285156 C 84.273438 103.972656 84.332031 103.707031 84.445312 103.484375 C 84.558594 103.265625 84.695312 103.15625 84.855469 103.15625 C 85.019531 103.15625 85.15625 103.265625 85.269531 103.484375 C 85.382812 103.707031 85.441406 103.972656 85.441406 104.285156 Z M 85.441406 104.285156 " fill-opacity="1" fill-rule="nonzero"/><path stroke-linecap="butt" transform="matrix(0.12165, 0, 0, 0.121498, -114.904368, -6.242532)" fill-opacity="1" fill="#ffcf2d" fill-rule="nonzero" stroke-linejoin="miter" d="M 1548.901924 853.795475 C 1548.901924 853.795475 1660.197147 920.990332 1696.385755 862.508301 C 1728.207327 811.195865 1587.306161 784.800182 1538.112773 784.607278 C 1484.584459 784.414374 1413.684328 808.109403 1414.90453 886.814192 C 1415.899957 951.597751 1418.597245 1046.410015 1380.193007 1029.884581 C 1243.594658 971.306099 1122.184606 1032.488784 1121.799279 1149.099189 C 1121.413952 1265.709594 1256.695769 1276.608664 1260.099489 1246.515656 C 1263.599541 1216.48695 1176.098247 1223.399339 1187.914935 1301.300362 C 1199.603182 1379.201386 1251.814963 1476.585702 1371.009385 1476.585702 C 1514.993165 1476.714305 1606.700943 1287.089775 1517.594121 1267.799386 C 1449.294946 1253.010087 1587.209829 1384.795598 1628.086581 1247.801682 C 1672.110167 1100.294503 1513.098642 1052.004228 1509.213264 962.914779 C 1505.295774 873.793179 1548.901924 853.795475 1548.901924 853.795475 Z M 1548.901924 853.795475 " stroke="#ffffff" stroke-width="5" stroke-opacity="1" stroke-miterlimit="10"/><path stroke-linecap="butt" transform="matrix(0.12165, 0, 0, 0.121498, -114.904368, -6.242532)" fill="none" stroke-linejoin="miter" d="M 1541.099056 907.294156 L 1620.70115 907.294156 " stroke="#fe5244" stroke-width="6" stroke-opacity="1" stroke-miterlimit="10"/><path stroke-linecap="butt" transform="matrix(0.12165, 0, 0, 0.121498, -114.904368, -6.242532)" fill="none" stroke-linejoin="miter" d="M 1667.807351 910.284166 C 1667.807351 914.142244 1667.229361 917.839569 1666.073381 921.408291 C 1664.9174 924.944862 1663.311872 928.095626 1661.192575 930.79628 C 1659.073277 933.529086 1656.632874 935.618878 1653.839255 937.097808 C 1651.077746 938.576738 1648.187795 939.284052 1645.201512 939.284052 C 1642.21523 939.284052 1639.325279 938.576738 1636.56377 937.097808 C 1633.770151 935.618878 1631.329748 933.529086 1629.21045 930.79628 C 1627.091153 928.095626 1625.453514 924.944862 1624.329644 921.408291 C 1623.173664 917.839569 1622.595674 914.142244 1622.595674 910.284166 C 1622.595674 906.458239 1623.173664 902.760914 1624.329644 899.192192 C 1625.453514 895.655621 1627.091153 892.504857 1629.21045 889.804203 C 1631.329748 887.071397 1633.770151 884.981605 1636.56377 883.502675 C 1639.325279 882.023746 1642.21523 881.284281 1645.201512 881.284281 C 1648.187795 881.284281 1651.077746 882.023746 1653.839255 883.502675 C 1656.632874 884.981605 1659.073277 887.071397 1661.192575 889.804203 C 1663.311872 892.504857 1664.9174 895.655621 1666.073381 899.192192 C 1667.229361 902.760914 1667.807351 906.458239 1667.807351 910.284166 Z M 1667.807351 910.284166 " stroke="#fe5244" stroke-width="6" stroke-opacity="1" stroke-miterlimit="10"/><path stroke-linecap="butt" transform="matrix(0.12165, 0, 0, 0.121498, -114.904368, -6.242532)" fill="none" stroke-linejoin="miter" d="M 1498.905772 871.606935 L 1498.905772 787.404385 C 1498.905772 774.80133 1509.084821 764.513123 1521.800606 764.513123 L 1546.814737 764.513123 C 1559.402079 764.513123 1569.709571 774.704878 1569.709571 787.404385 " stroke="#66b0f0" stroke-width="6" stroke-opacity="1" stroke-miterlimit="10"/><path stroke-linecap="butt" transform="matrix(0.12165, 0, 0, 0.121498, -114.904368, -6.242532)" fill-opacity="1" fill="#ffffff" fill-rule="nonzero" stroke-linejoin="miter" d="M 1522.988697 964.297257 L 1474.887068 964.297257 C 1462.588721 964.297257 1452.602335 954.298405 1452.602335 941.984706 L 1452.602335 893.887335 C 1452.602335 881.605787 1462.588721 871.606935 1474.887068 871.606935 L 1522.988697 871.606935 C 1535.287043 871.606935 1545.30554 881.605787 1545.30554 893.887335 L 1545.30554 941.984706 C 1545.209209 954.298405 1535.287043 964.297257 1522.988697 964.297257 Z M 1522.988697 964.297257 " stroke="#66b0f0" stroke-width="6" stroke-opacity="1" stroke-miterlimit="10"/><path stroke-linecap="butt" transform="matrix(0.12165, 0, 0, 0.121498, -114.904368, -6.242532)" fill-opacity="1" fill="#ffffff" fill-rule="nonzero" stroke-linejoin="miter" d="M 1510.497686 948.414836 L 1486.992752 948.414836 C 1476.910034 948.414836 1468.593397 940.18427 1468.593397 929.992514 L 1468.593397 906.49039 C 1468.593397 896.395086 1476.813702 888.100218 1486.992752 888.100218 L 1510.497686 888.100218 C 1520.612515 888.100218 1528.897041 896.298634 1528.897041 906.49039 L 1528.897041 929.992514 C 1528.897041 940.18427 1520.708846 948.414836 1510.497686 948.414836 Z M 1510.497686 948.414836 " stroke="#66b0f0" stroke-width="6" stroke-opacity="1" stroke-miterlimit="10"/><path stroke-linecap="butt" transform="matrix(0.12165, 0, 0, 0.121498, -114.904368, -6.242532)" fill="none" stroke-linejoin="miter" d="M 1519.80975 890.511517 L 1478.001793 946.099989 " stroke="#66b0f0" stroke-width="6" stroke-opacity="1" stroke-miterlimit="10"/><path stroke-linecap="butt" transform="matrix(0.12165, 0, 0, 0.121498, -114.904368, -6.242532)" fill="none" stroke-linejoin="miter" d="M 1506.002207 888.614629 L 1469.813598 936.615548 " stroke="#66b0f0" stroke-width="6" stroke-opacity="1" stroke-miterlimit="10"/><path stroke-linecap="butt" transform="matrix(0.12165, 0, 0, 0.121498, -114.904368, -6.242532)" fill="none" stroke-linejoin="miter" d="M 1527.901613 900.413917 L 1491.713005 948.414836 " stroke="#66b0f0" stroke-width="6" stroke-opacity="1" stroke-miterlimit="10"/><path stroke-linecap="butt" transform="matrix(0.12165, 0, 0, 0.121498, -114.904368, -6.242532)" fill="none" stroke-linejoin="miter" d="M 1528.897041 918.289678 L 1506.19487 948.414836 " stroke="#66b0f0" stroke-width="6" stroke-opacity="1" stroke-miterlimit="10"/><path stroke-linecap="butt" transform="matrix(0.12165, 0, 0, 0.121498, -114.904368, -6.242532)" fill="none" stroke-linejoin="miter" d="M 1491.295567 888.614629 L 1468.689729 918.514732 " stroke="#66b0f0" stroke-width="6" stroke-opacity="1" stroke-miterlimit="10"/><path stroke-linecap="butt" transform="matrix(0.12165, 0, 0, 0.121498, -114.904368, -6.242532)" fill="none" stroke-linejoin="miter" d="M 1463.295153 2280.287632 L 1463.295153 2335.393845 C 1463.295153 2362.014582 1441.684742 2383.587668 1415.097193 2383.587668 L 1291.503623 2383.587668 " stroke="#66b0f0" stroke-width="6" stroke-opacity="1" stroke-miterlimit="10"/><path stroke-linecap="butt" transform="matrix(0.12165, 0, 0, 0.121498, -114.904368, -6.242532)" fill="none" stroke-linejoin="miter" d="M 1509.405927 2280.898494 L 1509.405927 2786.403153 " stroke="#66b0f0" stroke-width="6" stroke-opacity="1" stroke-miterlimit="10"/><path stroke-linecap="butt" transform="matrix(0.12165, 0, 0, 0.121498, -114.904368, -6.242532)" fill="none" stroke-linejoin="miter" d="M 1285.595279 2948.506726 C 1285.595279 2858.999319 1374.509437 2786.403153 1484.102801 2786.403153 L 1533.906289 2786.403153 C 1643.499652 2786.403153 1732.413811 2858.999319 1732.413811 2948.506726 " stroke="#66b0f0" stroke-width="6" stroke-opacity="1" stroke-miterlimit="10"/><path fill="#ffcf2d" d="M 127.214844 271.820312 L 38.898438 271.820312 C 34.46875 271.820312 30.894531 268.234375 30.894531 263.824219 L 129.308594 263.824219 Z M 127.214844 271.820312 " fill-opacity="1" fill-rule="nonzero"/><path fill="#ffcf2d" d="M 47.472656 358.507812 C 47.472656 358.933594 47.433594 359.359375 47.347656 359.777344 C 47.265625 360.199219 47.140625 360.605469 46.976562 361 C 46.8125 361.394531 46.613281 361.769531 46.375 362.125 C 46.136719 362.480469 45.867188 362.808594 45.5625 363.113281 C 45.261719 363.414062 44.933594 363.683594 44.574219 363.921875 C 44.21875 364.160156 43.84375 364.359375 43.449219 364.523438 C 43.054688 364.6875 42.644531 364.8125 42.226562 364.894531 C 41.804688 364.976562 41.382812 365.019531 40.953125 365.019531 C 40.527344 365.019531 40.101562 364.976562 39.679688 364.894531 C 39.261719 364.8125 38.855469 364.6875 38.457031 364.523438 C 38.0625 364.359375 37.6875 364.160156 37.332031 363.921875 C 36.976562 363.683594 36.644531 363.414062 36.34375 363.113281 C 36.039062 362.808594 35.769531 362.480469 35.53125 362.125 C 35.292969 361.769531 35.09375 361.394531 34.929688 361 C 34.765625 360.605469 34.640625 360.199219 34.558594 359.777344 C 34.476562 359.359375 34.433594 358.933594 34.433594 358.507812 C 34.433594 358.078125 34.476562 357.65625 34.558594 357.238281 C 34.640625 356.816406 34.765625 356.410156 34.929688 356.015625 C 35.09375 355.621094 35.292969 355.246094 35.53125 354.890625 C 35.769531 354.535156 36.039062 354.203125 36.34375 353.902344 C 36.644531 353.601562 36.976562 353.332031 37.332031 353.09375 C 37.6875 352.855469 38.0625 352.65625 38.457031 352.492188 C 38.855469 352.328125 39.261719 352.203125 39.679688 352.121094 C 40.101562 352.035156 40.527344 351.996094 40.953125 351.996094 C 41.382812 351.996094 41.804688 352.035156 42.226562 352.121094 C 42.644531 352.203125 43.054688 352.328125 43.449219 352.492188 C 43.84375 352.65625 44.21875 352.855469 44.574219 353.09375 C 44.933594 353.332031 45.261719 353.601562 45.5625 353.902344 C 45.867188 354.203125 46.136719 354.535156 46.375 354.890625 C 46.613281 355.246094 46.8125 355.621094 46.976562 356.015625 C 47.140625 356.410156 47.265625 356.816406 47.347656 357.238281 C 47.433594 357.65625 47.472656 358.078125 47.472656 358.507812 Z M 47.472656 358.507812 " fill-opacity="1" fill-rule="nonzero"/><path fill="#ffcf2d" d="M 37.632812 285.027344 L 50.722656 285.027344 C 51.792969 285.027344 52.65625 284.164062 52.65625 283.09375 L 52.65625 282.949219 C 52.65625 281.878906 51.792969 281.015625 50.722656 281.015625 L 37.632812 281.015625 C 36.5625 281.015625 35.699219 281.878906 35.699219 282.949219 L 35.699219 283.09375 C 35.699219 284.164062 36.5625 285.027344 37.632812 285.027344 Z M 37.632812 285.027344 " fill-opacity="1" fill-rule="nonzero"/><path stroke-linecap="butt" transform="matrix(0.12165, 0, 0, 0.121498, -114.904368, -6.242532)" fill="none" stroke-linejoin="miter" d="M 1198.511422 2224.795611 L 1713.597019 2224.795611 L 1541.291719 1741.989312 C 1529.314478 1708.488335 1497.589238 1686.111483 1462.010731 1686.111483 L 1083.29871 1686.111483 C 1045.697237 1686.111483 1019.495014 1723.309784 1032.114467 1758.707649 Z M 1198.511422 2224.795611 " stroke="#ffcf2d" stroke-width="6" stroke-opacity="1" stroke-miterlimit="10"/><path stroke-linecap="butt" transform="matrix(0.12165, 0, 0, 0.121498, -114.904368, -6.242532)" fill="none" stroke-linejoin="miter" d="M 1224.007212 2224.795611 L 1671.789062 2224.795611 L 1505.295774 1758.000335 C 1493.70386 1725.592481 1463.10249 1703.987244 1428.712073 1703.987244 L 1045.31191 1703.987244 " stroke="#ffcf2d" stroke-width="6" stroke-opacity="1" stroke-miterlimit="10"/><path fill="#ffcf2d" d="M 102.253906 358.507812 C 102.253906 358.933594 102.210938 359.359375 102.128906 359.777344 C 102.042969 360.199219 101.921875 360.605469 101.757812 361 C 101.59375 361.394531 101.390625 361.769531 101.152344 362.125 C 100.917969 362.480469 100.644531 362.808594 100.34375 363.113281 C 100.039062 363.414062 99.710938 363.683594 99.355469 363.921875 C 99 364.160156 98.625 364.359375 98.226562 364.523438 C 97.832031 364.6875 97.425781 364.8125 97.003906 364.894531 C 96.585938 364.976562 96.160156 365.019531 95.734375 365.019531 C 95.304688 365.019531 94.878906 364.976562 94.460938 364.894531 C 94.039062 364.8125 93.632812 364.6875 93.238281 364.523438 C 92.839844 364.359375 92.464844 364.160156 92.109375 363.921875 C 91.753906 363.683594 91.425781 363.414062 91.121094 363.113281 C 90.820312 362.808594 90.550781 362.480469 90.3125 362.125 C 90.074219 361.769531 89.871094 361.394531 89.707031 361 C 89.542969 360.605469 89.421875 360.199219 89.335938 359.777344 C 89.253906 359.359375 89.210938 358.933594 89.210938 358.507812 C 89.210938 358.078125 89.253906 357.65625 89.335938 357.238281 C 89.421875 356.816406 89.542969 356.410156 89.707031 356.015625 C 89.871094 355.621094 90.074219 355.246094 90.3125 354.890625 C 90.550781 354.535156 90.820312 354.203125 91.121094 353.902344 C 91.425781 353.601562 91.753906 353.332031 92.109375 353.09375 C 92.464844 352.855469 92.839844 352.65625 93.238281 352.492188 C 93.632812 352.328125 94.039062 352.203125 94.460938 352.121094 C 94.878906 352.035156 95.304688 351.996094 95.734375 351.996094 C 96.160156 351.996094 96.585938 352.035156 97.003906 352.121094 C 97.425781 352.203125 97.832031 352.328125 98.226562 352.492188 C 98.625 352.65625 99 352.855469 99.355469 353.09375 C 99.710938 353.332031 100.039062 353.601562 100.34375 353.902344 C 100.644531 354.203125 100.917969 354.535156 101.152344 354.890625 C 101.390625 355.246094 101.59375 355.621094 101.757812 356.015625 C 101.921875 356.410156 102.042969 356.816406 102.128906 357.238281 C 102.210938 357.65625 102.253906 358.078125 102.253906 358.507812 Z M 102.253906 358.507812 " fill-opacity="1" fill-rule="nonzero"/></svg>