<svg xmlns="http://www.w3.org/2000/svg" xmlns:xlink="http://www.w3.org/1999/xlink" width="500" zoomAndPan="magnify" viewBox="0 0 375 374.999991" height="500" preserveAspectRatio="xMidYMid meet" version="1.0"><path fill="#d9d9d9" d="M 86.945312 339.378906 C 102.941406 346.574219 156.03125 356.019531 194.121094 351.738281 C 242.988281 346.246094 281.515625 319.050781 303.164062 292.597656 C 375 204.820312 328.59375 44.128906 260.921875 22.851562 C 248.644531 18.988281 236.800781 20.074219 222.234375 21.410156 C 175.890625 25.65625 162.121094 48.035156 112.914062 63.082031 C 68.136719 76.773438 63.097656 63.277344 43.191406 76.082031 C 0.0078125 103.859375 2.019531 181.496094 15.0625 238.945312 C 20.328125 262.144531 28.414062 313.042969 86.945312 339.378906 " fill-opacity="1" fill-rule="nonzero"/><path fill="#99b9ff" d="M 279.265625 104.792969 C 270.234375 106.828125 261.265625 101.15625 259.230469 92.121094 C 257.195312 83.085938 262.867188 74.109375 271.894531 72.074219 C 280.925781 70.035156 289.890625 75.710938 291.929688 84.746094 C 293.960938 93.777344 288.292969 102.753906 279.265625 104.792969 Z M 309.144531 84.199219 L 307.714844 77.84375 L 300.605469 77.84375 C 300.007812 76.429688 299.308594 75.085938 298.503906 73.820312 L 302.535156 67.96875 L 298.121094 63.183594 L 291.960938 66.738281 C 290.753906 65.828125 289.472656 65.019531 288.132812 64.320312 L 288.703125 57.226562 L 282.484375 55.289062 L 278.933594 61.441406 C 277.445312 61.257812 275.929688 61.199219 274.402344 61.269531 L 271.351562 54.839844 L 265 56.273438 L 265 63.390625 C 263.585938 63.984375 262.242188 64.6875 260.980469 65.492188 L 255.132812 61.457031 L 250.351562 65.875 L 253.90625 72.039062 C 252.992188 73.25 252.183594 74.527344 251.484375 75.875 L 244.394531 75.300781 L 242.457031 81.523438 L 248.609375 85.074219 C 248.421875 86.566406 248.367188 88.082031 248.433594 89.613281 L 242.011719 92.667969 L 243.445312 99.019531 L 250.554688 99.019531 C 251.148438 100.433594 251.851562 101.78125 252.652344 103.042969 L 248.625 108.894531 L 253.039062 113.679688 L 259.199219 110.125 C 260.40625 111.035156 261.6875 111.84375 263.023438 112.546875 L 262.457031 119.636719 L 268.671875 121.578125 L 272.226562 115.421875 C 273.710938 115.609375 275.226562 115.664062 276.757812 115.597656 L 279.808594 122.023438 L 286.15625 120.589844 L 286.160156 113.476562 C 287.570312 112.878906 288.917969 112.175781 290.179688 111.371094 L 296.027344 115.40625 L 300.808594 110.988281 L 297.253906 104.824219 C 298.167969 103.613281 298.976562 102.335938 299.675781 100.992188 L 306.765625 101.5625 L 308.699219 95.339844 L 302.550781 91.789062 C 302.734375 90.296875 302.792969 88.785156 302.726562 87.25 L 309.144531 84.199219 " fill-opacity="1" fill-rule="nonzero"/><path fill="#99b9ff" d="M 304.4375 155.566406 C 297.203125 156.179688 290.84375 150.808594 290.230469 143.570312 C 289.621094 136.332031 294.992188 129.964844 302.226562 129.351562 C 309.460938 128.738281 315.820312 134.109375 316.433594 141.351562 C 317.042969 148.589844 311.671875 154.957031 304.4375 155.566406 Z M 329.871094 142.777344 L 329.441406 137.6875 L 323.917969 136.921875 C 323.605469 135.761719 323.207031 134.640625 322.714844 133.570312 L 326.476562 129.457031 L 323.558594 125.261719 L 318.390625 127.367188 C 317.550781 126.527344 316.644531 125.761719 315.679688 125.074219 L 316.882812 119.621094 L 312.261719 117.445312 L 308.839844 121.847656 C 307.703125 121.542969 306.53125 121.335938 305.335938 121.226562 L 303.65625 115.90625 L 298.566406 116.335938 L 297.800781 121.863281 C 296.640625 122.171875 295.519531 122.578125 294.453125 123.066406 L 290.34375 119.304688 L 286.148438 122.222656 L 288.25 127.394531 C 287.414062 128.234375 286.648438 129.144531 285.957031 130.109375 L 280.511719 128.90625 L 278.339844 133.53125 L 282.734375 136.953125 C 282.429688 138.09375 282.222656 139.265625 282.113281 140.460938 L 276.792969 142.140625 L 277.222656 147.234375 L 282.746094 148 C 283.058594 149.160156 283.457031 150.28125 283.949219 151.351562 L 280.1875 155.464844 L 283.101562 159.660156 L 288.273438 157.554688 C 289.109375 158.394531 290.019531 159.160156 290.988281 159.851562 L 289.78125 165.300781 L 294.40625 167.472656 L 297.824219 163.074219 C 298.960938 163.375 300.132812 163.582031 301.328125 163.695312 L 303.007812 169.019531 L 308.097656 168.585938 L 308.863281 163.058594 C 310.023438 162.746094 311.140625 162.347656 312.210938 161.855469 L 316.320312 165.617188 L 320.511719 162.699219 L 318.414062 157.527344 C 319.25 156.6875 320.015625 155.777344 320.707031 154.808594 L 326.152344 156.011719 L 328.324219 151.386719 L 323.929688 147.964844 C 324.230469 146.828125 324.4375 145.65625 324.550781 144.460938 L 329.871094 142.777344 " fill-opacity="1" fill-rule="nonzero"/><path fill="#5479f7" d="M 257.316406 337.074219 L 249.789062 337.632812 L 108.941406 337.074219 C 102.546875 337.074219 97.433594 331.867188 97.519531 325.445312 L 101.429688 34.609375 C 101.515625 28.183594 106.769531 22.980469 113.164062 22.980469 L 253.90625 21.320312 C 270.082031 21.320312 273.046875 28.183594 272.957031 34.609375 L 269.050781 325.445312 C 268.964844 331.867188 263.707031 337.074219 257.316406 337.074219 " fill-opacity="1" fill-rule="nonzero"/><path fill="#ffffff" d="M 248.386719 337.074219 L 100.011719 337.074219 C 93.617188 337.074219 88.503906 331.851562 88.585938 325.40625 L 92.390625 33.648438 C 92.476562 27.207031 97.726562 21.980469 104.121094 21.980469 L 252.496094 21.980469 C 258.890625 21.980469 264.007812 27.207031 263.921875 33.648438 L 260.117188 325.40625 C 260.03125 331.851562 254.78125 337.074219 248.386719 337.074219 " fill-opacity="1" fill-rule="nonzero"/><path fill="#d9d9d9" d="M 97.085938 325.8125 L 100.722656 47.226562 C 100.742188 45.738281 101.953125 44.535156 103.429688 44.535156 L 252.605469 44.535156 C 254.078125 44.535156 255.257812 45.738281 255.238281 47.226562 L 251.605469 325.8125 C 251.585938 327.296875 250.375 328.503906 248.898438 328.503906 L 99.722656 328.503906 C 98.25 328.503906 97.066406 327.296875 97.085938 325.8125 " fill-opacity="1" fill-rule="nonzero"/><path fill="#d9d9d9" d="M 178.117188 36.820312 C 175.71875 36.820312 173.804688 34.863281 173.835938 32.453125 C 173.867188 30.035156 175.835938 28.082031 178.230469 28.082031 C 180.625 28.082031 182.542969 30.035156 182.507812 32.453125 C 182.476562 34.863281 180.507812 36.820312 178.117188 36.820312 " fill-opacity="1" fill-rule="nonzero"/><path fill="#99b9ff" d="M 255.082031 59.164062 L 255.242188 47.308594 C 255.257812 45.820312 254.078125 44.730469 252.601562 44.730469 L 103.429688 44.730469 C 101.953125 44.730469 100.738281 45.820312 100.722656 47.308594 L 100.566406 59.164062 L 255.082031 59.164062 " fill-opacity="1" fill-rule="nonzero"/><path fill="#5479f7" d="M 110.636719 51.542969 C 110.636719 53.242188 109.257812 54.617188 107.5625 54.617188 C 105.863281 54.617188 104.488281 53.242188 104.488281 51.542969 C 104.488281 49.84375 105.863281 48.46875 107.5625 48.46875 C 109.257812 48.46875 110.636719 49.84375 110.636719 51.542969 " fill-opacity="1" fill-rule="nonzero"/><path fill="#5479f7" d="M 118.652344 51.8125 C 118.652344 53.511719 117.277344 54.886719 115.578125 54.886719 C 113.882812 54.886719 112.507812 53.511719 112.507812 51.8125 C 112.507812 50.117188 113.882812 48.738281 115.578125 48.738281 C 117.277344 48.738281 118.652344 50.117188 118.652344 51.8125 " fill-opacity="1" fill-rule="nonzero"/><path fill="#5479f7" d="M 127.207031 52.078125 C 127.207031 53.777344 125.832031 55.152344 124.132812 55.152344 C 122.433594 55.152344 121.058594 53.777344 121.058594 52.078125 C 121.058594 50.382812 122.433594 49.003906 124.132812 49.003906 C 125.832031 49.003906 127.207031 50.382812 127.207031 52.078125 " fill-opacity="1" fill-rule="nonzero"/><path fill="#000000" d="M 239.070312 337.675781 L 115.578125 337.351562 C 115.246094 337.351562 114.976562 337.082031 114.976562 336.75 C 114.980469 336.417969 115.25 336.152344 115.578125 336.152344 C 115.582031 336.152344 115.582031 336.152344 115.582031 336.152344 L 239.074219 336.472656 C 239.402344 336.472656 239.671875 336.742188 239.671875 337.074219 C 239.671875 337.40625 239.402344 337.675781 239.070312 337.675781 " fill-opacity="1" fill-rule="nonzero"/><path fill="#000000" d="M 262.03125 179.25 C 262.027344 179.25 262.023438 179.25 262.023438 179.25 C 261.691406 179.242188 261.421875 178.96875 261.429688 178.640625 L 263.320312 33.640625 C 263.359375 30.667969 262.242188 27.878906 260.179688 25.789062 C 258.136719 23.722656 255.410156 22.585938 252.5 22.585938 L 104.121094 22.585938 C 98.066406 22.585938 93.074219 27.550781 92.992188 33.65625 L 92.445312 75.609375 C 92.441406 75.9375 92.171875 76.203125 91.84375 76.203125 C 91.84375 76.203125 91.839844 76.203125 91.835938 76.203125 C 91.503906 76.199219 91.238281 75.925781 91.242188 75.59375 L 91.792969 33.640625 C 91.878906 26.878906 97.410156 21.378906 104.121094 21.378906 L 252.5 21.378906 C 255.734375 21.378906 258.765625 22.648438 261.035156 24.945312 C 263.328125 27.265625 264.566406 30.359375 264.523438 33.65625 L 262.632812 178.65625 C 262.625 178.984375 262.359375 179.25 262.03125 179.25 " fill-opacity="1" fill-rule="nonzero"/><path fill="#5479f7" d="M 116.550781 115.03125 L 134.757812 106.09375 C 149.570312 98.824219 163.390625 89.6875 175.886719 78.910156 L 176.78125 73.375 C 176.78125 73.375 182.953125 73.445312 184.273438 73.367188 C 185.964844 73.273438 187.675781 73.863281 188.96875 75.128906 C 202.53125 88.398438 217.972656 99.605469 234.796875 108.382812 L 246.699219 114.59375 C 249.464844 116.035156 250.480469 118.582031 249.652344 122.238281 L 234.09375 187.949219 C 227.324219 206.335938 200.054688 230.9375 184.703125 243.742188 C 181.910156 246.070312 178.5 247.207031 175.101562 247.1875 C 173.597656 247.179688 167.355469 247.378906 167.355469 247.378906 C 167.355469 247.378906 166.035156 244.75 164.289062 242.972656 C 150.496094 228.957031 126.292969 201.980469 121.382812 180.730469 L 113.242188 121.992188 C 112.59375 119.1875 113.964844 116.300781 116.550781 115.03125 " fill-opacity="1" fill-rule="nonzero"/><path fill="#ffffff" d="M 109.65625 115.382812 L 127.71875 106.519531 C 142.417969 99.300781 156.132812 90.238281 168.53125 79.542969 L 173.183594 75.53125 C 175.609375 73.441406 179.222656 73.554688 181.511719 75.789062 C 194.96875 88.960938 210.289062 100.078125 226.980469 108.789062 L 238.792969 114.953125 C 241.535156 116.382812 242.789062 119.628906 241.71875 122.53125 L 226.285156 187.734375 C 219.566406 205.976562 192.21875 230.617188 176.988281 243.324219 C 171.089844 248.242188 162.40625 247.804688 157.019531 242.328125 C 143.335938 228.421875 119.320312 201.652344 114.453125 180.574219 L 106.371094 122.292969 C 105.726562 119.507812 107.089844 116.644531 109.65625 115.382812 " fill-opacity="1" fill-rule="nonzero"/><path fill="#d9d9d9" d="M 120.753906 123.125 L 135.707031 115.785156 C 147.878906 109.8125 159.234375 102.304688 169.5 93.453125 L 173.351562 90.128906 C 175.355469 88.398438 178.355469 88.492188 180.246094 90.34375 C 191.386719 101.25 204.070312 110.453125 217.894531 117.664062 L 227.671875 122.769531 C 229.941406 123.953125 230.980469 126.640625 230.097656 129.046875 L 217.316406 183.03125 C 211.753906 198.136719 189.109375 218.535156 176.5 229.054688 C 171.617188 233.128906 164.429688 232.765625 159.96875 228.234375 C 148.636719 216.71875 128.753906 194.554688 124.722656 177.101562 L 118.03125 128.847656 C 117.5 126.539062 118.625 124.167969 120.753906 123.125 " fill-opacity="1" fill-rule="nonzero"/><path fill="#000000" d="M 167.566406 247.3125 C 163.5625 247.3125 159.566406 245.777344 156.59375 242.75 C 142.734375 228.671875 118.757812 201.886719 113.867188 180.707031 C 113.863281 180.691406 113.859375 180.671875 113.855469 180.652344 L 111.769531 165.589844 C 111.722656 165.261719 111.953125 164.957031 112.28125 164.910156 C 112.605469 164.867188 112.914062 165.097656 112.960938 165.425781 L 115.042969 180.464844 C 119.882812 201.351562 143.6875 227.921875 157.449219 241.910156 C 162.582031 247.121094 170.992188 247.539062 176.601562 242.859375 C 192.085938 229.945312 219.046875 205.589844 225.710938 187.5625 L 241.136719 122.394531 C 241.140625 122.371094 241.148438 122.347656 241.15625 122.324219 C 242.117188 119.714844 240.984375 116.769531 238.515625 115.484375 L 226.703125 109.320312 C 209.945312 100.578125 194.601562 89.441406 181.089844 76.222656 C 179.007812 74.1875 175.78125 74.085938 173.578125 75.984375 L 168.921875 80 C 156.496094 90.71875 142.722656 99.824219 127.984375 107.058594 L 109.921875 115.921875 C 107.59375 117.066406 106.375 119.628906 106.957031 122.15625 C 106.960938 122.175781 106.964844 122.195312 106.96875 122.210938 L 110.433594 147.21875 C 110.480469 147.550781 110.25 147.851562 109.921875 147.898438 C 109.59375 147.945312 109.289062 147.714844 109.242188 147.386719 L 105.78125 122.402344 C 105.085938 119.335938 106.566406 116.230469 109.390625 114.84375 L 127.453125 105.976562 C 142.101562 98.789062 155.789062 89.742188 168.140625 79.089844 L 172.792969 75.074219 C 175.472656 72.761719 179.402344 72.886719 181.929688 75.359375 C 195.355469 88.5 210.605469 99.566406 227.261719 108.253906 L 239.070312 114.417969 C 242.0625 115.980469 243.445312 119.535156 242.296875 122.707031 L 226.871094 187.875 C 226.867188 187.898438 226.859375 187.921875 226.847656 187.945312 C 220.109375 206.238281 192.957031 230.78125 177.371094 243.785156 C 174.542969 246.144531 171.046875 247.3125 167.566406 247.3125 " fill-opacity="1" fill-rule="nonzero"/><path fill="#ffffff" d="M 184.054688 147.613281 L 183.777344 130.320312 C 183.652344 124.734375 179.222656 120.160156 173.640625 119.902344 C 167.488281 119.621094 162.382812 124.652344 162.523438 130.8125 L 162.492188 147.636719 L 155.675781 148.574219 C 155.144531 157.242188 156.089844 131.203125 156.089844 131.203125 C 155.855469 121.308594 163.773438 113.191406 173.988281 113.605469 L 173.988281 113.613281 C 182.421875 113.957031 190.140625 121.378906 190.351562 130.414062 L 190.566406 147.878906 L 184.054688 147.613281 " fill-opacity="1" fill-rule="nonzero"/><path fill="#000000" d="M 173.234375 114.191406 C 168.820312 114.191406 164.71875 115.84375 161.621094 118.890625 C 158.332031 122.125 156.578125 126.492188 156.6875 131.191406 C 156.492188 136.621094 156.238281 144.125 156.148438 147.902344 L 161.886719 147.113281 L 161.921875 130.8125 C 161.847656 127.714844 163.085938 124.675781 165.320312 122.496094 C 167.570312 120.292969 170.535156 119.15625 173.667969 119.304688 C 179.539062 119.574219 184.246094 124.40625 184.378906 130.308594 L 184.644531 147.039062 L 189.957031 147.253906 L 189.746094 130.425781 C 189.550781 121.980469 182.320312 114.554688 173.960938 114.214844 C 173.925781 114.214844 173.890625 114.210938 173.859375 114.203125 C 173.652344 114.195312 173.441406 114.191406 173.234375 114.191406 Z M 155.542969 150.945312 C 155.527344 150.945312 155.515625 150.945312 155.5 150.941406 C 154.898438 150.914062 154.902344 150.472656 154.914062 149.511719 C 154.917969 148.988281 154.933594 148.234375 154.957031 147.335938 C 155.003906 145.539062 155.078125 143.144531 155.152344 140.75 C 155.3125 135.964844 155.484375 131.183594 155.484375 131.183594 C 155.367188 126.183594 157.25 121.503906 160.78125 118.03125 C 164.285156 114.585938 168.984375 112.800781 174.007812 113.007812 C 174.042969 113.007812 174.078125 113.011719 174.113281 113.019531 C 183.039062 113.4375 190.738281 121.378906 190.949219 130.402344 L 191.171875 147.875 C 191.171875 148.039062 191.101562 148.195312 190.984375 148.3125 C 190.867188 148.425781 190.703125 148.488281 190.542969 148.480469 L 184.03125 148.21875 C 183.710938 148.203125 183.457031 147.945312 183.453125 147.625 L 183.175781 130.332031 C 183.058594 125.0625 178.855469 120.746094 173.613281 120.507812 C 170.804688 120.378906 168.171875 121.390625 166.160156 123.355469 C 164.164062 125.304688 163.058594 128.015625 163.125 130.796875 L 163.089844 147.640625 C 163.089844 147.941406 162.867188 148.195312 162.570312 148.234375 L 156.242188 149.105469 C 156.21875 149.476562 156.199219 149.765625 156.179688 149.972656 C 156.148438 150.386719 156.101562 150.945312 155.542969 150.945312 " fill-opacity="1" fill-rule="nonzero"/><path fill="#5479f7" d="M 178.027344 195.160156 L 170.734375 195.449219 C 160.632812 195.195312 151.703125 183.125 152.660156 168.9375 L 154.195312 146.238281 L 197.128906 145.894531 C 200.9375 145.878906 204.132812 149.277344 203.867188 153.078125 L 202.542969 172.246094 C 201.671875 185.144531 190.957031 195.160156 178.027344 195.160156 " fill-opacity="1" fill-rule="nonzero"/><path fill="#ffffff" d="M 170.996094 194.804688 C 156.773438 194.804688 145.523438 182.769531 146.480469 168.578125 L 147.96875 146.574219 L 193.363281 146.574219 C 195.449219 146.574219 197.101562 148.339844 196.960938 150.425781 L 195.511719 171.894531 C 194.636719 184.789062 183.921875 194.804688 170.996094 194.804688 " fill-opacity="1" fill-rule="nonzero"/><path fill="#000000" d="M 147.863281 174.242188 C 149.621094 186 159.117188 194.203125 170.996094 194.203125 C 183.558594 194.203125 194.0625 184.386719 194.910156 171.851562 L 196.367188 150.269531 C 196.421875 149.460938 196.148438 148.691406 195.59375 148.097656 C 195.039062 147.503906 194.285156 147.175781 193.476562 147.175781 L 151.523438 147.175781 C 149.847656 147.175781 148.441406 148.488281 148.332031 150.164062 Z M 170.996094 195.40625 C 158.699219 195.40625 148.824219 187.042969 146.765625 174.984375 C 146.691406 174.882812 146.652344 174.757812 146.652344 174.625 L 146.65625 174.320312 C 146.648438 174.253906 146.652344 174.1875 146.664062 174.125 L 147.128906 150.109375 C 147.285156 147.777344 149.214844 145.972656 151.523438 145.972656 L 193.476562 145.972656 C 194.609375 145.972656 195.699219 146.449219 196.472656 147.273438 C 197.246094 148.101562 197.644531 149.222656 197.570312 150.351562 L 196.109375 171.933594 C 195.222656 185.097656 184.1875 195.40625 170.996094 195.40625 " fill-opacity="1" fill-rule="nonzero"/><path fill="#000000" d="M 170.429688 180.886719 C 169.273438 180.886719 168.351562 179.90625 168.429688 178.75 L 169.519531 161.644531 C 169.585938 160.589844 170.464844 159.765625 171.519531 159.765625 C 172.679688 159.765625 173.597656 160.746094 173.523438 161.902344 L 172.433594 179.007812 C 172.367188 180.0625 171.488281 180.886719 170.429688 180.886719 " fill-opacity="1" fill-rule="nonzero"/><path fill="#000000" d="M 178.523438 163.203125 C 178.523438 167.28125 175.214844 170.589844 171.136719 170.589844 C 167.054688 170.589844 163.746094 167.28125 163.746094 163.203125 C 163.746094 159.121094 167.054688 155.8125 171.136719 155.8125 C 175.214844 155.8125 178.523438 159.121094 178.523438 163.203125 " fill-opacity="1" fill-rule="nonzero"/><path fill="#99b9ff" d="M 239.070312 272.695312 L 138.589844 272.695312 C 135.933594 272.695312 133.777344 270.539062 133.777344 267.882812 C 133.777344 265.226562 135.933594 263.070312 138.589844 263.070312 L 239.070312 263.070312 C 241.730469 263.070312 243.882812 265.226562 243.882812 267.882812 C 243.882812 270.539062 241.730469 272.695312 239.070312 272.695312 " fill-opacity="1" fill-rule="nonzero"/><path fill="#99b9ff" d="M 221.335938 289.734375 L 110.769531 289.734375 C 108.109375 289.734375 105.957031 287.578125 105.957031 284.925781 C 105.957031 282.265625 108.109375 280.113281 110.769531 280.113281 L 221.335938 280.113281 C 223.996094 280.113281 226.148438 282.265625 226.148438 284.925781 C 226.148438 287.578125 223.996094 289.734375 221.335938 289.734375 " fill-opacity="1" fill-rule="nonzero"/><path fill="#99b9ff" d="M 236.707031 307.574219 L 123.808594 307.574219 C 121.152344 307.574219 119 305.421875 119 302.761719 C 119 300.105469 121.152344 297.953125 123.808594 297.953125 L 236.707031 297.953125 C 239.363281 297.953125 241.515625 300.105469 241.515625 302.761719 C 241.515625 305.421875 239.363281 307.574219 236.707031 307.574219 " fill-opacity="1" fill-rule="nonzero"/><path fill="#ffffff" d="M 35.464844 319.640625 L 33.070312 336.453125 L 26.945312 336.476562 L 26.65625 319.941406 L 35.464844 319.640625 " fill-opacity="1" fill-rule="nonzero"/><path fill="#000000" d="M 27.265625 320.523438 L 27.535156 335.875 L 32.546875 335.855469 L 34.769531 320.265625 Z M 26.945312 337.078125 C 26.617188 337.078125 26.347656 336.816406 26.34375 336.488281 L 26.054688 319.953125 C 26.046875 319.625 26.308594 319.351562 26.632812 319.339844 L 35.445312 319.039062 C 35.621094 319.027344 35.792969 319.109375 35.914062 319.238281 C 36.03125 319.371094 36.085938 319.550781 36.0625 319.726562 L 33.667969 336.539062 C 33.625 336.835938 33.371094 337.054688 33.074219 337.054688 L 26.945312 337.078125 " fill-opacity="1" fill-rule="nonzero"/><path fill="#99b9ff" d="M 33.277344 352.527344 C 30.875 352.785156 27.292969 352.886719 22.507812 352.464844 C 20.796875 352.316406 19.589844 350.730469 19.867188 349.035156 C 20.609375 344.472656 22.683594 336.421875 25.953125 332.730469 L 27.566406 335.03125 L 28.523438 332.652344 C 28.675781 332.398438 32.738281 332.226562 32.824219 332.710938 L 33.070312 335.03125 L 35.375 332.445312 L 35.25 340.929688 C 35.234375 341.867188 35.324219 342.800781 35.511719 343.71875 L 36.117188 346.652344 C 36.484375 348.417969 36.035156 350.285156 34.800781 351.601562 C 34.316406 352.117188 33.78125 352.472656 33.277344 352.527344 " fill-opacity="1" fill-rule="nonzero"/><path fill="#000000" d="M 25.914062 333.726562 C 22.96875 337.601562 21.113281 345.121094 20.460938 349.132812 C 20.355469 349.785156 20.527344 350.457031 20.929688 350.976562 C 21.332031 351.492188 21.910156 351.8125 22.5625 351.867188 C 27.664062 352.316406 31.171875 352.148438 33.214844 351.929688 C 33.535156 351.894531 33.953125 351.625 34.359375 351.191406 C 35.429688 350.050781 35.867188 348.402344 35.53125 346.773438 L 34.925781 343.84375 C 34.726562 342.882812 34.632812 341.898438 34.648438 340.921875 L 34.75 334.050781 L 32.617188 336.445312 L 32.257812 333.082031 C 31.574219 332.953125 29.660156 332.996094 28.984375 333.125 L 27.710938 336.28125 Z M 28.625 353.351562 C 26.902344 353.351562 24.847656 353.277344 22.457031 353.066406 C 21.46875 352.976562 20.589844 352.5 19.980469 351.714844 C 19.371094 350.933594 19.113281 349.921875 19.273438 348.9375 C 19.46875 347.738281 21.304688 337.074219 25.5 332.332031 L 26.003906 331.761719 L 27.421875 333.777344 L 28.007812 332.34375 C 28.457031 331.597656 32.078125 331.832031 32.484375 331.90625 C 32.714844 331.945312 33.320312 332.058594 33.417969 332.605469 L 33.421875 332.644531 L 33.527344 333.617188 L 36 330.84375 L 35.851562 340.941406 C 35.835938 341.832031 35.921875 342.726562 36.101562 343.597656 L 36.707031 346.53125 C 37.125 348.539062 36.574219 350.589844 35.238281 352.011719 C 34.617188 352.675781 33.960938 353.058594 33.34375 353.125 C 32.210938 353.246094 30.644531 353.351562 28.625 353.351562 " fill-opacity="1" fill-rule="nonzero"/><path fill="#000000" d="M 28.898438 350.351562 C 27.210938 350.351562 25.117188 350.222656 22.75 349.804688 C 22.421875 349.75 22.203125 349.4375 22.261719 349.113281 C 22.316406 348.78125 22.632812 348.566406 22.957031 348.621094 C 28.84375 349.660156 33.058594 348.835938 33.097656 348.828125 C 33.421875 348.757812 33.742188 348.972656 33.808594 349.296875 C 33.875 349.621094 33.664062 349.9375 33.335938 350.003906 C 33.226562 350.027344 31.574219 350.351562 28.898438 350.351562 " fill-opacity="1" fill-rule="nonzero"/><path fill="#000000" d="M 30.855469 343.90625 L 25.296875 343.90625 C 24.964844 343.90625 24.695312 343.636719 24.695312 343.304688 C 24.695312 342.972656 24.964844 342.703125 25.296875 342.703125 L 30.855469 342.703125 C 31.1875 342.703125 31.457031 342.972656 31.457031 343.304688 C 31.457031 343.636719 31.1875 343.90625 30.855469 343.90625 " fill-opacity="1" fill-rule="nonzero"/><path fill="#ffffff" d="M 79.445312 321.144531 L 81.601562 340.738281 L 89.84375 342.464844 L 89.339844 319.488281 L 79.445312 321.144531 " fill-opacity="1" fill-rule="nonzero"/><path fill="#000000" d="M 82.148438 340.238281 L 89.226562 341.71875 L 88.753906 320.195312 L 80.105469 321.640625 Z M 89.84375 343.066406 C 89.800781 343.066406 89.761719 343.0625 89.71875 343.054688 L 81.476562 341.324219 C 81.222656 341.273438 81.03125 341.0625 81 340.804688 L 78.847656 321.207031 C 78.8125 320.890625 79.03125 320.601562 79.34375 320.550781 L 89.242188 318.894531 C 89.414062 318.867188 89.589844 318.910156 89.722656 319.023438 C 89.859375 319.136719 89.9375 319.300781 89.941406 319.472656 L 90.445312 342.449219 C 90.449219 342.632812 90.367188 342.808594 90.226562 342.925781 C 90.117188 343.015625 89.980469 343.066406 89.84375 343.066406 " fill-opacity="1" fill-rule="nonzero"/><path fill="#99b9ff" d="M 78.113281 350.082031 C 77.933594 346.648438 77.929688 340.324219 80.019531 337.277344 L 86.613281 339.625 L 86.613281 338.214844 C 86.613281 337.761719 86.9375 337.390625 87.351562 337.363281 L 91.027344 337.152344 C 92.398438 337.074219 93.765625 337.359375 95.019531 337.972656 C 98.71875 339.792969 109.964844 344.453125 111.523438 349.695312 C 111.984375 351.242188 110.777344 352.789062 109.164062 352.835938 C 105.460938 352.941406 96.5625 353.054688 80.589844 352.511719 C 79.261719 352.464844 78.183594 351.410156 78.113281 350.082031 " fill-opacity="1" fill-rule="nonzero"/><path fill="#000000" d="M 78.714844 350.050781 C 78.769531 351.074219 79.582031 351.875 80.609375 351.910156 C 96.410156 352.449219 105.269531 352.34375 109.144531 352.234375 C 109.746094 352.21875 110.316406 351.914062 110.671875 351.425781 C 111.003906 350.964844 111.105469 350.398438 110.949219 349.867188 C 109.652344 345.511719 100.695312 341.308594 96.390625 339.289062 C 95.753906 338.996094 95.203125 338.734375 94.753906 338.515625 C 93.597656 337.945312 92.320312 337.683594 91.0625 337.753906 L 87.382812 337.964844 C 87.304688 337.96875 87.214844 338.070312 87.214844 338.214844 L 87.214844 340.476562 L 80.273438 338.003906 C 78.53125 341.027344 78.542969 346.792969 78.714844 350.050781 Z M 101.78125 353.527344 C 96.875 353.527344 89.9375 353.433594 80.570312 353.113281 C 78.914062 353.054688 77.601562 351.765625 77.511719 350.113281 C 77.328125 346.5625 77.339844 340.121094 79.523438 336.9375 L 79.785156 336.554688 L 86.011719 338.773438 L 86.011719 338.214844 C 86.011719 337.445312 86.585938 336.804688 87.316406 336.765625 L 90.992188 336.554688 C 92.457031 336.464844 93.941406 336.773438 95.285156 337.4375 C 95.726562 337.652344 96.273438 337.910156 96.898438 338.203125 C 101.707031 340.457031 110.652344 344.652344 112.101562 349.523438 C 112.367188 350.414062 112.199219 351.363281 111.644531 352.128906 C 111.074219 352.917969 110.152344 353.410156 109.179688 353.433594 C 107.59375 353.480469 105.171875 353.527344 101.78125 353.527344 " fill-opacity="1" fill-rule="nonzero"/><path fill="#000000" d="M 99.230469 350.269531 C 94.550781 350.269531 88.226562 350.066406 81.320312 349.265625 C 80.988281 349.226562 80.753906 348.925781 80.792969 348.59375 C 80.828125 348.265625 81.128906 348.03125 81.457031 348.066406 C 95.5 349.699219 107.09375 348.851562 107.207031 348.839844 C 107.539062 348.8125 107.828125 349.0625 107.855469 349.394531 C 107.878906 349.726562 107.628906 350.011719 107.300781 350.039062 C 107.238281 350.042969 104.140625 350.269531 99.230469 350.269531 " fill-opacity="1" fill-rule="nonzero"/><path fill="#000000" d="M 97.1875 344.660156 C 97.066406 344.660156 96.945312 344.625 96.835938 344.546875 L 90.488281 339.984375 C 90.21875 339.789062 90.15625 339.414062 90.351562 339.144531 C 90.546875 338.875 90.921875 338.8125 91.191406 339.007812 L 97.539062 343.570312 C 97.808594 343.765625 97.871094 344.140625 97.675781 344.410156 C 97.558594 344.574219 97.375 344.660156 97.1875 344.660156 " fill-opacity="1" fill-rule="nonzero"/><path fill="#5479f7" d="M 82.015625 193.996094 C 82.015625 193.996094 93.832031 275.050781 91.3125 329.148438 L 87.628906 329.515625 C 85.644531 329.714844 83.652344 329.761719 81.660156 329.664062 L 78.164062 329.488281 C 78.164062 329.488281 64.074219 247.308594 57.039062 233.664062 C 57.039062 233.664062 37.90625 306.742188 37.167969 326.542969 C 37.167969 326.542969 28.664062 327.394531 25.273438 326.175781 C 23.453125 307.070312 22.929688 287.292969 22.835938 274.878906 C 22.578125 239.339844 25.972656 223.199219 27.835938 215.539062 C 29.542969 208.507812 31.378906 202.796875 32.71875 198.929688 L 37.191406 186.167969 L 82.015625 193.996094 " fill-opacity="1" fill-rule="nonzero"/><path fill="#000000" d="M 78.675781 328.910156 L 81.691406 329.0625 C 83.644531 329.164062 85.621094 329.113281 87.566406 328.917969 L 90.734375 328.601562 C 93.03125 277.210938 82.398438 200.957031 81.480469 194.515625 L 37.589844 186.851562 L 33.285156 199.128906 C 31.414062 204.53125 29.777344 210.097656 28.417969 215.683594 C 26.164062 224.964844 23.191406 241.195312 23.4375 274.871094 C 23.515625 285.199219 23.925781 305.484375 25.835938 325.726562 C 28.757812 326.566406 34.792969 326.140625 36.59375 325.988281 C 37.632812 305.613281 56.269531 234.238281 56.457031 233.511719 C 56.519531 233.269531 56.726562 233.09375 56.972656 233.066406 C 57.222656 233.039062 57.460938 233.164062 57.574219 233.386719 C 64.371094 246.570312 77.402344 321.527344 78.675781 328.910156 Z M 83.652344 330.316406 C 82.976562 330.316406 82.304688 330.300781 81.632812 330.265625 L 78.136719 330.089844 C 77.855469 330.074219 77.621094 329.867188 77.574219 329.589844 C 77.4375 328.796875 64.308594 252.53125 57.199219 235.449219 C 54.375 246.367188 38.433594 308.699219 37.769531 326.566406 C 37.757812 326.863281 37.527344 327.109375 37.230469 327.140625 C 36.878906 327.175781 28.550781 327.992188 25.070312 326.742188 C 24.851562 326.664062 24.699219 326.464844 24.675781 326.234375 C 22.730469 305.816406 22.3125 285.296875 22.234375 274.878906 C 21.988281 241.070312 24.980469 224.742188 27.25 215.398438 C 28.617188 209.777344 30.265625 204.171875 32.148438 198.734375 L 36.625 185.972656 C 36.722656 185.695312 37.003906 185.523438 37.296875 185.578125 L 82.117188 193.40625 C 82.375 193.449219 82.574219 193.652344 82.609375 193.910156 C 82.730469 194.722656 94.40625 275.640625 91.914062 329.175781 C 91.898438 329.476562 91.667969 329.714844 91.371094 329.746094 L 87.6875 330.113281 C 86.351562 330.246094 85 330.316406 83.652344 330.316406 " fill-opacity="1" fill-rule="nonzero"/><path fill="#000000" d="M 56.375 236.636719 C 56.324219 236.636719 56.269531 236.632812 56.214844 236.617188 C 55.894531 236.527344 55.707031 236.199219 55.796875 235.875 L 57.761719 228.722656 C 58.351562 226.570312 60.078125 224.949219 62.265625 224.5 L 64.105469 224.117188 C 64.433594 224.050781 64.75 224.261719 64.816406 224.585938 C 64.882812 224.910156 64.675781 225.230469 64.347656 225.296875 L 62.511719 225.675781 C 60.765625 226.035156 59.394531 227.324219 58.921875 229.039062 L 56.957031 236.195312 C 56.882812 236.460938 56.640625 236.636719 56.375 236.636719 " fill-opacity="1" fill-rule="nonzero"/><path fill="#000000" d="M 30.410156 223.3125 C 30.121094 223.3125 29.867188 223.105469 29.816406 222.808594 C 29.761719 222.484375 29.984375 222.171875 30.3125 222.117188 C 40.476562 220.421875 42.496094 212.695312 42.578125 212.367188 C 42.65625 212.046875 42.980469 211.851562 43.304688 211.929688 C 43.625 212.003906 43.824219 212.332031 43.746094 212.652344 C 43.722656 212.742188 41.484375 221.476562 30.511719 223.304688 C 30.476562 223.308594 30.445312 223.3125 30.410156 223.3125 " fill-opacity="1" fill-rule="nonzero"/><path fill="#000000" d="M 82.546875 217.988281 C 82.46875 217.988281 82.386719 217.96875 82.308594 217.933594 C 75.859375 215.136719 76.015625 209.007812 76.015625 208.945312 C 76.03125 208.613281 76.300781 208.34375 76.640625 208.367188 C 76.972656 208.378906 77.230469 208.660156 77.21875 208.992188 C 77.210938 209.21875 77.113281 214.371094 82.785156 216.832031 C 83.09375 216.964844 83.230469 217.320312 83.097656 217.625 C 83 217.851562 82.777344 217.988281 82.546875 217.988281 " fill-opacity="1" fill-rule="nonzero"/><path fill="#000000" d="M 81.0625 126.539062 C 73.246094 125.65625 56.566406 124.074219 45.089844 125.125 C 41.628906 125.441406 36.628906 127.558594 33.996094 129.832031 C 26.234375 136.527344 11.597656 151.273438 9.152344 168.96875 C 8.792969 171.550781 10.488281 173.972656 13.03125 174.539062 L 26.558594 177.535156 C 26.558594 177.535156 21.164062 198.785156 21.597656 202.453125 C 22.035156 206.125 33.207031 212.367188 47.179688 207.246094 C 58.074219 203.253906 73.496094 200.074219 83.289062 203.523438 C 83.382812 203.554688 84.316406 211.078125 84.414062 211.09375 C 87.558594 211.550781 90.726562 210.328125 90.652344 205.90625 L 89.160156 182.960938 L 107.085938 180.59375 L 108.6875 180.058594 C 113.53125 178.449219 116.03125 173.101562 114.167969 168.351562 C 109.953125 157.632812 103.601562 140.28125 91.835938 130.699219 C 89.316406 128.648438 84.289062 126.898438 81.0625 126.539062 " fill-opacity="1" fill-rule="nonzero"/><path fill="#99b9ff" d="M 72.914062 197.15625 L 100.925781 197.15625 C 102.140625 197.15625 103.203125 196.328125 103.496094 195.148438 L 113.183594 156.074219 C 113.597656 154.402344 112.335938 152.789062 110.617188 152.789062 L 82.605469 152.789062 C 81.390625 152.789062 80.332031 153.617188 80.039062 154.800781 L 70.347656 193.871094 C 69.933594 195.542969 71.195312 197.15625 72.914062 197.15625 " fill-opacity="1" fill-rule="nonzero"/><path fill="#ffffff" d="M 108.628906 172.757812 L 107.6875 176.703125 L 104.304688 175.574219 C 102.4375 174.953125 100.644531 174.125 98.964844 173.105469 L 97.023438 171.929688 C 95.570312 171.046875 93.6875 171.734375 93.125 173.335938 C 91.925781 176.734375 92.164062 182.429688 104.359375 186.007812 C 111.089844 187.984375 113.019531 179.359375 112.148438 174.566406 C 111.925781 173.34375 111.324219 172.558594 110.707031 172.066406 C 109.96875 171.472656 108.863281 171.84375 108.628906 172.757812 " fill-opacity="1" fill-rule="nonzero"/><path fill="#000000" d="M 95.644531 172.144531 C 95.414062 172.144531 95.179688 172.183594 94.953125 172.265625 C 94.363281 172.476562 93.902344 172.941406 93.691406 173.535156 C 93.03125 175.40625 93.117188 177.171875 93.9375 178.777344 C 95.359375 181.546875 98.921875 183.789062 104.527344 185.429688 C 106.351562 185.964844 107.886719 185.683594 109.09375 184.597656 C 111.390625 182.535156 112.148438 177.933594 111.554688 174.675781 C 111.390625 173.777344 110.980469 173.054688 110.328125 172.535156 C 110.140625 172.382812 109.898438 172.34375 109.671875 172.417969 C 109.441406 172.496094 109.273438 172.671875 109.214844 172.90625 L 108.273438 176.84375 C 108.234375 177.007812 108.128906 177.144531 107.980469 177.230469 C 107.832031 177.3125 107.65625 177.328125 107.5 177.273438 L 104.113281 176.144531 C 102.207031 175.511719 100.371094 174.660156 98.652344 173.621094 L 96.710938 172.441406 C 96.382812 172.242188 96.015625 172.144531 95.644531 172.144531 Z M 106.226562 186.894531 C 105.578125 186.894531 104.894531 186.792969 104.191406 186.585938 C 98.253906 184.84375 94.445312 182.402344 92.867188 179.324219 C 91.902344 177.4375 91.796875 175.296875 92.554688 173.136719 C 92.886719 172.195312 93.613281 171.464844 94.546875 171.132812 C 95.476562 170.800781 96.492188 170.902344 97.332031 171.414062 L 99.277344 172.59375 C 100.917969 173.585938 102.671875 174.398438 104.492188 175.003906 L 107.257812 175.925781 L 108.046875 172.621094 C 108.046875 172.617188 108.046875 172.613281 108.046875 172.609375 C 108.207031 171.984375 108.671875 171.484375 109.289062 171.277344 C 109.90625 171.070312 110.574219 171.191406 111.082031 171.597656 C 111.964844 172.304688 112.523438 173.269531 112.738281 174.460938 C 113.382812 177.992188 112.605469 183.058594 109.902344 185.492188 C 108.867188 186.421875 107.617188 186.894531 106.226562 186.894531 " fill-opacity="1" fill-rule="nonzero"/><path fill="#ffffff" d="M 43.851562 150.140625 C 42.453125 151.574219 40.859375 152.804688 39.117188 153.796875 C 33.234375 157.144531 19.1875 165.253906 15.695312 168.238281 C 11.242188 172.042969 9.113281 173.460938 12.691406 183.246094 C 18.523438 199.195312 45.71875 158.25 45.71875 158.25 C 45.71875 158.25 53.707031 159.695312 55.5 152.695312 C 55.5 152.695312 59.660156 153.476562 61.398438 152.722656 C 62.726562 152.148438 62.671875 149.890625 60.894531 149.640625 L 49.402344 147.5 C 47.820312 147.214844 46.203125 147.734375 45.078125 148.882812 L 43.851562 150.140625 " fill-opacity="1" fill-rule="nonzero"/><path fill="#000000" d="M 43.851562 150.140625 L 43.859375 150.140625 Z M 48.546875 148.023438 C 47.414062 148.023438 46.316406 148.476562 45.507812 149.304688 L 44.285156 150.558594 C 42.84375 152.035156 41.207031 153.300781 39.414062 154.320312 C 33.550781 157.660156 19.539062 165.746094 16.085938 168.695312 L 15.691406 169.03125 C 11.613281 172.503906 9.925781 173.941406 13.253906 183.039062 C 13.992188 185.058594 15.078125 186.128906 16.574219 186.304688 C 25.539062 187.363281 45.023438 158.210938 45.21875 157.917969 C 45.347656 157.714844 45.589844 157.613281 45.824219 157.65625 C 46.128906 157.710938 53.285156 158.910156 54.917969 152.546875 C 54.996094 152.238281 55.300781 152.046875 55.609375 152.101562 C 56.71875 152.308594 59.875 152.726562 61.160156 152.171875 C 61.609375 151.976562 61.761719 151.472656 61.707031 151.089844 C 61.679688 150.863281 61.53125 150.335938 60.8125 150.238281 L 49.292969 148.089844 C 49.046875 148.046875 48.796875 148.023438 48.546875 148.023438 Z M 17.011719 187.535156 C 16.8125 187.535156 16.621094 187.523438 16.433594 187.5 C 14.472656 187.265625 13.023438 185.90625 12.125 183.453125 C 8.511719 173.566406 10.648438 171.746094 14.910156 168.117188 L 15.304688 167.78125 C 18.835938 164.765625 32.925781 156.628906 38.816406 153.273438 C 40.511719 152.308594 42.0625 151.113281 43.421875 149.71875 L 44.648438 148.464844 C 45.914062 147.171875 47.730469 146.585938 49.511719 146.90625 L 61.003906 149.050781 C 62.027344 149.191406 62.761719 149.914062 62.902344 150.925781 C 63.035156 151.929688 62.515625 152.894531 61.636719 153.277344 C 60.117188 153.933594 57.175781 153.574219 55.929688 153.378906 C 54.039062 159.347656 47.671875 159.074219 46.011719 158.894531 C 43.792969 162.191406 26.4375 187.53125 17.011719 187.535156 " fill-opacity="1" fill-rule="nonzero"/><path fill="#ffffff" d="M 70.476562 111.511719 L 71.335938 123.476562 C 71.527344 125.03125 72.648438 126.3125 74.164062 126.707031 L 78.367188 127.804688 L 75.640625 129.882812 C 69.597656 134.484375 61.222656 134.488281 55.171875 129.898438 L 50.855469 126.625 L 56.078125 125.460938 C 57.578125 125.125 58.730469 123.921875 59.003906 122.410156 L 61.308594 106.582031 L 70.476562 111.511719 " fill-opacity="1" fill-rule="nonzero"/><path fill="#000000" d="M 52.253906 126.929688 L 55.535156 129.421875 C 61.351562 133.832031 69.46875 133.824219 75.277344 129.402344 L 77.019531 128.074219 L 74.011719 127.292969 C 72.246094 126.832031 70.960938 125.363281 70.738281 123.546875 L 69.898438 111.886719 L 61.78125 107.519531 L 59.597656 122.496094 C 59.277344 124.273438 57.949219 125.660156 56.207031 126.046875 Z M 65.394531 133.925781 C 61.660156 133.925781 57.925781 132.746094 54.808594 130.378906 L 50.492188 127.105469 C 50.304688 126.964844 50.21875 126.726562 50.269531 126.5 C 50.320312 126.269531 50.496094 126.089844 50.726562 126.039062 L 55.945312 124.875 C 57.210938 124.589844 58.179688 123.582031 58.410156 122.304688 L 60.710938 106.496094 C 60.742188 106.304688 60.863281 106.132812 61.039062 106.046875 C 61.210938 105.957031 61.421875 105.957031 61.59375 106.054688 L 70.761719 110.984375 C 70.945312 111.082031 71.0625 111.265625 71.078125 111.46875 L 71.9375 123.433594 C 72.09375 124.722656 73.027344 125.792969 74.316406 126.128906 L 78.519531 127.222656 C 78.742188 127.28125 78.910156 127.460938 78.957031 127.6875 C 79.003906 127.914062 78.914062 128.144531 78.730469 128.285156 L 76.003906 130.359375 C 72.882812 132.738281 69.136719 133.925781 65.394531 133.925781 " fill-opacity="1" fill-rule="nonzero"/><path fill="#000000" d="M 84.070312 94.863281 C 81.195312 93.339844 83.511719 98.078125 74.050781 89.894531 C 70.285156 86.632812 70.148438 92.71875 69.167969 91.875 C 65.550781 88.761719 65.679688 88.863281 63.394531 88.46875 C 61.882812 88.207031 59.863281 90.289062 59.261719 92.265625 C 58.46875 94.867188 60.199219 96.425781 59.609375 102.425781 C 59.195312 106.640625 57.867188 108.710938 59.082031 109.90625 C 60.3125 111.117188 62.308594 109.636719 63.75 110.859375 C 65.613281 112.4375 63.488281 115.953125 64.863281 118.441406 C 65.730469 120.011719 68.582031 121.859375 74.578125 121.71875 C 75.550781 121.691406 76.375 120.976562 76.535156 120.015625 C 76.734375 118.78125 76.984375 117.222656 77.097656 115.714844 C 77.632812 108.519531 76.085938 106.128906 77.609375 104.898438 C 79.945312 103.015625 83.917969 106.527344 85.601562 104.871094 C 87.355469 103.152344 88.007812 96.945312 84.070312 94.863281 " fill-opacity="1" fill-rule="nonzero"/><path fill="#ffffff" d="M 69.761719 98.894531 L 69.882812 100.859375 C 69.9375 101.785156 69.929688 102.714844 69.859375 103.640625 C 69.722656 105.375 69.515625 108.359375 69.527344 110.039062 C 69.539062 112.507812 77.171875 112.992188 77.171875 112.992188 L 78.140625 111.914062 L 79.035156 111.949219 C 79.207031 111.957031 79.382812 111.929688 79.539062 111.847656 C 79.921875 111.648438 80.113281 111.234375 80.046875 110.835938 C 79.6875 108.65625 79.054688 103.84375 79.753906 100.101562 C 79.753906 100.101562 75.511719 96.65625 69.761719 98.894531 " fill-opacity="1" fill-rule="nonzero"/><path fill="#000000" d="M 70.390625 99.304688 L 70.484375 100.824219 C 70.539062 101.773438 70.53125 102.734375 70.457031 103.683594 C 70.332031 105.339844 70.117188 108.363281 70.128906 110.035156 C 70.136719 111.292969 74.082031 112.152344 76.917969 112.371094 L 77.691406 111.511719 C 77.8125 111.375 77.984375 111.300781 78.164062 111.3125 L 79.058594 111.347656 C 79.140625 111.355469 79.210938 111.339844 79.257812 111.316406 C 79.40625 111.238281 79.480469 111.089844 79.457031 110.933594 C 79.058594 108.542969 78.5 104.054688 79.097656 100.363281 C 78.132812 99.707031 74.785156 97.785156 70.390625 99.304688 Z M 77.171875 113.59375 C 77.15625 113.59375 77.144531 113.589844 77.132812 113.589844 C 75.765625 113.503906 68.941406 112.929688 68.925781 110.042969 C 68.914062 108.328125 69.128906 105.265625 69.257812 103.59375 C 69.328125 102.699219 69.335938 101.792969 69.28125 100.898438 L 69.164062 98.929688 C 69.148438 98.671875 69.300781 98.429688 69.542969 98.335938 C 75.550781 95.996094 79.949219 99.484375 80.132812 99.632812 C 80.304688 99.773438 80.386719 99.996094 80.347656 100.210938 C 79.652344 103.917969 80.324219 108.808594 80.640625 110.738281 C 80.753906 111.40625 80.421875 112.066406 79.816406 112.382812 C 79.582031 112.503906 79.300781 112.558594 79.007812 112.550781 L 78.398438 112.527344 L 77.617188 113.390625 C 77.503906 113.519531 77.339844 113.59375 77.171875 113.59375 " fill-opacity="1" fill-rule="nonzero"/><path fill="#ffffff" d="M 68.421875 104.949219 C 68.421875 104.949219 68.140625 100.226562 66.023438 100.824219 C 63.90625 101.417969 64.34375 106.613281 68.421875 104.949219 " fill-opacity="1" fill-rule="nonzero"/><path fill="#ffffff" d="M 316 320.261719 L 320.242188 325.824219 C 320.953125 327 320.65625 328.472656 319.597656 329.039062 L 318.371094 329.691406 C 317.375 330.21875 316.082031 329.753906 315.445312 328.636719 L 310.941406 322.820312 L 316 320.261719 " fill-opacity="1" fill-rule="nonzero"/><path fill="#000000" d="M 311.863281 323.027344 L 315.917969 328.269531 C 315.933594 328.292969 315.949219 328.316406 315.964844 328.339844 C 316.433594 329.164062 317.386719 329.53125 318.085938 329.160156 L 319.308594 328.507812 C 319.625 328.335938 319.859375 328.035156 319.964844 327.652344 C 320.097656 327.171875 320.015625 326.628906 319.742188 326.160156 L 315.824219 321.023438 Z M 317.476562 330.511719 C 316.5 330.511719 315.515625 329.953125 314.941406 328.972656 L 310.464844 323.1875 C 310.355469 323.046875 310.316406 322.863281 310.355469 322.6875 C 310.394531 322.511719 310.511719 322.367188 310.667969 322.285156 L 315.726562 319.722656 C 315.984375 319.59375 316.300781 319.667969 316.476562 319.898438 L 320.71875 325.457031 C 320.730469 325.476562 320.742188 325.496094 320.753906 325.511719 C 321.214844 326.269531 321.347656 327.164062 321.125 327.972656 C 320.929688 328.675781 320.488281 329.242188 319.875 329.566406 L 318.652344 330.222656 C 318.28125 330.417969 317.878906 330.511719 317.476562 330.511719 " fill-opacity="1" fill-rule="nonzero"/><path fill="#99b9ff" d="M 326.738281 328.882812 C 327.449219 329.457031 327.65625 330.457031 327.242188 331.269531 C 325.800781 334.128906 322.535156 340.554688 321.480469 342.285156 C 320.109375 344.527344 317.445312 346.46875 315.402344 346.546875 C 313.351562 346.628906 313.417969 340.882812 313.757812 338.414062 C 314.265625 334.75 313.222656 329.949219 313.898438 328.867188 C 314.292969 328.234375 315.929688 328.15625 317.226562 328.199219 C 318.230469 328.234375 319.132812 327.578125 319.429688 326.617188 L 319.902344 325.082031 C 320.019531 324.691406 320.472656 324.515625 320.824219 324.722656 C 321.90625 325.367188 324.160156 326.785156 326.738281 328.882812 " fill-opacity="1" fill-rule="nonzero"/><path fill="#000000" d="M 316.660156 328.789062 C 315.035156 328.789062 314.484375 329.066406 314.410156 329.183594 C 314.175781 329.5625 314.28125 331.273438 314.367188 332.648438 C 314.484375 334.503906 314.617188 336.609375 314.359375 338.496094 C 314.035156 340.816406 314.085938 344.742188 315.015625 345.765625 C 315.164062 345.933594 315.28125 345.953125 315.378906 345.945312 C 317.164062 345.878906 319.671875 344.09375 320.96875 341.972656 C 322.015625 340.25 325.332031 333.726562 326.707031 331 C 326.992188 330.4375 326.847656 329.742188 326.363281 329.347656 C 323.824219 327.289062 321.609375 325.886719 320.519531 325.242188 L 319.902344 325.082031 L 320.476562 325.257812 L 320.003906 326.796875 C 319.628906 328.019531 318.488281 328.851562 317.207031 328.800781 C 317.011719 328.792969 316.828125 328.789062 316.660156 328.789062 Z M 315.359375 347.148438 C 314.890625 347.148438 314.464844 346.953125 314.125 346.574219 C 312.640625 344.933594 312.945312 339.949219 313.164062 338.332031 C 313.410156 336.5625 313.28125 334.523438 313.167969 332.722656 C 313.027344 330.507812 312.96875 329.21875 313.390625 328.546875 C 313.675781 328.09375 314.382812 327.503906 317.246094 327.597656 C 317.976562 327.617188 318.636719 327.148438 318.855469 326.441406 L 319.328125 324.902344 C 319.4375 324.539062 319.707031 324.253906 320.0625 324.113281 C 320.417969 323.980469 320.804688 324.011719 321.132812 324.207031 C 322.25 324.871094 324.519531 326.304688 327.121094 328.414062 C 328.042969 329.164062 328.320312 330.476562 327.78125 331.542969 C 326.402344 334.28125 323.066406 340.839844 321.992188 342.597656 C 320.460938 345.109375 317.636719 347.066406 315.425781 347.148438 C 315.402344 347.148438 315.378906 347.148438 315.359375 347.148438 " fill-opacity="1" fill-rule="nonzero"/><path fill="#000000" d="M 315.726562 334.730469 C 315.421875 334.730469 315.160156 334.5 315.128906 334.191406 C 315.09375 333.863281 315.332031 333.566406 315.660156 333.53125 L 318.617188 333.214844 C 318.945312 333.179688 319.242188 333.421875 319.277344 333.75 C 319.3125 334.078125 319.074219 334.375 318.742188 334.410156 L 315.789062 334.726562 C 315.769531 334.730469 315.746094 334.730469 315.726562 334.730469 " fill-opacity="1" fill-rule="nonzero"/><path fill="#ffffff" d="M 285.769531 333.105469 L 286.160156 337.65625 C 286.195312 338.9375 285.226562 339.988281 284.042969 339.957031 L 282.675781 339.914062 C 281.570312 339.882812 280.691406 338.902344 280.691406 337.703125 L 280.335938 331.933594 L 285.769531 333.105469 " fill-opacity="1" fill-rule="nonzero"/><path fill="#000000" d="M 280.984375 332.6875 L 281.289062 337.667969 C 281.289062 338.582031 281.910156 339.292969 282.695312 339.316406 L 284.0625 339.355469 C 284.433594 339.367188 284.792969 339.21875 285.070312 338.9375 C 285.394531 338.617188 285.574219 338.15625 285.558594 337.675781 L 285.207031 333.597656 Z M 284.101562 340.558594 C 284.074219 340.558594 284.050781 340.558594 284.027344 340.558594 L 282.660156 340.515625 C 281.21875 340.472656 280.089844 339.238281 280.089844 337.703125 L 279.734375 331.96875 C 279.722656 331.78125 279.800781 331.597656 279.941406 331.476562 C 280.085938 331.355469 280.277344 331.304688 280.464844 331.34375 L 285.898438 332.515625 C 286.152344 332.574219 286.34375 332.789062 286.367188 333.054688 L 286.761719 337.605469 C 286.785156 338.453125 286.476562 339.234375 285.921875 339.789062 C 285.425781 340.289062 284.777344 340.558594 284.101562 340.558594 " fill-opacity="1" fill-rule="nonzero"/><path fill="#99b9ff" d="M 286.375 337.132812 C 286.6875 336.769531 287.242188 336.765625 287.554688 337.125 C 288.175781 337.835938 289.078125 339.046875 289.378906 340.371094 C 289.847656 342.464844 290.640625 346.859375 289.199219 347.339844 C 288.128906 347.695312 276.792969 347.324219 271.1875 347.121094 C 269.417969 347.054688 268.492188 344.960938 269.664062 343.636719 C 270.554688 342.636719 272.269531 341.589844 274.28125 340.714844 C 277.300781 339.398438 278.734375 338.238281 279.414062 337.449219 C 279.878906 336.910156 280.65625 336.765625 281.261719 337.140625 L 283.082031 338.257812 C 283.960938 338.796875 285.109375 338.617188 285.78125 337.828125 L 286.375 337.132812 " fill-opacity="1" fill-rule="nonzero"/><path fill="#000000" d="M 286.375 337.132812 L 286.378906 337.132812 Z M 280.527344 337.535156 C 280.285156 337.535156 280.042969 337.640625 279.871094 337.84375 C 278.867188 339.003906 277.066406 340.15625 274.523438 341.265625 C 272.503906 342.144531 270.894531 343.15625 270.113281 344.035156 C 269.726562 344.46875 269.636719 345.054688 269.867188 345.59375 C 270.050781 346.023438 270.5 346.492188 271.207031 346.519531 C 286.625 347.082031 288.730469 346.855469 289.007812 346.769531 C 289.4375 346.628906 289.757812 344.800781 288.789062 340.503906 C 288.511719 339.269531 287.613281 338.105469 287.101562 337.519531 C 287.058594 337.464844 287.003906 337.445312 286.96875 337.457031 C 286.929688 337.457031 286.878906 337.46875 286.832031 337.523438 L 286.238281 338.21875 C 285.367188 339.242188 283.910156 339.472656 282.765625 338.769531 L 280.945312 337.652344 C 280.816406 337.574219 280.671875 337.535156 280.527344 337.535156 Z M 285.835938 348.089844 C 283.304688 348.089844 278.902344 348.003906 271.164062 347.722656 C 270.101562 347.683594 269.179688 347.046875 268.761719 346.066406 C 268.347656 345.101562 268.523438 344.019531 269.214844 343.238281 C 270.121094 342.214844 271.835938 341.125 274.042969 340.164062 C 277.003906 338.871094 278.351562 337.761719 278.957031 337.054688 C 279.625 336.285156 280.726562 336.105469 281.578125 336.628906 L 283.394531 337.742188 C 284.027344 338.136719 284.839844 338.003906 285.324219 337.4375 L 285.917969 336.742188 C 286.179688 336.433594 286.558594 336.257812 286.957031 336.257812 C 286.964844 336.257812 286.964844 336.257812 286.96875 336.257812 C 287.367188 336.257812 287.746094 336.429688 288.007812 336.730469 C 288.722656 337.546875 289.640625 338.824219 289.960938 340.242188 C 291.53125 347.199219 289.917969 347.734375 289.386719 347.910156 C 289.210938 347.96875 288.847656 348.089844 285.835938 348.089844 " fill-opacity="1" fill-rule="nonzero"/><path fill="#000000" d="M 280.378906 343.386719 C 280.261719 343.386719 280.140625 343.355469 280.035156 343.28125 L 277.277344 341.375 C 277.007812 341.183594 276.9375 340.8125 277.125 340.535156 C 277.316406 340.265625 277.691406 340.195312 277.960938 340.382812 L 280.722656 342.292969 C 280.996094 342.480469 281.0625 342.855469 280.875 343.128906 C 280.757812 343.296875 280.570312 343.386719 280.378906 343.386719 " fill-opacity="1" fill-rule="nonzero"/><path fill="#5479f7" d="M 272.746094 280.542969 C 272.746094 280.542969 273.925781 291.796875 275.667969 300.578125 C 277.054688 307.585938 276.175781 316.738281 278.289062 326.96875 C 278.925781 330.054688 279.9375 334.761719 279.941406 334.765625 L 286.363281 334.949219 C 286.816406 334.136719 289.441406 319.574219 286.796875 307.296875 C 285.238281 300.042969 289.578125 289.921875 288.5 283.328125 C 287.648438 278.113281 285.328125 262.953125 285.328125 262.953125 L 273.898438 263.023438 C 273.898438 263.023438 272.605469 271.53125 272.746094 280.542969 " fill-opacity="1" fill-rule="nonzero"/><path fill="#000000" d="M 280.433594 334.175781 L 285.941406 334.335938 C 286.578125 331.941406 288.625 318.636719 286.210938 307.421875 C 285.359375 303.464844 286.199219 298.757812 287.011719 294.203125 C 287.722656 290.203125 288.398438 286.425781 287.90625 283.421875 C 287.15625 278.808594 285.226562 266.253906 284.8125 263.558594 L 274.421875 263.621094 C 274.152344 265.578125 273.234375 272.902344 273.347656 280.507812 C 273.414062 281.121094 274.582031 292.011719 276.257812 300.457031 C 276.882812 303.628906 277.058594 307.261719 277.238281 311.109375 C 277.460938 315.851562 277.71875 321.222656 278.878906 326.847656 C 279.40625 329.378906 280.164062 332.925781 280.433594 334.175781 Z M 286.363281 335.550781 C 286.359375 335.550781 286.351562 335.550781 286.347656 335.550781 L 279.925781 335.367188 C 279.667969 335.359375 279.441406 335.1875 279.367188 334.9375 C 279.339844 334.851562 278.226562 329.625 277.699219 327.089844 C 276.519531 321.375 276.261719 315.953125 276.039062 311.167969 C 275.855469 307.363281 275.6875 303.773438 275.078125 300.691406 C 273.351562 291.984375 272.164062 280.71875 272.148438 280.605469 C 272.148438 280.589844 272.144531 280.570312 272.144531 280.550781 C 272.007812 271.59375 273.292969 263.019531 273.304688 262.933594 C 273.347656 262.640625 273.601562 262.421875 273.894531 262.421875 L 285.324219 262.351562 C 285.328125 262.351562 285.328125 262.351562 285.328125 262.351562 C 285.625 262.351562 285.878906 262.570312 285.921875 262.863281 C 285.945312 263.015625 288.253906 278.078125 289.097656 283.230469 C 289.617188 286.433594 288.925781 290.308594 288.195312 294.414062 C 287.40625 298.851562 286.585938 303.445312 287.386719 307.167969 C 290.015625 319.382812 287.523438 334.113281 286.886719 335.246094 C 286.78125 335.433594 286.578125 335.550781 286.363281 335.550781 " fill-opacity="1" fill-rule="nonzero"/><path fill="#5479f7" d="M 283.589844 263.871094 C 285.640625 254.5625 297.988281 257.34375 301.261719 273.820312 C 302.542969 280.277344 305.0625 291.078125 304.886719 295.824219 C 304.824219 297.617188 305.484375 299.363281 306.667969 300.710938 C 315.050781 310.226562 314.648438 311.3125 317.828125 321.15625 C 317.878906 321.3125 315.316406 325.425781 313.515625 326.003906 C 306.253906 320.46875 299.253906 307.984375 295.390625 303.578125 C 291.53125 299.167969 283.890625 272.183594 283.890625 272.183594 C 283.890625 272.183594 282.332031 269.578125 283.589844 263.871094 " fill-opacity="1" fill-rule="nonzero"/><path fill="#5479f7" d="M 289.230469 258.785156 C 286.527344 258.785156 284.492188 260.699219 283.785156 263.914062 C 282.5625 269.460938 284.046875 272.058594 284.058594 272.082031 L 284.082031 272.128906 C 284.15625 272.402344 291.753906 299.117188 295.542969 303.445312 C 296.8125 304.890625 298.402344 307.1875 300.246094 309.84375 C 304.023438 315.289062 308.714844 322.054688 313.550781 325.777344 C 315.140625 325.15625 317.402344 321.691406 317.617188 321.164062 C 317.242188 320 316.917969 318.957031 316.625 318.007812 C 314.449219 311.050781 313.863281 309.179688 306.519531 300.839844 C 305.273438 299.425781 304.621094 297.640625 304.6875 295.820312 C 304.828125 291.988281 303.203125 284.175781 301.894531 277.898438 C 301.59375 276.445312 301.308594 275.078125 301.066406 273.859375 C 299.019531 263.566406 293.527344 258.828125 289.292969 258.785156 C 289.269531 258.785156 289.25 258.785156 289.230469 258.785156 Z M 313.476562 326.226562 L 313.394531 326.164062 C 308.480469 322.414062 303.730469 315.570312 299.914062 310.074219 C 298.078125 307.425781 296.496094 305.140625 295.238281 303.707031 C 291.414062 299.34375 284.101562 273.671875 283.703125 272.261719 C 283.539062 271.96875 282.183594 269.324219 283.394531 263.828125 L 283.589844 263.871094 L 283.394531 263.828125 C 284.148438 260.414062 286.324219 258.382812 289.230469 258.382812 C 289.253906 258.382812 289.273438 258.382812 289.296875 258.382812 C 293.691406 258.429688 299.371094 263.265625 301.457031 273.78125 C 301.699219 274.996094 301.984375 276.367188 302.285156 277.816406 C 303.597656 284.117188 305.230469 291.953125 305.085938 295.832031 C 305.023438 297.554688 305.640625 299.238281 306.820312 300.578125 C 314.21875 308.976562 314.808594 310.867188 317.003906 317.886719 C 317.304688 318.851562 317.632812 319.910156 318.015625 321.09375 C 318.046875 321.183594 318.015625 321.269531 317.9375 321.425781 C 317.515625 322.246094 315.265625 325.652344 313.574219 326.195312 L 313.476562 326.226562 " fill-opacity="1" fill-rule="nonzero"/><path fill="#000000" d="M 317.253906 320.992188 Z M 313.515625 326.605469 C 313.386719 326.605469 313.257812 326.5625 313.148438 326.484375 C 308.1875 322.699219 303.417969 315.824219 299.589844 310.300781 C 297.761719 307.664062 296.179688 305.386719 294.941406 303.972656 C 293.1875 301.972656 290.546875 295.511719 287.089844 284.777344 L 287.03125 284.59375 C 286.765625 283.734375 286.0625 281.453125 284.058594 280.589844 C 283.753906 280.460938 283.613281 280.105469 283.742188 279.800781 C 283.875 279.496094 284.230469 279.355469 284.535156 279.488281 C 287.046875 280.566406 287.871094 283.238281 288.179688 284.242188 L 288.234375 284.410156 C 291.59375 294.839844 294.226562 301.332031 295.84375 303.179688 C 297.128906 304.644531 298.726562 306.949219 300.574219 309.613281 C 304.285156 314.964844 308.886719 321.597656 313.605469 325.3125 C 314.902344 324.613281 316.773438 321.921875 317.191406 321.132812 C 316.832031 320.027344 316.523438 319.035156 316.238281 318.128906 C 314.085938 311.234375 313.507812 309.382812 306.21875 301.105469 C 304.902344 299.613281 304.214844 297.730469 304.285156 295.804688 C 304.425781 292.019531 302.804688 284.234375 301.5 277.980469 C 301.199219 276.523438 300.910156 275.15625 300.671875 273.9375 C 298.671875 263.863281 293.367188 259.226562 289.289062 259.1875 C 289.269531 259.1875 289.253906 259.1875 289.234375 259.1875 C 286.730469 259.1875 284.84375 260.980469 284.175781 264 L 284.128906 264.226562 C 284.058594 264.550781 283.742188 264.761719 283.417969 264.691406 C 283.089844 264.621094 282.882812 264.304688 282.953125 263.976562 L 283.003906 263.738281 C 283.796875 260.132812 286.125 257.980469 289.230469 257.980469 C 289.253906 257.980469 289.277344 257.980469 289.300781 257.980469 C 293.851562 258.03125 299.722656 262.96875 301.851562 273.703125 C 302.09375 274.917969 302.378906 276.285156 302.679688 277.738281 C 303.996094 284.054688 305.636719 291.917969 305.488281 295.847656 C 305.429688 297.464844 306.011719 299.050781 307.121094 300.3125 C 314.578125 308.777344 315.175781 310.683594 317.386719 317.769531 C 317.6875 318.730469 318.019531 319.785156 318.402344 320.96875 C 318.484375 321.234375 318.371094 321.460938 318.292969 321.609375 C 318.027344 322.128906 315.660156 325.945312 313.699219 326.578125 C 313.636719 326.59375 313.578125 326.605469 313.515625 326.605469 " fill-opacity="1" fill-rule="nonzero"/><path fill="#000000" d="M 298.765625 233.941406 C 300.234375 233.804688 302.65625 234.589844 307.007812 229.992188 C 314.214844 236.34375 324.597656 233.449219 328.726562 228.894531 C 333.773438 223.332031 333.609375 212.605469 326.886719 206.800781 C 332.410156 207.003906 333.992188 204.949219 334.46875 204.128906 C 337.277344 199.320312 330.976562 187.476562 324.605469 187.167969 C 322.253906 187.054688 319.003906 189.820312 312.59375 195.351562 C 305.976562 201.066406 305.65625 202.21875 303.722656 202.339844 C 298.050781 202.691406 296.777344 193.113281 289.359375 191.589844 C 283.355469 190.359375 277.15625 194.886719 276.828125 202.164062 C 276.691406 205.089844 280.335938 204.648438 282.171875 210.546875 C 284.527344 218.125 289.78125 234.773438 298.765625 233.941406 " fill-opacity="1" fill-rule="nonzero"/><path fill="#ffffff" d="M 269.351562 222.15625 C 263.4375 223.222656 260.722656 223.207031 255.828125 220.925781 C 255.828125 220.925781 250.375 217.910156 250.890625 216.367188 L 252.476562 202.621094 C 252.734375 200.535156 252.566406 198.417969 251.980469 196.402344 L 250.070312 191.039062 C 249.75 190.128906 248.398438 190.382812 248.425781 191.347656 L 248.5 194.128906 C 248.5 194.128906 247.585938 194.140625 247.203125 193.992188 C 246.363281 193.679688 245.726562 192.96875 245.425781 192.117188 C 245.078125 191.140625 244.511719 189.570312 244.273438 189.136719 C 243.917969 188.5 243.507812 187.570312 242.773438 187.164062 L 242.75 187.152344 C 241.980469 186.738281 241.066406 187.382812 241.195312 188.246094 L 241.652344 191.246094 C 241.984375 193.421875 243 195.433594 244.554688 196.992188 L 247.640625 200.078125 C 248.210938 200.652344 248.382812 201.511719 248.078125 202.257812 L 242.839844 215.003906 C 241.65625 217.945312 241.359375 220.714844 242.125 222.535156 C 246.121094 232.007812 270.785156 237.96875 270.785156 237.96875 L 269.351562 222.15625 " fill-opacity="1" fill-rule="nonzero"/><path fill="#000000" d="M 242.242188 187.628906 C 242.121094 187.628906 242.027344 187.683594 241.980469 187.710938 C 241.910156 187.761719 241.75 187.902344 241.792969 188.15625 L 242.246094 191.15625 C 242.5625 193.21875 243.507812 195.089844 244.980469 196.566406 L 248.066406 199.65625 C 248.808594 200.398438 249.03125 201.507812 248.632812 202.484375 L 243.394531 215.230469 C 242.25 218.085938 241.988281 220.664062 242.679688 222.304688 C 246.109375 230.433594 265.828125 236.042969 270.109375 237.175781 L 268.8125 222.863281 C 263.21875 223.828125 260.394531 223.71875 255.574219 221.46875 C 255.5625 221.464844 255.550781 221.460938 255.535156 221.453125 C 253.789062 220.484375 249.816406 218.058594 250.300781 216.246094 L 251.878906 202.550781 C 252.132812 200.53125 251.96875 198.523438 251.398438 196.574219 L 249.507812 191.238281 C 249.445312 191.078125 249.320312 191.0625 249.226562 191.078125 C 249.132812 191.097656 249.019531 191.15625 249.027344 191.328125 L 249.101562 194.113281 C 249.105469 194.273438 249.046875 194.429688 248.933594 194.546875 C 248.824219 194.660156 248.667969 194.726562 248.507812 194.730469 C 248.335938 194.730469 247.460938 194.734375 246.992188 194.554688 C 246.007812 194.1875 245.230469 193.371094 244.859375 192.320312 C 244.082031 190.125 243.820312 189.566406 243.746094 189.429688 C 243.695312 189.335938 243.640625 189.242188 243.589844 189.140625 C 243.292969 188.582031 242.957031 187.957031 242.484375 187.691406 C 242.394531 187.644531 242.3125 187.628906 242.242188 187.628906 Z M 270.785156 238.570312 C 270.738281 238.570312 270.6875 238.566406 270.644531 238.554688 C 269.625 238.308594 245.640625 232.410156 241.570312 222.769531 C 240.757812 220.839844 241.015625 217.929688 242.28125 214.777344 L 247.519531 202.027344 C 247.734375 201.503906 247.617188 200.90625 247.214844 200.503906 L 244.132812 197.417969 C 242.472656 195.757812 241.410156 193.652344 241.058594 191.335938 L 240.605469 188.335938 C 240.507812 187.710938 240.769531 187.09375 241.289062 186.726562 C 241.808594 186.363281 242.480469 186.324219 243.035156 186.625 C 243.855469 187.074219 244.296875 187.90625 244.652344 188.574219 C 244.699219 188.667969 244.75 188.761719 244.796875 188.847656 C 245 189.207031 245.398438 190.242188 245.996094 191.917969 C 246.246094 192.636719 246.765625 193.1875 247.417969 193.433594 C 247.5 193.460938 247.675781 193.488281 247.882812 193.507812 L 247.824219 191.363281 C 247.804688 190.636719 248.289062 190.03125 249.003906 189.898438 C 249.722656 189.765625 250.394531 190.148438 250.636719 190.839844 L 252.542969 196.203125 C 253.167969 198.34375 253.34375 200.515625 253.074219 202.691406 L 251.492188 216.433594 C 251.484375 216.476562 251.476562 216.515625 251.460938 216.554688 C 251.296875 217.050781 253.289062 218.832031 256.101562 220.390625 C 260.832031 222.59375 263.414062 222.617188 269.246094 221.566406 C 269.410156 221.539062 269.582031 221.578125 269.71875 221.679688 C 269.851562 221.78125 269.9375 221.9375 269.949219 222.101562 L 271.382812 237.914062 C 271.398438 238.105469 271.324219 238.296875 271.175781 238.421875 C 271.066406 238.519531 270.925781 238.570312 270.785156 238.570312 " fill-opacity="1" fill-rule="nonzero"/><path fill="#ffffff" d="M 264.035156 221.777344 C 263.691406 221.957031 263.519531 222.355469 263.613281 222.730469 L 266.460938 234.167969 C 267.375 237.507812 267.914062 240.941406 268.066406 244.398438 L 269.03125 265.953125 C 269.03125 265.953125 280.246094 274.019531 302.226562 268.261719 L 304.007812 247.898438 C 304.378906 243.65625 305.328125 239.488281 306.828125 235.503906 L 309.609375 228.125 C 309.765625 227.710938 309.625 227.242188 309.265625 226.984375 C 307.691406 225.851562 303.289062 222.863281 298.722656 221.457031 C 290.972656 219.070312 271.34375 217.972656 264.035156 221.777344 " fill-opacity="1" fill-rule="nonzero"/><path fill="#000000" d="M 264.035156 221.777344 L 264.039062 221.777344 Z M 269.617188 265.617188 C 271.324219 266.683594 282.21875 272.757812 301.660156 267.789062 L 303.40625 247.847656 C 303.78125 243.550781 304.746094 239.328125 306.265625 235.292969 L 309.042969 227.914062 C 309.105469 227.753906 309.050781 227.570312 308.914062 227.472656 C 307.277344 226.292969 302.988281 223.402344 298.542969 222.03125 C 290.566406 219.578125 271.265625 218.691406 264.316406 222.3125 C 264.21875 222.363281 264.167969 222.476562 264.195312 222.585938 L 267.042969 234.023438 C 267.964844 237.386719 268.511719 240.875 268.667969 244.371094 Z M 287.039062 270.957031 C 275.144531 270.957031 269.019531 266.683594 268.683594 266.441406 C 268.53125 266.332031 268.441406 266.160156 268.429688 265.980469 L 267.464844 244.425781 C 267.3125 241.015625 266.777344 237.617188 265.878906 234.328125 L 263.03125 222.875 C 262.867188 222.226562 263.167969 221.554688 263.757812 221.246094 C 271.550781 217.1875 291.488281 218.601562 298.894531 220.882812 C 303.515625 222.304688 307.933594 225.28125 309.613281 226.496094 C 310.195312 226.914062 310.421875 227.667969 310.171875 228.335938 L 307.390625 235.714844 C 305.90625 239.648438 304.96875 243.765625 304.605469 247.949219 L 302.824219 268.316406 C 302.800781 268.570312 302.625 268.78125 302.378906 268.84375 C 296.496094 270.386719 291.382812 270.957031 287.039062 270.957031 " fill-opacity="1" fill-rule="nonzero"/><path fill="#000000" d="M 284.109375 252.554688 L 272.628906 252.554688 C 271.960938 252.554688 271.417969 252.011719 271.417969 251.34375 L 271.417969 227.835938 C 271.417969 227.167969 271.960938 226.625 272.628906 226.625 L 284.109375 226.625 C 284.777344 226.625 285.316406 227.167969 285.316406 227.835938 L 285.316406 251.34375 C 285.316406 252.011719 284.777344 252.554688 284.109375 252.554688 " fill-opacity="1" fill-rule="nonzero"/><path fill="#ffffff" d="M 310.542969 231.378906 C 310.136719 230.621094 309.664062 229.953125 309.144531 229.351562 L 306.828125 235.503906 C 305.894531 237.980469 305.175781 240.527344 304.675781 243.121094 C 304.285156 245.757812 303.03125 247.617188 300.097656 247.355469 C 296.390625 247.03125 290.9375 246.265625 288.273438 241.707031 C 287.097656 239.707031 284.996094 237.628906 283.804688 238.683594 C 283.0625 239.34375 284.367188 240.472656 284.855469 241.332031 C 285.152344 241.863281 284.785156 242.035156 284.1875 241.949219 C 280.042969 241.367188 277.390625 237.519531 276.265625 239.300781 C 275.914062 239.859375 276.0625 241.519531 276.707031 242.652344 C 278.714844 246.207031 283.546875 247.628906 286.492188 248.480469 C 291.988281 250.0625 299.355469 258.324219 307.605469 257.417969 C 313.867188 256.730469 314.214844 238.191406 310.542969 231.378906 " fill-opacity="1" fill-rule="nonzero"/><path fill="#000000" d="M 277.082031 239.445312 C 276.9375 239.445312 276.847656 239.507812 276.773438 239.621094 C 276.601562 239.890625 276.632812 241.304688 277.230469 242.359375 C 279.140625 245.738281 283.847656 247.09375 286.65625 247.902344 C 288.71875 248.492188 291.007812 249.972656 293.429688 251.539062 C 297.664062 254.273438 302.464844 257.378906 307.542969 256.820312 C 308.636719 256.699219 309.59375 255.882812 310.375 254.390625 C 313.117188 249.167969 312.921875 237.0625 310.011719 231.664062 C 309.808594 231.289062 309.582031 230.921875 309.328125 230.566406 L 307.390625 235.714844 C 306.476562 238.136719 305.761719 240.667969 305.265625 243.234375 C 304.636719 247.460938 302.078125 248.136719 300.042969 247.957031 C 295.449219 247.550781 290.394531 246.527344 287.753906 242.011719 C 286.828125 240.433594 285.507812 239.144531 284.679688 239.011719 C 284.421875 238.972656 284.289062 239.058594 284.203125 239.136719 C 284.144531 239.34375 284.601562 239.945312 284.820312 240.238281 C 285.019531 240.5 285.226562 240.773438 285.378906 241.039062 C 285.6875 241.589844 285.535156 241.972656 285.410156 242.148438 C 285.25 242.390625 284.886719 242.65625 284.101562 242.546875 C 282.019531 242.253906 280.347656 241.222656 279.007812 240.390625 C 277.925781 239.726562 277.386719 239.445312 277.082031 239.445312 Z M 306.320312 258.089844 C 301.351562 258.089844 296.816406 255.160156 292.777344 252.546875 C 290.433594 251.03125 288.214844 249.601562 286.324219 249.058594 C 283.335938 248.195312 278.335938 246.757812 276.183594 242.949219 C 275.457031 241.664062 275.253906 239.773438 275.757812 238.980469 C 276.667969 237.535156 278.175781 238.46875 279.636719 239.367188 C 280.855469 240.121094 282.367188 241.050781 284.140625 241.335938 C 284.054688 241.21875 283.960938 241.09375 283.863281 240.964844 C 283.296875 240.214844 282.445312 239.089844 283.40625 238.234375 C 283.808594 237.875 284.316406 237.738281 284.867188 237.824219 C 286.355469 238.058594 287.910156 239.902344 288.789062 241.40625 C 291.152344 245.449219 295.859375 246.378906 300.148438 246.757812 C 302.425781 246.960938 303.675781 245.777344 304.082031 243.035156 C 304.59375 240.375 305.324219 237.777344 306.261719 235.292969 L 308.582031 229.136719 C 308.660156 228.9375 308.832031 228.792969 309.042969 228.757812 C 309.253906 228.722656 309.464844 228.796875 309.605469 228.957031 C 310.171875 229.625 310.667969 230.34375 311.074219 231.09375 C 314.121094 236.753906 314.320312 249.464844 311.441406 254.949219 C 310.460938 256.816406 309.191406 257.847656 307.675781 258.015625 C 307.21875 258.066406 306.769531 258.089844 306.320312 258.089844 " fill-opacity="1" fill-rule="nonzero"/><path fill="#ffffff" d="M 281.183594 209.796875 L 281.953125 220.144531 L 278.546875 221.03125 C 277.375 221.332031 277.234375 222.949219 278.34375 223.433594 C 281.445312 224.796875 286.804688 226.191406 293.191406 223.835938 C 294.292969 223.429688 294.433594 221.925781 293.414062 221.339844 L 290.921875 219.902344 L 288.359375 207.816406 L 281.183594 209.796875 " fill-opacity="1" fill-rule="nonzero"/><path fill="#000000" d="M 281.816406 210.246094 L 282.550781 220.101562 C 282.574219 220.390625 282.386719 220.65625 282.101562 220.730469 L 278.695312 221.613281 C 278.261719 221.726562 278.195312 222.105469 278.183594 222.21875 C 278.175781 222.332031 278.179688 222.707031 278.582031 222.882812 C 281.800781 224.296875 286.910156 225.511719 292.984375 223.273438 C 293.28125 223.164062 293.472656 222.910156 293.5 222.601562 C 293.523438 222.292969 293.378906 222.015625 293.113281 221.859375 L 290.621094 220.421875 C 290.472656 220.339844 290.367188 220.195312 290.335938 220.027344 L 287.902344 208.566406 Z M 286.226562 225.714844 C 282.933594 225.714844 280.152344 224.890625 278.101562 223.984375 C 277.359375 223.660156 276.921875 222.929688 276.988281 222.121094 C 277.054688 221.308594 277.605469 220.652344 278.394531 220.449219 L 281.316406 219.691406 L 280.582031 209.84375 C 280.558594 209.558594 280.746094 209.296875 281.023438 209.21875 L 288.199219 207.238281 C 288.359375 207.191406 288.527344 207.21875 288.671875 207.304688 C 288.8125 207.390625 288.910156 207.53125 288.945312 207.691406 L 291.453125 219.515625 L 293.714844 220.820312 C 294.386719 221.207031 294.765625 221.929688 294.699219 222.699219 C 294.632812 223.480469 294.136719 224.132812 293.402344 224.398438 C 290.828125 225.351562 288.414062 225.714844 286.226562 225.714844 " fill-opacity="1" fill-rule="nonzero"/><path fill="#ffffff" d="M 290.582031 209.316406 C 290.582031 209.316406 293.753906 209.164062 294.109375 206.609375 C 294.652344 202.714844 291.453125 203.441406 291.453125 203.441406 C 291.453125 203.441406 291.847656 200.054688 287.402344 200.328125 C 284.621094 200.5 282.261719 200.730469 280.757812 200.894531 C 279.679688 201.015625 278.804688 201.820312 278.605469 202.886719 C 278.214844 204.984375 277.699219 208.539062 278.03125 211.421875 C 278.332031 214.0625 279.34375 216.132812 281.804688 215.992188 C 288.539062 215.605469 290.582031 209.316406 290.582031 209.316406 " fill-opacity="1" fill-rule="nonzero"/><path fill="#000000" d="M 287.902344 200.914062 C 287.753906 200.914062 287.597656 200.917969 287.4375 200.925781 C 284.667969 201.097656 282.308594 201.328125 280.820312 201.492188 C 280.011719 201.582031 279.34375 202.199219 279.199219 202.996094 C 278.84375 204.890625 278.300781 208.496094 278.628906 211.355469 C 279.105469 215.546875 281.113281 215.425781 281.769531 215.394531 C 288 215.035156 289.929688 209.371094 290.007812 209.128906 C 290.089844 208.894531 290.304688 208.726562 290.550781 208.714844 C 290.660156 208.710938 293.234375 208.546875 293.515625 206.523438 C 293.617188 205.792969 293.628906 204.820312 293.101562 204.339844 C 292.546875 203.824219 291.597656 204.023438 291.585938 204.027344 C 291.398438 204.070312 291.199219 204.015625 291.054688 203.886719 C 290.910156 203.757812 290.835938 203.566406 290.855469 203.371094 C 290.855469 203.363281 290.949219 202.382812 290.28125 201.6875 C 289.789062 201.171875 288.988281 200.914062 287.902344 200.914062 Z M 281.566406 216.601562 C 279.886719 216.601562 277.910156 215.664062 277.429688 211.492188 C 277.105469 208.628906 277.570312 205.171875 278.015625 202.777344 C 278.265625 201.441406 279.339844 200.445312 280.691406 200.296875 C 282.191406 200.132812 284.570312 199.898438 287.363281 199.726562 C 289.066406 199.621094 290.347656 200.007812 291.164062 200.867188 C 291.761719 201.5 291.96875 202.25 292.039062 202.785156 C 292.578125 202.789062 293.328125 202.910156 293.917969 203.453125 C 294.644531 204.125 294.910156 205.214844 294.707031 206.691406 C 294.40625 208.871094 292.339844 209.695312 291.007812 209.878906 C 290.414062 211.296875 287.917969 216.242188 281.835938 216.59375 C 281.75 216.597656 281.660156 216.601562 281.566406 216.601562 " fill-opacity="1" fill-rule="nonzero"/><path fill="#000000" d="M 30.75 100.886719 C 30.597656 100.886719 30.441406 100.828125 30.324219 100.710938 C 30.089844 100.476562 30.089844 100.097656 30.324219 99.859375 L 31.722656 98.460938 C 31.957031 98.226562 32.339844 98.226562 32.574219 98.460938 C 32.808594 98.699219 32.808594 99.078125 32.574219 99.3125 L 31.175781 100.710938 C 31.058594 100.828125 30.90625 100.886719 30.75 100.886719 " fill-opacity="1" fill-rule="nonzero"/><path fill="#000000" d="M 36.035156 95.601562 C 35.882812 95.601562 35.726562 95.542969 35.609375 95.425781 C 35.375 95.191406 35.375 94.8125 35.609375 94.574219 L 37.007812 93.175781 C 37.242188 92.941406 37.625 92.941406 37.859375 93.175781 C 38.09375 93.414062 38.09375 93.792969 37.859375 94.027344 L 36.460938 95.425781 C 36.34375 95.542969 36.1875 95.601562 36.035156 95.601562 " fill-opacity="1" fill-rule="nonzero"/><path fill="#000000" d="M 37.433594 100.886719 C 37.28125 100.886719 37.125 100.828125 37.007812 100.710938 L 35.609375 99.3125 C 35.375 99.078125 35.375 98.699219 35.609375 98.460938 C 35.84375 98.226562 36.226562 98.226562 36.460938 98.460938 L 37.859375 99.859375 C 38.09375 100.097656 38.09375 100.476562 37.859375 100.710938 C 37.742188 100.828125 37.585938 100.886719 37.433594 100.886719 " fill-opacity="1" fill-rule="nonzero"/><path fill="#000000" d="M 32.148438 95.601562 C 31.996094 95.601562 31.839844 95.542969 31.722656 95.425781 L 30.324219 94.027344 C 30.089844 93.792969 30.089844 93.414062 30.324219 93.175781 C 30.558594 92.941406 30.941406 92.941406 31.175781 93.175781 L 32.574219 94.574219 C 32.808594 94.8125 32.808594 95.191406 32.574219 95.425781 C 32.457031 95.542969 32.304688 95.601562 32.148438 95.601562 " fill-opacity="1" fill-rule="nonzero"/><path fill="#000000" d="M 43.851562 83.34375 C 43.214844 83.34375 42.582031 83.585938 42.097656 84.070312 C 41.628906 84.542969 41.367188 85.164062 41.367188 85.828125 C 41.367188 86.492188 41.628906 87.117188 42.097656 87.585938 C 42.566406 88.054688 43.191406 88.3125 43.851562 88.3125 C 44.515625 88.3125 45.140625 88.054688 45.609375 87.585938 C 46.078125 87.117188 46.339844 86.492188 46.339844 85.828125 C 46.339844 85.164062 46.078125 84.542969 45.609375 84.070312 C 45.125 83.585938 44.488281 83.34375 43.851562 83.34375 Z M 43.851562 89.515625 C 42.867188 89.515625 41.941406 89.132812 41.246094 88.4375 C 40.550781 87.738281 40.164062 86.8125 40.164062 85.828125 C 40.164062 84.84375 40.550781 83.917969 41.246094 83.21875 C 42.683594 81.78125 45.023438 81.78125 46.460938 83.21875 C 47.15625 83.917969 47.542969 84.84375 47.542969 85.828125 C 47.542969 86.8125 47.15625 87.738281 46.460938 88.4375 C 45.765625 89.132812 44.839844 89.515625 43.851562 89.515625 " fill-opacity="1" fill-rule="nonzero"/><path fill="#000000" d="M 325.203125 179.441406 C 325.050781 179.441406 324.894531 179.382812 324.777344 179.265625 C 324.542969 179.03125 324.542969 178.652344 324.777344 178.417969 L 326.175781 177.015625 C 326.410156 176.78125 326.792969 176.78125 327.027344 177.015625 C 327.261719 177.25 327.261719 177.632812 327.027344 177.867188 L 325.628906 179.265625 C 325.511719 179.382812 325.355469 179.441406 325.203125 179.441406 " fill-opacity="1" fill-rule="nonzero"/><path fill="#000000" d="M 330.484375 174.15625 C 330.332031 174.15625 330.179688 174.097656 330.0625 173.980469 C 329.828125 173.746094 329.828125 173.367188 330.0625 173.132812 L 331.460938 171.730469 C 331.695312 171.496094 332.078125 171.496094 332.308594 171.730469 C 332.546875 171.96875 332.546875 172.347656 332.308594 172.582031 L 330.910156 173.980469 C 330.792969 174.097656 330.640625 174.15625 330.484375 174.15625 " fill-opacity="1" fill-rule="nonzero"/><path fill="#000000" d="M 331.886719 179.441406 C 331.730469 179.441406 331.578125 179.386719 331.460938 179.265625 L 330.0625 177.867188 C 329.828125 177.632812 329.828125 177.25 330.0625 177.015625 C 330.292969 176.78125 330.675781 176.78125 330.910156 177.015625 L 332.308594 178.417969 C 332.546875 178.652344 332.546875 179.03125 332.308594 179.265625 C 332.191406 179.386719 332.039062 179.441406 331.886719 179.441406 " fill-opacity="1" fill-rule="nonzero"/><path fill="#000000" d="M 326.601562 174.15625 C 326.445312 174.15625 326.292969 174.097656 326.175781 173.980469 L 324.777344 172.582031 C 324.542969 172.347656 324.542969 171.96875 324.777344 171.730469 C 325.011719 171.5 325.394531 171.5 325.628906 171.730469 L 327.027344 173.132812 C 327.261719 173.367188 327.261719 173.746094 327.027344 173.980469 C 326.910156 174.097656 326.753906 174.15625 326.601562 174.15625 " fill-opacity="1" fill-rule="nonzero"/></svg>