<svg xmlns="http://www.w3.org/2000/svg" xmlns:xlink="http://www.w3.org/1999/xlink" width="500" zoomAndPan="magnify" viewBox="0 0 375 374.999991" height="500" preserveAspectRatio="xMidYMid meet" version="1.0"><path fill="#a6a6a6" d="M 341.871094 320.449219 C 308.695312 361.796875 252.148438 362.65625 232.03125 364.226562 C 163.566406 369.5625 70.429688 342.957031 32.945312 260.117188 C 0.046875 187.414062 32.730469 118.679688 37.390625 109.277344 C 45.210938 93.511719 64.5625 55.78125 108.183594 34.238281 C 176.09375 0.699219 270.003906 22.574219 296.890625 69.953125 C 309.523438 92.207031 295.921875 99.914062 309.023438 138.046875 C 326.570312 189.117188 356.324219 191.859375 365.070312 232.050781 C 374.945312 277.417969 344.9375 316.625 341.871094 320.449219 " fill-opacity="1" fill-rule="nonzero"/><path fill="#ffffff" d="M 350.570312 45.640625 L 32.40625 45.640625 C 25.382812 45.640625 19.6875 51.214844 19.6875 58.09375 L 19.6875 271.730469 C 19.6875 278.609375 25.382812 284.183594 32.40625 284.183594 L 350.570312 284.183594 C 357.589844 284.183594 363.285156 278.609375 363.285156 271.730469 L 363.285156 58.09375 C 363.285156 51.214844 357.589844 45.640625 350.570312 45.640625 " fill-opacity="1" fill-rule="nonzero"/><path fill="#000000" d="M 32.40625 46.269531 C 25.742188 46.269531 20.320312 51.574219 20.320312 58.089844 L 20.320312 271.730469 C 20.320312 278.25 25.742188 283.550781 32.40625 283.550781 L 350.570312 283.550781 C 357.234375 283.550781 362.65625 278.25 362.65625 271.730469 L 362.65625 58.089844 C 362.65625 51.574219 357.234375 46.269531 350.570312 46.269531 Z M 350.570312 284.8125 L 32.40625 284.8125 C 25.046875 284.8125 19.058594 278.945312 19.058594 271.730469 L 19.058594 58.089844 C 19.058594 50.878906 25.046875 45.007812 32.40625 45.007812 L 350.570312 45.007812 C 357.929688 45.007812 363.917969 50.878906 363.917969 58.089844 L 363.917969 271.730469 C 363.917969 278.945312 357.929688 284.8125 350.570312 284.8125 " fill-opacity="1" fill-rule="nonzero"/><path fill="#99b9ff" d="M 34.042969 277.210938 C 29.816406 277.210938 26.378906 273.863281 26.378906 269.75 L 26.378906 59.652344 C 26.378906 55.539062 29.816406 52.195312 34.042969 52.195312 L 348.929688 52.195312 C 353.15625 52.195312 356.59375 55.539062 356.59375 59.652344 L 356.59375 269.75 C 356.59375 273.863281 353.15625 277.210938 348.929688 277.210938 L 34.042969 277.210938 " fill-opacity="1" fill-rule="nonzero"/><path fill="#ffffff" d="M 150.566406 247.382812 C 150.566406 256.515625 144.058594 263.917969 136.03125 263.917969 L 48.925781 263.917969 C 40.898438 263.917969 34.390625 256.515625 34.390625 247.382812 L 34.390625 78.160156 C 34.390625 69.023438 40.898438 61.621094 48.925781 61.621094 L 136.03125 61.621094 C 144.058594 61.621094 150.566406 69.023438 150.566406 78.160156 L 150.566406 247.382812 " fill-opacity="1" fill-rule="nonzero"/><path fill="#000000" d="M 136.035156 264.546875 L 48.925781 264.546875 C 40.5625 264.546875 33.761719 256.847656 33.761719 247.378906 L 33.761719 78.15625 C 33.761719 68.691406 40.5625 60.988281 48.925781 60.988281 L 136.035156 60.988281 C 144.394531 60.988281 151.199219 68.691406 151.199219 78.15625 L 151.199219 170.328125 C 151.199219 170.675781 150.914062 170.960938 150.566406 170.960938 C 150.222656 170.960938 149.9375 170.675781 149.9375 170.328125 L 149.9375 78.15625 C 149.9375 69.386719 143.699219 62.25 136.035156 62.25 L 48.925781 62.25 C 41.257812 62.25 35.023438 69.386719 35.023438 78.15625 L 35.023438 247.378906 C 35.023438 256.152344 41.257812 263.289062 48.925781 263.289062 L 136.035156 263.289062 C 143.699219 263.289062 149.9375 256.152344 149.9375 247.378906 L 149.9375 191.445312 C 149.9375 191.097656 150.222656 190.8125 150.566406 190.8125 C 150.914062 190.8125 151.199219 191.097656 151.199219 191.445312 L 151.199219 247.378906 C 151.199219 256.847656 144.394531 264.546875 136.035156 264.546875 " fill-opacity="1" fill-rule="nonzero"/><path fill="#99b9ff" d="M 103.679688 155.460938 L 79.738281 155.460938 C 78.148438 155.460938 76.859375 154.167969 76.859375 152.578125 C 76.859375 150.988281 78.148438 149.695312 79.738281 149.695312 L 103.679688 149.695312 C 105.269531 149.695312 106.5625 150.988281 106.5625 152.578125 C 106.5625 154.167969 105.269531 155.460938 103.679688 155.460938 " fill-opacity="1" fill-rule="nonzero"/><path fill="#a6a6a6" d="M 132.402344 172.371094 L 51.015625 172.371094 C 49.425781 172.371094 48.132812 171.082031 48.132812 169.492188 C 48.132812 167.898438 49.425781 166.609375 51.015625 166.609375 L 132.402344 166.609375 C 133.996094 166.609375 135.285156 167.898438 135.285156 169.492188 C 135.285156 171.082031 133.996094 172.371094 132.402344 172.371094 " fill-opacity="1" fill-rule="nonzero"/><path fill="#a6a6a6" d="M 132.402344 184.9375 L 51.015625 184.9375 C 49.425781 184.9375 48.132812 183.648438 48.132812 182.054688 C 48.132812 180.464844 49.425781 179.171875 51.015625 179.171875 L 132.402344 179.171875 C 133.996094 179.171875 135.285156 180.464844 135.285156 182.054688 C 135.285156 183.648438 133.996094 184.9375 132.402344 184.9375 " fill-opacity="1" fill-rule="nonzero"/><path fill="#a6a6a6" d="M 118.398438 222.832031 L 50.804688 222.832031 C 49.214844 222.832031 47.925781 221.546875 47.925781 219.953125 C 47.925781 218.363281 49.214844 217.070312 50.804688 217.070312 L 118.398438 217.070312 C 119.988281 217.070312 121.277344 218.363281 121.277344 219.953125 C 121.277344 221.546875 119.988281 222.832031 118.398438 222.832031 " fill-opacity="1" fill-rule="nonzero"/><path fill="#a6a6a6" d="M 132.195312 235.398438 L 50.804688 235.398438 C 49.214844 235.398438 47.925781 234.109375 47.925781 232.519531 C 47.925781 230.925781 49.214844 229.636719 50.804688 229.636719 L 132.195312 229.636719 C 133.785156 229.636719 135.078125 230.925781 135.078125 232.519531 C 135.078125 234.109375 133.785156 235.398438 132.195312 235.398438 " fill-opacity="1" fill-rule="nonzero"/><path fill="#a6a6a6" d="M 100.804688 246.988281 L 50.804688 246.988281 C 49.214844 246.988281 47.925781 245.695312 47.925781 244.105469 C 47.925781 242.511719 49.214844 241.222656 50.804688 241.222656 L 100.804688 241.222656 C 102.398438 241.222656 103.6875 242.511719 103.6875 244.105469 C 103.6875 245.695312 102.398438 246.988281 100.804688 246.988281 " fill-opacity="1" fill-rule="nonzero"/><path fill="#a6a6a6" d="M 105.496094 197.5 L 51.015625 197.5 C 49.425781 197.5 48.132812 196.210938 48.132812 194.617188 C 48.132812 193.027344 49.425781 191.738281 51.015625 191.738281 L 105.496094 191.738281 C 107.085938 191.738281 108.375 193.027344 108.375 194.617188 C 108.375 196.210938 107.085938 197.5 105.496094 197.5 " fill-opacity="1" fill-rule="nonzero"/><path fill="#a6a6a6" d="M 132.402344 210.0625 L 51.015625 210.0625 C 49.425781 210.0625 48.132812 208.773438 48.132812 207.183594 C 48.132812 205.589844 49.425781 204.300781 51.015625 204.300781 L 132.402344 204.300781 C 133.996094 204.300781 135.285156 205.589844 135.285156 207.183594 C 135.285156 208.773438 133.996094 210.0625 132.402344 210.0625 " fill-opacity="1" fill-rule="nonzero"/><path fill="#000000" d="M 82.097656 119.183594 C 76.578125 119.183594 72.472656 114.015625 73.804688 108.660156 C 75.992188 99.859375 80.796875 88.492188 91.125 86.882812 C 101.894531 85.210938 107.707031 98.34375 110.546875 108.363281 C 112.085938 113.796875 107.976562 119.183594 102.332031 119.183594 L 82.097656 119.183594 " fill-opacity="1" fill-rule="nonzero"/><path fill="#5479f7" d="M 90.722656 136.539062 C 98.6875 136.347656 104.019531 134.628906 109.757812 129.214844 C 103.117188 127.160156 99.839844 127.070312 91.953125 127.070312 C 84.066406 127.070312 79.28125 127.464844 72.644531 129.519531 C 72.644531 129.519531 80.175781 136.800781 90.722656 136.539062 " fill-opacity="1" fill-rule="nonzero"/><path fill="#000000" d="M 72.5 130.183594 C 72.21875 130.183594 71.964844 129.996094 71.890625 129.714844 C 71.800781 129.378906 72 129.035156 72.335938 128.945312 C 78.554688 127.28125 85.15625 126.4375 91.953125 126.4375 C 98.074219 126.4375 104.0625 127.125 109.746094 128.480469 C 110.085938 128.5625 110.292969 128.902344 110.210938 129.242188 C 110.132812 129.582031 109.789062 129.792969 109.453125 129.710938 C 103.863281 128.375 97.976562 127.699219 91.953125 127.699219 C 85.265625 127.699219 78.777344 128.527344 72.664062 130.164062 C 72.609375 130.175781 72.550781 130.183594 72.5 130.183594 " fill-opacity="1" fill-rule="nonzero"/><path fill="#ffffff" d="M 92.144531 132.648438 C 89.351562 132.648438 87.085938 130.382812 87.085938 127.589844 L 87.085938 97.3125 L 97.199219 97.3125 L 97.199219 127.589844 C 97.199219 130.382812 94.9375 132.648438 92.144531 132.648438 " fill-opacity="1" fill-rule="nonzero"/><path fill="#000000" d="M 87.714844 97.945312 L 87.714844 127.589844 C 87.714844 130.03125 89.703125 132.015625 92.144531 132.015625 C 94.585938 132.015625 96.570312 130.03125 96.570312 127.589844 L 96.570312 97.945312 Z M 92.144531 133.277344 C 89.007812 133.277344 86.457031 130.726562 86.457031 127.589844 L 86.457031 97.3125 C 86.457031 96.964844 86.738281 96.683594 87.085938 96.683594 L 97.199219 96.683594 C 97.550781 96.683594 97.832031 96.964844 97.832031 97.3125 L 97.832031 127.589844 C 97.832031 130.726562 95.28125 133.277344 92.144531 133.277344 " fill-opacity="1" fill-rule="nonzero"/><path fill="#ffffff" d="M 88.367188 114.320312 C 85.085938 112.699219 82.808594 109.109375 82.808594 104.941406 L 82.808594 99.5625 C 82.808594 93.683594 87.195312 88.917969 92.609375 88.917969 C 97.671875 88.917969 101.777344 93.375 101.777344 98.875 L 101.777344 104.941406 C 101.777344 110.628906 97.53125 115.242188 92.292969 115.242188 L 88.367188 114.320312 " fill-opacity="1" fill-rule="nonzero"/><path fill="#000000" d="M 92.292969 115.875 C 91.945312 115.875 91.660156 115.589844 91.660156 115.242188 C 91.660156 114.894531 91.945312 114.609375 92.292969 114.609375 C 97.175781 114.609375 101.148438 110.273438 101.148438 104.941406 L 101.148438 98.875 C 101.148438 93.734375 97.316406 89.550781 92.609375 89.550781 C 87.550781 89.550781 83.4375 94.042969 83.4375 99.566406 L 83.4375 104.941406 C 83.4375 108.730469 85.480469 112.191406 88.644531 113.753906 C 88.957031 113.910156 89.085938 114.289062 88.929688 114.601562 C 88.777344 114.914062 88.398438 115.039062 88.085938 114.886719 C 84.496094 113.109375 82.175781 109.207031 82.175781 104.941406 L 82.175781 99.566406 C 82.175781 93.347656 86.859375 88.289062 92.609375 88.289062 C 98.011719 88.289062 102.40625 93.039062 102.40625 98.875 L 102.40625 104.941406 C 102.40625 110.96875 97.871094 115.875 92.292969 115.875 " fill-opacity="1" fill-rule="nonzero"/><path fill="#000000" d="M 82.734375 96.679688 L 102.445312 96.679688 C 102.445312 96.679688 102.050781 92.785156 98.523438 90.183594 C 95.523438 87.972656 91.519531 87.757812 88.117188 89.285156 C 85.8125 90.320312 83.425781 92.183594 82.988281 95.507812 L 82.734375 96.679688 " fill-opacity="1" fill-rule="nonzero"/><path fill="#000000" d="M 92.308594 109.269531 C 91.113281 109.269531 90.003906 108.789062 89.183594 107.914062 C 88.945312 107.664062 88.960938 107.261719 89.214844 107.023438 C 89.464844 106.789062 89.867188 106.800781 90.105469 107.054688 C 90.683594 107.667969 91.464844 108.007812 92.308594 108.007812 C 93.152344 108.007812 93.9375 107.667969 94.515625 107.054688 C 94.753906 106.800781 95.152344 106.789062 95.40625 107.023438 C 95.660156 107.261719 95.671875 107.664062 95.433594 107.914062 C 94.617188 108.789062 93.503906 109.269531 92.308594 109.269531 " fill-opacity="1" fill-rule="nonzero"/><path fill="#000000" d="M 90.921875 137.105469 C 89.765625 137.105469 88.597656 137.035156 87.429688 136.898438 C 79.792969 135.980469 72.972656 132.140625 68.21875 126.09375 C 63.46875 120.046875 61.355469 112.507812 62.273438 104.871094 C 63.191406 97.230469 67.027344 90.410156 73.078125 85.660156 C 79.125 80.90625 86.660156 78.792969 94.300781 79.710938 C 101.9375 80.628906 108.757812 84.464844 113.511719 90.515625 C 116.777344 94.671875 118.832031 99.632812 119.457031 104.851562 C 119.5 105.199219 119.253906 105.511719 118.910156 105.554688 C 118.5625 105.601562 118.25 105.347656 118.207031 105.003906 C 117.609375 100.011719 115.640625 95.269531 112.519531 91.292969 C 107.976562 85.511719 101.453125 81.839844 94.148438 80.964844 C 86.847656 80.085938 79.640625 82.105469 73.855469 86.648438 C 68.070312 91.195312 64.402344 97.714844 63.527344 105.019531 C 62.648438 112.324219 64.667969 119.53125 69.210938 125.316406 C 78.589844 137.253906 95.933594 139.335938 107.875 129.960938 C 113.035156 125.90625 116.585938 120.132812 117.867188 113.703125 C 117.9375 113.363281 118.269531 113.136719 118.609375 113.207031 C 118.949219 113.277344 119.171875 113.609375 119.105469 113.949219 C 117.761719 120.671875 114.050781 126.710938 108.652344 130.949219 C 103.53125 134.976562 97.339844 137.105469 90.921875 137.105469 " fill-opacity="1" fill-rule="nonzero"/><path fill="#5479f7" d="M 302.832031 176.972656 C 295.707031 169.941406 295.605469 158.429688 302.597656 151.265625 C 309.589844 144.101562 321.035156 143.996094 328.15625 151.03125 C 335.28125 158.0625 335.382812 169.570312 328.390625 176.734375 C 321.398438 183.902344 309.953125 184.003906 302.832031 176.972656 " fill-opacity="1" fill-rule="nonzero"/><path fill="#ffffff" d="M 327.742188 163.027344 L 315.460938 175.605469 C 314.8125 176.273438 313.75 176.28125 313.085938 175.625 L 304.453125 167.097656 C 303.785156 166.445312 303.773438 165.375 304.429688 164.710938 L 316.707031 152.132812 C 317.355469 151.464844 318.417969 151.457031 319.082031 152.109375 L 327.71875 160.640625 C 328.378906 161.292969 328.390625 162.363281 327.742188 163.027344 " fill-opacity="1" fill-rule="nonzero"/><path fill="#000000" d="M 317.90625 152.253906 C 317.902344 152.253906 317.898438 152.253906 317.894531 152.253906 C 317.617188 152.261719 317.351562 152.375 317.15625 152.574219 L 304.878906 165.148438 C 304.472656 165.566406 304.476562 166.238281 304.890625 166.652344 L 313.53125 175.179688 C 313.730469 175.375 313.980469 175.472656 314.273438 175.480469 C 314.554688 175.480469 314.816406 175.367188 315.011719 175.167969 L 327.289062 162.585938 C 327.699219 162.171875 327.691406 161.496094 327.277344 161.089844 L 318.640625 152.558594 C 318.441406 152.363281 318.179688 152.253906 317.90625 152.253906 Z M 314.265625 176.742188 C 313.652344 176.742188 313.078125 176.503906 312.644531 176.074219 L 304.007812 167.550781 C 303.097656 166.652344 303.085938 165.179688 303.976562 164.269531 L 316.257812 151.695312 C 316.6875 151.25 317.265625 151.003906 317.886719 150.996094 C 317.890625 150.996094 317.898438 150.996094 317.90625 150.996094 C 318.515625 150.996094 319.089844 151.230469 319.523438 151.660156 L 328.164062 160.1875 C 329.070312 161.085938 329.082031 162.554688 328.191406 163.46875 L 315.914062 176.046875 C 315.480469 176.488281 314.902344 176.738281 314.285156 176.742188 C 314.277344 176.742188 314.269531 176.742188 314.265625 176.742188 " fill-opacity="1" fill-rule="nonzero"/><path fill="#000000" d="M 308.796875 166.640625 C 308.503906 166.640625 308.242188 166.441406 308.179688 166.144531 C 308.105469 165.804688 308.320312 165.46875 308.660156 165.390625 L 316.496094 163.679688 C 316.835938 163.601562 317.171875 163.816406 317.246094 164.160156 C 317.320312 164.5 317.105469 164.835938 316.765625 164.910156 L 308.929688 166.625 C 308.882812 166.636719 308.839844 166.640625 308.796875 166.640625 " fill-opacity="1" fill-rule="nonzero"/><path fill="#000000" d="M 316.664062 164.894531 C 316.621094 164.894531 316.582031 164.890625 316.542969 164.878906 C 316.199219 164.8125 315.976562 164.484375 316.042969 164.136719 L 317.605469 156.230469 C 317.671875 155.886719 318.007812 155.664062 318.347656 155.730469 C 318.6875 155.796875 318.910156 156.128906 318.84375 156.472656 L 317.28125 164.382812 C 317.222656 164.683594 316.957031 164.894531 316.664062 164.894531 " fill-opacity="1" fill-rule="nonzero"/><path fill="#ffffff" d="M 301.753906 61.582031 L 239.042969 61.582031 C 237.117188 61.582031 235.542969 63.15625 235.542969 65.078125 L 235.542969 87.769531 C 235.542969 89.605469 237.207031 91.316406 239.042969 91.316406 L 246.78125 91.21875 L 249.96875 98.628906 C 250.136719 99.019531 250.691406 99.019531 250.859375 98.632812 L 254.082031 91.316406 L 302.097656 91.316406 C 303.738281 91.316406 305.066406 89.988281 305.066406 88.347656 L 305.066406 64.894531 C 305.066406 63.0625 303.585938 61.582031 301.753906 61.582031 " fill-opacity="1" fill-rule="nonzero"/><path fill="#000000" d="M 296.222656 73.089844 L 246.109375 73.089844 C 245.757812 73.089844 245.476562 72.804688 245.476562 72.457031 C 245.476562 72.109375 245.757812 71.828125 246.109375 71.828125 L 296.222656 71.828125 C 296.570312 71.828125 296.851562 72.109375 296.851562 72.457031 C 296.851562 72.804688 296.570312 73.089844 296.222656 73.089844 " fill-opacity="1" fill-rule="nonzero"/><path fill="#000000" d="M 296.222656 79.785156 L 285.746094 79.785156 C 285.394531 79.785156 285.113281 79.503906 285.113281 79.152344 C 285.113281 78.804688 285.394531 78.523438 285.746094 78.523438 L 296.222656 78.523438 C 296.570312 78.523438 296.851562 78.804688 296.851562 79.152344 C 296.851562 79.503906 296.570312 79.785156 296.222656 79.785156 " fill-opacity="1" fill-rule="nonzero"/><path fill="#000000" d="M 279.046875 79.785156 L 246.109375 79.785156 C 245.757812 79.785156 245.476562 79.503906 245.476562 79.152344 C 245.476562 78.804688 245.757812 78.523438 246.109375 78.523438 L 279.046875 78.523438 C 279.394531 78.523438 279.679688 78.804688 279.679688 79.152344 C 279.679688 79.503906 279.394531 79.785156 279.046875 79.785156 " fill-opacity="1" fill-rule="nonzero"/><path fill="#000000" d="M 246.78125 90.589844 C 247.03125 90.589844 247.261719 90.738281 247.363281 90.972656 L 250.417969 98.074219 L 253.503906 91.0625 C 253.605469 90.832031 253.832031 90.6875 254.082031 90.6875 L 302.097656 90.6875 C 303.386719 90.6875 304.4375 89.636719 304.4375 88.351562 L 304.4375 64.894531 C 304.4375 63.414062 303.234375 62.210938 301.753906 62.210938 L 239.042969 62.210938 C 237.460938 62.210938 236.171875 63.5 236.171875 65.078125 L 236.171875 87.769531 C 236.171875 89.269531 237.566406 90.6875 239.042969 90.6875 L 246.773438 90.589844 C 246.777344 90.589844 246.777344 90.589844 246.78125 90.589844 Z M 250.417969 99.554688 C 250.417969 99.554688 250.414062 99.554688 250.410156 99.550781 C 249.96875 99.550781 249.566406 99.285156 249.390625 98.875 L 246.371094 91.855469 L 239.050781 91.949219 C 236.878906 91.949219 234.914062 89.957031 234.914062 87.769531 L 234.914062 65.078125 C 234.914062 62.804688 236.765625 60.949219 239.042969 60.949219 L 301.753906 60.949219 C 303.929688 60.949219 305.699219 62.71875 305.699219 64.894531 L 305.699219 88.351562 C 305.699219 90.332031 304.082031 91.949219 302.097656 91.949219 L 254.496094 91.949219 L 251.4375 98.886719 C 251.257812 99.289062 250.859375 99.550781 250.417969 99.554688 " fill-opacity="1" fill-rule="nonzero"/><path fill="#ffffff" d="M 343.640625 95.292969 L 280.925781 95.292969 C 279.109375 95.292969 277.636719 96.765625 277.636719 98.582031 L 277.636719 121.691406 C 277.636719 123.527344 279.140625 125.03125 280.976562 125.03125 L 329.320312 125.03125 L 333.710938 131.355469 C 334.386719 132.332031 335.898438 132.0625 336.195312 130.914062 L 337.726562 125.03125 L 343.980469 125.03125 C 345.734375 125.03125 347.160156 123.605469 347.160156 121.851562 L 347.160156 98.816406 C 347.160156 96.878906 345.578125 95.292969 343.640625 95.292969 " fill-opacity="1" fill-rule="nonzero"/><path fill="#000000" d="M 338.101562 107.011719 L 287.988281 107.011719 C 287.636719 107.011719 287.359375 106.726562 287.359375 106.378906 C 287.359375 106.03125 287.636719 105.75 287.988281 105.75 L 338.101562 105.75 C 338.449219 105.75 338.734375 106.03125 338.734375 106.378906 C 338.734375 106.726562 338.449219 107.011719 338.101562 107.011719 " fill-opacity="1" fill-rule="nonzero"/><path fill="#000000" d="M 338.101562 113.707031 L 327.625 113.707031 C 327.277344 113.707031 326.996094 113.425781 326.996094 113.078125 C 326.996094 112.730469 327.277344 112.445312 327.625 112.445312 L 338.101562 112.445312 C 338.449219 112.445312 338.734375 112.730469 338.734375 113.078125 C 338.734375 113.425781 338.449219 113.707031 338.101562 113.707031 " fill-opacity="1" fill-rule="nonzero"/><path fill="#000000" d="M 320.925781 113.707031 L 287.988281 113.707031 C 287.640625 113.707031 287.359375 113.425781 287.359375 113.078125 C 287.359375 112.730469 287.640625 112.445312 287.988281 112.445312 L 320.925781 112.445312 C 321.277344 112.445312 321.558594 112.730469 321.558594 113.078125 C 321.558594 113.425781 321.277344 113.707031 320.925781 113.707031 " fill-opacity="1" fill-rule="nonzero"/><path fill="#000000" d="M 280.925781 96.132812 C 279.347656 96.132812 278.058594 97.417969 278.058594 99 L 278.058594 121.742188 C 278.058594 123.320312 279.347656 124.609375 280.925781 124.609375 L 329.652344 124.609375 L 334.433594 131.496094 C 334.632812 131.789062 334.9375 131.761719 335.023438 131.742188 C 335.113281 131.730469 335.40625 131.648438 335.496094 131.308594 L 337.238281 124.609375 L 343.984375 124.609375 C 345.273438 124.609375 346.324219 123.558594 346.324219 122.269531 L 346.324219 98.816406 C 346.324219 97.335938 345.121094 96.132812 343.640625 96.132812 Z M 334.910156 133.015625 C 334.308594 133.015625 333.75 132.726562 333.394531 132.214844 L 328.988281 125.867188 L 280.925781 125.867188 C 278.648438 125.867188 276.800781 124.019531 276.800781 121.742188 L 276.800781 99 C 276.800781 96.722656 278.648438 94.871094 280.925781 94.871094 L 343.640625 94.871094 C 345.8125 94.871094 347.582031 96.640625 347.582031 98.816406 L 347.582031 122.269531 C 347.582031 124.253906 345.96875 125.867188 343.984375 125.867188 L 338.214844 125.867188 L 336.71875 131.625 C 336.535156 132.335938 335.96875 132.855469 335.246094 132.984375 C 335.132812 133.003906 335.023438 133.015625 334.910156 133.015625 " fill-opacity="1" fill-rule="nonzero"/><path fill="#5479f7" d="M 227.417969 170.628906 C 227.398438 169.601562 226.578125 168.769531 225.550781 168.734375 L 176.445312 167.050781 C 176.039062 167 175.621094 167.070312 175.253906 167.253906 L 168.75 170.542969 C 168.75 170.542969 203.730469 222.683594 204.347656 222.613281 C 206.554688 222.367188 210.789062 220.441406 210.910156 220.378906 C 221.582031 215 227.871094 205.78125 227.871094 194.160156 L 227.417969 170.628906 " fill-opacity="1" fill-rule="nonzero"/><path fill="#ffffff" d="M 222.355469 172.773438 L 169.9375 170.582031 C 169.445312 170.492188 168.996094 170.867188 168.996094 171.367188 L 168.996094 196.046875 C 168.996094 209.242188 178.453125 220.542969 191.441406 222.871094 C 208.152344 225.867188 223.503906 213.023438 223.503906 196.046875 L 222.355469 172.773438 " fill-opacity="1" fill-rule="nonzero"/><path fill="#000000" d="M 169.792969 171.199219 C 169.746094 171.199219 169.710938 171.21875 169.6875 171.238281 C 169.660156 171.261719 169.628906 171.304688 169.628906 171.367188 L 169.628906 196.046875 C 169.628906 208.953125 178.847656 219.972656 191.554688 222.25 C 199.332031 223.648438 207.273438 221.535156 213.335938 216.464844 C 219.398438 211.390625 222.875 203.949219 222.875 196.046875 L 221.753906 173.382812 L 169.867188 171.210938 L 169.824219 171.203125 C 169.8125 171.199219 169.800781 171.199219 169.792969 171.199219 Z M 196.277344 223.933594 C 194.632812 223.933594 192.980469 223.789062 191.332031 223.492188 C 178.023438 221.105469 168.367188 209.566406 168.367188 196.046875 L 168.367188 171.367188 C 168.367188 170.941406 168.554688 170.542969 168.878906 170.269531 C 169.191406 170.011719 169.59375 169.894531 170 169.953125 L 222.957031 172.167969 L 224.132812 196.015625 C 224.136719 204.324219 220.492188 212.121094 214.144531 217.429688 C 209.078125 221.671875 202.761719 223.933594 196.277344 223.933594 " fill-opacity="1" fill-rule="nonzero"/><path fill="#000000" d="M 202.332031 192.542969 C 202.332031 188.675781 199.292969 185.542969 195.425781 185.542969 C 191.558594 185.542969 188.683594 188.675781 188.683594 192.542969 C 188.683594 195.382812 189.96875 197.820312 193.066406 198.917969 L 193.460938 208.65625 L 197.539062 208.597656 L 197.539062 199.113281 C 200.289062 198.132812 202.332031 195.566406 202.332031 192.542969 " fill-opacity="1" fill-rule="nonzero"/><path fill="#ffffff" d="M 184.820312 168.296875 C 186.332031 167.816406 187.164062 166.195312 186.679688 164.683594 C 185.78125 161.878906 184.511719 157.914062 184.503906 157.890625 C 182.292969 150.976562 186.105469 143.601562 193.019531 141.390625 C 199.933594 139.175781 207.316406 142.953125 209.53125 149.867188 C 209.539062 149.894531 209.234375 148.941406 210.597656 153.203125 C 211.082031 154.714844 212.699219 155.546875 214.210938 155.0625 C 215.722656 154.578125 216.558594 152.960938 216.074219 151.449219 C 214.710938 147.191406 215.019531 148.148438 215.011719 148.121094 C 211.832031 138.1875 201.203125 132.734375 191.265625 135.914062 C 181.328125 139.09375 175.84375 149.695312 179.023438 159.632812 C 179.03125 159.65625 180.304688 163.628906 181.207031 166.441406 C 181.691406 167.953125 183.308594 168.78125 184.820312 168.296875 " fill-opacity="1" fill-rule="nonzero"/><path fill="#000000" d="M 197.058594 135.632812 C 195.179688 135.632812 193.296875 135.925781 191.460938 136.511719 C 186.8125 138.003906 183.019531 141.203125 180.789062 145.53125 C 178.550781 149.855469 178.140625 154.796875 179.625 159.441406 C 179.628906 159.453125 180.214844 161.277344 180.871094 163.324219 L 181.808594 166.25 C 182.183594 167.425781 183.449219 168.078125 184.628906 167.699219 C 185.199219 167.515625 185.664062 167.121094 185.9375 166.589844 C 186.210938 166.054688 186.265625 165.449219 186.078125 164.878906 L 184.914062 161.238281 C 184.367188 159.527344 183.917969 158.128906 183.902344 158.085938 C 181.59375 150.863281 185.59375 143.105469 192.828125 140.789062 C 200.0625 138.472656 207.824219 142.457031 210.132812 149.675781 L 210.324219 150.277344 C 210.480469 150.769531 210.75 151.605469 211.199219 153.011719 C 211.574219 154.1875 212.839844 154.839844 214.019531 154.460938 C 215.199219 154.085938 215.847656 152.820312 215.472656 151.644531 L 214.574219 148.828125 C 214.546875 148.742188 214.519531 148.660156 214.496094 148.582031 L 214.410156 148.316406 L 214.386719 148.25 C 212.890625 143.636719 209.699219 139.878906 205.382812 137.660156 C 202.765625 136.3125 199.921875 135.632812 197.058594 135.632812 Z M 183.945312 169.066406 C 182.460938 169.066406 181.082031 168.117188 180.605469 166.632812 L 179.671875 163.710938 C 179.019531 161.679688 178.4375 159.867188 178.425781 159.828125 C 176.835938 154.859375 177.273438 149.578125 179.664062 144.949219 C 182.054688 140.328125 186.105469 136.902344 191.074219 135.3125 C 196.042969 133.722656 201.328125 134.160156 205.960938 136.539062 C 210.59375 138.917969 214.019531 142.964844 215.609375 147.929688 L 215.804688 148.527344 L 215.800781 148.527344 C 215.957031 149.015625 216.222656 149.851562 216.671875 151.257812 C 217.261719 153.097656 216.242188 155.074219 214.402344 155.664062 C 212.5625 156.253906 210.585938 155.234375 209.996094 153.394531 L 209.09375 150.574219 C 209.058594 150.464844 209.027344 150.359375 208.996094 150.261719 L 208.921875 150.035156 C 206.816406 143.496094 199.777344 139.890625 193.210938 141.988281 C 186.640625 144.09375 183.003906 151.140625 185.105469 157.699219 C 185.105469 157.703125 185.558594 159.117188 186.113281 160.851562 L 187.28125 164.492188 C 187.566406 165.382812 187.488281 166.332031 187.058594 167.167969 C 186.632812 168 185.90625 168.613281 185.011719 168.898438 C 184.65625 169.011719 184.300781 169.066406 183.945312 169.066406 " fill-opacity="1" fill-rule="nonzero"/><path fill="#000000" d="M 221.640625 155.476562 C 221.433594 155.476562 221.230469 155.375 221.113281 155.191406 C 220.921875 154.898438 221.003906 154.507812 221.296875 154.316406 L 227.027344 150.585938 C 227.320312 150.398438 227.710938 150.480469 227.898438 150.769531 C 228.089844 151.0625 228.007812 151.453125 227.714844 151.644531 L 221.984375 155.375 C 221.878906 155.441406 221.761719 155.476562 221.640625 155.476562 " fill-opacity="1" fill-rule="nonzero"/><path fill="#000000" d="M 218.230469 161.855469 C 217.976562 161.855469 217.742188 161.703125 217.640625 161.453125 C 217.515625 161.128906 217.675781 160.765625 218 160.636719 L 236.691406 153.296875 C 237.015625 153.167969 237.382812 153.328125 237.507812 153.652344 C 237.636719 153.976562 237.476562 154.34375 237.152344 154.46875 L 218.460938 161.8125 C 218.386719 161.839844 218.308594 161.855469 218.230469 161.855469 " fill-opacity="1" fill-rule="nonzero"/><path fill="#000000" d="M 216.726562 165.824219 C 216.40625 165.824219 216.132812 165.578125 216.101562 165.253906 C 216.066406 164.90625 216.324219 164.601562 216.667969 164.566406 L 229.632812 163.363281 C 229.972656 163.324219 230.289062 163.585938 230.320312 163.933594 C 230.351562 164.28125 230.097656 164.585938 229.75 164.617188 L 216.789062 165.820312 C 216.765625 165.824219 216.746094 165.824219 216.726562 165.824219 " fill-opacity="1" fill-rule="nonzero"/><path fill="#5479f7" d="M 220.902344 124.679688 L 168.902344 124.679688 C 166.347656 124.679688 164.28125 122.609375 164.28125 120.054688 L 164.28125 67.183594 C 164.28125 64.628906 166.347656 62.558594 168.902344 62.558594 L 220.902344 62.558594 C 223.453125 62.558594 225.527344 64.628906 225.527344 67.183594 L 225.527344 120.054688 C 225.527344 122.609375 223.453125 124.679688 220.902344 124.679688 " fill-opacity="1" fill-rule="nonzero"/><path fill="#ffffff" d="M 169.277344 111.519531 L 178.949219 95.875 C 179.378906 95.175781 180.34375 95.050781 180.941406 95.613281 L 189.808594 103.988281 C 190.386719 104.53125 191.320312 104.433594 191.769531 103.773438 L 205.765625 83.132812 C 206.332031 82.296875 207.589844 82.398438 208.015625 83.316406 L 220.945312 111.257812 C 221.339844 112.113281 220.722656 113.09375 219.78125 113.101562 L 170.390625 113.496094 C 169.371094 113.503906 168.742188 112.386719 169.277344 111.519531 " fill-opacity="1" fill-rule="nonzero"/><path fill="#ffffff" d="M 195.070312 82.625 C 194.1875 85.421875 191.207031 86.980469 188.410156 86.101562 C 185.609375 85.21875 184.054688 82.238281 184.933594 79.441406 C 185.8125 76.640625 188.796875 75.085938 191.59375 75.964844 C 194.394531 76.84375 195.949219 79.824219 195.070312 82.625 " fill-opacity="1" fill-rule="nonzero"/><path fill="#5479f7" d="M 274.417969 141.171875 C 274.417969 150.320312 267 157.742188 257.847656 157.742188 C 248.695312 157.742188 241.277344 150.320312 241.277344 141.171875 C 241.277344 132.019531 248.695312 124.601562 257.847656 124.601562 C 267 124.601562 274.417969 132.019531 274.417969 141.171875 " fill-opacity="1" fill-rule="nonzero"/><path fill="#ffffff" d="M 264.785156 139.816406 L 255.910156 133.804688 C 254.824219 133.066406 253.355469 133.847656 253.355469 135.160156 L 253.355469 147.1875 C 253.355469 148.5 254.824219 149.28125 255.910156 148.542969 L 264.785156 142.53125 C 265.742188 141.878906 265.742188 140.46875 264.785156 139.816406 " fill-opacity="1" fill-rule="nonzero"/><path fill="#5479f7" d="M 315.242188 196.28125 C 343.296875 191.824219 363.742188 208.003906 366.546875 258.726562 C 368.636719 296.476562 348.953125 333.734375 317.496094 351.152344 C 275.699219 374.289062 213.394531 367.097656 192.871094 329.496094 C 180.625 307.0625 182.304688 272.054688 199.34375 257.988281 C 216.417969 243.890625 235.472656 267.945312 266.59375 254.554688 C 301.199219 239.667969 292.621094 199.882812 315.242188 196.28125 " fill-opacity="1" fill-rule="nonzero"/><path fill="#ffffff" d="M 317.199219 307.566406 C 316.949219 307.566406 316.710938 307.414062 316.613281 307.167969 C 312.613281 297.136719 299.109375 295.164062 298.972656 295.148438 C 298.628906 295.097656 298.386719 294.78125 298.4375 294.4375 C 298.484375 294.089844 298.804688 293.851562 299.144531 293.898438 C 299.730469 293.976562 313.511719 295.980469 317.785156 306.699219 C 317.914062 307.023438 317.757812 307.390625 317.433594 307.519531 C 317.355469 307.550781 317.277344 307.566406 317.199219 307.566406 " fill-opacity="1" fill-rule="nonzero"/><path fill="#ffffff" d="M 298.03125 314.070312 C 298.011719 314.070312 297.988281 314.070312 297.964844 314.066406 C 297.621094 314.03125 297.367188 313.722656 297.402344 313.378906 C 298.398438 303.632812 292.898438 297.199219 292.84375 297.132812 C 292.613281 296.871094 292.640625 296.472656 292.902344 296.246094 C 293.164062 296.015625 293.5625 296.042969 293.789062 296.304688 C 294.03125 296.578125 299.714844 303.191406 298.65625 313.503906 C 298.621094 313.828125 298.351562 314.070312 298.03125 314.070312 " fill-opacity="1" fill-rule="nonzero"/><path fill="#000000" d="M 276.703125 206.265625 C 268.101562 197.277344 261.152344 188.53125 259.109375 180.523438 L 276.3125 178.359375 L 280.59375 204.019531 L 276.703125 206.265625 " fill-opacity="1" fill-rule="nonzero"/><path fill="#ffffff" d="M 254.605469 347.183594 C 253.777344 346.34375 248.980469 331.429688 248.980469 331.429688 L 239.507812 338.191406 L 249.894531 352.152344 L 254.605469 347.183594 " fill-opacity="1" fill-rule="nonzero"/><path fill="#000000" d="M 240.398438 338.332031 L 249.953125 351.175781 L 253.828125 347.089844 C 252.707031 344.847656 250.050781 336.800781 248.644531 332.445312 Z M 249.894531 352.78125 C 249.882812 352.78125 249.867188 352.78125 249.855469 352.78125 C 249.671875 352.769531 249.5 352.675781 249.390625 352.527344 L 239.003906 338.570312 C 238.898438 338.433594 238.859375 338.261719 238.882812 338.09375 C 238.910156 337.925781 239.003906 337.777344 239.140625 337.679688 L 248.613281 330.917969 C 248.777344 330.800781 248.988281 330.769531 249.179688 330.835938 C 249.371094 330.898438 249.519531 331.046875 249.582031 331.238281 C 251.832031 338.238281 254.519531 346.054688 255.070312 346.761719 C 255.308594 347.003906 255.296875 347.375 255.0625 347.621094 L 250.351562 352.585938 C 250.234375 352.710938 250.066406 352.78125 249.894531 352.78125 " fill-opacity="1" fill-rule="nonzero"/><path fill="#000000" d="M 237.53125 366.042969 L 243.835938 366.007812 C 248 365.984375 251.878906 363.863281 254.152344 360.371094 L 260.382812 350.507812 C 262.105469 347.78125 261.140625 344.167969 258.292969 342.65625 C 255.691406 341.273438 252.96875 339.929688 252.332031 339.988281 C 251.035156 340.113281 250.511719 346.246094 250.511719 346.246094 L 244.898438 346.460938 C 244.898438 346.460938 242.125 357.992188 239.683594 359.304688 C 237.90625 360.257812 236.667969 361.660156 235.832031 362.9375 C 234.957031 364.28125 235.929688 366.054688 237.53125 366.042969 " fill-opacity="1" fill-rule="nonzero"/><path fill="#ffffff" d="M 238.164062 364.214844 C 237.859375 364.214844 237.589844 363.992188 237.542969 363.679688 C 237.492188 363.335938 237.726562 363.011719 238.070312 362.960938 L 246.691406 361.664062 C 248.445312 361.398438 249.972656 360.375 250.882812 358.855469 L 258.496094 346.132812 C 258.675781 345.832031 259.0625 345.738281 259.359375 345.914062 C 259.660156 346.09375 259.757812 346.480469 259.582031 346.78125 L 251.964844 359.5 C 250.859375 361.347656 249.007812 362.589844 246.878906 362.910156 L 238.261719 364.207031 C 238.226562 364.210938 238.199219 364.214844 238.164062 364.214844 " fill-opacity="1" fill-rule="nonzero"/><path fill="#ffffff" d="M 248.804688 354.648438 C 248.75 354.648438 248.695312 354.640625 248.636719 354.625 L 243.835938 353.316406 C 243.5 353.226562 243.304688 352.878906 243.394531 352.542969 C 243.484375 352.207031 243.832031 352.007812 244.167969 352.101562 L 248.96875 353.410156 C 249.304688 353.5 249.503906 353.847656 249.414062 354.183594 C 249.335938 354.464844 249.082031 354.648438 248.804688 354.648438 " fill-opacity="1" fill-rule="nonzero"/><path fill="#ffffff" d="M 246.304688 357.113281 C 246.253906 357.113281 246.203125 357.109375 246.152344 357.09375 L 242.933594 356.308594 C 242.59375 356.222656 242.390625 355.882812 242.472656 355.546875 C 242.554688 355.207031 242.894531 355 243.234375 355.082031 L 246.453125 355.871094 C 246.789062 355.953125 246.996094 356.292969 246.914062 356.632812 C 246.84375 356.921875 246.585938 357.113281 246.304688 357.113281 " fill-opacity="1" fill-rule="nonzero"/><path fill="#ffffff" d="M 222.277344 344.339844 L 211.277344 355.394531 L 205.445312 353.25 L 215.589844 339.109375 L 222.277344 344.339844 " fill-opacity="1" fill-rule="nonzero"/><path fill="#000000" d="M 206.441406 352.945312 L 211.117188 354.660156 L 221.328125 344.398438 L 215.71875 340.011719 Z M 211.277344 356.023438 C 211.207031 356.023438 211.132812 356.007812 211.0625 355.984375 L 205.230469 353.84375 C 205.046875 353.773438 204.902344 353.625 204.84375 353.433594 C 204.785156 353.246094 204.820312 353.042969 204.933594 352.882812 L 215.074219 338.742188 C 215.175781 338.605469 215.328125 338.511719 215.5 338.488281 C 215.664062 338.460938 215.839844 338.507812 215.976562 338.613281 L 222.667969 343.84375 C 222.808594 343.953125 222.898438 344.121094 222.90625 344.300781 C 222.917969 344.480469 222.851562 344.65625 222.726562 344.785156 L 211.726562 355.839844 C 211.605469 355.957031 211.445312 356.023438 211.277344 356.023438 " fill-opacity="1" fill-rule="nonzero"/><path fill="#000000" d="M 214.753906 353.664062 C 214.753906 353.664062 215.285156 358.363281 214.382812 362.519531 C 213.902344 364.734375 211.910156 366.292969 209.640625 366.292969 L 182.648438 366.292969 C 180.71875 366.292969 179.839844 363.882812 181.320312 362.644531 C 186.121094 358.621094 194.953125 352.480469 205.808594 350.679688 L 208.835938 354.917969 L 214.753906 353.664062 " fill-opacity="1" fill-rule="nonzero"/><path fill="#ffffff" d="M 211.910156 363.210938 L 183.929688 363.210938 C 183.582031 363.210938 183.296875 362.925781 183.296875 362.578125 C 183.296875 362.230469 183.582031 361.949219 183.929688 361.949219 L 211.910156 361.949219 C 212.257812 361.949219 212.539062 362.230469 212.539062 362.578125 C 212.539062 362.925781 212.257812 363.210938 211.910156 363.210938 " fill-opacity="1" fill-rule="nonzero"/><path fill="#ffffff" d="M 199.542969 358.242188 C 199.292969 358.242188 199.058594 358.09375 198.957031 357.851562 L 197.476562 354.257812 C 197.34375 353.9375 197.496094 353.566406 197.820312 353.433594 C 198.140625 353.300781 198.507812 353.453125 198.640625 353.777344 L 200.125 357.367188 C 200.257812 357.691406 200.101562 358.058594 199.78125 358.191406 C 199.703125 358.226562 199.621094 358.242188 199.542969 358.242188 " fill-opacity="1" fill-rule="nonzero"/><path fill="#ffffff" d="M 194.671875 359.183594 C 194.40625 359.183594 194.160156 359.015625 194.074219 358.753906 L 193 355.511719 C 192.890625 355.179688 193.074219 354.824219 193.402344 354.714844 C 193.734375 354.605469 194.089844 354.785156 194.199219 355.113281 L 195.269531 358.355469 C 195.378906 358.6875 195.199219 359.042969 194.871094 359.152344 C 194.804688 359.171875 194.738281 359.183594 194.671875 359.183594 " fill-opacity="1" fill-rule="nonzero"/><path fill="#000000" d="M 280.5 267.003906 C 280.5 267.003906 230.230469 261.152344 215.28125 274.09375 C 200.332031 287.03125 238.878906 342.679688 238.878906 342.679688 L 251.070312 333.636719 L 239.503906 294.308594 L 285.976562 281.109375 L 280.5 267.003906 " fill-opacity="1" fill-rule="nonzero"/><path fill="#000000" d="M 308.167969 292.617188 C 300.867188 294.933594 287.800781 297.929688 269.539062 297.679688 C 264.351562 297.609375 259.558594 300.476562 257.199219 305.097656 C 251.792969 315.707031 240.085938 334.808594 221.015625 347.1875 L 211.90625 342.28125 L 235.152344 289.949219 C 237.277344 285.171875 241.242188 281.457031 246.15625 279.65625 L 292.226562 262.765625 C 292.226562 262.765625 306.511719 258.773438 313.515625 271.523438 C 314.769531 273.800781 317.089844 269.730469 317.644531 271.570312 C 319.539062 277.867188 314.4375 290.625 308.167969 292.617188 " fill-opacity="1" fill-rule="nonzero"/><path fill="#ffffff" d="M 224.648438 314.226562 C 224.566406 314.226562 224.476562 314.210938 224.394531 314.171875 C 224.074219 314.03125 223.933594 313.65625 224.074219 313.339844 L 234.578125 289.691406 C 236.761719 284.789062 240.902344 280.914062 245.941406 279.066406 L 268.003906 270.972656 C 268.328125 270.851562 268.691406 271.023438 268.8125 271.347656 C 268.929688 271.675781 268.761719 272.039062 268.4375 272.15625 L 246.375 280.25 C 241.652344 281.980469 237.773438 285.609375 235.730469 290.207031 L 225.226562 313.851562 C 225.121094 314.085938 224.890625 314.226562 224.648438 314.226562 " fill-opacity="1" fill-rule="nonzero"/><path fill="#ffffff" d="M 236.914062 334.554688 C 236.757812 334.554688 236.601562 334.496094 236.476562 334.378906 C 236.226562 334.140625 236.21875 333.738281 236.460938 333.488281 C 238.554688 331.3125 240.613281 328.972656 242.582031 326.539062 C 242.800781 326.265625 243.199219 326.222656 243.46875 326.445312 C 243.742188 326.664062 243.78125 327.058594 243.5625 327.332031 C 241.570312 329.792969 239.484375 332.160156 237.367188 334.363281 C 237.246094 334.492188 237.078125 334.554688 236.914062 334.554688 " fill-opacity="1" fill-rule="nonzero"/><path fill="#ffffff" d="M 243.074219 327.5625 C 242.933594 327.5625 242.792969 327.519531 242.675781 327.425781 C 242.40625 327.207031 242.363281 326.808594 242.582031 326.539062 C 243.546875 325.34375 244.511719 324.101562 245.449219 322.84375 C 245.660156 322.5625 246.054688 322.507812 246.332031 322.714844 C 246.613281 322.921875 246.671875 323.316406 246.464844 323.59375 C 245.511719 324.871094 244.539062 326.125 243.5625 327.332031 C 243.441406 327.484375 243.257812 327.5625 243.074219 327.5625 " fill-opacity="1" fill-rule="nonzero"/><path fill="#ffffff" d="M 261 230.867188 C 261 230.867188 269.277344 258.128906 243.847656 265.699219 L 258.183594 273.460938 C 258.183594 273.460938 277.101562 251.8125 273.835938 235.25 C 272.117188 226.53125 261 230.867188 261 230.867188 " fill-opacity="1" fill-rule="nonzero"/><path fill="#000000" d="M 245.449219 265.851562 L 258.035156 272.660156 C 260.511719 269.699219 276.148438 250.25 273.214844 235.371094 C 272.832031 233.421875 271.90625 232.035156 270.46875 231.242188 C 267.546875 229.640625 263.261719 230.785156 261.765625 231.269531 C 262.460938 233.929688 264.847656 244.902344 259.78125 254.324219 C 256.886719 259.707031 252.066406 263.578125 245.449219 265.851562 Z M 258.183594 274.089844 C 258.082031 274.089844 257.980469 274.066406 257.882812 274.015625 L 243.546875 266.253906 C 243.320312 266.132812 243.191406 265.886719 243.21875 265.632812 C 243.246094 265.382812 243.421875 265.167969 243.664062 265.097656 C 250.691406 263.003906 255.738281 259.179688 258.667969 253.726562 C 264.109375 243.609375 260.433594 231.175781 260.394531 231.050781 C 260.300781 230.734375 260.464844 230.398438 260.769531 230.28125 C 261.023438 230.183594 266.992188 227.898438 271.074219 230.136719 C 272.855469 231.117188 273.992188 232.796875 274.453125 235.128906 C 277.742188 251.800781 259.4375 272.980469 258.660156 273.875 C 258.535156 274.015625 258.363281 274.089844 258.183594 274.089844 " fill-opacity="1" fill-rule="nonzero"/><path fill="#000000" d="M 296.738281 197.738281 C 290.824219 197.5625 288.464844 198.027344 268.105469 202.949219 C 263.125 204.152344 258.445312 211.660156 258.871094 216.765625 C 261.4375 221.21875 273.605469 243.316406 264.523438 264.371094 C 263.234375 267.355469 261.339844 270.730469 258.503906 274.175781 C 260.726562 275.332031 264.105469 276.738281 268.335938 277.109375 C 275.351562 277.722656 278.25 274.921875 283.613281 273.992188 C 297.808594 271.539062 306.1875 286.195312 314.898438 282.363281 C 317.222656 281.34375 320.0625 278.789062 321.789062 271.804688 C 322.425781 266.175781 322.6875 259.667969 322.109375 252.484375 C 320.539062 233.027344 313.550781 217.980469 308.160156 208.742188 C 306.523438 205.8125 303.710938 197.945312 296.738281 197.738281 " fill-opacity="1" fill-rule="nonzero"/><path fill="#000000" d="M 257.507812 236.367188 C 257.507812 236.367188 255.398438 209.089844 264.5 204.871094 C 263.242188 215.894531 264.417969 227.375 267.332031 239.175781 C 267.453125 239.667969 266.976562 240.089844 266.507812 239.90625 L 257.507812 236.367188 " fill-opacity="1" fill-rule="nonzero"/><path fill="#a6a6a6" d="M 198.972656 228.265625 L 234.398438 228.265625 C 235.890625 228.265625 237.277344 229.011719 238.074219 230.238281 L 251.367188 269.359375 L 282.722656 269.359375 L 282.722656 269.945312 C 282.722656 271.792969 281.222656 273.292969 279.375 273.292969 L 212.832031 273.292969 C 210.980469 273.292969 209.484375 271.792969 209.484375 269.945312 L 209.484375 269.429688 L 197.472656 232.851562 C 197.289062 232.292969 197.066406 231.75 196.855469 231.203125 C 196.332031 229.828125 197.367188 228.265625 198.972656 228.265625 " fill-opacity="1" fill-rule="nonzero"/><path fill="#000000" d="M 210.070312 269.199219 C 210.097656 269.269531 210.117188 269.347656 210.117188 269.429688 L 210.117188 269.945312 C 210.117188 271.441406 211.332031 272.660156 212.832031 272.660156 L 279.378906 272.660156 C 280.855469 272.660156 282.066406 271.46875 282.089844 269.992188 L 251.363281 269.992188 C 251.097656 269.992188 250.855469 269.816406 250.769531 269.5625 L 237.503906 230.519531 C 236.8125 229.503906 235.660156 228.898438 234.398438 228.898438 L 198.972656 228.898438 C 198.417969 228.898438 197.925781 229.152344 197.621094 229.59375 C 197.335938 230.011719 197.269531 230.519531 197.445312 230.976562 C 197.503906 231.132812 197.5625 231.285156 197.621094 231.441406 C 197.777344 231.832031 197.933594 232.238281 198.070312 232.652344 Z M 279.378906 273.921875 L 212.832031 273.921875 C 210.636719 273.921875 208.855469 272.136719 208.855469 269.945312 L 208.855469 269.535156 L 196.875 233.046875 C 196.75 232.664062 196.601562 232.292969 196.449219 231.898438 C 196.386719 231.742188 196.324219 231.585938 196.265625 231.429688 C 195.945312 230.585938 196.066406 229.632812 196.585938 228.875 C 197.128906 228.089844 197.996094 227.636719 198.972656 227.636719 L 234.398438 227.636719 C 236.113281 227.636719 237.6875 228.480469 238.601562 229.894531 C 238.632812 229.9375 238.65625 229.984375 238.671875 230.035156 L 251.816406 268.730469 L 282.722656 268.730469 C 283.070312 268.730469 283.351562 269.011719 283.351562 269.359375 L 283.351562 269.945312 C 283.351562 272.136719 281.566406 273.921875 279.378906 273.921875 " fill-opacity="1" fill-rule="nonzero"/><path fill="#ffffff" d="M 225.035156 248.320312 C 225.535156 249.976562 224.769531 251.671875 223.332031 252.109375 C 221.890625 252.542969 220.316406 251.550781 219.816406 249.894531 C 219.320312 248.238281 220.082031 246.539062 221.523438 246.105469 C 222.960938 245.671875 224.535156 246.664062 225.035156 248.320312 " fill-opacity="1" fill-rule="nonzero"/><path fill="#ffffff" d="M 246.199219 270.058594 L 223.113281 270.058594 C 222.765625 270.058594 222.480469 269.777344 222.480469 269.429688 C 222.480469 269.082031 222.765625 268.800781 223.113281 268.800781 L 246.199219 268.800781 C 246.546875 268.800781 246.832031 269.082031 246.832031 269.429688 C 246.832031 269.777344 246.546875 270.058594 246.199219 270.058594 " fill-opacity="1" fill-rule="nonzero"/><path fill="#ffffff" d="M 218.46875 270.097656 L 210.933594 270.058594 C 210.585938 270.058594 210.304688 269.773438 210.308594 269.425781 C 210.308594 269.078125 210.589844 268.800781 210.9375 268.800781 C 210.9375 268.800781 210.9375 268.800781 210.941406 268.800781 L 218.472656 268.835938 C 218.820312 268.835938 219.101562 269.121094 219.101562 269.46875 C 219.101562 269.8125 218.816406 270.097656 218.46875 270.097656 " fill-opacity="1" fill-rule="nonzero"/><path fill="#ffffff" d="M 285.015625 194.640625 L 288.953125 196.5 C 279.207031 209.671875 270.902344 203.257812 270.902344 203.257812 L 276.800781 200.667969 L 274.75 198.445312 C 273.785156 199.398438 272.902344 200.378906 271.964844 200.332031 C 269.796875 200.21875 267.664062 197.429688 267.664062 197.429688 L 266.839844 197.835938 C 266.71875 197.894531 266.578125 197.902344 266.449219 197.851562 C 266.324219 197.804688 266.226562 197.699219 266.175781 197.574219 C 265.527344 195.878906 265.148438 194.582031 264.152344 193.296875 C 263.167969 192.03125 262.804688 192.175781 261.140625 188.84375 L 267.128906 180.859375 L 273.136719 185.3125 C 273.136719 185.3125 273.269531 183.496094 274.917969 183.523438 C 276.121094 183.542969 277.777344 186.742188 277.015625 187.753906 L 285.015625 194.640625 " fill-opacity="1" fill-rule="nonzero"/><path fill="#000000" d="M 272.296875 203.335938 C 273.351562 203.832031 275.179688 204.417969 277.484375 204.09375 C 281.074219 203.582031 284.601562 201.109375 287.980469 196.738281 L 284.746094 195.210938 C 284.695312 195.183594 284.648438 195.152344 284.605469 195.117188 L 276.605469 188.234375 C 276.355469 188.015625 276.3125 187.640625 276.511719 187.375 C 276.640625 187.207031 276.617188 186.527344 276.171875 185.613281 C 275.675781 184.601562 275.097656 184.15625 274.90625 184.152344 C 274.898438 184.152344 274.894531 184.152344 274.882812 184.152344 C 273.917969 184.152344 273.78125 185.160156 273.765625 185.359375 C 273.746094 185.589844 273.605469 185.789062 273.398438 185.882812 C 273.191406 185.976562 272.945312 185.953125 272.761719 185.820312 L 267.253906 181.742188 L 261.878906 188.910156 C 262.941406 190.992188 263.402344 191.496094 263.933594 192.078125 C 264.148438 192.3125 264.375 192.558594 264.648438 192.910156 C 265.539062 194.0625 265.96875 195.21875 266.464844 196.554688 C 266.542969 196.761719 266.621094 196.976562 266.707031 197.199219 L 267.382812 196.863281 C 267.648438 196.730469 267.980469 196.804688 268.160156 197.046875 C 268.710938 197.757812 270.460938 199.625 271.996094 199.703125 C 272.578125 199.722656 273.316406 198.984375 274.039062 198.265625 L 274.308594 197.996094 C 274.429688 197.878906 274.585938 197.816406 274.765625 197.816406 C 274.9375 197.820312 275.097656 197.890625 275.214844 198.015625 L 277.261719 200.238281 C 277.398438 200.386719 277.457031 200.59375 277.414062 200.796875 C 277.371094 200.996094 277.238281 201.160156 277.050781 201.242188 Z M 276.132812 205.449219 C 272.753906 205.449219 270.617188 203.835938 270.515625 203.761719 C 270.339844 203.621094 270.25 203.40625 270.277344 203.183594 C 270.304688 202.960938 270.445312 202.773438 270.648438 202.679688 L 275.734375 200.445312 L 274.730469 199.355469 C 273.839844 200.234375 272.984375 201.015625 271.933594 200.960938 C 270.019531 200.863281 268.21875 199.042969 267.492188 198.214844 L 267.117188 198.402344 C 266.839844 198.539062 266.511719 198.550781 266.21875 198.4375 C 265.929688 198.324219 265.699219 198.09375 265.585938 197.800781 C 265.480469 197.523438 265.378906 197.253906 265.285156 196.996094 C 264.804688 195.703125 264.425781 194.683594 263.652344 193.683594 C 263.410156 193.371094 263.203125 193.144531 263.003906 192.929688 C 262.40625 192.277344 261.84375 191.660156 260.578125 189.125 C 260.472656 188.914062 260.496094 188.65625 260.636719 188.46875 L 266.625 180.484375 C 266.832031 180.207031 267.222656 180.148438 267.503906 180.355469 L 272.773438 184.257812 C 273.097656 183.554688 273.742188 182.878906 274.929688 182.890625 C 275.910156 182.910156 276.796875 184.023438 277.304688 185.0625 C 277.5 185.453125 278.011719 186.636719 277.777344 187.582031 L 285.363281 194.105469 L 289.222656 195.933594 C 289.394531 196.011719 289.519531 196.164062 289.566406 196.347656 C 289.609375 196.53125 289.570312 196.726562 289.460938 196.878906 C 285.722656 201.925781 281.742188 204.777344 277.625 205.347656 C 277.105469 205.417969 276.605469 205.449219 276.132812 205.449219 " fill-opacity="1" fill-rule="nonzero"/><path fill="#000000" d="M 275.453125 183.460938 C 275.453125 183.460938 272.894531 184.117188 273.464844 185.175781 C 274.253906 186.65625 274.671875 186.863281 274.601562 187.582031 C 274.566406 187.96875 274.230469 188.347656 273.882812 188.472656 C 273.15625 188.734375 272.488281 187.601562 270.726562 186.703125 C 269.976562 186.324219 269.257812 186.097656 268.859375 186.019531 C 265.832031 185.40625 264.15625 189.761719 260.773438 189.859375 C 258.519531 189.925781 256.078125 188.089844 255.910156 186.332031 C 255.84375 185.597656 256.148438 184.644531 260.578125 181.265625 C 265.058594 177.84375 267.300781 176.132812 269.078125 176.367188 C 273.257812 176.90625 275.308594 183.011719 275.453125 183.460938 " fill-opacity="1" fill-rule="nonzero"/><path fill="#000000" d="M 274.75 199.074219 C 274.625 199.074219 274.492188 199.039062 274.382812 198.957031 C 274.097656 198.753906 274.039062 198.359375 274.242188 198.074219 L 275.753906 195.972656 C 276.253906 195.277344 276.316406 194.378906 275.925781 193.621094 L 275.65625 193.097656 C 275.496094 192.789062 275.617188 192.410156 275.925781 192.25 C 276.234375 192.085938 276.613281 192.210938 276.777344 192.515625 L 277.046875 193.039062 C 277.65625 194.222656 277.554688 195.628906 276.777344 196.710938 L 275.261719 198.816406 C 275.136719 198.984375 274.945312 199.074219 274.75 199.074219 " fill-opacity="1" fill-rule="nonzero"/><path fill="#000000" d="M 280.363281 204.519531 C 274.984375 185.359375 265.933594 180.699219 259.109375 180.519531 C 263.007812 171.789062 268.484375 168.496094 274.898438 168.425781 C 286.042969 170.507812 290.765625 179.296875 292.65625 197.582031 L 280.363281 204.519531 " fill-opacity="1" fill-rule="nonzero"/><path fill="#ffffff" d="M 258.472656 268.011719 C 260.21875 264.675781 263.792969 262.75 265.839844 262.691406 C 275.15625 262.414062 292.226562 251.488281 305.132812 245.804688 C 307.148438 242.257812 304.839844 235.074219 305.128906 226.1875 L 322.214844 226.1875 C 324.632812 234.425781 325.214844 248.714844 323.914062 250.722656 C 323.144531 253.117188 318.445312 260.277344 308.179688 266.429688 C 292.132812 276.042969 269.25 272.640625 269.25 272.640625 C 269.25 272.640625 258.402344 279.628906 252.929688 273.523438 C 252.929688 273.523438 256.722656 271.347656 258.472656 268.011719 " fill-opacity="1" fill-rule="nonzero"/><path fill="#000000" d="M 258.472656 268.011719 L 258.476562 268.011719 Z M 253.933594 273.636719 C 259.144531 278.300781 268.804688 272.175781 268.90625 272.109375 C 269.035156 272.027344 269.1875 271.992188 269.339844 272.015625 C 269.570312 272.050781 292.195312 275.269531 307.855469 265.886719 C 317.695312 259.992188 322.519531 252.996094 323.3125 250.53125 C 323.328125 250.480469 323.351562 250.429688 323.382812 250.382812 C 324.417969 248.785156 324.140625 235.429688 321.742188 226.820312 L 305.742188 226.820312 C 305.675781 230.179688 305.972656 233.289062 306.234375 236.050781 C 306.644531 240.40625 306.96875 243.847656 305.683594 246.117188 C 305.617188 246.234375 305.515625 246.328125 305.386719 246.382812 C 301.304688 248.179688 296.699219 250.558594 292.242188 252.859375 C 282.46875 257.910156 272.359375 263.128906 265.859375 263.324219 C 264.058594 263.375 260.6875 265.136719 259.03125 268.304688 C 257.660156 270.917969 255.148438 272.824219 253.933594 273.636719 Z M 258.964844 276.675781 C 256.609375 276.675781 254.28125 275.972656 252.460938 273.945312 C 252.335938 273.804688 252.277344 273.613281 252.308594 273.425781 C 252.339844 273.234375 252.449219 273.074219 252.617188 272.976562 C 252.652344 272.957031 256.273438 270.847656 257.914062 267.71875 C 259.695312 264.316406 263.40625 262.132812 265.820312 262.0625 C 272.035156 261.878906 282.015625 256.722656 291.664062 251.742188 C 296.066406 249.46875 300.613281 247.121094 304.679688 245.316406 C 305.65625 243.375 305.355469 240.179688 304.976562 236.167969 C 304.695312 233.203125 304.378906 229.84375 304.5 226.167969 C 304.507812 225.828125 304.789062 225.558594 305.128906 225.558594 L 322.21875 225.558594 C 322.496094 225.558594 322.742188 225.742188 322.820312 226.011719 C 325.195312 234.109375 325.890625 248.488281 324.488281 250.988281 C 323.746094 253.15625 319.347656 260.472656 308.503906 266.96875 C 293.320312 276.066406 271.867188 273.613281 269.386719 273.296875 C 268.339844 273.941406 263.605469 276.675781 258.964844 276.675781 " fill-opacity="1" fill-rule="nonzero"/><path fill="#000000" d="M 255.800781 275.84375 C 255.484375 275.84375 255.210938 275.601562 255.175781 275.277344 C 255.140625 274.933594 255.390625 274.625 255.738281 274.585938 C 255.796875 274.578125 258.644531 274.152344 262.25 269.234375 C 262.457031 268.953125 262.851562 268.894531 263.132812 269.097656 C 263.414062 269.304688 263.472656 269.699219 263.265625 269.980469 C 259.265625 275.441406 256.003906 275.828125 255.867188 275.839844 C 255.847656 275.84375 255.824219 275.84375 255.800781 275.84375 " fill-opacity="1" fill-rule="nonzero"/><path fill="#000000" d="M 258.882812 276.78125 C 258.546875 276.78125 258.269531 276.515625 258.253906 276.179688 C 258.238281 275.832031 258.503906 275.539062 258.847656 275.519531 C 258.90625 275.515625 261.425781 275.265625 264.617188 271.105469 C 264.828125 270.828125 265.226562 270.777344 265.5 270.988281 C 265.777344 271.203125 265.832031 271.597656 265.617188 271.875 C 262 276.589844 259.035156 276.773438 258.914062 276.78125 C 258.902344 276.78125 258.894531 276.78125 258.882812 276.78125 " fill-opacity="1" fill-rule="nonzero"/><path fill="#000000" d="M 323.339844 228.003906 C 323.453125 227.992188 323.53125 227.886719 323.5 227.773438 C 323 225.90625 319.222656 211.976562 316.789062 206.542969 C 311.300781 194.285156 293.574219 197.878906 293.574219 197.878906 C 299.078125 208.21875 302.285156 218.554688 303.3125 228.890625 C 303.378906 229.527344 303.9375 229.996094 304.574219 229.929688 L 323.339844 228.003906 " fill-opacity="1" fill-rule="nonzero"/><path fill="#000000" d="M 231.179688 39.496094 C 231.101562 39.496094 231.015625 39.480469 230.9375 39.449219 C 204.953125 28.585938 174.363281 26.453125 142.472656 33.285156 C 142.132812 33.359375 141.796875 33.144531 141.726562 32.800781 C 141.652344 32.460938 141.867188 32.125 142.210938 32.054688 C 174.347656 25.164062 205.199219 27.320312 231.421875 38.28125 C 231.746094 38.417969 231.894531 38.785156 231.765625 39.105469 C 231.664062 39.351562 231.429688 39.496094 231.179688 39.496094 " fill-opacity="1" fill-rule="nonzero"/><path fill="#000000" d="M 230.351562 32.242188 C 230.277344 32.242188 230.203125 32.230469 230.128906 32.199219 C 211.53125 25.308594 190.976562 22.597656 169.039062 24.152344 C 168.703125 24.171875 168.390625 23.914062 168.367188 23.566406 C 168.339844 23.21875 168.601562 22.917969 168.949219 22.890625 C 191.066406 21.328125 211.800781 24.0625 230.570312 31.019531 C 230.898438 31.140625 231.0625 31.503906 230.941406 31.828125 C 230.851562 32.085938 230.605469 32.242188 230.351562 32.242188 " fill-opacity="1" fill-rule="nonzero"/><path fill="#000000" d="M 170.414062 348.046875 C 170.359375 348.046875 170.308594 348.039062 170.253906 348.023438 C 167.378906 347.273438 164.472656 346.457031 161.617188 345.59375 C 157.292969 344.289062 152.960938 342.847656 148.746094 341.308594 C 148.417969 341.191406 148.253906 340.828125 148.371094 340.5 C 148.488281 340.175781 148.851562 340.007812 149.179688 340.125 C 153.371094 341.65625 157.679688 343.089844 161.980469 344.386719 C 164.824219 345.246094 167.714844 346.058594 170.570312 346.804688 C 170.910156 346.890625 171.109375 347.238281 171.023438 347.574219 C 170.949219 347.855469 170.695312 348.046875 170.414062 348.046875 " fill-opacity="1" fill-rule="nonzero"/><path fill="#000000" d="M 171.175781 356.492188 C 171.121094 356.492188 171.066406 356.488281 171.015625 356.472656 C 168.113281 355.710938 165.183594 354.886719 162.304688 354.019531 C 133.3125 345.269531 107.195312 331.730469 84.671875 313.777344 C 84.398438 313.558594 84.351562 313.164062 84.570312 312.890625 C 84.789062 312.617188 85.183594 312.574219 85.457031 312.789062 C 107.855469 330.644531 133.832031 344.109375 162.667969 352.8125 C 165.53125 353.675781 168.449219 354.496094 171.335938 355.253906 C 171.671875 355.339844 171.875 355.6875 171.785156 356.023438 C 171.710938 356.304688 171.453125 356.492188 171.175781 356.492188 " fill-opacity="1" fill-rule="nonzero"/><path fill="#000000" d="M 108.449219 315.757812 C 108.042969 315.757812 107.632812 315.851562 107.253906 316.054688 C 106.640625 316.375 106.1875 316.914062 105.980469 317.578125 C 105.773438 318.242188 105.835938 318.949219 106.160156 319.566406 C 106.832031 320.84375 108.410156 321.339844 109.679688 320.675781 C 110.292969 320.359375 110.742188 319.816406 110.949219 319.15625 C 111.160156 318.492188 111.09375 317.78125 110.769531 317.160156 C 110.300781 316.269531 109.390625 315.757812 108.449219 315.757812 Z M 108.484375 322.234375 C 107.089844 322.234375 105.738281 321.476562 105.046875 320.152344 C 104.5625 319.234375 104.46875 318.1875 104.777344 317.199219 C 105.085938 316.214844 105.757812 315.410156 106.667969 314.9375 C 108.554688 313.949219 110.894531 314.6875 111.886719 316.578125 C 112.367188 317.496094 112.464844 318.542969 112.15625 319.53125 C 111.847656 320.515625 111.175781 321.320312 110.261719 321.796875 C 109.695312 322.09375 109.085938 322.234375 108.484375 322.234375 " fill-opacity="1" fill-rule="nonzero"/><path fill="#000000" d="M 144.175781 339.097656 C 143.972656 339.097656 143.773438 338.996094 143.652344 338.8125 C 141.9375 336.203125 140.203125 334.597656 138.503906 334.039062 C 137.585938 333.734375 136.8125 333.773438 136.0625 333.8125 C 135.105469 333.855469 134.117188 333.90625 133.199219 333.109375 C 132.320312 332.339844 132.136719 331.34375 131.984375 330.542969 C 131.859375 329.867188 131.765625 329.4375 131.449219 329.214844 C 131.035156 328.925781 130.457031 329.195312 129.550781 329.65625 C 128.511719 330.1875 127.21875 330.84375 125.914062 330.117188 C 124.804688 329.5 124.371094 328.238281 123.988281 327.128906 C 123.671875 326.203125 123.371094 325.332031 122.78125 325.039062 C 122.335938 324.816406 121.929688 325.027344 121.109375 325.558594 C 120.246094 326.117188 119.175781 326.8125 117.796875 326.300781 C 116.582031 325.847656 115.519531 324.59375 114.542969 322.464844 C 114.398438 322.148438 114.539062 321.773438 114.855469 321.628906 C 115.171875 321.484375 115.546875 321.625 115.691406 321.941406 C 116.707031 324.160156 117.636719 324.894531 118.238281 325.117188 C 118.96875 325.390625 119.550781 325.066406 120.421875 324.503906 C 121.21875 323.988281 122.207031 323.347656 123.34375 323.910156 C 124.398438 324.429688 124.796875 325.59375 125.183594 326.71875 C 125.519531 327.703125 125.839844 328.632812 126.527344 329.015625 C 127.195312 329.390625 127.933594 329.066406 128.976562 328.535156 C 129.976562 328.023438 131.113281 327.441406 132.171875 328.183594 C 132.929688 328.710938 133.085938 329.5625 133.226562 330.316406 C 133.355469 331.015625 133.480469 331.679688 134.027344 332.15625 C 134.539062 332.601562 135.054688 332.597656 136 332.550781 C 136.78125 332.511719 137.757812 332.464844 138.894531 332.839844 C 140.875 333.488281 142.832031 335.269531 144.703125 338.121094 C 144.894531 338.414062 144.816406 338.804688 144.523438 338.992188 C 144.417969 339.0625 144.296875 339.097656 144.175781 339.097656 " fill-opacity="1" fill-rule="nonzero"/></svg>