<svg xmlns="http://www.w3.org/2000/svg" xmlns:xlink="http://www.w3.org/1999/xlink" width="500" zoomAndPan="magnify" viewBox="0 0 375 374.999991" height="500" preserveAspectRatio="xMidYMid meet" version="1.0"><defs><clipPath id="1ae773b15b"><path d="M 120 149 L 369.613281 149 L 369.613281 355 L 120 355 Z M 120 149 " clip-rule="nonzero"/></clipPath></defs><path fill="#1d4ed8" d="M 273.605469 236.671875 L 9.175781 375 C 5.535156 363.75 7.085938 351.796875 11.089844 340.675781 C 15.09375 329.550781 20.304688 318.640625 21.480469 306.878906 C 24.128906 280.4375 6.070312 254.199219 12.464844 228.414062 C 14.265625 221.160156 17.90625 214.527344 20.621094 207.566406 C 23.78125 199.46875 25.675781 190.871094 26.21875 182.191406 C 26.804688 172.78125 25.824219 163.324219 26.1875 153.898438 C 26.4375 147.558594 23.035156 140.6875 21.59375 134.511719 C 19.839844 126.984375 18.074219 119.355469 18.335938 111.632812 C 18.601562 103.910156 21.136719 95.949219 26.796875 90.699219 C 33.699219 84.296875 43.847656 82.976562 53.257812 82.957031 C 62.667969 82.933594 72.367188 83.84375 81.265625 80.785156 C 95.125 76.011719 103.976562 62.828125 112.355469 50.792969 C 120.734375 38.757812 131.0625 26.175781 145.535156 23.828125 C 165.585938 22.199219 175.238281 26.972656 187.753906 20.886719 C 195.621094 17.066406 202.339844 11.226562 209.960938 6.953125 C 217.59375 2.675781 226.921875 0.015625 235.058594 3.21875 C 245.871094 7.480469 250.539062 20.261719 251.804688 31.8125 C 253.074219 43.367188 252.320312 55.582031 257.492188 65.988281 C 262.632812 76.335938 273.019531 83.476562 277.542969 94.117188 C 281.441406 103.277344 280.429688 113.78125 278.078125 123.457031 C 274.195312 139.449219 266.796875 155.609375 270.316406 171.6875 C 271.480469 176.988281 273.785156 181.949219 275.582031 187.070312 C 280.121094 200.0625 281.289062 214.214844 278.9375 227.773438 C 278.402344 230.964844 276.839844 236.671875 273.605469 236.671875 Z M 273.605469 236.671875 " fill-opacity="1" fill-rule="nonzero"/><path fill="#a6a6a6" d="M 141.152344 72.902344 L 141.152344 305.699219 L 51.054688 352.957031 L 51.054688 120.152344 Z M 141.152344 72.902344 " fill-opacity="1" fill-rule="nonzero"/><path fill="#001321" d="M 196.675781 63.863281 L 196.675781 139.765625 L 222.757812 126.089844 L 222.855469 126.035156 L 222.855469 50.167969 L 196.773438 63.808594 Z M 197.050781 64.089844 L 222.488281 50.792969 L 222.488281 125.808594 L 197.050781 139.148438 Z M 187.898438 153.589844 L 222.863281 135.25 L 222.863281 163.113281 L 222.765625 163.167969 L 211.328125 169.167969 L 211.152344 168.835938 L 222.496094 162.886719 L 222.496094 135.875 L 188.085938 153.921875 Z M 193.101562 178.292969 L 196.101562 176.714844 L 196.277344 177.046875 L 193.273438 178.625 Z M 232.902344 144.765625 C 232.902344 146.992188 231.121094 149.238281 228.933594 149.78125 C 226.746094 150.324219 224.96875 148.96875 224.96875 146.742188 C 224.96875 144.519531 226.746094 142.269531 228.933594 141.726562 C 231.121094 141.183594 232.902344 142.542969 232.902344 144.765625 Z M 235.328125 23.777344 L 235.5625 256.925781 L 235.1875 256.925781 L 234.953125 24.09375 L 146.265625 70.605469 L 146.265625 266.023438 L 154.378906 202.582031 C 154.378906 202.582031 156.746094 198.636719 166.390625 197.226562 C 176.035156 195.824219 193.191406 202.582031 193.191406 202.582031 L 196.683594 226.457031 L 196.683594 185.402344 L 203.242188 181.964844 L 203.417969 182.296875 L 197.058594 185.628906 L 197.058594 227.746094 L 196.871094 227.746094 L 201.351562 258.398438 C 208.316406 254.785156 221.28125 248.042969 222.410156 247.410156 C 222.496094 244.839844 222.496094 189.476562 222.496094 188.902344 L 222.871094 188.902344 C 222.871094 247.488281 222.796875 247.578125 222.734375 247.644531 C 222.707031 247.683594 222.625 247.773438 201.472656 258.761719 L 201.382812 258.59375 L 208.671875 308.484375 L 205.722656 308.46875 L 201.289062 315.535156 L 187.679688 308.625 L 182.210938 308.890625 L 173.863281 250.757812 L 170.886719 274.375 L 176.683594 271.332031 L 176.859375 271.660156 L 170.9375 274.769531 L 170.847656 274.601562 L 166.582031 308.46875 L 164.121094 308.46875 C 164.121094 308.46875 154.394531 313.6875 153.707031 312.976562 C 153.015625 312.277344 147.285156 308.625 147.285156 308.625 L 140.828125 308.484375 L 145.882812 268.96875 L 145.882812 141.75 C 144.992188 143.222656 141.144531 144.757812 141.144531 143.417969 C 141.144531 141.894531 141.144531 123.75 141.144531 123.75 C 141.144531 122.785156 144.992188 120.96875 145.882812 121.34375 L 145.882812 70.378906 L 145.980469 70.324219 L 235.328125 23.464844 Z M 141.101562 305.890625 L 51.273438 279.949219 L 51.382812 279.585938 L 141.207031 305.527344 Z M 57.164062 146.28125 C 56.910156 144.8125 57.148438 117.921875 57.164062 116.777344 L 57.542969 116.777344 C 57.542969 117.046875 57.300781 143.703125 57.527344 146.101562 L 112.835938 162.074219 L 112.835938 87.652344 L 113.214844 87.652344 L 113.214844 161.960938 L 115.039062 160.65625 L 115.039062 86.175781 L 115.417969 86.175781 L 115.417969 160.851562 L 113.214844 162.425781 L 113.214844 162.578125 L 57.1875 146.394531 Z M 105.257812 152.535156 L 105.257812 91.824219 L 104.882812 91.824219 L 104.882812 149.488281 L 67.335938 137.269531 L 67.335938 111.707031 L 66.960938 111.707031 L 66.960938 137.324219 L 65.171875 139.011719 L 65.171875 112.847656 L 64.796875 112.847656 L 64.796875 139.59375 L 105.011719 152.457031 Z M 65.347656 139.375 L 67.195312 137.625 L 104.875 149.886719 L 104.875 152.019531 Z M 362.421875 322.945312 L 361.304688 324.980469 C 361.304688 324.980469 359.335938 333.527344 359.277344 333.707031 C 359.214844 333.886719 355.484375 334.144531 355.484375 334.144531 L 352.648438 337.769531 C 352.648438 337.769531 341.578125 333.203125 334.828125 323.316406 L 330.832031 344.089844 L 329.429688 344.089844 C 329.429688 344.089844 323.851562 348.539062 321.769531 348.171875 C 319.6875 347.800781 317.101562 344.089844 317.101562 344.089844 L 314.332031 343.8125 L 323.609375 301.273438 C 323.609375 301.273438 331.261719 295.097656 336.992188 295.46875 C 342.722656 295.835938 349.292969 306.621094 349.84375 307.910156 C 350.394531 309.199219 351.191406 314.832031 351.191406 314.832031 C 351.191406 314.832031 355.929688 320.511719 362.421875 322.945312 Z M 308.082031 201.886719 C 307.855469 208.238281 299.046875 212.527344 293.097656 211.839844 C 287.148438 211.15625 269.472656 205.726562 266.417969 202.519531 C 263.367188 199.316406 263.035156 194.835938 265.914062 191.15625 C 268.792969 187.476562 267.324219 183.933594 267.324219 183.933594 L 267.589844 169.886719 C 267.589844 169.886719 269.851562 162.433594 280.242188 163.632812 C 286.636719 164.546875 288.054688 172.367188 288.746094 174.832031 C 289.441406 177.296875 293.289062 176.6875 294.847656 181.390625 C 296.410156 186.105469 295.835938 187.621094 300.351562 189.347656 C 304.886719 191.089844 308.316406 195.539062 308.082031 201.886719 Z M 184.382812 136.367188 L 184.582031 136.367188 L 184.582031 146.109375 L 178.75 149.171875 L 178.578125 148.839844 L 184.203125 145.882812 L 184.203125 136.765625 L 167.417969 143.847656 C 167.28125 142.171875 164.523438 140.453125 163.902344 134.617188 C 163.285156 128.78125 167.28125 126.96875 168.511719 127.167969 C 168.511719 127.167969 169.21875 124.707031 172.339844 123.902344 C 175.425781 123.101562 182.105469 125.441406 184.203125 128.773438 L 184.203125 70.859375 L 158.769531 84.199219 L 158.769531 153.921875 L 158.390625 153.921875 L 158.390625 83.972656 L 158.488281 83.921875 L 184.574219 70.242188 L 184.574219 128.886719 L 184.269531 128.886719 C 185.9375 131.683594 184.828125 135.210938 184.382812 136.367188 Z M 184.382812 136.367188 " fill-opacity="1" fill-rule="nonzero"/><path fill="#1d4ed8" d="M 164.121094 308.46875 C 165.058594 311.574219 166.371094 322.710938 165.765625 322.492188 C 165.164062 322.273438 140.578125 323.40625 137.300781 322.710938 C 134.019531 322.019531 132.617188 320.601562 134.585938 318.753906 C 136.5625 316.914062 147.292969 308.632812 147.292969 308.632812 Z M 187.671875 308.625 C 187.914062 309.402344 176.804688 318.152344 175.621094 319.433594 C 174.4375 320.714844 176.074219 322.707031 179.007812 322.597656 C 181.941406 322.492188 206.523438 322.109375 207.882812 321.882812 C 209.238281 321.648438 206.304688 309.351562 205.722656 308.46875 Z M 329.890625 313.65625 C 329.898438 313.671875 330.039062 314.070312 330.28125 314.703125 L 323.246094 344.054688 L 323.617188 344.144531 L 330.53125 315.324219 C 331.398438 317.496094 333.027344 321.28125 334.691406 323.4375 L 334.996094 323.210938 C 332.621094 320.117188 330.28125 313.601562 330.257812 313.535156 Z M 357.867188 330.359375 L 357.707031 330.707031 C 347.039062 325.8125 340.960938 315.835938 337.890625 308.921875 L 330.582031 301.695312 L 330.660156 301.621094 C 327.460938 301.628906 324.679688 301.546875 323.625 301.289062 L 325.296875 280.4375 L 324.21875 280.4375 L 324.21875 279.777344 C 324.21875 279.777344 321.988281 271.113281 325.019531 269.617188 L 325.152344 268.78125 L 329.339844 268.230469 L 339.796875 265.304688 C 339.796875 265.304688 344.707031 269.332031 346.804688 271.789062 C 348.898438 274.25 351.464844 282.816406 351.464844 282.816406 L 350.105469 283.335938 L 344.496094 301.28125 C 344.496094 301.28125 340.3125 301.457031 335.652344 301.554688 C 335.800781 302.210938 341.003906 322.621094 357.867188 330.359375 Z M 335.453125 301.554688 Z M 337.492188 307.984375 C 335.984375 304.417969 335.328125 301.863281 335.273438 301.554688 C 333.863281 301.582031 332.414062 301.597656 331.035156 301.605469 Z M 337.492188 307.984375 " fill-opacity="1" fill-rule="nonzero"/><path fill="#f89267" d="M 309.355469 328.34375 C 309.355469 328.34375 306.988281 334.71875 299.96875 337.539062 C 292.949219 340.359375 289.683594 331.882812 289.683594 331.882812 L 290.601562 329.0625 C 290.601562 329.0625 279.75 312.082031 276.003906 299.714844 L 268.160156 340.914062 C 268.160156 340.914062 268.449219 342.410156 262.378906 342.703125 C 256.308594 342.988281 250.457031 340.09375 250.457031 340.09375 L 251.714844 332.78125 L 254.707031 330.722656 L 257.476562 295.964844 L 297.179688 296.539062 C 297.191406 296.546875 298.492188 315.382812 309.355469 328.34375 Z M 255.070312 249.824219 C 257.089844 247.660156 263.5 241.484375 263.5 241.484375 C 263.5 241.484375 267.550781 223.191406 267.226562 220.503906 C 266.902344 217.820312 266.425781 217.835938 266.425781 217.835938 C 266.433594 218.023438 250.75 239.789062 249.03125 241.800781 C 248.632812 242.269531 246.324219 243.074219 244.421875 244.605469 C 242.523438 246.136719 240.925781 248.460938 240.644531 248.941406 C 240.359375 249.425781 241.164062 250.382812 242.703125 249.539062 C 244.242188 248.699219 245.464844 248.398438 245.464844 248.398438 C 245.464844 248.398438 243.570312 250.84375 242.109375 251.6875 C 240.644531 252.53125 239.152344 253.351562 240.335938 254.417969 C 240.335938 254.417969 240.078125 255.539062 241.476562 255.554688 C 241.476562 255.554688 240.941406 256.722656 243.757812 256.558594 C 243.757812 256.558594 244.40625 257.230469 247.476562 256.082031 C 250.546875 254.9375 253.050781 251.988281 255.070312 249.824219 Z M 121.019531 205.65625 C 120.890625 205.816406 114.535156 208.902344 113.5625 209.511719 C 112.589844 210.121094 110.015625 213.160156 109.890625 214.003906 C 109.761719 214.851562 111.433594 214.992188 113.832031 213.289062 C 113.832031 213.289062 113.078125 214.820312 111.957031 216.101562 C 110.832031 217.375 108.796875 218.832031 108.390625 220.0625 C 107.980469 221.289062 109.316406 221.371094 109.316406 221.371094 C 109.316406 221.371094 108.832031 222.382812 110.207031 222.625 C 110.207031 222.625 110.144531 223.882812 112.648438 223.144531 C 112.648438 223.144531 112.761719 223.859375 114.308594 223.492188 C 115.863281 223.121094 119.910156 220.640625 122.664062 217.148438 C 125.414062 213.660156 126.09375 212.144531 126.09375 212.144531 C 126.09375 212.144531 128.679688 208.710938 126.992188 206.734375 C 125.300781 204.761719 121.019531 205.65625 121.019531 205.65625 Z M 250.546875 191.875 C 253.496094 192.085938 257.429688 190.675781 257.121094 189.582031 C 257.121094 189.582031 259.1875 189.203125 258.667969 187.988281 C 259.113281 187.636719 259.210938 186.988281 258.757812 186.59375 C 259.261719 186.453125 259.398438 185.605469 258.683594 185.035156 C 258.480469 184.875 258.222656 184.800781 255.832031 184.421875 C 253.441406 184.046875 250.402344 183.246094 250.402344 183.246094 C 254.867188 183.457031 255.351562 182.09375 255.078125 181.6875 C 254.808594 181.277344 250.449219 180.246094 248.976562 180.148438 C 247.507812 180.050781 242.207031 181.398438 242.207031 181.398438 C 241.429688 181.777344 240.390625 182.117188 239.742188 182.6875 C 239.097656 183.261719 238.609375 184.0625 238.59375 184.929688 C 238.578125 186.148438 239.753906 188.527344 240.601562 189.40625 C 240.601562 189.40625 247.605469 191.65625 250.546875 191.875 Z M 250.546875 191.875 " fill-opacity="1" fill-rule="nonzero"/><g clip-path="url(#1ae773b15b)"><path fill="#f8dbb3" d="M 306.519531 295.597656 C 285.363281 300.738281 256.488281 296.539062 256.488281 296.539062 C 256.910156 274.316406 266.09375 220.355469 265.929688 218.183594 C 265.761719 216.011719 264.121094 210.964844 264.121094 207.023438 C 264.121094 203.078125 269.179688 191.84375 270.128906 189.671875 L 282.875 187.0625 C 284.042969 188.480469 286.144531 188.179688 287.375 189.519531 C 288.605469 190.863281 290.496094 191.722656 291.882812 194.558594 C 298.300781 207.113281 300.601562 224.820312 300.601562 224.820312 C 300.601562 224.820312 297.035156 229.652344 297.375 236.976562 C 297.707031 244.289062 306.519531 295.597656 306.519531 295.597656 Z M 166.242188 149.75 C 165.714844 150.066406 155.019531 155.609375 151.9375 158.074219 C 148.851562 160.542969 140.332031 182.363281 140.332031 182.363281 L 120.039062 204.414062 L 127 213.289062 C 127 213.289062 145.042969 198.410156 149.09375 193.960938 C 153.144531 189.511719 154.378906 186.144531 154.378906 186.144531 L 154.378906 202.582031 L 166.25 202.582031 L 169.492188 200.453125 L 180.265625 202.582031 L 193.191406 202.582031 L 193.191406 174.226562 C 193.191406 174.226562 204.179688 185.011719 214.765625 187.417969 C 225.351562 189.824219 240.382812 191.042969 240.375 190.703125 C 240.375 190.359375 242.425781 180.320312 242.425781 180.320312 C 242.425781 180.320312 216.960938 173.542969 216.492188 173.210938 C 216.023438 172.878906 197.015625 157.214844 191.984375 155.269531 C 186.957031 153.324219 180.257812 150.941406 180.257812 150.941406 L 176.339844 153.929688 Z M 317.117188 344.097656 C 317.117188 344.097656 310.390625 349.519531 308.242188 350.929688 C 306.089844 352.339844 308.40625 354.398438 311.054688 354.359375 C 313.699219 354.324219 326.058594 354.445312 327.167969 354.226562 C 328.277344 354.007812 329.4375 344.097656 329.4375 344.097656 Z M 355.484375 334.152344 C 355.574219 334.484375 355.753906 344.40625 356.335938 346.113281 C 356.914062 347.816406 358.734375 349.144531 362.164062 344.097656 C 365.585938 339.054688 369.222656 331.753906 369.351562 331.4375 C 369.480469 331.121094 361.304688 324.980469 361.304688 324.980469 Z M 355.484375 334.152344 " fill-opacity="1" fill-rule="nonzero"/></g><path fill="#a6a6a6" d="M 338.335938 263.292969 L 326.179688 252.824219 C 326.40625 252.070312 326.195312 247.984375 328.878906 245.707031 C 332.136719 242.945312 340.28125 241.980469 343.3125 248.148438 C 346.714844 255.085938 342.679688 261.671875 338.335938 263.292969 Z M 171.148438 231.152344 L 171.730469 235.65625 C 171.527344 236.976562 161.582031 300.761719 161.023438 304.304688 L 141.339844 304.304688 L 141.339844 304.683594 L 167.160156 304.683594 L 167.160156 304.304688 L 161.40625 304.304688 C 162.019531 300.4375 170.472656 246.183594 171.902344 236.996094 L 175.183594 261.699219 L 175.5625 261.65625 L 171.535156 231.109375 Z M 187.566406 202.558594 L 187.1875 202.605469 L 188.042969 209.445312 L 182.347656 202.460938 L 182.054688 202.703125 L 188.125 210.152344 L 199.902344 304.3125 L 181.570312 304.3125 L 181.570312 304.691406 L 199.957031 304.691406 L 200.4375 308.574219 L 200.816406 308.527344 L 200.332031 304.691406 L 207.867188 304.691406 L 207.867188 304.3125 L 200.28125 304.3125 Z M 194.164062 209.074219 L 189.699219 209.074219 L 189.699219 209.449219 L 194.164062 209.449219 Z M 166.242188 202.738281 L 180.257812 202.582031 L 180.257812 150.941406 L 166.242188 149.75 Z M 145.851562 77.421875 C 145.851562 77.421875 144.683594 66.886719 150.195312 64.316406 C 150.195312 64.316406 144.636719 65.386719 143.535156 57.347656 C 143.460938 65.921875 137.109375 68.128906 137.109375 68.128906 C 137.109375 68.128906 144.261719 68.128906 145.851562 77.421875 Z M 38.539062 186.023438 C 38.539062 186.023438 39.746094 191.820312 36.117188 196.40625 C 39.707031 196.40625 41.609375 204.566406 41.609375 204.566406 C 41.214844 195.992188 44.457031 193.398438 44.457031 193.398438 C 40.832031 193.390625 38.539062 186.023438 38.539062 186.023438 Z M 151.371094 57.167969 C 150.796875 52.84375 153.550781 48.902344 153.550781 48.902344 C 149.574219 49.84375 148.957031 45.449219 148.867188 44.144531 C 148.921875 45.441406 148.933594 49.996094 146.832031 51.625 C 148.632812 50.824219 151.371094 57.167969 151.371094 57.167969 Z M 148.867188 44.152344 C 148.859375 43.933594 148.851562 43.789062 148.851562 43.789062 C 148.851562 43.789062 148.84375 43.925781 148.867188 44.152344 Z M 138.226562 58.902344 L 136.847656 57.347656 L 135.988281 59.632812 L 137.449219 60.964844 Z M 48.144531 124.179688 C 46.683594 123.820312 37.300781 151.417969 38.9375 153.105469 C 40.566406 154.796875 50.460938 124.753906 48.144531 124.179688 Z M 47.324219 121.398438 C 46.601562 120.199219 19.289062 128.628906 20.839844 131.035156 C 22.386719 133.441406 48.582031 123.488281 47.324219 121.398438 Z M 47.375 117.296875 C 47.15625 114.574219 25.304688 104.960938 25.960938 107.574219 C 26.617188 110.199219 47.445312 118.085938 47.375 117.296875 Z M 43.800781 98.738281 C 42.542969 100.855469 48.222656 114.90625 49.949219 113.285156 C 52.277344 111.105469 45.0625 96.621094 43.800781 98.738281 Z M 41.398438 95.421875 C 42.632812 95.359375 41.050781 90.746094 39.089844 91.078125 C 37.875 91.28125 40.160156 95.480469 41.398438 95.421875 Z M 59.683594 102.695312 C 58.515625 102.019531 54.011719 111.882812 55.355469 112.703125 C 55.914062 113.042969 60.851562 103.375 59.683594 102.695312 Z M 59.683594 102.695312 " fill-opacity="1" fill-rule="nonzero"/><path fill="#f89267" d="M 279.683594 181.558594 C 278.128906 186.46875 282.125 185.34375 282.867188 187.070312 C 277.988281 191.714844 270.121094 189.679688 270.121094 189.679688 L 270.640625 186.082031 C 270.640625 186.082031 268.675781 185.839844 267.015625 185.261719 C 265.355469 184.679688 265.355469 178.980469 265.355469 178.980469 C 265.355469 178.980469 264.226562 178.511719 264.339844 178.035156 C 264.460938 177.5625 265.890625 175.53125 266.019531 174.847656 C 266.464844 172.425781 267.566406 169.976562 267.597656 169.898438 C 269.511719 167.246094 271.8125 168.59375 272.8125 170.851562 C 273.75 172.953125 276.078125 170.8125 277.308594 173.105469 C 278.191406 174.75 279.464844 175.082031 281.328125 175.066406 C 284.820312 175.691406 284.109375 180.367188 279.683594 181.558594 Z M 298.574219 249.980469 C 298.761719 248.949219 301.394531 236.492188 300.601562 224.820312 L 287.617188 226.125 C 287.660156 226.351562 290.390625 247.472656 290.210938 251.609375 C 290.03125 252.992188 286.855469 258.222656 286.75 259.664062 C 286.644531 261.105469 289.109375 259.65625 290.042969 258.15625 C 290.164062 259.527344 288.160156 263.433594 289.003906 264.65625 C 289.402344 265.140625 290.203125 264.65625 290.203125 264.65625 C 290.542969 265.359375 291.28125 265.585938 292.019531 264.867188 C 292.203125 265.539062 293.007812 265.675781 293.929688 264.492188 C 293.929688 264.492188 294.199219 265.078125 295.496094 263.644531 C 295.496094 263.644531 296.757812 265.15625 300.761719 265.765625 C 301.515625 266.027344 310.328125 274.511719 316.964844 277.453125 C 321.226562 279.460938 324.21875 279.769531 324.21875 279.769531 L 325.019531 269.609375 C 325.019531 269.609375 304.710938 262.296875 298.828125 256.144531 C 298.828125 253.988281 298.382812 251.015625 298.574219 249.980469 Z M 337.875 259.648438 C 341.117188 258.496094 341.722656 253.835938 338.773438 254.679688 C 338.117188 254.507812 331.332031 254.226562 329.164062 248.445312 C 329.164062 248.445312 327.03125 249.445312 326.179688 252.824219 C 325.984375 253.601562 324.339844 256 324.21875 256.59375 C 324.097656 257.191406 325.183594 257.507812 325.183594 257.507812 C 325.183594 257.507812 324.503906 261.8125 325.902344 262.769531 C 327.296875 263.730469 329.332031 263.652344 329.332031 263.652344 C 329.332031 263.652344 329.769531 266.246094 328.191406 268.707031 C 328.191406 268.707031 333.675781 273.5 339.785156 265.289062 C 339.789062 265.296875 337.265625 263.214844 337.875 259.648438 Z M 353.46875 304.449219 C 353.191406 302.570312 351.140625 285.875 350.105469 283.328125 C 350.105469 283.328125 341.828125 285.535156 340.628906 285.785156 C 340.628906 285.785156 345.199219 303.378906 345.589844 305.746094 C 345.742188 306.484375 345.152344 308.671875 345.078125 309.53125 C 345 310.390625 345.097656 312.625 345.394531 312.933594 C 345.6875 313.25 346.699219 312.742188 346.992188 311.371094 C 347.617188 313.558594 346.59375 316.332031 346.683594 316.679688 C 346.8125 317.546875 347.6875 317.171875 347.6875 317.171875 C 347.6875 317.171875 348.5625 318.074219 349.472656 316.832031 C 349.359375 317.488281 350.640625 317.496094 351.449219 315.707031 C 351.449219 315.707031 352.488281 315.367188 353.46875 313.046875 C 354.449219 310.738281 353.742188 306.328125 353.46875 304.449219 Z M 179.257812 130.582031 C 177.726562 129.875 174.980469 128.457031 173.308594 130.644531 C 172.703125 136.433594 169.90625 137.128906 169.90625 137.128906 L 169.785156 135.453125 C 167.582031 133.9375 165.878906 138.199219 169.210938 140.632812 L 167.417969 143.847656 C 167.417969 143.847656 167.792969 148.144531 166.242188 149.75 C 165.507812 152.691406 174.65625 157.472656 180.257812 150.941406 C 180.257812 150.941406 179.089844 150.46875 178.804688 149.75 C 178.511719 149.035156 178.433594 147.65625 178.433594 147.65625 C 187.03125 145.179688 183.539062 131.480469 183.539062 131.480469 C 183.539062 131.480469 180.789062 131.292969 179.257812 130.582031 Z M 179.257812 130.582031 " fill-opacity="1" fill-rule="nonzero"/><path fill="#001321" d="M 256.105469 340.492188 L 268.167969 340.921875 L 267.714844 344.105469 C 267.171875 344.164062 252.914062 344.714844 247.183594 344.730469 C 241.453125 344.746094 238.527344 344.382812 240.839844 341.023438 C 243.15625 337.664062 251.714844 332.78125 251.714844 332.78125 C 255.136719 336.136719 256.105469 340.492188 256.105469 340.492188 Z M 310.835938 330.726562 L 309.355469 328.351562 L 298.277344 336.527344 C 298.277344 336.527344 294.273438 331.820312 289.683594 331.890625 C 289.675781 331.917969 286.449219 339.640625 286.054688 342.039062 C 285.671875 344.4375 288.25 345.96875 292.941406 343.296875 C 297.628906 340.621094 309.101562 332.808594 310.835938 330.726562 Z M 177.890625 134.820312 C 178.382812 134.820312 178.292969 133.902344 178.019531 133.695312 C 177.75 133.492188 173.976562 134.414062 174.324219 135.136719 C 174.429688 135.355469 177.046875 134.820312 177.890625 134.820312 Z M 181.421875 134.78125 C 181.625 134.851562 183.546875 135.113281 183.726562 134.988281 C 184.210938 134.648438 181.773438 133.800781 181.421875 133.878906 C 181.222656 133.914062 181.21875 134.714844 181.421875 134.78125 Z M 154.566406 172.304688 L 154.191406 172.304688 L 154.191406 186.144531 L 154.566406 186.144531 Z M 351.613281 315.8125 C 352.203125 314.757812 352.777344 311.875 352.835938 311.507812 L 352.464844 311.445312 C 352.40625 311.792969 351.839844 314.644531 351.28125 315.632812 Z M 249.152344 253.332031 C 247.929688 252.304688 246.066406 250.738281 245.960938 250.632812 L 245.824219 250.757812 L 246.015625 250.789062 L 245.636719 250.738281 C 245.621094 250.863281 245.621094 250.863281 248.910156 253.617188 Z M 247.363281 247.757812 C 247.3125 247.765625 246.128906 247.960938 245.394531 248.226562 L 245.523438 248.578125 C 246.21875 248.332031 247.410156 248.136719 247.425781 248.136719 Z M 243.105469 252.976562 C 244.0625 252.570312 245.140625 252.109375 245.960938 251.574219 L 245.757812 251.257812 C 244.964844 251.769531 243.941406 252.207031 242.960938 252.628906 C 241.511719 253.246094 240.367188 253.730469 240.15625 254.363281 L 240.507812 254.484375 C 240.667969 254.007812 241.914062 253.480469 243.105469 252.976562 Z M 193.371094 170.320312 L 192.996094 170.320312 L 192.996094 174.226562 L 193.371094 174.226562 Z M 175.410156 136.796875 L 175.554688 137.144531 C 175.5625 137.144531 176.148438 136.992188 176.941406 136.925781 C 176.925781 137.234375 176.941406 137.761719 177.265625 137.890625 C 177.613281 138.03125 177.777344 137.269531 177.832031 136.886719 C 178.15625 136.894531 178.496094 136.910156 178.828125 136.96875 L 178.886719 136.601562 C 177.304688 136.320312 175.476562 136.757812 175.410156 136.796875 Z M 176.332031 142.261719 L 176.367188 142.632812 C 176.375 142.699219 176.570312 144.382812 177.542969 144.992188 C 177.777344 145.144531 178.035156 145.210938 178.3125 145.210938 C 178.515625 145.210938 178.730469 145.175781 178.953125 145.089844 L 178.828125 144.738281 C 178.40625 144.886719 178.050781 144.863281 177.742188 144.667969 C 177.160156 144.300781 176.894531 143.410156 176.789062 142.917969 C 177.792969 143.265625 179.542969 143.207031 179.625 143.199219 L 179.609375 142.820312 C 179.589844 142.820312 177.417969 142.898438 176.640625 142.4375 Z M 247.085938 252.167969 C 245.832031 253.210938 244.378906 253.820312 243.214844 254.316406 C 242.160156 254.761719 241.46875 255.058594 241.300781 255.496094 L 241.65625 255.628906 C 241.769531 255.34375 242.507812 255.027344 243.367188 254.664062 C 244.492188 254.191406 246.035156 253.542969 247.335938 252.464844 Z M 180.476562 140.996094 C 180.476562 140.945312 180.484375 140.648438 180.484375 140.054688 C 180.484375 139.105469 180.492188 137.136719 180.53125 136.945312 L 180.351562 136.894531 L 180.191406 136.796875 C 180.136719 136.871094 180.117188 136.910156 180.109375 140.054688 C 180.109375 140.445312 180.109375 140.761719 180.101562 140.898438 C 179.988281 140.9375 179.6875 140.980469 179.40625 140.988281 L 179.421875 141.367188 C 180.457031 141.328125 180.46875 141.101562 180.476562 140.996094 Z M 181.980469 136.933594 C 181.972656 137.203125 182.015625 137.730469 182.257812 137.785156 C 182.5 137.828125 182.664062 137.339844 182.746094 137.058594 C 182.996094 137.121094 183.238281 137.203125 183.441406 137.332031 L 183.636719 137.007812 C 182.914062 136.570312 181.867188 136.53125 181.414062 136.515625 C 181.34375 136.515625 181.292969 136.515625 181.269531 136.507812 L 181.230469 136.691406 L 181.171875 136.871094 C 181.21875 136.886719 181.261719 136.886719 181.40625 136.894531 C 181.535156 136.902344 181.746094 136.910156 181.980469 136.933594 Z M 314.207031 349.339844 L 313.027344 347.363281 L 312.703125 347.558594 L 313.882812 349.535156 Z M 295.648438 259.363281 C 295.617188 259.46875 295.578125 259.613281 295.535156 259.777344 C 295.234375 260.894531 294.539062 263.503906 293.792969 264.371094 L 294.078125 264.617188 C 294.886719 263.683594 295.570312 261.113281 295.902344 259.875 C 295.949219 259.710938 295.988281 259.566406 296.015625 259.460938 Z M 246.113281 254.816406 C 247.09375 254.402344 248.101562 253.972656 248.617188 253.488281 L 248.351562 253.21875 C 247.890625 253.65625 246.910156 254.070312 245.960938 254.46875 C 244.664062 255.019531 243.546875 255.488281 243.421875 256.105469 C 243.390625 256.25 243.398438 256.460938 243.617188 256.695312 L 243.894531 256.4375 C 243.78125 256.316406 243.78125 256.234375 243.796875 256.1875 C 243.886719 255.757812 245.070312 255.261719 246.113281 254.816406 Z M 297.40625 258.886719 C 297.148438 259.710938 296.234375 262.46875 295.359375 263.527344 L 295.648438 263.765625 C 296.484375 262.765625 297.304688 260.410156 297.660156 259.324219 C 297.902344 260.261719 298.453125 262.136719 299.929688 263.003906 L 300.117188 262.679688 C 298.703125 261.851562 298.203125 259.914062 297.984375 259.085938 C 297.871094 258.652344 297.839844 258.511719 297.652344 258.511719 C 296.226562 258.554688 295.269531 258.171875 294.96875 257.78125 C 294.914062 257.710938 294.855469 257.613281 294.886719 257.523438 C 295.089844 257.117188 298.339844 256.171875 298.730469 256.285156 C 298.730469 256.285156 298.710938 256.277344 298.6875 256.257812 L 298.972656 256.015625 C 298.890625 255.917969 298.730469 255.835938 297.84375 256.023438 C 297.222656 256.160156 294.691406 256.820312 294.523438 257.417969 C 294.472656 257.605469 294.523438 257.816406 294.675781 258.011719 C 294.984375 258.421875 295.894531 258.894531 297.40625 258.886719 Z M 312.425781 350.363281 L 311.203125 348.75 L 310.902344 348.976562 L 312.125 350.589844 Z M 318.082031 346.125 C 317.679688 345.484375 316.972656 344.398438 316.753906 344.285156 L 316.574219 344.617188 C 316.699219 344.714844 317.28125 345.5625 317.757812 346.332031 Z M 316.398438 347.71875 C 316.390625 347.703125 315.277344 346.125 315.085938 345.765625 L 314.753906 345.9375 C 314.960938 346.324219 316.050781 347.867188 316.097656 347.9375 Z M 339.445312 256.136719 C 339.519531 256.074219 339.558594 256.046875 339.578125 256.007812 L 339.277344 255.78125 C 339.261719 255.796875 339.242188 255.820312 339.203125 255.839844 C 338.960938 256.039062 338.320312 256.574219 338.183594 257.394531 L 338.554688 257.457031 C 338.667969 256.777344 339.210938 256.324219 339.445312 256.136719 Z M 251.089844 189.574219 L 251.082031 189.914062 C 251.097656 189.914062 251.105469 189.914062 251.121094 189.914062 C 251.558594 189.914062 252.257812 189.792969 253.074219 189.65625 C 254.476562 189.421875 256.828125 189.03125 256.933594 189.605469 L 257.304688 189.535156 C 257.136719 188.59375 255.039062 188.941406 253.011719 189.28125 C 252.234375 189.40625 251.511719 189.527344 251.097656 189.527344 C 251.097656 189.519531 251.097656 189.519531 251.105469 189.519531 C 251.285156 189.105469 251.480469 188.636719 251.667969 188.171875 C 251.691406 188.171875 251.707031 188.171875 251.730469 188.171875 C 252.4375 188.171875 253.375 188.089844 254.355469 188.003906 C 255.839844 187.878906 258.328125 187.660156 258.496094 188.058594 L 258.839844 187.914062 C 258.585938 187.296875 256.957031 187.410156 254.324219 187.636719 C 253.390625 187.71875 252.507812 187.785156 251.828125 187.792969 C 252 187.363281 252.160156 186.941406 252.296875 186.558594 C 252.761719 186.550781 253.351562 186.519531 253.960938 186.480469 C 255.742188 186.382812 258.171875 186.25 258.628906 186.722656 L 258.902344 186.46875 C 258.375 185.910156 256.511719 185.96875 253.941406 186.113281 C 253.390625 186.144531 252.859375 186.171875 252.425781 186.179688 C 252.535156 185.820312 252.628906 185.5 252.65625 185.277344 L 252.28125 185.230469 C 252.25 185.457031 252.152344 185.796875 252.023438 186.1875 C 251.988281 186.1875 251.949219 186.1875 251.917969 186.1875 L 251.910156 186.519531 C 251.542969 187.566406 251 188.84375 250.765625 189.386719 C 250.703125 189.535156 250.660156 189.632812 250.652344 189.65625 L 251.007812 189.785156 C 251.007812 189.761719 251.035156 189.6875 251.089844 189.574219 Z M 248.820312 184.195312 C 249.445312 183.820312 250.148438 183.390625 250.351562 183.4375 L 250.433594 183.066406 C 250.09375 182.992188 249.589844 183.292969 248.625 183.871094 C 247.476562 184.566406 245.925781 185.507812 244.71875 185.449219 L 244.695312 185.824219 C 244.738281 185.824219 244.785156 185.832031 244.839844 185.832031 C 246.121094 185.824219 247.613281 184.929688 248.820312 184.195312 Z M 268.246094 175.058594 C 268.222656 175.375 268.207031 175.957031 268.492188 176.152344 C 268.792969 176.355469 269.105469 175.585938 269.226562 175.222656 C 269.753906 175.359375 270.386719 175.617188 271.019531 176.082031 L 271.125 176.160156 L 271.726562 175.765625 L 271.523438 175.449219 L 271.140625 175.699219 C 269.796875 174.742188 268.476562 174.6875 268.039062 174.664062 C 267.996094 174.664062 267.957031 174.664062 267.941406 174.65625 L 267.898438 174.839844 L 267.820312 175.011719 C 267.867188 175.035156 267.914062 175.035156 268.027344 175.042969 C 268.078125 175.042969 268.152344 175.050781 268.246094 175.058594 Z M 271.839844 174.191406 C 272.046875 174.113281 269.925781 172.570312 269.105469 172.417969 C 268.863281 172.375 268.449219 172.96875 268.578125 173.210938 C 268.703125 173.445312 271.636719 174.265625 271.839844 174.191406 Z M 292.148438 265.003906 C 292.652344 264.511719 293.316406 262.914062 294.191406 260.125 L 294.238281 259.980469 L 293.875 259.867188 L 293.832031 260.011719 C 292.78125 263.375 292.195312 264.4375 291.882812 264.730469 Z M 292.433594 259.671875 L 292.074219 259.574219 C 292.066406 259.613281 291.015625 263.519531 290.066406 264.519531 L 290.347656 264.777344 C 291.355469 263.707031 292.390625 259.839844 292.433594 259.671875 Z M 266.820312 180.765625 C 266.75 180.726562 266.714844 180.714844 266.660156 180.714844 L 266.660156 180.941406 L 266.601562 181.082031 L 266.644531 181.105469 C 267.167969 181.375 267.648438 181.484375 268.070312 181.484375 C 268.660156 181.484375 269.132812 181.285156 269.488281 181.066406 L 269.292969 180.75 C 268.53125 181.21875 267.695312 181.226562 266.820312 180.765625 Z M 339.367188 285.9375 C 339.074219 284.722656 337.453125 277.996094 337.195312 276.78125 L 336.828125 276.863281 C 337.113281 278.191406 339.027344 286.132812 339.050781 286.214844 L 339.097656 286.402344 L 340.679688 285.972656 L 340.582031 285.613281 Z M 342.816406 305.820312 L 342.898438 306.191406 C 343.191406 306.125 344.957031 305.988281 345.605469 305.941406 L 345.574219 305.566406 C 345.476562 305.566406 343.191406 305.738281 342.816406 305.820312 Z M 329.378906 263.464844 C 329.363281 263.464844 329.347656 263.464844 329.332031 263.464844 L 329.324219 263.84375 C 329.339844 263.84375 329.355469 263.84375 329.371094 263.84375 C 330.207031 263.84375 331.59375 263.488281 331.65625 263.472656 L 331.5625 263.109375 C 331.554688 263.117188 330.167969 263.464844 329.378906 263.464844 Z M 326.8125 259.46875 C 326.707031 259.378906 326.601562 259.289062 326.472656 259.339844 L 326.601562 259.695312 C 326.550781 259.71875 326.503906 259.695312 326.488281 259.6875 C 326.511719 259.703125 326.535156 259.726562 326.5625 259.753906 C 326.769531 259.9375 327.167969 260.28125 327.9375 260.28125 C 328.214844 260.28125 328.546875 260.238281 328.933594 260.117188 L 328.820312 259.753906 C 327.574219 260.140625 327.054688 259.679688 326.8125 259.46875 Z M 330.613281 253.957031 C 329.648438 253.382812 327.882812 252.789062 327.808594 252.765625 L 327.6875 253.121094 C 327.695312 253.121094 327.875 253.1875 328.148438 253.277344 C 328.042969 253.640625 327.855469 254.460938 328.199219 254.671875 C 328.5625 254.890625 329.03125 254.0625 329.21875 253.691406 C 329.648438 253.875 330.09375 254.078125 330.425781 254.273438 Z M 349.375 311.589844 C 349.300781 312.328125 348.449219 316.445312 347.582031 317.019531 L 347.792969 317.335938 C 348.890625 316.613281 349.714844 312.011719 349.753906 311.628906 Z M 367.207031 331.136719 C 365.679688 333.761719 358.023438 346.226562 357.359375 346.660156 L 357.4375 346.835938 L 357.480469 347.015625 C 358.21875 346.84375 367.441406 331.484375 367.53125 331.324219 Z M 357.902344 339.519531 L 355.714844 339.914062 L 355.785156 340.28125 L 357.972656 339.890625 Z M 357.957031 342.023438 L 355.859375 342.371094 L 355.921875 342.742188 L 358.015625 342.394531 Z M 325.109375 280.410156 L 325.484375 280.453125 C 325.929688 277 328.351562 268.847656 328.382812 268.765625 L 328.019531 268.660156 C 327.988281 268.734375 325.5625 276.917969 325.109375 280.410156 Z M 357.617188 335.367188 L 357.617188 334.988281 L 355.746094 334.988281 L 355.746094 335.367188 Z M 359.78125 321.726562 L 350.339844 336.421875 L 350.65625 336.625 L 360.097656 321.929688 Z M 351.019531 311.597656 C 350.730469 313.082031 350.046875 315.828125 349.328125 316.71875 L 349.625 316.953125 C 350.566406 315.78125 351.3125 312.082031 351.386719 311.664062 Z M 203.800781 319.71875 C 205.195312 318.050781 207.089844 315.796875 207.210938 315.675781 L 207.082031 315.542969 L 206.953125 315.398438 C 206.832031 315.503906 204.195312 318.65625 203.296875 319.726562 L 184.550781 320.089844 L 180.984375 314.871094 L 180.675781 315.082031 L 184.097656 320.097656 L 175.703125 320.253906 L 175.710938 320.632812 L 184.355469 320.464844 L 184.40625 320.546875 L 184.535156 320.464844 L 207.867188 320.019531 L 207.859375 319.644531 Z M 165.269531 315.570312 L 160.398438 320.253906 L 142.496094 320.253906 L 139.351562 315.4375 L 139.035156 315.640625 L 142.042969 320.253906 L 134.644531 320.253906 L 134.644531 320.632812 L 164.53125 320.632812 L 164.53125 320.253906 L 160.941406 320.253906 L 165.53125 315.84375 Z M 178.480469 147.835938 L 178.382812 147.472656 C 176.40625 148.015625 174.589844 147.390625 174.574219 147.382812 L 174.445312 147.738281 C 174.5 147.761719 175.410156 148.070312 176.664062 148.070312 C 177.21875 148.078125 177.839844 148.015625 178.480469 147.835938 Z M 168.214844 136.902344 C 168.535156 137.242188 168.765625 137.65625 168.894531 138.109375 L 169.257812 138.003906 C 169.113281 137.496094 168.851562 137.03125 168.488281 136.644531 Z M 115.214844 212.785156 C 114.558594 212.875 114.042969 212.941406 113.734375 213.132812 L 113.921875 213.457031 C 114.171875 213.3125 114.65625 213.242188 115.265625 213.160156 C 116.457031 212.996094 118.085938 212.769531 119.675781 211.757812 L 119.472656 211.441406 C 117.949219 212.40625 116.367188 212.625 115.214844 212.785156 Z M 113.578125 216.359375 C 113.605469 216.386719 113.847656 216.601562 114.210938 216.886719 C 113.148438 218.0625 111.933594 218.929688 110.953125 219.632812 C 109.996094 220.316406 109.292969 220.808594 109.144531 221.3125 L 109.503906 221.425781 C 109.625 221.046875 110.339844 220.535156 111.171875 219.941406 C 112.175781 219.230469 113.417969 218.339844 114.503906 217.128906 C 114.84375 217.398438 115.257812 217.707031 115.710938 218.015625 C 114.566406 219.203125 113.191406 220.074219 112.089844 220.785156 C 110.945312 221.515625 110.125 222.042969 110.023438 222.59375 L 110.394531 222.65625 C 110.460938 222.261719 111.308594 221.71875 112.289062 221.09375 C 113.410156 220.378906 114.804688 219.488281 115.980469 218.273438 L 115.742188 218.039062 C 116.300781 218.425781 116.910156 218.792969 117.496094 219.050781 C 116.910156 219.5625 116.058594 220.113281 115.226562 220.648438 C 113.457031 221.789062 112.378906 222.527344 112.476562 223.175781 L 112.84375 223.121094 C 112.777344 222.683594 114.246094 221.734375 115.433594 220.972656 C 116.34375 220.386719 117.277344 219.78125 117.890625 219.214844 C 118.144531 219.3125 118.394531 219.382812 118.628906 219.414062 L 118.683594 219.035156 C 116.894531 218.785156 113.863281 216.109375 113.832031 216.078125 Z M 270.65625 185.894531 L 270.628906 186.269531 C 270.960938 186.300781 271.269531 186.316406 271.5625 186.316406 C 273.371094 186.316406 274.496094 185.824219 274.546875 185.804688 L 274.398438 185.457031 C 274.382812 185.457031 272.90625 186.097656 270.65625 185.894531 Z M 281.726562 177.265625 C 281.003906 177.582031 280.492188 178.300781 280.421875 179.085938 L 280.800781 179.121094 C 280.859375 178.480469 281.296875 177.878906 281.886719 177.613281 Z M 287.796875 226.09375 C 286.929688 220.632812 282.210938 206.730469 282.164062 206.585938 L 281.808594 206.707031 C 281.855469 206.847656 286.570312 220.722656 287.429688 226.144531 Z M 275.070312 216.019531 L 275.082031 216.394531 C 276.480469 216.335938 277.835938 215.65625 278.726562 214.578125 L 278.433594 214.335938 C 277.617188 215.332031 276.359375 215.964844 275.070312 216.019531 Z M 308.164062 352.03125 L 308.128906 352.21875 C 308.570312 352.300781 325.261719 352.632812 327.160156 352.671875 L 327.167969 352.292969 C 320.789062 352.167969 308.625 351.910156 308.195312 351.84375 Z M 142.367188 184.980469 L 142.546875 184.648438 C 141.878906 184.28125 141.3125 183.746094 140.90625 183.097656 L 140.585938 183.300781 C 141.023438 184 141.644531 184.582031 142.367188 184.980469 Z M 328.601562 250.835938 C 328.488281 250.902344 328.003906 251.609375 328.199219 251.785156 C 328.398438 251.957031 331.15625 252.628906 331.464844 252.464844 C 331.765625 252.296875 328.902344 250.652344 328.601562 250.835938 Z M 328.601562 250.835938 " fill-opacity="1" fill-rule="nonzero"/></svg>