<svg xmlns="http://www.w3.org/2000/svg" xmlns:xlink="http://www.w3.org/1999/xlink" width="500" zoomAndPan="magnify" viewBox="0 0 375 374.999991" height="500" preserveAspectRatio="xMidYMid meet" version="1.0"><path fill="#d0f0e4" d="M 291.628906 317.324219 L 37 317.324219 L 141.054688 70.210938 L 187.578125 70.210938 Z M 291.628906 317.324219 " fill-opacity="1" fill-rule="nonzero"/><path stroke-linecap="butt" transform="matrix(0.10005, 0, 0, 0.10007, -72.263405, 0.00175764)" fill="none" stroke-linejoin="miter" d="M 2320.49756 515.791104 L 2364.616132 471.681539 L 2408.69566 515.791104 " stroke="#ffcf2d" stroke-width="6" stroke-opacity="1" stroke-miterlimit="10"/><path stroke-linecap="butt" transform="matrix(0.10005, 0, 0, 0.10007, -72.263405, 0.00175764)" fill="none" stroke-linejoin="miter" d="M 2364.616132 471.681539 L 2364.616132 324.012083 " stroke="#ffcf2d" stroke-width="6" stroke-opacity="1" stroke-miterlimit="10"/><path stroke-linecap="butt" transform="matrix(0.10005, 0, 0, 0.10007, -72.263405, 0.00175764)" fill-opacity="1" fill="#ffcf2d" fill-rule="nonzero" stroke-linejoin="miter" d="M 2435.596276 707.60916 C 2435.596276 712.254327 2435.12776 716.860459 2434.229772 721.46659 C 2433.331783 726.033687 2431.965279 730.444643 2430.208345 734.77753 C 2428.412367 739.071381 2426.22596 743.170058 2423.649123 747.034524 C 2421.033243 750.938025 2418.10502 754.490212 2414.786366 757.808188 C 2411.506755 761.087129 2407.914801 764.05379 2404.049545 766.630101 C 2400.18429 769.206412 2396.084777 771.392372 2391.751005 773.187983 C 2387.456277 774.983594 2383.005377 776.310784 2378.437348 777.247625 C 2373.869319 778.14543 2369.262247 778.61385 2364.616132 778.61385 C 2359.930974 778.61385 2355.323901 778.14543 2350.755872 777.247625 C 2346.187843 776.310784 2341.736943 774.983594 2337.442215 773.187983 C 2333.108444 771.392372 2329.047973 769.206412 2325.143675 766.630101 C 2321.278419 764.05379 2317.686465 761.087129 2314.406854 757.808188 C 2311.088201 754.490212 2308.159977 750.938025 2305.58314 747.034524 C 2302.96726 743.170058 2300.780853 739.071381 2299.023919 734.77753 C 2297.227941 730.444643 2295.861437 726.033687 2294.963448 721.46659 C 2294.06546 716.860459 2293.596944 712.254327 2293.596944 707.60916 C 2293.596944 702.924959 2294.06546 698.318827 2294.963448 693.751731 C 2295.861437 689.184634 2297.227941 684.734643 2299.023919 680.440791 C 2300.780853 676.107905 2302.96726 672.048263 2305.58314 668.144762 C 2308.159977 664.280295 2311.088201 660.689074 2314.406854 657.410133 C 2317.686465 654.092157 2321.278419 651.164531 2325.143675 648.549185 C 2329.047973 645.972874 2333.108444 643.786913 2337.442215 641.991303 C 2341.736943 640.234727 2346.187843 638.868502 2350.755872 637.970696 C 2355.323901 637.072891 2359.930974 636.604471 2364.616132 636.604471 C 2369.262247 636.604471 2373.869319 637.072891 2378.437348 637.970696 C 2383.005377 638.868502 2387.456277 640.234727 2391.751005 641.991303 C 2396.084777 643.786913 2400.18429 645.972874 2404.049545 648.549185 C 2407.914801 651.164531 2411.506755 654.092157 2414.786366 657.410133 C 2418.10502 660.689074 2421.033243 664.280295 2423.649123 668.144762 C 2426.22596 672.048263 2428.412367 676.107905 2430.208345 680.440791 C 2431.965279 684.734643 2433.331783 689.184634 2434.229772 693.751731 C 2435.12776 698.318827 2435.596276 702.924959 2435.596276 707.60916 Z M 2435.596276 707.60916 " stroke="#ffffff" stroke-width="6" stroke-opacity="1" stroke-miterlimit="10"/><path stroke-linecap="round" transform="matrix(0.10005, 0, 0, 0.10007, -72.263405, 0.00175764)" fill="none" stroke-linejoin="miter" d="M 2597.117101 701.597768 L 2132.193249 701.597768 L 2138.401083 673.297384 C 2158.781521 580.081771 2253.890229 512.512163 2364.694218 512.512163 C 2420.096212 512.512163 2471.593907 529.414324 2511.691052 557.909884 C 2551.905325 586.405444 2580.719047 626.611507 2590.909266 673.219314 Z M 2597.117101 701.597768 " stroke="#9a3b82" stroke-width="6" stroke-opacity="1" stroke-miterlimit="10"/><path fill="#66b0f0" d="M 231.277344 229.582031 L 236 229.582031 L 236 259.402344 L 231.277344 259.402344 Z M 231.277344 229.582031 " fill-opacity="1" fill-rule="nonzero"/><path fill="#9a3b82" d="M 321.753906 259.402344 L 294.871094 259.402344 C 293.898438 259.402344 293.148438 258.5625 293.269531 257.601562 L 297.011719 226.011719 C 297.109375 225.199219 297.800781 224.589844 298.613281 224.589844 L 325.496094 224.589844 C 326.464844 224.589844 327.214844 225.429688 327.097656 226.390625 L 323.355469 257.984375 C 323.253906 258.792969 322.5625 259.402344 321.753906 259.402344 Z M 321.753906 259.402344 " fill-opacity="1" fill-rule="nonzero"/><path stroke-linecap="butt" transform="matrix(0.10005, 0, 0, 0.10007, -72.263405, 0.00175764)" fill-opacity="1" fill="#ffffff" fill-rule="nonzero" stroke-linejoin="miter" d="M 3791.793364 2592.180576 L 3579.594747 2592.180576 C 3566.593433 2592.180576 3556.481301 2580.782353 3558.003977 2567.900798 L 3585.216937 2337.984569 C 3586.505355 2327.0938 3595.797585 2318.818377 3606.807707 2318.818377 L 3824.081912 2318.818377 Z M 3791.793364 2592.180576 " stroke="#ffcf2d" stroke-width="6" stroke-opacity="1" stroke-miterlimit="10"/><path stroke-linecap="butt" transform="matrix(0.10005, 0, 0, 0.10007, -72.263405, 0.00175764)" fill-opacity="1" fill="#ffffff" fill-rule="nonzero" stroke-linejoin="miter" d="M 3815.609585 2592.180576 L 3613.093627 2592.180576 C 3600.092314 2592.180576 3590.019224 2580.782353 3591.502857 2567.900798 L 3618.715817 2337.984569 C 3620.004235 2327.0938 3629.296466 2318.818377 3640.306587 2318.818377 L 3845.399381 2318.818377 C 3851.91956 2318.818377 3856.995148 2324.517489 3856.214288 2330.997301 L 3826.385448 2582.499893 C 3825.799803 2588.0819 3821.114645 2592.180576 3815.609585 2592.180576 Z M 3815.609585 2592.180576 " stroke="#ffcf2d" stroke-width="6" stroke-opacity="1" stroke-miterlimit="10"/><path stroke-linecap="round" transform="matrix(0.10005, 0, 0, 0.10007, -72.263405, 0.00175764)" fill="none" stroke-linejoin="miter" d="M 3084.100239 2338.999479 L 3166.012419 2338.999479 L 3166.012419 2592.180576 L 3084.100239 2592.180576 Z M 3084.100239 2338.999479 " stroke="#9a3b82" stroke-width="6" stroke-opacity="1" stroke-miterlimit="10"/><path stroke-linecap="round" transform="matrix(0.10005, 0, 0, 0.10007, -72.263405, 0.00175764)" fill="none" stroke-linejoin="miter" d="M 3137.511041 2338.999479 L 3252.804972 2338.999479 L 3252.804972 2592.180576 L 3137.511041 2592.180576 Z M 3137.511041 2338.999479 " stroke="#9a3b82" stroke-width="6" stroke-opacity="1" stroke-miterlimit="10"/><path stroke-linecap="round" transform="matrix(0.10005, 0, 0, 0.10007, -72.263405, 0.00175764)" fill="none" stroke-linejoin="miter" d="M 3392.500768 2592.180576 L 3360.60265 2592.180576 L 3241.911979 2311.206549 L 3273.810097 2311.206549 Z M 3392.500768 2592.180576 " stroke="#9a3b82" stroke-width="6" stroke-opacity="1" stroke-miterlimit="10"/><path stroke-linecap="round" transform="matrix(0.10005, 0, 0, 0.10007, -72.263405, 0.00175764)" fill="none" stroke-linejoin="miter" d="M 3453.290694 2592.180576 L 3393.906316 2592.180576 L 3291.691784 2353.910854 L 3351.115205 2353.910854 Z M 3453.290694 2592.180576 " stroke="#9a3b82" stroke-width="6" stroke-opacity="1" stroke-miterlimit="10"/><path stroke-linecap="round" transform="matrix(0.10005, 0, 0, 0.10007, -72.263405, 0.00175764)" fill="none" stroke-linejoin="miter" d="M 2948.308741 2338.999479 L 3030.884652 2338.999479 L 3030.884652 2592.180576 L 2948.308741 2592.180576 Z M 2948.308741 2338.999479 " stroke="#9a3b82" stroke-width="6" stroke-opacity="1" stroke-miterlimit="10"/><path stroke-linecap="round" transform="matrix(0.10005, 0, 0, 0.10007, -72.263405, 0.00175764)" fill="none" stroke-linejoin="miter" d="M 2948.308741 2144.917392 L 3332.491702 2144.917392 L 3332.491702 2194.296684 L 2948.308741 2194.296684 Z M 2948.308741 2144.917392 " stroke="#9a3b82" stroke-width="6" stroke-opacity="1" stroke-miterlimit="10"/><path fill="#fe5244" d="M 222.714844 210.859375 L 271.410156 210.859375 L 271.410156 214.84375 L 222.714844 214.84375 Z M 222.714844 210.859375 " fill-opacity="1" fill-rule="nonzero"/><path fill="#ffcf2d" d="M 222.714844 205.117188 L 255.582031 205.117188 L 255.582031 210.761719 L 222.714844 210.761719 Z M 222.714844 205.117188 " fill-opacity="1" fill-rule="nonzero"/><path stroke-linecap="round" transform="matrix(0.10005, 0, 0, 0.10007, -72.263405, 0.00175764)" fill="none" stroke-linejoin="miter" d="M 2948.308741 2006.616339 L 3332.491702 2006.616339 L 3332.491702 2048.696084 L 2948.308741 2048.696084 Z M 2948.308741 2006.616339 " stroke="#9a3b82" stroke-width="6" stroke-opacity="1" stroke-miterlimit="10"/><path stroke-linecap="butt" transform="matrix(0.10005, 0, 0, 0.10007, -72.263405, 0.00175764)" fill-opacity="1" fill="#ffffff" fill-rule="nonzero" stroke-linejoin="miter" d="M 3995.402525 1895.600761 L 3995.090182 1897.318301 L 3949.683191 2194.296684 L 3528.487481 2194.296684 L 3573.894471 1897.318301 L 3574.519159 1893.10252 C 3581.703068 1878.503425 3625.704511 1867.183271 3678.998184 1867.183271 C 3737.289359 1867.183271 3784.492327 1880.689386 3784.492327 1897.318301 C 3784.492327 1880.689386 3831.695294 1867.183271 3889.986469 1867.183271 C 3946.286452 1867.300376 3992.201001 1879.79158 3995.402525 1895.600761 Z M 3995.402525 1895.600761 " stroke="#ffcf2d" stroke-width="6" stroke-opacity="1" stroke-miterlimit="10"/><path stroke-linecap="butt" transform="matrix(0.10005, 0, 0, 0.10007, -72.263405, 0.00175764)" fill="none" stroke-linejoin="miter" d="M 3739.592895 2194.413789 L 3784.609455 1897.396371 " stroke="#ffcf2d" stroke-width="6" stroke-opacity="1" stroke-miterlimit="10"/><path fill="#ffcf2d" d="M 301.882812 219.597656 C 301.882812 217.933594 297.160156 216.585938 291.328125 216.585938 C 285.496094 216.585938 280.773438 217.933594 280.773438 219.597656 Z M 301.882812 219.597656 " fill-opacity="1" fill-rule="nonzero"/><path fill="#ffcf2d" d="M 322.992188 219.597656 C 322.992188 217.933594 318.273438 216.585938 312.4375 216.585938 C 306.605469 216.585938 301.882812 217.933594 301.882812 219.597656 Z M 322.992188 219.597656 " fill-opacity="1" fill-rule="nonzero"/><path stroke-linecap="round" transform="matrix(0.10005, 0, 0, 0.10007, -72.263405, 0.00175764)" fill="none" stroke-linejoin="miter" d="M 3741.193657 2188.090117 C 3740.608013 2171.500236 3787.303421 2156.393686 3845.594596 2154.285795 C 3881.982657 2152.99764 3917.902202 2158.111227 3936.799007 2165.410774 L 3981.815567 1882.484996 " stroke="#ffcf2d" stroke-width="6" stroke-opacity="1" stroke-miterlimit="10"/><path stroke-linecap="round" transform="matrix(0.10005, 0, 0, 0.10007, -72.263405, 0.00175764)" fill-opacity="1" fill="#ffffff" fill-rule="nonzero" stroke-linejoin="miter" d="M 3961.786516 1796.490862 L 3583.616174 1796.490862 L 3583.616174 1712.292337 C 3583.616174 1704.016915 3590.292525 1697.302892 3598.60868 1697.302892 L 3946.911139 1697.302892 C 3955.188252 1697.302892 3961.903645 1704.016915 3961.903645 1712.292337 L 3961.903645 1796.490862 Z M 3961.786516 1796.490862 " stroke="#9a3b82" stroke-width="6" stroke-opacity="1" stroke-miterlimit="10"/><path fill="#ffcf2d" d="M 327.136719 169.449219 L 294.53125 169.449219 C 294.019531 169.449219 293.621094 169.039062 293.621094 168.539062 L 293.621094 165.1875 C 293.621094 164.675781 294.03125 164.277344 294.53125 164.277344 L 327.136719 164.277344 C 327.644531 164.277344 328.046875 164.6875 328.046875 165.1875 L 328.046875 168.539062 C 328.046875 169.039062 327.636719 169.449219 327.136719 169.449219 Z M 327.136719 169.449219 " fill-opacity="1" fill-rule="nonzero"/><path fill="#fe5244" d="M 289.726562 161.136719 L 328.40625 161.136719 L 328.40625 164.277344 L 289.726562 164.277344 Z M 289.726562 161.136719 " fill-opacity="1" fill-rule="nonzero"/><path stroke-linecap="round" transform="matrix(0.10005, 0, 0, 0.10007, -72.263405, 0.00175764)" fill-opacity="1" fill="#ffffff" fill-rule="nonzero" stroke-linejoin="miter" d="M 3997.706061 1610.215777 L 3702.619189 1610.215777 C 3698.714891 1610.215777 3695.591452 1607.014906 3695.591452 1603.189475 L 3695.591452 1577.894786 C 3695.591452 1573.991285 3698.792977 1570.907519 3702.619189 1570.907519 L 3997.706061 1570.907519 C 4001.61036 1570.907519 4004.694756 1574.10839 4004.694756 1577.894786 L 4004.694756 1603.189475 C 4004.694756 1607.014906 4001.61036 1610.215777 3997.706061 1610.215777 Z M 3997.706061 1610.215777 " stroke="#9a3b82" stroke-width="6" stroke-opacity="1" stroke-miterlimit="10"/><path stroke-linecap="round" transform="matrix(0.10005, 0, 0, 0.10007, -72.263405, 0.00175764)" fill="none" stroke-linejoin="miter" d="M 3072.387343 1487.6068 L 3185.885298 1487.6068 L 3185.885298 1796.490862 L 3072.387343 1796.490862 Z M 3072.387343 1487.6068 " stroke="#9a3b82" stroke-width="6" stroke-opacity="1" stroke-miterlimit="10"/><path stroke-linecap="round" transform="matrix(0.10005, 0, 0, 0.10007, -72.263405, 0.00175764)" fill-opacity="1" fill="#ffffff" fill-rule="nonzero" stroke-linejoin="miter" d="M 3026.589923 1487.6068 L 3072.387343 1487.6068 L 3072.387343 1796.490862 L 3026.589923 1796.490862 Z M 3026.589923 1487.6068 " stroke="#9a3b82" stroke-width="6" stroke-opacity="1" stroke-miterlimit="10"/><path stroke-linecap="round" transform="matrix(0.10005, 0, 0, 0.10007, -72.263405, 0.00175764)" fill-opacity="1" fill="#ffffff" fill-rule="nonzero" stroke-linejoin="miter" d="M 2949.597159 1487.6068 L 3026.589923 1487.6068 L 3026.589923 1796.490862 L 2949.597159 1796.490862 Z M 2949.597159 1487.6068 " stroke="#9a3b82" stroke-width="6" stroke-opacity="1" stroke-miterlimit="10"/><path stroke-linecap="round" transform="matrix(0.10005, 0, 0, 0.10007, -72.263405, 0.00175764)" fill="none" stroke-linejoin="miter" d="M 3200.916846 1543.387834 L 3300.398369 1543.387834 L 3300.398369 1796.607967 L 3200.916846 1796.607967 Z M 3200.916846 1543.387834 " stroke="#9a3b82" stroke-width="6" stroke-opacity="1" stroke-miterlimit="10"/><path stroke-linecap="round" transform="matrix(0.10005, 0, 0, 0.10007, -72.263405, 0.00175764)" fill-opacity="1" fill="#ffffff" fill-rule="nonzero" stroke-linejoin="miter" d="M 3208.100755 1796.490862 L 3168.9016 1796.490862 C 3165.11443 1796.490862 3161.912905 1793.407096 3161.912905 1789.503594 L 3161.912905 1550.218962 C 3161.912905 1546.39353 3164.997301 1543.192659 3168.9016 1543.192659 L 3208.100755 1543.192659 C 3211.887925 1543.192659 3215.08945 1546.31546 3215.08945 1550.218962 L 3215.08945 1789.503594 C 3215.011364 1793.407096 3211.887925 1796.490862 3208.100755 1796.490862 Z M 3208.100755 1796.490862 " stroke="#9a3b82" stroke-width="6" stroke-opacity="1" stroke-miterlimit="10"/><path fill="#9a3b82" d="M 257.941406 154.449219 L 257.941406 168.339844 L 252.550781 154.449219 Z M 257.941406 154.449219 " fill-opacity="1" fill-rule="nonzero"/><path stroke-linecap="butt" transform="matrix(0.10005, 0, 0, 0.10007, -72.263405, 0.00175764)" fill-opacity="1" fill="#ffffff" fill-rule="nonzero" stroke-linejoin="miter" d="M 3530.791017 1796.490862 L 3371.612772 1796.490862 C 3368.098903 1796.490862 3364.897379 1794.304901 3363.687046 1791.10403 L 3260.301225 1524.885238 C 3258.114818 1519.303231 3262.214331 1513.291839 3268.187908 1513.291839 L 3427.405196 1513.291839 C 3430.919064 1513.291839 3434.081546 1515.516835 3435.291879 1518.717706 L 3538.716743 1784.897463 C 3540.90315 1790.518505 3536.803637 1796.490862 3530.791017 1796.490862 Z M 3530.791017 1796.490862 " stroke="#ffcf2d" stroke-width="6" stroke-opacity="1" stroke-miterlimit="10"/><path stroke-linecap="butt" transform="matrix(0.10005, 0, 0, 0.10007, -72.263405, 0.00175764)" fill-opacity="1" fill="#ffffff" fill-rule="nonzero" stroke-linejoin="miter" d="M 3556.793644 1796.490862 L 3397.615399 1796.490862 C 3394.101531 1796.490862 3390.900006 1794.304901 3389.689673 1791.10403 L 3286.303852 1524.885238 C 3284.117445 1519.303231 3288.216958 1513.291839 3294.190535 1513.291839 L 3453.407823 1513.291839 C 3456.882649 1513.291839 3460.084173 1515.516835 3461.294506 1518.717706 L 3564.71937 1784.897463 C 3566.905777 1790.518505 3562.806264 1796.490862 3556.793644 1796.490862 Z M 3556.793644 1796.490862 " stroke="#ffcf2d" stroke-width="6" stroke-opacity="1" stroke-miterlimit="10"/><path stroke-linecap="butt" transform="matrix(0.10005, 0, 0, 0.10007, -72.263405, 0.00175764)" fill="none" stroke-linejoin="miter" d="M 3836.380452 1331.115431 C 3821.505075 1335.292177 3805.692667 1337.595243 3789.489828 1337.595243 C 3694.810593 1337.595243 3618.091129 1260.891442 3618.091129 1166.192499 C 3618.091129 1088.083437 3670.408728 1022.114264 3741.896431 1001.503777 Z M 3836.380452 1331.115431 " stroke="#ffcf2d" stroke-width="6" stroke-opacity="1" stroke-miterlimit="10"/><path stroke-linecap="butt" transform="matrix(0.10005, 0, 0, 0.10007, -72.263405, 0.00175764)" fill="none" stroke-linejoin="miter" d="M 3789.489828 1337.595243 L 3789.489828 1398.685039 " stroke="#ffcf2d" stroke-width="6" stroke-opacity="1" stroke-miterlimit="10"/><path stroke-linecap="butt" transform="matrix(0.10005, 0, 0, 0.10007, -72.263405, 0.00175764)" fill-opacity="1" fill="#ffffff" fill-rule="nonzero" stroke-linejoin="miter" d="M 3934.690686 1166.192499 C 3934.690686 1175.717042 3933.753654 1185.163515 3931.918634 1194.531919 C 3930.04457 1203.861287 3927.311562 1212.956445 3923.641521 1221.778358 C 3920.010524 1230.561236 3915.52058 1238.953764 3910.210735 1246.877872 C 3904.939932 1254.801979 3898.927312 1262.140562 3892.172876 1268.854584 C 3885.41844 1275.607642 3878.078359 1281.619034 3870.152633 1286.927796 C 3862.226907 1292.236557 3853.871709 1296.686549 3845.047995 1300.35584 C 3836.263323 1303.986096 3827.166308 1306.757582 3817.835035 1308.592228 C 3808.464719 1310.465909 3799.016317 1311.402749 3789.489828 1311.402749 C 3779.96334 1311.402749 3770.514938 1310.465909 3761.183665 1308.592228 C 3751.813349 1306.757582 3742.755377 1303.986096 3733.931662 1300.35584 C 3725.107948 1296.686549 3716.752749 1292.236557 3708.827024 1286.927796 C 3700.901298 1281.619034 3693.561217 1275.607642 3686.845824 1268.854584 C 3680.091388 1262.140562 3674.078768 1254.801979 3668.768922 1246.877872 C 3663.459076 1238.953764 3659.008176 1230.561236 3655.338136 1221.778358 C 3651.707138 1212.956445 3648.935086 1203.861287 3647.100066 1194.531919 C 3645.226003 1185.163515 3644.288971 1175.717042 3644.288971 1166.192499 C 3644.288971 1156.667956 3645.226003 1147.221482 3647.100066 1137.892114 C 3648.935086 1128.523711 3651.707138 1119.428553 3655.338136 1110.645675 C 3659.008176 1101.823762 3663.459076 1093.470269 3668.768922 1085.546161 C 3674.078768 1077.622053 3680.091388 1070.283471 3686.845824 1063.530413 C 3693.561217 1056.777356 3700.901298 1050.765964 3708.827024 1045.457202 C 3716.752749 1040.187475 3725.107948 1035.698449 3733.931662 1032.068193 C 3742.755377 1028.398901 3751.813349 1025.66645 3761.183665 1023.79277 C 3770.514938 1021.919089 3779.96334 1020.982249 3789.489828 1020.982249 C 3799.016317 1020.982249 3808.464719 1021.919089 3817.835035 1023.79277 C 3827.166308 1025.66645 3836.263323 1028.398901 3845.047995 1032.068193 C 3853.871709 1035.698449 3862.226907 1040.187475 3870.152633 1045.457202 C 3878.078359 1050.765964 3885.41844 1056.777356 3892.172876 1063.530413 C 3898.927312 1070.283471 3904.939932 1077.622053 3910.210735 1085.546161 C 3915.52058 1093.470269 3920.010524 1101.823762 3923.641521 1110.645675 C 3927.311562 1119.428553 3930.04457 1128.523711 3931.918634 1137.892114 C 3933.753654 1147.221482 3934.690686 1156.667956 3934.690686 1166.192499 Z M 3934.690686 1166.192499 " stroke="#3fb1b5" stroke-width="6" stroke-opacity="1" stroke-miterlimit="10"/><path stroke-linecap="butt" transform="matrix(0.10005, 0, 0, 0.10007, -72.263405, 0.00175764)" fill-opacity="1" fill="#ffffff" fill-rule="nonzero" stroke-linejoin="miter" d="M 3850.201668 1398.294689 L 3729.285547 1398.294689 L 3789.294614 1368.198694 Z M 3850.201668 1398.294689 " stroke="#ffcf2d" stroke-width="6" stroke-opacity="1" stroke-miterlimit="10"/><path stroke-linecap="round" transform="matrix(0.10005, 0, 0, 0.10007, -72.263405, 0.00175764)" fill="none" stroke-linejoin="miter" d="M 4004.694756 1398.685039 L 4004.694756 3170.991756 L 3949.995535 3170.991756 L 3949.995535 3041.981037 C 3949.995535 3013.290302 3926.686874 2989.986399 3897.990281 2989.986399 L 3054.388528 2989.986399 C 3025.691935 2989.986399 3002.383273 3013.290302 3002.383273 3041.981037 L 3002.383273 3170.991756 L 2948.308741 3170.991756 L 2948.308741 1398.685039 Z M 4004.694756 1398.685039 " stroke="#9a3b82" stroke-width="6" stroke-opacity="1" stroke-miterlimit="10"/><path stroke-linecap="butt" transform="matrix(0.10005, 0, 0, 0.10007, -72.263405, 0.00175764)" fill="none" stroke-linejoin="miter" d="M 3928.795195 2940.919387 L 3022.217109 2940.919387 C 3010.699429 2940.919387 3001.29007 2931.590019 3001.29007 2919.99662 L 3001.29007 2659.08659 C 3001.29007 2647.610296 3010.5823 2638.202857 3022.217109 2638.202857 L 3928.795195 2638.202857 C 3940.312875 2638.202857 3949.683191 2647.493191 3949.683191 2659.08659 L 3949.683191 2919.99662 C 3949.683191 2931.590019 3940.312875 2940.919387 3928.795195 2940.919387 Z M 3928.795195 2940.919387 " stroke="#3fb1b5" stroke-width="6" stroke-opacity="1" stroke-miterlimit="10"/><path fill="#9a3b82" d="M 280.242188 115.613281 L 280.242188 139.96875 L 271.71875 139.96875 Z M 280.242188 115.613281 " fill-opacity="1" fill-rule="nonzero"/><path stroke-linecap="butt" transform="matrix(0.10005, 0, 0, 0.10007, -72.263405, 0.00175764)" fill-opacity="1" fill="#ffffff" fill-rule="nonzero" stroke-linejoin="miter" d="M 3523.294764 1155.30173 L 3522.70912 1157.097341 L 3438.610532 1398.685039 L 3047.595049 1398.685039 L 3131.693636 1157.097341 L 3134.387602 1149.407443 C 3146.998486 1131.295197 3181.902913 1118.101362 3223.483691 1117.398732 C 3224.186465 1117.398732 3224.811153 1117.398732 3225.513926 1117.398732 C 3226.2167 1117.398732 3226.802345 1117.398732 3227.505118 1117.398732 C 3276.113633 1117.398732 3319.412302 1134.300893 3327.298985 1156.511816 C 3335.107582 1134.300893 3376.493145 1117.398732 3425.10166 1117.398732 C 3472.695057 1117.398732 3514.392964 1133.715368 3523.294764 1155.30173 Z M 3523.294764 1155.30173 " stroke="#ffcf2d" stroke-width="6" stroke-opacity="1" stroke-miterlimit="10"/><path stroke-linecap="round" transform="matrix(0.10005, 0, 0, 0.10007, -72.263405, 0.00175764)" fill="none" stroke-linejoin="miter" d="M 3327.181856 1156.511816 L 3242.302409 1393.688557 " stroke="#ffcf2d" stroke-width="6" stroke-opacity="1" stroke-miterlimit="10"/><path fill="#ffcf2d" d="M 252.109375 139.671875 L 232.648438 139.671875 C 233.371094 137.417969 237.410156 135.6875 242.273438 135.6875 C 247.15625 135.6875 251.386719 137.417969 252.109375 139.671875 Z M 252.109375 139.671875 " fill-opacity="1" fill-rule="nonzero"/><path fill="#ffcf2d" d="M 271.71875 139.671875 L 252.257812 139.671875 C 252.980469 137.417969 257.019531 135.6875 261.882812 135.6875 C 266.765625 135.6875 271 137.417969 271.71875 139.671875 Z M 271.71875 139.671875 " fill-opacity="1" fill-rule="nonzero"/><path stroke-linecap="round" transform="matrix(0.10005, 0, 0, 0.10007, -72.263405, 0.00175764)" fill="none" stroke-linejoin="miter" d="M 3410.382455 2715.492184 C 3410.382455 2707.685181 3416.707418 2701.283439 3424.594101 2701.283439 L 3530.712931 2701.283439 C 3538.482485 2701.283439 3544.885534 2707.607111 3544.885534 2715.492184 " stroke="#9a3b82" stroke-width="6" stroke-opacity="1" stroke-miterlimit="10"/><path stroke-linecap="round" transform="matrix(0.10005, 0, 0, 0.10007, -72.263405, 0.00175764)" fill="none" stroke-linejoin="miter" d="M 2948.308741 2194.413789 L 4004.694756 2194.413789 " stroke="#9a3b82" stroke-width="6" stroke-opacity="1" stroke-miterlimit="10"/><path stroke-linecap="round" transform="matrix(0.10005, 0, 0, 0.10007, -72.263405, 0.00175764)" fill="none" stroke-linejoin="miter" d="M 2948.308741 1796.490862 L 4004.694756 1796.490862 " stroke="#9a3b82" stroke-width="6" stroke-opacity="1" stroke-miterlimit="10"/><path stroke-linecap="round" transform="matrix(0.10005, 0, 0, 0.10007, -72.263405, 0.00175764)" fill="none" stroke-linejoin="miter" d="M 2948.308741 2592.180576 L 4004.694756 2592.180576 " stroke="#9a3b82" stroke-width="6" stroke-opacity="1" stroke-miterlimit="10"/><path stroke-linecap="round" transform="matrix(0.10005, 0, 0, 0.10007, -72.263405, 0.00175764)" fill="none" stroke-linejoin="round" d="M 3078.282834 1027.110746 L 2948.308741 1398.685039 L 4004.694756 1398.685039 L 4134.707892 1027.110746 " stroke="#9a3b82" stroke-width="6" stroke-opacity="1" stroke-miterlimit="10"/><path fill="#fe5244" d="M 353.277344 307.777344 C 353.277344 309.789062 352.910156 311.722656 352.230469 313.511719 C 351.238281 316.113281 348.726562 317.816406 345.933594 317.816406 L 324.753906 317.816406 C 321.972656 317.816406 319.453125 316.113281 318.472656 313.511719 C 317.792969 311.722656 317.421875 309.789062 317.421875 307.777344 C 317.421875 301.972656 320.492188 296.851562 325.183594 293.789062 L 325.183594 290.40625 C 325.183594 291.886719 329.738281 293.089844 335.339844 293.089844 C 340.953125 293.089844 345.496094 291.886719 345.496094 290.40625 L 345.496094 293.796875 C 350.207031 296.851562 353.277344 301.972656 353.277344 307.777344 Z M 353.277344 307.777344 " fill-opacity="1" fill-rule="nonzero"/><path fill="#ffffff" d="M 345.515625 292.867188 L 345.515625 293.769531 C 343.90625 295.050781 339.523438 295.730469 335.359375 295.730469 C 331.199219 295.730469 326.816406 295.050781 325.207031 293.769531 L 325.207031 292.867188 C 325.394531 293.296875 326.207031 293.859375 328.007812 294.328125 C 329.96875 294.847656 332.578125 295.128906 335.359375 295.128906 C 338.140625 295.128906 340.753906 294.847656 342.714844 294.328125 C 344.515625 293.847656 345.316406 293.289062 345.515625 292.867188 Z M 345.515625 292.867188 " fill-opacity="1" fill-rule="nonzero"/><path fill="#66b0f0" d="M 345.515625 290.40625 C 345.515625 291.886719 340.964844 293.089844 335.359375 293.089844 C 329.757812 293.089844 325.207031 291.886719 325.207031 290.40625 C 325.207031 290.214844 325.273438 290.035156 325.414062 289.855469 C 326.375 288.644531 330.457031 287.722656 335.359375 287.722656 C 340.261719 287.722656 344.34375 288.636719 345.304688 289.855469 C 345.433594 290.035156 345.515625 290.214844 345.515625 290.40625 Z M 345.515625 290.40625 " fill-opacity="1" fill-rule="nonzero"/><path stroke-linecap="butt" transform="matrix(0.10005, 0, 0, 0.10007, -72.263405, 0.00175764)" fill="none" stroke-linejoin="miter" d="M 3951.088739 3020.316604 C 3951.088739 3021.99511 3950.776395 3023.63458 3950.112664 3025.195981 C 3949.487976 3026.757382 3948.550945 3028.162642 3947.340612 3029.333692 C 3946.169323 3030.543778 3944.763775 3031.480618 3943.202056 3032.144213 C 3941.640337 3032.768774 3940.000531 3033.081054 3938.28264 3033.081054 C 3936.603792 3033.081054 3934.963986 3032.768774 3933.402267 3032.144213 C 3931.840548 3031.480618 3930.435 3030.543778 3929.263711 3029.333692 C 3928.053378 3028.162642 3927.116347 3026.757382 3926.491659 3025.195981 C 3925.827928 3023.63458 3925.515584 3021.99511 3925.515584 3020.316604 C 3925.515584 3018.599064 3925.827928 3016.959593 3926.491659 3015.398193 C 3927.116347 3013.836792 3928.053378 3012.431532 3929.263711 3011.260481 C 3930.435 3010.050396 3931.840548 3009.113555 3933.402267 3008.488995 C 3934.963986 3007.8254 3936.603792 3007.51312 3938.28264 3007.51312 C 3940.000531 3007.51312 3941.640337 3007.8254 3943.202056 3008.488995 C 3944.763775 3009.113555 3946.169323 3010.050396 3947.340612 3011.260481 C 3948.550945 3012.431532 3949.487976 3013.836792 3950.112664 3015.398193 C 3950.776395 3016.959593 3951.088739 3018.599064 3951.088739 3020.316604 Z M 3951.088739 3020.316604 " stroke="#ffcf2d" stroke-width="6" stroke-opacity="1" stroke-miterlimit="10"/><path stroke-linecap="butt" transform="matrix(0.10005, 0, 0, 0.10007, -72.263405, 0.00175764)" fill="none" stroke-linejoin="miter" d="M 3994.504537 3051.81786 C 3994.504537 3053.496366 3994.192193 3055.135836 3993.528462 3056.697237 C 3992.864731 3058.258637 3991.966743 3059.663898 3990.75641 3060.834948 C 3989.546078 3062.045034 3988.179573 3062.981874 3986.578811 3063.606434 C 3985.017092 3064.27003 3983.416329 3064.58231 3981.698438 3064.58231 C 3980.01959 3064.58231 3978.379784 3064.27003 3976.818065 3063.606434 C 3975.217303 3062.981874 3973.850798 3062.045034 3972.640466 3060.834948 C 3971.430133 3059.663898 3970.532145 3058.258637 3969.868414 3056.697237 C 3969.243726 3055.135836 3968.892339 3053.496366 3968.892339 3051.81786 C 3968.892339 3050.10032 3969.243726 3048.460849 3969.868414 3046.899449 C 3970.532145 3045.338048 3971.430133 3043.932787 3972.640466 3042.761737 C 3973.850798 3041.551652 3975.217303 3040.614811 3976.818065 3039.990251 C 3978.379784 3039.326656 3980.01959 3039.014376 3981.698438 3039.014376 C 3983.416329 3039.014376 3985.017092 3039.326656 3986.578811 3039.990251 C 3988.179573 3040.614811 3989.546078 3041.551652 3990.75641 3042.761737 C 3991.966743 3043.932787 3992.864731 3045.338048 3993.528462 3046.899449 C 3994.192193 3048.460849 3994.504537 3050.10032 3994.504537 3051.81786 Z M 3994.504537 3051.81786 " stroke="#ffcf2d" stroke-width="6" stroke-opacity="1" stroke-miterlimit="10"/><path stroke-linecap="butt" transform="matrix(0.10005, 0, 0, 0.10007, -72.263405, 0.00175764)" fill="none" stroke-linejoin="miter" d="M 4048.500984 3014.383282 C 4048.500984 3016.100823 4048.18864 3017.740293 4047.524909 3019.301694 C 4046.861178 3020.863095 4045.96319 3022.268355 4044.752857 3023.439405 C 4043.542525 3024.649491 4042.17602 3025.586331 4040.614301 3026.210891 C 4039.013538 3026.874487 4037.412776 3027.186767 4035.694885 3027.186767 C 4034.016037 3027.186767 4032.376231 3026.874487 4030.814512 3026.210891 C 4029.213749 3025.586331 4027.847245 3024.649491 4026.636913 3023.439405 C 4025.465623 3022.268355 4024.528591 3020.863095 4023.864861 3019.301694 C 4023.240173 3017.740293 4022.888786 3016.100823 4022.888786 3014.383282 C 4022.888786 3012.704777 4023.240173 3011.065306 4023.864861 3009.503906 C 4024.528591 3007.942505 4025.465623 3006.537245 4026.636913 3005.366194 C 4027.847245 3004.156109 4029.213749 3003.219268 4030.814512 3002.555673 C 4032.376231 3001.931113 4034.016037 3001.618833 4035.694885 3001.618833 C 4037.412776 3001.618833 4039.013538 3001.931113 4040.614301 3002.555673 C 4042.17602 3003.219268 4043.542525 3004.156109 4044.752857 3005.366194 C 4045.96319 3006.537245 4046.861178 3007.942505 4047.524909 3009.503906 C 4048.18864 3011.065306 4048.500984 3012.704777 4048.500984 3014.383282 Z M 4048.500984 3014.383282 " stroke="#ffcf2d" stroke-width="6" stroke-opacity="1" stroke-miterlimit="10"/><path stroke-linecap="butt" transform="matrix(0.10005, 0, 0, 0.10007, -72.263405, 0.00175764)" fill="none" stroke-linejoin="miter" d="M 4040.887602 3099.401542 C 4040.887602 3101.080047 4040.575258 3102.719518 4039.911527 3104.280918 C 4039.286839 3105.881354 4038.349808 3107.247579 4037.139475 3108.457665 C 4035.968186 3109.66775 4034.562638 3110.565556 4033.000919 3111.229151 C 4031.4392 3111.892746 4029.799394 3112.205026 4028.081503 3112.205026 C 4026.402655 3112.205026 4024.762849 3111.892746 4023.20113 3111.229151 C 4021.639411 3110.565556 4020.233863 3109.66775 4019.062574 3108.457665 C 4017.852241 3107.247579 4016.91521 3105.881354 4016.290522 3104.280918 C 4015.626791 3102.719518 4015.314447 3101.080047 4015.314447 3099.401542 C 4015.314447 3097.684001 4015.626791 3096.083566 4016.290522 3094.48313 C 4016.91521 3092.921729 4017.852241 3091.555504 4019.062574 3090.345419 C 4020.233863 3089.135333 4021.639411 3088.237528 4023.20113 3087.573933 C 4024.762849 3086.910337 4026.402655 3086.598057 4028.081503 3086.598057 C 4029.799394 3086.598057 4031.4392 3086.910337 4033.000919 3087.573933 C 4034.562638 3088.237528 4035.968186 3089.135333 4037.139475 3090.345419 C 4038.349808 3091.555504 4039.286839 3092.921729 4039.911527 3094.48313 C 4040.575258 3096.083566 4040.887602 3097.684001 4040.887602 3099.401542 Z M 4040.887602 3099.401542 " stroke="#ffcf2d" stroke-width="6" stroke-opacity="1" stroke-miterlimit="10"/><path stroke-linecap="butt" transform="matrix(0.10005, 0, 0, 0.10007, -72.263405, 0.00175764)" fill="none" stroke-linejoin="miter" d="M 3992.903774 3136.719015 C 3992.903774 3138.39752 3992.591431 3140.036991 3991.9277 3141.598391 C 3991.263969 3143.159792 3990.365981 3144.565052 3989.155648 3145.736103 C 3987.945316 3146.946188 3986.578811 3147.883028 3985.017092 3148.507589 C 3983.416329 3149.171184 3981.815567 3149.483464 3980.097676 3149.483464 C 3978.418827 3149.483464 3976.779022 3149.171184 3975.217303 3148.507589 C 3973.61654 3147.883028 3972.250036 3146.946188 3971.039704 3145.736103 C 3969.829371 3144.565052 3968.931382 3143.159792 3968.267652 3141.598391 C 3967.642964 3140.036991 3967.291577 3138.39752 3967.291577 3136.719015 C 3967.291577 3135.001474 3967.642964 3133.362003 3968.267652 3131.800603 C 3968.931382 3130.239202 3969.829371 3128.833942 3971.039704 3127.662891 C 3972.250036 3126.452806 3973.61654 3125.515966 3975.217303 3124.891405 C 3976.779022 3124.22781 3978.418827 3123.91553 3980.097676 3123.91553 C 3981.815567 3123.91553 3983.416329 3124.22781 3985.017092 3124.891405 C 3986.578811 3125.515966 3987.945316 3126.452806 3989.155648 3127.662891 C 3990.365981 3128.833942 3991.263969 3130.239202 3991.9277 3131.800603 C 3992.591431 3133.362003 3992.903774 3135.001474 3992.903774 3136.719015 Z M 3992.903774 3136.719015 " stroke="#ffcf2d" stroke-width="6" stroke-opacity="1" stroke-miterlimit="10"/><path stroke-linecap="butt" transform="matrix(0.10005, 0, 0, 0.10007, -72.263405, 0.00175764)" fill="none" stroke-linejoin="miter" d="M 3944.490474 3099.401542 C 3944.490474 3101.080047 3944.178131 3102.719518 3943.5144 3104.280918 C 3942.889712 3105.881354 3941.952681 3107.247579 3940.742348 3108.457665 C 3939.532016 3109.66775 3938.165511 3110.565556 3936.603792 3111.229151 C 3935.042072 3111.892746 3933.402267 3112.205026 3931.684376 3112.205026 C 3930.005527 3112.205026 3928.365722 3111.892746 3926.804003 3111.229151 C 3925.242283 3110.565556 3923.836736 3109.66775 3922.665446 3108.457665 C 3921.455114 3107.247579 3920.518082 3105.881354 3919.893395 3104.280918 C 3919.229664 3102.719518 3918.91732 3101.080047 3918.91732 3099.401542 C 3918.91732 3097.684001 3919.229664 3096.083566 3919.854352 3094.48313 C 3920.518082 3092.921729 3921.455114 3091.555504 3922.665446 3090.345419 C 3923.836736 3089.135333 3925.242283 3088.237528 3926.804003 3087.573933 C 3928.365722 3086.910337 3930.005527 3086.598057 3931.684376 3086.598057 C 3933.402267 3086.598057 3935.042072 3086.910337 3936.603792 3087.573933 C 3938.165511 3088.237528 3939.532016 3089.135333 3940.742348 3090.345419 C 3941.952681 3091.555504 3942.889712 3092.921729 3943.5144 3094.48313 C 3944.178131 3096.083566 3944.490474 3097.684001 3944.490474 3099.401542 Z M 3944.490474 3099.401542 " stroke="#ffcf2d" stroke-width="6" stroke-opacity="1" stroke-miterlimit="10"/><path stroke-linecap="butt" transform="matrix(0.10005, 0, 0, 0.10007, -72.263405, 0.00175764)" fill="none" stroke-linejoin="miter" d="M 4001.493231 2972.810993 C 4001.493231 2974.489499 4001.180887 2976.128969 4000.517156 2977.69037 C 3999.892469 2979.25177 3998.955437 2980.657031 3997.745104 2981.867116 C 3996.534772 2983.038166 3995.168268 2983.975007 3993.606548 2984.638602 C 3992.044829 2985.263162 3990.405024 2985.614477 3988.687132 2985.614477 C 3987.008284 2985.614477 3985.368479 2985.263162 3983.806759 2984.638602 C 3982.24504 2983.975007 3980.839492 2983.038166 3979.668203 2981.867116 C 3978.45787 2980.657031 3977.520839 2979.25177 3976.857108 2977.69037 C 3976.23242 2976.128969 3975.881034 2974.489499 3975.881034 2972.810993 C 3975.881034 2971.093452 3976.23242 2969.453982 3976.857108 2967.892581 C 3977.520839 2966.331181 3978.45787 2964.964955 3979.668203 2963.75487 C 3980.839492 2962.544784 3982.24504 2961.607944 3983.806759 2960.983384 C 3985.368479 2960.319789 3987.008284 2960.007509 3988.687132 2960.007509 C 3990.405024 2960.007509 3992.044829 2960.319789 3993.606548 2960.983384 C 3995.168268 2961.607944 3996.534772 2962.544784 3997.745104 2963.75487 C 3998.955437 2964.964955 3999.892469 2966.331181 4000.517156 2967.892581 C 4001.180887 2969.453982 4001.493231 2971.093452 4001.493231 2972.810993 Z M 4001.493231 2972.810993 " stroke="#ffcf2d" stroke-width="6" stroke-opacity="1" stroke-miterlimit="10"/><path stroke-linecap="butt" transform="matrix(0.10005, 0, 0, 0.10007, -72.263405, 0.00175764)" fill="none" stroke-linejoin="miter" d="M 4103.395419 2982.491676 C 4103.395419 2984.209217 4103.083075 2985.848687 4102.419344 2987.410088 C 4101.794657 2988.971489 4100.857625 2990.337714 4099.647292 2991.547799 C 4098.43696 2992.757885 4097.070455 2993.694725 4095.508736 2994.319285 C 4093.947017 2994.982881 4092.307211 2995.295161 4090.58932 2995.295161 C 4088.910472 2995.295161 4087.270667 2994.982881 4085.708947 2994.319285 C 4084.147228 2993.694725 4082.74168 2992.757885 4081.531348 2991.547799 C 4080.360058 2990.337714 4079.423027 2988.971489 4078.759296 2987.410088 C 4078.134608 2985.848687 4077.783221 2984.209217 4077.783221 2982.491676 C 4077.783221 2980.813171 4078.134608 2979.1737 4078.759296 2977.6123 C 4079.423027 2976.050899 4080.360058 2974.645639 4081.531348 2973.435553 C 4082.74168 2972.264503 4084.147228 2971.327662 4085.708947 2970.664067 C 4087.270667 2970.039507 4088.910472 2969.688192 4090.58932 2969.688192 C 4092.307211 2969.688192 4093.947017 2970.039507 4095.508736 2970.664067 C 4097.070455 2971.327662 4098.43696 2972.264503 4099.647292 2973.435553 C 4100.857625 2974.645639 4101.794657 2976.050899 4102.419344 2977.6123 C 4103.083075 2979.1737 4103.395419 2980.813171 4103.395419 2982.491676 Z M 4103.395419 2982.491676 " stroke="#ffcf2d" stroke-width="6" stroke-opacity="1" stroke-miterlimit="10"/><path stroke-linecap="butt" transform="matrix(0.10005, 0, 0, 0.10007, -72.263405, 0.00175764)" fill="none" stroke-linejoin="miter" d="M 4092.697641 3060.093283 C 4092.697641 3061.810824 4092.385297 3063.411259 4091.721567 3065.011695 C 4091.057836 3066.573095 4090.159847 3067.939321 4088.949515 3069.149406 C 4087.739182 3070.359492 4086.372678 3071.257297 4084.810959 3071.920892 C 4083.210196 3072.584487 4081.609434 3072.896767 4079.891543 3072.896767 C 4078.212694 3072.896767 4076.572889 3072.584487 4075.01117 3071.920892 C 4073.44945 3071.257297 4072.043903 3070.359492 4070.83357 3069.149406 C 4069.662281 3067.939321 4068.725249 3066.573095 4068.061518 3065.011695 C 4067.436831 3063.411259 4067.085444 3061.810824 4067.085444 3060.093283 C 4067.085444 3058.414777 4067.436831 3056.775307 4068.061518 3055.213906 C 4068.725249 3053.652506 4069.662281 3052.247245 4070.83357 3051.03716 C 4072.043903 3049.86611 4073.44945 3048.929269 4075.01117 3048.265674 C 4076.572889 3047.641114 4078.212694 3047.289799 4079.891543 3047.289799 C 4081.609434 3047.289799 4083.210196 3047.641114 4084.810959 3048.265674 C 4086.372678 3048.929269 4087.739182 3049.86611 4088.949515 3051.03716 C 4090.159847 3052.247245 4091.057836 3053.652506 4091.721567 3055.213906 C 4092.385297 3056.775307 4092.697641 3058.414777 4092.697641 3060.093283 Z M 4092.697641 3060.093283 " stroke="#ffcf2d" stroke-width="6" stroke-opacity="1" stroke-miterlimit="10"/><path stroke-linecap="butt" transform="matrix(0.10005, 0, 0, 0.10007, -72.263405, 0.00175764)" fill="none" stroke-linejoin="miter" d="M 4129.71039 3111.112046 C 4129.71039 3112.790551 4129.359003 3114.430022 4128.734315 3115.991422 C 4128.070585 3117.552823 4127.133553 3118.958083 4125.962264 3120.168169 C 4124.751931 3121.339219 4123.385427 3122.27606 4121.784664 3122.939655 C 4120.222945 3123.564215 4118.58314 3123.91553 4116.904291 3123.91553 C 4115.1864 3123.91553 4113.585638 3123.564215 4111.984875 3122.939655 C 4110.423156 3122.27606 4109.056652 3121.339219 4107.846319 3120.168169 C 4106.635987 3118.958083 4105.737998 3117.552823 4105.074267 3115.991422 C 4104.410536 3114.430022 4104.098193 3112.790551 4104.098193 3111.112046 C 4104.098193 3109.394505 4104.410536 3107.755035 4105.074267 3106.193634 C 4105.737998 3104.632233 4106.635987 3103.266008 4107.846319 3102.055923 C 4109.056652 3100.845837 4110.423156 3099.908997 4111.984875 3099.284437 C 4113.585638 3098.620841 4115.1864 3098.308561 4116.904291 3098.308561 C 4118.58314 3098.308561 4120.222945 3098.620841 4121.784664 3099.284437 C 4123.385427 3099.908997 4124.751931 3100.845837 4125.962264 3102.055923 C 4127.133553 3103.266008 4128.070585 3104.632233 4128.734315 3106.193634 C 4129.359003 3107.755035 4129.71039 3109.394505 4129.71039 3111.112046 Z M 4129.71039 3111.112046 " stroke="#ffcf2d" stroke-width="6" stroke-opacity="1" stroke-miterlimit="10"/><path stroke-linecap="butt" transform="matrix(0.10005, 0, 0, 0.10007, -72.263405, 0.00175764)" fill="none" stroke-linejoin="miter" d="M 4081.68752 3149.483464 C 4081.68752 3151.201005 4081.375176 3152.840475 4080.711445 3154.401876 C 4080.086757 3155.963276 4079.149726 3157.368537 4077.939393 3158.539587 C 4076.768104 3159.749673 4075.362556 3160.686513 4073.800837 3161.311073 C 4072.239118 3161.974668 4070.599312 3162.286948 4068.881421 3162.286948 C 4067.202573 3162.286948 4065.562767 3161.974668 4064.001048 3161.311073 C 4062.439329 3160.686513 4061.033781 3159.749673 4059.862492 3158.539587 C 4058.652159 3157.368537 4057.715128 3155.963276 4057.09044 3154.401876 C 4056.426709 3152.840475 4056.114365 3151.201005 4056.114365 3149.483464 C 4056.114365 3147.804958 4056.426709 3146.165488 4057.09044 3144.604087 C 4057.715128 3143.042687 4058.652159 3141.637426 4059.862492 3140.466376 C 4061.033781 3139.25629 4062.439329 3138.31945 4064.001048 3137.655855 C 4065.562767 3137.031295 4067.202573 3136.719015 4068.881421 3136.719015 C 4070.599312 3136.719015 4072.239118 3137.031295 4073.800837 3137.655855 C 4075.362556 3138.31945 4076.768104 3139.25629 4077.939393 3140.466376 C 4079.149726 3141.637426 4080.086757 3143.042687 4080.711445 3144.604087 C 4081.375176 3146.165488 4081.68752 3147.804958 4081.68752 3149.483464 Z M 4081.68752 3149.483464 " stroke="#ffcf2d" stroke-width="6" stroke-opacity="1" stroke-miterlimit="10"/><path stroke-linecap="butt" transform="matrix(0.10005, 0, 0, 0.10007, -72.263405, 0.00175764)" fill="none" stroke-linejoin="miter" d="M 4143.414477 3029.489833 C 4143.414477 3031.207373 4143.06309 3032.846844 4142.438403 3034.408244 C 4141.774672 3035.969645 4140.83764 3037.33587 4139.666351 3038.545956 C 4138.456018 3039.756041 4137.050471 3040.692881 4135.488752 3041.317442 C 4133.927032 3041.981037 4132.287227 3042.293317 4130.608379 3042.293317 C 4128.890487 3042.293317 4127.250682 3041.981037 4125.688963 3041.317442 C 4124.127243 3040.692881 4122.760739 3039.756041 4121.550406 3038.545956 C 4120.340074 3037.33587 4119.442085 3035.969645 4118.778355 3034.408244 C 4118.114624 3032.846844 4117.80228 3031.207373 4117.80228 3029.489833 C 4117.80228 3027.811327 4118.114624 3026.171856 4118.778355 3024.610456 C 4119.442085 3023.049055 4120.340074 3021.643795 4121.550406 3020.433709 C 4122.760739 3019.262659 4124.127243 3018.325819 4125.688963 3017.662223 C 4127.250682 3017.037663 4128.890487 3016.686348 4130.608379 3016.686348 C 4132.287227 3016.686348 4133.927032 3017.037663 4135.488752 3017.662223 C 4137.050471 3018.325819 4138.456018 3019.262659 4139.666351 3020.433709 C 4140.83764 3021.643795 4141.774672 3023.049055 4142.438403 3024.610456 C 4143.06309 3026.171856 4143.414477 3027.811327 4143.414477 3029.489833 Z M 4143.414477 3029.489833 " stroke="#ffcf2d" stroke-width="6" stroke-opacity="1" stroke-miterlimit="10"/><path stroke-linecap="butt" transform="matrix(0.10005, 0, 0, 0.10007, -72.263405, 0.00175764)" fill="none" stroke-linejoin="miter" d="M 4180.505312 2976.987739 C 4180.505312 2978.70528 4180.192968 2980.344751 4179.529237 2981.906151 C 4178.865507 2983.467552 4177.967518 2984.833777 4176.757186 2986.043862 C 4175.546853 2987.253948 4174.180349 2988.190788 4172.579586 2988.815348 C 4171.017867 2989.478944 4169.378062 2989.791224 4167.699213 2989.791224 C 4166.020365 2989.791224 4164.38056 2989.478944 4162.81884 2988.815348 C 4161.218078 2988.190788 4159.851574 2987.253948 4158.641241 2986.043862 C 4157.430909 2984.833777 4156.53292 2983.467552 4155.869189 2981.906151 C 4155.205458 2980.344751 4154.893115 2978.70528 4154.893115 2976.987739 C 4154.893115 2975.309234 4155.205458 2973.669763 4155.869189 2972.108363 C 4156.53292 2970.546962 4157.430909 2969.141702 4158.641241 2967.931616 C 4159.851574 2966.760566 4161.218078 2965.823726 4162.81884 2965.16013 C 4164.38056 2964.53557 4166.020365 2964.184255 4167.699213 2964.184255 C 4169.378062 2964.184255 4171.017867 2964.53557 4172.579586 2965.16013 C 4174.180349 2965.823726 4175.546853 2966.760566 4176.757186 2967.931616 C 4177.967518 2969.141702 4178.865507 2970.546962 4179.529237 2972.108363 C 4180.192968 2973.669763 4180.505312 2975.309234 4180.505312 2976.987739 Z M 4180.505312 2976.987739 " stroke="#ffcf2d" stroke-width="6" stroke-opacity="1" stroke-miterlimit="10"/><path stroke-linecap="butt" transform="matrix(0.10005, 0, 0, 0.10007, -72.263405, 0.00175764)" fill="none" stroke-linejoin="miter" d="M 4222.710778 3019.496869 C 4222.710778 3021.21441 4222.359391 3022.814845 4221.734703 3024.415281 C 4221.070972 3025.976681 4220.133941 3027.342907 4218.962651 3028.552992 C 4217.752319 3029.763078 4216.346771 3030.660883 4214.785052 3031.324478 C 4213.223333 3031.988073 4211.583527 3032.300353 4209.904679 3032.300353 C 4208.186788 3032.300353 4206.586025 3031.988073 4204.985263 3031.324478 C 4203.423544 3030.660883 4202.057039 3029.763078 4200.846707 3028.552992 C 4199.636374 3027.342907 4198.738386 3025.976681 4198.074655 3024.415281 C 4197.410924 3022.814845 4197.09858 3021.21441 4197.09858 3019.496869 C 4197.09858 3017.818363 4197.410924 3016.178893 4198.074655 3014.617492 C 4198.738386 3013.017057 4199.636374 3011.650831 4200.846707 3010.440746 C 4202.057039 3009.230661 4203.423544 3008.332855 4204.985263 3007.66926 C 4206.586025 3007.005665 4208.186788 3006.693385 4209.904679 3006.693385 C 4211.583527 3006.693385 4213.223333 3007.005665 4214.785052 3007.66926 C 4216.346771 3008.332855 4217.752319 3009.230661 4218.962651 3010.440746 C 4220.133941 3011.650831 4221.070972 3013.017057 4221.734703 3014.617492 C 4222.359391 3016.178893 4222.710778 3017.818363 4222.710778 3019.496869 Z M 4222.710778 3019.496869 " stroke="#ffcf2d" stroke-width="6" stroke-opacity="1" stroke-miterlimit="10"/><path stroke-linecap="butt" transform="matrix(0.10005, 0, 0, 0.10007, -72.263405, 0.00175764)" fill="none" stroke-linejoin="miter" d="M 4174.414607 3061.381439 C 4174.414607 3063.098979 4174.06322 3064.73845 4173.438532 3066.29985 C 4172.774801 3067.861251 4171.83777 3069.266511 4170.66648 3070.437562 C 4169.456148 3071.647647 4168.0506 3072.584487 4166.488881 3073.209048 C 4164.927161 3073.872643 4163.287356 3074.184923 4161.608508 3074.184923 C 4159.890617 3074.184923 4158.250811 3073.872643 4156.689092 3073.209048 C 4155.127373 3072.584487 4153.760868 3071.647647 4152.550536 3070.437562 C 4151.340203 3069.266511 4150.442214 3067.861251 4149.778484 3066.29985 C 4149.114753 3064.73845 4148.802409 3063.098979 4148.802409 3061.381439 C 4148.802409 3059.702933 4149.114753 3058.063462 4149.778484 3056.502062 C 4150.442214 3054.940661 4151.340203 3053.535401 4152.550536 3052.36435 C 4153.760868 3051.154265 4155.127373 3050.217425 4156.689092 3049.592864 C 4158.250811 3048.929269 4159.890617 3048.616989 4161.608508 3048.616989 C 4163.287356 3048.616989 4164.927161 3048.929269 4166.488881 3049.592864 C 4168.0506 3050.217425 4169.456148 3051.154265 4170.66648 3052.36435 C 4171.83777 3053.535401 4172.774801 3054.940661 4173.438532 3056.502062 C 4174.06322 3058.063462 4174.414607 3059.702933 4174.414607 3061.381439 Z M 4174.414607 3061.381439 " stroke="#ffcf2d" stroke-width="6" stroke-opacity="1" stroke-miterlimit="10"/><path stroke-linecap="butt" transform="matrix(0.10005, 0, 0, 0.10007, -72.263405, 0.00175764)" fill="none" stroke-linejoin="miter" d="M 4232.198223 3088.198493 C 4232.198223 3089.916033 4231.885879 3091.516469 4231.222148 3093.116904 C 4230.558417 3094.678305 4229.660429 3096.04453 4228.450096 3097.254616 C 4227.239764 3098.464701 4225.873259 3099.362507 4224.31154 3100.026102 C 4222.710778 3100.689697 4221.110015 3101.001977 4219.392124 3101.001977 C 4217.713276 3101.001977 4216.07347 3100.689697 4214.511751 3100.026102 C 4212.950032 3099.362507 4211.544484 3098.464701 4210.334152 3097.254616 C 4209.162862 3096.04453 4208.225831 3094.678305 4207.5621 3093.116904 C 4206.937412 3091.516469 4206.586025 3089.916033 4206.586025 3088.198493 C 4206.586025 3086.519987 4206.937412 3084.880517 4207.5621 3083.319116 C 4208.225831 3081.718681 4209.162862 3080.352455 4210.334152 3079.14237 C 4211.544484 3077.932284 4212.950032 3077.034479 4214.511751 3076.370884 C 4216.07347 3075.707288 4217.713276 3075.395008 4219.392124 3075.395008 C 4221.110015 3075.395008 4222.710778 3075.707288 4224.31154 3076.370884 C 4225.873259 3077.034479 4227.239764 3077.932284 4228.450096 3079.14237 C 4229.660429 3080.352455 4230.558417 3081.718681 4231.222148 3083.319116 C 4231.885879 3084.880517 4232.198223 3086.519987 4232.198223 3088.198493 Z M 4232.198223 3088.198493 " stroke="#ffcf2d" stroke-width="6" stroke-opacity="1" stroke-miterlimit="10"/><path stroke-linecap="butt" transform="matrix(0.10005, 0, 0, 0.10007, -72.263405, 0.00175764)" fill="none" stroke-linejoin="miter" d="M 4193.311411 3137.38261 C 4193.311411 3139.10015 4192.960024 3140.739621 4192.335336 3142.301021 C 4191.671605 3143.862422 4190.734574 3145.267682 4189.563284 3146.438733 C 4188.352952 3147.648818 4186.947404 3148.585659 4185.385685 3149.210219 C 4183.823966 3149.873814 4182.18416 3150.186094 4180.505312 3150.186094 C 4178.787421 3150.186094 4177.186658 3149.873814 4175.585896 3149.210219 C 4174.024177 3148.585659 4172.657672 3147.648818 4171.44734 3146.438733 C 4170.237007 3145.267682 4169.339019 3143.862422 4168.675288 3142.301021 C 4168.011557 3140.739621 4167.699213 3139.10015 4167.699213 3137.38261 C 4167.699213 3135.704104 4168.011557 3134.064634 4168.675288 3132.503233 C 4169.339019 3130.941833 4170.237007 3129.536572 4171.44734 3128.365522 C 4172.657672 3127.155436 4174.024177 3126.218596 4175.585896 3125.555001 C 4177.186658 3124.93044 4178.787421 3124.61816 4180.505312 3124.61816 C 4182.18416 3124.61816 4183.823966 3124.93044 4185.385685 3125.555001 C 4186.947404 3126.218596 4188.352952 3127.155436 4189.563284 3128.365522 C 4190.734574 3129.536572 4191.671605 3130.941833 4192.335336 3132.503233 C 4192.960024 3134.064634 4193.311411 3135.704104 4193.311411 3137.38261 Z M 4193.311411 3137.38261 " stroke="#ffcf2d" stroke-width="6" stroke-opacity="1" stroke-miterlimit="10"/><path stroke-linecap="butt" transform="matrix(0.10005, 0, 0, 0.10007, -72.263405, 0.00175764)" fill-opacity="1" fill="#ffffff" fill-rule="nonzero" stroke-linejoin="miter" d="M 4298.415123 2746.21274 C 4298.415123 2746.21274 4393.406703 2694.881697 4409.101983 2784.506088 C 4427.296013 2887.987909 4303.685926 2979.09563 4303.685926 2979.09563 C 4303.685926 2979.09563 4277.097654 2913.204527 4205.805166 2856.408583 C 4144.117251 2807.302536 4195.302603 2677.081731 4298.415123 2746.21274 Z M 4298.415123 2746.21274 " stroke="#ffcf2d" stroke-width="6" stroke-opacity="1" stroke-miterlimit="10"/><path fill="#ffcf2d" d="M 339.132812 263.398438 C 343.644531 263.4375 350.128906 254.269531 344.003906 244.214844 C 336.609375 232.066406 335.339844 225.03125 335.339844 225.03125 C 335.339844 225.03125 324.464844 239.421875 326.316406 250.457031 C 328.347656 262.546875 339.132812 263.398438 339.132812 263.398438 Z M 339.132812 263.398438 " fill-opacity="1" fill-rule="nonzero"/><path stroke-linecap="butt" transform="matrix(0.10005, 0, 0, 0.10007, -72.263405, 0.00175764)" fill-opacity="1" fill="#ffffff" fill-rule="nonzero" stroke-linejoin="miter" d="M 4119.715386 2571.101669 C 4185.5809 2588.511285 4248.205846 2548.383291 4249.494265 2457.002325 C 4251.797801 2295.397369 4282.4075 2242.817206 4282.4075 2242.817206 C 4282.4075 2242.817206 4077.080448 2316.710486 4046.002233 2431.512461 C 4016.407651 2540.888569 4119.715386 2571.101669 4119.715386 2571.101669 Z M 4119.715386 2571.101669 " stroke="#ffcf2d" stroke-width="6" stroke-opacity="1" stroke-miterlimit="10"/><path fill="#ffcf2d" d="M 312.359375 267.941406 C 312.117188 267.960938 311.867188 267.980469 311.597656 268 C 297.410156 269.0625 293.328125 282.050781 293.328125 282.050781 C 293.328125 282.050781 292.457031 281.109375 292.640625 277.855469 C 292.980469 269.472656 300.691406 260.804688 309.496094 266.308594 C 310.476562 266.929688 311.4375 267.460938 312.359375 267.941406 Z M 312.359375 267.941406 " fill-opacity="1" fill-rule="nonzero"/><path stroke-linecap="butt" transform="matrix(0.10005, 0, 0, 0.10007, -72.263405, 0.00175764)" fill-opacity="1" fill="#ffffff" fill-rule="nonzero" stroke-linejoin="miter" d="M 4005.085185 2709.402722 C 3980.097676 2711.003157 3923.016833 2717.912355 3844.306178 2677.511116 C 3835.092034 2672.787879 3825.48746 2667.401047 3815.687671 2661.19448 C 3727.684785 2606.194146 3652.605127 2692.812841 3649.208387 2776.58198 C 3649.013172 2780.680657 3649.989247 2784.818368 3650.184462 2788.799939 C 3641.907349 2715.999639 3642.102564 2534.799107 3862.383079 2540.888569 C 4013.791771 2545.299525 4005.085185 2709.402722 4005.085185 2709.402722 Z M 4005.085185 2709.402722 " stroke="#ffcf2d" stroke-width="6" stroke-opacity="1" stroke-miterlimit="10"/><path stroke-linecap="butt" transform="matrix(0.10005, 0, 0, 0.10007, -72.263405, 0.00175764)" fill="none" stroke-linejoin="miter" d="M 4041.082817 2896.692717 C 4041.082817 2896.692717 4067.202573 2533.003496 3714.488256 2580.509107 " stroke="#ffcf2d" stroke-width="6" stroke-opacity="1" stroke-miterlimit="10"/><path stroke-linecap="butt" transform="matrix(0.10005, 0, 0, 0.10007, -72.263405, 0.00175764)" fill="none" stroke-linejoin="miter" d="M 4282.4075 2242.817206 C 4060.213879 2469.805809 4101.599442 2896.692717 4101.599442 2896.692717 C 4078.212694 2733.409255 4221.812789 2571.101669 4298.297994 2741.918888 C 4321.099097 2792.703441 4303.60784 2979.01756 4303.60784 2979.01756 " stroke="#ffcf2d" stroke-width="6" stroke-opacity="1" stroke-miterlimit="10"/><path fill="#ffcf2d" d="M 26.785156 261.265625 L 23.804688 263.878906 C 23.324219 263.308594 22.894531 262.675781 22.523438 261.984375 L 3.933594 227.339844 C 3.152344 225.890625 4.203125 224.140625 5.84375 224.140625 L 8.445312 224.140625 C 10.527344 224.140625 12.429688 225.28125 13.410156 227.113281 L 28.027344 254.351562 C 29.289062 256.671875 28.765625 259.542969 26.785156 261.265625 Z M 26.785156 261.265625 " fill-opacity="1" fill-rule="nonzero"/><path fill="#ffcf2d" d="M 77.390625 262.027344 L 34.140625 270.914062 L 34.140625 270.011719 C 34.140625 265.699219 37.171875 261.984375 41.394531 261.117188 L 69.257812 255.390625 C 73.460938 254.53125 77.390625 257.742188 77.390625 262.027344 Z M 77.390625 262.027344 " fill-opacity="1" fill-rule="nonzero"/><path stroke-linecap="round" transform="matrix(0.10005, 0, 0, 0.10007, -72.263405, 0.00175764)" fill="none" stroke-linejoin="miter" d="M 1446.793666 3170.991756 L 1446.793666 2737.898282 C 1446.793666 2701.986069 1413.919474 2675.20805 1378.702703 2682.390493 L 1107.197793 2738.093457 C 1074.909245 2744.690374 1048.28193 2767.291647 1036.490949 2798.090273 L 893.203198 3170.991756 " stroke="#9a3b82" stroke-width="6" stroke-opacity="1" stroke-miterlimit="10"/><path stroke-linecap="round" transform="matrix(0.10005, 0, 0, 0.10007, -72.263405, 0.00175764)" fill="none" stroke-linejoin="miter" d="M 760.496096 2269.907505 L 971.60151 2663.185266 C 989.717454 2696.911518 1027.706277 2714.711484 1065.187542 2706.982551 L 1496.807729 2618.412106 " stroke="#9a3b82" stroke-width="6" stroke-opacity="1" stroke-miterlimit="10"/><path fill="#66b0f0" d="M 56.179688 229.882812 L 92.730469 229.882812 L 92.730469 234.765625 L 56.179688 234.765625 Z M 56.179688 229.882812 " fill-opacity="1" fill-rule="nonzero"/><path fill="#fe5244" d="M 86.066406 224.578125 C 86.507812 224.988281 86.777344 225.730469 86.777344 226.351562 C 86.777344 227.59375 85.695312 228.863281 84.355469 228.863281 L 51.019531 228.863281 C 51.019531 229.441406 51.488281 229.914062 52.070312 229.914062 L 92.296875 229.914062 C 93.378906 229.914062 94.351562 229.511719 95.058594 228.851562 C 95.769531 228.203125 96.199219 227.292969 96.199219 226.289062 C 96.199219 224.289062 94.449219 222.679688 92.296875 222.679688 L 52.070312 222.679688 C 51.488281 222.679688 51.019531 223.148438 51.019531 223.730469 L 51.019531 223.917969 L 84.355469 223.917969 C 85.023438 223.929688 85.625 224.179688 86.066406 224.578125 Z M 86.066406 224.578125 " fill-opacity="1" fill-rule="nonzero"/><path fill="#fe5244" d="M 53.429688 223.929688 L 53.429688 228.773438 L 51.027344 228.773438 L 51.027344 229.171875 L 84.476562 229.171875 C 84.84375 229.171875 85.207031 229.101562 85.527344 228.972656 C 85.886719 228.832031 86.207031 228.613281 86.464844 228.351562 C 86.976562 227.84375 87.296875 227.132812 87.296875 226.351562 C 87.296875 224.789062 86.027344 223.527344 84.476562 223.527344 L 51.027344 223.527344 L 51.027344 223.929688 Z M 53.429688 223.929688 " fill-opacity="1" fill-rule="nonzero"/><path fill="#ffffff" d="M 52.5 223.929688 L 52.5 228.773438 L 84.355469 228.773438 C 85.695312 228.773438 86.777344 227.691406 86.777344 226.351562 C 86.777344 225.679688 86.507812 225.082031 86.066406 224.640625 C 85.625 224.199219 85.023438 223.929688 84.355469 223.929688 Z M 52.5 223.929688 " fill-opacity="1" fill-rule="nonzero"/><path stroke-linecap="butt" transform="matrix(0.10005, 0, 0, 0.10007, -72.263405, 0.00175764)" fill="none" stroke-linejoin="miter" d="M 1247.010718 2237.703619 L 1247.010718 2286.107036 " stroke="#fe5244" stroke-width="5" stroke-opacity="1" stroke-miterlimit="10"/><path fill="#ffcf2d" d="M 79.902344 227.363281 L 79.902344 231.40625 L 82.695312 231.40625 L 82.695312 227.882812 C 82.695312 227.042969 83.375 226.359375 84.214844 226.359375 L 85.457031 226.359375 L 85.457031 225.839844 L 81.414062 225.839844 C 80.59375 225.839844 79.902344 226.519531 79.902344 227.363281 Z M 79.902344 227.363281 " fill-opacity="1" fill-rule="nonzero"/><path stroke-linecap="round" transform="matrix(0.10005, 0, 0, 0.10007, -72.263405, 0.00175764)" fill="none" stroke-linejoin="miter" d="M 1078.696414 2387.793246 C 1078.696414 2366.519163 1095.992456 2349.187618 1117.309925 2349.187618 L 1876.305532 2349.187618 C 1897.583958 2349.187618 1914.919043 2366.519163 1914.919043 2387.793246 " stroke="#9a3b82" stroke-width="6" stroke-opacity="1" stroke-miterlimit="10"/><path stroke-linecap="round" transform="matrix(0.10005, 0, 0, 0.10007, -72.263405, 0.00175764)" fill="none" stroke-linejoin="miter" d="M 1915.504688 3170.991756 L 1701.197749 2424.603264 C 1691.710304 2391.618677 1658.992284 2368.588019 1621.589105 2368.588019 L 1371.909223 2368.588019 C 1334.506045 2368.588019 1301.788024 2391.618677 1292.300579 2424.603264 L 1078.11077 3170.991756 " stroke="#9a3b82" stroke-width="6" stroke-opacity="1" stroke-miterlimit="10"/><path stroke-linecap="butt" transform="matrix(0.10005, 0, 0, 0.10007, -72.263405, 0.00175764)" fill-opacity="1" fill="#ffffff" fill-rule="nonzero" stroke-linejoin="miter" d="M 2095.414758 3041.785862 L 2095.414758 3150.615479 C 2095.414758 3161.896598 2104.511773 3170.991756 2115.795195 3170.991756 L 2387.807664 3170.991756 C 2387.807664 3170.991756 2389.408426 3120.519484 2347.98382 3106.388809 C 2277.706449 3082.499381 2244.910343 3041.785862 2244.910343 3041.785862 Z M 2095.414758 3041.785862 " stroke="#fe5244" stroke-width="6" stroke-opacity="1" stroke-miterlimit="10"/><path stroke-linecap="butt" transform="matrix(0.10005, 0, 0, 0.10007, -72.263405, 0.00175764)" fill="none" stroke-linejoin="miter" d="M 2246.70632 3097.488826 C 2257.794528 3094.40506 2297.813586 3072.311242 2284.109499 3058.609953 C 2277.589321 3052.091105 2262.01117 3058.609953 2262.01117 3058.609953 " stroke="#fe5244" stroke-width="6" stroke-opacity="1" stroke-miterlimit="10"/><path stroke-linecap="butt" transform="matrix(0.10005, 0, 0, 0.10007, -72.263405, 0.00175764)" fill="none" stroke-linejoin="miter" d="M 2287.701453 3112.517306 C 2298.789661 3109.394505 2337.207957 3084.685342 2322.098322 3072.584487 C 2310.697771 3063.411259 2293.596944 3081.211225 2293.596944 3081.211225 " stroke="#fe5244" stroke-width="6" stroke-opacity="1" stroke-miterlimit="10"/><path fill="#fe5244" d="M 153.179688 305.277344 L 137.382812 310.191406 L 137.382812 304.394531 L 152.347656 304.394531 C 152.347656 304.394531 152.617188 304.734375 153.179688 305.277344 Z M 153.179688 305.277344 " fill-opacity="1" fill-rule="nonzero"/><path stroke-linecap="butt" transform="matrix(0.10005, 0, 0, 0.10007, -72.263405, 0.00175764)" fill-opacity="1" fill="#ffffff" fill-rule="nonzero" stroke-linejoin="miter" d="M 2436.416179 3041.785862 L 2436.416179 3150.615479 C 2436.416179 3161.896598 2445.513194 3170.991756 2456.796617 3170.991756 L 2728.809085 3170.991756 C 2728.809085 3170.991756 2730.409848 3120.519484 2688.985242 3106.388809 C 2618.707871 3082.499381 2585.911764 3041.785862 2585.911764 3041.785862 Z M 2436.416179 3041.785862 " stroke="#fe5244" stroke-width="6" stroke-opacity="1" stroke-miterlimit="10"/><path stroke-linecap="butt" transform="matrix(0.10005, 0, 0, 0.10007, -72.263405, 0.00175764)" fill="none" stroke-linejoin="miter" d="M 2587.707742 3097.488826 C 2598.795949 3094.40506 2638.815007 3072.311242 2625.11092 3058.609953 C 2618.590742 3052.091105 2603.012591 3058.609953 2603.012591 3058.609953 " stroke="#fe5244" stroke-width="6" stroke-opacity="1" stroke-miterlimit="10"/><path stroke-linecap="butt" transform="matrix(0.10005, 0, 0, 0.10007, -72.263405, 0.00175764)" fill="none" stroke-linejoin="miter" d="M 2628.702875 3112.517306 C 2639.791082 3109.394505 2678.209378 3084.685342 2663.099743 3072.584487 C 2651.699192 3063.411259 2634.598365 3081.211225 2634.598365 3081.211225 " stroke="#fe5244" stroke-width="6" stroke-opacity="1" stroke-miterlimit="10"/><path fill="#fe5244" d="M 187.296875 305.277344 L 171.5 310.191406 L 171.5 304.394531 L 186.464844 304.394531 C 186.464844 304.394531 186.734375 304.734375 187.296875 305.277344 Z M 187.296875 305.277344 " fill-opacity="1" fill-rule="nonzero"/><path fill="#3fb1b5" d="M 144.734375 196.019531 L 134.878906 299.210938 L 155.492188 299.210938 L 165.84375 249.207031 L 170.078125 259.863281 L 170.078125 299.210938 L 191.539062 299.210938 L 191.539062 255.089844 L 180.09375 196.019531 Z M 144.734375 196.019531 " fill-opacity="1" fill-rule="nonzero"/><path stroke-linecap="butt" transform="matrix(0.10005, 0, 0, 0.10007, -72.263405, 0.00175764)" fill="none" stroke-linejoin="miter" d="M 2276.183773 2206.514643 L 2180.411334 2989.986399 " stroke="#9a3b82" stroke-width="6" stroke-opacity="1" stroke-miterlimit="10"/><path stroke-linecap="butt" transform="matrix(0.10005, 0, 0, 0.10007, -72.263405, 0.00175764)" fill="none" stroke-linejoin="miter" d="M 2525.707483 2989.986399 L 2525.707483 2549.085922 L 2391.28249 2008.8023 " stroke="#9a3b82" stroke-width="6" stroke-opacity="1" stroke-miterlimit="10"/><path stroke-linecap="butt" transform="matrix(0.10005, 0, 0, 0.10007, -72.263405, 0.00175764)" fill="none" stroke-linejoin="miter" d="M 2419.198223 2596.786708 L 2290.785849 2223.885224 C 2286.413035 2211.08174 2274.30971 2202.494037 2260.683708 2202.494037 " stroke="#ffffff" stroke-width="6" stroke-opacity="1" stroke-miterlimit="10"/><path fill="#9a3b82" d="M 143.105469 213.082031 L 144.734375 196.019531 L 180.09375 196.019531 L 181.101562 201.261719 Z M 143.105469 213.082031 " fill-opacity="1" fill-rule="nonzero"/><path fill="#9a3b82" d="M 191.578125 304.394531 L 169.996094 304.394531 C 169.1875 304.394531 168.527344 303.734375 168.527344 302.925781 L 168.527344 300.683594 C 168.527344 299.871094 169.1875 299.210938 169.996094 299.210938 L 191.578125 299.210938 C 192.390625 299.210938 193.050781 299.871094 193.050781 300.683594 L 193.050781 302.925781 C 193.039062 303.734375 192.390625 304.394531 191.578125 304.394531 Z M 191.578125 304.394531 " fill-opacity="1" fill-rule="nonzero"/><path fill="#9a3b82" d="M 155.859375 304.394531 L 134.28125 304.394531 C 133.46875 304.394531 132.808594 303.734375 132.808594 302.925781 L 132.808594 300.683594 C 132.808594 299.871094 133.46875 299.210938 134.28125 299.210938 L 155.859375 299.210938 C 156.671875 299.210938 157.332031 299.871094 157.332031 300.683594 L 157.332031 302.925781 C 157.320312 303.734375 156.671875 304.394531 155.859375 304.394531 Z M 155.859375 304.394531 " fill-opacity="1" fill-rule="nonzero"/><path fill="#66b0f0" d="M 213.460938 199.042969 L 220.222656 224.351562 L 186.507812 233.367188 L 179.734375 208.039062 C 179.523438 207.246094 179.011719 206.628906 178.363281 206.246094 C 177.710938 205.867188 176.910156 205.738281 176.121094 205.945312 C 174.550781 206.367188 173.609375 207.988281 174.03125 209.558594 L 180.804688 234.886719 L 180.0625 235.085938 L 173.300781 209.78125 C 172.757812 207.769531 173.917969 205.707031 175.902344 205.105469 C 175.941406 205.097656 175.980469 205.085938 176.019531 205.074219 L 208.757812 196.320312 C 210.808594 195.78125 212.910156 197 213.460938 199.042969 Z M 213.460938 199.042969 " fill-opacity="1" fill-rule="nonzero"/><path fill="#9a3b82" d="M 180.484375 207.867188 L 187.246094 233.175781 L 186.507812 233.375 L 179.734375 208.046875 C 179.523438 207.257812 179.011719 206.636719 178.363281 206.257812 C 177.710938 205.875 176.910156 205.746094 176.121094 205.957031 C 174.550781 206.378906 173.609375 208 174.03125 209.570312 L 180.804688 234.898438 L 180.0625 235.097656 L 173.300781 209.789062 C 172.757812 207.777344 173.917969 205.714844 175.902344 205.117188 C 177.910156 204.644531 179.941406 205.855469 180.484375 207.867188 Z M 180.484375 207.867188 " fill-opacity="1" fill-rule="nonzero"/><path fill="#ffffff" d="M 179.734375 208.039062 L 186.085938 231.816406 L 180.382812 233.335938 L 174.03125 209.558594 C 173.609375 207.988281 174.539062 206.367188 176.121094 205.945312 C 176.910156 205.738281 177.710938 205.867188 178.363281 206.246094 C 179.011719 206.628906 179.523438 207.246094 179.734375 208.039062 Z M 179.734375 208.039062 " fill-opacity="1" fill-rule="nonzero"/><path stroke-linecap="butt" transform="matrix(0.10005, 0, 0, 0.10007, -72.263405, 0.00175764)" fill-opacity="1" fill="#ffcf2d" fill-rule="nonzero" stroke-linejoin="miter" d="M 2856.791986 2123.018749 L 2703.509232 2175.794088 L 2582.515025 1958.798448 L 2113.491659 1958.798448 C 2033.804929 1958.798448 1974.186293 1885.490692 1990.50626 1807.498735 L 2039.30999 1573.093479 C 2054.61484 1499.707654 2119.309064 1447.088456 2194.193507 1447.088456 L 2514.892577 1447.088456 C 2592.588114 1447.088456 2658.805015 1503.49405 2671.103555 1580.197852 L 2719.399726 1808.396541 Z M 2856.791986 2123.018749 " stroke="#ffffff" stroke-width="6" stroke-opacity="1" stroke-miterlimit="10"/><path fill="#ffffff" d="M 136.691406 195.769531 C 131.167969 194.660156 127.066406 189.957031 126.644531 184.410156 C 127.066406 184.121094 127.535156 183.871094 128.035156 183.691406 C 131.667969 182.351562 135.820312 184.550781 137.332031 188.605469 C 138.261719 191.144531 137.941406 193.808594 136.691406 195.769531 Z M 136.691406 195.769531 " fill-opacity="1" fill-rule="nonzero"/><path fill="#e57281" d="M 171.628906 130.742188 L 171.628906 144.824219 L 156.089844 144.824219 L 159.671875 135.457031 Z M 171.628906 130.742188 " fill-opacity="1" fill-rule="nonzero"/><path fill="#9a3b82" d="M 175.199219 124.820312 C 175.191406 124.820312 175.171875 124.828125 175.160156 124.828125 L 170.546875 126.050781 C 168.898438 126.492188 167.625 127.710938 167.085938 129.253906 L 165.316406 129.253906 C 164.195312 129.253906 163.285156 130.164062 163.285156 131.285156 L 163.285156 131.3125 C 163.285156 132.375 164.09375 133.246094 165.136719 133.335938 C 165.125 133.34375 165.125 133.34375 165.125 133.34375 C 165.125 133.34375 164.304688 137.25 159.511719 135.9375 C 159.511719 135.9375 159.703125 125.671875 159.902344 122.476562 C 160.074219 119.847656 174.03125 114.863281 175.320312 116.984375 C 176.460938 118.867188 175.140625 119.746094 174.019531 120.136719 C 176 119.714844 179.742188 119.15625 180.121094 120.828125 C 180.5625 122.769531 176.609375 124.449219 175.199219 124.820312 Z M 175.199219 124.820312 " fill-opacity="1" fill-rule="nonzero"/><path fill="#e57281" d="M 176.101562 132.015625 L 175.609375 132.015625 L 175.75 134.417969 C 175.851562 136.136719 174.46875 137.597656 172.75 137.597656 L 170.589844 137.597656 C 168.507812 137.597656 166.816406 135.90625 166.816406 133.824219 L 166.816406 133.355469 L 165.324219 133.355469 C 164.203125 133.355469 163.292969 132.445312 163.292969 131.324219 L 163.292969 131.292969 C 163.292969 130.171875 164.203125 129.261719 165.324219 129.261719 L 167.097656 129.261719 C 167.636719 127.722656 168.90625 126.492188 170.558594 126.058594 L 175.171875 124.839844 L 176.75 131.175781 C 176.910156 131.574219 176.53125 132.015625 176.101562 132.015625 Z M 176.101562 132.015625 " fill-opacity="1" fill-rule="nonzero"/><path stroke-linecap="round" transform="matrix(0.10005, 0, 0, 0.10007, -72.263405, 0.00175764)" fill="none" stroke-linejoin="miter" d="M 2394.288799 1339.195679 C 2392.219521 1361.211426 2414.200721 1376.903502 2435.010632 1376.903502 " stroke="#9a3b82" stroke-width="5" stroke-opacity="1" stroke-miterlimit="10"/><path stroke-linecap="round" transform="matrix(0.10005, 0, 0, 0.10007, -72.263405, 0.00175764)" fill="none" stroke-linejoin="miter" d="M 2386.206902 1315.696601 C 2386.206902 1307.889598 2379.881938 1301.604961 2372.112384 1301.604961 " stroke="#9a3b82" stroke-width="5" stroke-opacity="1" stroke-miterlimit="10"/><path fill="#9a3b82" d="M 174.769531 129.460938 C 174.769531 129.675781 174.734375 129.855469 174.660156 130.007812 C 174.589844 130.15625 174.503906 130.234375 174.398438 130.234375 C 174.296875 130.234375 174.210938 130.15625 174.136719 130.007812 C 174.066406 129.855469 174.03125 129.675781 174.03125 129.460938 C 174.03125 129.25 174.066406 129.070312 174.136719 128.917969 C 174.210938 128.765625 174.296875 128.691406 174.398438 128.691406 C 174.503906 128.691406 174.589844 128.765625 174.660156 128.917969 C 174.734375 129.070312 174.769531 129.25 174.769531 129.460938 Z M 174.769531 129.460938 " fill-opacity="1" fill-rule="nonzero"/><path stroke-linecap="round" transform="matrix(0.10005, 0, 0, 0.10007, -72.263405, 0.00175764)" fill="none" stroke-linejoin="miter" d="M 2449.417493 1277.481322 C 2449.417493 1277.481322 2461.716033 1268.112919 2479.285375 1268.112919 " stroke="#9a3b82" stroke-width="5" stroke-opacity="1" stroke-miterlimit="10"/><path stroke-linecap="butt" transform="matrix(0.10005, 0, 0, 0.10007, -72.263405, 0.00175764)" fill-opacity="1" fill="#ffffff" fill-rule="nonzero" stroke-linejoin="miter" d="M 2401.785052 2022.89394 C 2401.785052 2022.89394 2524.301936 2028.202702 2567.40539 1929.912538 L 2544.604287 1888.184108 L 2476.513323 1914.415637 Z M 2401.785052 2022.89394 " stroke="#fe5244" stroke-width="6" stroke-opacity="1" stroke-miterlimit="10"/><path stroke-linecap="butt" transform="matrix(0.10005, 0, 0, 0.10007, -72.263405, 0.00175764)" fill-opacity="1" fill="#fe5244" fill-rule="nonzero" stroke-linejoin="miter" d="M 2499.900071 1421.403417 C 2494.00458 1421.910872 2488.616648 1424.487183 2484.595221 1428.507789 C 2480.183364 1432.918746 2477.411312 1439.008208 2477.411312 1445.8003 L 2477.411312 1938.500241 C 2477.411312 1985.498397 2439.30536 2023.59657 2392.297607 2023.59657 L 2203.407651 2023.59657 C 2152.612729 2023.59657 2113.413573 1979.487005 2118.801505 1929.405082 L 2118.801505 1929.287977 L 2186.814383 1461.609481 C 2190.211123 1438.500753 2209.888786 1421.403417 2233.314577 1421.403417 Z M 2499.900071 1421.403417 " stroke="#fe5244" stroke-width="6" stroke-opacity="1" stroke-miterlimit="10"/><path stroke-linecap="butt" transform="matrix(0.10005, 0, 0, 0.10007, -72.263405, 0.00175764)" fill-opacity="1" fill="#ffffff" fill-rule="nonzero" stroke-linejoin="miter" d="M 2480.886138 1421.403417 C 2474.990647 1421.910872 2469.602715 1424.487183 2465.581288 1428.507789 C 2461.911247 1432.216116 2459.412496 1437.017422 2458.709723 1442.404254 C 2458.592594 1443.497235 2458.514508 1444.590215 2458.514508 1445.683195 L 2454.49308 1483.391018 L 2406.509253 1938.383136 C 2406.509253 1985.381292 2368.403301 2023.5185 2321.395548 2023.5185 L 2203.485737 2023.5185 C 2152.690815 2023.5185 2113.491659 1979.408935 2118.918634 1929.287977 L 2118.918634 1929.209907 L 2149.606419 1717.796274 L 2186.892469 1461.492376 C 2187.204813 1459.306415 2187.712372 1457.081419 2188.298016 1454.895459 C 2194.115421 1435.182777 2212.309451 1421.286312 2233.314577 1421.286312 L 2480.886138 1421.286312 Z M 2480.886138 1421.403417 " stroke="#fe5244" stroke-width="6" stroke-opacity="1" stroke-miterlimit="10"/><path fill="#ffcf2d" d="M 171.738281 152.058594 L 169.949219 165.5 C 169.355469 168.25 167.214844 169.722656 164.113281 170.222656 L 142.902344 173.304688 L 145.996094 152.046875 L 171.738281 152.046875 Z M 171.738281 152.058594 " fill-opacity="1" fill-rule="nonzero"/><path stroke-linecap="butt" transform="matrix(0.10005, 0, 0, 0.10007, -72.263405, 0.00175764)" fill-opacity="1" fill="#fe5244" fill-rule="nonzero" stroke-linejoin="miter" d="M 2473.311799 1421.403417 L 2468.001953 1421.403417 C 2458.397379 1421.286312 2450.003137 1428.117439 2448.090031 1437.602948 L 2416.894687 1638.906512 C 2410.999196 1666.387162 2386.71446 1686.099843 2358.603512 1686.099843 L 2163.505722 1686.099843 C 2139.884716 1686.099843 2122.315374 1664.318306 2127.390962 1641.209578 L 2164.989355 1470.392359 C 2171.314318 1441.818729 2196.692258 1421.403417 2226.013539 1421.403417 Z M 2473.311799 1421.403417 " stroke="#fe5244" stroke-width="6" stroke-opacity="1" stroke-miterlimit="10"/><path stroke-linecap="butt" transform="matrix(0.10005, 0, 0, 0.10007, -72.263405, 0.00175764)" fill-opacity="1" fill="#ffffff" fill-rule="nonzero" stroke-linejoin="miter" d="M 2312.493748 1742.115088 L 2362.195467 1438.188473 C 2363.210584 1432.099011 2368.481387 1427.492879 2374.689221 1427.492879 C 2382.497818 1427.492879 2388.510438 1434.519182 2387.182976 1442.287149 L 2337.481258 1746.213764 C 2336.505183 1752.303226 2331.195337 1756.909358 2324.987503 1756.909358 C 2317.217949 1756.909358 2311.20533 1749.883055 2312.493748 1742.115088 Z M 2312.493748 1742.115088 " stroke="#fe5244" stroke-width="6" stroke-opacity="1" stroke-miterlimit="10"/><path stroke-linecap="butt" transform="matrix(0.10005, 0, 0, 0.10007, -72.263405, 0.00175764)" fill-opacity="1" fill="#ffffff" fill-rule="nonzero" stroke-linejoin="miter" d="M 2201.416459 1742.115088 L 2251.118177 1438.188473 C 2252.094252 1432.099011 2257.404098 1427.492879 2263.611932 1427.492879 C 2271.381486 1427.492879 2277.394106 1434.519182 2276.105687 1442.287149 L 2226.403969 1746.213764 C 2225.388851 1752.303226 2220.118048 1756.909358 2213.910214 1756.909358 C 2206.101617 1756.909358 2200.088997 1749.883055 2201.416459 1742.115088 Z M 2201.416459 1742.115088 " stroke="#fe5244" stroke-width="6" stroke-opacity="1" stroke-miterlimit="10"/><path stroke-linecap="butt" transform="matrix(0.10005, 0, 0, 0.10007, -72.263405, 0.00175764)" fill-opacity="1" fill="#ffffff" fill-rule="nonzero" stroke-linejoin="miter" d="M 2526.410257 1447.283631 L 2477.489398 1447.517841 L 2477.489398 1445.8003 C 2477.489398 1439.008208 2480.183364 1432.918746 2484.71235 1428.507789 C 2488.694734 1424.487183 2494.00458 1421.910872 2500.0172 1421.403417 L 2503.999584 1421.403417 C 2516.298124 1422.418327 2525.980784 1432.801641 2526.410257 1447.283631 Z M 2526.410257 1447.283631 " stroke="#fe5244" stroke-width="6" stroke-opacity="1" stroke-miterlimit="10"/><path fill="#e57281" d="M 211.726562 213.082031 L 215.851562 223.71875 C 216.511719 225.429688 215.550781 227.332031 213.789062 227.820312 L 204.734375 230.304688 C 204.183594 230.453125 203.605469 230.324219 203.175781 229.953125 L 202.253906 229.152344 L 204.132812 228.652344 C 204.964844 228.433594 205.523438 227.660156 205.484375 226.800781 L 205.273438 224.679688 C 205.234375 223.730469 204.464844 222.96875 203.515625 222.9375 L 203.613281 222.9375 C 202.464844 222.898438 201.34375 222.1875 200.894531 221.128906 L 199.453125 217.292969 Z M 211.726562 213.082031 " fill-opacity="1" fill-rule="nonzero"/><path stroke-linecap="round" transform="matrix(0.10005, 0, 0, 0.10007, -72.263405, 0.00175764)" fill="none" stroke-linejoin="miter" d="M 2745.714697 2292.001323 L 2760.511988 2287.980716 C 2768.789101 2285.794756 2774.41129 2279.080733 2773.981818 2270.49303 L 2772.888614 2247.306232 C 2772.498184 2237.781689 2764.806716 2230.208896 2755.319271 2229.896616 C 2743.801591 2229.506266 2733.611372 2222.401894 2729.082386 2211.78437 L 2713.69945 2175.481808 " stroke="#ffffff" stroke-width="6" stroke-opacity="1" stroke-miterlimit="10"/><path stroke-linecap="round" transform="matrix(0.10005, 0, 0, 0.10007, -72.263405, 0.00175764)" fill="none" stroke-linejoin="miter" d="M 2794.088954 2291.806148 C 2804.708646 2288.995627 2811.892555 2279.197838 2811.384996 2268.189965 L 2810.018492 2238.601424 " stroke="#ffffff" stroke-width="6" stroke-opacity="1" stroke-miterlimit="10"/><path stroke-linecap="round" transform="matrix(0.10005, 0, 0, 0.10007, -72.263405, 0.00175764)" fill="none" stroke-linejoin="miter" d="M 2832.390122 2281.891254 C 2843.009813 2279.080733 2850.193722 2269.282945 2849.686163 2258.314106 L 2848.280616 2228.686531 " stroke="#ffffff" stroke-width="6" stroke-opacity="1" stroke-miterlimit="10"/><path stroke-linecap="butt" transform="matrix(0.10005, 0, 0, 0.10007, -72.263405, 0.00175764)" fill="none" stroke-linejoin="miter" d="M 2489.787938 1686.099843 L 2513.994588 1812.690392 C 2518.094101 1834.31579 2525.707483 1855.199522 2536.405261 1874.404748 L 2703.392103 2175.794088 L 2856.7139 2123.018749 " stroke="#ffffff" stroke-width="6" stroke-opacity="1" stroke-miterlimit="10"/><path fill="#ffffff" d="M 186.976562 197.460938 L 181.503906 187.574219 C 180.582031 185.902344 179.890625 184.121094 179.453125 182.269531 C 179.972656 182.101562 180.511719 181.980469 181.082031 181.929688 C 185.40625 181.550781 189.238281 185.183594 189.648438 190.035156 C 189.886719 192.976562 188.816406 195.691406 186.976562 197.460938 Z M 186.976562 197.460938 " fill-opacity="1" fill-rule="nonzero"/></svg>