<svg xmlns="http://www.w3.org/2000/svg" xmlns:xlink="http://www.w3.org/1999/xlink" width="230" zoomAndPan="magnify" viewBox="0 0 172.5 112.499997" height="150" preserveAspectRatio="xMidYMid meet" version="1.0"><defs><clipPath id="fecc361534"><path d="M 83 37 L 132 37 L 132 112.003906 L 83 112.003906 Z M 83 37 " clip-rule="nonzero"/></clipPath><clipPath id="8b4ccba2fe"><path d="M 123 105 L 131 105 L 131 112.003906 L 123 112.003906 Z M 123 105 " clip-rule="nonzero"/></clipPath><clipPath id="7eef19b3b2"><path d="M 126 105 L 135 105 L 135 112.003906 L 126 112.003906 Z M 126 105 " clip-rule="nonzero"/></clipPath><clipPath id="cd7c92d55e"><path d="M 131 105 L 139 105 L 139 112.003906 L 131 112.003906 Z M 131 105 " clip-rule="nonzero"/></clipPath><clipPath id="08f1012ab6"><path d="M 3 87 L 32 87 L 32 112.003906 L 3 112.003906 Z M 3 87 " clip-rule="nonzero"/></clipPath><clipPath id="bc0431de6d"><path d="M 0.132812 71 L 34 71 L 34 96 L 0.132812 96 Z M 0.132812 71 " clip-rule="nonzero"/></clipPath><clipPath id="436e1eaf76"><path d="M 10 75 L 50 75 L 50 112.003906 L 10 112.003906 Z M 10 75 " clip-rule="nonzero"/></clipPath><clipPath id="374453a164"><path d="M 50 102 L 69 102 L 69 112.003906 L 50 112.003906 Z M 50 102 " clip-rule="nonzero"/></clipPath><clipPath id="457c1974d9"><path d="M 63 102 L 82 102 L 82 112.003906 L 63 112.003906 Z M 63 102 " clip-rule="nonzero"/></clipPath></defs><path fill="#d0f0e4" d="M 113.636719 110.371094 L 14.4375 110.371094 L 54.976562 13.96875 L 73.097656 13.96875 Z M 113.636719 110.371094 " fill-opacity="1" fill-rule="nonzero"/><path stroke-linecap="butt" transform="matrix(0.0389768, 0, 0, 0.0390391, -28.12727, -13.421382)" fill="none" stroke-linejoin="miter" d="M 2320.450826 515.796394 L 2364.647826 471.669959 L 2408.744606 515.796394 " stroke="#ffcf2d" stroke-width="6" stroke-opacity="1" stroke-miterlimit="10"/><path stroke-linecap="butt" transform="matrix(0.0389768, 0, 0, 0.0390391, -28.12727, -13.421382)" fill="none" stroke-linejoin="miter" d="M 2364.647826 471.669959 L 2364.647826 323.981482 " stroke="#ffcf2d" stroke-width="6" stroke-opacity="1" stroke-miterlimit="10"/><path stroke-linecap="butt" transform="matrix(0.0389768, 0, 0, 0.0390391, -28.12727, -13.421382)" fill-opacity="1" fill="#ffcf2d" fill-rule="nonzero" stroke-linejoin="miter" d="M 2435.603553 707.611307 C 2435.603553 717.016941 2433.799594 726.022336 2430.191676 734.727552 C 2426.583757 743.432767 2421.47254 751.137382 2414.757803 757.841399 C 2408.143286 764.445355 2400.426349 769.548412 2391.807433 773.15057 C 2383.088297 776.752728 2373.968282 778.553807 2364.647826 778.553807 C 2355.22715 778.553807 2346.107134 776.752728 2337.387998 773.15057 C 2328.769082 769.548412 2321.052146 764.445355 2314.437629 757.841399 C 2307.722892 751.137382 2302.611674 743.432767 2299.003756 734.727552 C 2295.395838 726.022336 2293.591879 717.016941 2293.591879 707.611307 C 2293.591879 698.205672 2295.395838 689.100217 2299.003756 680.395002 C 2302.611674 671.689787 2307.722892 664.085231 2314.437629 657.381215 C 2321.052146 650.777259 2328.769082 645.574141 2337.387998 641.971983 C 2346.107134 638.369826 2355.22715 636.568747 2364.647826 636.568747 C 2373.968282 636.568747 2383.088297 638.369826 2391.807433 641.971983 C 2400.426349 645.574141 2408.143286 650.777259 2414.757803 657.381215 C 2421.47254 664.085231 2426.583757 671.689787 2430.191676 680.395002 C 2433.799594 689.100217 2435.603553 698.205672 2435.603553 707.611307 Z M 2435.603553 707.611307 " stroke="#ffffff" stroke-width="6" stroke-opacity="1" stroke-miterlimit="10"/><path stroke-linecap="round" transform="matrix(0.0389768, 0, 0, 0.0390391, -28.12727, -13.421382)" fill="none" stroke-linejoin="miter" d="M 2597.057899 701.60771 L 2132.237753 701.60771 L 2138.35117 673.290746 C 2158.79604 580.134938 2253.904777 512.494416 2364.748046 512.494416 C 2420.06946 512.494416 2471.582517 529.404547 2511.670498 557.921631 C 2551.8587 586.438715 2580.722047 626.562752 2590.944482 673.190686 Z M 2597.057899 701.60771 " stroke="#9a3b82" stroke-width="6" stroke-opacity="1" stroke-miterlimit="10"/><path fill="#66b0f0" d="M 90.125 76.140625 L 91.964844 76.140625 L 91.964844 87.777344 L 90.125 87.777344 Z M 90.125 76.140625 " fill-opacity="1" fill-rule="nonzero"/><path fill="#9a3b82" d="M 125.371094 87.777344 L 114.898438 87.777344 C 114.519531 87.777344 114.226562 87.449219 114.273438 87.074219 L 115.730469 74.75 C 115.769531 74.433594 116.039062 74.195312 116.355469 74.195312 L 126.828125 74.195312 C 127.207031 74.195312 127.5 74.523438 127.453125 74.898438 L 125.996094 87.222656 C 125.957031 87.539062 125.6875 87.777344 125.371094 87.777344 Z M 125.371094 87.777344 " fill-opacity="1" fill-rule="nonzero"/><path stroke-linecap="butt" transform="matrix(0.0389768, 0, 0, 0.0390391, -28.12727, -13.421382)" fill-opacity="1" fill="#ffffff" fill-rule="nonzero" stroke-linejoin="miter" d="M 3791.77997 2592.240351 L 3579.614328 2592.240351 C 3566.585734 2592.240351 3556.463518 2580.833517 3557.966818 2567.925784 L 3585.226645 2337.988033 C 3586.529504 2327.081499 3595.84996 2318.776524 3606.773935 2318.776524 L 3824.050795 2318.776524 Z M 3791.77997 2592.240351 " stroke="#ffcf2d" stroke-width="6" stroke-opacity="1" stroke-miterlimit="10"/><path stroke-linecap="butt" transform="matrix(0.0389768, 0, 0, 0.0390391, -28.12727, -13.421382)" fill-opacity="1" fill="#ffffff" fill-rule="nonzero" stroke-linejoin="miter" d="M 3815.632319 2592.240351 L 3613.087792 2592.240351 C 3600.059198 2592.240351 3590.037203 2580.833517 3591.540502 2567.925784 L 3618.70011 2337.988033 C 3620.002969 2327.081499 3629.323425 2318.776524 3640.34762 2318.776524 L 3845.397646 2318.776524 C 3851.911943 2318.776524 3857.02316 2324.479941 3856.221401 2330.983837 L 3826.355854 2582.534536 C 3825.754535 2588.137893 3821.144417 2592.240351 3815.632319 2592.240351 Z M 3815.632319 2592.240351 " stroke="#ffcf2d" stroke-width="6" stroke-opacity="1" stroke-miterlimit="10"/><path stroke-linecap="round" transform="matrix(0.0389768, 0, 0, 0.0390391, -28.12727, -13.421382)" fill="none" stroke-linejoin="miter" d="M 3084.126875 2338.988632 L 3166.006578 2338.988632 L 3166.006578 2592.240351 L 3084.126875 2592.240351 Z M 3084.126875 2338.988632 " stroke="#9a3b82" stroke-width="6" stroke-opacity="1" stroke-miterlimit="10"/><path stroke-linecap="round" transform="matrix(0.0389768, 0, 0, 0.0390391, -28.12727, -13.421382)" fill="none" stroke-linejoin="miter" d="M 3137.544111 2338.988632 L 3252.797058 2338.988632 L 3252.797058 2592.240351 L 3137.544111 2592.240351 Z M 3137.544111 2338.988632 " stroke="#9a3b82" stroke-width="6" stroke-opacity="1" stroke-miterlimit="10"/><path stroke-linecap="round" transform="matrix(0.0389768, 0, 0, 0.0390391, -28.12727, -13.421382)" fill="none" stroke-linejoin="miter" d="M 3392.503674 2592.240351 L 3360.633728 2592.240351 L 3241.873083 2311.171968 L 3273.843248 2311.171968 Z M 3392.503674 2592.240351 " stroke="#9a3b82" stroke-width="6" stroke-opacity="1" stroke-miterlimit="10"/><path stroke-linecap="round" transform="matrix(0.0389768, 0, 0, 0.0390391, -28.12727, -13.421382)" fill="none" stroke-linejoin="miter" d="M 3453.337186 2592.240351 L 3393.906753 2592.240351 L 3291.6824 2353.897564 L 3351.112833 2353.897564 Z M 3453.337186 2592.240351 " stroke="#9a3b82" stroke-width="6" stroke-opacity="1" stroke-miterlimit="10"/><path stroke-linecap="round" transform="matrix(0.0389768, 0, 0, 0.0390391, -28.12727, -13.421382)" fill="none" stroke-linejoin="miter" d="M 2948.328838 2338.988632 L 3030.91008 2338.988632 L 3030.91008 2592.240351 L 2948.328838 2592.240351 Z M 2948.328838 2338.988632 " stroke="#9a3b82" stroke-width="6" stroke-opacity="1" stroke-miterlimit="10"/><path stroke-linecap="round" transform="matrix(0.0389768, 0, 0, 0.0390391, -28.12727, -13.421382)" fill="none" stroke-linejoin="miter" d="M 2948.328838 2144.872341 L 3332.471921 2144.872341 L 3332.471921 2194.301954 L 2948.328838 2194.301954 Z M 2948.328838 2144.872341 " stroke="#9a3b82" stroke-width="6" stroke-opacity="1" stroke-miterlimit="10"/><path fill="#fe5244" d="M 86.789062 68.839844 L 105.757812 68.839844 L 105.757812 70.390625 L 86.789062 70.390625 Z M 86.789062 68.839844 " fill-opacity="1" fill-rule="nonzero"/><path fill="#ffcf2d" d="M 86.789062 66.597656 L 99.59375 66.597656 L 99.59375 68.800781 L 86.789062 68.800781 Z M 86.789062 66.597656 " fill-opacity="1" fill-rule="nonzero"/><path stroke-linecap="round" transform="matrix(0.0389768, 0, 0, 0.0390391, -28.12727, -13.421382)" fill="none" stroke-linejoin="miter" d="M 2948.328838 2006.589499 L 3332.471921 2006.589499 L 3332.471921 2048.714735 L 2948.328838 2048.714735 Z M 2948.328838 2006.589499 " stroke="#9a3b82" stroke-width="6" stroke-opacity="1" stroke-miterlimit="10"/><path stroke-linecap="butt" transform="matrix(0.0389768, 0, 0, 0.0390391, -28.12727, -13.421382)" fill-opacity="1" fill="#ffffff" fill-rule="nonzero" stroke-linejoin="miter" d="M 3995.426917 1895.623021 L 3995.126257 1897.32404 L 3949.726618 2194.301954 L 3528.502151 2194.301954 L 3573.90179 1897.32404 L 3574.50311 1893.121522 C 3581.718947 1878.512771 3625.715506 1867.205997 3679.032522 1867.205997 C 3737.260315 1867.205997 3784.463914 1880.714089 3784.463914 1897.32404 C 3784.463914 1880.714089 3831.667512 1867.205997 3889.995525 1867.205997 C 3946.319139 1867.306057 3992.219878 1879.81355 3995.426917 1895.623021 Z M 3995.426917 1895.623021 " stroke="#ffcf2d" stroke-width="6" stroke-opacity="1" stroke-miterlimit="10"/><path stroke-linecap="butt" transform="matrix(0.0389768, 0, 0, 0.0390391, -28.12727, -13.421382)" fill="none" stroke-linejoin="miter" d="M 3739.565374 2194.402014 L 3784.564133 1897.4241 " stroke="#ffcf2d" stroke-width="6" stroke-opacity="1" stroke-miterlimit="10"/><path fill="#ffcf2d" d="M 117.628906 72.246094 C 117.628906 71.597656 115.789062 71.070312 113.519531 71.070312 C 111.246094 71.070312 109.40625 71.597656 109.40625 72.246094 Z M 117.628906 72.246094 " fill-opacity="1" fill-rule="nonzero"/><path fill="#ffcf2d" d="M 125.855469 72.246094 C 125.855469 71.597656 124.015625 71.070312 121.742188 71.070312 C 119.46875 71.070312 117.628906 71.597656 117.628906 72.246094 Z M 125.855469 72.246094 " fill-opacity="1" fill-rule="nonzero"/><path stroke-linecap="round" transform="matrix(0.0389768, 0, 0, 0.0390391, -28.12727, -13.421382)" fill="none" stroke-linejoin="miter" d="M 3741.168893 2188.098237 C 3740.567574 2171.488286 3787.270072 2156.379235 3845.598085 2154.277976 C 3881.977929 2152.977197 3917.856672 2158.080254 3936.798244 2165.38463 L 3981.797003 1882.515168 " stroke="#ffcf2d" stroke-width="6" stroke-opacity="1" stroke-miterlimit="10"/><path stroke-linecap="round" transform="matrix(0.0389768, 0, 0, 0.0390391, -28.12727, -13.421382)" fill-opacity="1" fill="#ffffff" fill-rule="nonzero" stroke-linejoin="miter" d="M 3961.753012 1796.463617 L 3583.623126 1796.463617 L 3583.623126 1712.313204 C 3583.623126 1704.008228 3590.337863 1697.304212 3598.555899 1697.304212 L 3946.920459 1697.304212 C 3955.238715 1697.304212 3961.853232 1704.008228 3961.853232 1712.313204 L 3961.853232 1796.463617 Z M 3961.753012 1796.463617 " stroke="#9a3b82" stroke-width="6" stroke-opacity="1" stroke-miterlimit="10"/><path fill="#ffcf2d" d="M 127.46875 52.683594 L 114.765625 52.683594 C 114.566406 52.683594 114.410156 52.523438 114.410156 52.328125 L 114.410156 51.019531 C 114.410156 50.820312 114.570312 50.664062 114.765625 50.664062 L 127.46875 50.664062 C 127.667969 50.664062 127.824219 50.824219 127.824219 51.019531 L 127.824219 52.328125 C 127.824219 52.523438 127.664062 52.683594 127.46875 52.683594 Z M 127.46875 52.683594 " fill-opacity="1" fill-rule="nonzero"/><path fill="#fe5244" d="M 112.894531 49.4375 L 127.964844 49.4375 L 127.964844 50.664062 L 112.894531 50.664062 Z M 112.894531 49.4375 " fill-opacity="1" fill-rule="nonzero"/><path stroke-linecap="round" transform="matrix(0.0389768, 0, 0, 0.0390391, -28.12727, -13.421382)" fill-opacity="1" fill="#ffffff" fill-rule="nonzero" stroke-linejoin="miter" d="M 3997.731976 1610.152001 L 3702.584211 1610.152001 C 3698.675633 1610.152001 3695.568814 1606.950083 3695.568814 1603.247865 L 3695.568814 1577.932699 C 3695.568814 1574.030361 3698.775853 1570.928503 3702.584211 1570.928503 L 3997.731976 1570.928503 C 4001.640554 1570.928503 4004.747372 1574.130421 4004.747372 1577.932699 L 4004.747372 1603.247865 C 4004.747372 1606.950083 4001.640554 1610.152001 3997.731976 1610.152001 Z M 3997.731976 1610.152001 " stroke="#9a3b82" stroke-width="6" stroke-opacity="1" stroke-miterlimit="10"/><path stroke-linecap="round" transform="matrix(0.0389768, 0, 0, 0.0390391, -28.12727, -13.421382)" fill="none" stroke-linejoin="miter" d="M 3072.401141 1487.57857 L 3185.850129 1487.57857 L 3185.850129 1796.463617 L 3072.401141 1796.463617 Z M 3072.401141 1487.57857 " stroke="#9a3b82" stroke-width="6" stroke-opacity="1" stroke-miterlimit="10"/><path stroke-linecap="round" transform="matrix(0.0389768, 0, 0, 0.0390391, -28.12727, -13.421382)" fill-opacity="1" fill="#ffffff" fill-rule="nonzero" stroke-linejoin="miter" d="M 3026.600622 1487.57857 L 3072.401141 1487.57857 L 3072.401141 1796.463617 L 3026.600622 1796.463617 Z M 3026.600622 1487.57857 " stroke="#9a3b82" stroke-width="6" stroke-opacity="1" stroke-miterlimit="10"/><path stroke-linecap="round" transform="matrix(0.0389768, 0, 0, 0.0390391, -28.12727, -13.421382)" fill-opacity="1" fill="#ffffff" fill-rule="nonzero" stroke-linejoin="miter" d="M 2949.631697 1487.57857 L 3026.600622 1487.57857 L 3026.600622 1796.463617 L 2949.631697 1796.463617 Z M 2949.631697 1487.57857 " stroke="#9a3b82" stroke-width="6" stroke-opacity="1" stroke-miterlimit="10"/><path stroke-linecap="round" transform="matrix(0.0389768, 0, 0, 0.0390391, -28.12727, -13.421382)" fill="none" stroke-linejoin="miter" d="M 3200.883122 1543.412018 L 3300.401536 1543.412018 L 3300.401536 1796.563676 L 3200.883122 1796.563676 Z M 3200.883122 1543.412018 " stroke="#9a3b82" stroke-width="6" stroke-opacity="1" stroke-miterlimit="10"/><path stroke-linecap="round" transform="matrix(0.0389768, 0, 0, 0.0390391, -28.12727, -13.421382)" fill-opacity="1" fill="#ffffff" fill-rule="nonzero" stroke-linejoin="miter" d="M 3208.098958 1796.463617 L 3168.912956 1796.463617 C 3165.104598 1796.463617 3161.89756 1793.361758 3161.89756 1789.45942 L 3161.89756 1550.216095 C 3161.89756 1546.413817 3165.004378 1543.211898 3168.912956 1543.211898 L 3208.098958 1543.211898 C 3211.907317 1543.211898 3215.114355 1546.313757 3215.114355 1550.216095 L 3215.114355 1789.45942 C 3215.014135 1793.361758 3211.907317 1796.463617 3208.098958 1796.463617 Z M 3208.098958 1796.463617 " stroke="#9a3b82" stroke-width="6" stroke-opacity="1" stroke-miterlimit="10"/><path fill="#9a3b82" d="M 100.511719 46.832031 L 100.511719 52.25 L 98.410156 46.832031 Z M 100.511719 46.832031 " fill-opacity="1" fill-rule="nonzero"/><path stroke-linecap="butt" transform="matrix(0.0389768, 0, 0, 0.0390391, -28.12727, -13.421382)" fill-opacity="1" fill="#ffffff" fill-rule="nonzero" stroke-linejoin="miter" d="M 3530.80721 1796.463617 L 3371.557703 1796.463617 C 3368.050005 1796.463617 3364.943186 1794.262298 3363.740547 1791.06038 L 3260.313554 1524.900929 C 3258.108715 1519.297572 3262.217733 1513.293975 3268.230931 1513.293975 L 3427.380218 1513.293975 C 3430.887916 1513.293975 3434.094954 1515.495294 3435.297594 1518.697212 L 3538.724586 1784.856663 C 3540.929425 1790.46002 3536.820407 1796.463617 3530.80721 1796.463617 Z M 3530.80721 1796.463617 " stroke="#ffcf2d" stroke-width="6" stroke-opacity="1" stroke-miterlimit="10"/><path stroke-linecap="butt" transform="matrix(0.0389768, 0, 0, 0.0390391, -28.12727, -13.421382)" fill-opacity="1" fill="#ffffff" fill-rule="nonzero" stroke-linejoin="miter" d="M 3556.764178 1796.463617 L 3397.614891 1796.463617 C 3394.107193 1796.463617 3390.900154 1794.262298 3389.697515 1791.06038 L 3286.270522 1524.900929 C 3284.065683 1519.297572 3288.174702 1513.293975 3294.187899 1513.293975 L 3453.437406 1513.293975 C 3456.945104 1513.293975 3460.051923 1515.495294 3461.254562 1518.697212 L 3564.681554 1784.856663 C 3566.886393 1790.46002 3562.777375 1796.463617 3556.764178 1796.463617 Z M 3556.764178 1796.463617 " stroke="#ffcf2d" stroke-width="6" stroke-opacity="1" stroke-miterlimit="10"/><path stroke-linecap="butt" transform="matrix(0.0389768, 0, 0, 0.0390391, -28.12727, -13.421382)" fill="none" stroke-linejoin="miter" d="M 3836.37785 1331.084817 C 3821.545296 1335.287335 3805.710544 1337.588714 3789.474911 1337.588714 C 3694.767055 1337.588714 3618.09879 1260.942797 3618.09879 1166.18603 C 3618.09879 1088.139273 3670.413606 1022.09971 3741.870433 1001.487362 Z M 3836.37785 1331.084817 " stroke="#ffcf2d" stroke-width="6" stroke-opacity="1" stroke-miterlimit="10"/><path stroke-linecap="butt" transform="matrix(0.0389768, 0, 0, 0.0390391, -28.12727, -13.421382)" fill="none" stroke-linejoin="miter" d="M 3789.474911 1337.588714 L 3789.474911 1398.725339 " stroke="#ffcf2d" stroke-width="6" stroke-opacity="1" stroke-miterlimit="10"/><path stroke-linecap="butt" transform="matrix(0.0389768, 0, 0, 0.0390391, -28.12727, -13.421382)" fill-opacity="1" fill="#ffffff" fill-rule="nonzero" stroke-linejoin="miter" d="M 3934.693624 1166.18603 C 3934.693624 1175.691724 3933.791645 1185.197419 3931.887466 1194.502994 C 3930.083507 1203.908629 3927.277348 1212.914024 3923.66943 1221.719299 C 3919.961291 1230.524574 3915.551613 1238.929609 3910.239956 1246.834345 C 3904.928298 1254.83914 3898.915101 1262.143516 3892.200364 1268.847532 C 3885.385407 1275.651608 3878.069351 1281.655205 3870.151974 1286.958382 C 3862.234598 1292.261559 3853.916342 1296.664197 3845.096986 1300.366415 C 3836.27763 1303.968573 3827.157614 1306.770251 3817.837158 1308.57133 C 3808.516702 1310.472469 3798.995807 1311.373008 3789.474911 1311.373008 C 3779.954016 1311.373008 3770.53334 1310.472469 3761.212884 1308.57133 C 3751.792209 1306.770251 3742.772413 1303.968573 3733.953057 1300.366415 C 3725.133701 1296.664197 3716.715225 1292.261559 3708.797848 1286.958382 C 3700.880472 1281.655205 3693.564415 1275.651608 3686.849678 1268.847532 C 3680.134941 1262.143516 3674.021524 1254.83914 3668.810087 1246.834345 C 3663.498429 1238.929609 3658.988531 1230.524574 3655.380613 1221.719299 C 3651.672475 1212.914024 3648.966536 1203.908629 3647.062357 1194.502994 C 3645.258397 1185.197419 3644.256198 1175.691724 3644.256198 1166.18603 C 3644.256198 1156.680335 3645.258397 1147.17464 3647.062357 1137.869066 C 3648.966536 1128.563491 3651.672475 1119.458036 3655.380613 1110.652761 C 3658.988531 1101.847486 3663.498429 1093.44245 3668.810087 1085.537715 C 3674.021524 1077.632979 3680.134941 1070.228543 3686.849678 1063.524527 C 3693.564415 1056.820511 3700.880472 1050.816914 3708.797848 1045.513737 C 3716.715225 1040.21056 3725.133701 1035.707863 3733.953057 1032.005645 C 3742.772413 1028.403487 3751.792209 1025.601809 3761.212884 1023.80073 C 3770.53334 1021.899591 3779.954016 1020.999051 3789.474911 1020.999051 C 3798.995807 1020.999051 3808.516702 1021.899591 3817.837158 1023.80073 C 3827.157614 1025.601809 3836.27763 1028.403487 3845.096986 1032.005645 C 3853.916342 1035.707863 3862.234598 1040.21056 3870.151974 1045.513737 C 3878.069351 1050.816914 3885.385407 1056.820511 3892.200364 1063.524527 C 3898.915101 1070.228543 3904.928298 1077.632979 3910.239956 1085.537715 C 3915.551613 1093.44245 3919.961291 1101.847486 3923.66943 1110.652761 C 3927.277348 1119.458036 3930.083507 1128.563491 3931.887466 1137.869066 C 3933.791645 1147.17464 3934.693624 1156.680335 3934.693624 1166.18603 Z M 3934.693624 1166.18603 " stroke="#3fb1b5" stroke-width="6" stroke-opacity="1" stroke-miterlimit="10"/><path stroke-linecap="butt" transform="matrix(0.0389768, 0, 0, 0.0390391, -28.12727, -13.421382)" fill-opacity="1" fill="#ffffff" fill-rule="nonzero" stroke-linejoin="miter" d="M 3850.208203 1398.3251 L 3729.342939 1398.3251 L 3789.274471 1368.207057 Z M 3850.208203 1398.3251 " stroke="#ffcf2d" stroke-width="6" stroke-opacity="1" stroke-miterlimit="10"/><g clip-path="url(#fecc361534)"><path stroke-linecap="round" transform="matrix(0.0389768, 0, 0, 0.0390391, -28.12727, -13.421382)" fill="none" stroke-linejoin="miter" d="M 4004.747372 1398.725339 L 4004.747372 3170.987066 L 3950.027277 3170.987066 L 3950.027277 3042.009799 C 3950.027277 3013.292595 3926.676028 2989.978628 3898.013121 2989.978628 L 3054.361549 2989.978628 C 3025.698642 2989.978628 3002.447613 3013.292595 3002.447613 3042.009799 L 3002.447613 3170.987066 L 2948.328838 3170.987066 L 2948.328838 1398.725339 Z M 4004.747372 1398.725339 " stroke="#9a3b82" stroke-width="6" stroke-opacity="1" stroke-miterlimit="10"/></g><path stroke-linecap="butt" transform="matrix(0.0389768, 0, 0, 0.0390391, -28.12727, -13.421382)" fill="none" stroke-linejoin="miter" d="M 3928.780647 2940.949255 L 3022.190944 2940.949255 C 3010.665649 2940.949255 3001.345193 2931.64368 3001.345193 2920.036727 L 3001.345193 2659.080393 C 3001.345193 2647.5735 3010.565429 2638.167865 3022.190944 2638.167865 L 3928.780647 2638.167865 C 3940.305942 2638.167865 3949.726618 2647.47344 3949.726618 2659.080393 L 3949.726618 2920.036727 C 3949.726618 2931.64368 3940.305942 2940.949255 3928.780647 2940.949255 Z M 3928.780647 2940.949255 " stroke="#3fb1b5" stroke-width="6" stroke-opacity="1" stroke-miterlimit="10"/><path fill="#9a3b82" d="M 109.199219 31.679688 L 109.199219 41.183594 L 105.878906 41.183594 Z M 109.199219 31.679688 " fill-opacity="1" fill-rule="nonzero"/><path stroke-linecap="butt" transform="matrix(0.0389768, 0, 0, 0.0390391, -28.12727, -13.421382)" fill-opacity="1" fill="#ffffff" fill-rule="nonzero" stroke-linejoin="miter" d="M 3523.290714 1155.279496 L 3522.689394 1157.080575 L 3438.604852 1398.725339 L 3047.646812 1398.725339 L 3131.731353 1157.080575 L 3134.437292 1149.375959 C 3146.964786 1131.265109 3181.94155 1118.057197 3223.532831 1117.356777 C 3224.234371 1117.356777 3224.835691 1117.356777 3225.53723 1117.356777 C 3226.23877 1117.356777 3226.84009 1117.356777 3227.541629 1117.356777 C 3276.148307 1117.356777 3319.443327 1134.266908 3327.260484 1156.480215 C 3335.07764 1134.266908 3376.468481 1117.356777 3425.075159 1117.356777 C 3472.679637 1117.356777 3514.371138 1133.666548 3523.290714 1155.279496 Z M 3523.290714 1155.279496 " stroke="#ffcf2d" stroke-width="6" stroke-opacity="1" stroke-miterlimit="10"/><path stroke-linecap="round" transform="matrix(0.0389768, 0, 0, 0.0390391, -28.12727, -13.421382)" fill="none" stroke-linejoin="miter" d="M 3327.160264 1156.480215 L 3242.273963 1393.722342 " stroke="#ffcf2d" stroke-width="6" stroke-opacity="1" stroke-miterlimit="10"/><path fill="#ffcf2d" d="M 98.238281 41.066406 L 90.660156 41.066406 C 90.9375 40.1875 92.511719 39.511719 94.40625 39.511719 C 96.308594 39.511719 97.957031 40.1875 98.238281 41.066406 Z M 98.238281 41.066406 " fill-opacity="1" fill-rule="nonzero"/><path fill="#ffcf2d" d="M 105.878906 41.066406 L 98.296875 41.066406 C 98.578125 40.1875 100.152344 39.511719 102.046875 39.511719 C 103.949219 39.511719 105.597656 40.1875 105.878906 41.066406 Z M 105.878906 41.066406 " fill-opacity="1" fill-rule="nonzero"/><path stroke-linecap="round" transform="matrix(0.0389768, 0, 0, 0.0390391, -28.12727, -13.421382)" fill="none" stroke-linejoin="miter" d="M 3410.443045 2715.514201 C 3410.443045 2707.709526 3416.656683 2701.305689 3424.574059 2701.305689 L 3530.70699 2701.305689 C 3538.524147 2701.305689 3544.938224 2707.609466 3544.938224 2715.514201 " stroke="#9a3b82" stroke-width="6" stroke-opacity="1" stroke-miterlimit="10"/><path stroke-linecap="round" transform="matrix(0.0389768, 0, 0, 0.0390391, -28.12727, -13.421382)" fill="none" stroke-linejoin="miter" d="M 2948.328838 2194.402014 L 4004.747372 2194.402014 " stroke="#9a3b82" stroke-width="6" stroke-opacity="1" stroke-miterlimit="10"/><path stroke-linecap="round" transform="matrix(0.0389768, 0, 0, 0.0390391, -28.12727, -13.421382)" fill="none" stroke-linejoin="miter" d="M 2948.328838 1796.463617 L 4004.747372 1796.463617 " stroke="#9a3b82" stroke-width="6" stroke-opacity="1" stroke-miterlimit="10"/><path stroke-linecap="round" transform="matrix(0.0389768, 0, 0, 0.0390391, -28.12727, -13.421382)" fill="none" stroke-linejoin="miter" d="M 2948.328838 2592.240351 L 4004.747372 2592.240351 " stroke="#9a3b82" stroke-width="6" stroke-opacity="1" stroke-miterlimit="10"/><path stroke-linecap="round" transform="matrix(0.0389768, 0, 0, 0.0390391, -28.12727, -13.421382)" fill="none" stroke-linejoin="round" d="M 3078.314118 1027.102708 L 2948.328838 1398.725339 L 4004.747372 1398.725339 L 4134.732653 1027.102708 " stroke="#9a3b82" stroke-width="6" stroke-opacity="1" stroke-miterlimit="10"/><path fill="#fe5244" d="M 137.652344 106.648438 C 137.652344 107.433594 137.507812 108.183594 137.242188 108.882812 C 136.859375 109.898438 135.878906 110.5625 134.792969 110.5625 L 126.539062 110.5625 C 125.457031 110.5625 124.472656 109.898438 124.09375 108.882812 C 123.828125 108.183594 123.683594 107.433594 123.683594 106.648438 C 123.683594 104.382812 124.878906 102.382812 126.707031 101.191406 L 126.707031 99.871094 C 126.707031 100.449219 128.480469 100.917969 130.664062 100.917969 C 132.851562 100.917969 134.621094 100.449219 134.621094 99.871094 L 134.621094 101.195312 C 136.457031 102.382812 137.652344 104.382812 137.652344 106.648438 Z M 137.652344 106.648438 " fill-opacity="1" fill-rule="nonzero"/><path fill="#ffffff" d="M 134.628906 100.832031 L 134.628906 101.183594 C 134 101.679688 132.292969 101.945312 130.671875 101.945312 C 129.050781 101.945312 127.34375 101.679688 126.714844 101.183594 L 126.714844 100.832031 C 126.789062 101 127.105469 101.21875 127.808594 101.402344 C 128.570312 101.601562 129.589844 101.710938 130.671875 101.710938 C 131.753906 101.710938 132.773438 101.601562 133.535156 101.402344 C 134.238281 101.214844 134.550781 100.996094 134.628906 100.832031 Z M 134.628906 100.832031 " fill-opacity="1" fill-rule="nonzero"/><path fill="#66b0f0" d="M 134.628906 99.871094 C 134.628906 100.449219 132.855469 100.917969 130.671875 100.917969 C 128.488281 100.917969 126.714844 100.449219 126.714844 99.871094 C 126.714844 99.796875 126.742188 99.726562 126.796875 99.65625 C 127.171875 99.183594 128.761719 98.824219 130.671875 98.824219 C 132.582031 98.824219 134.171875 99.179688 134.546875 99.65625 C 134.597656 99.726562 134.628906 99.796875 134.628906 99.871094 Z M 134.628906 99.871094 " fill-opacity="1" fill-rule="nonzero"/><path stroke-linecap="butt" transform="matrix(0.0389768, 0, 0, 0.0390391, -28.12727, -13.421382)" fill="none" stroke-linejoin="miter" d="M 3951.129697 3020.296791 C 3951.129697 3023.798889 3949.826838 3026.900747 3947.321339 3029.302186 C 3944.81584 3031.803684 3941.809241 3033.104463 3938.301543 3033.104463 C 3934.793844 3033.104463 3931.787246 3031.803684 3929.281747 3029.302186 C 3926.776248 3026.900747 3925.473389 3023.798889 3925.473389 3020.296791 C 3925.473389 3016.794693 3926.776248 3013.792894 3929.281747 3011.291396 C 3931.787246 3008.789897 3934.793844 3007.489118 3938.301543 3007.489118 C 3941.809241 3007.489118 3944.81584 3008.789897 3947.321339 3011.291396 C 3949.826838 3013.792894 3951.129697 3016.794693 3951.129697 3020.296791 Z M 3951.129697 3020.296791 " stroke="#ffcf2d" stroke-width="6" stroke-opacity="1" stroke-miterlimit="10"/><path stroke-linecap="butt" transform="matrix(0.0389768, 0, 0, 0.0390391, -28.12727, -13.421382)" fill="none" stroke-linejoin="miter" d="M 3994.524937 3051.815673 C 3994.524937 3055.317771 3993.222078 3058.319569 3990.716579 3060.821068 C 3988.21108 3063.322567 3985.204481 3064.623346 3981.696783 3064.623346 C 3978.189085 3064.623346 3975.182486 3063.322567 3972.676987 3060.821068 C 3970.171488 3058.319569 3968.868629 3055.317771 3968.868629 3051.815673 C 3968.868629 3048.313575 3970.171488 3045.211717 3972.676987 3042.710218 C 3975.182486 3040.20872 3978.189085 3039.008 3981.696783 3039.008 C 3985.204481 3039.008 3988.21108 3040.20872 3990.716579 3042.710218 C 3993.222078 3045.211717 3994.524937 3048.313575 3994.524937 3051.815673 Z M 3994.524937 3051.815673 " stroke="#ffcf2d" stroke-width="6" stroke-opacity="1" stroke-miterlimit="10"/><path stroke-linecap="butt" transform="matrix(0.0389768, 0, 0, 0.0390391, -28.12727, -13.421382)" fill="none" stroke-linejoin="miter" d="M 4048.543492 3014.393254 C 4048.543492 3017.895352 4047.240633 3020.99721 4044.735134 3023.498709 C 4042.229635 3025.900148 4039.223036 3027.200927 4035.715338 3027.200927 C 4032.20764 3027.200927 4029.100821 3025.900148 4026.695542 3023.498709 C 4024.190043 3020.99721 4022.887184 3017.895352 4022.887184 3014.393254 C 4022.887184 3010.891156 4024.190043 3007.889358 4026.695542 3005.387859 C 4029.100821 3002.88636 4032.20764 3001.585581 4035.715338 3001.585581 C 4039.223036 3001.585581 4042.229635 3002.88636 4044.735134 3005.387859 C 4047.240633 3007.889358 4048.543492 3010.891156 4048.543492 3014.393254 Z M 4048.543492 3014.393254 " stroke="#ffcf2d" stroke-width="6" stroke-opacity="1" stroke-miterlimit="10"/><path stroke-linecap="butt" transform="matrix(0.0389768, 0, 0, 0.0390391, -28.12727, -13.421382)" fill="none" stroke-linejoin="miter" d="M 4040.926776 3099.444206 C 4040.926776 3102.946304 4039.623916 3105.948103 4037.118417 3108.449601 C 4034.612919 3110.9511 4031.60632 3112.151819 4028.098622 3112.151819 C 4024.590923 3112.151819 4021.584325 3110.9511 4019.078826 3108.449601 C 4016.573327 3105.948103 4015.270467 3102.946304 4015.270467 3099.444206 C 4015.270467 3095.842048 4016.573327 3092.84025 4019.078826 3090.338751 C 4021.584325 3087.837253 4024.590923 3086.636533 4028.098622 3086.636533 C 4031.60632 3086.636533 4034.612919 3087.837253 4037.118417 3090.338751 C 4039.623916 3092.84025 4040.926776 3095.842048 4040.926776 3099.444206 Z M 4040.926776 3099.444206 " stroke="#ffcf2d" stroke-width="6" stroke-opacity="1" stroke-miterlimit="10"/><g clip-path="url(#8b4ccba2fe)"><path stroke-linecap="butt" transform="matrix(0.0389768, 0, 0, 0.0390391, -28.12727, -13.421382)" fill="none" stroke-linejoin="miter" d="M 3992.921418 3136.666505 C 3992.921418 3140.268663 3991.618558 3143.270462 3989.113059 3145.77196 C 3986.607561 3148.273459 3983.600962 3149.474178 3980.093264 3149.474178 C 3976.585565 3149.474178 3973.578967 3148.273459 3971.073468 3145.77196 C 3968.567969 3143.270462 3967.26511 3140.268663 3967.26511 3136.666505 C 3967.26511 3133.164407 3968.567969 3130.162609 3971.073468 3127.661111 C 3973.578967 3125.159612 3976.585565 3123.858833 3980.093264 3123.858833 C 3983.600962 3123.858833 3986.607561 3125.159612 3989.113059 3127.661111 C 3991.618558 3130.162609 3992.921418 3133.164407 3992.921418 3136.666505 Z M 3992.921418 3136.666505 " stroke="#ffcf2d" stroke-width="6" stroke-opacity="1" stroke-miterlimit="10"/></g><path stroke-linecap="butt" transform="matrix(0.0389768, 0, 0, 0.0390391, -28.12727, -13.421382)" fill="none" stroke-linejoin="miter" d="M 3944.51518 3099.444206 C 3944.51518 3102.946304 3943.212321 3105.948103 3940.706822 3108.449601 C 3938.301543 3110.9511 3935.194724 3112.151819 3931.687026 3112.151819 C 3928.179327 3112.151819 3925.172729 3110.9511 3922.66723 3108.449601 C 3920.161731 3105.948103 3918.858872 3102.946304 3918.858872 3099.444206 C 3918.858872 3095.842048 3920.161731 3092.84025 3922.66723 3090.338751 C 3925.172729 3087.837253 3928.179327 3086.636533 3931.687026 3086.636533 C 3935.194724 3086.636533 3938.301543 3087.837253 3940.706822 3090.338751 C 3943.212321 3092.84025 3944.51518 3095.842048 3944.51518 3099.444206 Z M 3944.51518 3099.444206 " stroke="#ffcf2d" stroke-width="6" stroke-opacity="1" stroke-miterlimit="10"/><path stroke-linecap="butt" transform="matrix(0.0389768, 0, 0, 0.0390391, -28.12727, -13.421382)" fill="none" stroke-linejoin="miter" d="M 4001.540334 2972.768317 C 4001.540334 2976.370475 4000.237474 2979.372274 3997.731976 2981.873772 C 3995.226477 2984.375271 3992.219878 2985.57599 3988.71218 2985.57599 C 3985.204481 2985.57599 3982.197883 2984.375271 3979.692384 2981.873772 C 3977.186885 2979.372274 3975.884026 2976.370475 3975.884026 2972.768317 C 3975.884026 2969.266219 3977.186885 2966.264421 3979.692384 2963.762922 C 3982.197883 2961.261424 3985.204481 2959.960644 3988.71218 2959.960644 C 3992.219878 2959.960644 3995.226477 2961.261424 3997.731976 2963.762922 C 4000.237474 2966.264421 4001.540334 2969.266219 4001.540334 2972.768317 Z M 4001.540334 2972.768317 " stroke="#ffcf2d" stroke-width="6" stroke-opacity="1" stroke-miterlimit="10"/><path stroke-linecap="butt" transform="matrix(0.0389768, 0, 0, 0.0390391, -28.12727, -13.421382)" fill="none" stroke-linejoin="miter" d="M 4103.363807 2982.474132 C 4103.363807 2986.07629 4102.161168 2989.078088 4099.655669 2991.579587 C 4097.15017 2994.081085 4094.143571 2995.281805 4090.635873 2995.281805 C 4087.027954 2995.281805 4084.021356 2994.081085 4081.515857 2991.579587 C 4079.010358 2989.078088 4077.807719 2986.07629 4077.807719 2982.474132 C 4077.807719 2978.972034 4079.010358 2975.970236 4081.515857 2973.468737 C 4084.021356 2970.967238 4087.027954 2969.666459 4090.635873 2969.666459 C 4094.143571 2969.666459 4097.15017 2970.967238 4099.655669 2973.468737 C 4102.161168 2975.970236 4103.363807 2978.972034 4103.363807 2982.474132 Z M 4103.363807 2982.474132 " stroke="#ffcf2d" stroke-width="6" stroke-opacity="1" stroke-miterlimit="10"/><path stroke-linecap="butt" transform="matrix(0.0389768, 0, 0, 0.0390391, -28.12727, -13.421382)" fill="none" stroke-linejoin="miter" d="M 4092.740492 3060.120648 C 4092.740492 3063.622746 4091.437632 3066.624545 4088.932134 3069.126043 C 4086.426635 3071.627542 4083.420036 3072.928321 4079.912338 3072.928321 C 4076.404639 3072.928321 4073.297821 3071.627542 4070.892542 3069.126043 C 4068.387043 3066.624545 4067.084184 3063.622746 4067.084184 3060.120648 C 4067.084184 3056.51849 4068.387043 3053.516692 4070.892542 3051.015193 C 4073.297821 3048.513695 4076.404639 3047.312976 4079.912338 3047.312976 C 4083.420036 3047.312976 4086.426635 3048.513695 4088.932134 3051.015193 C 4091.437632 3053.516692 4092.740492 3056.51849 4092.740492 3060.120648 Z M 4092.740492 3060.120648 " stroke="#ffcf2d" stroke-width="6" stroke-opacity="1" stroke-miterlimit="10"/><path stroke-linecap="butt" transform="matrix(0.0389768, 0, 0, 0.0390391, -28.12727, -13.421382)" fill="none" stroke-linejoin="miter" d="M 4129.721655 3111.05116 C 4129.721655 3114.653318 4128.418795 3117.655116 4125.913297 3120.156615 C 4123.407798 3122.658113 4120.401199 3123.858833 4116.893501 3123.858833 C 4113.385802 3123.858833 4110.379204 3122.658113 4107.873705 3120.156615 C 4105.368206 3117.655116 4104.065347 3114.653318 4104.065347 3111.05116 C 4104.065347 3107.549062 4105.368206 3104.547263 4107.873705 3102.045765 C 4110.379204 3099.544266 4113.385802 3098.343547 4116.893501 3098.343547 C 4120.401199 3098.343547 4123.407798 3099.544266 4125.913297 3102.045765 C 4128.418795 3104.547263 4129.721655 3107.549062 4129.721655 3111.05116 Z M 4129.721655 3111.05116 " stroke="#ffcf2d" stroke-width="6" stroke-opacity="1" stroke-miterlimit="10"/><g clip-path="url(#7eef19b3b2)"><path stroke-linecap="butt" transform="matrix(0.0389768, 0, 0, 0.0390391, -28.12727, -13.421382)" fill="none" stroke-linejoin="miter" d="M 4081.716297 3149.474178 C 4081.716297 3153.076336 4080.413438 3156.078135 4077.907939 3158.579633 C 4075.40244 3161.081132 4072.395841 3162.281851 4068.888143 3162.281851 C 4065.380444 3162.281851 4062.373846 3161.081132 4059.868347 3158.579633 C 4057.362848 3156.078135 4056.059989 3153.076336 4056.059989 3149.474178 C 4056.059989 3145.97208 4057.362848 3142.970282 4059.868347 3140.468783 C 4062.373846 3137.967285 4065.380444 3136.666505 4068.888143 3136.666505 C 4072.395841 3136.666505 4075.40244 3137.967285 4077.907939 3140.468783 C 4080.413438 3142.970282 4081.716297 3145.97208 4081.716297 3149.474178 Z M 4081.716297 3149.474178 " stroke="#ffcf2d" stroke-width="6" stroke-opacity="1" stroke-miterlimit="10"/></g><path stroke-linecap="butt" transform="matrix(0.0389768, 0, 0, 0.0390391, -28.12727, -13.421382)" fill="none" stroke-linejoin="miter" d="M 4143.351569 3029.502306 C 4143.351569 3033.004404 4142.148929 3036.006202 4139.64343 3038.5077 C 4137.137931 3041.009199 4134.131333 3042.309978 4130.623634 3042.309978 C 4127.115936 3042.309978 4124.009118 3041.009199 4121.503619 3038.5077 C 4119.09834 3036.006202 4117.79548 3033.004404 4117.79548 3029.502306 C 4117.79548 3026.000207 4119.09834 3022.898349 4121.503619 3020.496911 C 4124.009118 3017.995412 4127.115936 3016.694633 4130.623634 3016.694633 C 4134.131333 3016.694633 4137.137931 3017.995412 4139.64343 3020.496911 C 4142.148929 3022.898349 4143.351569 3026.000207 4143.351569 3029.502306 Z M 4143.351569 3029.502306 " stroke="#ffcf2d" stroke-width="6" stroke-opacity="1" stroke-miterlimit="10"/><path stroke-linecap="butt" transform="matrix(0.0389768, 0, 0, 0.0390391, -28.12727, -13.421382)" fill="none" stroke-linejoin="miter" d="M 4180.533172 2976.970835 C 4180.533172 2980.572993 4179.230312 2983.574791 4176.724813 2986.07629 C 4174.219314 2988.577788 4171.212716 2989.778508 4167.705017 2989.778508 C 4164.197319 2989.778508 4161.19072 2988.577788 4158.685222 2986.07629 C 4156.179723 2983.574791 4154.876863 2980.572993 4154.876863 2976.970835 C 4154.876863 2973.468737 4156.179723 2970.466939 4158.685222 2967.96544 C 4161.19072 2965.463941 4164.197319 2964.163162 4167.705017 2964.163162 C 4171.212716 2964.163162 4174.219314 2965.463941 4176.724813 2967.96544 C 4179.230312 2970.466939 4180.533172 2973.468737 4180.533172 2976.970835 Z M 4180.533172 2976.970835 " stroke="#ffcf2d" stroke-width="6" stroke-opacity="1" stroke-miterlimit="10"/><path stroke-linecap="butt" transform="matrix(0.0389768, 0, 0, 0.0390391, -28.12727, -13.421382)" fill="none" stroke-linejoin="miter" d="M 4222.725772 3019.496311 C 4222.725772 3022.998409 4221.422913 3026.100267 4218.917414 3028.501706 C 4216.411915 3031.003205 4213.405316 3032.303984 4209.897618 3032.303984 C 4206.38992 3032.303984 4203.383321 3031.003205 4200.877822 3028.501706 C 4198.372323 3026.100267 4197.069464 3022.998409 4197.069464 3019.496311 C 4197.069464 3015.994213 4198.372323 3012.992415 4200.877822 3010.490916 C 4203.383321 3007.989418 4206.38992 3006.688638 4209.897618 3006.688638 C 4213.405316 3006.688638 4216.411915 3007.989418 4218.917414 3010.490916 C 4221.422913 3012.992415 4222.725772 3015.994213 4222.725772 3019.496311 Z M 4222.725772 3019.496311 " stroke="#ffcf2d" stroke-width="6" stroke-opacity="1" stroke-miterlimit="10"/><path stroke-linecap="butt" transform="matrix(0.0389768, 0, 0, 0.0390391, -28.12727, -13.421382)" fill="none" stroke-linejoin="miter" d="M 4174.419754 3061.421428 C 4174.419754 3064.923526 4173.116895 3067.925324 4170.611396 3070.426823 C 4168.105897 3072.928321 4165.099299 3074.2291 4161.5916 3074.2291 C 4158.083902 3074.2291 4155.077303 3072.928321 4152.571804 3070.426823 C 4150.066306 3067.925324 4148.763446 3064.923526 4148.763446 3061.421428 C 4148.763446 3057.81927 4150.066306 3054.817471 4152.571804 3052.315973 C 4155.077303 3049.814474 4158.083902 3048.613755 4161.5916 3048.613755 C 4165.099299 3048.613755 4168.105897 3049.814474 4170.611396 3052.315973 C 4173.116895 3054.817471 4174.419754 3057.81927 4174.419754 3061.421428 Z M 4174.419754 3061.421428 " stroke="#ffcf2d" stroke-width="6" stroke-opacity="1" stroke-miterlimit="10"/><path stroke-linecap="butt" transform="matrix(0.0389768, 0, 0, 0.0390391, -28.12727, -13.421382)" fill="none" stroke-linejoin="miter" d="M 4232.246668 3088.237493 C 4232.246668 3091.739591 4230.943808 3094.741389 4228.43831 3097.242888 C 4225.932811 3099.744386 4222.926212 3101.045165 4219.418514 3101.045165 C 4215.910815 3101.045165 4212.803997 3099.744386 4210.398718 3097.242888 C 4207.893219 3094.741389 4206.59036 3091.739591 4206.59036 3088.237493 C 4206.59036 3084.635335 4207.893219 3081.633536 4210.398718 3079.132038 C 4212.803997 3076.630539 4215.910815 3075.42982 4219.418514 3075.42982 C 4222.926212 3075.42982 4225.932811 3076.630539 4228.43831 3079.132038 C 4230.943808 3081.633536 4232.246668 3084.635335 4232.246668 3088.237493 Z M 4232.246668 3088.237493 " stroke="#ffcf2d" stroke-width="6" stroke-opacity="1" stroke-miterlimit="10"/><g clip-path="url(#cd7c92d55e)"><path stroke-linecap="butt" transform="matrix(0.0389768, 0, 0, 0.0390391, -28.12727, -13.421382)" fill="none" stroke-linejoin="miter" d="M 4193.261106 3137.366925 C 4193.261106 3140.969083 4192.058466 3143.970881 4189.552967 3146.47238 C 4187.047469 3148.973879 4184.04087 3150.174598 4180.533172 3150.174598 C 4176.925253 3150.174598 4173.918655 3148.973879 4171.413156 3146.47238 C 4168.907657 3143.970881 4167.705017 3140.969083 4167.705017 3137.366925 C 4167.705017 3133.864827 4168.907657 3130.863029 4171.413156 3128.36153 C 4173.918655 3125.860032 4176.925253 3124.559252 4180.533172 3124.559252 C 4184.04087 3124.559252 4187.047469 3125.860032 4189.552967 3128.36153 C 4192.058466 3130.863029 4193.261106 3133.864827 4193.261106 3137.366925 Z M 4193.261106 3137.366925 " stroke="#ffcf2d" stroke-width="6" stroke-opacity="1" stroke-miterlimit="10"/></g><path stroke-linecap="butt" transform="matrix(0.0389768, 0, 0, 0.0390391, -28.12727, -13.421382)" fill-opacity="1" fill="#ffffff" fill-rule="nonzero" stroke-linejoin="miter" d="M 4298.391837 2746.232604 C 4298.391837 2746.232604 4393.400354 2694.901853 4409.134887 2784.455503 C 4427.274698 2888.017545 4303.703495 2979.072094 4303.703495 2979.072094 C 4303.703495 2979.072094 4277.145207 2913.232651 4205.7886 2856.398603 C 4144.053108 2807.26917 4195.265505 2677.091183 4298.391837 2746.232604 Z M 4298.391837 2746.232604 " stroke="#ffcf2d" stroke-width="6" stroke-opacity="1" stroke-miterlimit="10"/><path fill="#ffcf2d" d="M 132.140625 89.332031 C 133.898438 89.347656 136.425781 85.773438 134.039062 81.851562 C 131.160156 77.109375 130.664062 74.367188 130.664062 74.367188 C 130.664062 74.367188 126.425781 79.980469 127.148438 84.285156 C 127.941406 89 132.140625 89.332031 132.140625 89.332031 Z M 132.140625 89.332031 " fill-opacity="1" fill-rule="nonzero"/><path stroke-linecap="butt" transform="matrix(0.0389768, 0, 0, 0.0390391, -28.12727, -13.421382)" fill-opacity="1" fill="#ffffff" fill-rule="nonzero" stroke-linejoin="miter" d="M 4119.699659 2571.127702 C 4185.644389 2588.538133 4248.18164 2548.414095 4249.4845 2456.959306 C 4251.789559 2295.362497 4282.356645 2242.831026 4282.356645 2242.831026 C 4282.356645 2242.831026 4077.106179 2316.675265 4046.037993 2431.544081 C 4016.372887 2540.909599 4119.699659 2571.127702 4119.699659 2571.127702 Z M 4119.699659 2571.127702 " stroke="#ffcf2d" stroke-width="6" stroke-opacity="1" stroke-miterlimit="10"/><path fill="#ffcf2d" d="M 121.710938 91.105469 C 121.617188 91.113281 121.519531 91.121094 121.414062 91.128906 C 115.886719 91.542969 114.296875 96.609375 114.296875 96.609375 C 114.296875 96.609375 113.957031 96.242188 114.027344 94.972656 C 114.160156 91.703125 117.167969 88.324219 120.597656 90.46875 C 120.976562 90.710938 121.351562 90.917969 121.710938 91.105469 Z M 121.710938 91.105469 " fill-opacity="1" fill-rule="nonzero"/><path stroke-linecap="butt" transform="matrix(0.0389768, 0, 0, 0.0390391, -28.12727, -13.421382)" fill-opacity="1" fill="#ffffff" fill-rule="nonzero" stroke-linejoin="miter" d="M 4005.148252 2709.410545 C 3980.093264 2711.011504 3922.96789 2717.91564 3844.295226 2677.491423 C 3835.07499 2672.788605 3825.453875 2667.385368 3815.732539 2661.181652 C 3727.73942 2606.248743 3652.574454 2692.800594 3649.166976 2776.550767 C 3648.966536 2780.653225 3649.968735 2784.755683 3650.169175 2788.75808 C 3641.850919 2716.014501 3642.051359 2534.805943 3862.435038 2540.909599 C 4013.767168 2545.312237 4005.148252 2709.410545 4005.148252 2709.410545 Z M 4005.148252 2709.410545 " stroke="#ffcf2d" stroke-width="6" stroke-opacity="1" stroke-miterlimit="10"/><path stroke-linecap="butt" transform="matrix(0.0389768, 0, 0, 0.0390391, -28.12727, -13.421382)" fill="none" stroke-linejoin="miter" d="M 4041.127216 2896.72276 C 4041.127216 2896.72276 4067.184404 2533.004864 3714.510386 2580.533337 " stroke="#ffcf2d" stroke-width="6" stroke-opacity="1" stroke-miterlimit="10"/><path stroke-linecap="butt" transform="matrix(0.0389768, 0, 0, 0.0390391, -28.12727, -13.421382)" fill="none" stroke-linejoin="miter" d="M 4282.356645 2242.831026 C 4060.169007 2469.766979 4101.559848 2896.72276 4101.559848 2896.72276 C 4078.208599 2733.424931 4221.823793 2571.127702 4298.291617 2741.930027 C 4321.141767 2792.660418 4303.603275 2978.972034 4303.603275 2978.972034 " stroke="#ffcf2d" stroke-width="6" stroke-opacity="1" stroke-miterlimit="10"/><path fill="#ffcf2d" d="M 10.460938 88.5 L 9.296875 89.519531 C 9.109375 89.296875 8.945312 89.050781 8.800781 88.78125 L 1.558594 75.269531 C 1.253906 74.703125 1.664062 74.019531 2.300781 74.019531 L 3.316406 74.019531 C 4.125 74.019531 4.867188 74.464844 5.25 75.179688 L 10.941406 85.804688 C 11.433594 86.710938 11.230469 87.832031 10.460938 88.5 Z M 10.460938 88.5 " fill-opacity="1" fill-rule="nonzero"/><path fill="#ffcf2d" d="M 30.175781 88.796875 L 13.324219 92.265625 L 13.324219 91.914062 C 13.324219 90.230469 14.503906 88.78125 16.148438 88.441406 L 27.003906 86.210938 C 28.640625 85.875 30.175781 87.128906 30.175781 88.796875 Z M 30.175781 88.796875 " fill-opacity="1" fill-rule="nonzero"/><g clip-path="url(#08f1012ab6)"><path stroke-linecap="round" transform="matrix(0.0389768, 0, 0, 0.0390391, -28.12727, -13.421382)" fill="none" stroke-linejoin="miter" d="M 1446.833488 3170.987066 L 1446.833488 2737.927629 C 1446.833488 2702.006109 1413.861123 2675.190044 1378.683919 2682.39436 L 1107.188064 2738.127749 C 1074.917238 2744.731705 1048.258731 2767.345252 1036.532996 2798.063655 L 893.218462 3170.987066 " stroke="#9a3b82" stroke-width="6" stroke-opacity="1" stroke-miterlimit="10"/></g><g clip-path="url(#bc0431de6d)"><path stroke-linecap="round" transform="matrix(0.0389768, 0, 0, 0.0390391, -28.12727, -13.421382)" fill="none" stroke-linejoin="miter" d="M 760.527243 2269.947271 L 971.590466 2663.182851 C 989.730278 2696.903052 1027.71364 2714.713722 1065.195903 2707.009106 L 1496.843245 2618.355996 " stroke="#9a3b82" stroke-width="6" stroke-opacity="1" stroke-miterlimit="10"/></g><path fill="#66b0f0" d="M 21.910156 76.257812 L 36.148438 76.257812 L 36.148438 78.164062 L 21.910156 78.164062 Z M 21.910156 76.257812 " fill-opacity="1" fill-rule="nonzero"/><path fill="#fe5244" d="M 33.554688 74.191406 C 33.726562 74.351562 33.832031 74.640625 33.832031 74.882812 C 33.832031 75.363281 33.410156 75.859375 32.886719 75.859375 L 19.898438 75.859375 C 19.898438 76.085938 20.082031 76.269531 20.308594 76.269531 L 35.980469 76.269531 C 36.402344 76.269531 36.78125 76.113281 37.058594 75.855469 C 37.335938 75.601562 37.5 75.25 37.5 74.859375 C 37.5 74.078125 36.820312 73.449219 35.980469 73.449219 L 20.308594 73.449219 C 20.082031 73.449219 19.898438 73.632812 19.898438 73.859375 L 19.898438 73.933594 L 32.886719 73.933594 C 33.148438 73.9375 33.382812 74.035156 33.554688 74.191406 Z M 33.554688 74.191406 " fill-opacity="1" fill-rule="nonzero"/><path fill="#fe5244" d="M 20.839844 73.9375 L 20.839844 75.824219 L 19.902344 75.824219 L 19.902344 75.980469 L 32.933594 75.980469 C 33.078125 75.980469 33.21875 75.953125 33.34375 75.902344 C 33.484375 75.847656 33.609375 75.761719 33.710938 75.660156 C 33.90625 75.460938 34.03125 75.1875 34.03125 74.882812 C 34.03125 74.273438 33.539062 73.78125 32.933594 73.78125 L 19.902344 73.78125 L 19.902344 73.9375 Z M 20.839844 73.9375 " fill-opacity="1" fill-rule="nonzero"/><path fill="#ffffff" d="M 20.476562 73.9375 L 20.476562 75.824219 L 32.886719 75.824219 C 33.410156 75.824219 33.832031 75.402344 33.832031 74.882812 C 33.832031 74.621094 33.726562 74.386719 33.554688 74.214844 C 33.382812 74.042969 33.148438 73.9375 32.886719 73.9375 Z M 20.476562 73.9375 " fill-opacity="1" fill-rule="nonzero"/><path stroke-linecap="butt" transform="matrix(0.0389768, 0, 0, 0.0390391, -28.12727, -13.421382)" fill="none" stroke-linejoin="miter" d="M 1246.994899 2237.727969 L 1246.994899 2286.056922 " stroke="#fe5244" stroke-width="5" stroke-opacity="1" stroke-miterlimit="10"/><path fill="#ffcf2d" d="M 31.152344 75.277344 L 31.152344 76.851562 L 32.238281 76.851562 L 32.238281 75.476562 C 32.238281 75.152344 32.503906 74.886719 32.832031 74.886719 L 33.316406 74.886719 L 33.316406 74.683594 L 31.742188 74.683594 C 31.421875 74.683594 31.152344 74.949219 31.152344 75.277344 Z M 31.152344 75.277344 " fill-opacity="1" fill-rule="nonzero"/><path stroke-linecap="round" transform="matrix(0.0389768, 0, 0, 0.0390391, -28.12727, -13.421382)" fill="none" stroke-linejoin="miter" d="M 1078.725597 2387.817885 C 1078.725597 2366.505117 1095.963429 2349.194747 1117.310279 2349.194747 L 1876.27599 2349.194747 C 1897.62284 2349.194747 1914.860673 2366.505117 1914.860673 2387.817885 " stroke="#9a3b82" stroke-width="6" stroke-opacity="1" stroke-miterlimit="10"/><g clip-path="url(#436e1eaf76)"><path stroke-linecap="round" transform="matrix(0.0389768, 0, 0, 0.0390391, -28.12727, -13.421382)" fill="none" stroke-linejoin="miter" d="M 1915.461992 3170.987066 L 1701.191731 2424.639944 C 1691.670835 2391.620163 1658.99913 2368.606376 1621.617087 2368.606376 L 1371.868962 2368.606376 C 1334.486919 2368.606376 1301.815214 2391.620163 1292.294319 2424.639944 L 1078.124277 3170.987066 " stroke="#9a3b82" stroke-width="6" stroke-opacity="1" stroke-miterlimit="10"/></g><path fill="#ffffff" d="M 53.542969 105.328125 L 53.542969 109.574219 C 53.542969 110.015625 53.898438 110.371094 54.339844 110.371094 L 64.941406 110.371094 C 64.941406 110.371094 65.003906 108.398438 63.390625 107.851562 C 60.648438 106.917969 59.371094 105.328125 59.371094 105.328125 Z M 53.542969 105.328125 " fill-opacity="1" fill-rule="nonzero"/><g clip-path="url(#374453a164)"><path stroke-linecap="butt" transform="matrix(0.0389768, 0, 0, 0.0390391, -28.12727, -13.421382)" fill="none" stroke-linejoin="miter" d="M 2095.35681 3041.809679 L 2095.35681 3150.574838 C 2095.35681 3161.881611 2104.476825 3170.987066 2115.80168 3170.987066 L 2387.798635 3170.987066 C 2387.798635 3170.987066 2389.402154 3120.456795 2348.011314 3106.448402 C 2277.656906 3082.534076 2244.884981 3041.809679 2244.884981 3041.809679 Z M 2095.35681 3041.809679 " stroke="#fe5244" stroke-width="6" stroke-opacity="1" stroke-miterlimit="10"/></g><path stroke-linecap="butt" transform="matrix(0.0389768, 0, 0, 0.0390391, -28.12727, -13.421382)" fill="none" stroke-linejoin="miter" d="M 2246.68894 3097.543067 C 2257.813355 3094.441209 2297.801117 3072.327962 2284.070983 3058.619749 C 2277.556686 3052.115853 2262.022593 3058.619749 2262.022593 3058.619749 " stroke="#fe5244" stroke-width="6" stroke-opacity="1" stroke-miterlimit="10"/><path stroke-linecap="butt" transform="matrix(0.0389768, 0, 0, 0.0390391, -28.12727, -13.421382)" fill="none" stroke-linejoin="miter" d="M 2287.678901 3112.451999 C 2298.803316 3109.350141 2337.187558 3084.735395 2322.054345 3072.628141 C 2310.729491 3063.422627 2293.591879 3081.233297 2293.591879 3081.233297 " stroke="#fe5244" stroke-width="6" stroke-opacity="1" stroke-miterlimit="10"/><path fill="#fe5244" d="M 59.699219 105.671875 L 53.542969 107.589844 L 53.542969 105.328125 L 59.375 105.328125 C 59.375 105.328125 59.480469 105.460938 59.699219 105.671875 Z M 59.699219 105.671875 " fill-opacity="1" fill-rule="nonzero"/><path fill="#ffffff" d="M 66.835938 105.328125 L 66.835938 109.574219 C 66.835938 110.015625 67.191406 110.371094 67.628906 110.371094 L 78.234375 110.371094 C 78.234375 110.371094 78.292969 108.398438 76.679688 107.851562 C 73.941406 106.917969 72.664062 105.328125 72.664062 105.328125 Z M 66.835938 105.328125 " fill-opacity="1" fill-rule="nonzero"/><g clip-path="url(#457c1974d9)"><path stroke-linecap="butt" transform="matrix(0.0389768, 0, 0, 0.0390391, -28.12727, -13.421382)" fill="none" stroke-linejoin="miter" d="M 2436.405313 3041.809679 L 2436.405313 3150.574838 C 2436.405313 3161.881611 2445.525329 3170.987066 2456.749964 3170.987066 L 2728.847139 3170.987066 C 2728.847139 3170.987066 2730.350438 3120.456795 2688.959597 3106.448402 C 2618.705409 3082.534076 2585.933484 3041.809679 2585.933484 3041.809679 Z M 2436.405313 3041.809679 " stroke="#fe5244" stroke-width="6" stroke-opacity="1" stroke-miterlimit="10"/></g><path stroke-linecap="butt" transform="matrix(0.0389768, 0, 0, 0.0390391, -28.12727, -13.421382)" fill="none" stroke-linejoin="miter" d="M 2587.737443 3097.543067 C 2598.761638 3094.441209 2638.84962 3072.327962 2625.119486 3058.619749 C 2618.605189 3052.115853 2602.970876 3058.619749 2602.970876 3058.619749 " stroke="#fe5244" stroke-width="6" stroke-opacity="1" stroke-miterlimit="10"/><path stroke-linecap="butt" transform="matrix(0.0389768, 0, 0, 0.0390391, -28.12727, -13.421382)" fill="none" stroke-linejoin="miter" d="M 2628.727405 3112.451999 C 2639.751599 3109.350141 2678.236062 3084.735395 2663.102849 3072.628141 C 2651.677774 3063.422627 2634.640382 3081.233297 2634.640382 3081.233297 " stroke="#fe5244" stroke-width="6" stroke-opacity="1" stroke-miterlimit="10"/><path fill="#fe5244" d="M 72.988281 105.671875 L 66.835938 107.589844 L 66.835938 105.328125 L 72.667969 105.328125 C 72.667969 105.328125 72.773438 105.460938 72.988281 105.671875 Z M 72.988281 105.671875 " fill-opacity="1" fill-rule="nonzero"/><path fill="#3fb1b5" d="M 56.410156 63.046875 L 52.570312 103.304688 L 60.597656 103.304688 L 64.632812 83.796875 L 66.28125 87.957031 L 66.28125 103.304688 L 74.644531 103.304688 L 74.644531 86.09375 L 70.183594 63.046875 Z M 56.410156 63.046875 " fill-opacity="1" fill-rule="nonzero"/><path stroke-linecap="butt" transform="matrix(0.0389768, 0, 0, 0.0390391, -28.12727, -13.421382)" fill="none" stroke-linejoin="miter" d="M 2276.153607 2206.509267 L 2180.44355 2989.978628 " stroke="#9a3b82" stroke-width="6" stroke-opacity="1" stroke-miterlimit="10"/><path stroke-linecap="butt" transform="matrix(0.0389768, 0, 0, 0.0390391, -28.12727, -13.421382)" fill="none" stroke-linejoin="miter" d="M 2525.701292 2989.978628 L 2525.701292 2549.114515 L 2391.306334 2008.790818 " stroke="#9a3b82" stroke-width="6" stroke-opacity="1" stroke-miterlimit="10"/><path stroke-linecap="butt" transform="matrix(0.0389768, 0, 0, 0.0390391, -28.12727, -13.421382)" fill="none" stroke-linejoin="miter" d="M 2419.167481 2596.843108 L 2290.78572 2223.919697 C 2286.376042 2211.112024 2274.349647 2202.506869 2260.719734 2202.506869 " stroke="#ffffff" stroke-width="6" stroke-opacity="1" stroke-miterlimit="10"/><path fill="#9a3b82" d="M 55.773438 69.703125 L 56.410156 63.046875 L 70.183594 63.046875 L 70.578125 65.09375 Z M 55.773438 69.703125 " fill-opacity="1" fill-rule="nonzero"/><path fill="#9a3b82" d="M 74.660156 105.328125 L 66.25 105.328125 C 65.933594 105.328125 65.679688 105.070312 65.679688 104.753906 L 65.679688 103.878906 C 65.679688 103.5625 65.933594 103.304688 66.25 103.304688 L 74.660156 103.304688 C 74.972656 103.304688 75.230469 103.5625 75.230469 103.878906 L 75.230469 104.753906 C 75.226562 105.070312 74.972656 105.328125 74.660156 105.328125 Z M 74.660156 105.328125 " fill-opacity="1" fill-rule="nonzero"/><path fill="#9a3b82" d="M 60.742188 105.328125 L 52.335938 105.328125 C 52.019531 105.328125 51.761719 105.070312 51.761719 104.753906 L 51.761719 103.878906 C 51.761719 103.5625 52.019531 103.304688 52.335938 103.304688 L 60.742188 103.304688 C 61.058594 103.304688 61.316406 103.5625 61.316406 103.878906 L 61.316406 104.753906 C 61.3125 105.070312 61.058594 105.328125 60.742188 105.328125 Z M 60.742188 105.328125 " fill-opacity="1" fill-rule="nonzero"/><path fill="#66b0f0" d="M 83.183594 64.226562 L 85.816406 74.101562 L 72.683594 77.617188 L 70.042969 67.738281 C 69.960938 67.429688 69.761719 67.1875 69.507812 67.039062 C 69.257812 66.890625 68.945312 66.839844 68.636719 66.921875 C 68.023438 67.085938 67.65625 67.71875 67.820312 68.332031 L 70.460938 78.210938 L 70.171875 78.289062 L 67.539062 68.417969 C 67.328125 67.632812 67.777344 66.828125 68.550781 66.59375 C 68.566406 66.589844 68.582031 66.585938 68.597656 66.582031 L 81.351562 63.164062 C 82.148438 62.953125 82.96875 63.429688 83.183594 64.226562 Z M 83.183594 64.226562 " fill-opacity="1" fill-rule="nonzero"/><path fill="#9a3b82" d="M 70.335938 67.671875 L 72.96875 77.542969 L 72.683594 77.621094 L 70.042969 67.742188 C 69.960938 67.433594 69.761719 67.191406 69.507812 67.042969 C 69.257812 66.894531 68.945312 66.84375 68.636719 66.925781 C 68.023438 67.089844 67.65625 67.722656 67.820312 68.335938 L 70.460938 78.214844 L 70.171875 78.292969 L 67.539062 68.421875 C 67.328125 67.636719 67.777344 66.832031 68.550781 66.597656 C 69.335938 66.414062 70.125 66.886719 70.335938 67.671875 Z M 70.335938 67.671875 " fill-opacity="1" fill-rule="nonzero"/><path fill="#ffffff" d="M 70.042969 67.738281 L 72.519531 77.011719 L 70.296875 77.605469 L 67.820312 68.332031 C 67.65625 67.71875 68.019531 67.085938 68.636719 66.921875 C 68.945312 66.839844 69.257812 66.890625 69.507812 67.039062 C 69.761719 67.1875 69.960938 67.429688 70.042969 67.738281 Z M 70.042969 67.738281 " fill-opacity="1" fill-rule="nonzero"/><path stroke-linecap="butt" transform="matrix(0.0389768, 0, 0, 0.0390391, -28.12727, -13.421382)" fill-opacity="1" fill="#ffcf2d" fill-rule="nonzero" stroke-linejoin="miter" d="M 2856.82802 2122.959214 L 2703.49149 2175.790864 L 2582.526006 1958.760846 L 2113.496621 1958.760846 C 2033.821758 1958.760846 1974.190885 1885.516967 1990.526738 1807.47021 L 2039.333855 1573.129822 C 2054.567288 1499.685823 2119.309379 1447.054292 2194.173684 1447.054292 L 2514.877537 1447.054292 C 2592.648221 1447.054292 2658.793391 1503.488101 2671.120445 1580.234078 L 2719.426463 1808.37075 Z M 2856.82802 2122.959214 " stroke="#ffffff" stroke-width="6" stroke-opacity="1" stroke-miterlimit="10"/><path fill="#ffffff" d="M 53.277344 62.949219 C 51.125 62.515625 49.527344 60.683594 49.363281 58.519531 C 49.527344 58.40625 49.710938 58.308594 49.902344 58.238281 C 51.320312 57.714844 52.9375 58.574219 53.523438 60.15625 C 53.886719 61.148438 53.761719 62.1875 53.277344 62.949219 Z M 53.277344 62.949219 " fill-opacity="1" fill-rule="nonzero"/><path fill="#e57281" d="M 66.886719 37.582031 L 66.886719 43.074219 L 60.832031 43.074219 L 62.230469 39.421875 Z M 66.886719 37.582031 " fill-opacity="1" fill-rule="nonzero"/><path fill="#9a3b82" d="M 68.277344 35.273438 C 68.273438 35.273438 68.265625 35.277344 68.261719 35.277344 L 66.464844 35.753906 C 65.824219 35.925781 65.328125 36.398438 65.117188 37 L 64.425781 37 C 63.992188 37 63.636719 37.355469 63.636719 37.792969 L 63.636719 37.804688 C 63.636719 38.21875 63.953125 38.558594 64.355469 38.59375 C 64.351562 38.597656 64.351562 38.597656 64.351562 38.597656 C 64.351562 38.597656 64.035156 40.121094 62.167969 39.609375 C 62.167969 39.609375 62.242188 35.605469 62.316406 34.359375 C 62.382812 33.332031 67.820312 31.386719 68.324219 32.214844 C 68.769531 32.949219 68.253906 33.292969 67.816406 33.445312 C 68.589844 33.28125 70.046875 33.0625 70.195312 33.714844 C 70.367188 34.472656 68.828125 35.128906 68.277344 35.273438 Z M 68.277344 35.273438 " fill-opacity="1" fill-rule="nonzero"/><path fill="#e57281" d="M 68.628906 38.078125 L 68.4375 38.078125 L 68.492188 39.015625 C 68.53125 39.6875 67.992188 40.257812 67.324219 40.257812 L 66.480469 40.257812 C 65.671875 40.257812 65.011719 39.597656 65.011719 38.785156 L 65.011719 38.601562 L 64.429688 38.601562 C 63.996094 38.601562 63.640625 38.246094 63.640625 37.808594 L 63.640625 37.796875 C 63.640625 37.359375 63.996094 37.003906 64.429688 37.003906 L 65.121094 37.003906 C 65.332031 36.402344 65.828125 35.925781 66.46875 35.757812 L 68.265625 35.28125 L 68.882812 37.75 C 68.945312 37.90625 68.796875 38.078125 68.628906 38.078125 Z M 68.628906 38.078125 " fill-opacity="1" fill-rule="nonzero"/><path stroke-linecap="round" transform="matrix(0.0389768, 0, 0, 0.0390391, -28.12727, -13.421382)" fill="none" stroke-linejoin="miter" d="M 2394.312932 1339.189673 C 2392.208313 1361.20286 2414.156483 1376.912272 2435.002234 1376.912272 " stroke="#9a3b82" stroke-width="5" stroke-opacity="1" stroke-miterlimit="10"/><path stroke-linecap="round" transform="matrix(0.0389768, 0, 0, 0.0390391, -28.12727, -13.421382)" fill="none" stroke-linejoin="miter" d="M 2386.195116 1315.675586 C 2386.195116 1307.87091 2379.881259 1301.567134 2372.064102 1301.567134 " stroke="#9a3b82" stroke-width="5" stroke-opacity="1" stroke-miterlimit="10"/><path fill="#9a3b82" d="M 68.109375 37.082031 C 68.109375 37.285156 68.0625 37.382812 67.964844 37.382812 C 67.871094 37.382812 67.820312 37.285156 67.820312 37.082031 C 67.820312 36.882812 67.871094 36.78125 67.964844 36.78125 C 68.0625 36.78125 68.109375 36.882812 68.109375 37.082031 Z M 68.109375 37.082031 " fill-opacity="1" fill-rule="nonzero"/><path stroke-linecap="round" transform="matrix(0.0389768, 0, 0, 0.0390391, -28.12727, -13.421382)" fill="none" stroke-linejoin="miter" d="M 2449.433907 1277.452687 C 2449.433907 1277.452687 2461.660741 1268.147113 2479.299453 1268.147113 " stroke="#9a3b82" stroke-width="5" stroke-opacity="1" stroke-miterlimit="10"/><path stroke-linecap="butt" transform="matrix(0.0389768, 0, 0, 0.0390391, -28.12727, -13.421382)" fill-opacity="1" fill="#ffffff" fill-rule="nonzero" stroke-linejoin="miter" d="M 2401.829429 2022.89927 C 2401.829429 2022.89927 2524.298213 2028.202447 2567.392793 1929.943582 L 2544.642863 1888.218585 L 2476.493294 1914.43429 Z M 2401.829429 2022.89927 " stroke="#fe5244" stroke-width="6" stroke-opacity="1" stroke-miterlimit="10"/><path stroke-linecap="butt" transform="matrix(0.0389768, 0, 0, 0.0390391, -28.12727, -13.421382)" fill-opacity="1" fill="#fe5244" fill-rule="nonzero" stroke-linejoin="miter" d="M 2499.944764 1421.438947 C 2494.031786 1421.939246 2488.619909 1424.540805 2484.611111 1428.543203 C 2480.201433 1432.94584 2477.395274 1439.049497 2477.395274 1445.753513 L 2477.395274 1938.548737 C 2477.395274 1985.476851 2439.311692 2023.599689 2392.308533 2023.599689 L 2203.39392 2023.599689 C 2152.582403 2023.599689 2113.396401 1979.473254 2118.808279 1929.443282 L 2118.808279 1929.343222 L 2186.757408 1461.562984 C 2190.164886 1438.549197 2209.908217 1421.438947 2233.259466 1421.438947 Z M 2499.944764 1421.438947 " stroke="#fe5244" stroke-width="6" stroke-opacity="1" stroke-miterlimit="10"/><path stroke-linecap="butt" transform="matrix(0.0389768, 0, 0, 0.0390391, -28.12727, -13.421382)" fill-opacity="1" fill="#ffffff" fill-rule="nonzero" stroke-linejoin="miter" d="M 2480.902972 1421.438947 C 2474.989995 1421.939246 2469.578118 1424.540805 2465.569319 1428.543203 C 2461.861181 1432.245421 2459.355682 1437.048298 2458.654143 1442.351475 C 2458.553923 1443.452134 2458.453703 1444.552794 2458.453703 1445.653453 L 2454.545125 1483.376052 L 2406.539767 1938.448677 C 2406.539767 1985.376791 2368.355964 2023.499629 2321.352806 2023.499629 L 2203.49414 2023.499629 C 2152.682623 2023.499629 2113.496621 1979.373194 2118.908499 1929.343222 L 2118.908499 1929.243162 L 2149.575805 1717.816501 L 2186.857628 1461.462924 C 2187.158287 1459.261605 2187.659387 1457.060287 2188.260707 1454.858968 C 2194.073464 1435.247219 2212.313496 1421.338887 2233.259466 1421.338887 L 2480.902972 1421.338887 Z M 2480.902972 1421.438947 " stroke="#fe5244" stroke-width="6" stroke-opacity="1" stroke-miterlimit="10"/><path fill="#ffcf2d" d="M 66.929688 45.898438 L 66.230469 51.140625 C 66 52.214844 65.167969 52.789062 63.960938 52.984375 L 55.695312 54.1875 L 56.902344 45.894531 L 66.929688 45.894531 Z M 66.929688 45.898438 " fill-opacity="1" fill-rule="nonzero"/><path stroke-linecap="butt" transform="matrix(0.0389768, 0, 0, 0.0390391, -28.12727, -13.421382)" fill-opacity="1" fill="#fe5244" fill-rule="nonzero" stroke-linejoin="miter" d="M 2473.286256 1421.438947 L 2467.974598 1421.438947 C 2458.353483 1421.338887 2450.035227 1428.142963 2448.131047 1437.648658 L 2416.862422 1638.869205 C 2411.049665 1666.385689 2386.696216 1686.097498 2358.634629 1686.097498 L 2163.506378 1686.097498 C 2139.854469 1686.097498 2122.315977 1664.284431 2127.427195 1641.170584 L 2165.009678 1470.368259 C 2171.323535 1441.751115 2196.679183 1421.438947 2226.04363 1421.438947 Z M 2473.286256 1421.438947 " stroke="#fe5244" stroke-width="6" stroke-opacity="1" stroke-miterlimit="10"/><path stroke-linecap="butt" transform="matrix(0.0389768, 0, 0, 0.0390391, -28.12727, -13.421382)" fill-opacity="1" fill="#ffffff" fill-rule="nonzero" stroke-linejoin="miter" d="M 2312.53345 1742.131067 L 2362.242547 1438.249017 C 2363.244747 1432.145361 2368.456184 1427.542603 2374.669821 1427.542603 C 2382.486978 1427.542603 2388.500175 1434.546799 2387.197315 1442.251415 L 2337.488218 1746.233525 C 2336.486019 1752.337181 2331.174361 1756.939939 2324.960724 1756.939939 C 2317.243788 1756.939939 2311.23059 1749.935743 2312.53345 1742.131067 Z M 2312.53345 1742.131067 " stroke="#fe5244" stroke-width="6" stroke-opacity="1" stroke-miterlimit="10"/><path stroke-linecap="butt" transform="matrix(0.0389768, 0, 0, 0.0390391, -28.12727, -13.421382)" fill-opacity="1" fill="#ffffff" fill-rule="nonzero" stroke-linejoin="miter" d="M 2201.389521 1742.131067 L 2251.098618 1438.249017 C 2252.100818 1432.145361 2257.412475 1427.542603 2263.626112 1427.542603 C 2271.443269 1427.542603 2277.356246 1434.546799 2276.053387 1442.251415 L 2226.444509 1746.233525 C 2225.44231 1752.337181 2220.130652 1756.939939 2213.917015 1756.939939 C 2206.099859 1756.939939 2200.086661 1749.935743 2201.389521 1742.131067 Z M 2201.389521 1742.131067 " stroke="#fe5244" stroke-width="6" stroke-opacity="1" stroke-miterlimit="10"/><path stroke-linecap="butt" transform="matrix(0.0389768, 0, 0, 0.0390391, -28.12727, -13.421382)" fill-opacity="1" fill="#ffffff" fill-rule="nonzero" stroke-linejoin="miter" d="M 2526.402832 1447.254412 L 2477.495494 1447.454532 L 2477.495494 1445.753513 C 2477.495494 1439.049497 2480.201433 1432.94584 2484.711331 1428.543203 C 2488.720129 1424.540805 2494.031786 1421.939246 2500.044984 1421.438947 L 2503.953562 1421.438947 C 2516.280616 1422.439546 2526.001952 1432.84578 2526.402832 1447.254412 Z M 2526.402832 1447.254412 " stroke="#fe5244" stroke-width="6" stroke-opacity="1" stroke-miterlimit="10"/><path fill="#e57281" d="M 82.507812 69.703125 L 84.113281 73.855469 C 84.371094 74.523438 83.996094 75.265625 83.3125 75.453125 L 79.785156 76.421875 C 79.570312 76.480469 79.34375 76.429688 79.175781 76.285156 L 78.816406 75.972656 L 79.550781 75.777344 C 79.875 75.691406 80.089844 75.390625 80.074219 75.058594 L 79.996094 74.230469 C 79.980469 73.859375 79.679688 73.5625 79.308594 73.550781 L 79.347656 73.550781 C 78.898438 73.535156 78.460938 73.257812 78.285156 72.84375 L 77.726562 71.347656 Z M 82.507812 69.703125 " fill-opacity="1" fill-rule="nonzero"/><path stroke-linecap="round" transform="matrix(0.0389768, 0, 0, 0.0390391, -28.12727, -13.421382)" fill="none" stroke-linejoin="miter" d="M 2745.684091 2291.960459 L 2760.516644 2287.958061 C 2768.8349 2285.756742 2774.447218 2279.052726 2774.046338 2270.547631 L 2772.943918 2247.333724 C 2772.543038 2237.828029 2764.826102 2230.223473 2755.305206 2229.923294 C 2743.779912 2229.523054 2733.557476 2222.418798 2729.147798 2211.812444 L 2713.713925 2175.490684 " stroke="#ffffff" stroke-width="6" stroke-opacity="1" stroke-miterlimit="10"/><path stroke-linecap="round" transform="matrix(0.0389768, 0, 0, 0.0390391, -28.12727, -13.421382)" fill="none" stroke-linejoin="miter" d="M 2794.090329 2291.760339 C 2804.713644 2288.958661 2811.92948 2279.152786 2811.428381 2268.246252 L 2810.025301 2238.628509 " stroke="#ffffff" stroke-width="6" stroke-opacity="1" stroke-miterlimit="10"/><path stroke-linecap="round" transform="matrix(0.0389768, 0, 0, 0.0390391, -28.12727, -13.421382)" fill="none" stroke-linejoin="miter" d="M 2832.374351 2281.854404 C 2842.997666 2279.052726 2850.213503 2269.346912 2849.712403 2258.340318 L 2848.309324 2228.722574 " stroke="#ffffff" stroke-width="6" stroke-opacity="1" stroke-miterlimit="10"/><path stroke-linecap="butt" transform="matrix(0.0389768, 0, 0, 0.0390391, -28.12727, -13.421382)" fill="none" stroke-linejoin="miter" d="M 2489.822548 1686.097498 L 2513.975557 1812.673327 C 2518.084575 1834.286275 2525.701292 1855.198804 2536.424827 1874.410313 L 2703.39127 2175.790864 L 2856.7278 2122.959214 " stroke="#ffffff" stroke-width="6" stroke-opacity="1" stroke-miterlimit="10"/><path fill="#ffffff" d="M 72.867188 63.609375 L 70.734375 59.753906 C 70.375 59.101562 70.105469 58.40625 69.933594 57.683594 C 70.136719 57.617188 70.347656 57.570312 70.570312 57.550781 C 72.253906 57.402344 73.746094 58.820312 73.90625 60.714844 C 74 61.863281 73.582031 62.917969 72.867188 63.609375 Z M 72.867188 63.609375 " fill-opacity="1" fill-rule="nonzero"/></svg>