<svg xmlns="http://www.w3.org/2000/svg" xmlns:xlink="http://www.w3.org/1999/xlink" width="500" zoomAndPan="magnify" viewBox="0 0 375 374.999991" height="500" preserveAspectRatio="xMidYMid meet" version="1.0"><path fill="#d9d9d9" d="M 157.570312 16.460938 C 150.160156 18.761719 117.289062 29.472656 84.464844 57.890625 C 76.515625 64.769531 44.371094 92.597656 30.640625 130.003906 C 7.265625 193.679688 35.234375 290.550781 115.796875 329.480469 C 209.632812 374.824219 328.164062 319.011719 355.195312 244.316406 C 367.1875 211.191406 367.730469 156.253906 337.523438 120.03125 C 313.214844 90.875 271.644531 77.023438 273.253906 49.449219 C 274.03125 36.167969 284.074219 32.496094 281.289062 24.132812 C 274.679688 4.292969 209.929688 0.175781 157.570312 16.460938 " fill-opacity="1" fill-rule="nonzero"/><path fill="#ffffff" d="M 85.90625 234.605469 C 125.621094 274.324219 190.019531 274.324219 229.734375 234.605469 C 269.453125 194.890625 269.453125 130.492188 229.734375 90.777344 C 190.019531 51.058594 125.621094 51.058594 85.90625 90.777344 C 46.1875 130.492188 46.1875 194.890625 85.90625 234.605469 " fill-opacity="1" fill-rule="nonzero"/><path fill="#000000" d="M 157.820312 61.652344 C 131.933594 61.652344 106.046875 71.503906 86.339844 91.210938 C 67.246094 110.304688 56.730469 135.691406 56.730469 162.691406 C 56.730469 189.695312 67.246094 215.078125 86.339844 234.171875 C 105.433594 253.265625 130.816406 263.78125 157.820312 263.78125 C 184.820312 263.78125 210.207031 253.265625 229.300781 234.171875 C 248.394531 215.078125 258.910156 189.695312 258.910156 162.691406 C 258.910156 135.691406 248.394531 110.304688 229.300781 91.210938 C 209.589844 71.503906 183.707031 61.652344 157.820312 61.652344 Z M 157.820312 265.011719 C 130.488281 265.011719 104.796875 254.367188 85.46875 235.042969 C 66.144531 215.714844 55.5 190.023438 55.5 162.691406 C 55.5 135.359375 66.144531 109.667969 85.46875 90.339844 C 104.796875 71.015625 130.488281 60.375 157.820312 60.375 C 185.148438 60.375 210.84375 71.015625 230.171875 90.339844 C 249.496094 109.667969 260.136719 135.359375 260.136719 162.691406 C 260.136719 190.023438 249.496094 215.714844 230.171875 235.042969 C 210.84375 254.367188 185.148438 265.011719 157.820312 265.011719 " fill-opacity="1" fill-rule="nonzero"/><path fill="#ffffff" d="M 337.984375 343.027344 C 342.164062 338.847656 342.164062 332.070312 337.984375 327.886719 L 241.039062 230.941406 L 225.898438 246.085938 L 322.84375 343.027344 C 327.023438 347.210938 333.804688 347.210938 337.984375 343.027344 " fill-opacity="1" fill-rule="nonzero"/><path fill="#000000" d="M 226.765625 246.085938 L 323.277344 342.597656 C 327.210938 346.527344 333.617188 346.527344 337.550781 342.597656 C 341.484375 338.660156 341.484375 332.257812 337.550781 328.324219 L 241.039062 231.8125 Z M 330.414062 346.777344 C 327.515625 346.777344 324.613281 345.671875 322.410156 343.464844 L 225.460938 246.519531 C 225.222656 246.277344 225.222656 245.890625 225.460938 245.648438 L 240.605469 230.507812 C 240.835938 230.277344 241.242188 230.277344 241.472656 230.507812 L 338.417969 327.453125 C 342.832031 331.867188 342.832031 339.050781 338.417969 343.464844 C 336.210938 345.671875 333.3125 346.777344 330.414062 346.777344 " fill-opacity="1" fill-rule="nonzero"/><path fill="#ffffff" d="M 291.257812 288.496094 L 283.085938 280.324219 L 291.257812 288.496094 " fill-opacity="1" fill-rule="nonzero"/><path fill="#000000" d="M 291.257812 289.109375 C 291.101562 289.109375 290.941406 289.050781 290.820312 288.929688 L 282.648438 280.757812 C 282.40625 280.519531 282.40625 280.128906 282.648438 279.890625 C 282.886719 279.648438 283.277344 279.648438 283.519531 279.890625 L 291.691406 288.0625 C 291.933594 288.304688 291.933594 288.691406 291.691406 288.929688 C 291.570312 289.050781 291.414062 289.109375 291.257812 289.109375 " fill-opacity="1" fill-rule="nonzero"/><path fill="#ffffff" d="M 317.328125 330.179688 L 326.511719 339.363281 C 328.660156 341.515625 332.164062 341.515625 334.316406 339.363281 C 336.46875 337.210938 336.46875 333.707031 334.3125 331.554688 L 302.054688 299.296875 L 317.328125 330.179688 " fill-opacity="1" fill-rule="nonzero"/><path fill="#000000" d="M 330.414062 341.589844 C 328.84375 341.589844 327.269531 340.992188 326.074219 339.796875 L 316.890625 330.613281 C 316.652344 330.375 316.652344 329.984375 316.890625 329.746094 C 317.132812 329.503906 317.523438 329.503906 317.761719 329.746094 L 326.945312 338.925781 C 328.859375 340.839844 331.96875 340.839844 333.882812 338.925781 C 335.792969 337.015625 335.792969 333.902344 333.882812 331.988281 L 301.625 299.730469 C 301.378906 299.488281 301.378906 299.101562 301.625 298.863281 C 301.859375 298.621094 302.25 298.621094 302.492188 298.863281 L 334.75 331.121094 C 337.144531 333.511719 337.144531 337.40625 334.753906 339.796875 C 333.554688 340.992188 331.984375 341.589844 330.414062 341.589844 " fill-opacity="1" fill-rule="nonzero"/><path fill="#ffffff" d="M 243.464844 269.222656 L 264.175781 248.507812 C 264.726562 247.960938 264.726562 247.070312 264.175781 246.519531 L 253.261719 235.605469 C 252.710938 235.054688 251.820312 235.054688 251.273438 235.605469 L 230.554688 256.320312 C 230.011719 256.867188 230.011719 257.757812 230.554688 258.308594 L 241.476562 269.222656 C 242.023438 269.773438 242.914062 269.773438 243.464844 269.222656 " fill-opacity="1" fill-rule="nonzero"/><path fill="#000000" d="M 252.269531 236.511719 C 251.605469 236.511719 250.980469 236.769531 250.507812 237.238281 L 232.195312 255.554688 C 231.222656 256.523438 231.222656 258.101562 232.195312 259.070312 L 240.714844 267.589844 C 241.683594 268.5625 243.257812 268.5625 244.226562 267.589844 L 262.546875 249.273438 C 263.515625 248.304688 263.515625 246.726562 262.546875 245.757812 L 254.027344 237.238281 C 253.554688 236.769531 252.933594 236.511719 252.269531 236.511719 Z M 242.46875 269.546875 C 241.519531 269.546875 240.566406 269.183594 239.84375 268.460938 L 231.324219 259.941406 C 229.875 258.492188 229.875 256.136719 231.324219 254.6875 L 249.640625 236.371094 C 250.34375 235.667969 251.273438 235.28125 252.269531 235.28125 C 253.261719 235.28125 254.195312 235.667969 254.894531 236.371094 L 263.414062 244.886719 C 264.863281 246.335938 264.863281 248.695312 263.414062 250.144531 L 245.097656 268.460938 C 244.375 269.183594 243.421875 269.546875 242.46875 269.546875 " fill-opacity="1" fill-rule="nonzero"/><path fill="#ffffff" d="M 259.53125 285.292969 L 280.246094 264.578125 C 280.796875 264.027344 280.796875 263.140625 280.246094 262.589844 L 269.328125 251.671875 C 268.777344 251.125 267.886719 251.125 267.339844 251.671875 L 246.625 272.386719 C 246.078125 272.9375 246.078125 273.824219 246.625 274.375 L 257.542969 285.292969 C 258.09375 285.839844 258.980469 285.839844 259.53125 285.292969 " fill-opacity="1" fill-rule="nonzero"/><path fill="#000000" d="M 268.332031 252.574219 C 267.671875 252.574219 267.046875 252.835938 266.578125 253.304688 L 248.257812 271.621094 C 247.289062 272.589844 247.289062 274.167969 248.257812 275.140625 L 256.777344 283.660156 C 257.746094 284.625 259.324219 284.628906 260.296875 283.660156 L 260.730469 284.09375 L 260.296875 283.660156 L 278.613281 265.339844 C 279.582031 264.371094 279.582031 262.792969 278.613281 261.824219 L 270.09375 253.304688 C 269.625 252.835938 268.996094 252.574219 268.332031 252.574219 Z M 258.535156 285.613281 C 257.585938 285.613281 256.632812 285.253906 255.910156 284.527344 L 247.390625 276.007812 C 245.941406 274.558594 245.941406 272.203125 247.390625 270.753906 L 265.707031 252.4375 C 266.40625 251.734375 267.339844 251.347656 268.332031 251.347656 C 269.328125 251.347656 270.261719 251.734375 270.960938 252.4375 L 279.480469 260.957031 C 280.929688 262.40625 280.929688 264.761719 279.480469 266.210938 L 261.164062 284.527344 C 260.441406 285.253906 259.488281 285.613281 258.535156 285.613281 " fill-opacity="1" fill-rule="nonzero"/><path fill="#d9d9d9" d="M 66.277344 176.761719 L 241.648438 202.117188 C 237.214844 211.550781 231.105469 220.386719 223.308594 228.179688 C 221.269531 230.222656 219.15625 232.140625 216.980469 233.949219 L 80.878906 214.269531 C 73.160156 202.785156 68.292969 189.949219 66.277344 176.761719 " fill-opacity="1" fill-rule="nonzero"/><path fill="#d9d9d9" d="M 92.328125 97.203125 C 101.371094 88.160156 111.820312 81.378906 122.96875 76.855469 L 215.511719 90.234375 C 218.203125 92.386719 220.8125 94.703125 223.308594 97.203125 C 249.101562 122.992188 256.492188 160.210938 245.503906 192.5625 L 65.285156 166.503906 C 64.265625 141.546875 73.273438 116.253906 92.328125 97.203125 " fill-opacity="1" fill-rule="nonzero"/><path fill="#000000" d="M 66.285156 149.160156 C 66.253906 149.160156 66.222656 149.15625 66.191406 149.152344 C 65.855469 149.101562 65.625 148.789062 65.675781 148.453125 C 67.078125 139.320312 69.816406 130.484375 73.816406 122.195312 C 73.960938 121.886719 74.332031 121.761719 74.636719 121.90625 C 74.941406 122.054688 75.070312 122.421875 74.921875 122.726562 C 70.976562 130.910156 68.277344 139.625 66.890625 148.636719 C 66.84375 148.941406 66.582031 149.160156 66.285156 149.160156 " fill-opacity="1" fill-rule="nonzero"/><path fill="#000000" d="M 175.507812 254.230469 C 175.21875 254.230469 174.960938 254.023438 174.902344 253.730469 C 174.839844 253.398438 175.058594 253.074219 175.390625 253.011719 C 193.417969 249.519531 209.835938 240.785156 222.875 227.746094 C 240.25 210.371094 249.824219 187.265625 249.824219 162.691406 C 249.824219 138.117188 240.25 115.011719 222.875 97.636719 C 205.496094 80.261719 182.390625 70.691406 157.820312 70.691406 C 133.246094 70.691406 110.140625 80.261719 92.761719 97.636719 C 92.523438 97.878906 92.132812 97.878906 91.894531 97.636719 C 91.65625 97.398438 91.65625 97.007812 91.894531 96.765625 C 109.503906 79.160156 132.917969 69.460938 157.820312 69.460938 C 182.71875 69.460938 206.136719 79.160156 223.742188 96.765625 C 241.351562 114.375 251.050781 137.789062 251.050781 162.691406 C 251.050781 187.59375 241.351562 211.007812 223.742188 228.617188 C 210.53125 241.828125 193.894531 250.679688 175.625 254.21875 C 175.585938 254.226562 175.546875 254.230469 175.507812 254.230469 " fill-opacity="1" fill-rule="nonzero"/><path fill="#5479f7" d="M 254.132812 28.640625 C 201.527344 27.210938 158.007812 58.28125 156.925781 98.035156 C 156.441406 115.824219 164.542969 132.335938 178.347656 145.28125 L 160.859375 184.257812 L 207.136719 163.582031 C 219.988281 168.957031 234.625 172.1875 250.21875 172.609375 C 302.824219 174.039062 346.339844 142.972656 347.425781 103.214844 C 348.503906 63.460938 306.734375 30.070312 254.132812 28.640625 " fill-opacity="1" fill-rule="nonzero"/><path fill="#000000" d="M 291.863281 29.355469 C 291.746094 29.355469 291.628906 29.328125 291.515625 29.277344 C 290.296875 28.707031 289.042969 28.148438 287.785156 27.621094 C 287.371094 27.445312 287.171875 26.964844 287.347656 26.546875 C 287.523438 26.128906 288.003906 25.9375 288.421875 26.109375 C 289.695312 26.648438 290.972656 27.210938 292.210938 27.789062 C 292.617188 27.984375 292.792969 28.472656 292.605469 28.878906 C 292.464844 29.179688 292.167969 29.355469 291.863281 29.355469 " fill-opacity="1" fill-rule="nonzero"/><path fill="#000000" d="M 244.339844 162.558594 C 243.164062 162.558594 241.988281 162.542969 240.804688 162.511719 C 236.867188 162.40625 232.90625 162.113281 229.027344 161.648438 C 228.582031 161.597656 228.261719 161.1875 228.3125 160.738281 C 228.371094 160.289062 228.777344 159.964844 229.226562 160.019531 C 233.050781 160.480469 236.960938 160.765625 240.851562 160.875 C 292.910156 162.292969 336.148438 131.515625 337.214844 92.273438 C 337.820312 70 324.914062 49.054688 301.808594 34.816406 C 301.421875 34.578125 301.300781 34.074219 301.539062 33.6875 C 301.777344 33.300781 302.28125 33.183594 302.667969 33.417969 C 313.953125 40.375 323.214844 49.292969 329.449219 59.199219 C 336.003906 69.621094 339.167969 80.761719 338.855469 92.320312 C 338.324219 111.808594 327.804688 129.847656 309.226562 143.109375 C 291.578125 155.707031 268.652344 162.558594 244.339844 162.558594 " fill-opacity="1" fill-rule="nonzero"/><path fill="#000000" d="M 151.472656 174.164062 C 151.257812 174.164062 151.046875 174.078125 150.890625 173.921875 C 150.648438 173.679688 150.582031 173.316406 150.722656 173.007812 L 167.972656 134.5625 C 153.792969 121.078125 146.25 104.242188 146.714844 87.097656 C 147.246094 67.605469 157.765625 49.570312 176.339844 36.3125 C 194.84375 23.101562 219.144531 16.210938 244.761719 16.90625 C 250.796875 17.070312 256.824219 17.660156 262.679688 18.660156 C 263.121094 18.738281 263.421875 19.160156 263.34375 19.605469 C 263.269531 20.050781 262.847656 20.351562 262.402344 20.277344 C 256.621094 19.289062 250.675781 18.707031 244.71875 18.542969 C 219.46875 17.855469 195.507812 24.640625 177.292969 37.644531 C 159.148438 50.601562 148.871094 68.179688 148.355469 87.144531 C 147.898438 103.980469 155.414062 120.542969 169.519531 133.769531 C 169.777344 134.007812 169.847656 134.382812 169.707031 134.703125 L 153.097656 171.71875 L 197.410156 151.917969 C 197.617188 151.824219 197.851562 151.824219 198.058594 151.910156 C 201.945312 153.535156 206.011719 154.960938 210.144531 156.160156 C 210.578125 156.285156 210.828125 156.738281 210.703125 157.175781 C 210.578125 157.609375 210.121094 157.863281 209.691406 157.734375 C 205.613281 156.554688 201.601562 155.152344 197.753906 153.5625 L 151.804688 174.089844 C 151.699219 174.136719 151.582031 174.164062 151.472656 174.164062 " fill-opacity="1" fill-rule="nonzero"/><path fill="#ffffff" d="M 248.242188 131.800781 C 244.652344 131.800781 241.746094 134.710938 241.746094 138.300781 L 241.746094 138.746094 C 241.746094 142.335938 244.652344 145.246094 248.242188 145.246094 C 251.832031 145.246094 254.742188 142.335938 254.742188 138.746094 L 254.742188 138.300781 C 254.742188 134.710938 251.832031 131.800781 248.242188 131.800781 " fill-opacity="1" fill-rule="nonzero"/><path fill="#ffffff" d="M 271.980469 55.125 C 266.691406 50.683594 259.480469 48.464844 250.347656 48.464844 C 246.269531 48.464844 241.945312 48.921875 237.382812 49.835938 C 234.730469 50.363281 232.347656 50.933594 230.234375 51.542969 C 227.765625 52.253906 226.074219 54.519531 226.074219 57.085938 C 226.074219 61.179688 230.207031 63.964844 234.007812 62.441406 C 234.851562 62.105469 235.675781 61.789062 236.425781 61.527344 C 240.523438 60.082031 244.867188 59.359375 249.457031 59.359375 C 254.59375 59.359375 258.792969 60.539062 262.039062 62.894531 C 265.289062 65.253906 266.914062 68.832031 266.914062 73.628906 C 266.914062 77.285156 266.234375 80.289062 264.875 82.648438 C 263.515625 85.003906 261.601562 87.285156 259.140625 89.496094 C 257.101562 91.40625 254.480469 93.296875 251.273438 95.164062 C 250.492188 95.621094 249.726562 96.066406 248.96875 96.503906 C 244.855469 98.890625 242.320312 103.289062 242.320312 108.046875 L 242.320312 113.917969 C 242.320312 117.011719 244.722656 119.644531 247.8125 119.753906 C 251.058594 119.871094 253.722656 117.273438 253.722656 114.058594 L 253.722656 112.941406 C 253.722656 108.371094 256.078125 104.132812 259.933594 101.667969 C 261.183594 100.871094 262.40625 100.058594 263.601562 99.242188 C 266.699219 97.117188 269.441406 94.847656 271.816406 92.425781 C 274.238281 89.921875 276.195312 87.042969 277.679688 83.792969 C 279.167969 80.542969 279.910156 76.839844 279.910156 72.675781 C 279.910156 65.410156 277.265625 59.5625 271.980469 55.125 " fill-opacity="1" fill-rule="nonzero"/><path fill="#000000" d="M 83.5 127.789062 C 81.390625 128.316406 79.324219 126.554688 76.121094 123.820312 C 72.230469 120.5 69.515625 118.183594 69.375 114.457031 C 69.246094 111.183594 71.148438 108.140625 73.34375 106.519531 C 74.601562 105.589844 76.507812 105.15625 80.324219 104.296875 C 84.695312 103.3125 85.253906 103.703125 87.785156 102.710938 C 90.734375 101.554688 91.191406 100.550781 92.546875 100.804688 C 94.742188 101.21875 96.71875 104.453125 96.675781 107.472656 C 96.617188 111.464844 93.0625 112.066406 89.054688 118.582031 C 85.707031 124.03125 86.007812 127.164062 83.5 127.789062 " fill-opacity="1" fill-rule="nonzero"/><path fill="#5479f7" d="M 72.121094 141.230469 C 79.25 138.902344 90.109375 137.234375 103.09375 141.371094 C 107.824219 142.875 111.222656 147.042969 111.804688 151.976562 L 122.378906 212.863281 C 122.902344 217.292969 116.988281 221.597656 112.820312 223.175781 C 108.464844 224.824219 101.882812 226.386719 92.5625 226.386719 C 82.574219 226.386719 75.3125 226.964844 71.257812 225.191406 C 67.894531 223.71875 62.832031 220.15625 62.664062 216.488281 L 63.398438 153.902344 C 63.132812 148.195312 66.691406 143 72.121094 141.230469 " fill-opacity="1" fill-rule="nonzero"/><path fill="#5479f7" d="M 122.058594 167.390625 C 122.058594 167.390625 113.617188 144.007812 104.152344 141.761719 L 108.964844 174.894531 L 122.058594 167.390625 " fill-opacity="1" fill-rule="nonzero"/><path fill="#5479f7" d="M 48.742188 176.824219 C 48.742188 176.824219 52.121094 164.269531 54.710938 157.203125 C 59.949219 142.933594 71.160156 141.585938 71.160156 141.585938 L 71.160156 176.722656 L 48.742188 176.824219 " fill-opacity="1" fill-rule="nonzero"/><path fill="#000000" d="M 91.757812 147.824219 C 82.484375 147.824219 74.351562 144.027344 73.957031 143.84375 C 73.652344 143.699219 73.519531 143.332031 73.667969 143.023438 C 73.8125 142.714844 74.179688 142.585938 74.484375 142.730469 C 74.59375 142.78125 85.367188 147.804688 95.921875 146.308594 C 96.253906 146.261719 96.566406 146.496094 96.617188 146.832031 C 96.664062 147.167969 96.429688 147.480469 96.09375 147.527344 C 94.636719 147.730469 93.183594 147.824219 91.757812 147.824219 " fill-opacity="1" fill-rule="nonzero"/><path fill="#99b9ff" d="M 88.222656 188.628906 L 129.675781 188.566406 C 130.726562 188.566406 131.640625 187.847656 131.894531 186.828125 L 140.210938 153.070312 C 140.566406 151.628906 139.472656 150.238281 137.988281 150.238281 L 96.53125 150.300781 C 95.480469 150.304688 94.566406 151.019531 94.316406 152.042969 L 86 185.796875 C 85.644531 187.238281 86.734375 188.632812 88.222656 188.628906 " fill-opacity="1" fill-rule="nonzero"/><path fill="#000000" d="M 137.992188 150.851562 C 137.988281 150.851562 137.988281 150.851562 137.988281 150.851562 L 96.53125 150.917969 C 95.761719 150.917969 95.097656 151.441406 94.914062 152.1875 L 86.59375 185.945312 C 86.472656 186.445312 86.585938 186.96875 86.902344 187.375 C 87.222656 187.78125 87.703125 188.015625 88.21875 188.015625 C 88.21875 188.015625 88.21875 188.015625 88.222656 188.015625 L 129.675781 187.953125 C 130.445312 187.949219 131.113281 187.425781 131.296875 186.679688 L 139.613281 152.925781 C 139.738281 152.421875 139.625 151.902344 139.304688 151.492188 C 138.988281 151.085938 138.507812 150.851562 137.992188 150.851562 Z M 88.21875 189.246094 C 87.320312 189.246094 86.488281 188.839844 85.9375 188.132812 C 85.382812 187.425781 85.1875 186.523438 85.402344 185.648438 L 93.71875 151.894531 C 94.039062 150.597656 95.195312 149.6875 96.53125 149.6875 L 137.984375 149.625 C 137.988281 149.625 137.988281 149.625 137.992188 149.625 C 138.886719 149.625 139.71875 150.027344 140.273438 150.734375 C 140.828125 151.441406 141.023438 152.347656 140.808594 153.21875 L 132.492188 186.976562 C 132.171875 188.269531 131.015625 189.179688 129.679688 189.179688 L 88.222656 189.246094 C 88.222656 189.246094 88.21875 189.246094 88.21875 189.246094 " fill-opacity="1" fill-rule="nonzero"/><path fill="#ffffff" d="M 137.15625 167.011719 L 135.941406 170.390625 L 125.96875 165.660156 C 125.96875 165.660156 120.492188 170.414062 133.789062 176.476562 C 139.332031 179.003906 137.15625 167.011719 137.15625 167.011719 " fill-opacity="1" fill-rule="nonzero"/><path fill="#000000" d="M 126.113281 166.410156 C 125.800781 166.808594 125.335938 167.613281 125.5 168.707031 C 125.746094 170.332031 127.429688 172.898438 134.042969 175.917969 C 135.257812 176.46875 135.734375 176.097656 135.890625 175.976562 C 136.964844 175.140625 137.089844 172.222656 136.875 169.621094 L 136.519531 170.597656 C 136.464844 170.761719 136.339844 170.894531 136.179688 170.960938 C 136.015625 171.027344 135.835938 171.023438 135.679688 170.949219 Z M 135.179688 177.445312 C 134.679688 177.445312 134.128906 177.304688 133.535156 177.035156 C 127.800781 174.421875 124.6875 171.671875 124.28125 168.863281 C 123.957031 166.621094 125.5 165.253906 125.566406 165.195312 C 125.75 165.035156 126.011719 165 126.230469 165.105469 L 135.59375 169.546875 L 136.578125 166.808594 C 136.671875 166.546875 136.929688 166.378906 137.207031 166.402344 C 137.484375 166.425781 137.710938 166.628906 137.761719 166.902344 C 137.910156 167.726562 139.148438 175 136.644531 176.949219 C 136.21875 177.277344 135.730469 177.445312 135.179688 177.445312 " fill-opacity="1" fill-rule="nonzero"/><path fill="#ffffff" d="M 76.375 157.609375 C 76.375 157.609375 57.757812 168.097656 53.917969 171.386719 C 50.078125 174.679688 45.914062 177.175781 51.34375 184.351562 C 56.773438 191.527344 79.832031 162.722656 79.832031 162.722656 C 79.832031 162.722656 84.273438 163.449219 85.8125 157.402344 C 85.8125 157.402344 93.304688 157.660156 93.574219 155.308594 L 83.003906 153.433594 C 81.636719 153.191406 80.238281 153.640625 79.269531 154.636719 L 76.375 157.609375 " fill-opacity="1" fill-rule="nonzero"/><path fill="#000000" d="M 76.375 157.609375 L 76.382812 157.609375 Z M 82.269531 153.984375 C 81.3125 153.984375 80.390625 154.367188 79.710938 155.0625 L 76.816406 158.035156 C 76.777344 158.078125 76.730469 158.113281 76.679688 158.140625 C 76.492188 158.246094 58.070312 168.640625 54.320312 171.855469 C 54.019531 172.109375 53.71875 172.363281 53.421875 172.609375 C 49.933594 175.523438 47.179688 177.828125 51.835938 183.980469 C 52.285156 184.578125 52.894531 184.875 53.695312 184.882812 C 53.710938 184.882812 53.730469 184.882812 53.746094 184.882812 C 61.214844 184.886719 79.171875 162.5625 79.351562 162.335938 C 79.492188 162.164062 79.714844 162.078125 79.933594 162.117188 C 80.089844 162.140625 83.84375 162.644531 85.214844 157.25 C 85.285156 156.972656 85.527344 156.773438 85.832031 156.789062 C 88.257812 156.871094 91.511719 156.546875 92.597656 155.757812 L 82.894531 154.039062 C 82.6875 154 82.476562 153.984375 82.269531 153.984375 Z M 53.738281 186.113281 C 53.71875 186.113281 53.699219 186.113281 53.679688 186.113281 C 52.492188 186.097656 51.539062 185.628906 50.855469 184.722656 C 45.492188 177.636719 49.121094 174.601562 52.632812 171.667969 C 52.925781 171.421875 53.222656 171.171875 53.519531 170.921875 C 57.273438 167.703125 74.511719 157.953125 75.996094 157.117188 L 78.828125 154.207031 C 79.941406 153.066406 81.542969 152.550781 83.109375 152.828125 L 93.679688 154.703125 C 94 154.761719 94.21875 155.054688 94.183594 155.375 C 93.894531 157.902344 88.300781 158.058594 86.277344 158.027344 C 84.796875 163.035156 81.269531 163.382812 80.113281 163.355469 C 77.988281 165.980469 61.441406 186.113281 53.738281 186.113281 " fill-opacity="1" fill-rule="nonzero"/><path fill="#ffffff" d="M 98.5 309.460938 L 92.324219 327.878906 C 92.324219 327.878906 99.050781 327.304688 99.695312 327.429688 C 100.335938 327.558594 108.203125 310.632812 108.203125 310.632812 L 98.5 309.460938 " fill-opacity="1" fill-rule="nonzero"/><path fill="#000000" d="M 99.78125 326.820312 C 99.789062 326.824219 99.800781 326.824219 99.808594 326.828125 C 99.800781 326.824219 99.789062 326.824219 99.78125 326.820312 Z M 98.921875 310.132812 L 93.207031 327.191406 C 95.085938 327.035156 98.339844 326.789062 99.476562 326.804688 C 100.453125 325.496094 104.582031 316.933594 107.285156 311.140625 Z M 92.324219 328.492188 C 92.136719 328.492188 91.960938 328.410156 91.84375 328.261719 C 91.714844 328.097656 91.675781 327.882812 91.742188 327.683594 L 97.917969 309.265625 C 98.007812 308.988281 98.28125 308.8125 98.574219 308.851562 L 108.273438 310.023438 C 108.46875 310.046875 108.644531 310.164062 108.738281 310.335938 C 108.835938 310.507812 108.84375 310.714844 108.757812 310.890625 C 108.738281 310.933594 106.765625 315.175781 104.742188 319.347656 C 100.441406 328.203125 100.171875 328.152344 99.574219 328.035156 C 99.144531 327.972656 95.574219 328.21875 92.378906 328.492188 C 92.359375 328.492188 92.34375 328.492188 92.324219 328.492188 " fill-opacity="1" fill-rule="nonzero"/><path fill="#99b9ff" d="M 93.738281 323.832031 C 93.738281 323.832031 103.023438 320.023438 104.742188 324.804688 C 106.925781 330.878906 110.339844 340.148438 110.339844 340.148438 C 110.917969 341.761719 109.804688 343.480469 108.097656 343.621094 C 104.703125 343.890625 99.644531 344.113281 97.285156 343.289062 C 93.5625 341.980469 87.386719 330.199219 87.386719 330.199219 L 89.292969 320.175781 C 89.292969 320.175781 92.660156 319.703125 93.738281 323.832031 " fill-opacity="1" fill-rule="nonzero"/><path fill="#000000" d="M 88.03125 330.101562 C 89.808594 333.453125 94.679688 341.722656 97.488281 342.707031 C 99.207031 343.308594 102.957031 343.414062 108.046875 343.007812 C 108.671875 342.957031 109.222656 342.628906 109.558594 342.105469 C 109.898438 341.578125 109.96875 340.941406 109.761719 340.355469 C 109.726562 340.269531 106.320312 331.019531 104.164062 325.011719 C 103.894531 324.269531 103.40625 323.746094 102.664062 323.417969 C 99.679688 322.089844 94.03125 324.378906 93.972656 324.398438 C 93.808594 324.464844 93.625 324.460938 93.464844 324.378906 C 93.304688 324.304688 93.191406 324.15625 93.144531 323.988281 C 92.425781 321.230469 90.632812 320.8125 89.804688 320.773438 Z M 102.632812 344.480469 C 100.4375 344.480469 98.386719 344.324219 97.082031 343.867188 C 93.242188 342.519531 87.488281 331.714844 86.84375 330.484375 C 86.777344 330.363281 86.757812 330.222656 86.785156 330.085938 L 88.6875 320.0625 C 88.738281 319.804688 88.945312 319.605469 89.207031 319.566406 C 89.242188 319.5625 92.75 319.117188 94.136719 323.023438 C 95.792969 322.429688 100.316406 321.03125 103.164062 322.296875 C 104.214844 322.761719 104.9375 323.535156 105.320312 324.59375 C 107.476562 330.597656 110.882812 339.84375 110.914062 339.933594 C 111.257812 340.890625 111.140625 341.921875 110.59375 342.769531 C 110.046875 343.617188 109.152344 344.152344 108.144531 344.234375 C 106.445312 344.371094 104.484375 344.480469 102.632812 344.480469 " fill-opacity="1" fill-rule="nonzero"/><path fill="#000000" d="M 107.960938 340.222656 L 98.425781 340.222656 C 98.085938 340.222656 97.808594 339.945312 97.808594 339.605469 C 97.808594 339.265625 98.085938 338.992188 98.425781 338.992188 L 107.960938 338.992188 C 108.300781 338.992188 108.574219 339.265625 108.574219 339.605469 C 108.574219 339.945312 108.300781 340.222656 107.960938 340.222656 " fill-opacity="1" fill-rule="nonzero"/><path fill="#ffffff" d="M 80.996094 313.984375 L 83.09375 332.515625 L 91.53125 330.199219 L 90.882812 313.507812 L 80.996094 313.984375 " fill-opacity="1" fill-rule="nonzero"/><path fill="#000000" d="M 81.679688 314.570312 L 83.621094 331.730469 L 90.898438 329.738281 L 90.289062 314.148438 Z M 83.09375 333.128906 C 82.96875 333.128906 82.851562 333.09375 82.746094 333.023438 C 82.597656 332.921875 82.5 332.761719 82.480469 332.582031 L 80.382812 314.054688 C 80.363281 313.886719 80.417969 313.714844 80.527344 313.589844 C 80.636719 313.457031 80.796875 313.378906 80.964844 313.371094 L 90.851562 312.890625 C 91.015625 312.882812 91.175781 312.941406 91.296875 313.054688 C 91.417969 313.164062 91.488281 313.320312 91.496094 313.480469 L 92.144531 330.175781 C 92.15625 330.460938 91.96875 330.71875 91.691406 330.792969 L 83.253906 333.105469 C 83.203125 333.121094 83.144531 333.128906 83.09375 333.128906 " fill-opacity="1" fill-rule="nonzero"/><path fill="#99b9ff" d="M 82.296875 346.164062 L 95.648438 346.164062 C 97.453125 346.164062 98.839844 344.5625 98.578125 342.777344 C 98.132812 339.761719 96.679688 334.761719 92.324219 327.878906 C 91.851562 327.128906 91.019531 326.671875 90.132812 326.671875 L 86.070312 326.671875 C 85.371094 326.671875 84.785156 327.203125 84.710938 327.898438 L 84.40625 330.828125 L 82.636719 328.492188 C 82.636719 328.492188 79.480469 335.140625 79.332031 343.152344 C 79.304688 344.808594 80.640625 346.164062 82.296875 346.164062 " fill-opacity="1" fill-rule="nonzero"/><path fill="#000000" d="M 82.785156 329.707031 C 81.941406 331.804688 80.058594 337.117188 79.949219 343.164062 C 79.9375 343.796875 80.175781 344.394531 80.621094 344.847656 C 81.066406 345.300781 81.660156 345.550781 82.296875 345.550781 L 95.648438 345.550781 C 96.332031 345.550781 96.980469 345.253906 97.425781 344.738281 C 97.871094 344.222656 98.070312 343.539062 97.96875 342.867188 C 97.535156 339.9375 96.117188 335.019531 91.804688 328.207031 C 91.445312 327.640625 90.804688 327.285156 90.132812 327.285156 L 86.070312 327.285156 C 85.683594 327.285156 85.363281 327.578125 85.324219 327.960938 L 85.015625 330.890625 C 84.988281 331.140625 84.8125 331.351562 84.570312 331.417969 C 84.328125 331.488281 84.066406 331.398438 83.914062 331.199219 Z M 95.648438 346.777344 L 82.296875 346.777344 C 81.328125 346.777344 80.421875 346.402344 79.742188 345.707031 C 79.066406 345.019531 78.703125 344.105469 78.71875 343.140625 C 78.867188 335.085938 81.949219 328.503906 82.082031 328.226562 C 82.175781 328.035156 82.359375 327.902344 82.574219 327.882812 C 82.789062 327.859375 82.996094 327.949219 83.125 328.121094 L 83.953125 329.214844 L 84.101562 327.832031 C 84.207031 326.820312 85.054688 326.058594 86.070312 326.058594 L 90.132812 326.058594 C 91.238281 326.058594 92.253906 326.617188 92.84375 327.550781 C 97.269531 334.542969 98.734375 339.640625 99.1875 342.6875 C 99.335938 343.714844 99.035156 344.753906 98.355469 345.539062 C 97.675781 346.328125 96.6875 346.777344 95.648438 346.777344 " fill-opacity="1" fill-rule="nonzero"/><path fill="#000000" d="M 97.285156 343.589844 L 81.300781 343.589844 C 80.964844 343.589844 80.6875 343.3125 80.6875 342.976562 C 80.6875 342.636719 80.964844 342.359375 81.300781 342.359375 L 97.285156 342.359375 C 97.625 342.359375 97.902344 342.636719 97.902344 342.976562 C 97.902344 343.3125 97.625 343.589844 97.285156 343.589844 " fill-opacity="1" fill-rule="nonzero"/><path fill="#000000" d="M 112.683594 202.710938 C 112.335938 201.855469 111.628906 201.203125 110.746094 200.925781 C 105.863281 199.394531 88.84375 195.359375 71.320312 206.59375 C 70.496094 207.125 69.964844 208.015625 69.894531 208.992188 C 69.261719 217.898438 66.898438 264.445312 81.625 319.558594 L 91.542969 318.851562 L 93.566406 224.617188 C 93.566406 224.617188 108.257812 259.164062 96.3125 314.144531 L 106.628906 316.050781 C 106.628906 316.050781 121.726562 296.199219 124.429688 265.863281 C 126.820312 239.027344 115.363281 209.230469 112.683594 202.710938 " fill-opacity="1" fill-rule="nonzero"/><path fill="#ffffff" d="M 84.152344 275.988281 C 84.144531 275.988281 84.136719 275.984375 84.125 275.984375 C 74.761719 275.582031 73.707031 262.886719 73.695312 262.757812 C 73.671875 262.421875 73.925781 262.128906 74.261719 262.101562 C 74.605469 262.074219 74.898438 262.328125 74.921875 262.667969 C 74.933594 262.785156 75.90625 274.402344 84.179688 274.757812 C 84.519531 274.773438 84.78125 275.058594 84.765625 275.398438 C 84.753906 275.730469 84.480469 275.988281 84.152344 275.988281 " fill-opacity="1" fill-rule="nonzero"/><path fill="#ffffff" d="M 94.429688 233.875 C 94.097656 233.875 93.824219 233.609375 93.816406 233.277344 L 93.464844 221.488281 C 93.460938 221.28125 93.558594 221.085938 93.726562 220.96875 L 99.910156 216.621094 C 100.1875 216.425781 100.570312 216.492188 100.765625 216.769531 C 100.960938 217.046875 100.894531 217.429688 100.617188 217.625 L 94.703125 221.785156 L 95.042969 233.238281 C 95.054688 233.582031 94.789062 233.863281 94.449219 233.875 C 94.441406 233.875 94.433594 233.875 94.429688 233.875 " fill-opacity="1" fill-rule="nonzero"/><path fill="#ffffff" d="M 79.378906 138.28125 C 81.199219 137.074219 82.265625 135.007812 82.214844 132.820312 L 82.007812 123.75 C 81.945312 123.691406 81.882812 123.632812 81.824219 123.578125 C 81.824219 123.578125 78.1875 123.820312 77.660156 121.96875 C 77.128906 120.117188 79.699219 119.765625 79.699219 119.765625 C 79.699219 119.765625 77.273438 114.65625 83.550781 114.71875 C 85.238281 114.730469 85.839844 111.9375 88.605469 111.3125 C 88.605469 111.3125 89.972656 111.195312 91.359375 114.78125 L 94.398438 119.277344 L 92.878906 120.109375 C 93.253906 121.820312 93.414062 123.703125 93.1875 125.703125 C 93.117188 126.277344 92.722656 126.761719 92.171875 126.9375 C 91.714844 127.085938 91.101562 127.242188 90.375 127.328125 L 90.863281 133.398438 C 91.078125 136.054688 92.472656 138.476562 94.65625 140.007812 C 96.765625 141.488281 98.710938 142.53125 98.710938 142.53125 C 98.710938 142.53125 87.515625 144.0625 74.648438 141.125 C 74.648438 141.125 77.132812 139.765625 79.378906 138.28125 " fill-opacity="1" fill-rule="nonzero"/><path fill="#000000" d="M 76.355469 140.863281 C 85.28125 142.671875 93.25 142.378906 96.746094 142.105469 C 96.046875 141.679688 95.191406 141.136719 94.300781 140.511719 C 91.957031 138.867188 90.480469 136.292969 90.253906 133.449219 L 89.761719 127.378906 C 89.738281 127.046875 89.976562 126.753906 90.304688 126.71875 C 90.878906 126.652344 91.445312 126.527344 91.984375 126.355469 C 92.304688 126.25 92.535156 125.96875 92.574219 125.632812 C 92.777344 123.875 92.679688 122.0625 92.28125 120.242188 C 92.222656 119.976562 92.347656 119.699219 92.585938 119.570312 L 93.511719 119.0625 L 90.851562 115.128906 C 90.824219 115.089844 90.804688 115.046875 90.789062 115.003906 C 89.769531 112.371094 88.84375 111.988281 88.648438 111.933594 C 87.421875 112.242188 86.695312 113.042969 85.996094 113.816406 C 85.316406 114.5625 84.621094 115.332031 83.566406 115.332031 C 83.523438 115.332031 83.480469 115.332031 83.441406 115.332031 C 81.761719 115.332031 80.664062 115.71875 80.171875 116.488281 C 79.410156 117.667969 80.246094 119.484375 80.257812 119.5 C 80.339844 119.679688 80.332031 119.886719 80.238281 120.054688 C 80.148438 120.230469 79.976562 120.347656 79.785156 120.375 C 79.5 120.414062 78.621094 120.636719 78.3125 121.109375 C 78.234375 121.230469 78.144531 121.429688 78.25 121.800781 C 78.574219 122.921875 80.96875 123.019531 81.78125 122.964844 C 81.953125 122.953125 82.121094 123.015625 82.246094 123.132812 L 82.425781 123.296875 C 82.546875 123.410156 82.617188 123.570312 82.621094 123.738281 L 82.828125 132.808594 C 82.882812 135.226562 81.722656 137.46875 79.71875 138.792969 C 78.535156 139.574219 77.28125 140.328125 76.355469 140.863281 Z M 91.242188 143.539062 C 86.804688 143.539062 80.839844 143.171875 74.511719 141.726562 C 74.261719 141.667969 74.074219 141.464844 74.039062 141.210938 C 74.003906 140.957031 74.128906 140.710938 74.351562 140.585938 C 74.378906 140.574219 76.84375 139.222656 79.039062 137.765625 C 80.6875 136.675781 81.644531 134.832031 81.601562 132.835938 L 81.402344 124.207031 C 80.277344 124.214844 77.605469 124.023438 77.070312 122.136719 C 76.890625 121.515625 76.964844 120.925781 77.285156 120.4375 C 77.675781 119.832031 78.359375 119.503906 78.882812 119.332031 C 78.625 118.484375 78.371094 117.023438 79.132812 115.828125 C 79.878906 114.664062 81.359375 114.085938 83.558594 114.101562 C 84.054688 114.113281 84.457031 113.683594 85.082031 112.988281 C 85.851562 112.140625 86.808594 111.089844 88.46875 110.710938 C 88.496094 110.707031 88.527344 110.703125 88.554688 110.699219 C 88.855469 110.675781 90.4375 110.734375 91.910156 114.496094 L 94.90625 118.933594 C 95.003906 119.078125 95.035156 119.253906 94.996094 119.421875 C 94.953125 119.589844 94.84375 119.734375 94.691406 119.816406 L 93.574219 120.429688 C 93.921875 122.234375 93.996094 124.027344 93.796875 125.773438 C 93.703125 126.585938 93.140625 127.269531 92.359375 127.523438 C 91.929688 127.664062 91.488281 127.773438 91.035156 127.851562 L 91.476562 133.351562 C 91.675781 135.828125 92.964844 138.070312 95.007812 139.507812 C 97.058594 140.945312 98.980469 141.980469 99 141.992188 C 99.234375 142.117188 99.363281 142.378906 99.316406 142.640625 C 99.269531 142.902344 99.058594 143.105469 98.792969 143.140625 C 98.738281 143.152344 95.796875 143.539062 91.242188 143.539062 " fill-opacity="1" fill-rule="nonzero"/><path fill="#ffffff" d="M 90.375 127.328125 C 90.375 127.328125 86.394531 127.46875 84.8125 125.300781 L 90.375 127.328125 " fill-opacity="1" fill-rule="nonzero"/><path fill="#000000" d="M 90.214844 127.945312 C 89.363281 127.945312 85.882812 127.808594 84.316406 125.664062 C 84.113281 125.390625 84.175781 125.003906 84.449219 124.804688 C 84.722656 124.605469 85.109375 124.664062 85.308594 124.9375 C 86.675781 126.8125 90.316406 126.714844 90.355469 126.714844 C 90.675781 126.699219 90.980469 126.96875 90.992188 127.308594 C 91.003906 127.644531 90.738281 127.929688 90.398438 127.941406 C 90.378906 127.945312 90.316406 127.945312 90.214844 127.945312 " fill-opacity="1" fill-rule="nonzero"/><path fill="#99b9ff" d="M 255.121094 304.65625 L 161.984375 304.65625 C 158.554688 304.65625 155.773438 307.433594 155.773438 310.863281 C 155.773438 314.292969 158.554688 317.074219 161.984375 317.074219 L 255.121094 317.074219 C 258.550781 317.074219 261.332031 314.292969 261.332031 310.863281 C 261.332031 307.433594 258.550781 304.65625 255.121094 304.65625 " fill-opacity="1" fill-rule="nonzero"/><path fill="#99b9ff" d="M 193.492188 284.878906 L 142.050781 284.878906 C 138.867188 284.878906 136.285156 287.457031 136.285156 290.640625 C 136.285156 293.828125 138.867188 296.40625 142.050781 296.40625 L 193.492188 296.40625 C 196.675781 296.40625 199.253906 293.828125 199.253906 290.640625 C 199.253906 287.457031 196.675781 284.878906 193.492188 284.878906 " fill-opacity="1" fill-rule="nonzero"/><path fill="#99b9ff" d="M 216.921875 290.640625 C 216.921875 293.828125 214.339844 296.40625 211.15625 296.40625 C 207.96875 296.40625 205.386719 293.828125 205.386719 290.640625 C 205.386719 287.457031 207.96875 284.878906 211.15625 284.878906 C 214.339844 284.878906 216.921875 287.457031 216.921875 290.640625 " fill-opacity="1" fill-rule="nonzero"/><path fill="#99b9ff" d="M 318.984375 209.652344 L 260.953125 209.652344 C 257.523438 209.652344 254.742188 212.433594 254.742188 215.859375 C 254.742188 219.289062 257.523438 222.070312 260.953125 222.070312 L 318.984375 222.070312 C 322.414062 222.070312 325.191406 219.289062 325.191406 215.859375 C 325.191406 212.433594 322.414062 209.652344 318.984375 209.652344 " fill-opacity="1" fill-rule="nonzero"/><path fill="#99b9ff" d="M 332.992188 189.875 L 281.550781 189.875 C 278.363281 189.875 275.785156 192.457031 275.785156 195.640625 C 275.785156 198.824219 278.363281 201.40625 281.550781 201.40625 L 332.992188 201.40625 C 336.175781 201.40625 338.753906 198.824219 338.753906 195.640625 C 338.753906 192.457031 336.175781 189.875 332.992188 189.875 " fill-opacity="1" fill-rule="nonzero"/><path fill="#99b9ff" d="M 356.421875 195.640625 C 356.421875 198.824219 353.839844 201.40625 350.65625 201.40625 C 347.46875 201.40625 344.890625 198.824219 344.890625 195.640625 C 344.890625 192.457031 347.46875 189.875 350.65625 189.875 C 353.839844 189.875 356.421875 192.457031 356.421875 195.640625 " fill-opacity="1" fill-rule="nonzero"/><path fill="#99b9ff" d="M 104.929688 52.144531 L 46.902344 52.144531 C 43.472656 52.144531 40.691406 54.925781 40.691406 58.351562 C 40.691406 61.785156 43.472656 64.5625 46.902344 64.5625 L 104.929688 64.5625 C 108.359375 64.5625 111.140625 61.785156 111.140625 58.351562 C 111.140625 54.925781 108.359375 52.144531 104.929688 52.144531 " fill-opacity="1" fill-rule="nonzero"/><path fill="#99b9ff" d="M 118.941406 32.367188 L 67.5 32.367188 C 64.316406 32.367188 61.734375 34.949219 61.734375 38.132812 C 61.734375 41.316406 64.316406 43.898438 67.5 43.898438 L 118.941406 43.898438 C 122.125 43.898438 124.707031 41.316406 124.707031 38.132812 C 124.707031 34.949219 122.125 32.367188 118.941406 32.367188 " fill-opacity="1" fill-rule="nonzero"/><path fill="#99b9ff" d="M 142.371094 38.132812 C 142.371094 41.316406 139.789062 43.898438 136.601562 43.898438 C 133.417969 43.898438 130.835938 41.316406 130.835938 38.132812 C 130.835938 34.949219 133.417969 32.367188 136.601562 32.367188 C 139.789062 32.367188 142.371094 34.949219 142.371094 38.132812 " fill-opacity="1" fill-rule="nonzero"/><path fill="#000000" d="M 347.445312 234.078125 L 283.589844 234.078125 C 283.136719 234.078125 282.773438 233.710938 282.773438 233.257812 C 282.773438 232.804688 283.136719 232.441406 283.589844 232.441406 L 347.445312 232.441406 C 347.894531 232.441406 348.261719 232.804688 348.261719 233.257812 C 348.261719 233.710938 347.894531 234.078125 347.445312 234.078125 " fill-opacity="1" fill-rule="nonzero"/><path fill="#000000" d="M 302.054688 245.746094 L 272.097656 245.746094 C 271.644531 245.746094 271.277344 245.378906 271.277344 244.925781 C 271.277344 244.472656 271.644531 244.105469 272.097656 244.105469 L 302.054688 244.105469 C 302.507812 244.105469 302.875 244.472656 302.875 244.925781 C 302.875 245.378906 302.507812 245.746094 302.054688 245.746094 " fill-opacity="1" fill-rule="nonzero"/><path fill="#000000" d="M 184.890625 328.558594 L 144.980469 328.558594 C 144.527344 328.558594 144.160156 328.1875 144.160156 327.738281 C 144.160156 327.285156 144.527344 326.917969 144.980469 326.917969 L 184.890625 326.917969 C 185.339844 326.917969 185.707031 327.285156 185.707031 327.738281 C 185.707031 328.1875 185.339844 328.558594 184.890625 328.558594 " fill-opacity="1" fill-rule="nonzero"/><path fill="#000000" d="M 74.222656 77.671875 L 38.488281 77.671875 C 38.035156 77.671875 37.667969 77.304688 37.667969 76.855469 C 37.667969 76.402344 38.035156 76.035156 38.488281 76.035156 L 74.222656 76.035156 C 74.675781 76.035156 75.042969 76.402344 75.042969 76.855469 C 75.042969 77.304688 74.675781 77.671875 74.222656 77.671875 " fill-opacity="1" fill-rule="nonzero"/><path fill="#000000" d="M 181.113281 20.839844 L 162.054688 20.839844 C 161.601562 20.839844 161.234375 20.472656 161.234375 20.019531 C 161.234375 19.570312 161.601562 19.199219 162.054688 19.199219 L 181.113281 19.199219 C 181.5625 19.199219 181.933594 19.570312 181.933594 20.019531 C 181.933594 20.472656 181.5625 20.839844 181.113281 20.839844 " fill-opacity="1" fill-rule="nonzero"/><path fill="#000000" d="M 217.246094 338.109375 L 159.070312 338.109375 C 158.617188 338.109375 158.25 337.742188 158.25 337.292969 C 158.25 336.839844 158.617188 336.472656 159.070312 336.472656 L 217.246094 336.472656 C 217.699219 336.472656 218.066406 336.839844 218.066406 337.292969 C 218.066406 337.742188 217.699219 338.109375 217.246094 338.109375 " fill-opacity="1" fill-rule="nonzero"/></svg>